<?xml version="1.0" encoding="utf-8"?>
<!-- Generator: Adobe Illustrator 16.0.3, SVG Export Plug-In . SVG Version: 6.00 Build 0)  -->
<!DOCTYPE svg PUBLIC "-//W3C//DTD SVG 1.1//EN" "http://www.w3.org/Graphics/SVG/1.1/DTD/svg11.dtd">
<svg version="1.1" id="Layer_1" xmlns="http://www.w3.org/2000/svg" xmlns:xlink="http://www.w3.org/1999/xlink" x="0px" y="0px"
	 width="184.667px" height="45px" viewBox="0 0 184.667 45" enable-background="new 0 0 184.667 45" xml:space="preserve">
<g>
	<defs>
		<path id="SVGID_1_" d="M11.217,21.456c0,9.429,7.644,17.073,17.074,17.073c9.428,0,17.072-7.645,17.072-17.073
			S37.719,4.382,28.291,4.382C18.861,4.382,11.217,12.027,11.217,21.456"/>
	</defs>
	<clipPath id="SVGID_2_">
		<use xlink:href="#SVGID_1_"  overflow="visible"/>
	</clipPath>
	<rect x="28.292" y="3.313" clip-path="url(#SVGID_2_)" fill="#1A8835" width="25.079" height="36.325"/>
	<rect x="3.211" y="3.274" clip-path="url(#SVGID_2_)" fill="#C31332" width="25.081" height="36.325"/>
</g>
<g>
	<defs>
		<path id="SVGID_3_" d="M24.401,40.023c-1.899,0.484-3.799,1.862-3.799,1.862s2.61,0.154,4.321-0.742
			c1.713-0.895,2.383-0.522,2.383-0.522s-1.973,1.34-2.495,1.415c0.896,0.074,2.791-0.445,3.461-0.928
			c0.636,0.334,1.757,1.076,3.206,0.928c-1.044-0.41-2.01-1.042-2.197-1.376c0.63,0.036,2.082,0.261,2.754,0.56
			c0.671,0.297,1.595,0.779,3.5,0.666c-0.892-0.742-2.572-1.899-3.835-1.899c-1.266,0-2.423-0.037-3.24,0.56
			c-0.416-0.276-1.405-0.698-2.665-0.697C25.359,39.848,24.89,39.898,24.401,40.023"/>
	</defs>
	<clipPath id="SVGID_4_">
		<use xlink:href="#SVGID_3_"  overflow="visible"/>
	</clipPath>
	
		<linearGradient id="SVGID_5_" gradientUnits="userSpaceOnUse" x1="-531.9805" y1="282.918" x2="-531.5029" y2="282.918" gradientTransform="matrix(31.2615 0 0 -31.2615 16651.0996 8885.4551)">
		<stop  offset="0" style="stop-color:#1A8835"/>
		<stop  offset="1" style="stop-color:#C31332"/>
	</linearGradient>
	<rect x="20.602" y="39.847" clip-path="url(#SVGID_4_)" fill="url(#SVGID_5_)" width="14.934" height="2.336"/>
</g>
<path fill="#C31332" d="M42.108,8.33c0,0-1.025-0.193-1.126-1.138C42.018,7.328,42.108,8.33,42.108,8.33"/>
<path fill="#C31332" d="M33.414,39.673c0,0,0.744-2.006,2.533-2.384c0.003,0.161,0.148,1.116-1.418,2.16
	c0.474-0.022,0.58-0.012,0.493,0.012c1.615,0.142,3.719,1.215,3.791,2.15C35.186,41.994,33.414,39.673,33.414,39.673"/>
<path fill="#C31332" d="M36.557,38.848c0,0,0.275-2.123,1.932-2.895c0.039,0.157,0.396,1.055-0.896,2.425
	c1.579-0.44,4.35,0.154,4.66,1.142C38.806,40.71,36.557,38.848,36.557,38.848"/>
<path fill="#C31332" d="M40.274,37.915c0,0-0.907-2.114,0.067-3.513c0.098,0.128,1.018,0.873,0.689,2.663
	c1.263-1.046,4.127-1.32,4.813-0.545C43.179,39.008,40.274,37.915,40.274,37.915"/>
<path fill="#C31332" d="M42.445,35.607c0,0-1.015-2.063-0.116-3.512c0.105,0.121,1.06,0.817,0.827,2.623
	c1.206-1.109,4.052-1.534,4.777-0.795C45.402,36.548,42.445,35.607,42.445,35.607"/>
<path fill="#C31332" d="M43.817,33.284c0,0-1.15-1.823-0.453-3.261c0.108,0.104,1.069,0.658,1.027,2.362
	c1.015-1.151,3.623-1.824,4.37-1.208C46.662,33.871,43.817,33.284,43.817,33.284"/>
<path fill="#C31332" d="M45.153,30.517c0,0-1.024-1.625-0.402-2.905c0.096,0.092,0.951,0.586,0.916,2.105
	c0.906-1.026,3.228-1.627,3.894-1.076C47.69,31.041,45.153,30.517,45.153,30.517"/>
<path fill="#C31332" d="M46.506,28.072c0,0-1.381-1.499-0.946-2.853c0.108,0.079,1.023,0.447,1.198,1.958
	c0.753-1.143,2.972-2.061,3.707-1.608C48.946,28.204,46.506,28.072,46.506,28.072"/>
<path fill="#C31332" d="M47.014,25.426c0,0-1.294-1.31-0.913-2.489c0.094,0.068,0.89,0.391,1.044,1.705
	c0.656-0.995,2.588-1.795,3.229-1.401C49.052,25.538,47.014,25.426,47.014,25.426"/>
<path fill="#C31332" d="M47.316,23.054c0,0-1.52-1.212-1.329-2.436c0.105,0.05,0.943,0.246,1.299,1.521
	c0.493-1.086,2.276-2.179,2.971-1.891C49.31,22.724,47.316,23.054,47.316,23.054"/>
<path fill="#C31332" d="M47.212,20.618c0,0-1.706-0.93-1.731-2.169c0.114,0.033,0.972,0.079,1.544,1.272
	c0.296-1.155,1.863-2.542,2.598-2.377C49.119,19.946,47.212,20.618,47.212,20.618"/>
<path fill="#C31332" d="M46.777,18.262c0,0-1.43-0.777-1.45-1.814c0.095,0.026,0.813,0.064,1.292,1.064
	c0.249-0.967,1.561-2.126,2.176-1.99C48.372,17.702,46.777,18.262,46.777,18.262"/>
<path fill="#C31332" d="M46.304,16.112c0,0-1.501-0.625-1.63-1.654c0.096,0.018,0.815-0.02,1.396,0.924
	c0.146-0.987,1.33-2.278,1.954-2.207C47.833,15.387,46.304,16.112,46.304,16.112"/>
<path fill="#C31332" d="M45.673,14.08c0,0-1.566-0.438-1.821-1.443c0.098,0.005,0.807-0.119,1.501,0.747
	c0.021-0.998,1.038-2.423,1.669-2.428C47.102,13.173,45.673,14.08,45.673,14.08"/>
<path fill="#C31332" d="M44.816,12.008c0,0-1.468-0.195-1.824-1.069c0.088-0.008,0.711-0.209,1.444,0.483
	c-0.104-0.902,0.634-2.317,1.2-2.401C45.988,11.011,44.816,12.008,44.816,12.008"/>
<path fill="#C31332" d="M43.925,10.347c0,0-1.372-0.011-1.797-0.762c0.081-0.016,0.632-0.269,1.384,0.274
	c-0.196-0.804,0.323-2.166,0.835-2.305C44.894,9.313,43.925,10.347,43.925,10.347"/>
<path fill="#C31332" d="M42.775,9.085c0,0-1.004,0.098-1.374-0.419c0.06-0.019,0.442-0.246,1.035,0.094
	c-0.206-0.573,0.07-1.61,0.434-1.752C43.404,8.253,42.775,9.085,42.775,9.085"/>
<path fill="#1A8835" d="M14.336,8.5c0,0,1.025-0.194,1.126-1.139C14.426,7.498,14.336,8.5,14.336,8.5"/>
<path fill="#1A8835" d="M22.948,39.809c0,0-0.744-2.006-2.533-2.384c-0.002,0.161-0.147,1.115,1.419,2.161
	c-0.474-0.023-0.579-0.012-0.493,0.012c-1.614,0.142-3.718,1.215-3.792,2.148C21.176,42.131,22.948,39.809,22.948,39.809"/>
<path fill="#1A8835" d="M19.888,39.018c0,0-0.275-2.122-1.932-2.894c-0.038,0.157-0.395,1.054,0.896,2.425
	c-1.579-0.441-4.35,0.153-4.661,1.142C17.639,40.88,19.888,39.018,19.888,39.018"/>
<path fill="#1A8835" d="M16.17,38.085c0,0,0.907-2.114-0.066-3.513c-0.099,0.128-1.018,0.872-0.69,2.664
	c-1.263-1.046-4.127-1.321-4.813-0.546C13.266,39.179,16.17,38.085,16.17,38.085"/>
<path fill="#1A8835" d="M14,35.777c0,0,1.015-2.063,0.115-3.511c-0.104,0.12-1.059,0.817-0.826,2.623
	c-1.207-1.11-4.052-1.534-4.777-0.795C11.042,36.718,14,35.777,14,35.777"/>
<path fill="#1A8835" d="M12.628,33.454c0,0,1.149-1.822,0.453-3.26c-0.109,0.104-1.069,0.658-1.027,2.362
	c-1.015-1.151-3.624-1.824-4.371-1.208C9.783,34.041,12.628,33.454,12.628,33.454"/>
<path fill="#1A8835" d="M11.292,30.687c0,0,1.024-1.625,0.403-2.904c-0.096,0.092-0.951,0.586-0.916,2.104
	c-0.905-1.026-3.228-1.627-3.894-1.076C8.755,31.21,11.292,30.687,11.292,30.687"/>
<path fill="#1A8835" d="M9.939,28.242c0,0,1.381-1.499,0.946-2.853c-0.109,0.078-1.024,0.447-1.199,1.957
	c-0.753-1.143-2.972-2.061-3.706-1.608C7.498,28.374,9.939,28.242,9.939,28.242"/>
<path fill="#1A8835" d="M9.431,25.596c0,0,1.294-1.309,0.914-2.488c-0.095,0.068-0.89,0.39-1.045,1.705
	c-0.655-0.995-2.588-1.795-3.229-1.401C7.393,25.708,9.431,25.596,9.431,25.596"/>
<path fill="#1A8835" d="M9.128,23.225c0,0,1.521-1.212,1.329-2.437c-0.104,0.051-0.943,0.246-1.299,1.521
	c-0.492-1.086-2.276-2.179-2.971-1.891C7.135,22.895,9.128,23.225,9.128,23.225"/>
<path fill="#1A8835" d="M9.232,20.788c0,0,1.707-0.93,1.732-2.169c-0.114,0.033-0.973,0.079-1.544,1.272
	c-0.296-1.155-1.863-2.542-2.598-2.377C7.326,20.117,9.232,20.788,9.232,20.788"/>
<path fill="#1A8835" d="M9.667,18.433c0,0,1.43-0.778,1.45-1.814c-0.094,0.026-0.813,0.064-1.292,1.064
	c-0.248-0.967-1.561-2.126-2.176-1.99C8.072,17.872,9.667,18.433,9.667,18.433"/>
<path fill="#1A8835" d="M10.14,16.283c0,0,1.501-0.625,1.63-1.654c-0.096,0.019-0.814-0.02-1.395,0.924
	c-0.146-0.988-1.33-2.278-1.954-2.207C8.612,15.558,10.14,16.283,10.14,16.283"/>
<path fill="#1A8835" d="M10.772,14.25c0,0,1.566-0.438,1.82-1.443c-0.097,0.005-0.807-0.119-1.501,0.747
	c-0.021-0.999-1.038-2.423-1.669-2.428C9.343,13.344,10.772,14.25,10.772,14.25"/>
<path fill="#1A8835" d="M11.628,12.179c0,0,1.468-0.195,1.824-1.07c-0.087-0.007-0.71-0.209-1.444,0.485
	c0.104-0.903-0.635-2.317-1.2-2.401C10.457,11.181,11.628,12.179,11.628,12.179"/>
<path fill="#1A8835" d="M12.519,10.518c0,0,1.372-0.012,1.797-0.763c-0.081-0.016-0.631-0.269-1.384,0.275
	c0.196-0.804-0.323-2.166-0.835-2.306C11.55,9.484,12.519,10.518,12.519,10.518"/>
<path fill="#1A8835" d="M13.669,9.255c0,0,1.005,0.098,1.374-0.419c-0.06-0.019-0.442-0.246-1.034,0.094
	c0.206-0.573-0.07-1.61-0.435-1.752C13.04,8.424,13.669,9.255,13.669,9.255"/>
<g opacity="0.5">
	<g>
		<defs>
			<rect id="SVGID_6_" x="31.699" y="18.198" width="5.091" height="7.621"/>
		</defs>
		<clipPath id="SVGID_7_">
			<use xlink:href="#SVGID_6_"  overflow="visible"/>
		</clipPath>
		<path clip-path="url(#SVGID_7_)" fill-rule="evenodd" clip-rule="evenodd" fill="#FFFFFF" d="M31.747,18.198
			c0,0,6.055,1.634,4.896,7.621C36.642,25.818,31.132,24.864,31.747,18.198"/>
	</g>
</g>
<g opacity="0.5">
	<g>
		<defs>
			<rect id="SVGID_8_" x="29.146" y="20.709" width="7.497" height="5.222"/>
		</defs>
		<clipPath id="SVGID_9_">
			<use xlink:href="#SVGID_8_"  overflow="visible"/>
		</clipPath>
		<path clip-path="url(#SVGID_9_)" fill-rule="evenodd" clip-rule="evenodd" fill="#FFFFFF" d="M29.146,20.735
			c0,0,1.484,6.094,7.497,5.083C36.642,25.818,35.825,20.286,29.146,20.735"/>
	</g>
</g>
<g opacity="0.5">
	<g>
		<defs>
			<rect id="SVGID_10_" x="36.446" y="18.141" width="5.092" height="7.621"/>
		</defs>
		<clipPath id="SVGID_11_">
			<use xlink:href="#SVGID_10_"  overflow="visible"/>
		</clipPath>
		<path clip-path="url(#SVGID_11_)" fill-rule="evenodd" clip-rule="evenodd" fill="#FFFFFF" d="M41.49,18.141
			c0,0-6.056,1.635-4.896,7.621C36.593,25.761,42.104,24.808,41.49,18.141"/>
	</g>
</g>
<g opacity="0.5">
	<g>
		<defs>
			<rect id="SVGID_12_" x="36.593" y="20.652" width="7.497" height="5.222"/>
		</defs>
		<clipPath id="SVGID_13_">
			<use xlink:href="#SVGID_12_"  overflow="visible"/>
		</clipPath>
		<path clip-path="url(#SVGID_13_)" fill-rule="evenodd" clip-rule="evenodd" fill="#FFFFFF" d="M44.09,20.679
			c0,0-1.484,6.094-7.497,5.083C36.593,25.761,37.411,20.229,44.09,20.679"/>
	</g>
</g>
<g opacity="0.5">
	<g>
		<defs>
			<rect id="SVGID_14_" x="34.782" y="16.76" width="3.703" height="9.059"/>
		</defs>
		<clipPath id="SVGID_15_">
			<use xlink:href="#SVGID_14_"  overflow="visible"/>
		</clipPath>
		<path clip-path="url(#SVGID_15_)" fill-rule="evenodd" clip-rule="evenodd" fill="#FFFFFF" d="M36.667,16.76
			c0,0-4.224,4.638-0.025,9.059C36.642,25.818,40.772,22.048,36.667,16.76"/>
	</g>
</g>
<path fill="#F7F719" d="M28.291,5.63L28.291,5.63c8.727,0,15.825,7.1,15.825,15.826c0,8.727-7.099,15.825-15.825,15.825
	s-15.826-7.099-15.826-15.825C12.465,12.729,19.564,5.63,28.291,5.63 M28.291,4.197L28.291,4.197
	c-9.533,0-17.259,7.727-17.259,17.259c0,9.531,7.727,17.259,17.259,17.259c9.531,0,17.258-7.728,17.258-17.259
	C45.549,11.924,37.822,4.197,28.291,4.197"/>
<path d="M22.981,2.037c0.114-0.055,0.3-0.119,0.494-0.166c0.276-0.067,0.465-0.062,0.624,0.013c0.131,0.056,0.228,0.167,0.269,0.334
	c0.05,0.207-0.043,0.42-0.249,0.557l0.001,0.007c0.215,0.002,0.494,0.112,0.57,0.429c0.044,0.184,0.005,0.341-0.077,0.472
	c-0.116,0.172-0.342,0.294-0.69,0.378c-0.19,0.047-0.339,0.069-0.435,0.078L22.981,2.037z M23.469,2.846l0.25-0.06
	c0.292-0.07,0.426-0.265,0.376-0.47c-0.06-0.251-0.274-0.303-0.554-0.236c-0.126,0.031-0.197,0.059-0.239,0.079L23.469,2.846z
	 M23.716,3.87c0.056-0.003,0.136-0.02,0.234-0.043c0.285-0.068,0.523-0.237,0.449-0.548C24.329,2.987,24.048,2.927,23.747,3
	l-0.229,0.055L23.716,3.87z"/>
<path d="M28.688,3.432c-0.103,0.054-0.311,0.109-0.578,0.114c-0.62,0.01-1.093-0.374-1.104-1.094
	c-0.012-0.688,0.447-1.163,1.128-1.174c0.274-0.005,0.448,0.051,0.524,0.089L28.592,1.6c-0.107-0.05-0.262-0.087-0.444-0.084
	c-0.516,0.009-0.853,0.344-0.843,0.921c0.009,0.539,0.325,0.878,0.86,0.87c0.172-0.003,0.348-0.042,0.461-0.099L28.688,3.432z"/>
<path d="M32.641,3.988c-0.133,0.018-0.395,0.039-0.686-0.024c-0.325-0.07-0.575-0.211-0.742-0.457
	c-0.146-0.219-0.199-0.53-0.127-0.865c0.142-0.641,0.683-1.015,1.403-0.859c0.249,0.054,0.432,0.149,0.515,0.214L32.888,2.21
	c-0.103-0.076-0.238-0.148-0.455-0.194c-0.522-0.113-0.934,0.138-1.05,0.677c-0.118,0.545,0.142,0.938,0.642,1.046
	c0.182,0.04,0.312,0.041,0.382,0.021l0.138-0.64l-0.437-0.094l0.048-0.223l0.708,0.153L32.641,3.988z"/>
<polygon points="26.058,1.77 26.246,2.205 26.717,2.16 26.362,2.474 26.55,2.908 26.143,2.667 25.787,2.98 25.891,2.518 
	25.483,2.277 25.955,2.232 "/>
<polygon points="29.953,1.658 30.04,2.124 30.509,2.186 30.093,2.412 30.179,2.877 29.835,2.552 29.419,2.778 29.623,2.35 
	29.279,2.024 29.749,2.086 "/>
<path fill="#F7F719" d="M24.233,14.745v-1.06h-1.323v0.735h-1.062v-0.735h-1.333v1.827h-0.483v-1.848v0v-0.024v-0.017l-0.001-0.006
	c-0.003-0.056-0.016-0.108-0.038-0.156l-0.002-0.006l-0.021-0.042l-0.006-0.006c-0.027-0.042-0.061-0.08-0.099-0.111l-0.009-0.008
	l-0.011-0.064l-0.01-0.063l-0.021-0.063l-0.042-0.052l-0.041-0.042l-0.053-0.042l-0.053-0.031l-0.063-0.021l-0.063-0.021h-0.074
	h-0.006c0,0-0.001,0-0.001,0l0,0h-0.064l-0.036,0.012c-0.025,0.006-0.05,0.014-0.073,0.024l-0.018,0.006l-0.063,0.031l-0.034,0.034
	l-0.008,0.008l-0.036,0.037l-0.006,0.006l-0.042,0.052l-0.012,0.029c-0.023,0.047-0.04,0.099-0.045,0.153
	c-0.112,0.081-0.184,0.211-0.184,0.36c0,0.012-0.002,0.024,0,0.035v9.68h-0.109c-0.004,0-0.009,0-0.013,0h-0.004l-0.001,0
	c-0.145,0.009-0.26,0.129-0.26,0.278c0,0.146,0.114,0.267,0.258,0.277l0.003,0.001h0.009c0.002,0,0.004,0,0.006,0h0.111v0.335
	h-0.073h-0.054l-0.025,0.005l-0.016,0.003l-0.011,0.002l-0.002,0.001c-0.11,0.032-0.192,0.129-0.202,0.248l-0.005,0.024l0.005,0.019
	c0.009,0.147,0.13,0.264,0.278,0.264h0.023l0.008,0.002h0h0.137c0,0.004-0.001,0.007-0.001,0.011l-0.031,0.168
	c-0.015,0.068-0.034,0.138-0.059,0.209l-0.072,0.185c-0.005,0.011-0.01,0.022-0.015,0.032l-0.062,0.119
	c-0.074,0.129-0.167,0.26-0.287,0.387l-0.167,0.158l-0.23,0.18l-0.251,0.147l-0.238,0.132c-0.038,0.018-0.077,0.035-0.116,0.052
	v-0.031h0v-0.001c0-0.168-0.137-0.306-0.306-0.306c-0.152,0-0.277,0.112-0.3,0.257l-0.006,0.021v0.052v0.221l-0.073,0.01
	l-0.074,0.01l-0.038,0.02c-0.045,0.018-0.086,0.042-0.122,0.072c-0.037,0.031-0.067,0.066-0.091,0.106l-0.001,0.002l0,0.002
	c-0.032,0.055-0.051,0.118-0.051,0.186v0.001v0.001c0,0.17,0.116,0.316,0.28,0.375l0.023,0.012l0.038,0.005
	c0.022,0.005,0.045,0.007,0.067,0.009l0.042,0.006v0.22V27.9l0.004,0.017c0.02,0.15,0.147,0.266,0.302,0.266
	c0.168,0,0.306-0.136,0.306-0.305v0h0v-0.038c0.005,0.002,0.011,0.004,0.016,0.007l0.075,0.033l0.061,0.026
	c0.907,0.417,1.233,0.904,1.351,1.341l0.021,0.106H18.75h-0.002c-0.095,0-0.181,0.044-0.237,0.114L18.5,29.475l-0.031,0.032
	l-0.021,0.042l-0.021,0.042l-0.011,0.042l-0.004,0.019l-0.006,0.024l0.01,0.052l0.002,0.007l0.009,0.034l0.021,0.042l0.021,0.033
	l0.031,0.03l0.033,0.032l0.042,0.021l0.042,0.021l0.052,0.01h0h0.023c0.018,0.004,0.037,0.007,0.057,0.007
	c0.005,0,0.009-0.002,0.015-0.002h0.199c0,0.042,0.008,0.083,0.021,0.121l0,0l0,0.002c0.014,0.036,0.032,0.071,0.056,0.102
	l0.007,0.013l0.009,0.007c0.051,0.06,0.119,0.106,0.197,0.132l0.015,0.008l0.021,0.003c0.027,0.007,0.056,0.013,0.086,0.015
	l0.029,0.005l0.034-0.005c0.029-0.002,0.056-0.007,0.083-0.013l0.031-0.005l0.021-0.011c0.07-0.025,0.131-0.065,0.178-0.118
	c0.001-0.001,0.002-0.002,0.003-0.003l0.018-0.015l0.031-0.053l0.032-0.063l0.004-0.028c0.006-0.021,0.009-0.045,0.011-0.067
	l0.005-0.025h0.194c0.005,0,0.01,0.002,0.015,0.002c0.02,0,0.039-0.003,0.057-0.007h0.029l0.051-0.01h0.001l0.042-0.021l0.042-0.021
	l0.033-0.032l0.031-0.03l0.021-0.033l0.021-0.042l0.006-0.022l0.005-0.02l0.01-0.052l-0.01-0.042l-0.011-0.042l-0.003-0.005
	l-0.018-0.037l-0.021-0.042l-0.031-0.033l-0.024-0.015c-0.056-0.065-0.139-0.106-0.23-0.106h-0.001h-0.091
	c0.097-0.485,0.424-1.047,1.521-1.512v0.006v0.024V27.9l0.004,0.016c0.02,0.149,0.146,0.262,0.301,0.262
	c0.158,0,0.288-0.12,0.303-0.274l0.001-0.004v-0.014c0-0.005,0.001-0.009,0.001-0.013c0-0.005,0-0.01-0.001-0.014v-0.012v-0.22
	l0.044-0.006l0.029-0.003l0.023-0.003c0,0,0.001,0,0.001,0h0l0.049-0.007l0.034-0.018c0.086-0.034,0.159-0.093,0.206-0.167
	l0.012-0.014l0.004-0.013c0.023-0.044,0.038-0.093,0.042-0.144l0.006-0.032l-0.006-0.034c-0.005-0.049-0.019-0.095-0.041-0.137
	l-0.006-0.018l-0.018-0.023c-0.042-0.061-0.1-0.11-0.169-0.144l-0.002,0L22.31,26.86l-0.061-0.031l-0.074-0.01l-0.074-0.01v-0.221
	v-0.015c0.001-0.005,0.001-0.01,0.001-0.014c0-0.005-0.001-0.008-0.001-0.013v-0.011l0-0.002c-0.013-0.157-0.144-0.28-0.303-0.28
	c-0.158,0-0.287,0.121-0.303,0.273l-0.002,0.009l-0.01,0.042l0.01,0.01v0.008c-0.045-0.02-0.089-0.04-0.131-0.061l-0.226-0.125
	l-0.231-0.135c-0.018-0.012-0.035-0.024-0.052-0.037l-0.162-0.125c-0.45-0.379-0.633-0.802-0.708-1.17
	c-0.005-0.031-0.012-0.063-0.017-0.093l-0.006-0.036h0.137l0.009-0.002h0.023c0.153,0,0.278-0.123,0.281-0.277l0.002-0.006
	l-0.002-0.008c-0.004-0.127-0.091-0.233-0.208-0.265h0H20.2l-0.03-0.006l-0.02-0.004h-0.053h-0.063v-0.335h0.074
	c0.001,0,0.004,0,0.006,0h0.046l0.041-0.012l0.042-0.021l0.042-0.021l0.042-0.021l0.032-0.042l0.021-0.031l0.021-0.042l0.01-0.042
	v-0.042v-0.052l-0.01-0.043l-0.021-0.042l-0.021-0.031l-0.032-0.032l-0.042-0.031l-0.042-0.021l-0.042-0.021l-0.041-0.011h-0.04
	c-0.004,0-0.009,0-0.013,0h-0.074v-4.829h0.483v1.826h1.333v-0.724h1.062v0.724h1.323v-1.049h-0.83v-0.777h0.83v-0.368V15.89v-0.378
	h-0.83v-0.767H24.233z M19.876,26.747c0.001,0,0.002,0,0.004,0l0.059,0.008l0.073,0.021l0.063,0.021l0.062,0.031l0.053,0.043
	l0.052,0.052l0.028,0.045l0.004,0.007l0.004,0.01l0.026,0.054l0.019,0.053l0,0.003c0.001,0.003,0.001,0.008,0.002,0.011v0.067v0.061
	c0,0.002,0,0.005-0.001,0.007l-0.02,0.059l-0.031,0.063l-0.032,0.053l-0.052,0.052l-0.053,0.042l-0.063,0.031l-0.063,0.032
	l-0.073,0.011l-0.073,0.01v0v0.063l-0.021,0.063l-0.031,0.063l-0.032,0.053l-0.052,0.053l-0.053,0.042l-0.052,0.031l-0.039,0.017
	c-0.026,0.009-0.053,0.017-0.081,0.022c-0.002,0.001-0.005,0.001-0.007,0.001c-0.011,0.002-0.022,0.003-0.034,0.004
	c-0.003,0-0.005,0.001-0.008,0.001c-0.015,0.002-0.031,0.002-0.046,0.002c-0.064,0-0.124-0.011-0.179-0.032
	c-0.01-0.004-0.02-0.008-0.03-0.013l-0.006-0.002h0l-0.052-0.031l-0.043-0.029c-0.011-0.01-0.022-0.02-0.033-0.029l-0.029-0.037
	l-0.032-0.053l-0.031-0.063l-0.021-0.063v-0.063v0l-0.074-0.01l-0.069-0.01c-0.003-0.001-0.005-0.002-0.008-0.003l-0.069-0.029
	l-0.052-0.031l-0.053-0.042l-0.051-0.051c0-0.001-0.001-0.001-0.001-0.002l-0.031-0.052l-0.032-0.063l-0.008-0.022
	c-0.006-0.021-0.01-0.042-0.013-0.064v-0.04v-0.047c0.003-0.027,0.009-0.055,0.018-0.08v-0.001c0.001-0.004,0.003-0.008,0.005-0.012
	l0.003-0.006l0.026-0.052l0.025-0.043c0.005-0.006,0.011-0.013,0.016-0.02l0.042-0.041l0.038-0.031l0.015-0.012l0.046-0.028
	c0.003-0.001,0.007-0.003,0.01-0.004l0.069-0.02l0.048-0.014l0.025-0.007l0.058-0.008c0.002,0,0.004,0,0.006,0v0h0.001l0.008-0.001
	v-0.062l0.021-0.063l0.009-0.018l0.022-0.045l0.032-0.053l0.035-0.042c0.005-0.005,0.01-0.01,0.016-0.015l0.054-0.036l0.052-0.033
	l0.035-0.014l0.016-0.007c0.016-0.005,0.032-0.01,0.049-0.014l0.038-0.007l0.039-0.005c0.013-0.001,0.026-0.002,0.04-0.002
	c0.01,0,0.019,0.001,0.028,0.002l0.049,0.005l0.041,0.007c0.014,0.003,0.028,0.008,0.042,0.011l0.054,0.023l0.011,0.007l0.042,0.026
	l0.053,0.042l0.052,0.051l0.032,0.053l0.031,0.063l0.021,0.063v0.062L19.876,26.747L19.876,26.747z M23.162,17.338l-0.808,0.01
	v1.092h-0.735v-1.092H20.8v-0.65h0.819v-1.092h0.735v1.092h0.808V17.338z"/>
<path d="M62.914,18.782c0,0.245-0.047,0.472-0.14,0.679s-0.229,0.387-0.407,0.538s-0.398,0.269-0.66,0.354
	c-0.261,0.085-0.56,0.128-0.895,0.128H58.63h-0.605v-0.47c0-0.138,0.066-0.221,0.2-0.25c0.011-0.002,0.028-0.005,0.05-0.009
	c0.021-0.004,0.062-0.011,0.119-0.021c0.058-0.01,0.136-0.024,0.236-0.042v-4.194c-0.1-0.017-0.179-0.031-0.236-0.042
	c-0.057-0.01-0.098-0.018-0.12-0.021c-0.021-0.004-0.038-0.007-0.049-0.009c-0.134-0.028-0.2-0.112-0.2-0.25v-0.47h0.605h1.994
	c0.379,0,0.701,0.036,0.969,0.108c0.268,0.072,0.488,0.175,0.66,0.308c0.172,0.133,0.297,0.295,0.377,0.484
	c0.08,0.189,0.12,0.402,0.12,0.639c0,0.136-0.02,0.266-0.06,0.39c-0.04,0.124-0.102,0.24-0.186,0.348
	c-0.084,0.108-0.19,0.207-0.32,0.294c-0.129,0.088-0.283,0.163-0.461,0.224C62.517,17.673,62.914,18.103,62.914,18.782
	 M59.705,17.204h0.859c0.365,0,0.642-0.067,0.831-0.2c0.189-0.133,0.284-0.345,0.284-0.635c0-0.301-0.085-0.516-0.256-0.644
	s-0.437-0.192-0.799-0.192h-0.919V17.204z M61.851,18.758c0-0.125-0.02-0.238-0.06-0.338c-0.04-0.1-0.103-0.185-0.188-0.255
	c-0.085-0.071-0.194-0.124-0.328-0.162c-0.133-0.037-0.294-0.056-0.483-0.056h-1.087v1.694h1.091c0.199,0,0.367-0.024,0.501-0.071
	c0.135-0.048,0.243-0.113,0.324-0.192c0.081-0.08,0.14-0.173,0.176-0.28C61.833,18.992,61.851,18.878,61.851,18.758"/>
<path d="M69.624,20.072v0.408h-0.284h-0.625h-0.133h-0.072h-0.837v-0.408c0-0.092,0.053-0.161,0.159-0.205
	c0.019-0.008,0.073-0.03,0.159-0.067l-0.03-0.084l-0.287-0.786H65.37l-0.3,0.82l-0.019,0.051c0.088,0.037,0.141,0.059,0.16,0.067
	c0.106,0.044,0.159,0.112,0.159,0.205v0.408h-0.833H64.46h-0.134h-0.626h-0.283v-0.408c0-0.092,0.053-0.161,0.159-0.205
	c0.042-0.017,0.188-0.079,0.438-0.184l1.957-4.982h1.099l1.957,4.982c0.251,0.106,0.397,0.167,0.438,0.184
	C69.57,19.912,69.624,19.98,69.624,20.072 M65.646,18.171h1.749l-0.657-1.795c-0.032-0.087-0.067-0.188-0.105-0.302
	c-0.039-0.116-0.077-0.242-0.114-0.378c-0.038,0.137-0.074,0.264-0.11,0.38c-0.036,0.116-0.071,0.219-0.106,0.307L65.646,18.171z"/>
<path d="M76.414,14.702v0.47c0,0.138-0.066,0.221-0.199,0.25c-0.013,0.002-0.029,0.005-0.051,0.009
	c-0.021,0.004-0.062,0.011-0.119,0.022c-0.058,0.01-0.137,0.024-0.236,0.042v4.986h-0.556c-0.085,0-0.155-0.014-0.212-0.04
	c-0.056-0.026-0.109-0.075-0.163-0.144l-3.021-3.849c0.008,0.085,0.014,0.171,0.019,0.254c0.003,0.084,0.005,0.16,0.005,0.229v2.756
	c0.335,0.046,0.508,0.07,0.521,0.072c0.133,0.029,0.2,0.112,0.2,0.25v0.47H71.88h-0.947h-0.605v-0.47c0-0.138,0.066-0.221,0.2-0.25
	c0.011-0.002,0.028-0.005,0.05-0.008c0.021-0.004,0.061-0.012,0.119-0.022c0.057-0.01,0.136-0.024,0.236-0.042v-4.193
	c-0.1-0.018-0.179-0.032-0.236-0.042c-0.058-0.01-0.097-0.018-0.119-0.022c-0.022-0.003-0.039-0.007-0.05-0.009
	c-0.134-0.028-0.2-0.112-0.2-0.25v-0.47h0.605h0.564c0.048,0,0.088,0.002,0.12,0.006c0.031,0.004,0.06,0.012,0.085,0.024
	c0.025,0.012,0.05,0.03,0.074,0.052c0.024,0.022,0.051,0.052,0.08,0.089l3.033,3.865c-0.011-0.093-0.019-0.184-0.022-0.274
	c-0.004-0.089-0.006-0.172-0.006-0.25v-2.72c-0.332-0.046-0.506-0.07-0.521-0.072c-0.134-0.029-0.2-0.112-0.2-0.25v-0.47h0.721
	h0.947H76.414z"/>
<path d="M82.154,17.583v2.338c-0.147,0.107-0.3,0.199-0.458,0.278c-0.159,0.079-0.328,0.143-0.508,0.194
	c-0.179,0.05-0.372,0.088-0.577,0.114c-0.206,0.025-0.427,0.038-0.663,0.038c-0.421,0-0.81-0.074-1.163-0.22
	c-0.354-0.146-0.661-0.35-0.919-0.611c-0.259-0.261-0.461-0.573-0.605-0.936c-0.146-0.361-0.218-0.757-0.218-1.187
	c0-0.434,0.07-0.833,0.212-1.195c0.141-0.362,0.341-0.674,0.602-0.935c0.26-0.261,0.575-0.463,0.944-0.607
	c0.354-0.138,0.751-0.209,1.191-0.215c0.016,0,0.033-0.001,0.051-0.001h0.005c0.621,0,1.303,0.137,2.046,0.412v1.478h-0.035h-0.097
	h-0.329c-0.103,0-0.165-0.049-0.186-0.149c-0.013-0.07-0.036-0.278-0.069-0.624c-0.396-0.134-0.853-0.202-1.366-0.202
	c-0.285,0-0.543,0.048-0.773,0.144c-0.23,0.096-0.427,0.233-0.589,0.412c-0.163,0.179-0.287,0.393-0.376,0.644
	c-0.088,0.25-0.132,0.53-0.132,0.839c0,0.333,0.047,0.629,0.14,0.889c0.094,0.26,0.224,0.479,0.392,0.657s0.368,0.315,0.6,0.409
	c0.232,0.095,0.484,0.143,0.76,0.142c0.242,0,0.453-0.022,0.633-0.065c0.18-0.044,0.352-0.105,0.514-0.182v-1.051h-0.724
	c-0.068,0-0.124-0.02-0.163-0.059c-0.04-0.038-0.061-0.085-0.061-0.142v-0.607H82.154z"/>
<path d="M87.156,19.098v0.808v0.155v0.42h-0.191h-0.023h-3.365h-0.605v-0.47c0-0.138,0.066-0.221,0.2-0.25
	c0.012-0.002,0.028-0.005,0.051-0.009c0.021-0.004,0.061-0.011,0.118-0.021c0.058-0.011,0.136-0.024,0.236-0.042v-4.193
	c-0.101-0.019-0.179-0.032-0.236-0.042s-0.097-0.018-0.118-0.021c-0.022-0.004-0.039-0.007-0.051-0.009
	c-0.134-0.028-0.2-0.112-0.2-0.25v-0.47h0.605h1.073h0.605v0.47c0,0.138-0.065,0.221-0.199,0.25
	c-0.012,0.002-0.028,0.005-0.05,0.009c-0.022,0.003-0.062,0.011-0.119,0.021s-0.136,0.023-0.236,0.042v4.099h1.86
	c0.018-0.203,0.028-0.318,0.033-0.347c0.021-0.099,0.084-0.149,0.187-0.149H87.156z"/>
<path d="M94.065,20.072v0.408h-0.284h-0.625h-0.134h-0.071h-0.838v-0.408c0-0.092,0.053-0.161,0.159-0.205
	c0.019-0.008,0.072-0.03,0.158-0.067l-0.03-0.084l-0.287-0.786h-2.301l-0.3,0.82l-0.019,0.051c0.088,0.037,0.141,0.059,0.159,0.067
	c0.106,0.044,0.159,0.112,0.159,0.205v0.408h-0.834h-0.075h-0.135h-0.625h-0.284v-0.408c0-0.092,0.053-0.161,0.159-0.205
	c0.042-0.017,0.188-0.079,0.438-0.184l1.957-4.982h1.099l1.957,4.982c0.252,0.106,0.397,0.167,0.438,0.184
	C94.013,19.912,94.065,19.98,94.065,20.072 M90.088,18.171h1.75l-0.657-1.795c-0.033-0.087-0.068-0.188-0.106-0.302
	c-0.038-0.116-0.076-0.242-0.113-0.378c-0.038,0.137-0.075,0.264-0.11,0.38c-0.035,0.116-0.071,0.219-0.105,0.307L90.088,18.171z"/>
<path d="M100.421,17.591c0,0.424-0.071,0.813-0.212,1.167c-0.142,0.355-0.34,0.66-0.596,0.915c-0.256,0.256-0.563,0.455-0.924,0.596
	c-0.359,0.141-0.758,0.211-1.194,0.211h-2.119h-0.605v-0.469c0-0.139,0.066-0.221,0.2-0.25c0.011-0.002,0.028-0.005,0.051-0.009
	c0.021-0.004,0.061-0.011,0.118-0.021c0.058-0.011,0.136-0.025,0.236-0.042v-4.194c-0.101-0.018-0.179-0.032-0.236-0.042
	c-0.058-0.011-0.097-0.018-0.118-0.021c-0.022-0.004-0.04-0.007-0.051-0.01c-0.134-0.028-0.2-0.112-0.2-0.25v-0.47h0.605h2.119
	c0.437,0,0.835,0.071,1.194,0.213c0.36,0.143,0.668,0.341,0.924,0.596s0.454,0.559,0.596,0.913
	C100.35,16.778,100.421,17.167,100.421,17.591 M99.321,17.591c0-0.317-0.042-0.602-0.128-0.854
	c-0.085-0.251-0.206-0.464-0.363-0.639c-0.157-0.174-0.349-0.309-0.573-0.401c-0.226-0.093-0.479-0.14-0.762-0.14h-1.036v4.068
	h1.036c0.283,0,0.537-0.046,0.762-0.14c0.225-0.093,0.416-0.227,0.573-0.401c0.157-0.175,0.278-0.388,0.363-0.64
	C99.279,18.192,99.321,17.908,99.321,17.591"/>
<path d="M105.352,14.702v0.557v0.299v0.663h-0.034h-0.097h-0.329c-0.103,0-0.165-0.05-0.186-0.149
	c-0.012-0.062-0.031-0.233-0.059-0.514h-1.857v1.602h1.954v0.827h-1.954v1.635h1.857c0.027-0.281,0.047-0.452,0.059-0.514
	c0.021-0.1,0.083-0.149,0.186-0.149h0.329h0.097h0.034v0.663v0.298v0.561h-3.644h-0.605v-0.469c-0.001-0.138,0.066-0.221,0.199-0.25
	c0.012-0.002,0.029-0.005,0.051-0.008c0.021-0.004,0.061-0.012,0.118-0.022c0.059-0.01,0.137-0.024,0.237-0.042v-4.194
	c-0.101-0.018-0.179-0.031-0.237-0.042c-0.058-0.011-0.098-0.018-0.118-0.022c-0.021-0.003-0.039-0.007-0.051-0.009
	c-0.133-0.029-0.199-0.112-0.199-0.25v-0.47h0.605H105.352z"/>
<path d="M109.852,18.67c0,0.261-0.045,0.505-0.135,0.733c-0.09,0.228-0.22,0.426-0.392,0.596s-0.381,0.303-0.629,0.399
	c-0.248,0.097-0.532,0.146-0.851,0.146c-0.034,0-0.074-0.001-0.12-0.002c-0.513,0-1.066-0.102-1.658-0.305v-0.141v-1.344h0.034
	h0.097h0.329c0.103,0,0.165,0.049,0.187,0.149c0.012,0.072,0.036,0.292,0.071,0.659c0.23,0.071,0.595,0.106,1.092,0.106
	c0.307,0,0.543-0.072,0.711-0.218c0.168-0.145,0.252-0.353,0.252-0.625c0-0.151-0.038-0.275-0.113-0.371
	c-0.076-0.096-0.178-0.177-0.302-0.242c-0.126-0.066-0.268-0.121-0.428-0.166c-0.162-0.046-0.324-0.095-0.487-0.148
	c-0.165-0.053-0.328-0.117-0.487-0.192c-0.16-0.074-0.303-0.171-0.429-0.292c-0.125-0.12-0.226-0.27-0.302-0.45
	c-0.075-0.18-0.113-0.402-0.113-0.666c0-0.21,0.042-0.416,0.126-0.615c0.083-0.2,0.206-0.377,0.368-0.532
	c0.161-0.154,0.358-0.278,0.592-0.371c0.235-0.094,0.503-0.14,0.804-0.14c0.568,0,1.12,0.109,1.658,0.328v1.478h-0.034h-0.097
	h-0.329c-0.103,0-0.164-0.049-0.186-0.149c-0.013-0.072-0.037-0.288-0.071-0.647c-0.202-0.09-0.512-0.134-0.93-0.134
	c-0.148,0-0.278,0.018-0.389,0.054c-0.111,0.037-0.204,0.086-0.28,0.15c-0.075,0.064-0.133,0.141-0.169,0.229
	c-0.038,0.089-0.057,0.187-0.057,0.294c0,0.136,0.038,0.249,0.114,0.339c0.075,0.091,0.176,0.168,0.301,0.232
	c0.126,0.064,0.269,0.122,0.429,0.172c0.159,0.051,0.322,0.104,0.488,0.162c0.168,0.058,0.331,0.124,0.49,0.2
	c0.159,0.075,0.302,0.171,0.428,0.288c0.125,0.115,0.226,0.257,0.302,0.425C109.813,18.227,109.852,18.43,109.852,18.67"/>
<path d="M116.361,15.431c-0.021,0.003-0.062,0.011-0.12,0.021c-0.058,0.01-0.136,0.023-0.235,0.042v4.194
	c0.1,0.018,0.178,0.031,0.235,0.042c0.059,0.01,0.099,0.017,0.12,0.021s0.038,0.007,0.05,0.009c0.133,0.029,0.2,0.112,0.2,0.25
	v0.469h-0.605h-1.083h-0.605v-0.469c0-0.138,0.066-0.221,0.2-0.25c0.012-0.002,0.028-0.005,0.05-0.009
	c0.022-0.004,0.062-0.011,0.12-0.021c0.057-0.011,0.136-0.024,0.234-0.042v-1.734h-2.709v1.734c0.1,0.018,0.178,0.031,0.236,0.042
	c0.058,0.01,0.097,0.017,0.118,0.021s0.039,0.007,0.052,0.009c0.132,0.029,0.199,0.112,0.199,0.25v0.469h-0.605h-1.082h-0.605
	v-0.469c0-0.138,0.065-0.221,0.199-0.25c0.012-0.002,0.028-0.005,0.051-0.009c0.021-0.004,0.062-0.011,0.119-0.021
	c0.058-0.011,0.136-0.024,0.236-0.042v-4.194c-0.101-0.018-0.179-0.032-0.236-0.042c-0.058-0.011-0.098-0.018-0.119-0.021
	c-0.021-0.004-0.039-0.008-0.051-0.01c-0.134-0.028-0.199-0.111-0.199-0.25v-0.47h0.605h1.081h0.606v0.47
	c0,0.138-0.067,0.221-0.199,0.25c-0.013,0.002-0.03,0.005-0.052,0.01c-0.021,0.003-0.061,0.011-0.118,0.021
	c-0.059,0.01-0.137,0.023-0.236,0.042v1.693h2.709v-1.693c-0.099-0.018-0.178-0.032-0.234-0.042
	c-0.059-0.011-0.099-0.018-0.12-0.021c-0.021-0.004-0.038-0.007-0.05-0.01c-0.134-0.028-0.2-0.111-0.2-0.25v-0.47h0.604h1.084h0.605
	v0.47c0,0.138-0.067,0.221-0.2,0.25C116.399,15.424,116.383,15.427,116.361,15.431"/>
<path d="M123.655,16.379c-0.012-0.072-0.036-0.284-0.07-0.634c-0.436-0.127-0.804-0.191-1.104-0.191
	c-0.271,0-0.521,0.047-0.749,0.142s-0.424,0.229-0.588,0.405c-0.163,0.176-0.292,0.39-0.384,0.641
	c-0.092,0.252-0.138,0.535-0.138,0.85c0,0.325,0.046,0.614,0.138,0.868c0.092,0.252,0.217,0.466,0.374,0.639
	c0.157,0.173,0.342,0.306,0.556,0.398c0.213,0.091,0.442,0.137,0.688,0.137c0.146,0,0.278-0.008,0.397-0.023
	c0.118-0.016,0.228-0.042,0.327-0.076c0.1-0.035,0.194-0.08,0.284-0.134c0.089-0.054,0.177-0.122,0.266-0.202
	c0.026-0.024,0.055-0.043,0.084-0.058c0.029-0.014,0.062-0.022,0.096-0.022c0.059,0,0.109,0.023,0.151,0.068l0.425,0.459
	c-0.235,0.291-0.523,0.513-0.866,0.667c-0.342,0.155-0.753,0.232-1.232,0.232c-0.429,0-0.814-0.074-1.156-0.22
	c-0.344-0.146-0.635-0.351-0.878-0.611c-0.242-0.261-0.428-0.573-0.558-0.936c-0.129-0.362-0.193-0.757-0.193-1.187
	c0-0.434,0.071-0.832,0.216-1.193c0.144-0.361,0.347-0.672,0.607-0.934c0.262-0.26,0.573-0.463,0.938-0.609
	c0.363-0.145,0.765-0.218,1.205-0.218c0.48,0,1.084,0.139,1.812,0.416v1.474h-0.46C123.738,16.528,123.676,16.479,123.655,16.379"/>
<path d="M129.246,19.098v0.808v0.155v0.42h-0.19h-0.024h-3.365h-0.604v-0.47c-0.001-0.138,0.066-0.221,0.199-0.25
	c0.013-0.002,0.028-0.005,0.051-0.009c0.021-0.004,0.062-0.011,0.119-0.021c0.057-0.011,0.136-0.024,0.235-0.042v-4.193
	c-0.1-0.019-0.179-0.032-0.235-0.042c-0.058-0.01-0.098-0.018-0.119-0.021c-0.022-0.004-0.038-0.007-0.051-0.009
	c-0.133-0.028-0.2-0.112-0.199-0.25v-0.47h0.604h1.074h0.605v0.47c0,0.138-0.066,0.221-0.2,0.25
	c-0.011,0.002-0.028,0.005-0.049,0.009c-0.022,0.003-0.063,0.011-0.119,0.021c-0.059,0.01-0.137,0.023-0.236,0.042v4.099h1.86
	c0.018-0.203,0.027-0.318,0.033-0.347c0.021-0.099,0.083-0.149,0.186-0.149H129.246z"/>
<path d="M135.937,14.702v0.47c0,0.138-0.066,0.221-0.199,0.25c-0.013,0.002-0.029,0.005-0.051,0.009
	c-0.021,0.004-0.062,0.011-0.119,0.022c-0.059,0.01-0.137,0.024-0.236,0.042v2.668c0,0.343-0.055,0.661-0.166,0.953
	c-0.11,0.292-0.27,0.543-0.477,0.755c-0.208,0.211-0.46,0.377-0.756,0.495c-0.296,0.119-0.629,0.178-0.999,0.178
	c-0.371,0-0.703-0.059-0.999-0.178c-0.296-0.118-0.547-0.284-0.754-0.495c-0.206-0.212-0.364-0.463-0.476-0.755
	c-0.11-0.292-0.165-0.609-0.165-0.953v-2.668c-0.1-0.018-0.179-0.032-0.236-0.042c-0.058-0.011-0.098-0.018-0.119-0.022
	c-0.021-0.003-0.039-0.007-0.051-0.009c-0.133-0.029-0.199-0.112-0.199-0.25v-0.47h0.605h1.074h0.64v0.47
	c0,0.138-0.066,0.221-0.199,0.25c-0.013,0.002-0.032,0.005-0.06,0.009c-0.027,0.004-0.072,0.011-0.136,0.022
	c-0.063,0.01-0.146,0.024-0.244,0.042v2.664c0,0.222,0.029,0.421,0.089,0.6c0.061,0.178,0.146,0.331,0.259,0.458
	c0.111,0.126,0.249,0.224,0.413,0.293c0.163,0.069,0.349,0.104,0.558,0.104c0.208,0,0.394-0.035,0.557-0.104
	c0.164-0.069,0.303-0.167,0.416-0.292c0.113-0.125,0.199-0.277,0.26-0.456c0.06-0.179,0.09-0.378,0.09-0.599v-2.669
	c-0.1-0.018-0.181-0.031-0.244-0.042c-0.064-0.011-0.109-0.018-0.137-0.022c-0.028-0.003-0.048-0.007-0.06-0.009
	c-0.133-0.029-0.199-0.112-0.199-0.25v-0.47h0.64h1.075H135.937z"/>
<path d="M141.507,18.782c0,0.245-0.047,0.472-0.141,0.679c-0.093,0.208-0.229,0.387-0.407,0.538c-0.179,0.15-0.398,0.269-0.66,0.354
	c-0.261,0.085-0.559,0.128-0.895,0.128h-2.182h-0.605v-0.47c-0.001-0.138,0.066-0.221,0.199-0.25
	c0.013-0.002,0.029-0.005,0.051-0.009s0.062-0.011,0.119-0.021c0.058-0.01,0.136-0.024,0.236-0.042v-4.194
	c-0.101-0.017-0.179-0.031-0.236-0.042c-0.058-0.01-0.098-0.018-0.119-0.021s-0.038-0.007-0.051-0.009
	c-0.133-0.028-0.199-0.112-0.199-0.25v-0.47h0.605h1.994c0.378,0,0.701,0.036,0.969,0.108c0.268,0.072,0.487,0.175,0.659,0.308
	c0.172,0.133,0.298,0.295,0.377,0.484c0.081,0.189,0.121,0.402,0.121,0.639c0,0.136-0.02,0.266-0.061,0.39
	c-0.04,0.124-0.103,0.24-0.186,0.348c-0.084,0.108-0.191,0.207-0.319,0.294c-0.13,0.088-0.283,0.163-0.462,0.224
	C141.109,17.673,141.507,18.103,141.507,18.782 M138.297,17.204h0.86c0.364,0,0.642-0.067,0.83-0.2
	c0.189-0.133,0.284-0.345,0.284-0.635c0-0.301-0.085-0.516-0.256-0.644c-0.17-0.128-0.437-0.192-0.799-0.192h-0.92V17.204z
	 M140.444,18.758c0-0.125-0.021-0.238-0.062-0.338c-0.039-0.1-0.103-0.185-0.188-0.255s-0.194-0.124-0.327-0.162
	c-0.134-0.037-0.294-0.056-0.483-0.056h-1.088v1.694h1.092c0.199,0,0.367-0.024,0.501-0.071c0.136-0.048,0.243-0.113,0.324-0.192
	c0.081-0.08,0.14-0.173,0.176-0.28C140.425,18.992,140.444,18.878,140.444,18.758"/>
<path d="M149.481,17.583v2.338c-0.146,0.107-0.299,0.199-0.458,0.278s-0.328,0.143-0.508,0.194c-0.179,0.05-0.371,0.088-0.577,0.114
	c-0.205,0.025-0.426,0.038-0.663,0.038c-0.421,0-0.809-0.074-1.163-0.22c-0.354-0.146-0.66-0.35-0.919-0.611
	c-0.259-0.261-0.46-0.573-0.605-0.936c-0.146-0.361-0.218-0.757-0.218-1.187c0-0.434,0.07-0.833,0.213-1.195
	c0.141-0.362,0.34-0.674,0.601-0.935c0.26-0.261,0.575-0.463,0.945-0.607c0.354-0.138,0.75-0.209,1.19-0.215
	c0.016,0,0.033-0.001,0.051-0.001h0.005c0.621,0,1.303,0.137,2.046,0.412l-0.001,1.478h-0.033h-0.097h-0.329
	c-0.104,0-0.165-0.049-0.187-0.149c-0.013-0.07-0.035-0.278-0.068-0.624c-0.396-0.134-0.854-0.202-1.366-0.202
	c-0.285,0-0.543,0.048-0.774,0.144c-0.229,0.096-0.427,0.233-0.589,0.412c-0.163,0.179-0.287,0.393-0.376,0.644
	c-0.088,0.25-0.132,0.53-0.132,0.839c0,0.333,0.047,0.629,0.141,0.889c0.093,0.26,0.223,0.479,0.392,0.657
	c0.167,0.179,0.367,0.315,0.6,0.409c0.231,0.095,0.484,0.143,0.759,0.142c0.242,0,0.453-0.022,0.634-0.065
	c0.179-0.044,0.351-0.105,0.513-0.182v-1.051h-0.723c-0.069,0-0.124-0.02-0.164-0.059c-0.04-0.038-0.061-0.085-0.061-0.142v-0.607
	H149.481z"/>
<path d="M154.448,14.702v0.557v0.299v0.663h-0.034h-0.097h-0.329c-0.103,0-0.165-0.05-0.187-0.149
	c-0.011-0.062-0.03-0.233-0.058-0.514h-1.857v1.602h1.954v0.827h-1.954v1.635h1.857c0.027-0.281,0.047-0.452,0.058-0.514
	c0.021-0.1,0.084-0.149,0.187-0.149h0.329h0.097h0.034v0.663v0.298v0.561h-3.645h-0.605v-0.469c0-0.138,0.067-0.221,0.2-0.25
	c0.012-0.002,0.028-0.005,0.05-0.008c0.022-0.004,0.062-0.012,0.119-0.022s0.137-0.024,0.236-0.042v-4.194
	c-0.1-0.018-0.179-0.031-0.236-0.042c-0.058-0.011-0.097-0.018-0.119-0.022c-0.021-0.003-0.038-0.007-0.05-0.009
	c-0.133-0.029-0.2-0.112-0.2-0.25v-0.47h0.605H154.448z"/>
<path d="M161.27,14.702v0.47c0,0.138-0.066,0.221-0.199,0.25c-0.013,0.002-0.029,0.005-0.051,0.009
	c-0.021,0.004-0.062,0.011-0.119,0.022c-0.058,0.01-0.137,0.024-0.236,0.042v4.986h-0.555c-0.085,0-0.156-0.014-0.212-0.04
	c-0.057-0.026-0.11-0.075-0.164-0.144l-3.021-3.849c0.009,0.085,0.014,0.171,0.019,0.254c0.003,0.084,0.006,0.16,0.006,0.229v2.756
	c0.335,0.046,0.509,0.07,0.521,0.072c0.134,0.029,0.2,0.112,0.2,0.25v0.47h-0.721h-0.947h-0.605v-0.47c0-0.138,0.066-0.221,0.2-0.25
	c0.012-0.002,0.028-0.005,0.051-0.008c0.021-0.004,0.062-0.012,0.118-0.022c0.058-0.01,0.137-0.024,0.236-0.042v-4.193
	c-0.1-0.018-0.179-0.032-0.236-0.042c-0.057-0.01-0.097-0.018-0.118-0.022c-0.022-0.003-0.039-0.007-0.051-0.009
	c-0.134-0.028-0.2-0.112-0.2-0.25v-0.47h0.605h0.563c0.048,0,0.088,0.002,0.12,0.006c0.031,0.004,0.061,0.012,0.086,0.024
	c0.024,0.012,0.05,0.03,0.073,0.052c0.024,0.022,0.051,0.052,0.08,0.089l3.033,3.865c-0.011-0.093-0.018-0.184-0.021-0.274
	c-0.005-0.089-0.007-0.172-0.007-0.25v-2.72c-0.332-0.046-0.506-0.07-0.521-0.072c-0.134-0.029-0.2-0.112-0.2-0.25v-0.47h0.721
	h0.947H161.27z"/>
<path d="M166.196,14.702v0.557v0.299v0.663h-0.034h-0.097h-0.329c-0.103,0-0.165-0.05-0.186-0.149
	c-0.012-0.062-0.031-0.233-0.06-0.514h-1.856v1.602h1.954v0.827h-1.954v1.635h1.856c0.028-0.281,0.048-0.452,0.06-0.514
	c0.021-0.1,0.083-0.149,0.186-0.149h0.329h0.097h0.034v0.663v0.298v0.561h-3.645h-0.604v-0.469c-0.001-0.138,0.066-0.221,0.199-0.25
	c0.012-0.002,0.028-0.005,0.05-0.008c0.021-0.004,0.062-0.012,0.119-0.022s0.137-0.024,0.236-0.042v-4.194
	c-0.1-0.018-0.179-0.031-0.236-0.042c-0.058-0.011-0.098-0.018-0.119-0.022c-0.021-0.003-0.038-0.007-0.05-0.009
	c-0.133-0.029-0.199-0.112-0.199-0.25v-0.47h0.604H166.196z"/>
<path d="M173.088,14.702v0.47c0,0.138-0.066,0.221-0.199,0.25c-0.013,0.002-0.029,0.005-0.05,0.009
	c-0.021,0.004-0.06,0.01-0.116,0.021c-0.056,0.01-0.132,0.024-0.228,0.041l-2.015,4.988h-0.972l-2.014-4.988
	c-0.097-0.017-0.173-0.031-0.229-0.041c-0.058-0.011-0.096-0.017-0.117-0.021c-0.021-0.004-0.038-0.007-0.05-0.009
	c-0.133-0.029-0.2-0.112-0.2-0.25v-0.47h0.276h0.329h0.537h1.016v0.47c0,0.138-0.066,0.221-0.2,0.25
	c-0.008,0.001-0.021,0.005-0.038,0.009c-0.017,0.004-0.045,0.011-0.083,0.021c-0.038,0.009-0.08,0.02-0.127,0.03l1.152,2.988
	c0.045,0.114,0.088,0.241,0.129,0.377c0.042,0.138,0.081,0.282,0.118,0.433c0.062-0.306,0.137-0.577,0.229-0.811l1.147-2.986
	c-0.049-0.012-0.092-0.023-0.131-0.032c-0.04-0.01-0.068-0.017-0.086-0.021s-0.03-0.008-0.038-0.009
	c-0.134-0.029-0.201-0.112-0.201-0.25v-0.47h1.019h0.535h0.331H173.088z"/>
<path d="M178.538,20.072v0.408h-0.284h-0.626h-0.133h-0.072h-0.837v-0.408c0-0.092,0.053-0.161,0.158-0.205
	c0.02-0.008,0.073-0.03,0.159-0.067l-0.03-0.084l-0.287-0.786h-2.302l-0.3,0.82l-0.019,0.051c0.088,0.037,0.142,0.059,0.16,0.067
	c0.105,0.044,0.158,0.112,0.158,0.205v0.408h-0.833h-0.076h-0.134h-0.625h-0.284v-0.408c0-0.092,0.053-0.161,0.159-0.205
	c0.042-0.017,0.188-0.079,0.438-0.184l1.957-4.982h1.099l1.957,4.982c0.251,0.106,0.397,0.167,0.438,0.184
	C178.484,19.912,178.538,19.98,178.538,20.072 M174.561,18.171h1.749l-0.656-1.795c-0.033-0.087-0.068-0.188-0.106-0.302
	c-0.039-0.116-0.077-0.242-0.114-0.378c-0.037,0.137-0.073,0.264-0.109,0.38c-0.036,0.116-0.071,0.219-0.106,0.307L174.561,18.171z"
	/>
<path d="M69.546,27.211v1.312c0.39,0.169,0.767,0.339,1.132,0.509c0.364,0.169,0.729,0.345,1.094,0.528
	c0.364,0.183,0.729,0.375,1.094,0.577c0.364,0.201,0.746,0.421,1.144,0.659v-0.676c-0.652-0.503-1.327-0.999-2.022-1.486
	C71.293,28.146,70.479,27.672,69.546,27.211"/>
<path d="M70.221,27.22c0.229,0.063,0.475,0.095,0.737,0.095c0.246,0,0.474-0.034,0.687-0.1c0.212-0.066,0.396-0.152,0.553-0.257
	c0.157-0.107,0.28-0.229,0.369-0.371c0.089-0.14,0.134-0.285,0.134-0.433c0-0.154-0.047-0.303-0.14-0.446
	c-0.094-0.143-0.221-0.27-0.382-0.381c-0.161-0.111-0.352-0.202-0.572-0.271c-0.22-0.068-0.462-0.104-0.725-0.104
	c-0.237,0-0.464,0.035-0.68,0.104c-0.216,0.069-0.407,0.158-0.572,0.266c-0.165,0.109-0.299,0.234-0.4,0.374
	c-0.102,0.141-0.153,0.283-0.153,0.426c0,0.158,0.049,0.31,0.146,0.452c0.098,0.144,0.231,0.271,0.401,0.383
	C69.792,27.068,69.992,27.156,70.221,27.22 M70.265,26.134c0.063-0.093,0.148-0.177,0.254-0.251s0.227-0.135,0.362-0.183
	c0.136-0.048,0.275-0.072,0.419-0.072c0.102,0,0.18,0.021,0.236,0.064c0.055,0.042,0.093,0.093,0.114,0.15
	c0.021,0.059,0.026,0.12,0.013,0.183c-0.013,0.064-0.036,0.119-0.07,0.167c-0.034,0.042-0.098,0.09-0.191,0.143
	c-0.093,0.054-0.196,0.104-0.311,0.152c-0.114,0.047-0.231,0.086-0.35,0.119s-0.217,0.048-0.292,0.048
	c-0.102,0-0.174-0.019-0.216-0.056c-0.043-0.037-0.064-0.101-0.064-0.191C70.169,26.318,70.201,26.227,70.265,26.134"/>
<path d="M106.492,24.699c-0.119,0-0.19-0.011-0.216-0.032c-0.025-0.021-0.047-0.045-0.063-0.071
	c-0.018-0.021-0.025-0.044-0.025-0.068c0-0.024-0.009-0.049-0.025-0.076c-0.018-0.063-0.06-0.122-0.127-0.175
	c-0.069-0.058-0.155-0.117-0.261-0.175c-0.106-0.059-0.27-0.146-0.49-0.262c0.009,0.211,0.02,0.405,0.032,0.58
	c0.013,0.176,0.025,0.339,0.038,0.493s0.027,0.302,0.045,0.445c0.017,0.143,0.038,0.286,0.063,0.43
	c-0.119-0.117-0.253-0.24-0.401-0.37s-0.299-0.248-0.451-0.354c-0.152-0.106-0.303-0.195-0.451-0.267
	c-0.148-0.071-0.282-0.107-0.4-0.107c-0.382,0-0.728,0.076-1.036,0.227c-0.311,0.151-0.563,0.321-0.757,0.513
	c-0.153-0.207-0.389-0.379-0.706-0.517c-0.292-0.126-0.604-0.194-0.937-0.209v-0.005h-1.51H97.26h-0.118H90.74h-0.294h-4.83H85.03
	h-0.532l-0.152-0.096c-0.043-0.026-0.076-0.055-0.103-0.087c-0.025-0.026-0.047-0.057-0.063-0.091
	c-0.017-0.034-0.034-0.097-0.051-0.187L83.48,23.92c0.025,0.169,0.051,0.318,0.076,0.445c0.025,0.127,0.046,0.238,0.063,0.334
	c0.017,0.096,0.034,0.178,0.051,0.247s0.034,0.132,0.051,0.19c-0.144-0.148-0.313-0.258-0.509-0.33
	c-0.194-0.072-0.449-0.107-0.763-0.107h-0.121h-0.146c-0.059,0-0.133-0.001-0.222-0.004c-0.089-0.002-0.21-0.006-0.362-0.012
	l0.021,0.017H73.95l-0.723-0.007l0.319,0.194c-0.001,0-0.003,0-0.003,0c-0.004-0.003-0.011-0.004-0.02-0.004
	c0.009,0,0.018,0.002,0.026,0.008c0.006,0.004,0.01,0.005,0.017,0.009l0.17,0.104c0.009,0.005,0.014,0.01,0.022,0.015
	c0.045,0.025,0.092,0.053,0.141,0.083l0.009,0.006c0.042,0.031,0.09,0.061,0.144,0.089c0.026,0.014,0.047,0.027,0.071,0.041
	l0.214,0.13h0.396h5.314v0.756c-0.137-0.127-0.302-0.239-0.497-0.334c-0.194-0.096-0.424-0.144-0.687-0.144
	c-0.169,0-0.352,0.046-0.547,0.135c-0.194,0.091-0.339,0.194-0.432,0.311c-0.195-0.138-0.414-0.25-0.655-0.338
	s-0.536-0.131-0.884-0.131c-0.297,0-0.567,0.031-0.813,0.095s-0.462,0.148-0.648,0.255c-0.187,0.106-0.337,0.231-0.451,0.377
	c-0.115,0.146-0.181,0.301-0.197,0.465c-0.026,0.238,0.002,0.444,0.082,0.616s0.197,0.316,0.35,0.433
	c0.153,0.117,0.331,0.207,0.534,0.271s0.415,0.103,0.636,0.119c0.203,0.017,0.411,0.014,0.623-0.008
	c0.213-0.021,0.407-0.06,0.585-0.114c0.178-0.057,0.322-0.128,0.433-0.216c0.11-0.087,0.165-0.189,0.165-0.306
	c0-0.084-0.023-0.179-0.07-0.282c-0.046-0.104-0.113-0.199-0.202-0.286c-0.09-0.088-0.202-0.161-0.338-0.219
	c-0.136-0.058-0.297-0.087-0.482-0.087c-0.28,0-0.518,0.056-0.713,0.167s-0.297,0.257-0.305,0.437c0,0.064,0.013,0.123,0.038,0.176
	c-0.179-0.09-0.242-0.244-0.191-0.461c0.052-0.191,0.197-0.334,0.439-0.434c0.241-0.098,0.545-0.133,0.909-0.107
	c0.169,0.01,0.337,0.038,0.502,0.08s0.318,0.099,0.458,0.171c0.14,0.071,0.259,0.159,0.355,0.262
	c0.098,0.104,0.168,0.222,0.21,0.354l0.61-0.143c-0.017-0.069-0.029-0.119-0.038-0.151c-0.009-0.032-0.018-0.061-0.025-0.088
	c-0.009-0.026-0.015-0.05-0.019-0.071c-0.005-0.021-0.007-0.045-0.007-0.072c0-0.106,0.04-0.188,0.121-0.247
	c0.08-0.058,0.192-0.087,0.337-0.087c0.093,0,0.188,0.016,0.286,0.047s0.185,0.072,0.261,0.12c0.076,0.047,0.14,0.101,0.19,0.159
	c0.051,0.059,0.077,0.116,0.077,0.175v2.631c0.05,0.038,0.133,0.091,0.247,0.16s0.231,0.14,0.35,0.214
	c0.145,0.085,0.297,0.175,0.458,0.271v-4.93h1.388l0.01,0.008c0.398-0.031,0.672,0.027,0.82,0.175
	c0.148,0.148,0.223,0.36,0.223,0.636v3.554c0.161,0.101,0.313,0.19,0.458,0.271c0.118,0.069,0.237,0.131,0.355,0.187
	c0.119,0.056,0.204,0.084,0.254,0.084v-4.914h1.487h0.587h1.396c-0.406,0.324-0.739,0.672-0.998,1.045
	c-0.259,0.374-0.388,0.773-0.388,1.197c0,0.154,0.022,0.319,0.07,0.497c0.046,0.178,0.116,0.354,0.209,0.529
	c0.094,0.175,0.214,0.344,0.363,0.505c0.147,0.162,0.321,0.305,0.521,0.43c0.199,0.125,0.428,0.224,0.688,0.298
	c0.259,0.074,0.548,0.111,0.87,0.111c0.188,0,0.371-0.021,0.554-0.063c0.182-0.042,0.341-0.101,0.477-0.175
	c0.136-0.075,0.246-0.166,0.33-0.274c0.085-0.109,0.128-0.227,0.128-0.354c0-0.085-0.027-0.17-0.082-0.255
	c-0.056-0.085-0.13-0.161-0.223-0.23c-0.094-0.069-0.203-0.126-0.331-0.17c-0.127-0.045-0.268-0.068-0.42-0.068
	c-0.127,0-0.255,0.017-0.381,0.048c-0.128,0.032-0.241,0.075-0.344,0.131c-0.102,0.056-0.185,0.122-0.248,0.199
	c-0.063,0.077-0.096,0.158-0.096,0.243c0,0.069,0.026,0.142,0.076,0.218c0.052,0.077,0.11,0.147,0.179,0.211
	c-0.179-0.026-0.342-0.089-0.489-0.187c-0.148-0.098-0.276-0.212-0.382-0.343c-0.106-0.129-0.187-0.267-0.242-0.413
	c-0.055-0.146-0.082-0.277-0.082-0.394c0-0.302,0.038-0.585,0.114-0.851c0.076-0.265,0.207-0.506,0.395-0.723
	c0.187-0.217,0.435-0.41,0.743-0.577c0.31-0.167,0.693-0.309,1.151-0.426c0.195-0.042,0.396-0.079,0.604-0.111
	c0.207-0.032,0.447-0.048,0.718-0.048h0.902v2.624l1.22,0.779c0.271-0.445,0.648-0.823,1.132-1.133s1.018-0.545,1.603-0.704
	c-0.11,0.344-0.165,0.703-0.165,1.073c0,0.334,0.046,0.661,0.14,0.982c0.093,0.32,0.199,0.656,0.318,1.005l0.852,0.255
	c-0.094-0.323-0.17-0.61-0.229-0.859s-0.089-0.493-0.089-0.731c0-0.381,0.097-0.755,0.293-1.122c0.194-0.365,0.445-0.739,0.75-1.12
	l-1.475-0.692c-0.45,0.112-0.821,0.22-1.113,0.326s-0.562,0.218-0.807,0.334c-0.213,0.095-0.425,0.199-0.637,0.31
	c-0.212,0.111-0.453,0.231-0.725,0.358v-1.686h3.605h2.297c0.035,0.006,0.068,0.008,0.099,0h0.37h0.201
	c0.271,0.005,0.494,0.031,0.668,0.076s0.329,0.152,0.464,0.322c-0.355,0.075-0.654,0.202-0.896,0.381
	c-0.241,0.181-0.39,0.372-0.444,0.573c-0.056,0.201,0.004,0.388,0.178,0.56c0.174,0.173,0.498,0.286,0.973,0.339
	c0.127,0.01,0.25,0.005,0.369-0.016c0.118-0.021,0.233-0.055,0.343-0.1c0.11-0.045,0.21-0.098,0.299-0.159
	c0.089-0.061,0.168-0.123,0.235-0.187c0.128,0.11,0.284,0.21,0.471,0.297c0.187,0.088,0.406,0.119,0.661,0.092
	c0.331-0.027,0.585-0.081,0.763-0.163c0.179-0.083,0.297-0.178,0.356-0.286c0.059-0.109,0.069-0.225,0.032-0.346
	c-0.038-0.122-0.113-0.241-0.224-0.358c-0.109-0.116-0.247-0.221-0.412-0.313c-0.166-0.093-0.337-0.166-0.516-0.218
	c0.042-0.048,0.125-0.094,0.248-0.139c0.123-0.046,0.244-0.068,0.362-0.068c0.11,0,0.237,0.039,0.382,0.115
	c0.144,0.077,0.281,0.17,0.413,0.279c0.131,0.108,0.242,0.22,0.33,0.334c0.09,0.113,0.134,0.208,0.134,0.282l-0.063,2.966
	c0.178,0.101,0.344,0.188,0.496,0.263c0.127,0.068,0.253,0.129,0.375,0.183c0.123,0.052,0.21,0.079,0.261,0.079v-4.786h2.124
	l-1.298-0.667H106.492z"/>
<path d="M125.765,24.699h-0.408h-0.711l-0.152-0.096c-0.043-0.027-0.076-0.056-0.102-0.087c-0.025-0.027-0.047-0.057-0.063-0.091
	c-0.018-0.035-0.034-0.097-0.052-0.187l-0.648-0.318c0.026,0.17,0.052,0.318,0.077,0.446c0.025,0.127,0.046,0.238,0.063,0.334
	c0.017,0.096,0.033,0.177,0.051,0.246c0.017,0.069,0.033,0.133,0.051,0.191c-0.145-0.148-0.313-0.258-0.509-0.33
	c-0.113-0.041-0.248-0.069-0.4-0.086c-0.111-0.013-0.23-0.021-0.362-0.021h-0.121h-0.146h-0.563h-0.502h-0.5h-9.278l1.093,0.668
	h4.476v0.19c-0.347,0.069-0.707,0.154-1.08,0.254s-0.746,0.215-1.119,0.342c-0.373,0.126-0.737,0.263-1.094,0.409
	c-0.355,0.146-0.686,0.298-0.991,0.458l1.17,0.906c0.466,0.032,0.888,0.103,1.266,0.211c0.377,0.108,0.712,0.246,1.004,0.413
	c0.293,0.167,0.547,0.363,0.763,0.589c0.091,0.094,0.171,0.194,0.249,0.296h-0.016v0.501c-0.067-0.059-0.154-0.106-0.261-0.144
	c-0.105-0.036-0.235-0.056-0.388-0.056c-0.118,0-0.257,0.023-0.413,0.068c-0.157,0.045-0.282,0.104-0.375,0.179
	c-0.152-0.111-0.328-0.211-0.527-0.298c-0.199-0.088-0.443-0.121-0.731-0.1c-0.229,0.016-0.443,0.055-0.642,0.115
	c-0.2,0.061-0.374,0.138-0.522,0.231c-0.147,0.093-0.265,0.197-0.35,0.314c-0.085,0.116-0.131,0.24-0.14,0.373
	c-0.009,0.158,0.023,0.297,0.095,0.413c0.073,0.116,0.168,0.213,0.287,0.29s0.256,0.136,0.412,0.176
	c0.158,0.039,0.321,0.064,0.49,0.075c0.152,0.011,0.31,0.008,0.471-0.008c0.161-0.017,0.312-0.044,0.451-0.084
	c0.141-0.04,0.257-0.09,0.35-0.15c0.094-0.061,0.148-0.134,0.166-0.219c0.009-0.068,0.009-0.139,0-0.211
	c-0.009-0.071-0.038-0.14-0.089-0.203s-0.128-0.117-0.229-0.162s-0.233-0.076-0.395-0.092c-0.102-0.011-0.208-0.011-0.318,0
	c-0.109,0.011-0.207,0.033-0.291,0.067c-0.086,0.034-0.155,0.081-0.211,0.139c-0.055,0.059-0.082,0.127-0.082,0.207
	c0,0.017,0.002,0.032,0.006,0.048c0.005,0.016,0.007,0.034,0.007,0.056c-0.067-0.042-0.105-0.095-0.114-0.158
	c-0.009-0.064,0.004-0.125,0.038-0.184c0.051-0.101,0.154-0.186,0.311-0.255c0.157-0.068,0.358-0.09,0.604-0.063
	c0.255,0.025,0.478,0.106,0.668,0.242c0.19,0.135,0.319,0.313,0.388,0.536l0.712-0.135c-0.017-0.063-0.029-0.109-0.038-0.135
	c-0.009-0.027-0.017-0.054-0.025-0.08c-0.009-0.016-0.013-0.033-0.013-0.052v-0.052c0-0.164,0.11-0.246,0.331-0.246
	c0.067,0,0.12,0.026,0.158,0.079c0.038,0.054,0.078,0.108,0.121,0.167c0.034,0.042,0.063,0.085,0.089,0.127s0.052,0.085,0.076,0.128
	c0.051,0.079,0.119,0.153,0.204,0.223c0.043,0.016,0.076,0.03,0.102,0.044c0.025,0.013,0.055,0.024,0.089,0.035
	c0.043,0.017,0.089,0.031,0.14,0.049c0.052,0.015,0.153,0.044,0.305,0.086v-1.23c0.001,0,0.002,0,0.003,0v-3.736h0.013
	c0.212-0.011,0.422,0.007,0.63,0.055c0.207,0.048,0.398,0.117,0.571,0.207c0.174,0.09,0.32,0.198,0.439,0.322
	c0.119,0.125,0.194,0.254,0.229,0.386c-0.187-0.08-0.375-0.125-0.566-0.139c-0.189-0.014-0.364,0.002-0.521,0.048
	c-0.156,0.044-0.283,0.116-0.381,0.214c-0.098,0.098-0.146,0.222-0.146,0.37c0,0.095,0.031,0.184,0.095,0.266
	c0.063,0.082,0.148,0.153,0.254,0.211c0.106,0.059,0.227,0.105,0.363,0.14c0.135,0.034,0.274,0.052,0.419,0.052
	c0.221,0,0.422-0.031,0.604-0.091c0.182-0.062,0.339-0.14,0.47-0.235c0.132-0.096,0.236-0.202,0.313-0.318s0.126-0.232,0.152-0.349
	c0.042-0.217-0.002-0.438-0.134-0.665c-0.131-0.225-0.331-0.43-0.598-0.617c-0.267-0.185-0.59-0.34-0.967-0.464
	c-0.377-0.124-0.79-0.197-1.239-0.219v-0.159h2.695v0.003h1.822h0.191h0.11c0.24,0.012,0.417,0.071,0.525,0.179
	c0.147,0.148,0.223,0.36,0.223,0.636v3.554c0.16,0.101,0.313,0.19,0.457,0.271c0.119,0.069,0.237,0.131,0.356,0.187
	s0.203,0.083,0.254,0.083v-4.913h1.639h0.435h4.283v0.151c-0.797,0.164-1.562,0.368-2.295,0.612
	c-0.733,0.245-1.474,0.533-2.219,0.867l1.093,0.97c0.356,0.016,0.691,0.055,1.006,0.12c0.313,0.063,0.609,0.148,0.89,0.254
	c0.348,0.127,0.652,0.271,0.916,0.43c0.262,0.159,0.487,0.366,0.673,0.62c0.043,0.059,0.077,0.12,0.102,0.183
	c0.026,0.063,0.047,0.127,0.063,0.19c0.019,0.032,0.028,0.063,0.032,0.092c0.005,0.029,0.016,0.057,0.032,0.083
	c0.008,0.027,0.021,0.051,0.038,0.072c0.018,0.021,0.033,0.045,0.051,0.071c0.043,0.043,0.089,0.071,0.14,0.087
	c0.051,0.017,0.098,0.029,0.14,0.04c0.026,0,0.047,0.005,0.064,0.017c0.008,0,0.027,0.013,0.057,0.039
	c0.03,0.026,0.125,0.112,0.286,0.255v-5.152h1.832l-1.043-0.668H125.765z M117.056,28.373c-0.567-0.514-1.313-0.91-2.237-1.185
	c0.373-0.154,0.733-0.294,1.082-0.421c0.347-0.128,0.732-0.244,1.155-0.35V28.373z M131.116,28.468
	c-0.305-0.271-0.661-0.505-1.068-0.704c-0.406-0.199-0.847-0.367-1.321-0.505c0.381-0.154,0.771-0.297,1.17-0.43
	c0.398-0.132,0.805-0.249,1.22-0.35V28.468z"/>
<path d="M172.633,26.496c-0.148-0.153-0.344-0.306-0.585-0.457c-0.241-0.15-0.536-0.285-0.884-0.401l-0.165,0.072
	c-0.043,0.063-0.108,0.138-0.196,0.222c-0.09,0.085-0.191,0.17-0.306,0.255c-0.114,0.084-0.236,0.164-0.363,0.239
	c-0.126,0.074-0.246,0.132-0.355,0.174c0.093-0.101,0.14-0.207,0.14-0.318c0-0.211-0.114-0.376-0.343-0.492
	c-0.229-0.117-0.496-0.176-0.802-0.176c-0.407,0-0.729,0.076-0.966,0.227c-0.237,0.151-0.356,0.354-0.356,0.608
	c0,0.165,0.051,0.312,0.152,0.441c0.103,0.13,0.239,0.241,0.414,0.334c0.173,0.093,0.37,0.164,0.591,0.21
	c0.221,0.048,0.453,0.071,0.699,0.071c0.16,0,0.337-0.009,0.527-0.027c0.191-0.019,0.38-0.047,0.566-0.084s0.362-0.086,0.527-0.147
	c0.166-0.061,0.308-0.136,0.426-0.226c0.06-0.043,0.115-0.085,0.165-0.127c0.052-0.042,0.11-0.085,0.179-0.127
	c0.051,0.016,0.091,0.05,0.121,0.104c0.029,0.053,0.05,0.11,0.063,0.171c0.013,0.061,0.021,0.119,0.025,0.174
	c0.004,0.056,0.006,0.097,0.006,0.124c0,0.143-0.057,0.281-0.171,0.413c-0.115,0.132-0.264,0.25-0.445,0.354
	c-0.183,0.103-0.386,0.185-0.61,0.246s-0.451,0.092-0.68,0.092c-0.552,0-1.044-0.082-1.476-0.247
	c-0.433-0.165-0.814-0.378-1.145-0.64c-0.331-0.262-0.612-0.554-0.846-0.874c-0.233-0.321-0.422-0.641-0.566-0.958l-0.826-0.167
	c0.119,0.26,0.229,0.494,0.33,0.703c0.103,0.21,0.213,0.416,0.331,0.616c0.118,0.202,0.25,0.405,0.394,0.608
	c0.145,0.205,0.302,0.402,0.472,0.593c0.178,0.186,0.372,0.36,0.585,0.525c0.212,0.164,0.448,0.307,0.712,0.429
	c0.262,0.122,0.551,0.218,0.864,0.286c0.313,0.069,0.657,0.103,1.03,0.103c0.475,0,0.906-0.057,1.297-0.17
	c0.39-0.114,0.726-0.27,1.005-0.465c0.279-0.196,0.495-0.421,0.648-0.676c0.152-0.254,0.229-0.522,0.229-0.803
	c0-0.101-0.031-0.222-0.095-0.366C172.887,26.798,172.781,26.649,172.633,26.496"/>
<path d="M176.987,24.699h-1.12l-0.151-0.096c-0.043-0.026-0.077-0.055-0.102-0.087c-0.026-0.026-0.048-0.057-0.064-0.091
	c-0.018-0.034-0.034-0.097-0.051-0.187l-0.648-0.318c0.025,0.169,0.051,0.318,0.076,0.445c0.025,0.127,0.047,0.238,0.063,0.334
	s0.034,0.178,0.051,0.247s0.034,0.132,0.051,0.19c-0.145-0.148-0.313-0.258-0.508-0.33c-0.195-0.072-0.45-0.107-0.764-0.107h-0.12
	h-0.146c-0.06,0-0.134-0.001-0.223-0.004c-0.089-0.002-0.21-0.006-0.362-0.012l0.021,0.017h-8.423h-0.472h-7.157h-0.281h-4.626
	h-0.803h-8.596c-1.098-0.045-1.482,0.072-1.482,0.072v0.003c-0.195,0.041-0.384,0.096-0.562,0.171
	c-0.391,0.164-0.729,0.368-1.018,0.612s-0.521,0.508-0.699,0.791c-0.179,0.284-0.284,0.542-0.318,0.775
	c-0.017,0.08-0.03,0.159-0.038,0.238c-0.009,0.08-0.013,0.159-0.013,0.239c0,0.233,0.051,0.489,0.152,0.767
	c0.103,0.278,0.262,0.539,0.477,0.783c0.217,0.245,0.498,0.447,0.846,0.608c0.348,0.162,0.764,0.242,1.246,0.242
	c0.204,0,0.394-0.023,0.566-0.071c0.174-0.048,0.329-0.111,0.464-0.19c0.136-0.08,0.242-0.174,0.318-0.287
	c0.076-0.111,0.114-0.23,0.114-0.357c0-0.058-0.021-0.125-0.063-0.199c-0.043-0.074-0.102-0.146-0.179-0.214
	c-0.075-0.069-0.167-0.125-0.272-0.171c-0.106-0.044-0.223-0.067-0.35-0.067c-0.17,0-0.329,0.006-0.478,0.02
	c-0.147,0.014-0.279,0.044-0.394,0.092c-0.115,0.048-0.206,0.114-0.274,0.198c-0.067,0.085-0.102,0.199-0.102,0.342
	c0,0.101,0.056,0.199,0.166,0.294c-0.212-0.047-0.392-0.124-0.541-0.23c-0.147-0.106-0.271-0.229-0.368-0.369
	c-0.098-0.141-0.167-0.291-0.21-0.449c-0.043-0.159-0.063-0.313-0.063-0.461c0-0.287,0.07-0.573,0.21-0.858
	c0.14-0.287,0.35-0.549,0.629-0.788c0.234-0.2,0.521-0.371,0.856-0.517c0.76-0.316,1.768-0.348,2.055-0.35h2.378
	c-0.178,0.122-0.344,0.249-0.496,0.382c-0.11,0.101-0.199,0.208-0.268,0.322c-0.067,0.113-0.102,0.24-0.102,0.377
	c0,0.159,0.044,0.316,0.134,0.473c0.089,0.157,0.216,0.297,0.382,0.422c0.165,0.124,0.363,0.224,0.598,0.298
	c0.232,0.074,0.489,0.112,0.769,0.112c0.145,0,0.291-0.012,0.438-0.037c0.148-0.023,0.282-0.049,0.401-0.075
	c0.067-0.016,0.129-0.03,0.184-0.044c0.056-0.013,0.104-0.024,0.146-0.036c0.094-0.021,0.157-0.032,0.19-0.032
	c0.052,0,0.106,0.029,0.165,0.088c0.061,0.058,0.09,0.125,0.09,0.199c0,0.111-0.085,0.212-0.255,0.302
	c-0.169,0.089-0.377,0.16-0.622,0.211c-0.246,0.05-0.503,0.075-0.77,0.075s-0.494-0.035-0.681-0.104
	c-0.313-0.116-0.585-0.259-0.813-0.429c-0.229-0.17-0.418-0.355-0.566-0.557c-0.148-0.202-0.256-0.416-0.324-0.64
	c-0.067-0.226-0.097-0.45-0.089-0.672l0.014-0.254c-0.103-0.042-0.202-0.081-0.3-0.116c-0.098-0.034-0.244-0.081-0.438-0.138
	c0,0.169,0.002,0.344,0.006,0.524c0.005,0.18,0.016,0.357,0.032,0.533c0.017,0.175,0.047,0.343,0.089,0.504
	c0.042,0.162,0.098,0.306,0.166,0.434c0.118,0.217,0.269,0.436,0.451,0.656c0.182,0.22,0.402,0.418,0.661,0.596
	c0.258,0.177,0.56,0.322,0.902,0.434c0.344,0.111,0.735,0.167,1.177,0.167c0.305,0,0.591-0.038,0.858-0.112
	c0.267-0.074,0.5-0.174,0.699-0.302s0.356-0.274,0.47-0.441c0.115-0.167,0.173-0.344,0.173-0.529c0-0.085-0.043-0.2-0.128-0.345
	c-0.085-0.146-0.19-0.291-0.317-0.434c-0.128-0.143-0.261-0.271-0.4-0.382s-0.266-0.177-0.376-0.199l-0.152-0.04
	c-0.119,0.027-0.254,0.063-0.406,0.111c-0.153,0.048-0.311,0.096-0.471,0.144c-0.162,0.047-0.308,0.085-0.438,0.115
	c-0.132,0.029-0.231,0.043-0.3,0.043c-0.263,0-0.394-0.071-0.394-0.215c0-0.058,0.033-0.129,0.102-0.215
	c0.068-0.084,0.148-0.167,0.241-0.246c0.094-0.079,0.195-0.151,0.306-0.215c0.11-0.063,0.212-0.103,0.305-0.119
	c0.288,0.212,0.687,0.383,1.196,0.513c0.508,0.13,1.173,0.201,1.996,0.211c-0.119,0.201-0.214,0.41-0.286,0.624
	c-0.072,0.215-0.108,0.434-0.108,0.656c0,0.631,0.102,1.281,0.305,1.948c0.145,0.059,0.291,0.098,0.439,0.119
	c0.148,0.021,0.286,0.037,0.413,0.048l0.254-0.048c-0.178-0.254-0.294-0.546-0.35-0.875c-0.055-0.328-0.04-0.657,0.046-0.986
	c0.084-0.329,0.231-0.637,0.444-0.926c0.212-0.289,0.496-0.524,0.853-0.704c-0.247-0.164-0.471-0.311-0.675-0.441
	c-0.203-0.129-0.42-0.263-0.648-0.401c-0.145,0.026-0.28,0.053-0.407,0.079c-0.127,0.027-0.258,0.054-0.394,0.081
	c-0.136,0.026-0.264,0.045-0.383,0.06c-0.118,0.013-0.224,0.02-0.316,0.02c-0.095,0-0.247-0.006-0.459-0.02
	c-0.211-0.014-0.428-0.034-0.648-0.06c-0.221-0.027-0.415-0.064-0.585-0.112s-0.254-0.108-0.254-0.183
	c0-0.005,0.017-0.019,0.051-0.04c0.033-0.021,0.076-0.043,0.127-0.067c0.052-0.024,0.101-0.045,0.146-0.063
	c0.047-0.019,0.083-0.028,0.108-0.028h4.703h0.777h1.206c-0.406,0.324-0.739,0.672-0.998,1.045
	c-0.259,0.374-0.388,0.773-0.388,1.197c0,0.154,0.023,0.319,0.069,0.497c0.047,0.178,0.117,0.354,0.211,0.529
	c0.093,0.175,0.214,0.344,0.362,0.505c0.148,0.162,0.321,0.305,0.521,0.43c0.198,0.125,0.428,0.224,0.687,0.298
	c0.259,0.074,0.549,0.111,0.871,0.111c0.186,0,0.371-0.021,0.553-0.063c0.182-0.042,0.342-0.101,0.477-0.175
	c0.137-0.075,0.246-0.166,0.331-0.274c0.084-0.109,0.127-0.227,0.127-0.354c0-0.085-0.027-0.17-0.083-0.255
	c-0.055-0.085-0.129-0.161-0.223-0.23c-0.093-0.069-0.203-0.126-0.33-0.17c-0.127-0.045-0.268-0.068-0.419-0.068
	c-0.128,0-0.255,0.017-0.383,0.048c-0.126,0.032-0.241,0.075-0.343,0.131c-0.102,0.056-0.185,0.122-0.248,0.199
	c-0.063,0.077-0.095,0.158-0.095,0.243c0,0.069,0.025,0.142,0.075,0.218c0.052,0.077,0.11,0.147,0.179,0.211
	c-0.179-0.026-0.341-0.089-0.489-0.187c-0.149-0.098-0.276-0.212-0.382-0.343c-0.106-0.129-0.187-0.267-0.241-0.413
	c-0.056-0.146-0.083-0.277-0.083-0.394c0-0.302,0.038-0.585,0.114-0.851c0.076-0.265,0.207-0.506,0.394-0.723
	c0.188-0.217,0.436-0.41,0.745-0.577c0.309-0.167,0.692-0.309,1.15-0.426c0.195-0.042,0.396-0.079,0.604-0.111
	s0.447-0.048,0.72-0.048h4.958v1.988c-0.137-0.149-0.289-0.295-0.458-0.438c-0.17-0.143-0.358-0.271-0.565-0.386
	c-0.208-0.114-0.438-0.206-0.693-0.274c-0.255-0.069-0.535-0.104-0.84-0.104c-0.263,0-0.514,0.028-0.75,0.084
	c-0.237,0.055-0.447,0.133-0.63,0.233c-0.182,0.101-0.327,0.221-0.433,0.362s-0.158,0.298-0.158,0.473
	c0,0.318,0.138,0.563,0.413,0.736c0.275,0.172,0.667,0.258,1.177,0.258c0.313,0,0.589-0.056,0.826-0.167
	c0.236-0.111,0.356-0.281,0.356-0.509c0-0.153-0.056-0.295-0.166-0.421c-0.018-0.027-0.04-0.056-0.069-0.087
	c-0.03-0.032-0.062-0.061-0.096-0.088c-0.009-0.01-0.015-0.017-0.02-0.02c-0.004-0.003-0.011-0.009-0.019-0.02
	c0.255,0.011,0.497,0.066,0.731,0.167c0.232,0.101,0.444,0.23,0.635,0.389c0.191,0.159,0.363,0.338,0.516,0.537
	c0.153,0.199,0.284,0.4,0.394,0.604c0.11,0.203,0.193,0.401,0.249,0.592c0.055,0.191,0.082,0.36,0.082,0.509v0.064
	c0,0.021-0.009,0.053-0.025,0.095l0.611,0.502v-5.081h1.396h0.484h8.189l0.01,0.008c0.398-0.031,0.672,0.027,0.82,0.175
	c0.148,0.148,0.223,0.36,0.223,0.636v3.554c0.161,0.101,0.313,0.19,0.458,0.271c0.118,0.069,0.237,0.131,0.355,0.187
	c0.119,0.056,0.204,0.084,0.254,0.084v-4.914h2.073L176.987,24.699z"/>
<path d="M68.339,24.699h-1.119l-0.153-0.096c-0.042-0.027-0.077-0.056-0.102-0.087c-0.025-0.027-0.046-0.057-0.064-0.091
	c-0.017-0.035-0.034-0.097-0.05-0.187l-0.649-0.318c0.026,0.17,0.051,0.318,0.076,0.446c0.025,0.127,0.046,0.238,0.064,0.334
	c0.017,0.096,0.034,0.177,0.05,0.246c0.018,0.069,0.034,0.133,0.051,0.191c-0.144-0.148-0.313-0.258-0.509-0.33
	c-0.195-0.071-0.449-0.107-0.763-0.107h-0.121h-0.146c-0.06,0-0.134-0.001-0.223-0.004c-0.052-0.001-0.204,0.002-0.35,0.004h-0.266
	l1.011,0.59l-1.011-0.59h-7.057l1.042,0.668h4.718v0.151c-0.797,0.164-1.563,0.368-2.295,0.612
	c-0.733,0.245-1.474,0.533-2.219,0.867l1.094,0.97c0.356,0.016,0.691,0.055,1.004,0.12c0.314,0.063,0.61,0.148,0.891,0.254
	c0.347,0.127,0.652,0.271,0.916,0.43c0.262,0.159,0.487,0.366,0.674,0.62c0.042,0.059,0.076,0.12,0.102,0.183S62.983,29.7,63,29.763
	c0.018,0.032,0.028,0.063,0.032,0.092c0.004,0.029,0.015,0.057,0.031,0.083c0.009,0.027,0.021,0.051,0.038,0.072
	c0.018,0.021,0.034,0.045,0.051,0.071c0.043,0.043,0.089,0.071,0.14,0.087c0.05,0.017,0.097,0.029,0.139,0.04
	c0.025,0,0.046,0.005,0.064,0.017c0.008,0,0.027,0.013,0.057,0.039s0.125,0.112,0.286,0.255v-5.152h0.876l0.707,0.003
	c0.29,0,0.5,0.058,0.622,0.18c0.149,0.148,0.223,0.36,0.223,0.636v3.554c0.161,0.101,0.314,0.19,0.458,0.271
	c0.119,0.069,0.237,0.131,0.356,0.187c0.119,0.056,0.204,0.083,0.254,0.083v-4.913h2.074L68.339,24.699z M62.771,28.468
	c-0.306-0.271-0.662-0.505-1.068-0.704c-0.407-0.199-0.848-0.367-1.322-0.505c0.381-0.154,0.771-0.297,1.169-0.43
	c0.398-0.132,0.805-0.249,1.221-0.35V28.468z"/>
</svg>
