<?xml version="1.0" encoding="utf-8"?>
<!-- Generator: Adobe Illustrator 16.0.3, SVG Export Plug-In . SVG Version: 6.00 Build 0)  -->
<!DOCTYPE svg PUBLIC "-//W3C//DTD SVG 1.1//EN" "http://www.w3.org/Graphics/SVG/1.1/DTD/svg11.dtd">
<svg version="1.1" id="Layer_1" xmlns="http://www.w3.org/2000/svg" xmlns:xlink="http://www.w3.org/1999/xlink" x="0px" y="0px"
	 width="98.667px" height="45px" viewBox="0 0 98.667 45" enable-background="new 0 0 98.667 45" xml:space="preserve">
<g>
	<defs>
		<path id="SVGID_1_" d="M15.023,31.402c-1.505-1.452-2.346-3.285-2.499-5.45v-0.736c0.138-2.181,0.971-4.025,2.476-5.484
			c1.504-1.459,3.348-2.2,5.481-2.2c1.467,0,2.817,0.364,4.01,1.082c1.197,0.72,2.169,1.701,2.89,2.912
			c0.718,1.21,1.082,2.568,1.082,4.036s-0.363,2.826-1.082,4.035c-0.721,1.212-1.693,2.193-2.89,2.914
			c-1.193,0.717-2.542,1.081-4.01,1.081C18.365,33.59,16.528,32.853,15.023,31.402 M8.845,3.999C8.435,4.41,8.217,4.921,8.199,5.528
			L8.182,20.956c-0.003,0.042-0.008,0.082-0.008,0.123v15.824c0,1.011,0.802,1.83,1.792,1.83h0.745c0.99,0,1.792-0.819,1.792-1.83
			v-1.991c0.66,0.567,1.379,1.071,2.161,1.499c1.765,0.968,3.722,1.458,5.816,1.458c2.256,0,4.336-0.56,6.183-1.665
			c1.842-1.102,3.336-2.6,4.438-4.449c1.104-1.854,1.664-3.938,1.664-6.194c0-2.255-0.559-4.342-1.664-6.204
			c-1.102-1.859-2.596-3.361-4.438-4.463c-1.848-1.105-3.927-1.664-6.183-1.664c-1.643,0-3.208,0.307-4.651,0.912
			c-1.222,0.511-2.337,1.202-3.327,2.058v2.016c0,0.065-0.003,0.129-0.01,0.193l0.008-7.159c0-0.03-0.004-0.058-0.005-0.088
			l0.005-5.642c-0.018-0.596-0.23-1.107-0.631-1.517c-0.405-0.415-0.917-0.625-1.52-0.625C9.764,3.377,9.257,3.586,8.845,3.999"/>
	</defs>
	<clipPath id="SVGID_2_">
		<use xlink:href="#SVGID_1_"  overflow="visible"/>
	</clipPath>
	
		<radialGradient id="SVGID_3_" cx="-121.9819" cy="191.2061" r="0.3003" gradientTransform="matrix(431.997 -2 -2 -431.997 53070.7031 82407.0938)" gradientUnits="userSpaceOnUse">
		<stop  offset="0" style="stop-color:#E21570"/>
		<stop  offset="1" style="stop-color:#A2104F"/>
	</radialGradient>
	<polygon clip-path="url(#SVGID_2_)" fill="url(#SVGID_3_)" points="8.01,3.378 32.766,3.264 32.93,38.732 8.174,38.847 	"/>
</g>
<g>
	<defs>
		<path id="SVGID_4_" d="M48.481,32.497c-1.214-0.728-2.193-1.708-2.914-2.914c-0.717-1.201-1.081-2.554-1.081-4.022
			c0-1.469,0.364-2.826,1.082-4.035c0.72-1.212,1.699-2.192,2.912-2.912c1.209-0.719,2.566-1.083,4.035-1.083
			c2.148,0,4.006,0.737,5.519,2.188c1.508,1.448,2.352,3.284,2.509,5.457v0.791c-0.173,2.157-1.023,3.986-2.533,5.434
			c-1.512,1.452-3.36,2.189-5.494,2.189C51.046,33.59,49.69,33.222,48.481,32.497 M61.213,3.999
			c-0.41,0.411-0.628,0.922-0.646,1.529l-0.013,10.671c-0.988-0.842-2.109-1.53-3.341-2.047c-1.459-0.613-3.04-0.923-4.699-0.923
			c-2.256,0-4.339,0.559-6.193,1.664c-1.851,1.103-3.352,2.604-4.463,4.462c-1.112,1.862-1.676,3.95-1.676,6.206
			c0,2.255,0.564,4.34,1.677,6.194c1.11,1.851,2.61,3.352,4.461,4.462c1.854,1.111,3.938,1.676,6.194,1.676
			c2.11,0,4.079-0.494,5.852-1.47c0.788-0.433,1.513-0.94,2.176-1.512v1.992c0,1.011,0.803,1.83,1.793,1.83h0.744
			c0.99,0,1.793-0.819,1.793-1.83V21.079c0-0.068-0.005-0.136-0.013-0.202l0.034-10.549c-0.003-0.102-0.014-0.202-0.028-0.298
			l0.005-4.51c-0.018-0.596-0.23-1.107-0.632-1.517c-0.404-0.415-0.916-0.625-1.52-0.625C62.132,3.377,61.626,3.586,61.213,3.999"/>
	</defs>
	<clipPath id="SVGID_5_">
		<use xlink:href="#SVGID_4_"  overflow="visible"/>
	</clipPath>
	
		<radialGradient id="SVGID_6_" cx="-121.9814" cy="191.2051" r="0.299" gradientTransform="matrix(431.999 -2 -2 -431.999 53070.8281 82407.3516)" gradientUnits="userSpaceOnUse">
		<stop  offset="0" style="stop-color:#E21570"/>
		<stop  offset="1" style="stop-color:#A2104F"/>
	</radialGradient>
	<polygon clip-path="url(#SVGID_5_)" fill="url(#SVGID_6_)" points="40.019,3.378 64.893,3.263 65.057,38.732 40.183,38.847 	"/>
</g>
<g>
	<defs>
		<path id="SVGID_7_" d="M74.618,32.532c-1.213-0.72-2.192-1.695-2.912-2.901c-0.718-1.201-1.082-2.554-1.082-4.022
			c0-1.469,0.365-2.826,1.082-4.036c0.721-1.212,1.699-2.191,2.912-2.911c1.209-0.718,2.567-1.082,4.035-1.082
			s2.821,0.364,4.022,1.081c1.203,0.72,2.181,1.7,2.901,2.912c0.717,1.21,1.082,2.568,1.082,4.036s-0.365,2.821-1.082,4.022
			c-0.721,1.206-1.697,2.182-2.901,2.901c-1.201,0.718-2.555,1.082-4.022,1.082S75.826,33.25,74.618,32.532 M72.448,14.94
			c-1.859,1.102-3.36,2.6-4.462,4.451c-1.105,1.854-1.665,3.946-1.665,6.217c0,2.255,0.56,4.339,1.665,6.193
			c1.102,1.851,2.603,3.349,4.462,4.45c1.862,1.104,3.95,1.664,6.205,1.664s4.339-0.56,6.193-1.664c1.851-1.103,3.348-2.6,4.45-4.45
			c1.104-1.854,1.664-3.938,1.664-6.193c0-2.271-0.56-4.361-1.664-6.217c-1.103-1.851-2.6-3.348-4.45-4.45
			c-1.855-1.104-3.938-1.665-6.193-1.665C76.399,13.276,74.311,13.835,72.448,14.94"/>
	</defs>
	<clipPath id="SVGID_8_">
		<use xlink:href="#SVGID_7_"  overflow="visible"/>
	</clipPath>
	
		<radialGradient id="SVGID_9_" cx="-121.9814" cy="191.2051" r="0.2993" gradientTransform="matrix(432.001 -2 -2 -432.001 53071.1914 82407.6094)" gradientUnits="userSpaceOnUse">
		<stop  offset="0" style="stop-color:#E21570"/>
		<stop  offset="1" style="stop-color:#A2104F"/>
	</radialGradient>
	<polygon clip-path="url(#SVGID_8_)" fill="url(#SVGID_9_)" points="66.207,13.276 90.96,13.162 91.075,37.916 66.322,38.03 	"/>
</g>
<g>
	<defs>
		<path id="SVGID_10_" d="M34.286,9.197c-0.045-0.169-0.07-0.346-0.07-0.53c0-1.168,0.948-2.116,2.116-2.116
			c1.17,0,2.118,0.948,2.118,2.116c0,0.166-0.022,0.326-0.058,0.481c-0.218,0.937-1.057,1.636-2.061,1.636
			C35.347,10.784,34.522,10.11,34.286,9.197 M31.187,8.667c0,2.075,1.231,3.86,3.002,4.673l-0.007,6.055
			c-0.009,0.073-0.015,0.147-0.015,0.223v1.285v14.538v1.286c0,1.01,0.803,1.83,1.793,1.83h0.744c0.99,0,1.794-0.82,1.794-1.83
			v-1.286V20.904v-1.285c0-0.071-0.006-0.141-0.014-0.21l0.007-6.075c1.762-0.817,2.985-2.597,2.985-4.666
			c0-2.842-2.303-5.145-5.146-5.145C33.491,3.522,31.187,5.826,31.187,8.667"/>
	</defs>
	<clipPath id="SVGID_11_">
		<use xlink:href="#SVGID_10_"  overflow="visible"/>
	</clipPath>
	
		<radialGradient id="SVGID_12_" cx="-121.9819" cy="191.2051" r="0.3013" gradientTransform="matrix(432.0001 -2 -2 -432.0001 53071 82407.6094)" gradientUnits="userSpaceOnUse">
		<stop  offset="0" style="stop-color:#E21570"/>
		<stop  offset="1" style="stop-color:#A2104F"/>
	</radialGradient>
	<polygon clip-path="url(#SVGID_11_)" fill="url(#SVGID_12_)" points="31.025,3.523 41.477,3.475 41.639,38.557 31.188,38.605 	"/>
</g>
<g>
	<defs>
		<path id="SVGID_13_" d="M16.595,25.548c0,2.147,1.741,3.888,3.888,3.888s3.888-1.741,3.888-3.888s-1.741-3.887-3.888-3.887
			S16.595,23.401,16.595,25.548"/>
	</defs>
	<clipPath id="SVGID_14_">
		<use xlink:href="#SVGID_13_"  overflow="visible"/>
	</clipPath>
	
		<radialGradient id="SVGID_15_" cx="-121.9814" cy="191.208" r="0.2956" gradientTransform="matrix(432.0002 -2 -2 -432.0002 53071 82407.6094)" gradientUnits="userSpaceOnUse">
		<stop  offset="0" style="stop-color:#E21570"/>
		<stop  offset="1" style="stop-color:#A2104F"/>
	</radialGradient>
	<polygon clip-path="url(#SVGID_14_)" fill="url(#SVGID_15_)" points="16.559,21.661 24.371,21.625 24.407,29.437 16.596,29.473 	
		"/>
</g>
<g>
	<defs>
		<path id="SVGID_16_" d="M48.483,25.596c0,2.147,1.739,3.888,3.887,3.888s3.888-1.741,3.888-3.888c0-2.148-1.74-3.888-3.888-3.888
			S48.483,23.448,48.483,25.596"/>
	</defs>
	<clipPath id="SVGID_17_">
		<use xlink:href="#SVGID_16_"  overflow="visible"/>
	</clipPath>
	
		<radialGradient id="SVGID_18_" cx="-121.981" cy="191.2031" r="0.3005" gradientTransform="matrix(431.9994 -2 -2 -431.9994 53070.8008 82407.3516)" gradientUnits="userSpaceOnUse">
		<stop  offset="0" style="stop-color:#E21570"/>
		<stop  offset="1" style="stop-color:#A2104F"/>
	</radialGradient>
	<polygon clip-path="url(#SVGID_17_)" fill="url(#SVGID_18_)" points="48.447,21.708 56.256,21.672 56.293,29.484 48.483,29.52 	"/>
</g>
<g>
	<defs>
		<path id="SVGID_19_" d="M74.753,25.596c0,2.147,1.74,3.888,3.887,3.888c2.148,0,3.889-1.741,3.889-3.888
			c0-2.148-1.74-3.888-3.889-3.888C76.494,21.708,74.753,23.448,74.753,25.596"/>
	</defs>
	<clipPath id="SVGID_20_">
		<use xlink:href="#SVGID_19_"  overflow="visible"/>
	</clipPath>
	
		<radialGradient id="SVGID_21_" cx="-121.9805" cy="191.2041" r="0.2998" gradientTransform="matrix(432.0005 -2 -2 -432.0005 53070.9727 82407.6094)" gradientUnits="userSpaceOnUse">
		<stop  offset="0" style="stop-color:#E21570"/>
		<stop  offset="1" style="stop-color:#A2104F"/>
	</radialGradient>
	<polygon clip-path="url(#SVGID_20_)" fill="url(#SVGID_21_)" points="74.717,21.708 82.529,21.672 82.565,29.484 74.753,29.52 	"/>
</g>
</svg>
