<?xml version="1.0" encoding="utf-8"?>
<!-- Generator: Adobe Illustrator 16.0.3, SVG Export Plug-In . SVG Version: 6.00 Build 0)  -->
<!DOCTYPE svg PUBLIC "-//W3C//DTD SVG 1.1//EN" "http://www.w3.org/Graphics/SVG/1.1/DTD/svg11.dtd">
<svg version="1.1" id="Layer_1" xmlns="http://www.w3.org/2000/svg" xmlns:xlink="http://www.w3.org/1999/xlink" x="0px" y="0px"
	 width="122.667px" height="38px" viewBox="0 0 122.667 38" enable-background="new 0 0 122.667 38" xml:space="preserve">
<rect x="11.987" y="9.785" fill="#1E1E1D" width="10.513" height="9.365"/>
<rect x="23.24" y="9.785" fill="#F4AB1A" width="10.513" height="9.365"/>
<rect x="23.24" y="19.804" fill="#1E1E1D" width="10.513" height="9.365"/>
<rect x="11.987" y="19.804" fill="#F4AB1A" width="10.513" height="9.365"/>
<path fill="#1E1E1D" d="M27.562,17.271l-1.788-0.204c-0.29-0.033-0.497-0.258-0.471-0.51l0.066-0.63c0,0-0.378-0.065-0.189-0.361
	c0,0,0.254-0.313,0.654-0.297c0.009,0.001,0.018,0.001,0.026,0.002c0.387,0.031,0.446,0.374,0.422,0.526
	c-0.002,0.012-0.004,0.022-0.007,0.032c0,0,0.265,0.753,0.983,1.213L27.562,17.271z"/>
<path fill="#1E1E1D" d="M26.283,15.797c0.024-0.152-0.036-0.495-0.422-0.526c-0.009,0-0.017-0.001-0.026-0.002l3.107-2.026
	c0.008,0.242,0.159,0.453,0.384,0.57L26.283,15.797z"/>
<path fill="#1E1E1D" d="M29.916,13.391L29.916,13.391c-0.006,0.005-0.012,0.01-0.018,0.014C29.905,13.4,29.91,13.396,29.916,13.391"
	/>
<path fill="#1E1E1D" d="M33.753,14.065v1.705l-3.55-1.991c0.197-0.125,0.325-0.328,0.325-0.557c0-0.083-0.016-0.163-0.047-0.236
	L33.753,14.065z"/>
<path fill="#1E1E1D" d="M29.898,13.405c0.006-0.004,0.012-0.009,0.018-0.013v-0.001C29.91,13.396,29.905,13.4,29.898,13.405
	 M29.898,13.405c0.006-0.004,0.012-0.009,0.018-0.013v-0.001C29.91,13.396,29.905,13.4,29.898,13.405"/>
<path fill="#1E1E1D" d="M30.481,12.987c-0.111-0.264-0.403-0.452-0.746-0.452c-0.438,0-0.793,0.308-0.793,0.688
	c0,0.008,0,0.014,0.001,0.02c0.008,0.242,0.159,0.453,0.383,0.57c0.12,0.063,0.259,0.099,0.409,0.099
	c0.175,0,0.336-0.049,0.468-0.132c0.197-0.125,0.325-0.328,0.325-0.557C30.528,13.14,30.513,13.061,30.481,12.987 M29.917,13.391
	L29.917,13.391L29.917,13.391c-0.007,0.005-0.013,0.01-0.019,0.014c-0.045,0.03-0.101,0.048-0.163,0.048
	c-0.146,0-0.264-0.103-0.264-0.229c0-0.033,0.008-0.064,0.023-0.093l0.027-0.041c0.005-0.006,0.011-0.013,0.017-0.019
	s0.013-0.012,0.02-0.017c0.012-0.011,0.027-0.021,0.043-0.028c0.039-0.021,0.086-0.031,0.135-0.031c0.146,0,0.265,0.102,0.265,0.228
	C30,13.29,29.968,13.349,29.917,13.391"/>
<polygon fill="#F4AB1A" points="25.367,23.898 24.585,23.225 24.886,22.966 25.668,23.639 "/>
<path fill="#F4AB1A" d="M28.34,21.9c0-0.055-0.453-0.342-1.126-0.342c-0.595,0-0.997,0.203-1.066,0.262
	c-0.054,0.046-0.345,0.297-0.494,0.424c-0.047,0.04-0.047,0.105,0,0.146l0.307,0.264l0.462,0.396L27,22.554
	c-0.405-0.348,0.101-0.618,0.543-0.69C27.963,21.794,28.34,21.901,28.34,21.9"/>
<path fill="#F4AB1A" d="M26.285,23.04l-0.351-0.302l-0.351-0.302c-0.03,0.216-0.343,0.629-0.635,0.477l0.391,0.336l0.391,0.336
	C25.554,23.334,26.034,23.065,26.285,23.04"/>
<path fill="#F4AB1A" d="M27.187,22.868c-0.108-0.093-0.151-0.181-0.125-0.261l-0.058,0.051l-0.23,0.198l-0.231,0.198l-0.058,0.051
	c0.093-0.023,0.195,0.014,0.304,0.106l0.175,0.151l0.2-0.171l0.199-0.171L27.187,22.868z"/>
<path fill="#F4AB1A" d="M31.204,26.004c-0.182-0.095-1.023-0.715-1.621-1.229c-0.665-0.572-0.553-0.475-1.382-1.189
	c-0.225-0.193-0.474-0.253-0.776-0.513l-0.2,0.171l-0.199,0.171c0.303,0.26,0.372,0.474,0.597,0.667
	c0.831,0.714,0.718,0.617,1.383,1.189c0.597,0.514,1.319,1.237,1.429,1.395c0.035,0.05,0.116,0.058,0.165,0.016l0.312-0.269
	l0.313-0.269C31.271,26.104,31.262,26.035,31.204,26.004"/>
<polygon fill="#F4AB1A" points="32.263,22.966 31.481,23.639 31.782,23.898 32.564,23.225 "/>
<path fill="#F4AB1A" d="M29.606,21.863c0.442,0.073,0.948,0.342,0.543,0.691l0.579,0.497l0.461-0.397l0.307-0.264
	c0.022-0.019,0.035-0.045,0.035-0.072c0-0.027-0.013-0.054-0.035-0.073c-0.149-0.128-0.44-0.378-0.494-0.424
	c-0.069-0.06-0.471-0.262-1.066-0.262c-0.674,0-1.126,0.288-1.126,0.342C28.809,21.9,29.186,21.794,29.606,21.863"/>
<path fill="#F4AB1A" d="M31.81,23.249l0.391-0.336c-0.292,0.152-0.605-0.261-0.635-0.477l-0.351,0.302l-0.351,0.302
	c0.251,0.026,0.731,0.295,0.555,0.546L31.81,23.249z"/>
<path fill="#F4AB1A" d="M29.787,23.02l0.199,0.171l0.199,0.171l0.176-0.151c0.109-0.094,0.21-0.13,0.304-0.107l-0.058-0.05
	l-0.23-0.198l-0.23-0.198l-0.059-0.05c0.026,0.08-0.016,0.168-0.125,0.261L29.787,23.02z"/>
<path fill="#F4AB1A" d="M27.566,24.775c-0.597,0.514-1.438,1.135-1.621,1.229c-0.059,0.031-0.068,0.1-0.02,0.142l0.313,0.269
	l0.313,0.269c0.048,0.041,0.129,0.034,0.164-0.017c0.11-0.157,0.832-0.88,1.429-1.394c0.16-0.138,0.274-0.236,0.368-0.317
	l-0.578-0.498C27.841,24.539,27.726,24.638,27.566,24.775"/>
<path fill="#F4AB1A" d="M29.527,24.083c0.225-0.193,0.295-0.408,0.597-0.667l-0.2-0.171l-0.199-0.171
	c-0.302,0.26-0.551,0.32-0.776,0.513c-0.124,0.106-0.226,0.194-0.313,0.269l0.579,0.498C29.302,24.277,29.404,24.189,29.527,24.083"
	/>
<path fill="#1E1E1D" d="M19.646,23.401v0.496l-0.071,0.02l-3.734,1.085l-1.976-0.893l5.342-0.681l0.415-0.053
	C19.63,23.383,19.638,23.392,19.646,23.401"/>
<polygon fill="#1E1E1D" points="19.646,23.825 19.646,24.035 15.841,25.257 15.255,25.066 15.255,25.895 19.646,24.228 
	19.646,24.319 15.255,25.958 15.694,26.213 19.646,24.521 19.646,24.77 15.767,26.66 14.084,25.704 14.084,25.448 14.597,25.321 
	14.67,24.747 13.865,24.492 13.865,24.109 15.767,24.874 "/>
<path fill="#1E1E1D" d="M19.646,23.401c-0.008-0.009-0.016-0.018-0.024-0.026c-0.343-0.364-0.886-0.6-1.496-0.6
	c-0.773,0-1.438,0.377-1.726,0.916l0.433-0.046c0.267-0.349,0.747-0.582,1.293-0.582c0.422,0,0.806,0.14,1.081,0.365
	c0.147,0.12,0.264,0.264,0.339,0.424c0.011,0.021,0.021,0.043,0.029,0.065c0.017,0.041,0.03,0.083,0.041,0.127
	c0.015,0.06,0.024,0.122,0.028,0.185c0.001,0.019,0.002,0.038,0.002,0.057c0,0.012,0,0.022-0.001,0.033v0.001
	c-0.002,0.073-0.013,0.145-0.03,0.214c-0.03,0.114-0.078,0.222-0.144,0.321c-0.202,0.308-0.562,0.538-0.993,0.62l-0.566,0.312
	c0.07,0.006,0.142,0.01,0.214,0.01c1.035,0,1.877-0.677,1.877-1.51C20.004,23.956,19.871,23.65,19.646,23.401"/>
<path fill="#F4AB1A" d="M17.531,12.096l-0.18-0.48h-0.893l-0.12,0.431l-0.537,0.192l0.417,1.103l0.298,0.01l0.935,0.03h0
	l0.257,0.009l0.477-1.199L17.531,12.096z M16.964,12.911c-0.116,0-0.209-0.075-0.209-0.167s0.093-0.168,0.209-0.168
	c0.115,0,0.208,0.076,0.208,0.168S17.079,12.911,16.964,12.911"/>
<path fill="#F4AB1A" d="M18.663,15.5c0,0.003-0.002,1.103-1.49,1.199c-1.49,0.096-1.669-1.007-1.669-1.007
	c0-0.432-0.298-0.719-0.298-0.719s0.417-0.192,0.894,0.479c0.233,0.329,0.81,0.556,1.181,0.198c0.207-0.199,0-0.472-0.208-0.608
	c-0.188-0.123-0.487-0.183-0.544-0.398c-0.07-0.263-0.01-0.588-0.01-0.857v-0.434l0.935,0.03h0
	c-0.004,0.278,0.023,0.777,0.084,0.834c0.104,0.096,0.304,0.146,0.434,0.224c0.139,0.083,0.266,0.179,0.371,0.29
	C18.553,14.951,18.663,15.221,18.663,15.5"/>
<rect x="16.815" y="9.781" fill="#F4AB1A" width="0.296" height="1.835"/>
<path fill="#1E1E1D" d="M34.494,29.823H11.247V9.13h23.248V29.823z M35.234,8.475h-0.74H11.247h-0.74V9.13v20.693v0.655h0.74h23.248
	h0.74v-0.655V9.13V8.475z"/>
<polygon fill="#F4AB1A" points="42.5,9.726 45.356,9.726 45.356,18.712 51.545,18.712 51.545,20.801 42.5,20.801 "/>
<rect x="53.149" y="9.726" fill="#F4AB1A" width="2.857" height="11.075"/>
<polygon fill="#F4AB1A" points="70.165,20.801 70.147,14.156 66.515,19.63 65.228,19.63 61.613,14.298 61.613,20.801 58.933,20.801 
	58.933,9.726 61.295,9.726 65.915,16.608 70.465,9.726 72.81,9.726 72.845,20.801 "/>
<polygon fill="#F4AB1A" points="87.003,20.801 86.985,14.156 83.354,19.63 82.066,19.63 78.452,14.298 78.452,20.801 75.771,20.801 
	75.771,9.726 78.134,9.726 82.754,16.608 87.304,9.726 89.649,9.726 89.685,20.801 "/>
<rect x="92.161" y="9.725" fill="#F4AB1A" width="9.328" height="2.057"/>
<rect x="92.161" y="14.181" fill="#F4AB1A" width="6.09" height="2.057"/>
<rect x="92.161" y="18.744" fill="#F4AB1A" width="9.328" height="2.057"/>
<polygon fill="#F4AB1A" points="114.927,9.703 112.114,13.282 108.995,17.251 105.513,13.282 102.372,9.703 105.71,9.703 
	108.829,13.282 111.708,9.703 "/>
<path fill="#F4AB1A" d="M115.394,20.801h-3.299c-0.178-0.225-2.104-2.424-2.576-2.964l1.555-1.979L115.394,20.801z"/>
<polygon fill="#F4AB1A" points="108.505,17.857 106.188,20.801 102.907,20.801 106.798,15.913 "/>
<g>
	<path fill="#3A3939" d="M49.613,23.784l-0.533,0.371c-0.294-0.347-0.646-0.61-1.059-0.789c-0.412-0.179-0.864-0.269-1.357-0.269
		c-0.539,0-1.038,0.117-1.497,0.352c-0.459,0.235-0.815,0.55-1.068,0.945c-0.252,0.396-0.379,0.841-0.379,1.335
		c0,0.747,0.283,1.37,0.847,1.87c0.565,0.5,1.278,0.75,2.138,0.75c0.946,0,1.737-0.336,2.374-1.007l0.533,0.366
		c-0.337,0.389-0.757,0.689-1.261,0.901c-0.503,0.212-1.066,0.319-1.688,0.319c-1.182,0-2.114-0.357-2.797-1.07
		c-0.572-0.603-0.859-1.33-0.859-2.182c0-0.897,0.347-1.651,1.041-2.263c0.693-0.612,1.562-0.918,2.606-0.918
		c0.631,0,1.2,0.113,1.708,0.339C48.872,23.059,49.288,23.376,49.613,23.784z"/>
	<path fill="#3A3939" d="M54.326,22.494c1.023,0,1.879,0.309,2.569,0.928c0.689,0.619,1.034,1.381,1.034,2.286
		c0,0.897-0.344,1.658-1.031,2.282c-0.688,0.625-1.526,0.938-2.516,0.938c-1.002,0-1.848-0.311-2.537-0.933
		c-0.689-0.622-1.034-1.374-1.034-2.257c0-0.588,0.157-1.134,0.471-1.637c0.314-0.502,0.742-0.896,1.284-1.181
		C53.108,22.636,53.694,22.494,54.326,22.494z M54.355,23.089c-0.5,0-0.974,0.118-1.421,0.354c-0.448,0.236-0.797,0.554-1.049,0.954
		s-0.377,0.846-0.377,1.338c0,0.728,0.278,1.343,0.835,1.844c0.556,0.501,1.227,0.752,2.012,0.752c0.524,0,1.01-0.115,1.456-0.346
		c0.446-0.23,0.794-0.545,1.044-0.946c0.25-0.4,0.375-0.844,0.375-1.333c0-0.486-0.125-0.926-0.375-1.319
		c-0.25-0.393-0.602-0.708-1.056-0.944C55.346,23.207,54.865,23.089,54.355,23.089z"/>
	<path fill="#3A3939" d="M59.42,28.773v-6.125h0.146l4.496,4.695v-4.695h0.666v6.125h-0.151l-4.459-4.638v4.638H59.42z"/>
	<path fill="#3A3939" d="M65.815,27.632l0.574-0.312c0.404,0.674,0.871,1.012,1.4,1.012c0.227,0,0.439-0.048,0.639-0.144
		s0.351-0.224,0.455-0.385c0.104-0.161,0.156-0.332,0.156-0.512c0-0.206-0.077-0.407-0.23-0.604
		c-0.211-0.272-0.597-0.599-1.156-0.982c-0.564-0.386-0.914-0.665-1.053-0.837c-0.238-0.289-0.357-0.601-0.357-0.938
		c0-0.266,0.07-0.509,0.211-0.729s0.339-0.392,0.595-0.519c0.255-0.126,0.533-0.189,0.833-0.189c0.318,0,0.616,0.071,0.894,0.214
		c0.276,0.143,0.57,0.406,0.88,0.789l-0.552,0.379c-0.254-0.306-0.47-0.507-0.649-0.604s-0.375-0.146-0.586-0.146
		c-0.271,0-0.495,0.075-0.668,0.225c-0.173,0.15-0.26,0.335-0.26,0.554c0,0.133,0.031,0.263,0.092,0.388
		c0.062,0.125,0.174,0.261,0.336,0.408c0.088,0.078,0.379,0.282,0.872,0.612c0.585,0.392,0.985,0.74,1.204,1.045
		c0.217,0.305,0.326,0.612,0.326,0.92c0,0.444-0.188,0.83-0.559,1.158c-0.372,0.327-0.824,0.491-1.357,0.491
		c-0.41,0-0.782-0.1-1.115-0.298C66.405,28.431,66.097,28.098,65.815,27.632z"/>
	<path fill="#3A3939" d="M70.659,23.247v-0.6h3.701v0.6h-1.506v5.526h-0.689v-5.526H70.659z"/>
	<path fill="#3A3939" d="M75.513,22.647h1.345c0.75,0,1.259,0.028,1.524,0.083c0.401,0.083,0.728,0.262,0.979,0.536
		c0.252,0.274,0.377,0.611,0.377,1.011c0,0.333-0.086,0.627-0.26,0.879c-0.173,0.253-0.42,0.444-0.741,0.574
		c-0.321,0.129-0.766,0.195-1.332,0.198l2.429,2.844h-0.834l-2.43-2.844h-0.382v2.844h-0.675V22.647z M76.188,23.247v2.082
		l1.163,0.008c0.451,0,0.785-0.039,1.001-0.116c0.216-0.078,0.385-0.202,0.506-0.373s0.182-0.361,0.182-0.572
		c0-0.206-0.062-0.392-0.185-0.561c-0.122-0.168-0.283-0.288-0.482-0.36s-0.531-0.108-0.993-0.108H76.188z"/>
	<path fill="#3A3939" d="M81.348,22.647h0.675v3.698c0,0.438,0.01,0.712,0.027,0.82c0.034,0.242,0.112,0.443,0.234,0.606
		c0.123,0.163,0.311,0.298,0.565,0.408c0.254,0.11,0.51,0.165,0.767,0.165c0.224,0,0.438-0.043,0.644-0.129
		c0.204-0.086,0.376-0.206,0.515-0.358c0.137-0.153,0.238-0.337,0.303-0.554c0.046-0.156,0.068-0.475,0.068-0.958v-3.698h0.676
		v3.698c0,0.547-0.059,0.989-0.178,1.326c-0.117,0.337-0.354,0.631-0.707,0.881c-0.354,0.25-0.781,0.375-1.283,0.375
		c-0.545,0-1.012-0.118-1.4-0.354c-0.39-0.236-0.649-0.548-0.781-0.937c-0.083-0.239-0.124-0.669-0.124-1.291V22.647z"/>
	<path fill="#3A3939" d="M93.917,23.784l-0.533,0.371c-0.295-0.347-0.646-0.61-1.059-0.789s-0.865-0.269-1.357-0.269
		c-0.539,0-1.039,0.117-1.498,0.352c-0.459,0.235-0.814,0.55-1.066,0.945c-0.254,0.396-0.379,0.841-0.379,1.335
		c0,0.747,0.281,1.37,0.848,1.87c0.564,0.5,1.277,0.75,2.137,0.75c0.947,0,1.738-0.336,2.375-1.007l0.533,0.366
		c-0.338,0.389-0.758,0.689-1.262,0.901s-1.066,0.319-1.688,0.319c-1.182,0-2.113-0.357-2.797-1.07
		c-0.572-0.603-0.859-1.33-0.859-2.182c0-0.897,0.348-1.651,1.041-2.263c0.693-0.612,1.563-0.918,2.605-0.918
		c0.631,0,1.201,0.113,1.709,0.339C93.175,23.059,93.591,23.376,93.917,23.784z"/>
	<path fill="#3A3939" d="M94.741,23.247v-0.6h3.701v0.6h-1.506v5.526h-0.689v-5.526H94.741z"/>
	<path fill="#3A3939" d="M99.462,22.647h0.674v6.125h-0.674V22.647z"/>
	<path fill="#3A3939" d="M105.032,22.494c1.023,0,1.879,0.309,2.568,0.928s1.035,1.381,1.035,2.286c0,0.897-0.344,1.658-1.031,2.282
		c-0.689,0.625-1.527,0.938-2.518,0.938c-1.002,0-1.846-0.311-2.535-0.933c-0.689-0.622-1.035-1.374-1.035-2.257
		c0-0.588,0.158-1.134,0.471-1.637c0.314-0.502,0.742-0.896,1.285-1.181C103.815,22.636,104.401,22.494,105.032,22.494z
		 M105.062,23.089c-0.498,0-0.973,0.118-1.42,0.354c-0.447,0.236-0.799,0.554-1.049,0.954c-0.252,0.4-0.377,0.846-0.377,1.338
		c0,0.728,0.277,1.343,0.834,1.844c0.557,0.501,1.229,0.752,2.012,0.752c0.525,0,1.01-0.115,1.457-0.346
		c0.445-0.23,0.795-0.545,1.045-0.946c0.248-0.4,0.373-0.844,0.373-1.333c0-0.486-0.125-0.926-0.373-1.319
		c-0.25-0.393-0.604-0.708-1.057-0.944C106.054,23.207,105.571,23.089,105.062,23.089z"/>
	<path fill="#3A3939" d="M110.126,28.773v-6.125h0.146l4.498,4.695v-4.695h0.664v6.125h-0.15l-4.459-4.638v4.638H110.126z"/>
</g>
</svg>
