<?xml version="1.0" encoding="utf-8"?>
<!-- Generator: Adobe Illustrator 24.1.1, SVG Export Plug-In . SVG Version: 6.00 Build 0)  -->
<svg version="1.1" id="Layer_1" xmlns="http://www.w3.org/2000/svg" xmlns:xlink="http://www.w3.org/1999/xlink" x="0px" y="0px"
	 viewBox="0 0 96.8 58.2" style="enable-background:new 0 0 96.8 58.2;" xml:space="preserve">
<style type="text/css">
	.st0{fill:url(#SVGID_4_);}
	.st1{clip-path:url(#SVGID_6_);fill:url(#SVGID_7_);}
	.st2{clip-path:url(#SVGID_9_);}
	.st3{fill:url(#SVGID_10_);}
	.st4{fill:url(#SVGID_11_);}
	.st5{fill:url(#SVGID_12_);}
	.st6{fill:url(#SVGID_13_);}
	.st7{fill:url(#SVGID_14_);}
	.st8{fill:url(#SVGID_15_);}
	.st9{fill:url(#SVGID_16_);}
	.st10{fill:url(#SVGID_17_);}
	.st11{fill:url(#SVGID_18_);}
	.st12{fill:url(#SVGID_19_);}
	.st13{fill:#F8F7FF;}
	.st14{fill:#C5AFF2;}
	.st15{clip-path:url(#SVGID_22_);}
	.st16{clip-path:url(#SVGID_23_);fill:url(#SVGID_24_);}
	.st17{opacity:0.22;fill:url(#SVGID_25_);enable-background:new    ;}
	.st18{clip-path:url(#SVGID_28_);}
	.st19{clip-path:url(#SVGID_29_);fill:url(#SVGID_30_);}
	.st20{fill:url(#SVGID_31_);}
	.st21{fill:#F4BF62;}
	.st22{fill:#F9D77F;}
	.st23{fill:#FFFFFF;}
	.st24{fill:#DFCAFF;}
	.st25{fill:#FF7BB1;}
	.st26{fill:#F9539E;}
	.st27{fill:#FF8DC1;}
	.st28{fill:#483670;}
	.st29{fill:#3E3066;}
	.st30{fill:#F5B379;}
	.st31{fill:#6650D6;}
	.st32{fill:#4C3099;}
	.st33{fill:url(#SVGID_32_);}
	.st34{fill:url(#SVGID_33_);}
	.st35{fill:url(#SVGID_34_);}
	.st36{fill:url(#SVGID_35_);}
	.st37{fill:#F29866;}
	.st38{fill:url(#SVGID_36_);}
	.st39{fill:url(#SVGID_37_);}
	.st40{fill:url(#SVGID_38_);}
	.st41{fill:url(#SVGID_39_);}
	.st42{fill:url(#SVGID_40_);}
	.st43{opacity:0.34;fill:#FFFFFF;enable-background:new    ;}
	.st44{fill:#F0C960;}
	.st45{fill:#161228;}
	.st46{fill:#7C71EA;}
	.st47{fill:url(#SVGID_41_);}
	.st48{fill:url(#SVGID_42_);}
	.st49{fill:#F2E9FF;}
	.st50{fill:url(#SVGID_43_);}
	.st51{fill:url(#SVGID_44_);}
	.st52{fill:url(#SVGID_45_);}
	.st53{fill:url(#SVGID_46_);}
	.st54{fill:#34207A;}
	.st55{fill:#221560;}
	.st56{fill:url(#SVGID_47_);}
	.st57{fill:url(#SVGID_48_);}
	.st58{opacity:0.13;fill:#FFFFFF;enable-background:new    ;}
	.st59{fill:#292142;}
	.st60{fill:url(#SVGID_49_);}
	.st61{fill:url(#SVGID_50_);}
	.st62{fill:url(#SVGID_51_);}
	.st63{fill:url(#SVGID_52_);}
	.st64{fill:url(#SVGID_53_);}
	.st65{fill:url(#SVGID_54_);}
	.st66{opacity:0.27;fill:#FFFFFF;enable-background:new    ;}
	.st67{fill:url(#SVGID_55_);}
	.st68{fill:url(#SVGID_56_);}
	.st69{opacity:0.12;fill:#3D2531;enable-background:new    ;}
	.st70{fill:url(#SVGID_57_);}
	.st71{fill:url(#SVGID_58_);}
	.st72{fill:url(#SVGID_59_);}
	.st73{fill:url(#SVGID_60_);}
	.st74{fill:url(#SVGID_61_);}
</style>
<g id="background">
</g>
<g id="recktangle">
</g>
<g id="shadow_1_">
</g>
<g>
	<g>
		
			<linearGradient id="SVGID_4_" gradientUnits="userSpaceOnUse" x1="-7.540361e-02" y1="48.6416" x2="96.3665" y2="48.6416" gradientTransform="matrix(1 0 0 -1 0 77)">
			<stop  offset="0" style="stop-color:#FFFFFF"/>
			<stop  offset="1" style="stop-color:#C6CAFF"/>
		</linearGradient>
		<path id="SVGID_1_" class="st0" d="M95,37.9c3.6-12.6,0.9-35.3-18-36c-18-0.6-18.4,9.3-36.9,6.6C21.6,5.9,11.8,6.7,5.3,13.8
			c-8.1,9-10.7,44.3,19.1,40.8s43.6,1.6,53.4-0.9C87.7,51.2,92.7,46,95,37.9z"/>
	</g>
	<g>
		<defs>
			<path id="SVGID_5_" d="M95,37.9c3.6-12.6,0.9-35.3-18-36c-18-0.6-18.4,9.3-36.9,6.6C21.6,5.9,11.8,6.7,5.3,13.8
				c-8.1,9-10.7,44.3,19.1,40.8s43.6,1.6,53.4-0.9C87.7,51.2,92.7,46,95,37.9z"/>
		</defs>
		<clipPath id="SVGID_6_">
			<use xlink:href="#SVGID_5_"  style="overflow:visible;"/>
		</clipPath>
		
			<linearGradient id="SVGID_7_" gradientUnits="userSpaceOnUse" x1="30.4474" y1="63.2146" x2="42.508" y2="63.2146" gradientTransform="matrix(1 0 0 -1 0 77)">
			<stop  offset="0" style="stop-color:#FFFFFF"/>
			<stop  offset="1" style="stop-color:#C6CAFF"/>
		</linearGradient>
		<path class="st1" d="M42.5,15.8H30.4c0.3-0.9,1.3-1.3,2.1-1c0.4-0.6,1-1.3,1.8-1.5c0.6-0.1,1.1,0.1,1.6-0.5
			c0.3-0.3,0.5-0.6,0.9-0.8c1.5-0.7,3,0.3,3.4,1.7c0.3-0.4,0.9-0.5,1.4-0.3c0.8,0.3,1,1.3,0.9,2.1C42.5,15.6,42.5,15.7,42.5,15.8z"
			/>
	</g>
	<g>
		<defs>
			<path id="SVGID_8_" d="M95,37.9c3.6-12.6,0.9-35.3-18-36c-18-0.6-18.4,9.3-36.9,6.6C21.6,5.9,11.8,6.7,5.3,13.8
				c-8.1,9-10.7,44.3,19.1,40.8s43.6,1.6,53.4-0.9C87.7,51.2,92.7,46,95,37.9z"/>
		</defs>
		<clipPath id="SVGID_9_">
			<use xlink:href="#SVGID_8_"  style="overflow:visible;"/>
		</clipPath>
		<g class="st2">
			<g>
				
					<linearGradient id="SVGID_10_" gradientUnits="userSpaceOnUse" x1="967.1855" y1="24" x2="967.1855" y2="69.2793" gradientTransform="matrix(1 0 0 -1 -892.0856 77)">
					<stop  offset="0" style="stop-color:#FFFFFF"/>
					<stop  offset="1" style="stop-color:#C6CAFF"/>
				</linearGradient>
				<polygon class="st3" points="78.4,17.9 78.4,16.1 74.5,16.1 74.5,7.8 73.4,7.8 73.4,16.1 69.3,16.1 69.3,17.9 67,17.9 67,53 
					83.2,53 83.2,17.9 				"/>
				
					<linearGradient id="SVGID_11_" gradientUnits="userSpaceOnUse" x1="974.0856" y1="27.5" x2="974.0856" y2="59.1" gradientTransform="matrix(1 0 0 -1 -892.0856 77)">
					<stop  offset="0" style="stop-color:#FFFFFF"/>
					<stop  offset="1" style="stop-color:#C6CAFF"/>
				</linearGradient>
				<rect x="80.9" y="17.9" class="st4" width="2.2" height="31.6"/>
			</g>
			<g>
				
					<linearGradient id="SVGID_12_" gradientUnits="userSpaceOnUse" x1="898.0356" y1="22.8" x2="898.0356" y2="59.2" gradientTransform="matrix(1 0 0 -1 -892.0856 77)">
					<stop  offset="0" style="stop-color:#FFFFFF"/>
					<stop  offset="1" style="stop-color:#C6CAFF"/>
				</linearGradient>
				<polygon class="st5" points="8.9,25.9 8.9,24.5 5.4,24.5 5.4,17.8 4.5,17.8 4.5,24.5 0.7,24.5 0.7,25.9 -1.3,25.9 -1.3,54.2 
					13.2,54.2 13.2,25.9 				"/>
				
					<linearGradient id="SVGID_13_" gradientUnits="userSpaceOnUse" x1="904.2856" y1="25.6486" x2="904.2856" y2="51.0744" gradientTransform="matrix(1 0 0 -1 -892.0856 77)">
					<stop  offset="0" style="stop-color:#FFFFFF"/>
					<stop  offset="1" style="stop-color:#C6CAFF"/>
				</linearGradient>
				<rect x="11.2" y="25.9" class="st6" width="2" height="25.4"/>
			</g>
			<g>
				
					<linearGradient id="SVGID_14_" gradientUnits="userSpaceOnUse" x1="957.3356" y1="23.9659" x2="957.3356" y2="51.5227" gradientTransform="matrix(1 0 0 -1 -892.0856 77)">
					<stop  offset="0" style="stop-color:#FFFFFF"/>
					<stop  offset="1" style="stop-color:#C6CAFF"/>
				</linearGradient>
				<rect x="58" y="25.5" class="st7" width="14.5" height="27.6"/>
				
					<linearGradient id="SVGID_15_" gradientUnits="userSpaceOnUse" x1="963.5856" y1="23.9659" x2="963.5856" y2="51.5227" gradientTransform="matrix(1 0 0 -1 -892.0856 77)">
					<stop  offset="0" style="stop-color:#FFFFFF"/>
					<stop  offset="1" style="stop-color:#C6CAFF"/>
				</linearGradient>
				<rect x="70.5" y="25.5" class="st8" width="2" height="27.6"/>
			</g>
			<g>
				
					<linearGradient id="SVGID_16_" gradientUnits="userSpaceOnUse" x1="979.5856" y1="22.4677" x2="979.5856" y2="49.4677" gradientTransform="matrix(1 0 0 -1 -892.0856 77)">
					<stop  offset="0" style="stop-color:#FFFFFF"/>
					<stop  offset="1" style="stop-color:#C6CAFF"/>
				</linearGradient>
				<rect x="80.9" y="27.6" class="st9" width="13.2" height="27"/>
				
					<linearGradient id="SVGID_17_" gradientUnits="userSpaceOnUse" x1="985.2856" y1="22.4677" x2="985.2856" y2="49.4677" gradientTransform="matrix(1 0 0 -1 -892.0856 77)">
					<stop  offset="0" style="stop-color:#FFFFFF"/>
					<stop  offset="1" style="stop-color:#C6CAFF"/>
				</linearGradient>
				<rect x="92.3" y="27.6" class="st10" width="1.8" height="27"/>
			</g>
			<g>
				
					<linearGradient id="SVGID_18_" gradientUnits="userSpaceOnUse" x1="911.6855" y1="22.8" x2="911.6855" y2="46.2" gradientTransform="matrix(1 0 0 -1 -892.0856 77)">
					<stop  offset="0" style="stop-color:#FFFFFF"/>
					<stop  offset="1" style="stop-color:#C6CAFF"/>
				</linearGradient>
				<rect x="14.1" y="30.8" class="st11" width="11" height="23.4"/>
				
					<linearGradient id="SVGID_19_" gradientUnits="userSpaceOnUse" x1="916.4355" y1="22.8" x2="916.4355" y2="46.2" gradientTransform="matrix(1 0 0 -1 -892.0856 77)">
					<stop  offset="0" style="stop-color:#FFFFFF"/>
					<stop  offset="1" style="stop-color:#C6CAFF"/>
				</linearGradient>
				<rect x="23.6" y="30.8" class="st12" width="1.5" height="23.4"/>
			</g>
		</g>
	</g>
</g>
<ellipse class="st13" cx="51.1" cy="54.8" rx="43.6" ry="2.4"/>
<g>
	<path class="st14" d="M76.6,14.4c-2.3,0-4.2-1.9-4.2-4.2h0.2c0,2.2,1.8,4,4,4s4-1.8,4-4h0.2C80.8,12.5,78.9,14.4,76.6,14.4z"/>
	<polygon class="st14" points="76.5,7 71.2,11.3 82.9,11.3 	"/>
	<g>
		<g>
			<defs>
				<polygon id="SVGID_20_" points="1,0 2,0 1,1 				"/>
			</defs>
			<defs>
				<polygon id="SVGID_21_" points="-1,-2 -2,-2 -1,-3 				"/>
			</defs>
			<clipPath id="SVGID_22_">
				<use xlink:href="#SVGID_20_"  style="overflow:visible;"/>
			</clipPath>
			<clipPath id="SVGID_23_" class="st15">
				<use xlink:href="#SVGID_21_"  style="overflow:visible;"/>
			</clipPath>
			
				<linearGradient id="SVGID_24_" gradientUnits="userSpaceOnUse" x1="76.45" y1="48.3" x2="76.45" y2="66.3" gradientTransform="matrix(1 0 0 -1 0 77)">
				<stop  offset="0" style="stop-color:#000000"/>
				<stop  offset="1" style="stop-color:#FFFFFF"/>
			</linearGradient>
			<polygon class="st16" points="73.9,10.7 68.3,28.7 84.6,28.7 79.3,10.7 			"/>
		</g>
	</g>
	
		<linearGradient id="SVGID_25_" gradientUnits="userSpaceOnUse" x1="76.45" y1="48.3" x2="76.45" y2="66.3" gradientTransform="matrix(1 0 0 -1 0 77)">
		<stop  offset="0" style="stop-color:#FFFFFF"/>
		<stop  offset="1" style="stop-color:#F9D77F"/>
	</linearGradient>
	<polygon class="st17" points="73.9,10.7 68.3,28.7 84.6,28.7 79.3,10.7 	"/>
	<g>
		<g>
			<defs>
				<polygon id="SVGID_26_" points="1,0 2,0 1,1 				"/>
			</defs>
			<defs>
				<polygon id="SVGID_27_" points="-1,-2 -2,-2 -1,-3 				"/>
			</defs>
			<clipPath id="SVGID_28_">
				<use xlink:href="#SVGID_26_"  style="overflow:visible;"/>
			</clipPath>
			<clipPath id="SVGID_29_" class="st18">
				<use xlink:href="#SVGID_27_"  style="overflow:visible;"/>
			</clipPath>
			
				<linearGradient id="SVGID_30_" gradientUnits="userSpaceOnUse" x1="76.55" y1="70.4225" x2="76.55" y2="76.2225" gradientTransform="matrix(1 0 0 -1 0 77)">
				<stop  offset="0" style="stop-color:#FFFFFF"/>
				<stop  offset="1" style="stop-color:#000000"/>
			</linearGradient>
			<rect x="76.3" y="0.8" class="st19" width="0.5" height="5.8"/>
		</g>
	</g>
	
		<linearGradient id="SVGID_31_" gradientUnits="userSpaceOnUse" x1="76.55" y1="70.4225" x2="76.55" y2="76.2225" gradientTransform="matrix(1 0 0 -1 0 77)">
		<stop  offset="0" style="stop-color:#DFCAFF"/>
		<stop  offset="1" style="stop-color:#FFFFFF"/>
	</linearGradient>
	<rect x="76.3" y="0.8" class="st20" width="0.5" height="5.8"/>
	<path class="st21" d="M77.4,9.4h-1.7v-1c0-0.5,0.4-0.9,0.9-0.9l0,0c0.5,0,0.9,0.4,0.9,0.9v1H77.4z"/>
	<path class="st22" d="M77.5,11.5c0-0.6-0.4-1-1-1s-1,0.4-1,1s0.4,1,1,1S77.5,12,77.5,11.5z"/>
	<path class="st23" d="M76.5,12.1c-0.2,0-0.6-0.2-0.6-0.5c0-0.1-0.2-0.1-0.1,0c0.1,0.3,0.4,0.5,0.7,0.6
		C76.6,12.3,76.6,12.1,76.5,12.1z"/>
	<polygon class="st24" points="76.5,7 70.7,11.3 82.4,11.3 	"/>
	<path class="st14" d="M76.5,7.5L76.5,7.5C76.2,7.5,76,7.3,76,7l0,0c0-0.3,0.2-0.5,0.5-0.5l0,0C76.8,6.5,77,6.7,77,7l0,0
		C77.1,7.3,76.8,7.5,76.5,7.5z"/>
</g>
<g>
	<g>
		<path class="st25" d="M91.1,51.4c-1,2.4-4.9,3.5-11.2,2.8c-4.5-0.5-5.2-2.2-4.8-4.8c0.4-2.1,4.1-4.1,4.1-4.1
			c1.1-3,3.5-6.6,6.7-6.6l0,0c0.4,0,0.7,0.1,1.1,0.2c1.8,0.5,3,1.8,3.7,3.3c0.2,0.5,0.4,1,0.6,1.6C92.1,46.8,91.7,50.1,91.1,51.4z"
			/>
		<path class="st26" d="M87,47.7c0,0-3.3-2.3-7.2-1.9C79.9,45.8,83.3,43.7,87,47.7z"/>
		<path class="st27" d="M85.2,50.3c-0.2,1.2-2.3,1.8-4.8,1.3c-2.5-0.4-4.3-1.7-4.1-2.9c0.2-1.2,1.5-2.2,4.8-1.3
			C83.6,48.1,85.4,49.2,85.2,50.3z"/>
		<path class="st27" d="M83.4,40.6c0.4-1.1,1.9-1.6,3.3-1.1s2.3,1.8,1.9,2.9c-0.4,1.1-1.4,2.1-3.3,1.1C84,42.9,83.1,41.8,83.4,40.6z
			"/>
		<path class="st26" d="M91.3,43.9L91.3,43.9C91.3,43.8,91.3,43.8,91.3,43.9c0-0.1-0.1-0.3-0.1-0.4c0,0,0,0,0-0.1s-0.1-0.2-0.1-0.3
			V43c0-0.1-0.1-0.2-0.1-0.3c0,0,0,0,0-0.1c-0.1-0.1-0.1-0.2-0.2-0.4c-0.8-1.5-2-2.7-3.8-3.2c-0.4-0.1-0.8-0.2-1.1-0.2l0,0
			c0,0,5.1,0.7,4.8,6.7c-0.2,4.9-3.4,7.8-7.8,7.9c-8.4,0.4-7.9-4-7.9-4c-0.4,2.6,0.3,4.4,4.8,4.8c6.4,0.6,10.2-0.5,11.2-2.8
			C91.7,50.1,92.1,46.8,91.3,43.9z"/>
	</g>
	<g>
		<path class="st28" d="M82,31.6c0,0-0.6,0.5-0.4,1.9c0.3,2.2-1,2.4-0.3,3.5c0.3,0.5,1.4,0.6,1.8,0.6s1.2-4.1,1.2-4.1L82,31.6z"/>
		<path class="st29" d="M82,31.5c0,0-0.3,2.3-0.1,3c0.3,0.9,0.1,1.9,0.6,2.7c0,0,3-0.6,3.2-0.8s-0.8-5.5-1.1-5.5
			C84.4,30.9,82,31.5,82,31.5z"/>
		<path class="st30" d="M77.9,39.3c0-0.1-0.1-0.1-0.1-0.2l0,0c-0.1-0.1-0.1-0.2-0.2-0.2c-0.1-0.1-0.3-0.1-0.4-0.1l0,0
			c0,0.1,0.2,0.1,0.3,0.2h-0.1c-0.1,0-0.1-0.1-0.2-0.2c-0.1-0.1-0.1-0.1-0.2-0.2l0,0v0.1c0,0,0,0,0,0.1c0,0-0.1-0.1-0.2-0.1l0,0v0.1
			l0,0l0,0l0,0v0.1l0.1,0.1c0,0,0,0-0.1,0l0,0c0,0,0,0.1,0.1,0.1c0.1,0.1,0.2,0.2,0.2,0.2c0.2,0.1,0.8,0.3,0.9,0.2l0,0
			C78,39.5,78,39.4,77.9,39.3z"/>
		<path class="st31" d="M75.2,44.8c-0.4,0.7,1.7,8.7,1.7,8.7h0.5l-0.4-7c0,0,3.3-0.1,3.7-0.8C81,45,81,43.9,81,43.9
			c-0.2,0,1-0.8,1-0.8C79.2,43,75.5,44.2,75.2,44.8z"/>
		<path class="st32" d="M76.9,46.5l0.4,7L77,53.6c0,0-0.8-7.9-0.5-8.6c0.4-1.2,4.2-1.5,4.2-1.5l-2,2.8
			C78.8,46.3,77.1,46.6,76.9,46.5z"/>
		<path class="st31" d="M77,45.2c-0.2,0.7,4.4,8.3,4.4,8.3h0.5l-2.6-7.1c0,0,4.4,0.4,4.8-0.3s0.6-2.6,0.6-2.6
			c-0.2,0-1.9-0.4-1.9-0.4C80,43.2,77.2,44.6,77,45.2z"/>
		<path class="st32" d="M78.8,45.9c-0.2,0.7,3,7.6,3,7.6h0.1l-2.6-7.1c0,0,4.4,0.4,4.8-0.3s0.6-2.6,0.6-2.6c-0.2,0-1.9-0.4-1.9-0.4
			c0.6,1,0.8,2.1,0.1,2.3C81,45.9,79,45.5,78.8,45.9z"/>
		<g>
			
				<linearGradient id="SVGID_32_" gradientUnits="userSpaceOnUse" x1="81.1079" y1="23.45" x2="81.9916" y2="23.45" gradientTransform="matrix(1 0 0 -1 0 77)">
				<stop  offset="0" style="stop-color:#00B2DB"/>
				<stop  offset="1" style="stop-color:#89E8F7"/>
			</linearGradient>
			<path class="st33" d="M81.1,53c0.1-0.2,0.7-0.4,0.7-0.4l0.1,1.9c0,0-0.2-0.4-0.5-0.8C81.2,53.2,81.1,53.2,81.1,53z"/>
			
				<linearGradient id="SVGID_33_" gradientUnits="userSpaceOnUse" x1="81.8649" y1="23.45" x2="82.138" y2="23.45" gradientTransform="matrix(1 0 0 -1 0 77)">
				<stop  offset="0" style="stop-color:#89E8F7"/>
				<stop  offset="1" style="stop-color:#00B2DB"/>
			</linearGradient>
			<polygon class="st34" points="82,52.6 82.1,54.5 82,54.5 81.9,52.6 			"/>
		</g>
		<g>
			
				<linearGradient id="SVGID_34_" gradientUnits="userSpaceOnUse" x1="75.7302" y1="23.3188" x2="77.6115" y2="23.3188" gradientTransform="matrix(1 0 0 -1 0 77)">
				<stop  offset="0" style="stop-color:#00B2DB"/>
				<stop  offset="1" style="stop-color:#89E8F7"/>
			</linearGradient>
			<path class="st35" d="M77.2,53.3c0.2,0.1,0.4,0.8,0.4,0.8h-1.9c0,0,0.4-0.1,0.9-0.5C77,53.3,77.1,53.2,77.2,53.3z"/>
			
				<linearGradient id="SVGID_35_" gradientUnits="userSpaceOnUse" x1="75.7302" y1="22.95" x2="77.6115" y2="22.95" gradientTransform="matrix(1 0 0 -1 0 77)">
				<stop  offset="0" style="stop-color:#89E8F7"/>
				<stop  offset="1" style="stop-color:#00B2DB"/>
			</linearGradient>
			<rect x="75.7" y="54" class="st36" width="1.9" height="0.1"/>
		</g>
		<path class="st22" d="M83.5,36.3c0.4,0.1-0.1,1.9-2.2,4.9c-0.5,0.8-1.3-0.4-1-0.8c0.3-0.5,1.5-2.5,1.5-2.5S82.8,36,83.5,36.3z"/>
		<path class="st21" d="M83.5,36.3c0.4,0.1-0.1,1.9-2.2,4.9c0.6-1.8,0.6-2.4,0.8-3.2C82.2,37.4,82.8,36,83.5,36.3z"/>
		<path class="st22" d="M81,41.3c-0.1,0.1-0.3,0.1-0.8-0.2c-0.4-0.2-2.4-1.6-2.4-1.6l0.1-0.5c0,0,2.4,1,2.7,1.3
			C80.9,40.8,81.2,41.1,81,41.3z"/>
		<path class="st37" d="M83.6,35.4C83.6,35.3,83.5,35.3,83.6,35.4c-0.2-0.1-0.2-0.1-0.2,0C83.5,35.4,83.5,35.4,83.6,35.4
			C83.5,35.4,83.5,35.4,83.6,35.4z"/>
		<path class="st22" d="M80.8,43.3c2.2,0.7,4.1,0.4,4.1,0.4s-0.2-2.6,0.3-5.2c0.1-0.6,0.1-1.1,0.2-1.3c0.1-0.3-0.2-0.6-0.5-0.7
			c-0.1,0-0.1-0.1-0.2-0.1c-0.1-0.1-0.2-0.1-0.2-0.1s-0.2,0-1-0.1c-0.2,0-0.4,0.1-0.6,0.3c-0.7,0.7-1.1,2.7-1.1,3.1
			c0,0.5,0.5,0.6,0.5,0.6C82.4,40.8,80.8,43.3,80.8,43.3z"/>
		<path class="st21" d="M82.5,40.1c0,0,0.8,0,1.2-0.1c0,0-0.6,0.5-1.3,0.5L82.5,40.1z"/>
		<path class="st21" d="M85.3,37.3c0,0-0.3,2-0.4,3.7c0,0.9,0,2.6,0,2.6s-1.3,0.2-2.3,0c0,0,1.7,0,1.6-1.2s0.5-4.7,0.9-5.3
			S85.3,37.3,85.3,37.3z"/>
		<path class="st30" d="M84.6,42.4c-0.2-0.4-1.3,0-1.5,0.2c-0.1,0,0,0.1,0,0.2c0,0,0,0-0.1,0c-0.1,0.1,0,0.2,0.1,0.1l0,0
			c0,0,0.1,0.1,0.1,0c0,0,0,0,0.1-0.1h0.1c0.2-0.1,0.3-0.2,0.5-0.2s0.4,0.1,0.5,0C84.6,42.6,84.7,42.5,84.6,42.4z"/>
		<path class="st22" d="M84.6,36.7c0,0.4,0.2,1,0.6,1.8c0.4,0.7,0.9,1.7,1.7,2.7c0.5,0.8,1.3-0.4,1-0.8c-0.3-0.5-1.5-2.5-1.5-2.5
			s-0.7-1.3-1.4-1.5c-0.1,0-0.1,0-0.2,0h-0.1C84.6,36.3,84.5,36.5,84.6,36.7z"/>
		<path class="st22" d="M87.8,40.7c-0.1-0.1-0.3-0.1-0.8,0.1c-0.4,0.2-2.5,1.4-2.5,1.4v0.5c0,0,2.4-0.8,2.8-1.1
			C87.7,41.2,88,41,87.8,40.7z"/>
		<path class="st21" d="M83.1,36.9c0.1,0.3,0.3,0.6,0.6,0.5c0.2-0.1,0.4-0.3,0.6-0.5c0.1-0.1,0.2-0.1,0.3-0.2
			c0.1-0.1,0.3-0.2,0.4-0.3c0,0,0,0,0.1,0c-0.1,0-0.1,0-0.2,0c-0.1-0.1-0.2-0.1-0.2-0.1s-0.2,0-1-0.1c-0.2,0-0.4,0.1-0.6,0.3
			C83,36.6,83,36.8,83.1,36.9z"/>
		<path class="st21" d="M84.9,37.8c0,0,0.3,0.9,1.8,3.1c-0.2,0.1-1.5,0.8-1.5,0.8s2.1-0.6,1.9-0.9C86.7,40.4,84.9,37.8,84.9,37.8z"
			/>
		<g>
			<g>
				
					<linearGradient id="SVGID_36_" gradientUnits="userSpaceOnUse" x1="74.7732" y1="32.85" x2="81.0732" y2="32.85" gradientTransform="matrix(1 0 0 -1 0 77)">
					<stop  offset="0" style="stop-color:#89E8F7"/>
					<stop  offset="1" style="stop-color:#00B2DB"/>
				</linearGradient>
				<polygon class="st38" points="74.8,44.3 81.1,44.3 81.1,44 74.8,44 				"/>
				
					<linearGradient id="SVGID_37_" gradientUnits="userSpaceOnUse" x1="81.0768" y1="33.1" x2="83.9255" y2="33.1" gradientTransform="matrix(1 0 0 -1 0 77)">
					<stop  offset="0" style="stop-color:#89E8F7"/>
					<stop  offset="1" style="stop-color:#00B2DB"/>
				</linearGradient>
				<polygon class="st39" points="81.1,44.3 83.9,43.8 83.9,43.5 81.1,44 				"/>
				
					<linearGradient id="SVGID_38_" gradientUnits="userSpaceOnUse" x1="74.7732" y1="33.35" x2="83.9255" y2="33.35" gradientTransform="matrix(1 0 0 -1 0 77)">
					<stop  offset="0" style="stop-color:#00B2DB"/>
					<stop  offset="1" style="stop-color:#89E8F7"/>
				</linearGradient>
				<polygon class="st40" points="83.9,43.5 76.8,43.3 74.8,44 81.1,44 				"/>
			</g>
			<g>
				
					<linearGradient id="SVGID_39_" gradientUnits="userSpaceOnUse" x1="74.1713" y1="35.05" x2="81.2293" y2="35.05" gradientTransform="matrix(1 0 0 -1 0 77)">
					<stop  offset="0" style="stop-color:#89E8F7"/>
					<stop  offset="1" style="stop-color:#00B2DB"/>
				</linearGradient>
				<path class="st41" d="M75,44h6.3l-0.8-3.9c0-0.1-0.1-0.2-0.2-0.2h-5.7c-0.2,0-0.4,0.2-0.3,0.5L75,44z"/>
				
					<linearGradient id="SVGID_40_" gradientUnits="userSpaceOnUse" x1="73.9947" y1="35.05" x2="81.0768" y2="35.05" gradientTransform="matrix(1 0 0 -1 0 77)">
					<stop  offset="0" style="stop-color:#00B2DB"/>
					<stop  offset="1" style="stop-color:#89E8F7"/>
				</linearGradient>
				<path class="st42" d="M74.8,44h6.3l-0.8-3.9c0-0.1-0.1-0.2-0.2-0.2h-5.8c-0.2,0-0.3,0.2-0.2,0.3L74.8,44z"/>
				<path class="st43" d="M74.8,44h4.9l-3.3-4.1h-2.1c-0.2,0-0.3,0.2-0.2,0.3L74.8,44z"/>
			</g>
		</g>
		<path class="st30" d="M83.4,34.8c0,0.5,0.1,1.1,0,1.4c0.2,0.7,1.3,0,1.3,0c0-0.1,0-0.3,0-0.5c0-0.4,0-0.7,0-0.8l0,0l0,0L83.4,34.8
			z"/>
		<path class="st37" d="M83.4,35c0,0.1,0,0.1,0,0.2c0,0.2,0,0.3,0,0.4c0,0.1,0,0.3,0,0.5c0.3,0.2,1-0.3,1.3-0.6
			c0-0.4,0.1-0.7,0.1-0.7L83.4,35z"/>
		<path class="st30" d="M85.2,32.1c0,0,0.1,1.9-0.3,2.6c-0.4,0.7-1.5,1.1-1.8,1.1c-0.7-0.1-1.1-1.8-1.1-3
			C82,31.2,83.5,30.5,85.2,32.1z"/>
		<path class="st44" d="M83.4,36.3c0.2,0.4,1,0.1,1.3,0c0.1-0.1,0.2,0.1,0.1,0.1C84.4,36.6,83.4,36.9,83.4,36.3
			C83.3,36.2,83.4,36.2,83.4,36.3z"/>
		<path class="st28" d="M84.9,32c-0.2,0.7,0,1.4,0,1.4c0.2-0.1,0.5-0.1,0.5-0.1s1.1-1.1,0.6-2.1l0,0c-0.2-0.4-0.5-0.6-0.8-0.8
			c-0.8-0.5-1.8-0.1-1.8-0.1c-1.8-0.5-2.6,1.2-2.2,1.7C81.8,32.8,84.9,32,84.9,32z"/>
		<path class="st28" d="M86,31.2c0,0,0.4,1.2,0.5,2.1c0.1,0.9,1.9,2.7,0.6,4.1c-0.4,0.4-1.9,0.7-2.6,0.2c-0.7-0.4-0.4-1.3,0-1.7
			s0.5-1.3,0.4-1.7c-0.3-1.4-0.1-2.1-0.1-2.1L86,31.2z"/>
		<g>
			<path class="st30" d="M84.8,33.4c0.1-0.2,0.6-0.5,0.7-0.2c0.1,0.4-0.4,1.4-0.8,0.9C84.6,33.9,84.7,33.6,84.8,33.4z"/>
			<path class="st37" d="M84.9,33.6c0,0,0.4-0.3,0.4-0.1c0,0.3-0.2,0.5-0.3,0.6c0,0,0.1-0.2,0.1-0.3C85.1,33.5,84.9,33.6,84.9,33.6z
				"/>
		</g>
		<path class="st45" d="M83,35.1L83,35.1c-0.1,0-0.2-0.1-0.3-0.2v-0.1h0.1C82.8,34.9,82.9,35,83,35.1C83,35,83,35,83,35.1
			c0.2-0.1,0.4-0.3,0.4-0.3h0.1c0,0,0,0,0,0.1C83.4,34.9,83.2,35.1,83,35.1z"/>
		<path class="st45" d="M82.6,33.4c0,0.1-0.1,0.2-0.2,0.2s-0.2-0.1-0.1-0.2c0-0.1,0.1-0.2,0.2-0.2S82.7,33.3,82.6,33.4z"/>
		<path class="st45" d="M83.8,33.5c0,0.1-0.1,0.2-0.2,0.2s-0.2-0.1-0.2-0.2c0-0.1,0.1-0.2,0.2-0.2C83.8,33.3,83.8,33.4,83.8,33.5z"
			/>
		<g>
			<path class="st45" d="M82.9,34.4c-0.1,0-0.1,0-0.2,0v-0.1v-0.1c0-0.1,0.1-0.2,0.2-0.4c0,0,0,0,0.1,0c0,0,0,0,0,0.1
				C82.9,34.1,82.9,34.3,82.9,34.4L82.9,34.4c0,0.1,0.2,0.1,0.2,0.1h0.1v0.1C83.1,34.4,83,34.4,82.9,34.4z"/>
		</g>
		<path class="st45" d="M84.2,33C84.2,33,84.1,33,84.2,33c-0.4-0.3-0.7-0.1-0.7-0.1h-0.1v-0.1C83.4,32.7,83.8,32.6,84.2,33
			C84.2,32.9,84.2,32.9,84.2,33L84.2,33z"/>
		<path class="st45" d="M82.1,32.9L82.1,32.9L82.1,32.9c0.3-0.4,0.7-0.3,0.7-0.3s0,0,0,0.1c0,0,0,0-0.1,0
			C82.7,32.8,82.4,32.7,82.1,32.9L82.1,32.9z"/>
	</g>
</g>
<g>
	<g>
		<path class="st23" d="M76.2,32.2h-2.8c-1.3,0-2.4-1.1-2.4-2.4l0,0c0-1.3,1.1-2.4,2.4-2.4h2.8c1.3,0,2.4,1.1,2.4,2.4l0,0
			C78.6,31.1,77.5,32.2,76.2,32.2z"/>
		<polygon class="st23" points="77.7,31.7 78.9,33.6 76.6,31.9 		"/>
	</g>
	<g>
		<g>
			<path class="st46" d="M76.4,28.6h-2.3c0,0-0.1,0-0.1-0.1c0,0,0-0.1,0.1-0.1h2.3C76.4,28.4,76.4,28.5,76.4,28.6
				C76.4,28.5,76.4,28.6,76.4,28.6z"/>
			<path class="st46" d="M73.7,28.6h-0.9c0,0-0.1,0-0.1-0.1c0,0,0-0.1,0.1-0.1h0.9C73.7,28.4,73.8,28.5,73.7,28.6
				C73.8,28.5,73.7,28.6,73.7,28.6z"/>
			<path class="st46" d="M76.4,29.4h-1.2c0,0-0.1,0-0.1-0.1c0,0,0-0.1,0.1-0.1h1.2C76.4,29.3,76.4,29.4,76.4,29.4L76.4,29.4z"/>
			<path class="st46" d="M74.8,29.4h-2c0,0-0.1,0-0.1-0.1c0,0,0-0.1,0.1-0.1h2C74.8,29.3,74.9,29.4,74.8,29.4
				C74.9,29.4,74.8,29.4,74.8,29.4z"/>
		</g>
		<g>
			<path class="st46" d="M76.7,30.3h-1.8c0,0-0.1,0-0.1-0.1c0,0,0-0.1,0.1-0.1h1.8C76.7,30.2,76.8,30.2,76.7,30.3
				C76.8,30.3,76.7,30.3,76.7,30.3z"/>
			<path class="st46" d="M74.6,30.3h-0.7c0,0-0.1,0-0.1-0.1c0,0,0-0.1,0.1-0.1h0.7C74.6,30.2,74.6,30.2,74.6,30.3L74.6,30.3z"/>
			<path class="st46" d="M76.7,31.1h-1c0,0-0.1,0-0.1-0.1c0,0,0-0.1,0.1-0.1h1C76.7,31,76.8,31.1,76.7,31.1
				C76.8,31.1,76.7,31.1,76.7,31.1z"/>
			<path class="st46" d="M75.5,31.1h-1.6c0,0-0.1,0-0.1-0.1c0,0,0-0.1,0.1-0.1h1.6C75.5,31,75.5,31.1,75.5,31.1L75.5,31.1z"/>
		</g>
		<g>
			
				<linearGradient id="SVGID_41_" gradientUnits="userSpaceOnUse" x1="77.1393" y1="46.3" x2="77.8266" y2="46.3" gradientTransform="matrix(1 0 0 -1 0 77)">
				<stop  offset="0" style="stop-color:#FFAB66"/>
				<stop  offset="1" style="stop-color:#E46077"/>
			</linearGradient>
			<path class="st47" d="M77.8,30.7L77.8,30.7c-0.1,0-0.1,0-0.2,0.1v0.1c0,0,0,0.1,0,0.2c0,0.1,0,0.2,0,0.3s0,0.1-0.1,0.1l-0.1,0.1
				c0,0-0.1,0-0.2,0h-0.1v-0.2c0.1,0,0.1,0,0.1,0l0,0c0,0,0,0,0-0.1c0,0,0-0.1,0-0.2c0-0.1,0-0.1,0-0.2c0,0,0-0.1,0.1-0.1l0.1-0.1
				l-0.1-0.1c0,0-0.1-0.1-0.1-0.2c0,0,0-0.2,0-0.3c0-0.1,0-0.1,0-0.1l0,0h-0.1v-0.2h0.1c0.1,0,0.2,0,0.2,0s0.1,0,0.1,0.1l0.1,0.1
				c0,0,0,0.1,0,0.2s0,0.2,0,0.2c0,0.1,0,0.1,0.1,0.1h0.1V30.7z"/>
		</g>
		<g>
			
				<linearGradient id="SVGID_42_" gradientUnits="userSpaceOnUse" x1="71.548" y1="47.9" x2="72.2353" y2="47.9" gradientTransform="matrix(1 0 0 -1 0 77)">
				<stop  offset="0" style="stop-color:#FFAB66"/>
				<stop  offset="1" style="stop-color:#E46077"/>
			</linearGradient>
			<path class="st48" d="M71.5,28.9C71.6,28.9,71.6,28.9,71.5,28.9l0.2-0.1c0,0,0-0.1,0-0.2s0-0.2,0-0.2s0-0.1,0.1-0.1l0.1-0.1
				c0,0,0.1,0,0.2,0h0.1v0.2c-0.1,0-0.1,0-0.1,0l0,0v0.1c0,0.2,0,0.3,0,0.3c0,0.1,0,0.1-0.1,0.2l-0.1,0.1c0,0,0.1,0,0.1,0.1
				c0,0,0,0.1,0.1,0.1c0,0,0,0.1,0,0.2s0,0.2,0,0.2v0.1l0,0h0.1V30h-0.1c-0.1,0-0.2,0-0.2,0c-0.1,0-0.1,0-0.1-0.1l-0.1-0.1
				c0-0.1,0-0.1,0-0.3c0-0.1,0-0.1,0-0.2v-0.1c0,0,0,0-0.1-0.1h-0.1V28.9z"/>
		</g>
	</g>
</g>
<g>
	<g>
		<path class="st14" d="M43.5,46h-15c-4,0-7.2-3.2-7.2-7.2v-15c0-5.1,4.1-9.2,9.2-9.2h11c5.1,0,9.2,4.1,9.2,9.2v15.1
			C50.7,42.8,47.5,46,43.5,46z"/>
		<path class="st24" d="M42.7,46h-15c-4,0-7.2-3.2-7.2-7.2v-15c0-5.1,4.1-9.2,9.2-9.2h11c5.1,0,9.2,4.1,9.2,9.2v15.1
			C49.9,42.8,46.7,46,42.7,46z"/>
		<path class="st23" d="M44.4,44.7H26.1c-2.1,0-3.9-1.7-3.9-3.9v-8.9c0-2.1,1.7-3.9,3.9-3.9h18.4c2.1,0,3.9,1.7,3.9,3.9v8.9
			C48.3,42.9,46.6,44.7,44.4,44.7z"/>
		<path class="st31" d="M49.9,17.8H20.6l0,0c0-1.7,1.4-3.1,3.1-3.1h23C48.5,14.6,49.9,16,49.9,17.8L49.9,17.8z"/>
		<g>
			<path class="st23" d="M25.7,16.2c0-0.3,0.2-0.5,0.5-0.5s0.5,0.2,0.5,0.5s-0.2,0.5-0.5,0.5C25.9,16.7,25.7,16.5,25.7,16.2z"/>
			<ellipse class="st23" cx="24.3" cy="16.2" rx="0.5" ry="0.5"/>
			<ellipse class="st23" cx="22.4" cy="16.2" rx="0.5" ry="0.5"/>
		</g>
		<polygon class="st23" points="47.6,15.8 47.8,15.6 48.2,15.9 48.5,15.6 48.8,15.8 48.4,16.2 48.8,16.5 48.5,16.8 48.2,16.4 
			47.8,16.8 47.6,16.5 47.9,16.2 		"/>
		<g>
			<g>
				<g>
					<path class="st49" d="M41.6,30.5h-9.8c-0.1,0-0.1,0-0.1-0.1s0-0.1,0.1-0.1h9.8C41.7,30.3,41.7,30.3,41.6,30.5
						C41.7,30.4,41.7,30.5,41.6,30.5z"/>
					<path class="st49" d="M30.1,30.5h-3.9c-0.1,0-0.1,0-0.1-0.1s0-0.1,0.1-0.1h3.9C30.2,30.3,30.2,30.3,30.1,30.5
						C30.2,30.4,30.2,30.5,30.1,30.5z"/>
					<path class="st49" d="M41.6,32h-5.2c-0.1,0-0.1,0-0.1-0.1s0-0.1,0.1-0.1h5.2C41.7,31.8,41.7,31.8,41.6,32
						C41.7,31.9,41.7,32,41.6,32z"/>
					<path class="st49" d="M34.9,32h-8.7c-0.1,0-0.1,0-0.1-0.1s0-0.1,0.1-0.1h8.7C35,31.8,35,31.8,34.9,32C35,31.9,35,32,34.9,32z"
						/>
				</g>
				<g>
					<path class="st49" d="M42.3,38h-8.7c-0.1,0-0.1,0-0.1-0.1s0-0.1,0.1-0.1h8.7C42.4,37.8,42.4,37.9,42.3,38
						C42.4,38,42.4,38,42.3,38z"/>
					<path class="st49" d="M32,38h-3.5c-0.1,0-0.1,0-0.1-0.1s0-0.1,0.1-0.1H32C32,37.8,32.1,37.9,32,38C32.1,38,32,38,32,38z"/>
					<path class="st49" d="M42.3,39.5h-4.7c-0.1,0-0.1,0-0.1-0.1s0-0.1,0.1-0.1h4.7C42.4,39.4,42.4,39.4,42.3,39.5
						C42.4,39.5,42.4,39.5,42.3,39.5z"/>
					<path class="st49" d="M36.3,39.5h-7.8c-0.1,0-0.1,0-0.1-0.1s0-0.1,0.1-0.1h7.8C36.3,39.4,36.4,39.4,36.3,39.5
						C36.4,39.5,36.3,39.5,36.3,39.5z"/>
				</g>
				<g>
					<path class="st49" d="M44.9,41h-8.7c-0.1,0-0.1,0-0.1-0.1s0-0.1,0.1-0.1h8.7C44.9,40.8,45,40.9,44.9,41C45,41,44.9,41,44.9,41z
						"/>
					<path class="st49" d="M34.5,41H31c-0.1,0-0.1,0-0.1-0.1s0-0.1,0.1-0.1h3.5C34.6,40.8,34.6,40.9,34.5,41
						C34.6,41,34.6,41,34.5,41z"/>
					<path class="st49" d="M44.9,42.5h-4.7c-0.1,0-0.1,0-0.1-0.1s0-0.1,0.1-0.1h4.7C44.9,42.3,45,42.4,44.9,42.5
						C45,42.5,44.9,42.5,44.9,42.5z"/>
					<path class="st49" d="M38.8,42.5H31c-0.1,0-0.1,0-0.1-0.1s0-0.1,0.1-0.1h7.8C38.9,42.3,38.9,42.4,38.8,42.5
						C38.9,42.5,38.9,42.5,38.8,42.5z"/>
				</g>
				<g>
					<path class="st49" d="M43.1,33.5h-7.8c-0.1,0-0.1,0-0.1-0.1s0-0.1,0.1-0.1h7.8C43.1,33.3,43.1,33.3,43.1,33.5
						C43.1,33.4,43.1,33.5,43.1,33.5z"/>
					<path class="st49" d="M33.8,33.5h-3.2c-0.1,0-0.1,0-0.1-0.1s0-0.1,0.1-0.1h3.2C33.8,33.3,33.9,33.3,33.8,33.5
						C33.9,33.4,33.8,33.5,33.8,33.5z"/>
					<path class="st49" d="M43.1,34.9h-4.2c-0.1,0-0.1,0-0.1-0.1s0-0.1,0.1-0.1h4.2C43.1,34.7,43.1,34.7,43.1,34.9
						C43.1,34.8,43.1,34.9,43.1,34.9z"/>
					<path class="st49" d="M37.6,34.9h-7c-0.1,0-0.1,0-0.1-0.1s0-0.1,0.1-0.1h7C37.7,34.7,37.7,34.7,37.6,34.9
						C37.7,34.8,37.7,34.9,37.6,34.9z"/>
				</g>
				<g>
					<path class="st31" d="M45.4,34.3c-0.1,0-0.1,0-0.2,0l-0.1,0.1c0,0-0.1,0.1-0.1,0.2c0,0.1,0,0.1,0,0.3s0,0.4,0,0.5
						s-0.1,0.2-0.1,0.2c-0.1,0.1-0.1,0.1-0.2,0.1c-0.1,0-0.2,0-0.3,0h-0.1v-0.4c0.1,0,0.2,0,0.2,0s0.1,0,0.1-0.1v-0.1
						c0-0.1,0-0.2,0-0.4c0-0.1,0-0.2,0-0.3s0.1-0.1,0.1-0.2c0,0,0.1-0.1,0.2-0.1c-0.1-0.1-0.1-0.1-0.2-0.2c-0.1-0.1-0.1-0.2-0.1-0.3
						s0-0.3,0-0.5c0-0.1,0-0.1,0-0.2c0,0,0-0.1-0.1-0.1c0,0-0.1,0-0.2,0v-0.4h0.1c0.2,0,0.3,0,0.4,0c0.1,0,0.2,0.1,0.2,0.1
						c0.1,0.1,0.1,0.1,0.1,0.2c0,0.1,0,0.2,0,0.4s0,0.3,0,0.4c0,0.1,0.1,0.2,0.1,0.2c0.1,0,0.1,0.1,0.2,0.1
						C45.4,33.8,45.4,34.3,45.4,34.3z"/>
				</g>
				<g>
					<path class="st31" d="M23.1,31.1c0.1,0,0.2,0,0.2-0.1c0.1,0,0.1-0.1,0.1-0.2s0-0.2,0-0.4c0-0.2,0-0.3,0-0.4s0.1-0.2,0.1-0.2
						c0.1-0.1,0.1-0.1,0.2-0.1s0.2,0,0.4,0h0.1v0.4c-0.1,0-0.2,0-0.2,0s-0.1,0-0.1,0.1c0,0,0,0.1,0,0.2c0,0.3,0,0.4,0,0.5
						s-0.1,0.2-0.1,0.3s-0.1,0.1-0.2,0.2c0.1,0,0.1,0.1,0.2,0.1c0,0,0.1,0.1,0.1,0.2c0,0.1,0,0.2,0,0.3c0,0.2,0,0.3,0,0.4
						c0,0.1,0,0.1,0,0.1s0,0.1,0.1,0.1c0,0,0.1,0,0.2,0V33h-0.1c-0.1,0-0.3,0-0.3,0c-0.1,0-0.2-0.1-0.2-0.1
						c-0.1-0.1-0.1-0.1-0.1-0.2c0-0.1,0-0.2,0-0.5c0-0.1,0-0.2,0-0.3s0-0.1-0.1-0.2l-0.1-0.1c0,0-0.1,0-0.2,0V31.1z"/>
				</g>
				<g>
					<path class="st31" d="M46.9,41.8c-0.1,0-0.1,0-0.2,0l-0.1,0.1c0,0-0.1,0.1-0.1,0.2c0,0.1,0,0.1,0,0.3s0,0.4,0,0.5
						s-0.1,0.2-0.1,0.2c-0.1,0.1-0.1,0.1-0.2,0.1c-0.1,0-0.2,0-0.3,0h-0.1v-0.4c0.1,0,0.2,0,0.2,0s0.1,0,0.1-0.1v-0.1
						c0-0.1,0-0.2,0-0.4c0-0.1,0-0.2,0-0.3s0.1-0.1,0.1-0.2c0,0,0.1-0.1,0.2-0.1c-0.1-0.1-0.1-0.1-0.2-0.2c-0.1-0.1-0.1-0.2-0.1-0.3
						s0-0.3,0-0.5c0-0.1,0-0.1,0-0.2c0,0,0-0.1-0.1-0.1c0,0-0.1,0-0.2,0V40h0.1c0.2,0,0.3,0,0.4,0c0.1,0,0.2,0.1,0.2,0.1
						c0.1,0.1,0.1,0.1,0.1,0.2c0,0.1,0,0.2,0,0.4s0,0.3,0,0.4c0,0.1,0.1,0.2,0.1,0.2c0.1,0,0.1,0.1,0.2,0.1
						C46.9,41.4,46.9,41.8,46.9,41.8z"/>
				</g>
				<g>
					<path class="st31" d="M26.3,38.5c0.1,0,0.2,0,0.2-0.1c0.1,0,0.1-0.1,0.1-0.2c0-0.1,0-0.2,0-0.4s0-0.3,0-0.4
						c0-0.1,0.1-0.2,0.1-0.2c0.1-0.1,0.1-0.1,0.2-0.1s0.2,0,0.4,0h0.1v0.4c-0.1,0-0.2,0-0.2,0s-0.1,0-0.1,0.1c0,0,0,0.1,0,0.2
						c0,0.3,0,0.4,0,0.5S27,38.5,27,38.6s-0.1,0.1-0.2,0.2c0.1,0,0.1,0.1,0.2,0.1c0,0,0.1,0.1,0.1,0.2c0,0.1,0,0.2,0,0.3
						c0,0.2,0,0.3,0,0.4c0,0.1,0,0.1,0,0.1s0,0.1,0.1,0.1c0,0,0.1,0,0.2,0v0.4h-0.1c-0.1,0-0.3,0-0.3,0c-0.1,0-0.2-0.1-0.2-0.1
						c-0.1-0.1-0.1-0.1-0.1-0.2c0-0.1,0-0.2,0-0.5c0-0.1,0-0.2,0-0.3s0-0.1-0.1-0.2L26.5,39c0,0-0.1,0-0.2,0V38.5z"/>
				</g>
			</g>
		</g>
	</g>
	<g>
		<g>
			<path class="st49" d="M23.9,26.3l13.5,0.2c0.6,0,1.3-0.7,1.3-1.3v-4.7c0-0.6-0.5-1.1-1.1-1.1H23.9c-0.6,0-1.5,0.5-1.5,1.1
				l0.4,4.7C22.9,25.8,23.3,26.3,23.9,26.3z"/>
			<path class="st23" d="M25.9,26.6h9c1.9,0,3.5-1.6,3.5-3.5l0,0c0-1.9-1.6-3.5-3.5-3.5h-9c-1.9,0-3.5,1.6-3.5,3.5l0,0
				C22.4,25,24,26.6,25.9,26.6z"/>
		</g>
		<rect x="29.5" y="20.6" class="st24" width="7.9" height="1.4"/>
		<g>
			<rect x="29.5" y="23" class="st49" width="1.5" height="0.2"/>
			<rect x="31.5" y="23" class="st49" width="5.9" height="0.2"/>
			<rect x="29.5" y="23.5" class="st49" width="3.9" height="0.2"/>
			<rect x="33.7" y="23.5" class="st49" width="1.5" height="0.2"/>
			<rect x="35.5" y="23.5" class="st49" width="1.8" height="0.2"/>
			<rect x="29.5" y="24" class="st49" width="4.7" height="0.2"/>
			<rect x="34.6" y="24" class="st49" width="2.8" height="0.2"/>
			<rect x="33.7" y="24.6" class="st49" width="3.7" height="0.2"/>
			<rect x="29.5" y="24.6" class="st49" width="0.9" height="0.2"/>
			<rect x="30.7" y="24.6" class="st49" width="2.6" height="0.2"/>
			<rect x="29.5" y="25.1" class="st49" width="1.5" height="0.2"/>
			<rect x="31.5" y="25.1" class="st49" width="5.9" height="0.2"/>
		</g>
	</g>
	<g>
		<g>
			<path class="st49" d="M41.9,26.3l5,0.2c0.6,0,1.3-0.7,1.3-1.3v-4.7c0-0.6-0.5-1.1-1.1-1.1h-5.2c-0.6,0-1.5,0.5-1.5,1.1l0.4,4.7
				C40.8,25.8,41.3,26.3,41.9,26.3z"/>
			<path class="st23" d="M43.8,26.6h0.4c1.9,0,3.5-1.6,3.5-3.5l0,0c0-1.9-1.6-3.5-3.5-3.5h-0.4c-1.9,0-3.5,1.6-3.5,3.5l0,0
				C40.4,25,41.9,26.6,43.8,26.6z"/>
		</g>
	</g>
	<g>
		<path class="st24" d="M46.6,21v4.1c0,0.2-0.2,0.4-0.4,0.4h-4.4c-0.2,0-0.4-0.2-0.4-0.4V21c0-0.2,0.2-0.4,0.4-0.4h4.4
			C46.5,20.7,46.6,20.9,46.6,21z"/>
		<path class="st14" d="M46.6,23.1v2c0,0.2-0.2,0.4-0.4,0.4h-4.4c-0.2,0-0.4-0.2-0.4-0.4v-0.6l0.8-0.9c0.1-0.1,0.2-0.1,0.2,0l1,1.1
			c0.1,0.1,0.2,0.1,0.2,0l2.1-2.3c0.1-0.1,0.2-0.1,0.3,0L46.6,23.1z"/>
		<path class="st14" d="M43.7,21.9c0-0.3-0.3-0.6-0.6-0.6s-0.6,0.3-0.6,0.6c0,0.3,0.3,0.6,0.6,0.6C43.4,22.6,43.7,22.3,43.7,21.9z"
			/>
	</g>
	<g>
		<path class="st24" d="M28.8,21v4.1c0,0.2-0.2,0.4-0.4,0.4H24c-0.2,0-0.4-0.2-0.4-0.4V21c0-0.2,0.2-0.4,0.4-0.4h4.4
			C28.7,20.6,28.8,20.8,28.8,21z"/>
		<path class="st14" d="M28.8,23.1v2c0,0.2-0.2,0.4-0.4,0.4H24c-0.2,0-0.4-0.2-0.4-0.4v-0.6l0.8-0.9c0.1-0.1,0.2-0.1,0.2,0l1,1.1
			c0.1,0.1,0.2,0.1,0.2,0l2.1-2.3c0.1-0.1,0.2-0.1,0.3,0L28.8,23.1z"/>
		<path class="st14" d="M25.8,21.9c0-0.3-0.3-0.6-0.6-0.6c-0.3,0-0.6,0.3-0.6,0.6c0,0.3,0.3,0.6,0.6,0.6
			C25.6,22.5,25.8,22.2,25.8,21.9z"/>
	</g>
</g>
<g>
	<g>
		<path class="st30" d="M23.7,30c-0.4,0-0.7,0.2-1,0.5c-0.3,0.2-0.6,0.4-0.8,0.7c-0.1,0,0.7,0.9,0.8,0.9c0.4-0.2,0.8-0.5,1-0.6
			c0.1,0,0.4,0.1,0.6,0c0.2-0.2,0.4-0.6,0.2-1C24.3,30.2,23.8,30,23.7,30z"/>
		<path class="st30" d="M25.5,30.1c0.1-0.1,0-0.3-0.1-0.3c-0.3,0.1-0.4,0.2-0.6,0.3c-0.2,0.1-0.4,0.2-0.7,0.2
			c-0.2,0-0.4-0.1-0.6-0.1c-0.1,0-0.1,0.1,0,0.2h0.1v0.1c0.4,0.2,0.8,0.3,1.2,0.1C25.1,30.4,25.4,30.2,25.5,30.1z"/>
		<path class="st30" d="M25.7,30.7c0.1-0.1,0-0.3,0-0.3c-0.3,0-0.4,0.1-0.6,0.2s-0.4,0.2-0.7,0.2c-0.2,0-0.4-0.1-0.6-0.1
			c-0.1,0-0.1,0.1,0,0.2h0.1V31c0.4,0.2,0.8,0.3,1.2,0.1C25.3,31,25.6,30.8,25.7,30.7z"/>
		<path class="st30" d="M25.4,31.2c0.1,0,0.2-0.1,0.2-0.2v-0.1c-0.3-0.1-0.5,0.1-0.7,0.2s-0.4,0.1-0.7,0C24,31,23.8,31,23.6,30.9
			c-0.1,0-0.2,0.1-0.1,0.2h0.1c-0.1,0-0.3,0.2-0.2,0.2c0.3,0.2,0.9,0.3,1.3,0.2C25,31.4,25.2,31.3,25.4,31.2z"/>
		<path class="st30" d="M25.8,30.4c0.1-0.1,0-0.3-0.1-0.3c-0.2,0-0.3,0.1-0.5,0.2s-0.4,0.2-0.7,0.2c-0.2,0-0.4-0.1-0.6-0.1
			c-0.1,0-0.1,0.1,0,0.2H24v0.1c0.4,0.2,0.8,0.3,1.2,0.1C25.3,30.7,25.6,30.5,25.8,30.4z"/>
		<path class="st30" d="M24.7,29.8c0,0,0-0.3-0.1-0.3c-0.3,0-0.6,0-0.9,0.1c-0.2,0.1-0.7,0.5-0.9,0.7c0,0.1,0.3,0,0.3,0
			s0,0.1,0.1,0.1c0.3,0.1,0.4-0.2,0.7-0.3C24.2,29.9,24.5,30,24.7,29.8z"/>
		<path class="st37" d="M24.4,30.4c0,0,0.3,0.5-0.2,0.9C24.4,30.9,24.4,30.4,24.4,30.4z"/>
		<path class="st37" d="M24,30.3c0,0,0,0.3-0.4,0.5c0,0,0.3-0.1,0.4-0.2C24.1,30.4,24,30.3,24,30.3z"/>
	</g>
	<path class="st22" d="M14.4,30.5c0,0,1.2,3.2,4.1,4.1c1.3,0.4,5-2.8,5-2.8l-0.9-1.6c0,0-3.2,1.8-3.4,1.8c-0.4-0.1-3.4-3.9-3.4-3.9
		S15.2,29.4,14.4,30.5z"/>
	<path class="st21" d="M16.1,29c0,0,1.2,4.3,2.5,4.7c0.9,0.3,4.8-1.9,4.8-1.9s-3.2,3-4.8,2.8C17,34.4,15.3,32,15.3,32L16.1,29z"/>
	<g>
		
			<linearGradient id="SVGID_43_" gradientUnits="userSpaceOnUse" x1="12.684" y1="23.5598" x2="14.9052" y2="23.5598" gradientTransform="matrix(1 0 0 -1 0 77)">
			<stop  offset="0" style="stop-color:#00B2DB"/>
			<stop  offset="1" style="stop-color:#89E8F7"/>
		</linearGradient>
		<path class="st50" d="M13.1,53c-0.2,0.1-0.4,0.9-0.4,0.9h2.2c0,0-0.5-0.2-1-0.4C13.3,53.2,13.3,52.9,13.1,53z"/>
		
			<linearGradient id="SVGID_44_" gradientUnits="userSpaceOnUse" x1="12.684" y1="23" x2="14.9052" y2="23" gradientTransform="matrix(1 0 0 -1 0 77)">
			<stop  offset="0" style="stop-color:#89E8F7"/>
			<stop  offset="1" style="stop-color:#00B2DB"/>
		</linearGradient>
		<polygon class="st51" points="12.7,54.1 14.9,54.1 14.9,53.9 12.7,53.9 		"/>
	</g>
	<g>
		
			<linearGradient id="SVGID_45_" gradientUnits="userSpaceOnUse" x1="18.714" y1="23.5598" x2="20.9351" y2="23.5598" gradientTransform="matrix(1 0 0 -1 0 77)">
			<stop  offset="0" style="stop-color:#00B2DB"/>
			<stop  offset="1" style="stop-color:#89E8F7"/>
		</linearGradient>
		<path class="st52" d="M19.1,53c-0.2,0.1-0.4,0.9-0.4,0.9h2.2c0,0-0.5-0.2-1-0.4C19.3,53.2,19.3,52.9,19.1,53z"/>
		
			<linearGradient id="SVGID_46_" gradientUnits="userSpaceOnUse" x1="18.714" y1="23" x2="20.9351" y2="23" gradientTransform="matrix(1 0 0 -1 0 77)">
			<stop  offset="0" style="stop-color:#89E8F7"/>
			<stop  offset="1" style="stop-color:#00B2DB"/>
		</linearGradient>
		<polygon class="st53" points="18.7,54.1 20.9,54.1 20.9,53.9 18.7,53.9 		"/>
	</g>
	<polygon class="st54" points="17,37.1 19.6,53.2 18.9,53.2 14,42.2 13.7,37.1 	"/>
	<polygon class="st55" points="14,42.2 18.9,53.2 19.1,53.2 14.9,40.4 	"/>
	<path class="st54" d="M11.1,37.1c0,0,0.3,9.6,1.7,16.2h0.8L15,37.1H11.1z"/>
	<path class="st55" d="M17.2,38.2c0,0-4.9-0.4-4.9,1.1s0.8,14.1,0.8,14.1h-0.2c0,0-2-11-1.7-16.2H17L17.2,38.2z"/>
	<path class="st22" d="M13.5,27.6c1.3,0,2.2,0.3,2.5,1c0.3,0.7,1.5,9.1,1.5,9.1s-4.3,0.5-6.7,0c0,0-0.7-6.7,0.1-8.6
		C11.5,27.6,12.6,27.6,13.5,27.6z"/>
	<polygon class="st55" points="13.7,39.8 14.9,40.2 16.3,39.5 15,40.9 	"/>
	<path class="st30" d="M15.2,26.1c0,0.1,0,0.1-0.1,0.2c0,0.2-0.1,0.3-0.1,0.5c0,0.1,0,0.3-0.1,0.4c0,0.4,0,0.7,0,0.7
		c-1.2,0.6-2.5-0.2-2.5-0.2c0.1-0.2,0.1-0.4,0.1-0.6c0.1-0.4,0.1-0.8,0.1-1l0,0l0,0H15.2z"/>
	<path class="st37" d="M15.2,26.1c0,0.1,0,0.1-0.1,0.2C15,26.5,15,26.6,15,26.8c0,0.1,0,0.3-0.1,0.4c-0.6,0.2-1.2,0.3-1.7,0.2
		c-0.3-0.1-0.5-0.2-0.7-0.3c0.1-0.4,0.1-0.8,0.1-1l0,0l0,0C12.6,26.1,15.2,26.1,15.2,26.1z"/>
	<path class="st23" d="M12.2,27.4c0,0,0.9,0.6,2.2,0.7c0,0-0.2,0.5-0.3,0.8C14.1,28.9,12.5,28.4,12.2,27.4z"/>
	<path class="st23" d="M14.9,27.9c0,0-0.1,0.2-0.5,0.2l0.6,0.5v-0.7C15,27.8,14.9,27.9,14.9,27.9z"/>
	<path class="st30" d="M12.3,25.3c0,0,0.3,0.9,0.7,1.2c0.5,0.3,2.1,0.3,2.4-0.1c0.3-0.4,0.2-3.4,0.1-3.7c-0.1-0.3-2.4-1.2-3.1-0.2
		C11.6,23.6,12.3,25.3,12.3,25.3z"/>
	<path class="st21" d="M11.9,31.7c0,0-0.3,0.7,0.3,1.6c0.8,1.1,2.5,4,5.3,4.3c0,0-4.3,0.5-6.7,0c0,0-0.4-4.8-0.3-6.4
		C10.6,30.6,11.9,31.7,11.9,31.7z"/>
	<g>
		
			<linearGradient id="SVGID_47_" gradientUnits="userSpaceOnUse" x1="6.4989" y1="40.8" x2="14.2872" y2="40.8" gradientTransform="matrix(1 0 0 -1 0 77)">
			<stop  offset="0" style="stop-color:#00B2DB"/>
			<stop  offset="1" style="stop-color:#89E8F7"/>
		</linearGradient>
		<path class="st56" d="M6.6,35.3l5.8-2.4c0.1,0,0.1,0,0.2,0l0,0l0.2,0.1l-0.1,0.1l1.5,3.6c0,0.1,0,0.2-0.1,0.3l-5.6,2.3l-0.1,0.2
			l-0.2-0.1l0,0c-0.1,0-0.1-0.1-0.1-0.1l-1.5-3.8C6.5,35.5,6.5,35.4,6.6,35.3z"/>
		
			<linearGradient id="SVGID_48_" gradientUnits="userSpaceOnUse" x1="6.7431" y1="40.6707" x2="14.5259" y2="40.6707" gradientTransform="matrix(1 0 0 -1 0 77)">
			<stop  offset="0" style="stop-color:#89E8F7"/>
			<stop  offset="1" style="stop-color:#00B2DB"/>
		</linearGradient>
		<path class="st57" d="M8.6,39.6l5.8-2.4c0.1,0,0.2-0.2,0.1-0.3L13,33.2c0-0.1-0.2-0.2-0.3-0.1l-5.8,2.4c-0.1,0-0.2,0.2-0.1,0.3
			l1.5,3.8C8.3,39.6,8.5,39.6,8.6,39.6z"/>
		<path class="st58" d="M8.6,39.6l5.8-2.4l-5.5-2.6l-2,0.8c-0.1,0-0.2,0.2-0.1,0.3l1.5,3.8C8.3,39.6,8.5,39.6,8.6,39.6z"/>
	</g>
	<g>
		<path class="st30" d="M11.7,37.8L11.7,37.8c-0.2-0.5-0.8-0.8-1.2-0.6c-0.3,0.1-0.4,0.5-0.4,0.8s0,0.7,0.3,0.9
			c0.1,0.1,0.2,0,0.3-0.1c0.1,0.1,0.1,0.1,0.2,0.1c0.1,0,0.2-0.1,0.2-0.1c0.1,0.1,0.2,0.1,0.3,0.1s0.1-0.1,0.1-0.1
			c0.1,0.1,0.2,0.1,0.3,0C12.2,38.5,11.9,38,11.7,37.8z"/>
		<path class="st30" d="M11.9,37.2c-0.2-0.1-0.5,0-0.8,0l0,0c-0.1,0-0.3,0.2-0.1,0.3c0.1,0.1,0.3,0.3,0.5,0.3c0.1,0,0.2-0.1,0.3-0.1
			s0.3,0.2,0.3,0.4c0.1,0.2,0.5,0,0.4-0.2C12.4,37.5,12.2,37.2,11.9,37.2z"/>
		<polygon class="st30" points="11.2,37.4 10.6,36.3 9.6,36.9 10.3,37.9 		"/>
	</g>
	<path class="st22" d="M11.6,28c0,0-3.9,2-4.7,4.9c-0.3,1.4,2.7,4.7,2.7,4.7l1.5-1c0,0-1.8-2.6-1.8-2.8c0-0.4,2-1.4,2.5-2.1
		C12,30.7,12.4,29.1,11.6,28z"/>
	<path class="st21" d="M11.9,31.7c0,0-3.3,1-3,2s2.3,2.9,2.3,2.9s-1.9-2.5-1.8-2.8C9.4,33.5,11.5,32.4,11.9,31.7z"/>
	<path class="st28" d="M15.9,21.5c0.2-0.6-0.1-1.3-0.9-1.2c-0.1,0-0.3,0.1-0.4,0.1c-0.1,0-0.2-0.1-0.4-0.1s-0.4,0.1-0.5,0.2
		c-0.5-0.4-1.5-0.2-1.6,0.5c-0.2-0.1-0.5,0-0.7,0.2s-0.2,0.4-0.1,0.6C11.1,21.9,11,22,11,22.2c0,0.1,0,0.3,0.1,0.4
		c-0.3,0.1-0.5,0.3-0.5,0.7c0,0.2,0.1,0.5,0.2,0.7c-0.1,0.2-0.1,0.4,0.1,0.6c0.1,0.2,0.3,0.3,0.5,0.3c0,0.2,0.1,0.5,0.2,0.8
		c0.2,0.3,0.9,0.5,1.1,0.5c-0.3-0.6-0.2-2.3-0.4-3.1c0.8-0.1,1.5-0.2,2.4-0.5c0.5,0.2,1.1,0.3,1.5,0C16.6,22.2,16.3,21.7,15.9,21.5z
		"/>
	<path class="st29" d="M11.7,22.9c-0.4-0.1-0.2-0.6,0-0.9c-0.2,0-0.3,0-0.5-0.1c-0.1,0-0.2,0.1-0.2,0.3c0,0.1,0,0.3,0.1,0.4
		c-0.3,0.1-0.5,0.3-0.5,0.7c0,0.2,0.1,0.5,0.2,0.7c-0.1,0.2-0.1,0.4,0.1,0.6c0.1,0.2,0.3,0.3,0.5,0.3c0,0.2,0.1,0.5,0.2,0.8
		c0.2,0.3,0.9,0.5,1.1,0.5c-0.3-0.6-0.2-1.6-0.3-2.5C12,23.5,11.6,23.3,11.7,22.9z"/>
	<g>
		<g>
			<path class="st45" d="M15.3,24.6c-0.3,0-0.6-0.3-0.7-0.6c0-0.4,0.3-0.5,0.6-0.5s0.6,0,0.7,0.4C15.9,24.2,15.6,24.5,15.3,24.6z
				 M15.2,23.5c-0.3,0-0.5,0.1-0.5,0.4s0.3,0.6,0.6,0.5c0.3,0,0.5-0.3,0.5-0.6C15.7,23.5,15.5,23.5,15.2,23.5z"/>
		</g>
		<g>
			<path class="st45" d="M13.8,24.7c-0.4,0-0.7-0.2-0.7-0.6s0.3-0.5,0.6-0.5s0.7,0,0.7,0.4C14.5,24.3,14.2,24.6,13.8,24.7z
				 M13.7,23.6c-0.4,0-0.6,0.1-0.6,0.4s0.3,0.6,0.6,0.5c0.3,0,0.6-0.3,0.5-0.6C14.3,23.7,14.1,23.6,13.7,23.6z"/>
		</g>
		<path class="st45" d="M14.4,23.9L14.4,23.9c0-0.1,0.2-0.1,0.3-0.1v0.1C14.6,23.8,14.4,23.9,14.4,23.9z"/>
		<path class="st45" d="M11.8,25.3c0,0-0.3-0.4-0.1-0.5c0.1-0.2,1.3-0.6,1.4-0.6v0.1c-0.6,0.2-1.3,0.5-1.4,0.6
			C11.6,24.9,11.8,25.1,11.8,25.3L11.8,25.3z"/>
	</g>
	<g>
		<path class="st30" d="M12.5,24.3c-0.2-0.2-0.8-0.3-0.9-0.1c-0.1,0.4,0.4,1.2,1,0.9C12.8,25,12.6,24.5,12.5,24.3z"/>
		<path class="st37" d="M12.3,24.6c0,0-0.5-0.3-0.5-0.2c-0.1,0.3,0.3,0.5,0.4,0.5c0,0-0.2-0.2-0.2-0.3
			C12.1,24.5,12.3,24.6,12.3,24.6z"/>
	</g>
	<path class="st45" d="M14.6,25.8c-0.2,0-0.4-0.2-0.4-0.2v-0.1h0.1c0,0,0.2,0.2,0.4,0.1c0.2,0,0.3-0.1,0.4-0.3c0,0,0,0,0.1,0
		c0,0,0,0,0,0.1C15,25.7,14.8,25.8,14.6,25.8L14.6,25.8z"/>
	<path class="st45" d="M14.9,24c0,0.1,0.1,0.2,0.2,0.2c0.1,0,0.2-0.1,0.1-0.3c0-0.1-0.1-0.2-0.2-0.2C14.9,23.8,14.9,23.9,14.9,24z"
		/>
	<path class="st45" d="M13.6,24.2c0,0.1,0.1,0.2,0.2,0.2c0.1,0,0.2-0.1,0.2-0.3c0-0.1-0.1-0.2-0.3-0.2C13.7,23.9,13.6,24,13.6,24.2z
		"/>
	<g>
		<path class="st45" d="M14.6,25c-0.1,0-0.1,0-0.2,0c0,0,0,0,0-0.1c0,0,0,0,0.1,0h0.3v-0.1c0-0.1-0.1-0.2-0.2-0.5v-0.1h0.1
			c0.1,0.2,0.2,0.4,0.2,0.5c0,0,0,0.1,0.1,0.1v0.1C14.8,25,14.7,25,14.6,25z"/>
	</g>
	<path class="st45" d="M13.2,23.7C13.2,23.7,13.1,23.7,13.2,23.7c-0.1-0.1-0.1-0.1-0.1-0.2c0.4-0.4,0.9-0.2,0.9-0.2
		c0.1,0,0.1,0.1,0.1,0.1c0,0.1-0.1,0.1-0.1,0.1C13.9,23.5,13.6,23.4,13.2,23.7L13.2,23.7z"/>
	<path class="st45" d="M15.4,23.5C15.4,23.5,15.4,23.4,15.4,23.5c-0.3-0.3-0.7-0.1-0.7-0.1c-0.1,0-0.1,0-0.1-0.1s0-0.1,0.1-0.1
		c0,0,0.5-0.2,0.8,0.1C15.5,23.3,15.5,23.4,15.4,23.5C15.5,23.4,15.4,23.5,15.4,23.5z"/>
</g>
<g>
	<g>
		<rect x="63.2" y="43" class="st31" width="0.9" height="10.2"/>
		<path class="st32" d="M63.7,48.7L63.7,48.7c-0.5,0-0.8-0.4-0.8-0.8V47c0-0.5,0.4-0.8,0.8-0.8l0,0c0.5,0,0.8,0.4,0.8,0.8v0.9
			C64.5,48.3,64.1,48.7,63.7,48.7z"/>
		<path class="st31" d="M63.5,39.3h6.4l-2,8.2h-6.5l1.3-7.4C62.8,39.6,63.3,39.3,63.5,39.3z"/>
		<path class="st31" d="M65.7,47.7c0,0-6.7,0.5-7.5-0.2c-0.2-0.2-0.3-1.2,0.5-1.2h6.5L65.7,47.7z"/>
		<path class="st32" d="M70,39.3c-0.5-0.1-0.7,0.2-0.8,0.4l-1.4,6.6h-3.6c-0.6,0-1.1,0.8-0.6,1.2c0.7,0.5,3.8,0.1,4.6-0.1
			c1.1-0.3,2.2-7.2,2.2-7.2C70.5,39.7,70.3,39.4,70,39.3z"/>
		<path class="st31" d="M66.2,53.5h-5.1l0,0c0-0.3,0.3-0.6,0.6-0.6h4C66,52.9,66.2,53.2,66.2,53.5L66.2,53.5z"/>
		<path class="st32" d="M62.2,53.8c0,0.2-0.2,0.4-0.4,0.4s-0.4-0.2-0.4-0.4s0.2-0.4,0.4-0.4C62,53.3,62.2,53.5,62.2,53.8z"/>
		<path class="st31" d="M62,53.8c0,0.2-0.1,0.3-0.3,0.3s-0.3-0.1-0.3-0.3s0.1-0.3,0.3-0.3S62,53.6,62,53.8z"/>
		<path class="st32" d="M64.1,53.8c0,0.2-0.2,0.4-0.4,0.4s-0.4-0.2-0.4-0.4s0.2-0.4,0.4-0.4C63.9,53.3,64.1,53.5,64.1,53.8z"/>
		<path class="st31" d="M63.9,53.8c0,0.2-0.1,0.3-0.3,0.3s-0.3-0.1-0.3-0.3s0.1-0.3,0.3-0.3C63.8,53.5,63.9,53.6,63.9,53.8z"/>
		<path class="st32" d="M66,53.8c0,0.2-0.2,0.4-0.4,0.4c-0.2,0-0.4-0.2-0.4-0.4s0.2-0.4,0.4-0.4C65.8,53.3,66,53.5,66,53.8z"/>
		<path class="st31" d="M65.8,53.8c0,0.2-0.1,0.3-0.3,0.3c-0.2,0-0.3-0.1-0.3-0.3s0.1-0.3,0.3-0.3C65.7,53.5,65.8,53.6,65.8,53.8z"
			/>
	</g>
	<g>
		<g>
			<path class="st30" d="M53.2,41.1c0.3,0,0.7,0.1,0.9,0.3c0.1,0.1,0.2,0.1,0.2,0.2c0,0,0,0.1,0,0.2c-0.3,0.2-0.6,0.2-0.9,0
				c-0.3-0.2-0.5,0-0.8,0.1c-0.1,0-0.2,0.1-0.3,0v-0.1C52.3,41.4,53,41.1,53.2,41.1z"/>
			<path class="st30" d="M52.9,41.1c0.3,0,0.7,0.1,0.9,0.2c0.1,0,0.4-0.1,0.4,0c0,0,0,0.3,0,0.4c-0.3,0.2-0.8,0.1-1.1,0
				s-0.5,0-0.8,0.1c-0.1,0-0.2,0.1-0.3,0c0,0,0,0-0.1-0.1C52,41.4,52.7,41.1,52.9,41.1z"/>
			<path class="st30" d="M52.8,41c0.3,0,0.7,0.1,0.9,0.2c0.1,0,0.2,0.1,0.2,0.2c0,0,0.1,0.1,0,0.1c-0.3,0.2-0.6,0.2-0.9,0
				c-0.3-0.1-0.5,0-0.8,0.1c-0.1,0-0.2,0.1-0.3,0c0,0,0,0-0.1-0.1C51.9,41.3,52.5,41,52.8,41z"/>
			<path class="st30" d="M52.1,41.3L52.1,41.3L52.1,41.3c0.1-0.1,0.2-0.2,0.4-0.3s0.5-0.2,0.8-0.2c0.7,0.1,1.3,0.1,1.3,0.1l-0.5,0.4
				c0,0.3-0.6,0.2-0.9,0.1c-0.3-0.1-0.5,0-0.8,0.1c-0.1,0-0.2,0.1-0.3,0C52.1,41.5,52.1,41.5,52.1,41.3
				C52.1,41.3,52.1,41.3,52.1,41.3z"/>
		</g>
		<g>
			<path class="st23" d="M62.1,53.2c0.2,0.1,0.4,0.9,0.4,0.9h-2.2c0,0,0.5-0.2,1-0.4C61.9,53.3,61.9,53.1,62.1,53.2z"/>
			<rect x="60.3" y="54" class="st49" width="2.2" height="0.2"/>
		</g>
		<g>
			<path class="st23" d="M57.8,53.2c0.2,0.1,0.4,0.9,0.4,0.9H56c0,0,0.5-0.2,1-0.4C57.6,53.3,57.6,53.1,57.8,53.2z"/>
			<rect x="56" y="54" class="st49" width="2.2" height="0.2"/>
		</g>
		<path class="st46" d="M54.3,41.9L54,40.8c0,0,2.1-0.7,3.7-1.2c0.7-0.2,1.3-0.6,1.5-0.6c0.6,0,1.5,1.7,0.2,2
			C57.8,41.5,54.3,41.9,54.3,41.9z"/>
		<path class="st46" d="M61.7,36.7c0,0.1-0.1,0.2-0.1,0.3c-0.1,0.2-0.1,0.4-0.2,0.7c-0.6,1.6-1.4,3-2.1,3.1c-0.1,0-1.5-0.1-1.7-0.4
			c-0.1-0.3,0.7-1.7,1-2.4c0.2-0.3,0.4-0.9,0.8-1.4c0.1-0.2,0.3-0.5,0.4-0.7c0.7-1,1.4-2,1.9-2C62,33.8,62,35.7,61.7,36.7z"/>
		<path class="st31" d="M61.7,36.7c0,0.1-0.1,0.2-0.1,0.3c-0.1,0.2-0.1,0.5-0.2,0.7c-0.5,1.5-0.9,2.8-1.5,3.1
			c-0.6,0.4-1.4,0.5-2.6,0.6c1.8-0.7,1.9-0.9,2.8-2.5c0.3-0.4,0.4-1,0.4-1.6c0-0.3,0.1-0.6,0.1-0.9c0.1-0.7,0.1-1.4,0.4-1.9
			c0.1-0.2,0.2-0.4,0.4-0.6h0.1h0.1C61.8,34.5,62,35.7,61.7,36.7z"/>
		<path class="st54" d="M55.6,44.9c-0.3,0.8,1.8,8.4,1.8,8.4H58l-0.3-6.6c0,0,3.6-0.1,4-0.8s1.5-2.7,1.5-2.7c-0.2,0-0.6-1.1-0.6-1.1
			C59.6,42.2,55.9,44.2,55.6,44.9z"/>
		<path class="st55" d="M57.7,46.7l0.3,6.6h-0.3c0,0-0.7-7.4-0.5-8.1c0.5-1.2,4.1-2,4.1-2l-1.7,3.3C59.7,46.5,57.9,46.8,57.7,46.7z"
			/>
		<path class="st54" d="M57.8,45.5c-0.3,0.7,4,7.9,4,7.9h0.6l-2-6.7c0,0,4.8-0.3,5.2-1s0.7-2.6,0.7-2.6c-0.2,0-2.1-0.9-2.1-0.9
			C61.2,42.8,58,44.9,57.8,45.5z"/>
		<path class="st30" d="M61.6,32.2c0,0.1,0,0.1,0.1,0.2c0,0.2,0.1,0.3,0.1,0.5c0,0.1,0,0.3,0.1,0.4c0,0.4,0,0.7,0,0.7
			c1.2,0.6,2.5-0.2,2.5-0.2c-0.1-0.2-0.1-0.4-0.1-0.6c-0.1-0.4-0.1-0.8-0.1-1l0,0l0,0C64.2,32.2,61.6,32.2,61.6,32.2z"/>
		<path class="st55" d="M66.1,43.3c0,0,0.3,2.3-1,2.6c-1.6,0.5-4.8,0.7-4.8,0.7l2,6.7c0,0-2.3-6.6-2.6-7c0,0,0.3,0.2,0.4,0.1
			c0.1-0.1-0.2-0.7-0.2-0.7s2.9,0.3,4-0.1c1.1-0.4,0.7-1.7,0.5-1.9s-2.6-0.6-3.1-1.4L66.1,43.3z"/>
		<path class="st55" d="M60.6,37.2c0-0.3,0-0.4,0.1-0.7c0.2,0.1,0.4,0.2,0.7,0.4c0.1,0.1,0.2,0.1,0.3,0.2l0,0
			c0.2,0.1,0.3,0.3,0.4,0.5C62,37.7,60.8,37.3,60.6,37.2z"/>
		<path class="st37" d="M61.6,32.2c0,0.1,0,0.1,0.1,0.2c0.1,0.2,0.1,0.3,0.1,0.5c0,0.1,0,0.3,0.1,0.4c0.6,0.2,1.2,0.3,1.7,0.2
			c0.3-0.1,0.5-0.2,0.7-0.3c-0.1-0.4-0.1-0.8-0.1-1l0,0l0,0C64.2,32.2,61.6,32.2,61.6,32.2z"/>
		<path class="st46" d="M64.3,33.4c0,0,1.1,0.3,1.7,0.7c0,0,0.3,7.5,0.5,9.5c0,0-4.8-0.4-5.7-1.5c0,0,0-2.8,0-4.5
			c0-1.8,0.2-3.3,0.9-3.8C61.7,33.8,62.7,34.5,64.3,33.4z"/>
		<path class="st31" d="M66.5,38.2c0,0,0.2,4.3-0.1,5.4c0,0-1.9-0.3-3.9-0.6c0,0-1-1.6-1.6-2.4c1.6-0.9,3.1-1.3,3.1-2.4
			c0-2.6,1-3.5,1-3.5S66.2,37.5,66.5,38.2z"/>
		<path class="st23" d="M64.4,33.3c0,0-0.9,0.6-2.2,0.7c0,0,0.2,0.5,0.3,0.8C62.4,34.7,64.1,34.3,64.4,33.3z"/>
		<path class="st23" d="M61.7,33.7c0,0,0.1,0.2,0.5,0.2l-0.6,0.5L61.7,33.7C61.6,33.7,61.7,33.7,61.7,33.7z"/>
		<path class="st30" d="M64.3,31.7c0,0-0.4,1-0.9,1.3s-1.9,0.4-2.3-0.3c-0.6-1-0.1-3.4,0-3.7c0.1-0.3,2.4-1.2,3.1-0.2
			C65,30,64.3,31.7,64.3,31.7z"/>
		<path class="st59" d="M65.6,28.7c-0.1,0-0.3,0-0.4,0.1c0.2,0.2,0.3,0.6,0.2,1c-0.3,1.6-1.1,1.9-1.3,1.8c-0.7-0.2-0.8-1.5-0.4-2.5
			c0,0-0.1,0-0.3,0c-0.3,0-0.6-0.1-1,0l0,0c-0.1,0-0.1,0-0.2,0l0,0c-0.1,0-0.2,0-0.4,0.1c-0.3,0.1-1.2,0.2-1.5,0c0,0-0.1,0-0.1-0.1
			C60.1,29,60,29,59.9,28.9c-0.2-0.3-0.2-0.7-0.1-1.1c0-0.1,0.3-0.1,0.2,0.1c0,0.1-0.1,0.3,0,0.5c0-0.1,0.1-0.2,0.1-0.3
			c0-0.1,0.1-0.1,0.1-0.2c0.6-0.6,1.9-0.5,3-0.4c0.8,0.1,1.3,0.8,1.5,1.2c0.1-0.2,0-0.4,0-0.7c0-0.1,0.2-0.2,0.2-0.1
			c0.1,0.2,0.1,0.5,0,0.7c0.1-0.1,0.3-0.1,0.5,0C65.8,28.5,65.7,28.8,65.6,28.7z"/>
		<g>
			<path class="st30" d="M64.3,31c0.2-0.2,0.8-0.3,0.9-0.1c0.1,0.4-0.4,1.2-1,0.9C64,31.7,64.1,31.1,64.3,31z"/>
			<path class="st37" d="M64.4,31.2c0,0,0.5-0.3,0.5-0.2c0.1,0.3-0.3,0.5-0.4,0.5c0,0,0.2-0.2,0.2-0.3
				C64.6,31.2,64.4,31.2,64.4,31.2z"/>
		</g>
		<path class="st45" d="M63.8,29.1c0,0-0.1,0-0.3,0c-0.3,0-0.7-0.1-1,0l0,0c-0.1,0-0.1,0-0.2,0l0,0l0,0c-0.1,0-0.2,0-0.4,0.1
			c-0.3,0.1-1.1,0.2-1.4,0.1c-0.1-0.1-0.4-0.3-0.5-0.4c-0.2-0.3-0.2-0.7-0.1-1.1c0-0.1,0.3-0.1,0.2,0.1c0,0.1-0.1,0.3,0,0.5
			c0-0.1,0.1-0.2,0.1-0.3C60,29,60.6,29.3,61,29.2C62.3,28.6,63.2,28.6,63.8,29.1z"/>
		<g>
			<path class="st30" d="M59.8,41c0.3,0,0.7,0.1,0.9,0.3c0.1,0.1,0.2,0.1,0.2,0.2c0,0,0,0.1,0,0.2c-0.3,0.2-0.6,0.2-0.9,0
				c-0.3-0.2-0.5,0-0.8,0.1c-0.1,0-0.2,0.1-0.3,0v-0.1C58.9,41.2,59.5,40.9,59.8,41z"/>
			<path class="st30" d="M59.5,41c0.3,0,0.7,0.1,0.9,0.2c0.1,0,0.4-0.1,0.4,0c0,0,0,0.3,0,0.4c-0.3,0.2-0.8,0.1-1.1,0
				s-0.5,0-0.8,0.1c-0.1,0-0.2,0.1-0.3,0c0,0,0,0-0.1-0.1C58.6,41.2,59.2,41,59.5,41z"/>
			<path class="st30" d="M59.4,40.9c0.3,0,0.7,0.1,0.9,0.2c0.1,0,0.2,0.1,0.2,0.2c0,0,0.1,0.1,0,0.1c-0.3,0.2-0.6,0.2-0.9,0
				c-0.3-0.1-0.5,0-0.8,0.1c-0.1,0-0.2,0.1-0.3,0c0,0,0,0-0.1-0.1C58.5,41.1,59.1,40.8,59.4,40.9z"/>
			<path class="st30" d="M58.7,41.1L58.7,41.1L58.7,41.1c0.1-0.1,0.2-0.2,0.4-0.3s0.5-0.2,0.8-0.2c0.7,0.1,1.3,0.1,1.3,0.1l-0.5,0.4
				c0,0.3-0.6,0.2-0.9,0.1c-0.3-0.1-0.5,0-0.8,0.1c-0.1,0-0.2,0.1-0.3,0C58.7,41.3,58.7,41.3,58.7,41.1
				C58.6,41.2,58.6,41.2,58.7,41.1z"/>
		</g>
		<path class="st46" d="M67.2,40.7c0,0.1,0,0.1,0,0.2l0,0V41c-0.1,0.2-0.2,0.4-0.4,0.4c-0.4,0.2-0.9,0.1-1.4-0.2
			c-0.1,0-0.1-0.1-0.2-0.1c-0.6-0.4-0.2-0.9-0.3-1c0-0.1,0-0.2-0.1-0.5c-0.1-1.1-0.3-3.4-0.3-3.4s0.1-1.2,1.1-2.3l0,0
			C67,34.5,67.7,38.1,67.2,40.7z"/>
		<path class="st46" d="M67.2,40.7c0,0.1,0,0.2-0.1,0.3v0.1c-0.1,0.2-0.2,0.3-0.4,0.4c-0.1,0-0.1,0.1-0.2,0.1
			c-1.6,0.4-4.6,0.3-5.4,0.2c-0.1,0-0.2,0-0.2,0l-0.2-1.1c0,0,2.5-0.7,4.1-1c0.6-0.1,1.2-0.2,1.3-0.2c0.2,0,0.4,0.1,0.5,0.1
			c0.3,0.1,0.4,0.4,0.5,0.7C67.2,40.3,67.2,40.5,67.2,40.7z"/>
		<path class="st54" d="M66.7,38.1c-0.5,0.2-1.3,0.3-2.1,0.1v-0.4c0,0,1.1,0.1,2-0.2C66.6,37.8,66.7,38,66.7,38.1z"/>
		<path class="st31" d="M67.3,37.9c0,0-0.2,0.1-0.6,0.3c0,0.5,0,1-0.1,1.4c0,0.2-0.1,0.5-0.2,0.7c-0.2,0.5-0.6,0.8-1.1,1
			c-1.2,0.5-3,0.4-4.3,0.5c0.8,0,3.9,0.2,5.4-0.2c0.1,0,0.1,0,0.2-0.1c0.2-0.1,0.3-0.2,0.4-0.4c0,0,0,0,0-0.1s0-0.2,0.1-0.3
			C67.3,39.8,67.4,38.8,67.3,37.9z M66.6,37.6c0.2-0.1,0.4-0.2,0.6-0.3c-0.2-1.6-0.8-3.1-1.6-3.4l0,0c0,0-0.1,0.1,0,0.2
			C66,35.1,66.4,36.4,66.6,37.6z"/>
		<path class="st55" d="M67.3,37.9c0,0-0.2,0.1-0.6,0.3c0-0.2,0-0.3-0.1-0.5c0.2-0.1,0.4-0.2,0.6-0.3L67.3,37.9
			C67.3,37.8,67.3,37.9,67.3,37.9z"/>
		<path class="st54" d="M60.6,36.5c0,0.3,0,0.4-0.1,0.7c-0.4-0.2-0.8-0.5-1.1-0.8c0.1-0.2,0.2-0.3,0.3-0.5c0.1,0.1,0.2,0.2,0.3,0.2
			C60.3,36.3,60.4,36.4,60.6,36.5z"/>
		<path class="st45" d="M61.9,32.3C61.9,32.3,61.8,32.3,61.9,32.3c-0.2,0-0.4-0.1-0.5-0.3v-0.1h0.1C61.6,32.1,61.8,32.2,61.9,32.3
			c0.2-0.1,0.4-0.2,0.4-0.2h0.1v0.1C62.3,32.2,62.1,32.3,61.9,32.3z"/>
		<path class="st45" d="M61.6,30.5c0,0.1-0.1,0.2-0.2,0.2c-0.1,0-0.2-0.1-0.1-0.3c0-0.1,0.1-0.2,0.2-0.2
			C61.5,30.2,61.6,30.4,61.6,30.5z"/>
		<path class="st45" d="M62.8,30.6c0,0.1-0.1,0.2-0.2,0.2c-0.1,0-0.2-0.1-0.2-0.3c0-0.1,0.1-0.2,0.3-0.2
			C62.8,30.4,62.9,30.5,62.8,30.6z"/>
		<g>
			<path class="st45" d="M61.9,31.5c-0.1,0-0.2,0-0.2-0.1v-0.1c0-0.1,0.1-0.3,0.3-0.6c0,0,0,0,0.1,0c0,0,0,0,0,0.1
				c-0.2,0.3-0.3,0.5-0.3,0.5c0.1,0.1,0.3,0,0.3,0h0.1v0.1C62,31.5,61.9,31.5,61.9,31.5z"/>
		</g>
		<path class="st45" d="M63.3,30.2C63.2,30.2,63.2,30.2,63.3,30.2c-0.4-0.3-0.7-0.2-0.8-0.2s-0.1,0-0.1-0.1s0-0.1,0.1-0.1
			c0,0,0.5-0.1,0.9,0.2C63.4,30,63.4,30.1,63.3,30.2L63.3,30.2z"/>
		<path class="st45" d="M61,29.9L61,29.9c-0.1-0.1-0.1-0.1-0.1-0.2c0.4-0.3,0.8-0.1,0.8-0.1c0.1,0,0.1,0.1,0.1,0.1
			c0,0.1-0.1,0.1-0.1,0.1S61.4,29.7,61,29.9C61.1,29.9,61.1,29.9,61,29.9z"/>
	</g>
	
		<linearGradient id="SVGID_49_" gradientUnits="userSpaceOnUse" x1="56.7931" y1="35.55" x2="62.2931" y2="35.55" gradientTransform="matrix(1 0 0 -1 0 77)">
		<stop  offset="0" style="stop-color:#89E8F7"/>
		<stop  offset="1" style="stop-color:#00B2DB"/>
	</linearGradient>
	<rect x="56.8" y="41.2" class="st60" width="5.5" height="0.5"/>
	<g>
		
			<linearGradient id="SVGID_50_" gradientUnits="userSpaceOnUse" x1="53.332" y1="37.5" x2="54.7751" y2="37.5" gradientTransform="matrix(1 0 0 -1 0 77)">
			<stop  offset="0" style="stop-color:#89E8F7"/>
			<stop  offset="1" style="stop-color:#00B2DB"/>
		</linearGradient>
		<rect x="53.3" y="37.9" class="st61" width="1.4" height="3.2"/>
		
			<linearGradient id="SVGID_51_" gradientUnits="userSpaceOnUse" x1="53.0361" y1="37.5" x2="54.4791" y2="37.5" gradientTransform="matrix(1 0 0 -1 0 77)">
			<stop  offset="0" style="stop-color:#00B2DB"/>
			<stop  offset="1" style="stop-color:#89E8F7"/>
		</linearGradient>
		<rect x="53" y="37.9" class="st62" width="1.4" height="3.2"/>
		
			<linearGradient id="SVGID_52_" gradientUnits="userSpaceOnUse" x1="50.4" y1="35.7" x2="57.5547" y2="35.7" gradientTransform="matrix(1 0 0 -1 0 77)">
			<stop  offset="0" style="stop-color:#89E8F7"/>
			<stop  offset="1" style="stop-color:#00B2DB"/>
		</linearGradient>
		<path class="st63" d="M57.6,41.9c-0.2-0.6-1.7-1.2-3.6-1.2c-1.9,0-3.4,0.5-3.6,1.2H57.6z"/>
		
			<linearGradient id="SVGID_53_" gradientUnits="userSpaceOnUse" x1="48.6784" y1="40.5" x2="59.2784" y2="40.5" gradientTransform="matrix(1 0 0 -1 0 77)">
			<stop  offset="0" style="stop-color:#89E8F7"/>
			<stop  offset="1" style="stop-color:#00B2DB"/>
		</linearGradient>
		<path class="st64" d="M56.3,39.5h-4.6c-1.7,0-3-1.4-3-3l0,0c0-1.7,1.4-3,3-3h4.6c1.7,0,3,1.4,3,3l0,0
			C59.3,38.1,57.9,39.5,56.3,39.5z"/>
		
			<linearGradient id="SVGID_54_" gradientUnits="userSpaceOnUse" x1="48.2715" y1="40.5" x2="58.8715" y2="40.5" gradientTransform="matrix(1 0 0 -1 0 77)">
			<stop  offset="0" style="stop-color:#00B2DB"/>
			<stop  offset="1" style="stop-color:#89E8F7"/>
		</linearGradient>
		<path class="st65" d="M55.9,39.5h-4.6c-1.7,0-3-1.4-3-3l0,0c0-1.7,1.4-3,3-3h4.6c1.7,0,3,1.4,3,3l0,0
			C58.9,38.1,57.5,39.5,55.9,39.5z"/>
		<polygon class="st66" points="55.8,39.5 54.4,39.5 52.4,33.5 53.6,33.5 		"/>
		<polygon class="st66" points="53.3,39.5 51,39.5 49,33.5 51.1,33.5 		"/>
	</g>
	<g>
		
			<linearGradient id="SVGID_55_" gradientUnits="userSpaceOnUse" x1="48.2715" y1="34.8" x2="71.5715" y2="34.8" gradientTransform="matrix(1 0 0 -1 0 77)">
			<stop  offset="0" style="stop-color:#FFAB66"/>
			<stop  offset="1" style="stop-color:#E46077"/>
		</linearGradient>
		<polygon class="st67" points="71,42.7 48.8,42.7 48.3,41.7 71.6,41.7 		"/>
		
			<linearGradient id="SVGID_56_" gradientUnits="userSpaceOnUse" x1="47.9578" y1="28.55" x2="50.2605" y2="28.55" gradientTransform="matrix(1 0 0 -1 0 77)">
			<stop  offset="0" style="stop-color:#FFAB66"/>
			<stop  offset="1" style="stop-color:#E46077"/>
		</linearGradient>
		<polygon class="st68" points="48.5,54.2 48,54.2 49.2,42.7 50.3,42.7 		"/>
		<polygon class="st69" points="50,44.2 48.9,45.4 49.2,42.7 50.3,42.7 		"/>
		
			<linearGradient id="SVGID_57_" gradientUnits="userSpaceOnUse" x1="50.6171" y1="28.55" x2="52.9197" y2="28.55" gradientTransform="matrix(1 0 0 -1 0 77)">
			<stop  offset="0" style="stop-color:#FFAB66"/>
			<stop  offset="1" style="stop-color:#E46077"/>
		</linearGradient>
		<polygon class="st70" points="51.1,54.2 50.6,54.2 51.8,42.7 52.9,42.7 		"/>
		
			<linearGradient id="SVGID_58_" gradientUnits="userSpaceOnUse" x1="69.3608" y1="28.55" x2="71.6635" y2="28.55" gradientTransform="matrix(1 0 0 -1 0 77)">
			<stop  offset="0" style="stop-color:#FFAB66"/>
			<stop  offset="1" style="stop-color:#E46077"/>
		</linearGradient>
		<polygon class="st71" points="71.1,54.2 71.7,54.2 70.5,42.7 69.4,42.7 		"/>
		<polygon class="st69" points="69.5,43.9 70.6,44.5 70.5,42.7 69.4,42.7 		"/>
		
			<linearGradient id="SVGID_59_" gradientUnits="userSpaceOnUse" x1="66.8915" y1="28.55" x2="69.1942" y2="28.55" gradientTransform="matrix(1 0 0 -1 0 77)">
			<stop  offset="0" style="stop-color:#FFAB66"/>
			<stop  offset="1" style="stop-color:#E46077"/>
		</linearGradient>
		<polygon class="st72" points="68.7,54.2 69.2,54.2 68,42.7 66.9,42.7 		"/>
		<polygon class="st69" points="52.7,44.1 51.6,44.9 51.8,42.7 52.9,42.7 		"/>
		<polygon class="st69" points="67,43.6 68.2,44.5 68,42.7 66.9,42.7 		"/>
	</g>
</g>
<g>
	<g>
		<path class="st23" d="M58.9,23.8h-3c-1.4,0-2.6-1.2-2.6-2.6l0,0c0-1.4,1.2-2.6,2.6-2.6h3c1.4,0,2.6,1.2,2.6,2.6l0,0
			C61.5,22.6,60.3,23.8,58.9,23.8z"/>
		<polygon class="st23" points="60.5,23.2 61.8,25.4 59.3,23.5 		"/>
	</g>
	<g>
		
			<linearGradient id="SVGID_60_" gradientUnits="userSpaceOnUse" x1="54.6383" y1="55.95" x2="56.5854" y2="55.95" gradientTransform="matrix(1 0 0 -1 0 77)">
			<stop  offset="0" style="stop-color:#FFAB66"/>
			<stop  offset="1" style="stop-color:#E46077"/>
		</linearGradient>
		<path class="st73" d="M56,19.5h0.6v1.9c0,0.3,0,0.4-0.1,0.6s-0.2,0.3-0.3,0.4c-0.2,0.1-0.4,0.2-0.6,0.2c-0.3,0-0.5-0.1-0.7-0.3
			c-0.2-0.2-0.2-0.4-0.2-0.7l0.6-0.1c0,0.2,0,0.3,0.1,0.4s0.2,0.2,0.3,0.2s0.2,0,0.3-0.1s0.1-0.2,0.1-0.5L56,19.5L56,19.5z"/>
		
			<linearGradient id="SVGID_61_" gradientUnits="userSpaceOnUse" x1="57.0835" y1="55.95" x2="59.558" y2="55.95" gradientTransform="matrix(1 0 0 -1 0 77)">
			<stop  offset="0" style="stop-color:#FFAB66"/>
			<stop  offset="1" style="stop-color:#E46077"/>
		</linearGradient>
		<path class="st74" d="M57.1,21.6l0.6-0.1c0,0.2,0.1,0.3,0.2,0.4C58,22,58.2,22,58.3,22c0.2,0,0.3,0,0.4-0.1
			c0.1-0.1,0.2-0.2,0.2-0.3c0-0.1,0-0.1-0.1-0.2c0-0.1-0.1-0.1-0.2-0.1c-0.1,0-0.2-0.1-0.5-0.1c-0.3-0.1-0.6-0.2-0.7-0.3
			c-0.2-0.2-0.3-0.4-0.3-0.6s0-0.3,0.1-0.4s0.2-0.2,0.4-0.3c0.2-0.1,0.4-0.1,0.6-0.1c0.4,0,0.7,0.1,0.9,0.3c0.2,0.2,0.3,0.4,0.3,0.7
			h-0.6c0-0.2-0.1-0.3-0.2-0.3c0-0.2-0.1-0.2-0.3-0.2s-0.3,0-0.4,0.1c-0.1,0-0.1,0.1-0.1,0.2s0,0.1,0.1,0.2s0.3,0.1,0.6,0.2
			s0.5,0.1,0.7,0.2c0.1,0.1,0.3,0.2,0.3,0.3c0.1,0.1,0.1,0.3,0.1,0.5s0,0.3-0.1,0.5s-0.2,0.3-0.4,0.3c-0.2,0.1-0.4,0.1-0.7,0.1
			c-0.4,0-0.7-0.1-0.9-0.3C57.2,22.2,57.1,21.9,57.1,21.6z"/>
	</g>
</g>
</svg>
