<svg xmlns="http://www.w3.org/2000/svg" xmlns:xlink="http://www.w3.org/1999/xlink" viewBox="0 0 96.8 53" xmlns:v="https://vecta.io/nano"><style><![CDATA[.DJ{fill:#3531a1}.DK{fill:#1d1273}.DL{fill:#fff}.DM{fill:#0d0848}.DN{enable-background:new}.DO{fill:#009bae}.DP{fill:#201e80}.DQ{fill-rule:evenodd}.DR{opacity:.5}.DS{fill:#c5ddff}.DT{fill:#e26c6c}]]></style><path d="M14.4 46.9l-.3-.7c.7 2.6 1 4.3 1.1 5.3h.4c-.4-1.9-.9-3.7-1.3-4.9.1.2.1.3.1.3z" class="DL"/><linearGradient id="A" gradientUnits="userSpaceOnUse" x1="8.807" y1="41.878" x2="15.22" y2="41.878"><stop offset="0" stop-color="#d2d7f6"/><stop offset="1" stop-color="#f0f0fb"/></linearGradient><path d="M13.6 39.5s-1 1.7-1.2 1.7c-.2-.1 1-1.6.8-2.3L12 37.6l-.5.9s.1-.8-.1-1.2-1.3-.6-2.2-.3c0 0-.7 1.2 0 2.6l1.8 1.8s-1.5-.3-1.3 0 .5 1.7 1.1 1.8.4.5 1.2.7c.7.1.5.4.5.4L11 44s-.1.8.5 1 2.4.5 2.5.9l.1.3.3.7v-.3c0-.3.1-.9.4-1.3.5-.6.7-1.1 0-3.5 0 .1-.8-1.8-1.2-2.3z" fill="url(#A)"/><linearGradient id="B" gradientUnits="userSpaceOnUse" x1="14.455" y1="44.841" x2="11.229" y2="37.457"><stop offset="0" stop-color="#9da3c4"/><stop offset="1" stop-color="#c8d6f9"/></linearGradient><path d="M13.6 39.5s-1 1.7-1.2 1.7c-.2-.1 1-1.6.8-2.3L12 37.6l-.5.9s.1-.8-.1-1.2c-.2-.3-1.4-.8-2.2-.3 2.7 2.3 4.7 8.3 5 9.1h0l.1.2.3.7v-.3c0-.3.1-.9.4-1.3.5-.6.7-1.1 0-3.5-.2 0-1-1.9-1.4-2.4z" fill="url(#B)"/><path d="M13.1 49.7v.2c.2.3.6.9.9 1.6h.3c-.4-.5-.7-1.1-.8-1.2-.1-.2-.2-.4-.4-.6z" class="DL"/><linearGradient id="C" gradientUnits="userSpaceOnUse" x1="7.179" y1="46.479" x2="8.054" y2="45.591"><stop offset="0" stop-color="#d2d7f6"/><stop offset="1" stop-color="#f0f0fb"/></linearGradient><path d="M6 45.8l.8.2s1.3-.1 2.7 0c-.5-.2-1-.4-1.3-.4-1.1-.1-2.2.2-2.2.2z" fill="url(#C)"/><linearGradient id="D" gradientUnits="userSpaceOnUse" x1="6.828" y1="48.028" x2="13.193" y2="48.028"><stop offset="0" stop-color="#9da3c4"/><stop offset="1" stop-color="#c8d6f9"/></linearGradient><path d="M12.2 46.9c-.6-.5-1.7-.7-2.7-.8-1.4-.1-2.7 0-2.7 0h0l3.5 1.9s2.3 1 2.8 2h0v-.2c.1-.6.2-2-.9-2.9z" fill="url(#D)"/><path d="M12.3 46.3h-.2c.9 1.5 1.7 3.7 2.3 5.3h.3l-2.4-5.4c0-.1 0 0 0 .1z" class="DL"/><g fill="#d92e0b"><path d="M11.9 46.2h0 0zm-.1 0h0 0zm.2 0h0 0zm-.9-.1c-.8-.1-1.8-.3-2.5-.5.7.2 1.7.3 2.5.5zm-2.9-.7c.1 0 .2.1.3.1-.1 0-.2 0-.3-.1zm3.1.7h.2-.2z"/><path d="M11.1 46.1h.2-.2zm.5.1h.2-.2zm.4 0h0 0z"/></g><linearGradient id="E" gradientUnits="userSpaceOnUse" x1="8.084" y1="43.72" x2="8.404" y2="41.601"><stop offset="0" stop-color="#d2d7f6"/><stop offset="1" stop-color="#f0f0fb"/></linearGradient><path d="M8.9 41c-1.2-1.1-4.7-1.7-4.7-1.7l-.1.6C4 40.5 5.3 42 5.3 42c.1.6.8 1.7 1.3 1.9s.7.9 1.2 1.3c.1.1.2.1.4.2h0c.6.2 1.9.5 2.9.6h0 .2 0 .2 0 .2 0 .1 0 .1 0 .1 0 .1 0 0 0 .2v-.2c.6-2.5-2.2-3.7-3.4-4.8z" fill="url(#E)"/><linearGradient id="F" gradientUnits="userSpaceOnUse" x1="8.071" y1="43.445" x2="8.597" y2="41.554"><stop offset="0" stop-color="#9da3c4"/><stop offset="1" stop-color="#c8d6f9"/></linearGradient><path d="M8.9 41c-1.2-1.1-4.7-1.7-4.7-1.7h0c1.1.8 2.1 1.7 3.2 2.6 1.2.9 2.3 1.7 3.4 2.8.5.5.8 1 1.2 1.6h0 0 .1 0 0 0 .2v-.2c.6-2.8-2.2-4-3.4-5.1z" fill="url(#F)"/><path d="M11.3 45.1c-.5-.4-1-.5-3.1.3h0c.6.2 1.9.5 2.9.6h0 .2 0 .2 0 .2 0 .1 0 .1 0 .1 0 .1 0 0c-.2-.1-.5-.6-.8-.9zm1.9 5.9h0 0c-.1 0-.1 0 0 0-.1 0-.1 0-.2-.1h0s-.1 0-.1-.1h0 0c.2.1.4.4.7.6h.2c-.2-.1-.4-.2-.6-.4z" class="DL"/><g fill="#d92e0b"><path d="M11.2 50.1c.1 0 .2.1.3.1-.1 0-.2 0-.3-.1zm.3.2s.1 0 .1.1c0-.1-.1-.1-.1-.1zm-.4-.2s.1 0 .1.1c0-.1-.1-.1-.1-.1zm1.4.6c.1 0 .1.1.2.1-.1 0-.1 0-.2-.1zm-.4-.2c-.2-.1-.3-.1-.5-.2.2.1.3.2.5.2zm.3.2c-.1 0-.2-.1-.3-.1.1 0 .2 0 .3.1z"/><path d="M12.4 50.7h0 0zm.6.2s-.1 0-.1-.1c0 .1.1.1.1.1zm-.2 0s-.1 0-.1-.1c.1 0 .1.1.1.1z"/><path d="M12.8 50.9h0 0 0zm.3.1s-.1 0-.1-.1l.1.1z"/></g><linearGradient id="G" gradientUnits="userSpaceOnUse" x1="10.751" y1="49.879" x2="11.265" y2="48.529"><stop offset="0" stop-color="#d2d7f6"/><stop offset="1" stop-color="#f0f0fb"/></linearGradient><path d="M12.3 49.2c-.1 0-.1-.6-.1-.8-.1-.2-1.1-.5-1.1-.5s.1.8 0 .7c-.1 0-.4-.8-.4-.8-1.4-.2-2.3.6-2.3.6s.8.8 1.3 1.1l3.5 1.6s.4-.8-.7-2.5c0-.1-.1.6-.2.6z" fill="url(#G)"/><linearGradient id="H" gradientUnits="userSpaceOnUse" x1="9.653" y1="50.092" x2="13.145" y2="50.092"><stop offset="0" stop-color="#c8d6f9"/><stop offset="1" stop-color="#acb5e8"/></linearGradient><path d="M11.5 49.4c-.5-.2-1-.1-1.5 0-.1 0-.2.1-.3.1h0 .1 0 .1 0 .1 0s.1 0 .1.1h0 .1 0 .1 0c.1 0 .2.1.3.1h0s.1 0 .1.1h0c.1 0 .2.1.3.1h0s.1 0 .1.1h0c.1 0 .2.1.3.1h0s.1 0 .1.1h0c.2.1.3.1.5.2h0c.1.1.2.1.3.1h0 .1 0c.1 0 .1.1.2.1h0c.1 0 .1 0 .2.1h0s.1 0 .1.1h0c.1 0 .1 0 .1.1h0c-.4-.5-.8-1.2-1.5-1.5z" fill="url(#H)"/><path d="M17 50.8c0 .3-.1.5-.1.7h.5l.2-4.9h-.1c0 1.2-.4 3.6-.5 4.2z" class="DL"/><linearGradient id="I" gradientUnits="userSpaceOnUse" x1="19.751" y1="39.417" x2="19.422" y2="39.289"><stop offset="0" stop-color="#9da3c4"/><stop offset="1" stop-color="#c8d6f9"/></linearGradient><path d="M18.7 41.5l.8-1.5c1.1-1.6.7-2.9.7-2.9s-.8 2-1.5 4.4z" fill="url(#I)"/><linearGradient id="J" gradientUnits="userSpaceOnUse" x1="17.931" y1="46.542" x2="17.931" y2="38.337"><stop offset="0" stop-color="#9da3c4"/><stop offset="1" stop-color="#c8d6f9"/></linearGradient><path d="M17.5 39.5c-.4.8.1 2.9.1 2.9l-.9-1.6-.4.7c0 .5.8 1.5.8 1.5l-1.2-.7s-.6 1.4-.2 2.8c.3 1.2 1.6 1.5 2 1.6h.1c.1-1.5.5-3.4 1-5.1l1.5-4.4c-1-.2-2.8 2.3-2.8 2.3z" fill="url(#J)"/><path d="M17.6 51.5h.3a29.47 29.47 0 0 1 1.3-4.7l-.1-.1c-.9 1.7-1.3 3.6-1.5 4.8zm5.8-9.7l-.5.6.1-.6-1.3.2-.3 1.2-.2-1c-.6.2-1 .4-1 .4-.3.3-.5 1.1-.6 1.6 1.9-1 4.5-1.8 4.5-1.8h0c.7-.5.6-.7.6-.7-.5-.2-1.3.1-1.3.1z" class="DL"/><linearGradient id="K" gradientUnits="userSpaceOnUse" x1="18.568" y1="44.6" x2="24.201" y2="44.6"><stop offset="0" stop-color="#9da3c4"/><stop offset="1" stop-color="#c8d6f9"/></linearGradient><path d="M19 44.7l.9.7c-.8.1-1-.5-1-.5-.7.8 0 1.6.2 1.8l.1.1c.4-.8 2.6-2.6 3.6-3.3l1.5-1.1h0s-2.6.8-4.5 1.8c-.4.2-.6.3-.8.5z" fill="url(#K)"/><radialGradient id="L" cx="-52.156" cy="-8454.721" r="5.134" gradientTransform="matrix(-0.196 -0.317 -0.2077 0.3091 -1738.3016 2612.7195)" gradientUnits="userSpaceOnUse"><stop offset="0" stop-color="#1d1273"/><stop offset=".268" stop-color="#5d559a"/><stop offset=".776" stop-color="#d1cee2"/><stop offset="1" stop-color="#fff"/></radialGradient><path d="M29.1 17.7c.6-.9.6-2.3 0-3.2s-1.5-.9-2.1-.1c-.6.9-.6 2.3 0 3.2s1.5.9 2.1.1z" opacity=".4" fill="url(#L)" class="DN"/><linearGradient id="M" gradientUnits="userSpaceOnUse" x1="12.939" y1="31.318" x2="11.131" y2="28.606"><stop offset="0" stop-color="#9da3c4"/><stop offset="1" stop-color="#c8d6f9"/></linearGradient><path d="M15.4 38.3l-2.1-4.1c-.5-1.2-.7-2.4-.8-3.6 0-1.3.2-2.6 0-3.9-.2-1.4-1.6-4-1.6-4 0 .1 1.2 2.4 1.4 3.7s0 2.5 0 3.7c0 1.1.2 2.3.5 3.3.4 1.3 1.1 2.5 1.8 3.7l1.2 2.2c.4.7.7 1.5.3 2.3 0 0 0 .1.1 0 .3-.5.3-1 .2-1.5l-1-1.8z" fill="url(#M)"/><linearGradient id="N" gradientUnits="userSpaceOnUse" x1="9.597" y1="32.145" x2="7.264" y2="28.646"><stop offset="0" stop-color="#9da3c4"/><stop offset="1" stop-color="#c8d6f9"/></linearGradient><path d="M9.2 34.6c.7.4 1.4.4 2.2.4.7 0 1.5-.1 2.2.1h0c-1.2-.9-3-1.1-4.4-.5z" fill="url(#N)"/><linearGradient id="O" gradientUnits="userSpaceOnUse" x1="11.902" y1="31.676" x2="9.94" y2="28.732"><stop offset="0" stop-color="#9da3c4"/><stop offset="1" stop-color="#c8d6f9"/></linearGradient><path d="M12.8 33s0 .1 0 0h0 0z" fill="url(#O)"/><linearGradient id="P" gradientUnits="userSpaceOnUse" x1="10.185" y1="32.452" x2="7.844" y2="28.941"><stop offset="0" stop-color="#9da3c4"/><stop offset="1" stop-color="#c8d6f9"/></linearGradient><path d="M10.2 32.4c-.6.1-1.1.5-1.6.9.9-.1 1.8.1 2.7-.1.5-.1.9-.3 1.4-.2-.4-.4-1-.5-1.6-.6h-.9z" fill="url(#P)"/><linearGradient id="Q" gradientUnits="userSpaceOnUse" x1="11.648" y1="31.997" x2="9.615" y2="28.948"><stop offset="0" stop-color="#9da3c4"/><stop offset="1" stop-color="#c8d6f9"/></linearGradient><path d="M8.4 28.8c1.2 1.2 2.5 2.3 4.1 2.8l-.1-.1c-1.2-1-2.5-2-4-2.7z" fill="url(#Q)"/><linearGradient id="R" gradientUnits="userSpaceOnUse" x1="12.334" y1="31.993" x2="10.145" y2="28.71"><stop offset="0" stop-color="#9da3c4"/><stop offset="1" stop-color="#c8d6f9"/></linearGradient><path d="M11.2 28.9c-.4-.1-.9-.1-1.3-.1H8.7c1 .1 1.8.8 2.8 1 .3 0 .6 0 .9.1l-.1-.2c-.2-.4-.6-.6-1.1-.8z" fill="url(#R)"/><linearGradient id="S" gradientUnits="userSpaceOnUse" x1="11.488" y1="33.207" x2="9.049" y2="29.548"><stop offset="0" stop-color="#9da3c4"/><stop offset="1" stop-color="#c8d6f9"/></linearGradient><path d="M8.4 28.8h.3-.3z" fill="url(#S)"/><linearGradient id="T" gradientUnits="userSpaceOnUse" x1="13.559" y1="31.125" x2="11.608" y2="28.197"><stop offset="0" stop-color="#9da3c4"/><stop offset="1" stop-color="#c8d6f9"/></linearGradient><path d="M9.4 25.3a3.1 3.1 0 0 0 .9 1.8c.3.3.7.5 1 .8.4.2.7.4 1.1.7l.1.1c0-.2-.1-.3-.2-.4-.9-1.1-1.9-2.1-2.9-3z" fill="url(#T)"/><linearGradient id="U" gradientUnits="userSpaceOnUse" x1="14.854" y1="30.681" x2="12.611" y2="27.316"><stop offset="0" stop-color="#9da3c4"/><stop offset="1" stop-color="#c8d6f9"/></linearGradient><path d="M13.9 28.8c-.6.2-1.1.6-1.5 1.1.6 0 1.1 0 1.7-.2.6-.1 1.1-.4 1.5-.8-.4-.3-1.1-.3-1.7-.1z" fill="url(#U)"/><linearGradient id="V" gradientUnits="userSpaceOnUse" x1="13.467" y1="31.407" x2="11.085" y2="27.834"><stop offset="0" stop-color="#9da3c4"/><stop offset="1" stop-color="#c8d6f9"/></linearGradient><path d="M12.5 29.9h0c-.1 0-.1 0 0 0h0z" fill="url(#V)"/><linearGradient id="W" gradientUnits="userSpaceOnUse" x1="12.373" y1="31.485" x2="9.668" y2="27.426"><stop offset="0" stop-color="#9da3c4"/><stop offset="1" stop-color="#c8d6f9"/></linearGradient><path d="M12.4 31.6h.1 0-.1z" fill="url(#W)"/><linearGradient id="X" gradientUnits="userSpaceOnUse" x1="14.29" y1="30.209" x2="11.616" y2="26.199"><stop offset="0" stop-color="#9da3c4"/><stop offset="1" stop-color="#c8d6f9"/></linearGradient><path d="M14.6 30.7c-.7.2-1.4.8-2.1.9h0c1.7.5 3.5.2 4.9-.8-.9-.2-1.9-.4-2.8-.1z" fill="url(#X)"/><linearGradient id="Y" gradientUnits="userSpaceOnUse" x1="12.5" y1="31.5" x2="12.5" y2="31.5"><stop offset="0" stop-color="#9da3c4"/><stop offset="1" stop-color="#c8d6f9"/></linearGradient><path d="M12.5 31.5h0 0 0z" fill="url(#Y)"/><linearGradient id="Z" gradientUnits="userSpaceOnUse" x1="13.984" y1="31.1" x2="12.472" y2="28.833"><stop offset="0" stop-color="#9da3c4"/><stop offset="1" stop-color="#c8d6f9"/></linearGradient><path d="M12.7 33h.2c.3.2.7.1 1 0s.6-.3.9-.5c.6-.5 1.1-1 1.6-1.6-.9 0-1.7.5-2.4 1.2-.4.3-.7.8-1.3.9z" fill="url(#Z)"/><linearGradient id="a" gradientUnits="userSpaceOnUse" x1="13.82" y1="31.781" x2="12.426" y2="29.688"><stop offset="0" stop-color="#9da3c4"/><stop offset="1" stop-color="#c8d6f9"/></linearGradient><path d="M14.6 33.8c-.3.4-.5 1-1 1.2a.96.96 0 0 0 .9-.2c.3-.2.5-.5.7-.7l1.4-1.7c-.8.3-1.5.7-2 1.4z" fill="url(#a)"/><linearGradient id="b" gradientUnits="userSpaceOnUse" x1="13.519" y1="35.012" x2="13.486" y2="34.962"><stop offset="0" stop-color="#9da3c4"/><stop offset="1" stop-color="#c8d6f9"/></linearGradient><path d="M13.6 35.1h0s-.1 0 0 0h0z" fill="url(#b)"/><linearGradient id="c" gradientUnits="userSpaceOnUse" x1="9.145" y1="31.218" x2="6.594" y2="27.39"><stop offset="0" stop-color="#9da3c4"/><stop offset="1" stop-color="#c8d6f9"/></linearGradient><path d="M13.2 36l-1.1.3-1.3.3c.1 0 .2.1.4.1 1.1.2 2.2-.4 3.3-.3l-.1-.2c-.4-.2-.8-.2-1.2-.2z" fill="url(#c)"/><linearGradient id="d" gradientUnits="userSpaceOnUse" x1="13.963" y1="32.32" x2="12.613" y2="30.294"><stop offset="0" stop-color="#9da3c4"/><stop offset="1" stop-color="#c8d6f9"/></linearGradient><path d="M14.8 35.6c-.2.3-.5.6-.4 1h0c.4-.1.8-.3 1.1-.6a4.44 4.44 0 0 0 .8-1.1c.3-.5.6-.9.8-1.5l-2.3 2.2z" fill="url(#d)"/><linearGradient id="e" gradientUnits="userSpaceOnUse" x1="11.569" y1="29.529" x2="9.107" y2="25.835"><stop offset="0" stop-color="#9da3c4"/><stop offset="1" stop-color="#c8d6f9"/></linearGradient><path d="M15.2 37.7l-.1.1c.3-.2.7-.1 1.1-.1.9.1 1.8 0 2.6-.3-.6-.2-1.2-.4-1.9-.4-.6.1-1.2.3-1.7.7z" fill="url(#e)"/><linearGradient id="f" gradientUnits="userSpaceOnUse" x1="11.263" y1="32.22" x2="9.406" y2="29.435"><stop offset="0" stop-color="#9da3c4"/><stop offset="1" stop-color="#c8d6f9"/></linearGradient><path d="M15 37.9h.1-.1c0-.1 0-.1 0 0z" fill="url(#f)"/><linearGradient id="g" gradientUnits="userSpaceOnUse" x1="10.28" y1="34.22" x2="8.778" y2="31.968"><stop offset="0" stop-color="#9da3c4"/><stop offset="1" stop-color="#c8d6f9"/></linearGradient><path d="M13.1 39l-1.2 1.3c.5 0 .9 0 1.3-.3.2-.1.3-.2.5-.4.4-.4.9-.8 1.1-1.3.1-.2.1-.4.3-.5-.2 0-.4 0-.5.1-.7.3-1.1.7-1.5 1.1z" fill="url(#g)"/><linearGradient id="h" gradientUnits="userSpaceOnUse" x1="13.897" y1="30.275" x2="12.33" y2="27.925"><stop offset="0" stop-color="#9da3c4"/><stop offset="1" stop-color="#c8d6f9"/></linearGradient><path d="M12.6 28.5c0-.1 0-.1.1-.2-.1.1-.2.1-.1.2h0z" fill="url(#h)"/><linearGradient id="i" gradientUnits="userSpaceOnUse" x1="15.305" y1="29.033" x2="13.924" y2="26.961"><stop offset="0" stop-color="#9da3c4"/><stop offset="1" stop-color="#c8d6f9"/></linearGradient><path d="M13.7 26.4c-.3.3-.5.6-.7 1-.1.2-.2.4-.2.6 0 .1-.1.2-.1.3.1-.1.2-.1.2-.2.3-.2.6-.3.9-.5s.6-.6.8-1 .3-.8.4-1.2c-.1 0-.2 0-.3.1-.5.3-.8.6-1 .9z" fill="url(#i)"/><linearGradient id="j" gradientUnits="userSpaceOnUse" x1="14.798" y1="30.742" x2="12.792" y2="27.732"><stop offset="0" stop-color="#9da3c4"/><stop offset="1" stop-color="#c8d6f9"/></linearGradient><path d="M11.3 24.8l-.3-.3c-.2-.1-.3-.1-.5-.2-.3-.1-.5-.1-.8-.1 0 .3.3.5.5.6.7.6 1.5 1.1 2.3 1.5-.1-.4-.3-.7-.5-1a3.04 3.04 0 0 1-.7-.5z" fill="url(#j)"/><linearGradient id="k" gradientUnits="userSpaceOnUse" x1="12.5" y1="26.5" x2="12.5" y2="26.5"><stop offset="0" stop-color="#9da3c4"/><stop offset="1" stop-color="#c8d6f9"/></linearGradient><path d="M12.5 26.5h0 0 0z" fill="url(#k)"/><linearGradient id="l" gradientUnits="userSpaceOnUse" x1="15.823" y1="28.86" x2="14.228" y2="26.468"><stop offset="0" stop-color="#9da3c4"/><stop offset="1" stop-color="#c8d6f9"/></linearGradient><path d="M12.5 25.4v1.1-.1a9.13 9.13 0 0 0 .8-1.3c.1-.2.2-.5.2-.7.1-.2.1-.4.1-.6v-.9c-.5.8-1 1.6-1.1 2.5z" fill="url(#l)"/><radialGradient id="m" cx="-227.189" cy="-8189.618" r="5.134" gradientTransform="matrix(-0.2958 -0.8318 -0.3133 0.8109 -2598.6772 6497.7007)" gradientUnits="userSpaceOnUse"><stop offset="0" stop-color="#1d1273"/><stop offset=".268" stop-color="#5d559a"/><stop offset=".776" stop-color="#d1cee2"/><stop offset="1" stop-color="#fff"/></radialGradient><path d="M35.9 49.7c.9-2.3.9-6 .1-8.3-.8-2.4-2.2-2.4-3.1-.2-.9 2.3-.9 6-.1 8.3.8 2.4 2.2 2.5 3.1.2z" fill="url(#m)" class="DN DR"/><radialGradient id="n" cx="-409.68" cy="-8276.528" r="5.137" gradientTransform="matrix(-0.9185 -1.4625 -0.9732 1.4258 -8418.6494 11242.4688)" gradientUnits="userSpaceOnUse"><stop offset="0" stop-color="#1d1273"/><stop offset=".268" stop-color="#5d559a"/><stop offset=".776" stop-color="#d1cee2"/><stop offset="1" stop-color="#fff"/></radialGradient><path d="M17.3 48.1c2.7-4 2.8-10.5.2-14.7-2.6-4.1-6.9-4.3-9.6-.3s-2.8 10.5-.2 14.7c2.6 4.1 6.9 4.3 9.6.3z" fill="url(#n)" class="DN DR"/><radialGradient id="o" cx="-299.568" cy="-8377.879" r="5.134" gradientTransform="matrix(-0.5079 -0.5332 -0.5382 0.5199 -4594.6152 4243.228)" gradientUnits="userSpaceOnUse"><stop offset="0" stop-color="#1d1273"/><stop offset=".268" stop-color="#5d559a"/><stop offset=".776" stop-color="#d1cee2"/><stop offset="1" stop-color="#fff"/></radialGradient><path d="M69.3 50.4c1.5-1.4 1.5-3.8.1-5.4-1.4-1.5-3.8-1.6-5.3-.1-1.5 1.4-1.5 3.8-.1 5.4a3.77 3.77 0 0 0 5.3.1z" fill="url(#o)" class="DN DR"/><path d="M14.3 30.2l-.2-1.3c-.1-.8-.9-1.5-1.6-1.5H7.4c-1.1 0-1.3 1.1-1.3 1.9 0 .1 1.3 10.1 1.3 10.1.1.8 1.6 1.8 2.4 1.8h3.7c.8 0 1.4-.7 1.2-1.5l-.8-6c-.1-.5-.3-.9-.7-1.2-.1-.1-.1-.2-.2-.3h0c-.1-.4.2-.7.5-.7.7-.1.9-.9.8-1.3z" class="DO"/><linearGradient id="p" gradientUnits="userSpaceOnUse" x1="7.15" y1="34.25" x2="14.794" y2="34.25"><stop offset="0" stop-color="#00a8b8"/><stop offset="1" stop-color="#00ebe9"/></linearGradient><path d="M9.1 39.6l-.8-6c-.1-.5-.3-.9-.7-1.2-.1-.1-.1-.2-.2-.3-.1-.4.2-.7.5-.7.5 0 .7-.8.6-1.2l-.2-1.3c-.1-.7-.7-1.3-1.3-1.5h.2 5.1c.8 0 1.5.7 1.6 1.5l.2 1.3c.1.5-.1 1.2-.6 1.2-.4 0-.6.4-.5.7 0 .1.1.2.2.3.4.3.6.7.7 1.2l.8 6c.1.8-.4 1.5-1.2 1.5H9.8c-.3 0-.7-.1-1.1-.3.3-.3.5-.7.4-1.2z" fill="url(#p)"/><linearGradient id="q" gradientUnits="userSpaceOnUse" x1="7.49" y1="32" x2="13.934" y2="32"><stop offset="0" stop-color="#009bae"/><stop offset="1" stop-color="#00d0d6"/></linearGradient><path d="M8 31.4c.1 0 .2 0 .2-.1h5.7c-.1 0-.1.1-.2.1-.4 0-.6.4-.5.7 0 .1.1.2.2.3l.3.3H8l-.3-.3c-.1-.1-.1-.2-.2-.3-.1-.3.2-.7.5-.7z" fill="url(#q)"/><path d="M11.8 41.6h3.7l.5-.5h-4.7z" class="DJ"/><g class="DO"><path d="M14.4 39.7l-.8-6c-.1-.5-.3-.9-.7-1.2-.1-.1-.1-.2-.2-.3-.1-.4.2-.7.5-.7h0c-.2.1-.2.4-.2.6 0 .1.1.2.2.3.4.3.6.7.7 1.2l.8 6c.1.8-.3 1.4-1 1.5.5-.3.8-.8.7-1.4zm-7-12.4h5.1 0-4.4c-1.1 0-1.3 1.1-1.3 1.9 0 .1 1.3 10.1 1.3 10.1.1.8 1.5 1.7 2.3 1.8h-.7c-.8 0-2.3-.9-2.4-1.8L6 29.2c0-.8.3-1.9 1.4-1.9z"/><path d="M13.7 31.4h0c.2-.2.3-.7.2-1.1l-.1-1.3c-.1-.8-.9-1.5-1.6-1.5H7.1h-.2c.2-.1.4-.2.6-.2h5.1c.8 0 1.5.7 1.6 1.5l.2 1.3c0 .5-.2 1.3-.7 1.3zm6.5 9.7h-9.4c-.2 0-.4-.2-.4-.3v-.5c0-.2.2-.3.4-.3h8.7c.6 0 1.1.4 1.1.9h0c0 .1-.2.2-.4.2z"/></g><g class="DM"><path d="M13.5 51.5h.3s.1 0 .1-.1v-1s0-.1-.1-.1h-.3s-.1 0-.1.1l.1 1.1c-.1 0 0 0 0 0z"/><use xlink:href="#Co"/></g><use xlink:href="#Cp" class="DJ"/><use xlink:href="#Cq" class="DM"/><g class="DJ"><use xlink:href="#Cr"/><path d="M13.3 48.6v-.1h.1v-6.9h.5v6.9h0v.1l5.9 2h-.5l-5.4-1.4h0l-.1 1.4h-.3l-.1-1.4h0L8 50.6h-.6z"/></g><path d="M13 42.1v-.4c0-.1.1-.1.1-.1h.9c.1 0 .1.1.1.1v.4c0 .1-.1.1-.1.1h-.9l-.1-.1z" class="DK"/><radialGradient id="r" cx="51.791" cy="28.237" r="2.475" gradientTransform="matrix(1 0 0 -1 0 77)" gradientUnits="userSpaceOnUse"><stop offset="0" stop-color="#93a1cf"/><stop offset="1" stop-color="#fff"/></radialGradient><path d="M54.2 46.3c-.5.5-2.2 1.6-4.7 4.9 0 0-.3.3.1 0 0 0 3.5-2.2 4.6-4.9 0 0 .1-.1 0 0z" fill="url(#r)"/><radialGradient id="s" cx="47.2" cy="30.815" r="3.362" gradientTransform="matrix(1 0 0 -1 0 77)" gradientUnits="userSpaceOnUse"><stop offset="0" stop-color="#93a1cf"/><stop offset="1" stop-color="#fff"/></radialGradient><path d="M48.7 42.6c-.1-.5-.3 2.5-.3 3 .1.5.4 3.2.3 3.3-.1.2-.3-2-.8-3.3-.5-1.4-1.7-3.4-1.7-3.5-.2-.6-.1 2.5 1.2 4.8s1 2.5.9 2.3L46.7 46c-.4-.6-1.7-2.1-1.7-2.2-.2-.6.5 1.9.9 2.7.5.8.9 1.4 1.9 2.5 1.1 1.2 1.1 1.5 1.1 1.5s.2.2 0-.2c0 0-.1-.5.1-1.2.2-.8.5-3.2.1-4.8-.3-1.7-.4-1.7-.4-1.7z" fill="url(#s)"/><radialGradient id="t" cx="50.93" cy="29.07" r="2.455" gradientTransform="matrix(1 0 0 -1 0 77)" gradientUnits="userSpaceOnUse"><stop offset="0" stop-color="#93a1cf"/><stop offset="1" stop-color="#fff"/></radialGradient><path d="M52.6 44.9c-.2.2-1.1 1.5-1.4 1.9-.3.5-1.6 3.4-1.8 3.9-.2.4 0 .1 0 .1l1.7-2c.4-.6 1.4-3.1 1.5-3.9h0z" fill="url(#t)"/><radialGradient id="u" cx="49.959" cy="30.001" r="2.565" gradientTransform="matrix(1 0 0 -1 0 77)" gradientUnits="userSpaceOnUse"><stop offset="0" stop-color="#93a1cf"/><stop offset="1" stop-color="#fff"/></radialGradient><path d="M50.7 43.5l-.8 2.3c-.2.7-.7 4-.7 4.3s-.1.6 0 .4l.8-1.7c.2-.7.8-2.3.8-3.9 0-1.7-.1-1.4-.1-1.4z" fill="url(#u)"/><radialGradient id="v" cx="49.213" cy="26.246" r=".494" gradientTransform="matrix(1 0 0 -1 0 77)" gradientUnits="userSpaceOnUse"><stop offset="0" stop-color="#93a1cf"/><stop offset="1" stop-color="#fff"/></radialGradient><path d="M48.9 50.4l.5 1h.1c-.1-.3-.3-.7-.6-1-.1-.5 0 0 0 0z" fill="url(#v)"/><radialGradient id="w" cx="46.471" cy="28.994" r="2.525" gradientTransform="matrix(1 0 0 -1 0 77)" gradientUnits="userSpaceOnUse"><stop offset="0" stop-color="#93a1cf"/><stop offset="1" stop-color="#fff"/></radialGradient><path d="M48.9 50.4l-2.3-2.6a7.35 7.35 0 0 0-1.9-1.6c-.4-.2-.7-.5-.8-.6-.3-.2.1.2.9 1.5.9 1.4 3.1 2.9 3.7 3.1.7.3.6.3.4.2z" fill="url(#w)"/><radialGradient id="x" cx="46.067" cy="26.374" r="2.435" gradientTransform="matrix(1 0 0 -1 0 77)" gradientUnits="userSpaceOnUse"><stop offset="0" stop-color="#93a1cf"/><stop offset="1" stop-color="#fff"/></radialGradient><path d="M49.4 51.3c-4.1-1.3-5.7-1.4-6.2-1.4-.8 0-.3.1-.3.1 2.9 1.7 6.4 1.3 6.5 1.3h0z" fill="url(#x)"/><radialGradient id="y" cx="45.898" cy="27.626" r="2.636" gradientTransform="matrix(1 0 0 -1 0 77)" gradientUnits="userSpaceOnUse"><stop offset="0" stop-color="#93a1cf"/><stop offset="1" stop-color="#fff"/></radialGradient><path d="M48.9 50.7s-2.5-1.8-4.4-2.5c-1.9-.6-2.3-.6-1.8-.4.1 0 .2.2.2.2 1.2.9 2.8 1.7 3.8 2.1 1 .5 2.5.8 2.5.8.2.1-.3-.2-.3-.2z" fill="url(#y)"/><radialGradient id="z" cx="-163.393" cy="-8493.115" r="14.571" gradientTransform="matrix(-0.1442 -0.3701 -0.1527 0.3608 -1308.385 3037.7725)" gradientUnits="userSpaceOnUse"><stop offset="0" stop-color="#1d1273"/><stop offset=".268" stop-color="#5d559a"/><stop offset=".776" stop-color="#d1cee2"/><stop offset="1" stop-color="#fff"/></radialGradient><path d="M14.3 39.1c1.2-2.9 1.2-7.6.1-10.5-1.2-3-3.1-3.1-4.3-.2S8.9 36 10 38.9s3.1 3 4.3.2z" opacity=".8" fill="url(#z)" class="DN"/><linearGradient id="AA" gradientUnits="userSpaceOnUse" x1="-62.045" y1="-210.251" x2="-62.198" y2="-211.37" gradientTransform="matrix(-0.937 0.3492 0.3492 0.937 33.7551 254.0143)"><stop offset="0" stop-color="#f4a999"/><stop offset="1" stop-color="#e8856f"/></linearGradient><path d="M16.1 36c.7-.2 3.2-.9 3.7-.6s.7 0 1 .2c.2.2.3 0 .2-.1a.76.76 0 0 0-.4-.2s.5-.1.6-.2c0 0 .5.3.7.2.1-.1-.2-.3-.4-.4s-.1-.2-.3-.2c0 0 0-.2-.2-.3 0 0 0-.2-.1-.2s-.6 0-.8.1c-.3.1-.4.2-.7.3-.3 0-3-.1-4 .1-1 .1-.1 1.5.7 1.3z" fill="url(#AA)"/><path d="M15.8 30c-1 .3-.7 4.1-.4 5.1.3 1.1 2.1.4 1.9-.9-.1-.4-.3-2.8-.5-3.4-.3-.8-.8-.9-1-.8z" class="DJ"/><linearGradient id="AB" gradientUnits="userSpaceOnUse" x1="226.689" y1="53.433" x2="226.022" y2="53.825" gradientTransform="matrix(0.9836 0.1805 0.1805 -0.9836 -208.8933 56.2739)"><stop offset="0" stop-color="#f4a999"/><stop offset=".344" stop-color="#f3a696"/><stop offset=".619" stop-color="#f09e8c"/><stop offset=".869" stop-color="#eb8f7b"/><stop offset="1" stop-color="#e8856f"/></linearGradient><path d="M22.8 44.9c0-.1-.8-1.2-.8-1.2l1.4-.8.6 1.7c.1.2.9 1.3 1.4 1.3 0 0-.6.3-1.2-.2-.8-.6-1.1-.2-1.4-.5-.2.1-.1-.2 0-.3z" fill="url(#AB)"/><path d="M23.1 45c.3.4.7-.2.8-.3s.3-.1.4 0 1.1.7 1.5.9c.1.1.3.1.5.2h.2c.3.1.6.1.6.4h0 0 0 0s-.4.7-2.4.3c-.5-.1-.9-.4-1.1-.5 0 0-.6 0-.9-.1h-.2l.1-1.1c.1.2.2-.2.5.2z" class="DL"/><path d="M22.8 45.6h.5c.5 0 .9.2 1.3.4.3.2 1 .3 1.4.3.3 0 .8 0 1.1-.2h0 0 0 0 0s-.4.7-2.4.3c-.5-.1-.9-.4-1.1-.5 0 0-.6 0-.9-.1h-.2v-.3c.1.2.2.1.3.1z" class="DK"/><path d="M23.1 45.1c.3.4.7-.2.8-.3s.3-.1.4 0l.1.1.1-.1a17.45 17.45 0 0 0 1.4.8c.1.1.3.1.5.2h.2c.2 0 .6.1.6.3h-.1l-1.5-.1c-.3 0-.5-.1-.7-.3-.1-.1-.2-.1-.3-.2-.1 0-.3-.1-.4-.1l-1.5-.1v-.2c0-.1.1-.3.4 0z" class="DJ"/><path d="M24.6 44.9c.4.2.9.6 1.2.8.1 0 .1.1.2.1h0c-.2.1-.4.2-.6.1l-.9-.5c0-.2-.1-.4.1-.5h0z" class="DK"/><linearGradient id="AC" gradientUnits="userSpaceOnUse" x1="24.755" y1="45.107" x2="24.574" y2="45.09"><stop offset="0" stop-color="#5752d0"/><stop offset="1" stop-color="#7f7cf9"/></linearGradient><path d="M24.7 45c0 .1.1.1 0 0 .1.1 0 .2 0 .2-.1 0-.1 0 0-.2-.1.1-.1 0 0 0z" fill="url(#AC)"/><linearGradient id="AD" gradientUnits="userSpaceOnUse" x1="25.021" y1="45.311" x2="24.841" y2="45.294"><stop offset="0" stop-color="#5752d0"/><stop offset="1" stop-color="#7f7cf9"/></linearGradient><path d="M24.9 45.2c.1 0 .1.1 0 0 .1.1 0 .2 0 .2s-.1 0 0-.2c-.1.1 0 0 0 0z" fill="url(#AD)"/><linearGradient id="AE" gradientUnits="userSpaceOnUse" x1="25.289" y1="45.505" x2="25.108" y2="45.488"><stop offset="0" stop-color="#5752d0"/><stop offset="1" stop-color="#7f7cf9"/></linearGradient><path d="M25.2 45.4h0c.1.1 0 .2 0 .2-.1 0-.1-.1 0-.2-.1 0 0 0 0 0z" fill="url(#AE)"/><linearGradient id="AF" gradientUnits="userSpaceOnUse" x1="25.556" y1="45.703" x2="25.376" y2="45.686"><stop offset="0" stop-color="#5752d0"/><stop offset="1" stop-color="#7f7cf9"/></linearGradient><path d="M25.5 45.6h0c.1.1 0 .2 0 .2-.1-.1-.1-.1 0-.2-.1 0-.1 0 0 0z" fill="url(#AF)"/><linearGradient id="AG" gradientUnits="userSpaceOnUse" x1="22.872" y1="45.216" x2="22.638" y2="45.194"><stop offset="0" stop-color="#ff6279"/><stop offset="1" stop-color="#ffad60"/></linearGradient><path d="M22.8 45c.1 0 .1.1.1.1 0 .1-.1.1-.1.2 0 0 0 .1-.1.1h-.1v-.2c.1-.2.1-.2.2-.2z" fill="url(#AG)"/><path d="M22.6 45.9c.4 0 .6.2 1 .2s1 .3 1.3.3c2 .3 2.2-.2 2.2-.2 0 .1-.1.3-.4.5 0 0-.1.1-.2 0 0 0 0 .1-.1.1 0 0-.1 0-.1-.1 0 0 0 .1-.2.1 0 0-.3.1-.3-.1 0 0 0 .1-.2.1 0 0-.3 0-.3-.1h0s-.1.1-.2.1c0 0-.3 0-.3-.2l-.3-.1s-.2.1-.5.1c0 0-.1 0-.1-.1 0 0-.1.1-.3.1 0 0-.3 0-.3-.1 0 0-.1.1-.2.1-.2 0-.7 0-.6-.3 0 0 0-.1.1-.4z" class="DJ"/><path d="M26.5 46.8h0 0 0 0z" class="DL"/><path d="M22.9 46.3h.6 0v.1h0-.4 0l-.2-.1c-.1 0 0 0 0 0z" class="DK"/><linearGradient id="AH" gradientUnits="userSpaceOnUse" x1="24.913" y1="45.065" x2="24.594" y2="45.036"><stop offset="0" stop-color="#f0f0fb"/><stop offset="1" stop-color="#d2d7f6"/></linearGradient><use xlink:href="#Cs" fill="url(#AH)"/><linearGradient id="AI" gradientUnits="userSpaceOnUse" x1="24.881" y1="45.062" x2="24.562" y2="45.033"><stop offset="0" stop-color="#f0f0fb"/><stop offset="1" stop-color="#d2d7f6"/></linearGradient><use xlink:href="#Cs" x="0.3" y="0.2" fill="url(#AI)"/><linearGradient id="AJ" gradientUnits="userSpaceOnUse" x1="24.957" y1="45.069" x2="24.638" y2="45.04"><stop offset="0" stop-color="#f0f0fb"/><stop offset="1" stop-color="#d2d7f6"/></linearGradient><use xlink:href="#Cs" x="0.5" y="0.3" fill="url(#AJ)"/><linearGradient id="AK" gradientUnits="userSpaceOnUse" x1="24.925" y1="45.066" x2="24.605" y2="45.037"><stop offset="0" stop-color="#f0f0fb"/><stop offset="1" stop-color="#d2d7f6"/></linearGradient><use xlink:href="#Cs" x="0.8" y="0.5" fill="url(#AK)"/><linearGradient id="AL" gradientUnits="userSpaceOnUse" x1="14.014" y1="41.979" x2="20.374" y2="37.854"><stop offset="0" stop-color="#ff6279"/><stop offset="1" stop-color="#ffad60"/></linearGradient><path d="M23.6 43.4s-1.3 1.6-2.8 1.3l-1.6-6s-5.1 2.6-6.9.7c-1.5-1.5.2-4.3.2-4.3 1.6.5 4.2.4 4.2.4 0 .1-.2.4-.2.4s3.4-.2 4.6.7c1.3 1 2.5 6.8 2.5 6.8z" fill="url(#AL)"/><path d="M20.607 39.952l.287-.086 1.411 4.693-.287.086zm-.608.199l.287-.086 1.411 4.693-.287.086z" class="DL"/><linearGradient id="AM" gradientUnits="userSpaceOnUse" x1="221.172" y1="49.647" x2="221.024" y2="50.482" gradientTransform="matrix(0.9836 0.1805 0.1805 -0.9836 -208.8933 56.2739)"><stop offset="0" stop-color="#f4a999"/><stop offset=".344" stop-color="#f3a696"/><stop offset=".619" stop-color="#f09e8c"/><stop offset=".869" stop-color="#eb8f7b"/><stop offset="1" stop-color="#e8856f"/></linearGradient><path d="M16.6 47.2c.1-.1.4-1.9.4-1.9l1.6.3s-.8 1.5-.8 2c0 .2.5 1.2 1 1.3 0 0-.7.1-1.1-.5-.6-.8-1-.5-1.2-.8-.2-.1 0-.3.1-.4z" fill="url(#AM)"/><linearGradient id="AN" gradientUnits="userSpaceOnUse" x1="16.523" y1="41.001" x2="19.89" y2="43.296"><stop offset="0" stop-color="#ff6279"/><stop offset="1" stop-color="#ffad60"/></linearGradient><path d="M19.3 38.2s1.6.5 1.5 1.5c0 1.1-2.4 6.7-2.4 6.7-1 .2-1.8-.5-1.8-.5.4-3.1 1.2-6.1 1.2-6.1-.5.2-1.8.2-2.2.2 1.9-.5 3.7-1.8 3.7-1.8z" fill="url(#AN)"/><path d="M16.9 47.4c.2.4.7 0 .9-.1s.3 0 .4.1l1.2 1.3c.1.1.3.2.4.3l.2.1c.2.1.6.3.5.6h0 0 0 0s-.6.6-2.4-.3c-.4-.2-.7-.6-.9-.7l-.8-.3h-.1l.4-1c-.3-.2-.1-.5.2 0z" class="DL"/><path d="M16.4 47.9l.5.2c.4.2.8.4 1.2.7a7.62 7.62 0 0 0 1.3.7c.3.1.8.2 1.1.1h0 0 0 0 0s-.6.6-2.4-.3c-.4-.2-.7-.6-.9-.7l-.8-.3h-.1l.1-.3c-.2-.1-.1-.1 0-.1z" class="DK"/><path d="M16.8 47.5c.2.4.7 0 .9-.1s.3 0 .4.1l.1.1h.1l1.1 1.2c.1.1.3.2.4.3l.2.1c.2.1.5.3.5.4h-.1L19 49c-.2-.1-.5-.3-.6-.5l-.3-.3c-.1-.1-.2-.1-.3-.2l-1.4-.5.1-.2c-.1 0 .1-.2.3.2z" class="DJ"/><path d="M18.4 47.7l1 1.1.2.2h0c-.2.1-.4 0-.6-.1l-.7-.7c-.2-.2-.2-.4.1-.5h0z" class="DK"/><linearGradient id="AO" gradientUnits="userSpaceOnUse" x1="18.402" y1="47.992" x2="18.233" y2="47.926"><stop offset="0" stop-color="#5752d0"/><stop offset="1" stop-color="#7f7cf9"/></linearGradient><path d="M18.4 47.9l.1.1-.1.1-.1-.1c0-.1 0-.2.1-.1z" fill="url(#AO)"/><linearGradient id="AP" gradientUnits="userSpaceOnUse" x1="18.623" y1="48.209" x2="18.454" y2="48.143"><stop offset="0" stop-color="#5752d0"/><stop offset="1" stop-color="#7f7cf9"/></linearGradient><path d="M18.6 48.1l.1.1-.1.1-.1-.1c0-.1 0-.1.1-.1z" fill="url(#AP)"/><linearGradient id="AQ" gradientUnits="userSpaceOnUse" x1="18.847" y1="48.418" x2="18.678" y2="48.353"><stop offset="0" stop-color="#5752d0"/><stop offset="1" stop-color="#7f7cf9"/></linearGradient><path d="M18.8 48.3l.1.1-.1.1-.1-.1s0-.1.1-.1z" fill="url(#AQ)"/><linearGradient id="AR" gradientUnits="userSpaceOnUse" x1="19.037" y1="48.714" x2="18.868" y2="48.649"><stop offset="0" stop-color="#5752d0"/><stop offset="1" stop-color="#7f7cf9"/></linearGradient><path d="M19 48.6l.1.1-.1.1-.1-.1c0-.1 0-.1.1-.1z" fill="url(#AR)"/><linearGradient id="AS" gradientUnits="userSpaceOnUse" x1="16.61" y1="47.454" x2="16.392" y2="47.37"><stop offset="0" stop-color="#ff6279"/><stop offset="1" stop-color="#ffad60"/></linearGradient><path d="M16.6 47.3c.1 0 .1.1 0 0l-.1.2s-.1.1-.1 0h-.1l.1-.2s.1-.1.2 0z" fill="url(#AS)"/><path d="M16.1 48.1c.4.1.5.3.9.5s.9.6 1.1.7c1.8.9 2.2.4 2.2.4-.1.1-.2.3-.5.3h-.2s0 .1-.1.1c0 0-.1 0-.1-.1 0 0 0 .1-.2.1 0 0-.3 0-.3-.1 0 0-.1.1-.2 0 0 0-.3-.1-.3-.2h0s-.1.1-.2 0c0 0-.3-.1-.3-.2 0 0-.2-.1-.3-.1 0 0-.2.1-.5-.1 0 0-.1 0-.1-.1 0 0-.1.1-.3 0 0 0-.3-.1-.2-.2 0 0-.1.1-.2.1-.2-.1-.6-.2-.5-.5.2-.2.1-.3.3-.6z" class="DJ"/><path d="M19.6 50.1h0 0 0 0z" class="DL"/><path d="M16.3 48.6l.6.2h0v.1h0l-.4-.2h0l-.2-.1c-.1 0 0 0 0 0z" class="DK"/><linearGradient id="AT" gradientUnits="userSpaceOnUse" x1="24.9" y1="45.108" x2="24.601" y2="44.992"><stop offset="0" stop-color="#f0f0fb"/><stop offset="1" stop-color="#d2d7f6"/></linearGradient><use xlink:href="#Cs" x="-6.3" y="2.8" fill="url(#AT)"/><linearGradient id="AU" gradientUnits="userSpaceOnUse" x1="18.808" y1="48.161" x2="18.508" y2="48.045"><stop offset="0" stop-color="#f0f0fb"/><stop offset="1" stop-color="#d2d7f6"/></linearGradient><path d="M18.7 48h.1v.1l-.2.1h-.1 0v-.1l.2-.1z" fill="url(#AU)"/><linearGradient id="AV" gradientUnits="userSpaceOnUse" x1="19.032" y1="48.37" x2="18.732" y2="48.254"><stop offset="0" stop-color="#f0f0fb"/><stop offset="1" stop-color="#d2d7f6"/></linearGradient><path d="M18.9 48.2h.1v.1l-.2.1h-.1 0v-.1l.2-.1z" fill="url(#AV)"/><linearGradient id="AW" gradientUnits="userSpaceOnUse" x1="19.229" y1="48.65" x2="18.93" y2="48.534"><stop offset="0" stop-color="#f0f0fb"/><stop offset="1" stop-color="#d2d7f6"/></linearGradient><path d="M19.2 48.5h.1v.1l-.3.1h-.1 0v-.1l.3-.1z" fill="url(#AW)"/><g class="DL"><path d="M13.1 35.3l-.6 1.2c-.1.4-.3.9-.2 1.3 0 .2 0 .4.1.6s.2.4.3.5c.2.2.3.3.5.3.2.1.4.1.7.1.4 0 .9-.1 1.3-.2s.9-.3 1.3-.4.9-.3 1.3-.4c.2-.1.4-.1.7-.2.2 0 .5-.1.7 0h-.7c-.2 0-.4.1-.7.2-.4.1-.9.3-1.3.5s-.9.3-1.3.4-.9.2-1.4.2c-.2 0-.5 0-.7-.1s-.4-.2-.6-.4-.3-.4-.4-.6-.1-.5-.2-.7c0-.5.1-.9.2-1.4a3.79 3.79 0 0 1 .6-1.3l.4.4z"/><path d="M13.7 35.2c-.3.4-.5.8-.7 1.2a3.08 3.08 0 0 0-.3 1.3c0 .2.1.4.2.6 0 .1.1.2.2.3l.1.1.1.1c.2.1.4.2.6.2s.4 0 .7-.1l1.3-.3c.4-.1.9-.3 1.3-.4s.9-.2 1.4-.2c.2 0 .5 0 .7.1l.6.3-.6-.3c-.2-.1-.5-.1-.7-.1-.5 0-.9.1-1.4.2-.4.1-.9.3-1.3.4s-.9.3-1.3.4c-.2 0-.5.1-.7.1s-.5 0-.7-.2c-.4-.3-.6-.8-.7-1.3 0-.5.1-1 .2-1.4.2-.4.4-.9.7-1.2l.3.2z"/></g><g class="DK"><path d="M15 25.3c-.5-.4-2.5-1.1-3 .6s-.3 3.6-.3 3.6 2.1.4 3.9-.2l-.1-2.5c.1-.9-.1-1.2-.5-1.5z"/><path d="M16.6 36c-.3 0-3.7 1.9-4.6 1.7-.1 0-.7-.2-.7-.9l.2-5.7c0-.4.2-.7.5-.9s.6-.3.8-.4c.1 0 .9-.1 1.2-.2.5 0 1.5 0 2 .3.5.4 1.6 6.1.6 6.1z"/></g><linearGradient id="AX" gradientUnits="userSpaceOnUse" x1="16.371" y1="30.9" x2="11.282" y2="30.9"><stop offset="0" stop-color="#5752d0"/><stop offset="1" stop-color="#7f7cf9"/></linearGradient><path d="M16.2 30.9c0 .1-.1.1-.2.1s-.1-.1-.2-.1c0-.1-.1-.1-.2-.1s-.2.1-.2.1c0 .1-.1.1-.2.1s-.1-.1-.2-.1c0-.1-.1-.1-.2-.1s-.2.1-.2.1c0 .1-.1.1-.2.1s-.1-.1-.2-.1c0-.1-.1-.1-.2-.1s-.2.1-.2.1c0 .1-.1.1-.2.1s-.1-.1-.2-.1c0-.1-.1-.1-.2-.1s-.2.1-.2.1c0 .1-.1.1-.2.1s-.1-.1-.2-.1c0-.1-.1-.1-.2-.1s-.2.1-.2.1c0 .1-.1.1-.2.1s-.1-.1-.2-.1c0-.1-.1-.1-.2-.1s-.2.1-.2.1c0 .1-.1.1-.2.1s-.1-.1-.2-.1v.1c0 .1.1.1.2.1s.2-.1.2-.1c0-.1.1-.1.2-.1s.1.1.2.1c0 .1.1.1.2.1s.2-.1.2-.1c0-.1.1-.1.2-.1s.1.1.2.1c0 .1.1.1.2.1s.2-.1.2-.1c0-.1.1-.1.2-.1s.1.1.2.1c0 .1.1.1.2.1s.2-.1.2-.1c0-.1.1-.1.2-.1s.1.1.2.1c0 .1.1.1.2.1s.2-.1.2-.1c0-.1.1-.1.2-.1s.1.1.2.1c0 .1.1.1.2.1s.2-.1.2-.1c0-.1.1-.1.2-.1s.1.1.2.1c0 .1.1.1.2.1.1-.1.2-.1.2-.2.1 0 .1-.1.2-.1v-.1c-.1 0-.2.1-.2.2z" fill="url(#AX)"/><linearGradient id="AY" gradientUnits="userSpaceOnUse" x1="16.707" y1="32.3" x2="11.313" y2="32.3"><stop offset="0" stop-color="#5752d0"/><stop offset="1" stop-color="#7f7cf9"/></linearGradient><path d="M16.5 32.3c0 .1-.1.1-.2.1s-.1-.1-.2-.1c0-.1-.1-.1-.2-.1s-.2.1-.2.1c0 .1-.1.1-.2.1s-.1-.1-.2-.1c0-.1-.1-.1-.2-.1s-.2.1-.2.1c0 .1-.1.1-.2.1s-.1-.1-.2-.1c0-.1-.1-.1-.2-.1s-.2.1-.2.1c0 .1-.1.1-.2.1s-.1-.1-.2-.1c0-.1-.1-.1-.2-.1s-.2.1-.2.1c0 .1-.1.1-.2.1s-.1-.1-.2-.1c0-.1-.1-.1-.2-.1s-.2.1-.2.1c0 .1-.1.1-.2.1s-.1-.1-.2-.1c0-.1-.1-.1-.2-.1s-.2.1-.2.1c0 .1-.1.1-.2.1s-.1-.1-.2-.1c0-.1-.1-.1-.2-.1v.1l.1.1c0 .1.1.1.2.1s.2-.1.2-.1c0-.1.1-.1.2-.1s.1.1.2.1c0 .1.1.1.2.1s.2-.1.2-.1c0-.1.1-.1.2-.1s.1.1.2.1c0 .1.1.1.2.1s.2-.1.2-.1c0-.1.1-.1.2-.1s.1.1.2.1c0 .1.1.1.2.1s.2-.1.2-.1c0-.1.1-.1.2-.1s.1.1.2.1c0 .1.1.1.2.1s.2-.1.2-.1c0-.1.1-.1.2-.1s.1.1.2.1c0 .1.1.1.2.1s.2-.1.2-.1c0-.1.1-.1.2-.1s.1.1.2.1c0 .1.1.1.2.1.2 0 .3-.1.3-.2.1 0 .1-.1.2-.1v-.1c-.1 0-.2.1-.2.2z" fill="url(#AY)"/><linearGradient id="AZ" gradientUnits="userSpaceOnUse" x1="16.769" y1="33.312" x2="11.456" y2="34.245"><stop offset="0" stop-color="#5752d0"/><stop offset="1" stop-color="#7f7cf9"/></linearGradient><path d="M11.8 34.3h0c.2 0 .2-.1.2-.2s.1-.1.1-.1c.1 0 .1 0 .2.1s.1.1.2.1.2-.1.2-.2.1-.1.1-.1c.1 0 .1 0 .2.1s.1.1.2.1.2-.1.2-.2.1-.1.1-.1c.1 0 .1 0 .2.1s.1.1.2.1.2-.1.2-.2.1-.1.1-.1c.1 0 .1 0 .2.1s.1.1.2.1.2-.1.2-.2.1-.1.1-.1c.1 0 .1 0 .2.1s.1.1.2.1.2-.1.2-.2.1-.1.1-.1c.1 0 .1 0 .2.1s.1.1.2.1.2-.1.2-.2.1-.1.1-.1v-.1c-.1 0-.2.1-.2.2s-.1.1-.1.1c-.1 0-.1 0-.2-.1s-.1-.1-.2-.1-.2.1-.2.2-.1.1-.1.1c-.1 0-.1 0-.2-.1s-.1-.1-.2-.1-.2.1-.2.2-.1.1-.1.1c-.1 0-.1 0-.2-.1s-.1-.1-.2-.1-.2.1-.2.2-.1.1-.1.1c-.1 0-.1 0-.2-.1s-.1-.1-.2-.1-.2.1-.2.2-.1.1-.1.1c-.1 0-.1 0-.2-.1s-.1-.1-.2-.1-.2.1-.2.2-.1.1-.1.1c-.1 0-.1 0-.2-.1s-.1-.1-.2-.1-.2.1-.2.2c.1.1 0 .1-.1.2l-.2-.2c-.1-.1-.1-.1-.2-.1v.1c.1 0 .1 0 .2.1s.1.1.2.1z" fill="url(#AZ)"/><linearGradient id="Aa" gradientUnits="userSpaceOnUse" x1="-65.161" y1="-46.62" x2="-59.766" y2="-46.62" gradientTransform="matrix(-1.0324 0.3953 -0.5166 -1.349 -74.5113 -2.929)"><stop offset="0" stop-color="#5752d0"/><stop offset="1" stop-color="#7f7cf9"/></linearGradient><path d="M11.7 36.4h0c.2-.1.2-.2.2-.3s0-.2.1-.2.2 0 .2.1c.1.1.2.2.3.1.1 0 .1-.2.2-.3 0-.1 0-.2.1-.2s.2 0 .2.1c.1.1.2.2.3.1.1 0 .1-.2.2-.3 0-.1 0-.2.1-.2s.2 0 .2.1c.1.1.2.2.3.1.1 0 .1-.2.2-.3 0-.1 0-.2.1-.2s.2 0 .2.1c.1.1.2.2.3.1.1 0 .1-.2.2-.3 0-.1 0-.2.1-.2s.2 0 .2.1c.1.1.2.2.3.1.1 0 .1-.2.2-.3 0-.1 0-.2.1-.2s.2 0 .2.1c.1.1.2.2.3.1.1 0 .1-.2.2-.3 0-.1 0-.2.1-.2V34c-.1 0-.1.2-.2.3 0 .1 0 .2-.1.2s-.2 0-.2-.1c-.1-.1-.2-.2-.3-.1-.1 0-.1.2-.2.3 0 .1 0 .2-.1.2s-.2 0-.2-.1c-.1-.1-.2-.2-.3-.1-.1 0-.1.2-.2.3 0 .1 0 .2-.1.2s-.2 0-.2-.1c-.1-.1-.2-.2-.3-.1-.1 0-.1.2-.2.3 0 .1 0 .2-.1.2s-.2 0-.2-.1c-.1-.1-.2-.2-.3-.1-.1 0-.1.2-.2.3 0 .1 0 .2-.1.2s-.2 0-.2-.1c-.1-.1-.2-.2-.3-.1-.1 0-.1.2-.2.3 0 .1 0 .2-.1.2s-.2 0-.2-.1c-.1-.1-.2-.2-.3-.1-.1 0-.1.2-.2.3 0 .1 0 .2-.1.3l-.2-.2c-.1-.1-.2-.2-.3-.1v.1c.1 0 .2 0 .2.1.1.1.2.1.3.1z" fill="url(#Aa)"/><linearGradient id="Ab" gradientUnits="userSpaceOnUse" x1="17.467" y1="34.035" x2="17.233" y2="35.105"><stop offset="0" stop-color="#f4a999"/><stop offset="1" stop-color="#e8856f"/></linearGradient><path d="M14.8 33.3c.7 0 3.4 1 4 .7.5-.3.7 0 1-.2.2-.2.3 0 .2.1a.76.76 0 0 1-.4.2s.5.1.6.2c0 0 .5-.4.7-.2.1.1-.2.3-.4.4s-.1.2-.3.2c0 0 0 .2-.2.3 0 0-.2.1-.3.1s-1-.2-1.3-.3c-.7-.1-2.6 0-3.8-.1-1 0-.7-1.3.2-1.4z" fill="url(#Ab)"/><linearGradient id="Ac" gradientUnits="userSpaceOnUse" x1="14.45" y1="29.319" x2="13.397" y2="29.037"><stop offset="0" stop-color="#f4a999"/><stop offset=".344" stop-color="#f3a696"/><stop offset=".619" stop-color="#f09e8c"/><stop offset=".869" stop-color="#eb8f7b"/><stop offset="1" stop-color="#e8856f"/></linearGradient><path d="M14.2 30.2c-.8-.1-1.2-.4-1.2-.4.3-.3.2-1.8.2-1.8l1.3.8c-.1.6.2.9.2.9.1.3-.5.5-.5.5z" fill="url(#Ac)"/><linearGradient id="Ad" gradientUnits="userSpaceOnUse" x1="15.051" y1="27.022" x2="13.216" y2="28.114"><stop offset="0" stop-color="#f4a999"/><stop offset=".344" stop-color="#f3a696"/><stop offset=".619" stop-color="#f09e8c"/><stop offset=".869" stop-color="#eb8f7b"/><stop offset="1" stop-color="#e8856f"/></linearGradient><path d="M14.4 26c.9.2 1.1.6 1 1.4-.1 1.1-.5 1.9-1.5 1.5-1.4-.6-.9-3.2.5-2.9z" fill="url(#Ad)"/><path d="M14.7 27.5l.2.4s-.1.1-.2 0v-.4z" class="DT"/><path d="M14.1 26.9h0c-.1 0-.1 0 0 0 .1-.2.4-.2.4-.2h0 0c-.1.1-.3.1-.4.2h0zm1.3.1h0c-.2-.1-.3-.1-.3-.1h0 0c0-.1.1-.1.3.1 0-.1 0 0 0 0h0z" class="DK"/><linearGradient id="Ae" gradientUnits="userSpaceOnUse" x1="14.822" y1="26.638" x2="12.987" y2="27.729"><stop offset="0" stop-color="#f4a999"/><stop offset=".344" stop-color="#f3a696"/><stop offset=".619" stop-color="#f09e8c"/><stop offset=".869" stop-color="#eb8f7b"/><stop offset="1" stop-color="#e8856f"/></linearGradient><path d="M13.4 27.7c0-.2 0-.5-.3-.5s-.6.7.1.9c0 0 .1-.1.2-.4z" fill="url(#Ae)"/><g class="DK"><path d="M14.5 26.1l-1.1 1.5c0-1.4.4-2 .4-2s1.4-.6 1.9.2c.5.9 0 1.8 0 1.8s0-1.2-1.2-1.5zm-.1 1.1c0 .1 0 .1-.1.1l-.1-.1c0-.1 0-.1.1-.1 0 0 .1 0 .1.1z"/><path d="M14.3 27.1l.1-.1-.1.1zm.9.1c0 .1 0 .1-.1.1l-.1-.1c0-.1 0-.1.1-.1s.1 0 .1.1z"/><path d="M15.1 27.1l.1-.1s0 .2-.1.1z"/></g><linearGradient id="Af" gradientUnits="userSpaceOnUse" x1="14.976" y1="28.4" x2="14.294" y2="28.4"><stop offset="0" stop-color="#d82c53"/><stop offset="1" stop-color="#ff5774"/></linearGradient><path d="M15 28.2s-.3.3-.7 0c0 0 0 .4.4.4.3 0 .3-.4.3-.4z" fill="url(#Af)"/><path d="M15 28.2s-.3.2-.7 0c0 0 .1.2.4.2.2 0 .3-.2.3-.2z" class="DM"/><linearGradient id="Ag" gradientUnits="userSpaceOnUse" x1="14.976" y1="28.194" x2="14.294" y2="28.194"><stop offset="0" stop-color="#d82c53"/><stop offset="1" stop-color="#ff5774"/></linearGradient><path d="M15 28.2s-.3.2-.7 0c0 0 .1 0 .4-.1.2 0 .3.1.3.1z" fill="url(#Ag)"/><path d="M11.7 30.5c-.7.8 1.1 4.4 2.5 4.5s1.6-1.9 1-2.1c-.2-.1-1.5-2.2-2-2.6-.9-.4-1.3 0-1.5.2z" class="DJ"/><linearGradient id="Ah" gradientUnits="userSpaceOnUse" x1="91.551" y1="42.522" x2="92.697" y2="42.522"><stop offset="0" stop-color="#c8d6f9"/><stop offset="1" stop-color="#acb5e8"/></linearGradient><path d="M92 41.8c-.2 0-.4.2-.4.4v.5c.1.2.2.4.4.5h0c.1.1.3 0 .4 0 .1-.1.2-.2.2-.3.1-.3.1-.6-.1-.8-.1-.3-.3-.3-.5-.3z" fill="url(#Ah)"/><linearGradient id="Ai" gradientUnits="userSpaceOnUse" x1="92.004" y1="44.7" x2="93.641" y2="44.7"><stop offset="0" stop-color="#c8d6f9"/><stop offset="1" stop-color="#acb5e8"/></linearGradient><path d="M93.3 44.2c-.1 0-.1-.1-.2-.1-.2 0-.4 0-.6.2-.2.1-.3.3-.4.5v.1c.2.2.6.4.9.4h.2c.2 0 .3-.2.4-.3s.1-.2.1-.3c-.1-.3-.2-.5-.4-.5z" fill="url(#Ai)"/><linearGradient id="Aj" gradientUnits="userSpaceOnUse" x1="90.775" y1="44.113" x2="92.013" y2="44.113"><stop offset="0" stop-color="#c8d6f9"/><stop offset="1" stop-color="#acb5e8"/></linearGradient><path d="M91.4 43.5c-.2-.1-.4-.1-.5 0s-.1.2-.1.4c0 .3.2.5.4.6s.5.2.7.3h0c.2-.5-.1-1-.5-1.3z" fill="url(#Aj)"/><linearGradient id="Ak" gradientUnits="userSpaceOnUse" x1="89.9" y1="45.863" x2="91.2" y2="45.863"><stop offset="0" stop-color="#c8d6f9"/><stop offset="1" stop-color="#acb5e8"/></linearGradient><path d="M91 45.4c-.1-.1-.1-.2-.2-.2-.1-.1-.3-.1-.5 0-.1 0-.1.1-.2.1-.2.2-.2.4-.2.6.1.2.2.4.4.5s.4.2.7.2l.1-.1c.1-.2.1-.5.1-.7-.1-.1-.1-.3-.2-.4z" fill="url(#Ak)"/><linearGradient id="Al" gradientUnits="userSpaceOnUse" x1="91.086" y1="46.729" x2="92.829" y2="46.729"><stop offset="0" stop-color="#c8d6f9"/><stop offset="1" stop-color="#acb5e8"/></linearGradient><path d="M92.6 46.3c-.2-.1-.5-.2-.8-.1s-.5.2-.7.5h0c.1.2.2.4.4.5s.4.1.7.1c.2 0 .4 0 .5-.2 0 0 .1-.1.1-.2.1-.1.1-.3.1-.4-.1-.1-.2-.2-.3-.2z" fill="url(#Al)"/><linearGradient id="Am" gradientUnits="userSpaceOnUse" x1="89.181" y1="47.4" x2="90.244" y2="47.4"><stop offset="0" stop-color="#c8d6f9"/><stop offset="1" stop-color="#acb5e8"/></linearGradient><path d="M89.6 46.6c-.1 0-.2 0-.3.1s-.1.3-.1.5c.1.4.3.8.6 1h.1c.1-.2.2-.5.3-.7v-.3a.65.65 0 0 0-.6-.6z" fill="url(#Am)"/><linearGradient id="An" gradientUnits="userSpaceOnUse" x1="89.954" y1="48.221" x2="91.717" y2="48.221"><stop offset="0" stop-color="#c8d6f9"/><stop offset="1" stop-color="#acb5e8"/></linearGradient><path d="M91.2 47.7c-.1 0-.2 0-.3-.1-.2 0-.4.1-.5.2-.2.1-.3.2-.5.4h0c0 .2.3.4.5.5.3.1.6.2.8.1l.3-.3c.1-.1.1-.2.1-.4.1-.2-.2-.3-.4-.4z" fill="url(#An)"/><linearGradient id="Ao" gradientUnits="userSpaceOnUse" x1="87.86" y1="48.687" x2="89.287" y2="48.687"><stop offset="0" stop-color="#c8d6f9"/><stop offset="1" stop-color="#acb5e8"/></linearGradient><path d="M89 48.3c-.2-.2-.5-.4-.8-.3-.1 0-.3.1-.3.3-.1.2.1.4.2.6.2.2.4.5.7.5h.2.2 0c0-.1.1-.2.1-.3v-.2c-.1-.3-.2-.4-.3-.6z" fill="url(#Ao)"/><linearGradient id="Ap" gradientUnits="userSpaceOnUse" x1="89.175" y1="49.841" x2="90.824" y2="49.841"><stop offset="0" stop-color="#c8d6f9"/><stop offset="1" stop-color="#acb5e8"/></linearGradient><path d="M90.4 49.3c-.4-.1-.9-.1-1.2.2h.1c-.1.2 0 .3.1.5.1.1.3.2.4.3.2.1.4.2.6.1s.3-.2.3-.4c0-.1.1-.2.1-.3 0-.3-.2-.4-.4-.4z" fill="url(#Ap)"/><linearGradient id="Aq" gradientUnits="userSpaceOnUse" x1="91.993" y1="44.622" x2="93.39" y2="44.622"><stop offset="0" stop-color="#c8d6f9"/><stop offset="1" stop-color="#acb5e8"/></linearGradient><path d="M93.4 44.5c-.2 0-.5.1-.7.1s-.4.1-.7.1h0c.2.1.4 0 .7 0 .2 0 .5 0 .7-.2 0 .1 0 0 0 0z" fill="url(#Aq)"/><linearGradient id="Ar" gradientUnits="userSpaceOnUse" x1="91.119" y1="44.3" x2="91.956" y2="44.3"><stop offset="0" stop-color="#c8d6f9"/><stop offset="1" stop-color="#acb5e8"/></linearGradient><path d="M91.9 44.7c-.2 0-.4-.3-.5-.4s-.2-.2-.3-.4h0c.1.2.3.4.5.6.1.1.2.2.3.2h0z" fill="url(#Ar)"/><linearGradient id="As" gradientUnits="userSpaceOnUse" x1="90.369" y1="46" x2="91.051" y2="46"><stop offset="0" stop-color="#c8d6f9"/><stop offset="1" stop-color="#acb5e8"/></linearGradient><path d="M90.4 45.5h0c.2.2.3.4.4.6.1.1.1.3.2.4h0c-.1-.3-.3-.8-.6-1z" fill="url(#As)"/><linearGradient id="At" gradientUnits="userSpaceOnUse" x1="91.121" y1="46.6" x2="92.63" y2="46.6"><stop offset="0" stop-color="#c8d6f9"/><stop offset="1" stop-color="#acb5e8"/></linearGradient><path d="M91.9 46.6c-.3 0-.5.1-.8-.1h0c.2.1.4.1.6.1h.5c.2 0 .3.1.5.1h0c-.3 0-.5-.1-.8-.1z" fill="url(#At)"/><linearGradient id="Au" gradientUnits="userSpaceOnUse" x1="89.53" y1="47.65" x2="90.005" y2="47.65"><stop offset="0" stop-color="#c8d6f9"/><stop offset="1" stop-color="#acb5e8"/></linearGradient><path d="M89.8 47.6c-.1-.2-.1-.4-.3-.6h0l.3.9c0 .1 0 .4.2.4h0c-.2-.2-.1-.6-.2-.7z" fill="url(#Au)"/><linearGradient id="Av" gradientUnits="userSpaceOnUse" x1="89.985" y1="48.172" x2="91.448" y2="48.172"><stop offset="0" stop-color="#c8d6f9"/><stop offset="1" stop-color="#acb5e8"/></linearGradient><path d="M91.4 48.2c-.2-.1-.4-.1-.6-.1s-.6.2-.8.1h0c.2.1.4 0 .6 0h.8c0 .1.1 0 0 0z" fill="url(#Av)"/><linearGradient id="Aw" gradientUnits="userSpaceOnUse" x1="88.069" y1="48.878" x2="89.309" y2="48.878"><stop offset="0" stop-color="#c8d6f9"/><stop offset="1" stop-color="#acb5e8"/></linearGradient><path d="M88.1 48.4c0-.1 0 0 0 0 .4.3.9.5 1.2 1h.1c-.3-.6-.8-.8-1.3-1z" fill="url(#Aw)"/><linearGradient id="Ax" gradientUnits="userSpaceOnUse" x1="89.255" y1="49.6" x2="90.496" y2="49.6"><stop offset="0" stop-color="#c8d6f9"/><stop offset="1" stop-color="#acb5e8"/></linearGradient><path d="M90.5 49.8c-.2-.1-.4-.1-.6-.2s-.4-.2-.6-.2h0c.2 0 .5.1.7.2.1.2.3.2.5.2h0z" fill="url(#Ax)"/><linearGradient id="Ay" gradientUnits="userSpaceOnUse" x1="88.673" y1="46.913" x2="92.201" y2="46.913"><stop offset="0" stop-color="#c8d6f9"/><stop offset="1" stop-color="#acb5e8"/></linearGradient><path d="M92 42.4c.1.6.2 1.3.1 1.9-.1.7-.4 1.4-.7 2-.7 1.1-1.6 2.1-2.2 3.3-.3.6-.5 1.3-.4 1.9h0c0-2.8 3-4.5 3.4-7.2 0-.6 0-1.3-.2-1.9 0-.1 0-.1 0 0z" fill="url(#Ay)"/><linearGradient id="Az" gradientUnits="userSpaceOnUse" x1="82.929" y1="29.429" x2="80.867" y2="50.706"><stop offset="0" stop-color="#f0f0fb"/><stop offset="1" stop-color="#d2d7f6"/></linearGradient><path d="M79 25.5v26h6.1V48l-2.3-19z" fill="url(#Az)"/><g class="DL"><path d="M83.4 48h.9l-.4-3.6zm-.6-19.1L79 25.5h0 0v26h0V25.6l3.8 3.3L85 48v3.5h.1V48l-2.3-19.1c0 .1 0 0 0 0z"/><path d="M82.8 28.9h0l-3.7 22.6h.1l3.6-22.6c.1.1 0 0 0 0z"/><path d="M83.4 33.5h0c-.1 0-.1 0 0 0l-.5 3-1.1-8.6h0 0l-2.7 15.5h0l1.3 8h.1l-1.3-8 2.6-15.3 1.1 8.6-2.3 14.7h.1L82.9 37l1.9 14.4h.1L83 36.7l.4-3.2z"/><path d="M83.8 37.5s0 .1 0 0l-1 6.6-2.4-17.4h0 0L79 34.4h0l2.6 17h.1l-2.6-17 1.4-7.5 2.4 17.4-1 7.1h.1l1-6.8 1 6.8h.1l-1-7.1.7-6.8c.1.1.1 0 0 0z"/><path d="M84.7 45.1h0l-.8 6.4h.1l.7-6.4c.1.1.1 0 0 0zM79 25.5c-.1 0-.1 0 0 0l3.8 26h.1l-3.9-26h0z"/><path d="M84.3 41.5h0l-1.4 10.1h.1l1.3-10.1h0zM79 29.9h0c-.1.1-.1.1 0 0l4.3 3.1h0 0v-.1l-4.3-3zm0 4.5s-.1 0 0 0c-.1 0-.1 0 0 0l4.8 2.6h0 0v-.1L79 34.4zm5.2 6.3L79 38.8h0v.1l5.2 1.8c0 .1 0 .1 0 0 0 .1 0 .1 0 0h0z"/><path d="M84.6 44.4l-5.6-.9h0v.1l5.6.8c0 .1 0 .1 0 0 .1.1.1.1 0 0h0zm.5 3.6l-6.1-.2h0 0 0l6.1.2c0 .1 0 .1 0 0 0 .1 0 .1 0 0h0z"/></g><linearGradient id="BA" gradientUnits="userSpaceOnUse" x1="74.896" y1="31.983" x2="74.243" y2="51.455"><stop offset="0" stop-color="#c8d6f9"/><stop offset="1" stop-color="#9da3c4"/></linearGradient><path d="M69.6 48v3.5H79v-26L73.1 29z" fill="url(#BA)"/><linearGradient id="BB" gradientUnits="userSpaceOnUse" x1="69.575" y1="38.5" x2="79" y2="38.5"><stop offset="0" stop-color="#f0f0fb"/><stop offset="1" stop-color="#d2d7f6"/></linearGradient><path d="M78.9 25.5L73 28.9h0L69.6 48h0v3.5h.1V48l3.5-19 5.8-3.4v25.9h0l-.1-26h0 0z" fill="url(#BB)"/><linearGradient id="BC" gradientUnits="userSpaceOnUse" x1="73.032" y1="40.2" x2="78.726" y2="40.2"><stop offset="0" stop-color="#f0f0fb"/><stop offset="1" stop-color="#d2d7f6"/></linearGradient><path d="M73.1 28.9c-.1 0-.1.1 0 0l5.6 22.6h.1l-5.7-22.6h0z" fill="url(#BC)"/><linearGradient id="BD" gradientUnits="userSpaceOnUse" x1="70.024" y1="39.8" x2="79" y2="39.8"><stop offset="0" stop-color="#f0f0fb"/><stop offset="1" stop-color="#d2d7f6"/></linearGradient><path d="M74.9 27.9s-.1 0 0 0c-.1 0-.1 0 0 0L73 36.7l-.7-3.1h0v.1l.8 3.3-3 14.7h.1L73 37l3.4 14.5h.1L73 36.8l1.8-8.7 4.1 15.4-2 8h.1l2-8h0l-4.1-15.6z" fill="url(#BD)"/><linearGradient id="BE" gradientUnits="userSpaceOnUse" x1="70.093" y1="48.3" x2="71.387" y2="48.3"><stop offset="0" stop-color="#f0f0fb"/><stop offset="1" stop-color="#d2d7f6"/></linearGradient><path d="M70.1 45.1s0 .1 0 0l1.2 6.4h.1l-1.3-6.4h0z" fill="url(#BE)"/><linearGradient id="BF" gradientUnits="userSpaceOnUse" x1="71.468" y1="39.163" x2="79.042" y2="39.163"><stop offset="0" stop-color="#f0f0fb"/><stop offset="1" stop-color="#d2d7f6"/></linearGradient><path d="M76.9 26.8c0-.1-.1-.1 0 0-.1-.1-.1-.1 0 0L73 44.3l-1.5-6.7h0v.1l1.5 6.8-1.5 7.1h.1l1.5-6.9 1.5 6.9h.1l-1.6-7.1L76.9 27l2.1 7.6-4.1 17h.1l4.1-17h0l-2.2-7.8z" fill="url(#BF)"/><linearGradient id="BG" gradientUnits="userSpaceOnUse" x1="70.758" y1="46.55" x2="72.946" y2="46.55"><stop offset="0" stop-color="#f0f0fb"/><stop offset="1" stop-color="#d2d7f6"/></linearGradient><path d="M70.8 41.5h0l2.1 10.1h.1l-2.2-10.1h0z" fill="url(#BG)"/><linearGradient id="BH" gradientUnits="userSpaceOnUse" x1="73.109" y1="38.5" x2="79" y2="38.5"><stop offset="0" stop-color="#f0f0fb"/><stop offset="1" stop-color="#d2d7f6"/></linearGradient><path d="M79 25.5s-.1 0 0 0l-5.9 26h.1l5.8-26h0z" fill="url(#BH)"/><linearGradient id="BI" gradientUnits="userSpaceOnUse" x1="72.308" y1="31.45" x2="79" y2="31.45"><stop offset="0" stop-color="#f0f0fb"/><stop offset="1" stop-color="#d2d7f6"/></linearGradient><path d="M78.9 29.9l-6.6 3v.1h0 0l6.6-3.1c.1.1.1.1 0 0h0z" fill="url(#BI)"/><linearGradient id="BJ" gradientUnits="userSpaceOnUse" x1="71.58" y1="35.75" x2="79" y2="35.75"><stop offset="0" stop-color="#f0f0fb"/><stop offset="1" stop-color="#d2d7f6"/></linearGradient><path d="M79 34.4L71.7 37v.1h0 0l7.3-2.7c0 .1 0 0 0 0h0z" fill="url(#BJ)"/><linearGradient id="BK" gradientUnits="userSpaceOnUse" x1="70.894" y1="39.8" x2="79" y2="39.8"><stop offset="0" stop-color="#f0f0fb"/><stop offset="1" stop-color="#d2d7f6"/></linearGradient><path d="M79 38.8l-8 1.9v.1h0 0l8-2c0 .1 0 0 0 0h0z" fill="url(#BK)"/><linearGradient id="BL" gradientUnits="userSpaceOnUse" x1="70.228" y1="43.95" x2="78.966" y2="43.95"><stop offset="0" stop-color="#f0f0fb"/><stop offset="1" stop-color="#d2d7f6"/></linearGradient><path d="M78.9 43.5l-8.7.9h0 0 0l8.7-.9h0 0z" fill="url(#BL)"/><linearGradient id="BM" gradientUnits="userSpaceOnUse" x1="69.575" y1="47.9" x2="78.966" y2="47.9"><stop offset="0" stop-color="#f0f0fb"/><stop offset="1" stop-color="#d2d7f6"/></linearGradient><path d="M78.9 47.8l-9.3.2h0 0 0l9.3-.2c0 .1.1.1 0 0h0z" fill="url(#BM)"/><radialGradient id="BN" cx="-462.222" cy="-8330.625" r="5.134" gradientTransform="matrix(-0.636 -1.4625 -0.6737 1.4258 -5831.4448 11242.3291)" gradientUnits="userSpaceOnUse"><stop offset="0" stop-color="#1d1273"/><stop offset=".268" stop-color="#5d559a"/><stop offset=".776" stop-color="#d1cee2"/><stop offset="1" stop-color="#fff"/></radialGradient><path d="M77.9 48.1c1.9-4 1.9-10.5.1-14.7-1.8-4.1-4.8-4.3-6.7-.3s-1.9 10.5-.1 14.7c1.9 4.1 4.8 4.3 6.7.3z" fill="url(#BN)" class="DN DR"/><radialGradient id="BO" cx="-427.275" cy="-8294.58" r="5.134" gradientTransform="matrix(-0.9185 -1.4625 -0.9732 1.4258 -8418.6494 11242.4688)" gradientUnits="userSpaceOnUse"><stop offset="0" stop-color="#1d1273"/><stop offset=".268" stop-color="#5d559a"/><stop offset=".776" stop-color="#d1cee2"/><stop offset="1" stop-color="#fff"/></radialGradient><path d="M51 48.1c2.7-4 2.8-10.5.2-14.7-2.6-4.1-6.9-4.3-9.6-.3s-2.8 10.5-.2 14.7c2.6 4.1 6.9 4.3 9.6.3z" fill="url(#BO)" class="DN DR"/><g class="DJ"><path d="M15.9 35.4h-.4l-.1.2h.6zm.7 0h-.5v.2h.6z"/><use xlink:href="#Ct"/><use xlink:href="#Ct" x="0.7"/><use xlink:href="#Ct" x="1.4"/><path d="M19.5 35.4H19v.2h.6z"/><use xlink:href="#Ct" x="2.9"/><use xlink:href="#Ct" x="3.6"/><use xlink:href="#Ct" x="4.3"/><use xlink:href="#Ct" x="5"/><path d="M23.1 35.4h-.5v.2h.6z"/><use xlink:href="#Ct" x="6.5"/><path d="M24.5 35.4H24v.2h.5z"/><use xlink:href="#Ct" x="7.9"/><path d="M25.9 35.4h-.5l-.1.2h.6z"/></g><linearGradient id="BP" gradientUnits="userSpaceOnUse" x1="14.385" y1="35.75" x2="27.325" y2="35.75"><stop offset="0" stop-color="#201c8b"/><stop offset="1" stop-color="#5451a1"/></linearGradient><path d="M14.4 35.6h12.9v.3H14.4z" fill="url(#BP)"/><path d="M22.6 35.9h5.1c.1-.4.3-2.1.3-2.4h-3.6c0 .2 0 1.1-.1 1.3 0 .2-.2.6-.7.8-.3.1-.7.2-1.1.2 0 0 0 .1.1.1z" class="DP"/><path d="M25.5 35.8s.5 0 .9.1h0 3.5c.1 0 .1-.1 0-.1-.4-.1-.8-.1-1.1-.2-.5-.2-.6-.5-.7-.8 0-.2-.1-1.1-.1-1.3h-3.6c0 .3.1 1.4.1 1.5.2.5.5.8 1 .8z" class="DJ"/><g class="DP"><path d="M28.5 35.4c-.3-.2-.3-.6-.3-.6 0-.2-.1-1.1-.1-1.3h-3.6c0 .3.1 1.2.1 1.2l3.9.7z"/><path d="M18.6 34.1H33c.3 0 .4-.3.5-.5l.6-9c0-.3-.2-.5-.4-.5H19.4c-.2 0-.5.2-.6.5l-.6 9c0 .2.1.5.4.5z"/></g><linearGradient id="BQ" gradientUnits="userSpaceOnUse" x1="18.538" y1="29.15" x2="34.138" y2="29.15"><stop offset="0" stop-color="#201c8b"/><stop offset="1" stop-color="#5451a1"/></linearGradient><path d="M18.9 34.1H33c.2 0 .4-.2.5-.5l.6-8.9c0-.3-.2-.5-.4-.5H19.6c-.2 0-.4.2-.5.5l-.6 8.9c0 .3.2.5.4.5z" fill="url(#BQ)"/><g class="DK"><path d="M18.9 34.1H33c.2 0 .4-.2.5-.5V33h-15v.6c0 .3.2.5.4.5z"/><path d="M22.8 34h7.6c.2 0 .3-.1.3-.3l.3-4.8c0-.1 0-.2-.1-.2-.1-.1-.1-.1-.2-.1h-7.6c-.2 0-.3.1-.3.3l-.3 4.8c0 .1 0 .2.1.2.1.1.1.1.2.1zm.2-5.1c0-.1.1-.2.2-.2h7.6.1v.1l-.3 4.8c0 .1-.1.2-.2.2h-7.6-.1v-.1l.3-4.8z"/></g><linearGradient id="BR" gradientUnits="userSpaceOnUse" x1="87.961" y1="32.583" x2="90.367" y2="32.583"><stop offset="0" stop-color="#c8d6f9"/><stop offset="1" stop-color="#acb5e8"/></linearGradient><path d="M89.6 31.5c-.4-.2-1.1-.6-1.4-.4s-.2 1.1-.1 1.5c0 .3.2.6.4.8.3.3 1 .6 1.3.7s.3-.2.4-.4.2-.5.2-.8c-.1-.6-.3-1.1-.8-1.4z" fill="url(#BR)"/><linearGradient id="BS" gradientUnits="userSpaceOnUse" x1="90.745" y1="36.05" x2="93.847" y2="36.05"><stop offset="0" stop-color="#c8d6f9"/><stop offset="1" stop-color="#acb5e8"/></linearGradient><path d="M92.6 34.9h-.5c-.4.1-.7.4-.9.8s-.3.8-.5 1.2v.2c.6.2 1.3.2 1.9 0a.76.76 0 0 0 .4-.2c.3-.2.4-.6.5-.9.1-.2.4-.7.3-.9-.1-.4-.8-.2-1.2-.2z" fill="url(#BS)"/><linearGradient id="BT" gradientUnits="userSpaceOnUse" x1="87.633" y1="36.122" x2="90.735" y2="36.122"><stop offset="0" stop-color="#c8d6f9"/><stop offset="1" stop-color="#acb5e8"/></linearGradient><path d="M88.7 35.2c-.4 0-.9 0-1.1.3-.1.2.1.6.3.8.3.4.8.7 1.3.7.5.1 1 0 1.5 0l.1-.1c-.2-.9-1.1-1.6-2.1-1.7z" fill="url(#BT)"/><linearGradient id="BU" gradientUnits="userSpaceOnUse" x1="87.567" y1="39.85" x2="90.443" y2="39.85"><stop offset="0" stop-color="#c8d6f9"/><stop offset="1" stop-color="#acb5e8"/></linearGradient><path d="M89.3 38.8c-.2-.1-.4-.2-.6-.2-.3 0-.6.1-.8.3l-.3.3c-.2.4-.1.9.2 1.3s.7.5 1.2.6c.5 0 .9 0 1.3-.2v-.2c0-.5-.1-.9-.4-1.3 0-.2-.3-.4-.6-.6z" fill="url(#BU)"/><linearGradient id="BV" gradientUnits="userSpaceOnUse" x1="90.506" y1="40.184" x2="93.977" y2="40.184"><stop offset="0" stop-color="#c8d6f9"/><stop offset="1" stop-color="#acb5e8"/></linearGradient><path d="M93 39.1c-.6 0-1.1.1-1.6.4s-1.1 1.5-.8 1.6c.4 0 1.8.3 2.2.1.3-.1 1.2-.9 1.2-1 0-.3-.6-1.1-1-1.1z" fill="url(#BV)"/><linearGradient id="BW" gradientUnits="userSpaceOnUse" x1="87.294" y1="43.463" x2="89.698" y2="43.463"><stop offset="0" stop-color="#c8d6f9"/><stop offset="1" stop-color="#acb5e8"/></linearGradient><path d="M89.4 42.7c-.3-.6-1.1-.8-1.6-.6-.2.1-.4.2-.4.4-.1.3 0 .7.2 1 .5.6 1.2 1.1 1.9 1.4h.1c.1-.5.1-1 0-1.5 0-.3-.1-.5-.2-.7z" fill="url(#BW)"/><linearGradient id="BX" gradientUnits="userSpaceOnUse" x1="89.662" y1="43.95" x2="92.844" y2="43.95"><stop offset="0" stop-color="#c8d6f9"/><stop offset="1" stop-color="#acb5e8"/></linearGradient><path d="M91.6 42.8c-.2 0-.4 0-.5.1-.4.1-.6.4-.8.8l-.6 1h0c.3.4.8.4 1.3.4.6 0 1.2-.1 1.6-.5.2-.2.3-.5.3-.8 0-.2 0-.5-.1-.7-.3-.3-.8-.3-1.2-.3z" fill="url(#BX)"/><linearGradient id="BY" gradientUnits="userSpaceOnUse" x1="86.01" y1="46.626" x2="89.21" y2="46.626"><stop offset="0" stop-color="#c8d6f9"/><stop offset="1" stop-color="#acb5e8"/></linearGradient><path d="M88.8 46.3c-.2-.3-.4-.5-.7-.7-.5-.3-1.2-.3-1.7.1-.2.2-.4.5-.4.8 0 .4.4.7.7.9.5.3 1.1.6 1.6.4.2 0 .3-.1.4-.2a.76.76 0 0 1 .4-.2l.1-.1c0-.2 0-.4-.1-.5-.1-.3-.2-.4-.3-.5z" fill="url(#BY)"/><linearGradient id="BZ" gradientUnits="userSpaceOnUse" x1="89.164" y1="47.231" x2="92.379" y2="47.231"><stop offset="0" stop-color="#c8d6f9"/><stop offset="1" stop-color="#acb5e8"/></linearGradient><path d="M91.3 46.2c-.8.1-1.6.5-2.1 1.2h.2c0 .3.2.6.5.7s.6.2.9.2c.4 0 .9 0 1.2-.3.2-.2.3-.6.3-1 0-.2 0-.4-.1-.5-.1-.3-.6-.4-.9-.3z" fill="url(#BZ)"/><g class="DL"><path d="M93 35.5c-.4.2-.7.5-1.1.8s-.8.5-1.2.6v.1c.4-.1.8-.3 1.2-.6s.8-.5 1.1-.9h0zm-2.5 1.3c-.4.1-.8-.2-1.2-.4-.3-.1-.5-.3-.8-.4 0 0-.1 0 0 .1.4.3.9.5 1.3.7.2 0 .5.2.7 0h0zm-2.1 2.6s-.1.1 0 0c.4.3.9.5 1.2.9.2.2.4.5.7.6h0c-.4-.7-1.1-1.3-1.9-1.5zm5 .7c-.4 0-.9 0-1.4.2s-.9.5-1.5.5v.1c.4.1.7 0 1.1-.2.3-.1.5-.3.8-.4.4-.1.7-.1 1-.2 0 .1 0 0 0 0zm-3.7 4.5c-.4-.1-.6-.8-.9-1.1s-.5-.7-.9-.9h0c.4.5.8.8 1.2 1.4.2.3.3.8.6.6.1.1.1 0 0 0z"/><path d="M92.3 43.6c-.4 0-.8.2-1.2.3-.4.2-.9.7-1.4.7v.1c.4.1.7-.2 1-.4.5-.3 1-.5 1.6-.7.1 0 .1-.1 0 0zm-5.9 2.7h0c1 .2 2.1.2 2.9 1 .1.1.1 0 .1-.1-.9-.8-1.9-.8-3-.9z"/><path d="M91.8 47.1c-.4 0-.9.1-1.3.1s-.8 0-1.2.2v.1c.5-.1.9-.1 1.4-.1.4-.1.8-.1 1.1-.3h0z"/><path d="M90.6 36.1c-.3-1.3-.8-2.5-1.6-3.5-.1-.1-.2 0-.1.1.7 1 1.2 2.1 1.5 3.4s.3 2.7.2 4.1c-.4 2.6-1.3 5-1.4 7.6 0 1.3.1 2.6.7 3.8h.1c-2.1-5.2 1.9-10.4.6-15.5z"/></g><radialGradient id="Ba" cx="-211.866" cy="-8581.032" r="14.57" gradientTransform="matrix(-0.1442 -0.2803 -0.1528 0.2733 -1308.4026 2315.041)" gradientUnits="userSpaceOnUse"><stop offset="0" stop-color="#1d1273"/><stop offset=".268" stop-color="#5d559a"/><stop offset=".776" stop-color="#d1cee2"/><stop offset="1" stop-color="#fff"/></radialGradient><path d="M35.1 33.3c1.2-2.2 1.2-5.7.1-8-1.2-2.3-3.1-2.3-4.3-.2-1.2 2.2-1.2 5.7-.1 8 1.2 2.3 3.1 2.3 4.3.2z" opacity=".8" fill="url(#Ba)" class="DN"/><radialGradient id="Bb" cx="-244.247" cy="-8633.843" r="16.285" gradientTransform="matrix(-0.1442 -0.1563 -0.1528 0.1524 -1309.0144 1298.1088)" gradientUnits="userSpaceOnUse"><stop offset="0" stop-color="#1d1273"/><stop offset=".268" stop-color="#5d559a"/><stop offset=".776" stop-color="#d1cee2"/><stop offset="1" stop-color="#fff"/></radialGradient><path d="M47.5 22.9c1.3-1.3 1.4-3.6.1-5s-3.4-1.4-4.8-.1-1.4 3.6-.1 5 3.4 1.5 4.8.1z" fill="url(#Bb)"/><radialGradient id="Bc" cx="-156.336" cy="-8532.597" r="14.26" gradientTransform="matrix(-0.1442 -0.1563 -0.1528 0.1524 -1309.0144 1298.1088)" gradientUnits="userSpaceOnUse"><stop offset="0" stop-color="#1d1273"/><stop offset=".268" stop-color="#5d559a"/><stop offset=".776" stop-color="#d1cee2"/><stop offset="1" stop-color="#fff"/></radialGradient><path d="M19 24.3c1.2-1.2 1.2-3.1.1-4.4a2.9 2.9 0 0 0-4.2-.1c-1.2 1.2-1.2 3.1-.1 4.4 1.2 1.3 3 1.3 4.2.1z" fill="url(#Bc)"/><radialGradient id="Bd" cx="-478.242" cy="-8869.599" r="14.262" gradientTransform="matrix(-0.2355 -0.1513 -0.2497 0.1475 -2258.7981 1256.098)" gradientUnits="userSpaceOnUse"><stop offset="0" stop-color="#1d1273"/><stop offset=".268" stop-color="#5d559a"/><stop offset=".776" stop-color="#d1cee2"/><stop offset="1" stop-color="#fff"/></radialGradient><path d="M71.6 22c1.9-1.1 2-3 .1-4.2s-4.9-1.2-6.8-.1-2 3-.1 4.2c1.8 1.2 4.9 1.2 6.8.1z" fill="url(#Bd)"/><path d="M36.7 35.8c1.8.1 1.6-.9 1.6-1.2 0-.2-.1-1.4-.1-1.4h.3l2.9 2.6c-.3.1-3.4.1-4.7 0 0 .1 0 0 0 0z" class="DP"/><path d="M42.1 34.7c0 .2.2.6.7.8.6.2 2 .4 2 .4.1 0 0 .1 0 .1h-3.4l-1.9-.2c-.5-.1-.8-.4-.9-.9 0-.1-.1-1.5-.1-1.6h3.6c-.1 0-.1 1.1 0 1.4z" class="DJ"/><path d="M42.1 34.7h0l-3.6-.3c0-.4-.1-1.1-.1-1.1H42c0 0 0 1.1.1 1.4z" class="DK"/><path d="M32.5 24.1H47c.2 0 .6.2.6.5l.6 9.1c0 .3-.1.5-.4.5H33.2c-.3 0-.4-.3-.5-.5l-.6-9.1c0-.3.1-.5.4-.5z" class="DP"/><path d="M32.8 24.1h14.3c.2 0 .4.2.5.5l.6 9c0 .3-.2.5-.4.5H33.5c-.2 0-.4-.2-.5-.5l-.6-9c0-.3.2-.5.4-.5z" class="DJ"/><linearGradient id="Be" gradientUnits="userSpaceOnUse" x1="32.733" y1="29" x2="47.881" y2="29"><stop offset="0" stop-color="#5752d0"/><stop offset="1" stop-color="#7f7cf9"/></linearGradient><path d="M47.9 33.6H33.4l-.7-9.2h14.5z" fill="url(#Be)"/><path d="M33.9 25.2v.1h1.2v-.1z" class="DJ"/><path d="M33.9 25v.1h2.5V25zm-.1-.3l.1.1h1.9v-.1z" fill="#ebf7fa"/><path d="M35.2 25.2v.1h.3v-.1z" class="DJ"/><path d="M40.8 24.7h-.1-.1.1zm.2.2h-.1v-.1h.1zm-.9-.2H40h0zm.4 2.2h-.1-.1.1zm-.4 0H40h0zm.3-2.2h-.1 0zm.6.5h-.1v-.1h.1zm0 .6h0v-.1h0zm-2.4-1.1h-.1-.1.1zm2.5 1.4H41V26h.1zm0 .6h0l-.1-.1h.1zm0 .2h0 0 0 0 0c-.1 0-.1 0 0 0zm-.1-1.4h0l-.1-.1h.1zm.1.9H41v-.1h.1zm-.3.5h-.1-.1zm-2.4-.5h0v-.1h0zm0-.3h0l-.1-.1h.1zm0-.3h-.1v-.2l.1.1zm.1.9h-.1v-.1h0zm-.1-1.2l-.1-.1v-.1l.1.1zm.1 1.4h0 0 0 0 0 0zm-.2-2.1h0l-.1-.1h.1zm0 .4v-.1-.1.1zm.9-.5h-.1 0zm-.3 0h-.1 0zm.6 2.2h-.1 0zm.3-2.2h-.1 0zm-.3 0h-.1 0zm-.6 2.2h-.1 0zm.9 0h-.1 0zm-.6 0h-.1 0zm2.6 2.7h4.7c.1 0 .1 0 .1.1l.1.1.2 2.8c0 .1-.1.2-.2.2H42c-.1 0-.1 0-.1-.1l-.1-.1-.2-2.8c0-.1.1-.2.2-.2z" class="DL"/><linearGradient id="Bf" gradientUnits="userSpaceOnUse" x1="41.6" y1="29.9" x2="46.711" y2="29.9"><stop offset="0" stop-color="#ff6279"/><stop offset="1" stop-color="#ffad60"/></linearGradient><path d="M41.8 29.6h4.7c.1 0 .1 0 .1.1l.1.1v.4h-5.1v-.4c0-.1.1-.2.2-.2z" fill="url(#Bf)"/><g class="DL"><use xlink:href="#Cu"/><path d="M42.3 29.8h0c.1.1.1.2 0 .2s-.1-.1 0-.2c-.1 0 0 0 0 0z"/><use xlink:href="#Cu" x="0.7"/><path d="M37.6 27.3h3.7c.1 0 .3.1.3.3l.1 1.5c0 .1-.1.2-.1.2h-3.7c-.1 0-.3-.1-.3-.3l-.1-1.5c-.1-.1 0-.2.1-.2z"/></g><linearGradient id="Bg" gradientUnits="userSpaceOnUse" x1="33.753" y1="27.6" x2="36.768" y2="27.6"><stop offset="0" stop-color="#ff6279"/><stop offset="1" stop-color="#ffad60"/></linearGradient><path d="M33.8 25.9h2.5c.1 0 .2.1.2.2 0 .6.2 2.6.2 3.1 0 .1 0 .1-.1.1h-2.5c-.1 0-.2-.1-.2-.2l-.1-3.2c-.1 0 0 0 0 0z" fill="url(#Bg)"/><path d="M41.1 27.6h-3.3 0zm0 .4h-3.2l-.1-.1h3.3zm.1.3h-3.3v-.1h3.2zm-2.2.3h-1.1 0zm2.1 0h-1.8 0zm.1.3h-3.3 0z" class="DJ"/><path d="M33.6 25.5H38v.1l-4.4-.1c-.2.1-.3.2-.3.4l.5 6.8a.76.76 0 0 0 .6.6h5.7v.1h-5.7c-.2 0-.3-.1-.5-.2a.76.76 0 0 1-.2-.4l-.5-6.8c.1-.3.2-.5.4-.5zm13.1.2a.76.76 0 0 1 .2.4l.5 6.8c0 .2-.1.4-.4.4h-3.4v-.1H47c.2 0 .3-.1.3-.3l-.5-6.8c.1-.1 0-.3-.1-.4-.2-.1-.3-.1-.4-.1h-4.9v-.1h4.9a.76.76 0 0 1 .4.2z" class="DL"/><g class="DJ"><use xlink:href="#Cv"/><use xlink:href="#Cv" x="-0.9"/><path d="M38.6 24.9c.1 0 .1 0 .1.1s0 .1-.1.1-.1 0-.1-.1l.1-.1z"/><use xlink:href="#Cw"/><use xlink:href="#Cx"/><use xlink:href="#Cw" x="-1.9"/><use xlink:href="#Cx" x="1" y="0.8"/><use xlink:href="#Cw" x="-0.9" y="0.8"/><use xlink:href="#Cw" x="-1.8" y="0.8"/></g><path d="M37.4 26.4h.3 0l-.1.1h0l.2.1h0v.1h0l-.2-.1h0l-.1.1h0l-.1-.3h0z" class="DL"/><linearGradient id="Bh" gradientUnits="userSpaceOnUse" x1="42.142" y1="27.1" x2="46.657" y2="27.1"><stop offset="0" stop-color="#009bae"/><stop offset="1" stop-color="#00ebe9"/></linearGradient><path d="M42.4 25H46c.2 0 .3.1.3.3l.3 3.6c0 .2-.1.3-.3.3h-3.6c-.2 0-.3-.1-.3-.3l-.3-3.6c0-.1.2-.3.3-.3z" fill="url(#Bh)"/><g class="DL"><path d="M45.3 27.1h-1.8 0z"/><path d="M44.5 28h0l-.2-1.7h0zm-2.1-2.6l.3 3.4v.1h.1 3.4c.1 0 .1-.1.1-.1l-.3-3.4v-.1h-.1-3.4s-.1 0-.1.1zm.1 0c-.1 0 0-.1 0 0l3.5-.1h.1v.1l.3 3.4c0 .1 0 .1-.1.1h-3.4-.1v-.1l-.3-3.4z"/><path d="M44.1 26.8h.5s.1 0 .1.1v.5s0 .1-.1.1h-.5s-.1 0-.1-.1l.1-.6c-.1 0 0 0 0 0z"/></g><g class="DJ"><path d="M44.4 27.1l.1 1.2h0c-.2 0-.3.1-.3.3s.2.3.3.3c.2 0 .3-.1.3-.3s-.1-.3-.3-.3l-.1-1.2.8 1.1c.2.4.2.8.1 1.1l-.1.3h-.9l-.3-.3c-.2-.3-.3-.8-.1-1.1l.5-1.1z"/><path d="M44 30v-.3-.1h.1 1c.1 0 .2.1.2.1v.3.1h-.1-1c-.1 0-.2 0-.2-.1z"/></g><path d="M44.5 28.3h0 0 0z" fill="#666b7f"/><path d="M34.6 26.8h1a.65.65 0 0 1 .6.6l.1.7c0 .2-.1.3-.3.3h-1a.65.65 0 0 1-.6-.6l-.1-.7c0-.2.1-.3.3-.3z" class="DL"/><linearGradient id="Bi" gradientUnits="userSpaceOnUse" x1="34.911" y1="27.55" x2="35.745" y2="27.55"><stop offset="0" stop-color="#ff6279"/><stop offset="1" stop-color="#ffad60"/></linearGradient><path d="M34.9 27.1l.8.5-.7.4z" fill="url(#Bi)"/><g class="DJ"><path d="M46.6 31.5h-1v-.1h1zm-.5.2h-1.6v-.1h1.6zm.5 0h-.4v-.1h.4zm0 .2h-.8 0zm-.9 0H45h0zm-3.3 0H42h0zm.5-.2h-.7v-.1h.7z"/><path d="M42.2 31.7H42v-.1h.2zm.1-.2H42v-.1h.3zm.4 0h-.3v-.1h.3zm2.8 0h-.3v-.1h.3zm-1.1.2H44v-.1h.4zm.5.2h-.5 0zm.2-.5v.1h-.9v-.1zm1.4-.8h-1v-.1h1zm-.5.2h-1.5l-.1-.1H46zm.5 0h-.4v-.1h.4zm0 .2h-.8v-.1h.8z"/><path d="M45.7 31h-.8v-.1h.8zm-3.4 0H42l-.1-.1h.4zm.5-.2h-.6v-.1h.6zm-.7 0h-.2v-.1h.2zm.1-.2h-.3v-.1h.3zm.4 0h-.3v-.1h.3zm2.8 0h-.3v-.1h.3zm-1 .2h-.5v-.1h.4zm.4.2h-.5v-.1h.5zm-.677-.41v-.1l.8.001v.1z"/></g><g class="DL"><path d="M38 32.8l-.3-3.2H41l.3 3.2H38zm2.9-3.2h-3.1l.3 3.1h3.1l-.3-3.1z"/><path d="M38.048 32.658l2.832-3.102.074.067-2.832 3.102z"/><path d="M37.859 29.685l.067-.074 3.399 3.099-.067.074zM34.3 32.8l-.3-3.3h3.2l.3 3.2-3.2.1h0zm2.8-3.2H34l.3 3.1h3.1l-.3-3.1z"/><path d="M34.23 32.677l2.832-3.102.074.067-2.832 3.102z"/><path d="M34.041 29.704l.067-.074 3.399 3.099-.067.074z"/></g><g class="DK"><path d="M38.9 35.5l.1.2h-.5v-.2z"/><use xlink:href="#Cy"/><use xlink:href="#Cy" x="0.5"/><use xlink:href="#Cy" x="1.1"/><use xlink:href="#Cy" x="1.6"/><path d="M42.1 35.5v.2h-.5l.1-.2z"/><use xlink:href="#Cy" x="3.1"/><path d="M43.2 35.5v.2h-.5l.1-.2z"/><use xlink:href="#Cy" x="4.2"/><use xlink:href="#Cz"/><use xlink:href="#Cy" x="5.4"/><path d="M45.5 35.5v.2H45l.1-.2z"/><use xlink:href="#Cy" x="6.5"/><path d="M46.6 35.5v.2h-.5l.1-.2z"/><use xlink:href="#Cy" x="7.6"/><path d="M34.3 35.7h8.9v.2h-8.9z"/><use xlink:href="#Cy" x="-1.3"/><use xlink:href="#Cy" x="-2"/><path d="M36.8 35.5v.2h-.5l.1-.2zm-.8 0l.1.2h-.5v-.2z"/><use xlink:href="#Cy" x="-4.2"/></g><g fill="#3d39ba"><use xlink:href="#Cy" x="-0.3"/><use xlink:href="#Cy" x="-1"/><path d="M37.8 35.5v.2h-.5l.1-.2zm-.8 0l.1.2h-.5v-.2z"/><use xlink:href="#Cy" x="-3.2"/><use xlink:href="#Cy" x="-3.9"/><use xlink:href="#Cz" x="-4.5"/><use xlink:href="#Cy" x="0.8"/><use xlink:href="#Cz" x="-3.4"/><path d="M41.4 35.5v.2H41v-.2z"/><use xlink:href="#Cz" x="-1.9"/><use xlink:href="#Cy" x="3.4"/><path d="M43.4 35.5l.1.2H43v-.2z"/><use xlink:href="#Cy" x="4.5"/><use xlink:href="#Cy" x="5"/><use xlink:href="#Cy" x="5.7"/><use xlink:href="#Cz" x="1.5"/><use xlink:href="#Cy" x="6.8"/><path d="M46.8 35.5l.1.2h-.5v-.2zm.6 0v.2H47v-.2z"/><path d="M37.2 35.7h11.1v.2H37.2z"/></g><linearGradient id="Bj" gradientUnits="userSpaceOnUse" x1="38.301" y1="38.182" x2="37.09" y2="40.976"><stop offset="0" stop-color="#009bae"/><stop offset="1" stop-color="#00ebe9"/></linearGradient><path d="M37.5 37.6s-2.2.7-1.9 3.2-.1 5.5-.1 5.5h1.2s2.2-3 .6-5.2.2-3.5.2-3.5z" fill="url(#Bj)"/><path d="M37.3 37.7c-.4.3-1.5 1.5-.3 3.5 1.5 2.3-.9 5.1-.9 5.1h-.6 0 1.2s2.2-3 .6-5.2c-1.3-1.7-.4-3 0-3.4z" class="DO"/><linearGradient id="Bk" gradientUnits="userSpaceOnUse" x1="32.195" y1="42.1" x2="35.302" y2="42.1"><stop offset="0" stop-color="#009bae"/><stop offset="1" stop-color="#00ebe9"/></linearGradient><path d="M35.1 43.6c.1-2.2 0-2.5-.8-3.2l-2.1-1.9c.8 1.6.8 2.4 1 3.6.1.9 1.5 2.8 2.1 3.6-.1-.5-.3-1-.2-2.1z" fill="url(#Bk)"/><linearGradient id="Bl" gradientUnits="userSpaceOnUse" x1="35.302" y1="45.7" x2="35.597" y2="45.7"><stop offset="0" stop-color="#009bae"/><stop offset="1" stop-color="#00ebe9"/></linearGradient><path d="M35.6 45.9s-.1-.1-.3-.4c.1.4.3.4.3.4z" fill="url(#Bl)"/><g class="DO"><path d="M34.7 42.5c-.4 1.8.5 3.1.5 3.1h.9c0-.6 0-1.2.3-1.9 0 0 0-.1.1-.1-.1-.1-.3-.1-.4-.2-1.7-.6-1-2.7-1.4-.9z"/><path d="M37 43c-.9.5-.6 2.4-.6 2.4l.9.3s-.2-.9.4-1.6 1-.4 1-.4-.8-1.2-1.7-.7zm-4.4-.9c-1.5 0-2.4.9-2.4.9s.6-.3 1.7-.3 1 .9 1.8 1.8c.9.8 1.6 1 1.6 1l-2-2.8c-.1-.2.1-.6-.7-.6z"/></g><path d="M29.9 43.3h0 0z" fill="#faf9fc"/><linearGradient id="Bm" gradientUnits="userSpaceOnUse" x1="32.544" y1="43.92" x2="33.56" y2="45.61"><stop offset="0" stop-color="#009bae"/><stop offset="1" stop-color="#00ebe9"/></linearGradient><path d="M33.9 43c-.3-.4 0-1.3-1.8-1.1-1.7.2-2.1 1.2-2.1 1.4 0-.1.3-.6 1.9-.9 1.8-.4.9.5 1.7 1.1s1.5 1.7 1.5 1.7.5.8.4.1c-.2-.6-1.3-1.9-1.6-2.3z" fill="url(#Bm)"/><linearGradient id="Bn" gradientUnits="userSpaceOnUse" x1="36.217" y1="44.027" x2="40.873" y2="44.027"><stop offset="0" stop-color="#009bae"/><stop offset="1" stop-color="#00ebe9"/></linearGradient><path d="M39.5 43.9c-.8-1.7-1.8-1.6-2.5-1.2-1 .5-.8 2.7-.8 2.7h.1s0-.4.1-1.2c.1-.7.4-1.8 1.6-.3s2.8 1.7 2.8 1.7-.4 0-1.3-1.7z" fill="url(#Bn)"/><linearGradient id="Bo" gradientUnits="userSpaceOnUse" x1="36.441" y1="42.001" x2="36.089" y2="43.622"><stop offset="0" stop-color="#009bae"/><stop offset="1" stop-color="#00ebe9"/></linearGradient><path d="M37.3 41.7c-.3-.2-.5-.2-.7-.1-.3.1-.6.1-.8-.1-.9-.5-.9.2-.9.2v.2h0c.1.4.3 1.1 1.2 1.5l1.5.7c-.2-.7.3-2-.3-2.4z" fill="url(#Bo)"/><path d="M34.8 51.5h1.9l.8-6.3H34z" class="DL"/><linearGradient id="Bp" gradientUnits="userSpaceOnUse" x1="35.8" y1="46.365" x2="35.8" y2="50.753"><stop offset="0" stop-color="#c8d6f9"/><stop offset="1" stop-color="#acb5e8"/></linearGradient><path d="M34.2 46.3h.3c1.4 0 1.9 4.9 1.8 5.2h.5l.8-6.3H34l.2 1.1z" fill="url(#Bp)"/><linearGradient id="Bq" gradientUnits="userSpaceOnUse" x1="37.453" y1="45.426" x2="33.995" y2="45.475"><stop offset="0" stop-color="#f0f0fb"/><stop offset="1" stop-color="#d2d7f6"/></linearGradient><path d="M33.7 45.2h4.1v.5h-4.1z" fill="url(#Bq)"/><path d="M78.7 29.7l.2-1.3c.1-.8.9-1.5 1.6-1.5h5.1c1.1 0 1.3 1.1 1.3 1.9 0 .1-1.3 10.1-1.3 10.1-.1.8-1.6 1.8-2.4 1.8h-3.7c-.8 0-1.4-.7-1.2-1.5l.8-6c.1-.5.3-.9.7-1.2.1-.1.1-.2.2-.3h0c.1-.4-.2-.7-.5-.7-.7-.1-.8-.8-.8-1.3z" class="DO"/><linearGradient id="Br" gradientUnits="userSpaceOnUse" x1="85.914" y1="33.75" x2="78.27" y2="33.75"><stop offset="0" stop-color="#00a8b8"/><stop offset="1" stop-color="#00ebe9"/></linearGradient><path d="M83.9 39.1l.8-6c.1-.5.3-.9.7-1.2.1-.1.1-.2.2-.3.1-.4-.2-.7-.5-.7-.5 0-.7-.8-.6-1.2l.2-1.3c.1-.7.7-1.3 1.3-1.5h-.2-5.1c-.8 0-1.5.7-1.6 1.5l-.2 1.3c-.1.5.1 1.2.6 1.2.4 0 .6.4.5.7 0 .1-.1.2-.2.3-.4.3-.6.7-.7 1.2l-.8 6c-.1.8.4 1.5 1.2 1.5h3.7c.3 0 .7-.1 1.1-.3-.3-.3-.4-.7-.4-1.2z" fill="url(#Br)"/><linearGradient id="Bs" gradientUnits="userSpaceOnUse" x1="85.574" y1="31.5" x2="79.13" y2="31.5"><stop offset="0" stop-color="#009bae"/><stop offset="1" stop-color="#00d0d6"/></linearGradient><path d="M85 30.9c-.1 0-.2 0-.2-.1h-5.7c.1 0 .1.1.2.1.4 0 .6.4.5.7 0 .1-.1.2-.2.3l-.3.3H85l.3-.3c.1-.1.1-.2.2-.3.1-.3-.1-.7-.5-.7z" fill="url(#Bs)"/><path d="M81.3 41.1h-3.8l-.4-.5h4.7z" class="DJ"/><g class="DO"><path d="M78.7 39.2l.8-6c.1-.5.3-.9.7-1.2.1-.1.1-.2.2-.3.1-.4-.2-.7-.5-.7h0c.2.1.2.4.2.6 0 .1-.1.2-.2.3-.4.3-.6.7-.7 1.2l-.8 6c-.1.8.3 1.4 1 1.5-.6-.3-.8-.8-.7-1.4zm7-12.3h-5.1 0H85c1.1 0 1.3 1.1 1.3 1.9 0 .1-1.3 10.1-1.3 10.1-.1.8-1.5 1.7-2.3 1.8h.7c.8 0 2.3-.9 2.4-1.8l1.3-10.1c-.1-.8-.3-1.9-1.4-1.9z"/><path d="M79.4 30.9h0c-.2-.2-.3-.7-.2-1.1l.2-1.3c.1-.8.9-1.5 1.6-1.5h5.1.2c-.2-.1-.4-.2-.6-.2h-5.1c-.8 0-1.5.7-1.6 1.5l-.2 1.3c-.1.6 0 1.3.6 1.3zm-6.5 9.7h9.4c.2 0 .4-.2.4-.3v-.5c0-.2-.2-.3-.4-.3h-8.7c-.6 0-1.1.4-1.1.9h0c-.1.1.1.2.4.2z"/></g><g class="DM"><path d="M79.6 51.5h-.3s-.1 0-.1-.1v-1s0-.1.1-.1h.3s.1 0 .1.1l-.1 1.1h0z"/><use xlink:href="#Cq" x="65.8"/></g><use xlink:href="#Cr" x="65.8" class="DJ"/><use xlink:href="#Co" x="65.8" class="DM"/><g class="DJ"><use xlink:href="#Cp" x="65.8"/><path d="M79.7 48.6v-.1h0v-7.4h-.5v7.4h-.1v.1l-5.9 2h.6l5.4-1.4h0l.1 1.4h.3l.1-1.4h0l5.4 1.4h.5z"/></g><path d="M80 41.6v-.4c0-.1-.1-.1-.1-.1H79c-.1 0-.1.1-.1.1v.4c0 .1.1.1.1.1l1-.1c0 .1 0 .1 0 0z" class="DK"/><linearGradient id="Bt" gradientUnits="userSpaceOnUse" x1="68.013" y1="34.495" x2="72.382" y2="33.861"><stop offset="0" stop-color="#f4a999"/><stop offset=".344" stop-color="#f3a696"/><stop offset=".619" stop-color="#f09e8c"/><stop offset=".869" stop-color="#eb8f7b"/><stop offset="1" stop-color="#e8856f"/></linearGradient><path d="M72.2 32.7c-.7.4-3 1.6-3.7 1.3-.7-.2-.9-.1-1.2-.3-.3-.1-.3.2-.2.3s.4.4.5.4l-.6.3s-.6-.3-.6-.1c-.1.2 0 .3.3.4s.2.2.4.2c0 0 .1.3.3.3v.2c.1.1.4 0 .6 0 .2.1.2-.2.6-.3.3-.1.3-.4.7-.5.3-.1 2.7-.3 3.9-.7 1-.4 0-2-1-1.5z" fill="url(#Bt)"/><linearGradient id="Bu" gradientUnits="userSpaceOnUse" x1="74.903" y1="32.035" x2="72.252" y2="30.792"><stop offset="0" stop-color="#5752d0"/><stop offset="1" stop-color="#7f7cf9"/></linearGradient><path d="M75.7 29.2c.7.9-.7 4.9-2.2 5.2s-1.9-1.8-1.3-2.1c.2-.1 1.6-2.3 2-2.9.5-.7 1.2-.6 1.5-.2z" fill="url(#Bu)"/><linearGradient id="Bv" gradientUnits="userSpaceOnUse" x1="73.73" y1="48.564" x2="74.144" y2="47.705"><stop offset="0" stop-color="#f4a999"/><stop offset=".344" stop-color="#f3a696"/><stop offset=".619" stop-color="#f09e8c"/><stop offset=".869" stop-color="#eb8f7b"/><stop offset="1" stop-color="#e8856f"/></linearGradient><path d="M73.9 46.5s-.1.7-.3 1-.7 1.8-.8 2.1c-.1.2.9.7 1.4-.3l1.1-2.5-1.4-.3z" fill="url(#Bv)"/><path d="M80.4 37.7c0 .6-.1 1.2-1.1 2.2s-1.5 2-2.2 3.4c-.7 1.3-1.5 3.5-1.8 4.1-.3.7-2.2 0-1.7-1.1l1.5-4.1c.2-.5.8-3.5 1.2-4.4.7-1.9 4.1-3 4.1-.1z" class="DJ"/><linearGradient id="Bw" gradientUnits="userSpaceOnUse" x1="73.718" y1="42.75" x2="80.309" y2="42.75"><stop offset="0" stop-color="#f0f0fb"/><stop offset="1" stop-color="#d2d7f6"/></linearGradient><path d="M75 47.5c-.3 0-.9-.1-1.3-.7l.1-.1c.5.7 1.3.6 1.4.6.1-.3 1.5-3.7 2.1-5 .5-1.1 1.4-2.1 1.9-2.6.1-.2.3-.3.4-.4.4-.5.6-1.3.6-1.3h.1s-.3.9-.7 1.4l-.4.4c-.5.6-1.4 1.5-1.9 2.6l-2.1 5.1h0 0c.1-.1 0 0-.2 0z" fill="url(#Bw)"/><path d="M73.6 47.1s.3.7-.4 1.8c0 0 .3-.6.7-.5.4.2.4.7.9.5 0 0-.1 0-.4.4-.2.3-.5 1.3-.5 1.5-.1.3-.9.9-1.3.8s-1-.7-.4-1.8c.6-1.2 1.1-1.7 1.4-2.7z" class="DK"/><linearGradient id="Bx" gradientUnits="userSpaceOnUse" x1="71.972" y1="50.432" x2="73.949" y2="50.432"><stop offset="0" stop-color="#5752d0"/><stop offset="1" stop-color="#7f7cf9"/></linearGradient><path d="M72.7 51.2c-.4-.1-1-.6-.4-1.6 0 0 .5-.9-.1.2s0 1.7.4 1.8 1.2-.5 1.3-.8v-.2c-.1.2-.8.7-1.2.6z" fill="url(#Bx)"/><linearGradient id="By" gradientUnits="userSpaceOnUse" x1="-718.721" y1="145.65" x2="-718.435" y2="146.281" gradientTransform="matrix(0.9848 -0.1739 -0.1739 -0.9848 808.8929 63.5427)"><stop offset="0" stop-color="#f4a999"/><stop offset=".344" stop-color="#f3a696"/><stop offset=".619" stop-color="#f09e8c"/><stop offset=".869" stop-color="#eb8f7b"/><stop offset="1" stop-color="#e8856f"/></linearGradient><path d="M74.4 44.3s1.2.7 1.6 1.3 1 1.2 1.2.4-.3-1.7-.5-1.9c-.1-.1-.7-.4-.9-.5s-.7-.5-.7-.5-1 1-.7 1.2z" fill="url(#By)"/><path d="M76.3 43.7s.1.5-.1.8.6.3.8 1c0 0-.1-.2-.6-.2-.4 0-1.4.1-1.3.4.1.2.7-.2.9.3s.3 1.1 0 1.7c-.4.6-.1 1 .2 1 .4 0 1.5-.3 1.7-1.8.2-1.4.2-2.1 0-2.4s-.8-.5-.9-.6c-.2.1-.7-.2-.7-.2z" class="DK"/><linearGradient id="Bz" gradientUnits="userSpaceOnUse" x1="-623.517" y1="317.426" x2="-619.798" y2="317.426" gradientTransform="matrix(0.862 -0.507 -0.507 -0.862 773.7223 5.0389)"><stop offset="0" stop-color="#5752d0"/><stop offset="1" stop-color="#7f7cf9"/></linearGradient><path d="M77.9 44.6a1.38 1.38 0 0 0-.4-.3l.1.1c.2.3.2 1 .1 2.4-.2 1.4-1.2 1.7-1.6 1.7-.1 0-.2 0-.2-.1 0 .2.2.3.4.3.4 0 1.5-.3 1.7-1.8.1-1.3.2-1.9-.1-2.3z" fill="url(#Bz)"/><path d="M73 36.9c-1 1.1-2.7 2.7-3.2 4.6-.1.5.4 1.3 1.7 1.8s3 1.4 3 1.4 1-.4 1-1.5c0 0-.8-.5-1-.8s-1-1.2-1.4-1.3c-.5-.1 2.9-1.6 4-3 1.1-1.5-2.1-3.3-4.1-1.2z" class="DJ"/><path d="M76.1 36.1c.5.4.7 1 .3 1.6-1.2 1.5-4.7 3.6-4.2 3.6.5.1 1.2.6 1.4.9s2 1.6 2 1.6v.1c.1-.2.1-.4.1-.7 0 0-.8-.5-1-.8s-1-1.2-1.4-1.3c-.5-.1 2.9-1.6 4-3 .4-.8-.2-1.6-1.2-2z" class="DK"/><linearGradient id="CA" gradientUnits="userSpaceOnUse" x1="-622.596" y1="323.31" x2="-617.387" y2="323.31" gradientTransform="matrix(0.862 -0.507 -0.507 -0.862 773.7223 5.0389)"><stop offset="0" stop-color="#f0f0fb"/><stop offset="1" stop-color="#d2d7f6"/></linearGradient><path d="M75.3 43.3s-.8-.4-1.4-1.1c-.5-.7-1.2-.9-1.2-.9s0-.5 1.7-1.5 2-2.3 2-2.3h.1c0 .1-.3 1.4-2 2.3-1.4.8-1.7 1.2-1.7 1.4.2 0 .7.2 1.2.8a4.01 4.01 0 0 0 1.3 1.1v.2z" fill="url(#CA)"/><linearGradient id="CB" gradientUnits="userSpaceOnUse" x1="74.041" y1="36.39" x2="78.321" y2="33.96"><stop offset="0" stop-color="#5752d0"/><stop offset="1" stop-color="#7f7cf9"/></linearGradient><path d="M74.7 29.1c-.6.9-.6 2.1-.6 4.2.1 2.1-1.1 3.4-1.2 3.8 0 0 1.6-.4 2.8 1.1.7.8 1.5 1.5 2.7 1.5 1 0 1.7 0 2.8-.4 0-1.7-.1-6.1-1.9-10.1-.4-1-4.1-.8-4.6-.1z" fill="url(#CB)"/><linearGradient id="CC" gradientUnits="userSpaceOnUse" x1="75.721" y1="28.9" x2="77.062" y2="28.114"><stop offset="0" stop-color="#f4a999"/><stop offset=".344" stop-color="#f3a696"/><stop offset=".619" stop-color="#f09e8c"/><stop offset=".869" stop-color="#eb8f7b"/><stop offset="1" stop-color="#e8856f"/></linearGradient><path d="M77.4 27s-.1 1.1.3 1.5c0 0 0 .4-.3.7-.4.4-1.5.3-1.7-.2-.1-.3.3-.6.1-1.1-.2-.7 1.6-.9 1.6-.9z" fill="url(#CC)"/><linearGradient id="CD" gradientUnits="userSpaceOnUse" x1="75.129" y1="25.785" x2="76.813" y2="27.552"><stop offset="0" stop-color="#f4a999"/><stop offset=".344" stop-color="#f3a696"/><stop offset=".619" stop-color="#f09e8c"/><stop offset=".869" stop-color="#eb8f7b"/><stop offset="1" stop-color="#e8856f"/></linearGradient><path d="M74.6 25.4v1c0 .3-.1 1.2 0 1.5s.3.7 1.2.6c.9-.2 1.3-.6 1.5-1.3s.3-1.4.2-1.5c-.1-.2-.3-1-1.3-1-.9-.1-1.5.2-1.6.7z" fill="url(#CD)"/><path d="M74.7 24.7s.4-.9 1.4-.9c.9 0 1.2.6 1.2.6.7-.2.6.5 1 .6a.47.47 0 0 1 .1.9s.3 1-.4 1.5c-.8.5-.5-.7-.6-1.3-.1-.5-.2-.6-.5-.6-.1-.2-.4-.6-1.2-.2s-1 .5-1.4.3c-.4-.3-.4-.8.4-.9z" class="DK"/><path d="M75.2 26.5s-.1.3-.3.4c0 0 .1.1.3.1v-.5z" class="DT"/><path d="M76.3 26.2h0c.1-.1.1-.1 0-.2 0 0-.2-.1-.6-.1l-.1.1.1.1c.4-.1.5.1.6.1-.1 0 0 0 0 0zM75 26h0l.1-.1s-.2-.1-.4-.1l-.1.1.1.1c.1-.1.2 0 .3 0-.1 0 0 0 0 0zm0 1.4v.4h.1c.4.1.6 0 .7-.1s.1-.1.1-.2v-.1c-.2.1-.6 0-.9 0z" class="DM"/><path d="M75 27.4l.1.2c.4 0 .6 0 .8-.1v-.1c-.3.1-.7 0-.9 0z" class="DL"/><path d="M75.1 27.8c.4.1.6 0 .7-.1h-.4c-.2 0-.2 0-.3.1z" class="DT"/><path d="M76.1 26.6s-.1-.1-.2-.1h-.1v-.1c0-.1.1-.2.2-.2s.2.1.2.2c-.1.1-.1.2-.1.2zm-1.2-.2s-.1-.1-.2-.1h-.1v-.1c0-.1.1-.2.2-.2s.2.1.2.2c0 .2 0 .2-.1.2z" class="DM"/><linearGradient id="CE" gradientUnits="userSpaceOnUse" x1="75.844" y1="25.103" x2="77.529" y2="26.87"><stop offset="0" stop-color="#f4a999"/><stop offset=".344" stop-color="#f3a696"/><stop offset=".619" stop-color="#f09e8c"/><stop offset=".869" stop-color="#eb8f7b"/><stop offset="1" stop-color="#e8856f"/></linearGradient><path d="M77.2 26.4c.1-.1.4-.2.5 0 0 .2 0 .6-.3.8-.4.2-.3-.7-.2-.8z" fill="url(#CE)"/><linearGradient id="CF" gradientUnits="userSpaceOnUse" x1="78.625" y1="38.999" x2="81.231" y2="36.558"><stop offset="0" stop-color="#f4a999"/><stop offset=".344" stop-color="#f3a696"/><stop offset=".619" stop-color="#f09e8c"/><stop offset=".869" stop-color="#eb8f7b"/><stop offset="1" stop-color="#e8856f"/></linearGradient><path d="M80.2 34.8c-.4.9-1.1 4.1-1.7 4.6-.6.4-.4.8-.8.9-.3.2-.2.4 0 .3.2 0 .4-.2.4-.3 0 0-.1.5-.1.7 0 0-.6.3-.4.5.1.2.2.2.5 0 .2-.2.3 0 .4-.2 0 0 .2.1.4 0 0 0 .1.1.2.1s.3-.3.4-.4 0-.3.1-.6-.1-.5 0-.8 2.1-3.1 2.4-4.3c.4-1.3-1.3-1.7-1.8-.5z" fill="url(#CF)"/><linearGradient id="CG" gradientUnits="userSpaceOnUse" x1="81.455" y1="35.222" x2="79.784" y2="31.224"><stop offset="0" stop-color="#5752d0"/><stop offset="1" stop-color="#7f7cf9"/></linearGradient><path d="M79 28.9c1.3 0 4 4.5 3.3 6s-3 .1-2.8-.6c.1-.2-1-3.2-1.2-3.9-.4-.9.2-1.5.7-1.5z" fill="url(#CG)"/><path d="M81.2 39.1h8.7v.9h-8.7z" class="DJ"/><path d="M81 50.8V36.4c0-.1.1-.1.1-.1h8.7c.1 0 .1.1.1.1v14.5a.68.68 0 0 1-.7.7h-7.6c-.3-.1-.6-.4-.6-.8zm8.7-.1V36.5h-8.5v14.2a.65.65 0 0 0 .6.6h7.3c.4 0 .6-.3.6-.6z" class="DK"/><path d="M6.3 39.1H15v.9H6.3z" class="DJ"/><use xlink:href="#DA" class="DK"/><linearGradient id="CH" gradientUnits="userSpaceOnUse" x1="91" y1="36.35" x2="4.988" y2="36.35"><stop offset="0" stop-color="#5752d0"/><stop offset="1" stop-color="#7f7cf9"/></linearGradient><path d="M4.9 36.8H91v-.9H4.9z" fill="url(#CH)"/><g class="DJ"><path d="M64 35.4h-.4l-.1.2h.6zm.7 0h-.5v.2h.6z"/><use xlink:href="#Ct" x="48.1"/><use xlink:href="#Ct" x="48.8"/><use xlink:href="#Ct" x="49.5"/><path d="M67.6 35.4h-.5v.2h.6zm.7 0h-.5v.2h.6z"/><use xlink:href="#Ct" x="51.7"/><use xlink:href="#Ct" x="52.4"/><use xlink:href="#Ct" x="53.1"/><path d="M71.2 35.4h-.5v.2h.6z"/><use xlink:href="#Ct" x="54.6"/><use xlink:href="#Ct" x="55.3"/><use xlink:href="#Ct" x="56"/><path d="M74 35.4h-.5l-.1.2h.6z"/></g><linearGradient id="CI" gradientUnits="userSpaceOnUse" x1="62.486" y1="35.75" x2="75.427" y2="35.75"><stop offset="0" stop-color="#201c8b"/><stop offset="1" stop-color="#5451a1"/></linearGradient><path d="M62.5 35.6h12.9v.3H62.5z" fill="url(#CI)"/><use xlink:href="#DB" class="DL"/><linearGradient id="CJ" gradientUnits="userSpaceOnUse" x1="49.519" y1="26.834" x2="53.493" y2="26.834"><stop offset="0" stop-color="#f4a999"/><stop offset=".344" stop-color="#f3a696"/><stop offset=".619" stop-color="#f09e8c"/><stop offset=".869" stop-color="#eb8f7b"/><stop offset="1" stop-color="#e8856f"/></linearGradient><use xlink:href="#DB" fill="url(#CJ)"/><path d="M52.9 26.6s-.1 0 0 0c0-.6.2-1.3-.1-1.9.3.6.1 1.3.1 1.9z" fill="#f17e59"/><path d="M53 24.8c-.1-.5-.5-.7-.8-.9-1.1-.6-1.8.6-2.7.2 0 0-.4.6.1.9.2-.1.4.3.4.6 0 .5.2.7.3 1.1l.3.1c-.2-.7.3-1 .4-.5l.5.9c.3.4 1.3.1 1.4.1 0-.1 0-.1-.1-.2 0-.7.3-1.6.2-2.3z" class="DK"/><linearGradient id="CK" gradientUnits="userSpaceOnUse" x1="44.035" y1="48.15" x2="48.558" y2="48.15"><stop offset="0" stop-color="#ff4f69"/><stop offset="1" stop-color="#ffad60"/></linearGradient><path d="M44.4 50.5c.6-.4 1.1-1.1 1.3-1.7s-.8-2-.8-2l1.4-1.9s1.4 3.2 1.7 3.4c.3.1.7.5.6 1s-1 .7-1.2.8c-.2 0-.3.1-.8.6s-2.1.7-2.3.7-.5-.5.1-.9z" fill="url(#CK)"/><path d="M45.7 48.9l.2.3-.2-.3z" class="DS"/><path d="M45.568 48.88l.078-.062.25.313-.078.062z" class="DK"/><path d="M45.6 49.2l.2.3-.2-.3z" class="DS"/><path d="M45.478 49.178l.078-.063.25.312-.078.063z" class="DK"/><path d="M45.4 49.4l.2.3-.2-.3z" class="DS"/><path d="M45.388 49.478l.078-.062.25.312-.078.062z" class="DK"/><path d="M45.3 49.7l.2.3-.2-.3z" class="DS"/><path d="M45.171 49.68l.078-.063.25.312-.078.063z" class="DK"/><linearGradient id="CL" gradientUnits="userSpaceOnUse" x1="44.047" y1="50.05" x2="48.557" y2="50.05"><stop offset="0" stop-color="#f0f0fb"/><stop offset="1" stop-color="#d2d7f6"/></linearGradient><path d="M48.5 48.8h0c.1.1.1.3.1.4-.1.5-1 .7-1.2.8-.2 0-.3.1-.8.6s-2.1.7-2.3.7c-.1 0-.2-.1-.2-.2 1.9-.3 3.3-1.4 3.4-1.5.4-.2.7-.4 1-.8z" fill="url(#CL)"/><g class="DP"><path d="M45 39.4c1.4 1 2.1 6.6 2.4 7.6-.7.7-2.5.8-2.5.8-.6-1.6-2.3-6.1-2.5-7.9-.1-.7 2.2-.8 2.6-.5z"/><path d="M43.9 38.3c3.3-1.3 10.6-1.3 11.1.5.4 1.5-.4 2.2-3.4 2.1s-6.2.2-7.7.1c-1 0-2.9-1.5 0-2.7z"/></g><path d="M44.7 38.4c1.8-.7 5.5-1.7 7.6-1.7 2.4 0 4.9 4.7 1.7 4.7-3.2-.1-7.7.1-9.3.2-1.1 0-3.1-1.9 0-3.2z" class="DJ"/><linearGradient id="CM" gradientUnits="userSpaceOnUse" x1="40.222" y1="49.015" x2="45.677" y2="49.015"><stop offset="0" stop-color="#ff6279"/><stop offset="1" stop-color="#ffb773"/></linearGradient><path d="M41 49.9c.8.1 1.7-.3 2.2-.7s.5-2.3.5-2.3l2-.3-.3 3.5c.1.3.3.9-.1 1.2s-1.3 0-1.5-.1-.3-.1-1.1 0-2.3-.7-2.4-.8c-.2 0-.1-.6.7-.5z" fill="url(#CM)"/><linearGradient id="CN" gradientUnits="userSpaceOnUse" x1="40.225" y1="50.865" x2="45.577" y2="50.865"><stop offset="0" stop-color="#f0f0fb"/><stop offset="1" stop-color="#d2d7f6"/></linearGradient><path d="M44.2 51c.5.1.9.1 1.3-.1h0c0 .2-.1.3-.2.5-.4.3-1.3 0-1.5-.1s-.3-.1-1.1 0-2.3-.7-2.4-.8c-.1 0-.1-.2 0-.3 1.8 1 3.7.8 3.9.8z" fill="url(#CN)"/><path d="M42.989 49.204l.1-.006.023.399-.1.006zm-.3.201l.1-.006.024.399-.1.006zm-.199.2l.1-.006.024.399-.1.006zm-.301.1l.1-.006.023.399-.1.006z" class="DK"/><path d="M46.1 40.4s.1.7.1 1.9c0 2.2-.6 6.7-.6 6.7-1.1.3-2.1-.3-2.1-.3.2-1.6-.4-6.8-.4-8.3h3z" class="DJ"/><linearGradient id="CO" gradientUnits="userSpaceOnUse" x1="44.4" y1="43.85" x2="53.561" y2="43.85"><stop offset="0" stop-color="#f0f0fb"/><stop offset="1" stop-color="#d2d7f6"/></linearGradient><path d="M45.6 40.5c0-.1.2-.3 3.2-.4 3.2-.2 4.6-1.2 4.6-1.2l.1.2c-.1 0-1.4 1.1-4.7 1.3-2.2.1-2.9.2-3 .3l-1.2 8.1-.2-.1c.3-1 1.1-7.6 1.2-8.2 0 .1 0 .1 0 0z" fill="url(#CO)"/><linearGradient id="CP" gradientUnits="userSpaceOnUse" x1="49.074" y1="34.876" x2="56.132" y2="34.876"><stop offset="0" stop-color="#d82c53"/><stop offset="1" stop-color="#ff5774"/></linearGradient><path d="M52.8 28.4c2.8-.6 3.3 4.6 3.3 5.6v7.4C52 41.3 50 37 50 37c-1.3 0 0-2.3-.5-3.1-1.4-2.4.9-5 3.3-5.5z" fill="url(#CP)"/><linearGradient id="CQ" gradientUnits="userSpaceOnUse" x1="45.387" y1="32.631" x2="51.806" y2="32.631"><stop offset="0" stop-color="#ad1a3a"/><stop offset="1" stop-color="#ff6983"/></linearGradient><path d="M45.9 33.8c.2-.4.8-.3.8-.3.1-.7.7-.6.7-.8s.5-.4.6-.8.4-.5.8-1 1.7-1.3 2.2-1.6 1.1 1.2.8 2.7-3 2.7-3.5 3.3c-.3.4-1.2.6-1.7.7-.5 0-1-.2-1.1-1-.2-1.1.2-.8.4-1.2z" fill="url(#CQ)"/><linearGradient id="CR" gradientUnits="userSpaceOnUse" x1="51.292" y1="28.419" x2="54.014" y2="28.419"><stop offset="0" stop-color="#d84768"/><stop offset="1" stop-color="#ff7d93"/></linearGradient><path d="M52.7 27.9c1-.3 1.3.6 1.3.6l-2.7.5s.2-.7 1.4-1.1z" fill="url(#CR)"/><path d="M68.9 35.9h-5.1c-.1-.4-.3-2.1-.3-2.4h3.6c0 .2 0 1.1.1 1.3 0 .2.2.6.7.8.3.1.7.2 1.1.2 0 0 0 .1-.1.1z" class="DP"/><path d="M66 35.8s-.5 0-.9.1h0-3.5c-.1 0-.1-.1 0-.1.4-.1.8-.1 1.1-.2.5-.2.6-.5.7-.8 0-.2.1-1.1.1-1.3H67c0 .3-.1 1.4-.1 1.5-.1.5-.5.8-.9.8z" class="DJ"/><g class="DP"><path d="M63 35.4c.3-.2.3-.6.3-.6 0-.2.1-1.1.1-1.3H67c0 .3-.1 1.2-.1 1.2l-3.9.7z"/><path d="M72.9 34.1H58.4c-.3 0-.4-.3-.5-.5l-.6-9c0-.3.2-.5.4-.5H72c.2 0 .5.2.6.5l.6 9c.1.2-.1.5-.3.5z"/></g><linearGradient id="CS" gradientUnits="userSpaceOnUse" x1="57.322" y1="29.15" x2="72.922" y2="29.15"><stop offset="0" stop-color="#201c8b"/><stop offset="1" stop-color="#3531a1"/></linearGradient><path d="M72.5 34.1H58.4c-.2 0-.4-.2-.5-.5l-.6-8.9c0-.3.2-.5.4-.5h14.1c.2 0 .4.2.5.5l.6 8.9c0 .3-.1.5-.4.5z" fill="url(#CS)"/><g class="DK"><path d="M72.5 34.1H58.4c-.2 0-.4-.2-.5-.5V33h15v.6c0 .3-.1.5-.4.5z"/><path d="M70.1 33.9c.1-.1.1-.2.1-.3l-.4-5.9c0-.2-.2-.4-.4-.4H60c-.1 0-.2 0-.2.1-.1.1-.1.2-.1.3l.4 5.9c0 .2.2.4.4.4h9.4c.1 0 .2 0 .2-.1zm0-.3c0 .1 0 .1-.1.2l-.1.1h-9.4c-.1 0-.2-.1-.2-.2l-.4-5.9c0-.1 0-.1.1-.2l.1-.1h9.4c.1 0 .2.1.2.2l.4 5.9z"/></g><path d="M55 34.7c.1-.5.3-.9.7-1.2.1-.1.1-.2.2-.3.1-.4-.2-.7-.5-.7-.5 0-.7-.8-.6-1.2l.2-1.4c.1-.8.9-1.5 1.7-1.5h5.2c1.1 0 1.3 1.1 1.3 1.9 0 .1-.1.1-.2.2l-1.2 10c-.1.8-1.6 1.8-2.4 1.8h-3.8c-.8 0-1.4-.7-1.2-1.5l.6-6.1z" class="DO"/><linearGradient id="CT" gradientUnits="userSpaceOnUse" x1="54.662" y1="30.5" x2="62.273" y2="30.5"><stop offset="0" stop-color="#00d7da"/><stop offset="1" stop-color="#00ebe9"/></linearGradient><path d="M54.8 29.9c.1-.8.9-1.5 1.7-1.5h5.2c.2 0 .5.1.6.2h-.2-5.2c-.8 0-1.5.7-1.7 1.5l-.2 1.4c0 .3 0 .8.3 1.1h0c-.5 0-.7-.8-.6-1.2l.1-1.5z" fill="url(#CT)"/><linearGradient id="CU" gradientUnits="userSpaceOnUse" x1="54.194" y1="37.4" x2="56.224" y2="37.4"><stop offset="0" stop-color="#00d9dc"/><stop offset="1" stop-color="#00ebe9"/></linearGradient><path d="M55 34.7c.1-.5.3-.9.7-1.2.1-.1.1-.2.2-.3 0-.2 0-.5-.2-.6h0c.4 0 .6.4.5.7 0 .1-.1.2-.2.3-.4.3-.6.7-.7 1.2l-.8 6c-.1.6.2 1.1.6 1.4-.7-.1-1.1-.8-1-1.5l.9-6z" fill="url(#CU)"/><path d="M48.6 41h8.7c.2 0 .4.2.4.3v.5c0 .2-.2.3-.4.3h-9.4c-.2 0-.4-.2-.4-.3 0-.4.5-.8 1.1-.8z" class="DO"/><linearGradient id="CV" gradientUnits="userSpaceOnUse" x1="55.143" y1="37.842" x2="62.519" y2="37.842"><stop offset="0" stop-color="#00a8b8"/><stop offset="1" stop-color="#00ebe9"/></linearGradient><path d="M56 34.3l-.9 6.4c-.1.8.5 1.5 1.2 1.5h3.5c.8 0 1.5-.7 1.7-1.5l1-7.1c0-.1 0-.1-.1-.1H57c-.5-.1-.9.3-1 .8z" fill="url(#CV)"/><linearGradient id="CW" gradientUnits="userSpaceOnUse" x1="56.338" y1="30.95" x2="62.941" y2="30.95"><stop offset="0" stop-color="#00a8b8"/><stop offset="1" stop-color="#00ebe9"/></linearGradient><path d="M61.7 29h-3.5c-.8 0-1.5.7-1.7 1.5l-.2 1.3c-.1.6.4 1.1.9 1.1h5.2c.1 0 .1 0 .1-.1l.3-2.2c.2-.9-.3-1.6-1.1-1.6z" fill="url(#CW)"/><path d="M57.1 42.7H53l-.6-.5h5.3z" class="DJ"/><path d="M55.2 51.5h-.3c-.1 0-.1 0-.1-.1v-1c0-.1 0-.1.1-.1h.3c.1 0 .1 0 .1.1l-.1 1.1h0z" class="DM"/><path d="M55.4 48.5h0-.1v-5.8h-.5v5.8h-.1.1l-6 2.1h.6l5.4-1.4.1 1.4h.3l.1-1.4 5.4 1.4h.6z" class="DJ"/><path d="M55.7 43.2v-.4c0-.1-.1-.1-.1-.1h-.9c-.1 0-.1.1-.1.1v.4c0 .1.1.1.1.1l1-.1c-.1.1 0 .1 0 0z" class="DK"/><path d="M50.8 51a.65.65 0 0 1-.6.6.65.65 0 0 1-.6-.6.65.65 0 0 1 .6-.6c.3 0 .6.2.6.6z" class="DM"/><circle cx="50.2" cy="51" r=".2" class="DJ"/><path d="M59.4 51a.65.65 0 0 0 .6.6.65.65 0 0 0 .6-.6.65.65 0 0 0-.6-.6c-.4 0-.6.2-.6.6z" class="DM"/><g class="DJ"><use xlink:href="#Cp" x="41.4"/><path d="M6.3 39.1H15v.9H6.3z"/></g><use xlink:href="#DA" class="DK"/><linearGradient id="CX" gradientUnits="userSpaceOnUse" x1="16.379" y1="36.35" x2="4.949" y2="36.35"><stop offset="0" stop-color="#5752d0"/><stop offset="1" stop-color="#7f7cf9"/></linearGradient><path d="M4.9 36.8h11.5v-.9H4.9z" fill="url(#CX)"/><path d="M69.6 45.4s0 .4.1.4c.3 0 .7.3.8.7.1.5.2 3.3.3 3.8 0 .1-.1.2-.2.2l-1 .1-.1.8 1.1-.2c.4-.1.7-.4.6-.7-.2-2.7 0-3.1-.3-4.1 0-.4-.4-1.2-1.3-1z" class="DJ"/><linearGradient id="CY" gradientUnits="userSpaceOnUse" x1="71.264" y1="48.346" x2="69.642" y2="48.346"><stop offset="0" stop-color="#5752d0"/><stop offset="1" stop-color="#7f7cf9"/></linearGradient><path d="M71.3 50.5c0 .3-.2.6-.6.7.3-.1.5-.4.5-.6-.2-2.7 0-3.1-.3-4.1-.1-.3-.4-1.1-1.2-1h0c.9-.1 1.2.7 1.3 1 .3.9.1 1.3.3 4z" fill="url(#CY)"/><linearGradient id="CZ" gradientUnits="userSpaceOnUse" x1="70.481" y1="48" x2="64.865" y2="48"><stop offset="0" stop-color="#5752d0"/><stop offset="1" stop-color="#7f7cf9"/></linearGradient><g class="DQ"><path d="M68.1 44.6h0a2.42 2.42 0 0 1 2.4 2.6l-.3 3.5c0 .4-.4.7-.8.7h-3.8a.68.68 0 0 1-.7-.7l.3-3.5c.2-1.4 1.5-2.6 2.9-2.6z" fill="url(#CZ)"/><path d="M67.1 45.6h0c1.1 0 1.9.9 1.8 2l-.3 2.7a.65.65 0 0 1-.6.6h-2.9c-.3 0-.5-.3-.5-.6l.3-2.7c.1-1.1 1.1-2 2.2-2z" class="DJ"/></g><linearGradient id="Ca" gradientUnits="userSpaceOnUse" x1="64.481" y1="48.25" x2="68.77" y2="48.25"><stop offset="0" stop-color="#ff6279"/><stop offset="1" stop-color="#ffad60"/></linearGradient><path d="M67 45.6h0c1.1 0 1.9.9 1.8 2l-.3 2.7a.65.65 0 0 1-.6.6H65c-.3 0-.5-.3-.5-.6l.3-2.7c.1-1.1 1-2 2.2-2z" fill="url(#Ca)" class="DQ"/><linearGradient id="Cb" gradientUnits="userSpaceOnUse" x1="65.665" y1="46.95" x2="67.495" y2="46.95"><stop offset="0" stop-color="#d82c53"/><stop offset="1" stop-color="#ff5774"/></linearGradient><path d="M66.7 46.2h0c.5 0 .9.4.8.9v.3c0 .1-.1.3-.3.3h-1.3c-.1 0-.2-.1-.2-.3v-.3c0-.5.5-.9 1-.9z" fill="url(#Cb)" class="DQ"/><linearGradient id="Cc" gradientUnits="userSpaceOnUse" x1="67.053" y1="47" x2="65.665" y2="47"><stop offset="0" stop-color="#ff6279"/><stop offset="1" stop-color="#ffad60"/></linearGradient><path d="M66.4 46.4h0c.4 0 .7.3.6.7v.3c0 .1-.1.2-.2.2h-1c-.1 0-.2-.1-.2-.2v-.3c.1-.4.5-.7.8-.7z" fill="url(#Cc)" class="DQ"/><linearGradient id="Cd" gradientUnits="userSpaceOnUse" x1="66.072" y1="46.25" x2="70.072" y2="46.25"><stop offset="0" stop-color="#c8d6f9"/><stop offset="1" stop-color="#bac1e8"/></linearGradient><path d="M66.9 45c.2-.1.5-.1.8-.1h.3c.6.1 1.1.3 1.5.8.4.4.6 1 .6 1.6h0v.3H70v-.2h0c0-.6-.2-1.1-.6-1.5-.4-.6-.9-.9-1.5-.9h-.2c-.2 0-.5 0-.7.1l-.9.4s.6-.5.8-.5z" fill="url(#Cd)" class="DQ"/><linearGradient id="Ce" gradientUnits="userSpaceOnUse" x1="69.745" y1="47.65" x2="70.169" y2="47.65"><stop offset="0" stop-color="#c8d6f9"/><stop offset="1" stop-color="#bac1e8"/></linearGradient><path d="M70.1 47.5v.2.1l-.1.1h-.1s-.1 0-.1-.1v-.1-.2c0-.1.1-.1.3 0h0c0-.1 0 0 0 0z" fill="url(#Ce)" class="DQ"/><path d="M65.2 48.4c-.1.4-.2 1.1-.3 1.7 0 .2.1.3.3.3h2.4c.2 0 .3-.1.4-.3l.2-1.8c0-.1-.1-.2-.2-.2h-2.5l-.3.3z" class="DK"/><linearGradient id="Cf" gradientUnits="userSpaceOnUse" x1="64.605" y1="49.25" x2="67.834" y2="49.25"><stop offset="0" stop-color="#d82c53"/><stop offset="1" stop-color="#ff5774"/></linearGradient><path d="M64.9 48.5l-.3 1.5c0 .2.1.3.3.3h2.4c.2 0 .3-.1.4-.3l.2-1.6c0-.1-.1-.2-.2-.2h-2.5c-.2.1-.3.2-.3.3z" fill="url(#Cf)"/><path d="M68.2 48.4s-.2-.2-.4.1c-.1.3-.2.4-.5.4h-2.7s.2-.1.3-.4c0-.2.2-.4.4-.4h2.8s.1.1.1.3h0z" class="DL"/><path d="M67.8 48.4c-.1.3-.2.4-.5.4h-2.6c-.1.1-.2.1-.2.1h2.7c.2 0 .3-.1.6-.5 0-.2.3 0 .3 0v-.1-.1c.1 0-.1-.1-.3.2z" class="DK"/><linearGradient id="Cg" gradientUnits="userSpaceOnUse" x1="27.84" y1="17" x2="29.454" y2="17"><stop offset="0" stop-color="#c8d6f9"/><stop offset="1" stop-color="#bac1e8"/></linearGradient><path d="M27.9 17.2c0 .2.2.4.4.4h.6c.2 0 .4-.2.4-.4l.1-.8h-1.6l.1.8z" fill="url(#Cg)"/><linearGradient id="Ch" gradientUnits="userSpaceOnUse" x1="27.484" y1="15.125" x2="29.746" y2="15.125"><stop offset="0" stop-color="#009bae"/><stop offset="1" stop-color="#00ebe9"/></linearGradient><path d="M29.2 14.1c-.4-.2-.9-.2-1.2 0s-.5.7-.5 1.1.2.9.6 1.1h1.1c.3-.3.6-.7.6-1.1s-.3-.8-.6-1.1z" fill="url(#Ch)"/><g class="DL"><path d="M28.6 14.3V14v-.1.1.3.8.8.3.1-.1-.3-.8-.8zm-1.3.8h.1.1-.1-.1zm.2-.4h-.1.1c.1 0 .1.1 0 0h0zm.2-.3c-.1 0-.1-.1-.1-.1s0 .1.1.1c0 .1.1.1 0 0 .1.1.1 0 0 0zm.2-.4v.1c0 .1.1.1.1.1l-.1-.2c0 .1 0 0 0 0zm.3-.2v.1c0 .1 0 .1.1.1v-.1c-.1 0-.1-.1-.1-.1zm.5.1c0 .1 0 .1 0 0 0 .1.1.1 0 0 .1 0 .1-.1 0 0 .1-.1.1 0 0 0zm.4.1c-.1.1-.1.1 0 0-.1.1 0 .1 0 0h0 0zm.3.2c-.1.1-.1.1 0 0-.1.1 0 .1 0 0h0 0zm.2.3c-.1 0-.1.1-.1.1l.1-.1h.1-.1zm.1.4h-.1.1.1c0-.1-.1-.1-.1 0zm0 .3h-.1.1c.1.1.1.1 0 0 .1.1.1 0 0 0zm0 .4c-.1 0-.1-.1-.1-.1l.1.1c0 .1.1.1.1.1 0-.1-.1-.1-.1-.1zm-.3.2s0 .1.1.1c0 .1.1.1.1.1s0-.1-.2-.2h0zm-1.7.2c-.1 0-.1.1-.1.1s.1 0 .1-.1h.1-.1zm-.1-.3c-.1.1-.1.1 0 0-.1.1-.1.1 0 0h.1-.1z"/><path d="M27.4 15.4h-.1c0 .1.1.1.1 0h.1c.1 0 0 0-.1 0zm.4-.1h-.1.1.1-.1zm.4-.3c-.1 0-.1 0 0 0-.1 0-.1 0 0 0h0 0zm.1-.3c-.1 0-.1-.1 0 0-.1 0-.1 0 0 0h0 0zm.1-.4s0 .1 0 0c0 .1.1.1.1.1s-.1 0-.1-.1c0 .1 0 0 0 0zm-.2 1.3h0 0 0z"/><path d="M28.2 15.5h0 0c0 .1 0 .1 0 0 0 .1 0 .1 0 0h0c0 .1 0 .1 0 0h0c0 .1 0 .1 0 0 .1.1.1 0 0 0h0zm.1.5c-.1 0-.1.1-.1.1l.1-.1h.1-.1zm-.4-.2h0 0 0 0zm0-1h-.1.1l.1.1c0-.1 0-.1-.1-.1zm.9 0h0c0 .1 0 0 0 0h0c.1-.1.1 0 0 0zm.1.4s-.1 0 0 0c-.1 0 0 0 0 0h0 0zm0 .5h-.1c0-.1.1 0 .1 0h0 0zm-.1.4h0l.1.1-.1-.1h0z"/><path d="M28.8 14.4s0 .1 0 0c0 .1 0 .1 0 0h0 0zm.4.5s-.1 0 0 0c-.1 0 0 0 0 0h0 0zm-.1-.4s-.1 0 0 0c-.1 0 0 0 0 0h.1c0-.1 0 0-.1 0zm.2 1h-.1c-.1 0 0 0 .1 0h.1-.1zm-.2.4s0 .1.1.1l.1.1s-.1 0-.2-.2c0 .1 0 0 0 0zm-.6-1.9c-.1 0-.1.1-.2.2-.2.2-.4.5-.4.8v.5c0 .2.1.3.1.4s.1.2.1.3v.1-.1c0-.1-.1-.2-.1-.3s-.1-.3-.1-.4V15c0-.4.2-.7.4-.8.1-.2.3-.2.2-.2h0 0z"/><path d="M29.1 14.5c-.1-.2-.2-.3-.3-.4s-.2-.1-.3-.1h-.1 0 .1c.1 0 .2.1.2.2.3.1.3.2.4.3 0 .2.1.3.1.5.1.4 0 .7-.1 1l-.2.4.1-.1s0-.1.1-.1c0 0 0-.1.1-.2.1-.2.2-.6.1-1 0-.2-.1-.3-.2-.5z"/></g><linearGradient id="Ci" gradientUnits="userSpaceOnUse" x1="27.746" y1="16.45" x2="29.539" y2="16.45"><stop offset="0" stop-color="#c8d6f9"/><stop offset="1" stop-color="#bac1e8"/></linearGradient><use xlink:href="#DC" fill="url(#Ci)"/><use xlink:href="#DC" fill="url(#Ci)"/><path d="M49.2 17.5c-.2-.4-.5-.7-.8-1s-.6-.4-.8-.6c-2.7-1.3-5.6.9-5.2 3.8 0 .3.2.7.3 1 .3.7.9 1.3 1.6 1.6.4.2.8.3 1.2.3h.5c.2 0 .5 0 .7-.1h.1l1.7 1.3-.2-1.8c.5-.4.8-.9 1-1.4.1-.3.2-.5.2-.8v-.4-.4c.1-.5-.1-1-.3-1.5z" class="DJ"/><linearGradient id="Cj" gradientUnits="userSpaceOnUse" x1="42.662" y1="63.111" x2="46.205" y2="63.111" gradientTransform="matrix(0.9992 -4.100000e-02 -4.100000e-02 -0.9992 4.2152 84.225)"><stop offset="0" stop-color="#ff6279"/><stop offset="1" stop-color="#ffad60"/></linearGradient><g class="DQ"><path d="M46 16.7c.9 0 1.7.7 1.8 1.6.1.7-.2 1.2-.7 1.6-.1 0-.1.1-.1.2v1.2c0 .2-.1.3-.3.4h-.1c-.2.2-.4.3-.6.3s-.3 0-.4-.2l-.2-.2c-.1-.1-.1-.2-.1-.3v-1.2c0-.1 0-.1-.1-.2-.6-.4-.9-1-.8-1.8s.6-1.2 1.3-1.4h.1c0 0 .1 0 .2 0zm0 1.4h0c-.4 0-.7.4-.5.8.1.2.2.5.3.5 0 .1 0 .1.1.2v.6c0 .1 0 .1.1.1h.2c.1 0 .1 0 .1-.1v-.6-.2c0-.1.1-.3.3-.6.1-.3-.2-.7-.6-.7z" fill="url(#Cj)"/><g class="DL"><path d="M45 20.8v.2c.6-.1 1.3-.1 1.9-.2h.1v-.2c-.6.1-1.3.1-2 .2z"/><path d="M45 21.1v.2l2-.2v-.2c0 0-1.3.1-2 .2z"/><path d="M47 20.4h-1.9v.3c.6-.1 1.3-.1 1.9-.3 0 .1 0 .1 0 0h0 0zm-2 1h0c.7.1 1.3.1 2 .1v-.3c-.7 0-1.3.1-2 .2z"/></g></g><linearGradient id="Ck" gradientUnits="userSpaceOnUse" x1="14.8" y1="21.972" x2="20.092" y2="21.972"><stop offset="0" stop-color="#ff6279"/><stop offset="1" stop-color="#ffad60"/></linearGradient><path d="M14.8 21.2a1.69 1.69 0 0 1 .3-1c.1-.3.3-.5.6-.7.2-.2.4-.3.6-.4 2-.9 4.1.7 3.8 2.8 0 .2-.1.5-.2.8-.2.5-.7.9-1.2 1.2l-.9.3h-.4c-.2 0-.4 0-.5-.1h-.1l-1.3 1 .3-1.5c-.3-.3-.6-.6-.7-1-.1-.2-.1-.4-.2-.6v-.3l-.1-.5z" fill="url(#Ck)"/><path d="M18.8 22.3h0l-.8-.8c.1-.2.2-.4.2-.5 0-.6-.5-1-1-1-.6 0-1 .5-1 1 0 .6.5 1 1 1 .2 0 .4-.1.6-.2l.8.8.1.1c.1 0 .1 0 .1-.1v-.3zM17.7 21c0 .4-.3.6-.6.6-.4 0-.6-.3-.6-.6 0-.4.3-.6.6-.6.4 0 .6.2.6.6z" class="DL"/><linearGradient id="Cl" gradientUnits="userSpaceOnUse" x1="64.462" y1="19.95" x2="74.834" y2="19.95"><stop offset="0" stop-color="#744ee1"/><stop offset="1" stop-color="#6e91f4"/></linearGradient><path d="M73.5 16.8h-7.7c-.7 0-1.3.6-1.3 1.3v2.3c0 .7.6 1.3 1.3 1.3h5.9l1.7 1.4-.3-1.4h.3c.7 0 1.3-.6 1.3-1.3v-2.3c.1-.7-.5-1.3-1.2-1.3z" fill="url(#Cl)"/><g class="DL"><path d="M71.6 17.9h-2.1s-.1 0-.1.1c0 0 0 .1.1.1h2.1s.1-.1 0-.2h0zm2.1 0H72s-.1 0-.1.1c0 0 0 .1.1.1h1.7s.1-.1 0-.2h0zm-1.1.7h-3.1s-.1 0-.1.1c0 0 0 .1.1.1h3.1v-.2h0zm1.1-.1H73s-.1 0-.1.1c0 0 0 .1.1.1h.7s.1 0 0-.2c.1.1.1 0 0 0zm-2.9.7h-1.4s-.1 0-.1.1c0 0 0 .1.1.1h1.4s.1-.1 0-.2h0zm2.2 0h-1.7s-.1 0-.1.1c0 0 0 .1.1.1H73v-.2h0zm-.2 1.3h-.9s-.1 0-.1.1c0 0 0 .1.1.1h.9v-.2h0zm.9-.7h-1s-.1 0-.1.1c0 0 0 .1.1.1h1s.1-.1 0-.2h0z"/><path d="M71.3 20.5h-1.8s-.1 0-.1.1c0 0 0 .1.1.1h1.8s.1-.1 0-.2h0zm1-.7h-2.8s-.1 0-.1.1c0 0 0 .1.1.1h2.8c-.1 0 0-.1 0-.2h0z"/></g><linearGradient id="Cm" gradientUnits="userSpaceOnUse" x1="68.637" y1="19.2" x2="65.316" y2="19.2"><stop offset="0" stop-color="#f0f0fb"/><stop offset="1" stop-color="#d2d7f6"/></linearGradient><path d="M66.5 20.9h1c.6 0 1.2-.5 1.2-1.2v-1c0-.6-.5-1.2-1.2-1.2h-1c-.6 0-1.2.5-1.2 1.2v1c0 .7.5 1.2 1.2 1.2z" fill="url(#Cm)"/><defs><path id="Cn" d="M66.5 20.9h1c.6 0 1.2-.5 1.2-1.2v-1c0-.6-.5-1.2-1.2-1.2h-1c-.6 0-1.2.5-1.2 1.2v1c0 .7.5 1.2 1.2 1.2z"/><path id="Co" d="M17.9 51a.65.65 0 0 0 .6.6.65.65 0 0 0 .6-.6.65.65 0 0 0-.6-.6.65.65 0 0 0-.6.6z"/><path id="Cp" d="M18.3 51c0 .1.1.2.2.2s.2-.1.2-.2-.1-.2-.2-.2c-.1-.1-.2 0-.2.2z"/><path id="Cq" d="M9.3 51a.65.65 0 0 1-.6.6.65.65 0 0 1-.6-.6.65.65 0 0 1 .6-.6c.4 0 .6.3.6.6z"/><path id="Cr" d="M9 51c0 .1-.1.2-.2.2s-.2-.1-.2-.2.1-.2.2-.2c.1-.1.2 0 .2.2z"/><path id="Cs" d="M24.8 44.9h.1v.1l-.2.2h-.1 0v-.1l.2-.2z"/><path id="Ct" d="M17.3 35.4h-.5v.2h.5z"/><path id="Cu" d="M42 29.8h0c.1.1.1.2 0 .2-.1-.1-.1-.1 0-.2-.1 0-.1 0 0 0z"/><path id="Cv" d="M40.5 24.9c.1 0 .1 0 .1.1s0 .1-.1.1-.1 0-.1-.1c0 0 0-.1.1-.1z"/><path id="Cw" d="M40.6 25.7c.1 0 .1 0 .1.1s0 .1-.1.1-.1 0-.1-.1 0-.1.1-.1z"/><path id="Cx" d="M39.6 25.7c.1 0 .1 0 .1.1s0 .1-.1.1-.1 0-.1-.1.1-.1.1-.1z"/><path id="Cy" d="M39.5 35.5v.2h-.4v-.2z"/><path id="Cz" d="M44.2 35.5l.1.2h-.5l.1-.2z"/><path id="DA" d="M6.1 50.8V36.4c0-.1.1-.1.1-.1h8.7c.1 0 .1.1.1.1v14.5a.68.68 0 0 1-.7.7H6.8c-.4-.1-.7-.4-.7-.8zm8.7-.1V36.5H6.3v14.2a.65.65 0 0 0 .6.6h7.3a.65.65 0 0 0 .6-.6z"/><path id="DB" d="M52.4 24.4c.9.8.3 1.9.5 2.6.2.6.6 1.5.6 1.5l-2 1.1s.3-1.2 0-1.1-.6.2-.7.1c-1.1-1-1-1.7-1-2.1.1-.4-.2-.3-.3-.6-.4-1.6 2-2.3 2.9-1.5z"/><path id="DC" d="M29.4 16.3h-1.5c-.1 0-.1.1-.1.1v.1c0 .1.1.1.1.1h1.5c.1 0 .1-.1.1-.1v-.1c0-.1 0-.1-.1-.1z"/></defs><clipPath id="DD"><use xlink:href="#Cn"/></clipPath><linearGradient id="DE" gradientUnits="userSpaceOnUse" x1="68.637" y1="20.112" x2="65.348" y2="20.112"><stop offset="0" stop-color="#c8d6f9"/><stop offset="1" stop-color="#acb5e8"/></linearGradient><path d="M68.6 21l-1.1-1.7c0-.1-.1-.1-.2 0l-.6 1-.5-.6c-.1-.1-.1 0-.2 0l-.7 1.3h3.3z" clip-path="url(#DD)" fill="url(#DE)"/><defs><path id="DF" d="M66.5 20.9h1c.6 0 1.2-.5 1.2-1.2v-1c0-.6-.5-1.2-1.2-1.2h-1c-.6 0-1.2.5-1.2 1.2v1c0 .7.5 1.2 1.2 1.2z"/></defs><clipPath id="DG"><use xlink:href="#DF"/></clipPath><linearGradient id="DH" gradientUnits="userSpaceOnUse" x1="67.471" y1="18.3" x2="66.61" y2="18.3"><stop offset="0" stop-color="#c8d6f9"/><stop offset="1" stop-color="#acb5e8"/></linearGradient><path d="M66.6 18.3c0 .2.2.4.4.4s.4-.2.4-.4-.2-.4-.4-.4-.4.2-.4.4z" clip-path="url(#DG)" fill="url(#DH)"/><defs><path id="DI" d="M66.5 20.9h1c.6 0 1.2-.5 1.2-1.2v-1c0-.6-.5-1.2-1.2-1.2h-1c-.6 0-1.2.5-1.2 1.2v1c0 .7.5 1.2 1.2 1.2z"/></defs><clipPath id="DJ"><use xlink:href="#DI"/></clipPath><linearGradient id="DK" gradientUnits="userSpaceOnUse" x1="67.032" y1="19.2" x2="65.534" y2="19.2"><stop offset="0" stop-color="#c8d6f9"/><stop offset="1" stop-color="#acb5e8"/></linearGradient><path d="M65.5 19.2c.1.1.1.1 0 0 .2.1.4.1.5.1h.2c.1 0 .2.1.3.1s.2-.1.3-.1.2 0 .2-.1c-.1-.1-.4-.1-.5-.1h-.2c-.1 0-.1 0-.1-.1h-.1-.2c-.1 0-.1.1-.2.1 0 0-.2 0-.2.1z" clip-path="url(#DJ)" fill="url(#DK)"/><defs><path id="DL" d="M66.5 20.9h1c.6 0 1.2-.5 1.2-1.2v-1c0-.6-.5-1.2-1.2-1.2h-1c-.6 0-1.2.5-1.2 1.2v1c0 .7.5 1.2 1.2 1.2z"/></defs><clipPath id="DM"><use xlink:href="#DL"/></clipPath><linearGradient id="DN" gradientUnits="userSpaceOnUse" x1="69.094" y1="19" x2="67.812" y2="19"><stop offset="0" stop-color="#c8d6f9"/><stop offset="1" stop-color="#acb5e8"/></linearGradient><path d="M68 19.1c.2.1.4.1.6.1.1 0 .3 0 .4-.1s.1-.2 0-.2c-.1-.1-.1-.1-.2 0-.1-.1-.3-.1-.4-.1h-.2-.1-.2c-.2 0-.1.2.1.3z" clip-path="url(#DM)" fill="url(#DN)"/><defs><path id="DO" d="M66.5 20.9h1c.6 0 1.2-.5 1.2-1.2v-1c0-.6-.5-1.2-1.2-1.2h-1c-.6 0-1.2.5-1.2 1.2v1c0 .7.5 1.2 1.2 1.2z"/></defs><clipPath id="DP"><use xlink:href="#DO"/></clipPath><linearGradient id="DQ" gradientUnits="userSpaceOnUse" x1="66.1" y1="18.4" x2="64.839" y2="18.4"><stop offset="0" stop-color="#c8d6f9"/><stop offset="1" stop-color="#acb5e8"/></linearGradient><path d="M65 18.5c.2.1.4.1.6.1.1 0 .3 0 .4-.1s.1-.2 0-.2c-.1-.1-.1-.1-.2 0-.1-.1-.3-.1-.4-.1h-.2-.1-.2c-.2 0 0 .2.1.3z" clip-path="url(#DP)" fill="url(#DQ)"/></svg>