<?xml version="1.0" encoding="utf-8"?>
<!-- Generator: Adobe Illustrator 24.1.1, SVG Export Plug-In . SVG Version: 6.00 Build 0)  -->
<svg version="1.1" id="Layer_1" xmlns="http://www.w3.org/2000/svg" xmlns:xlink="http://www.w3.org/1999/xlink" x="0px" y="0px"
	 viewBox="0 0 296 87" style="enable-background:new 0 0 296 87;" xml:space="preserve">
<style type="text/css">
	.st0{fill:#91A7C9;}
</style>
<g>
	<path class="st0" d="M53.5,31.5c-3.6-2.1-7.6-3.2-12-3.2c-3.2,0-6.2,0.6-9,1.8c-2.4,1-4.5,2.3-6.5,4V38c0,0.1,0,0.3,0,0.4V24.5
		c0-0.1,0-0.1,0-0.2v-11c0-1.2-0.4-2.2-1.2-2.9c-0.8-0.8-1.8-1.2-3-1.2c-1.1,0-2.1,0.4-2.9,1.2s-1.2,1.8-1.3,3v30c0,0.1,0,0.2,0,0.2
		v30.7c0,2,1.6,3.6,3.5,3.6h1.4c1.9,0,3.5-1.6,3.5-3.6v-3.9c1.3,1.1,2.7,2.1,4.2,2.9c3.4,1.9,7.2,2.8,11.3,2.8c4.4,0,8.4-1.1,12-3.2
		s6.5-5,8.6-8.6s3.2-7.7,3.2-12s-1.1-8.4-3.2-12.1C60,36.6,57.1,33.7,53.5,31.5z M54.9,60.1c-1.4,2.4-3.3,4.3-5.6,5.7
		c-2.3,1.4-4.9,2.1-7.8,2.1c-4.1,0-7.7-1.4-10.6-4.2C28,60.8,26.3,57.2,26,53v-1.4c0.3-4.2,1.9-7.8,4.8-10.7
		c2.9-2.8,6.5-4.3,10.6-4.3c2.9,0,5.5,0.7,7.8,2.1c2.3,1.4,4.2,3.3,5.6,5.7s2.1,5,2.1,7.8C57,55.1,56.3,57.7,54.9,60.1z"/>
	<path class="st0" d="M127.7,22.1v-8.8c0-1.2-0.4-2.2-1.2-2.9c-0.8-0.8-1.8-1.2-3-1.2c-1.1,0-2.1,0.4-2.9,1.2
		c-0.8,0.8-1.2,1.8-1.3,3v20.7c-1.9-1.6-4.1-3-6.5-4c-2.8-1.2-5.9-1.8-9.1-1.8c-4.4,0-8.4,1.1-12,3.2s-6.5,5.1-8.7,8.7
		c-2.2,3.6-3.3,7.7-3.3,12.1s1.1,8.4,3.3,12s5.1,6.5,8.7,8.7c3.6,2.2,7.7,3.3,12,3.3c4.1,0,7.9-1,11.4-2.9c1.5-0.8,2.9-1.8,4.2-2.9
		v3.9c0,2,1.6,3.6,3.5,3.6h1.4c1.9,0,3.5-1.6,3.5-3.6V43.5c0-0.1,0-0.3,0-0.4l0.1-20.5C127.8,22.5,127.7,22.3,127.7,22.1z
		 M114.4,63.6c-2.9,2.8-6.5,4.3-10.7,4.3c-2.9,0-5.5-0.7-7.8-2.1c-2.4-1.4-4.3-3.3-5.7-5.7c-1.4-2.3-2.1-5-2.1-7.8
		c0-2.9,0.7-5.5,2.1-7.8c1.4-2.4,3.3-4.3,5.7-5.7c2.3-1.4,5-2.1,7.8-2.1c4.2,0,7.8,1.4,10.7,4.3c2.9,2.8,4.6,6.4,4.9,10.6V53
		C119,57.2,117.3,60.8,114.4,63.6z"/>
	<path class="st0" d="M175.2,40.3c-2.1-3.6-5-6.5-8.6-8.6s-7.7-3.2-12-3.2c-4.4,0-8.4,1.1-12.1,3.2c-3.6,2.1-6.5,5-8.7,8.6
		c-2.1,3.6-3.2,7.7-3.2,12.1s1.1,8.4,3.2,12c2.1,3.6,5.1,6.5,8.7,8.6c3.6,2.1,7.7,3.2,12.1,3.2c4.4,0,8.4-1.1,12-3.2s6.5-5,8.6-8.6
		s3.2-7.7,3.2-12C178.4,47.9,177.3,43.9,175.2,40.3z M167.9,60.2c-1.4,2.3-3.3,4.2-5.6,5.6s-5,2.1-7.8,2.1c-2.9,0-5.5-0.7-7.8-2.1
		c-2.4-1.4-4.3-3.3-5.7-5.6s-2.1-5-2.1-7.8c0-2.9,0.7-5.5,2.1-7.8c1.4-2.4,3.3-4.3,5.7-5.7c2.3-1.4,5-2.1,7.8-2.1
		c2.9,0,5.5,0.7,7.8,2.1c2.3,1.4,4.2,3.3,5.6,5.7c1.4,2.4,2.1,5,2.1,7.8C170,55.2,169.3,57.8,167.9,60.2z"/>
	<path class="st0" d="M82.3,19.4c0-5.5-4.5-10-10-10s-10,4.5-10,10c0,4,2.4,7.5,5.8,9.1v11.8c0,0.1,0,0.3,0,0.4v2.5v28.2v2.5
		c0,2,1.6,3.6,3.5,3.6H73c1.9,0,3.5-1.6,3.5-3.6v-2.5V43.2v-2.5c0-0.1,0-0.3,0-0.4V28.5C79.9,26.9,82.3,23.5,82.3,19.4z M72.3,15.3
		c2.3,0,4.1,1.8,4.1,4.1c0,0.3,0,0.6-0.1,0.9c-0.4,1.8-2.1,3.2-4,3.2s-3.5-1.3-4-3.1c-0.1-0.3-0.1-0.7-0.1-1
		C68.2,17.2,70,15.3,72.3,15.3z"/>
	<path class="st0" d="M41.5,44.7c-4.2,0-7.6,3.4-7.6,7.6s3.4,7.6,7.6,7.6s7.6-3.4,7.6-7.6S45.7,44.7,41.5,44.7z"/>
	<path class="st0" d="M103.4,44.8c-4.2,0-7.6,3.4-7.6,7.6s3.4,7.6,7.6,7.6c4.2,0,7.6-3.4,7.6-7.6S107.6,44.8,103.4,44.8z"/>
	<path class="st0" d="M154.5,44.8c-4.2,0-7.6,3.4-7.6,7.6s3.4,7.6,7.6,7.6c4.2,0,7.6-3.4,7.6-7.6S158.6,44.8,154.5,44.8z"/>
</g>
</svg>
