<?xml version="1.0" encoding="utf-8"?>
<!-- Generator: Adobe Illustrator 16.0.3, SVG Export Plug-In . SVG Version: 6.00 Build 0)  -->
<!DOCTYPE svg PUBLIC "-//W3C//DTD SVG 1.1//EN" "http://www.w3.org/Graphics/SVG/1.1/DTD/svg11.dtd">
<svg version="1.1" id="Layer_1" xmlns="http://www.w3.org/2000/svg" xmlns:xlink="http://www.w3.org/1999/xlink" x="0px" y="0px"
	 width="60px" height="60px" viewBox="0 0 60 60" enable-background="new 0 0 60 60" xml:space="preserve">
<path opacity="0.3" fill="#FFFFFF" d="M6.118,18.863c0.184,0.501-0.074,1.057-0.576,1.24c-0.502,0.184-1.057-0.075-1.24-0.577
	c-0.184-0.502,0.073-1.057,0.576-1.241C5.379,18.102,5.935,18.36,6.118,18.863"/>
<path opacity="0.3" fill="#FFFFFF" d="M7.494,22.629c0.183,0.501-0.075,1.058-0.576,1.241c-0.503,0.184-1.057-0.076-1.24-0.577
	c-0.183-0.502,0.074-1.057,0.576-1.24C6.755,21.869,7.31,22.128,7.494,22.629"/>
<path opacity="0.3" fill="#FFFFFF" d="M8.869,26.396c0.183,0.502-0.075,1.058-0.576,1.241c-0.503,0.184-1.057-0.076-1.24-0.578
	c-0.183-0.501,0.074-1.057,0.576-1.24C8.131,25.636,8.686,25.895,8.869,26.396"/>
<path opacity="0.3" fill="#FFFFFF" d="M10.245,30.164c0.183,0.501-0.074,1.057-0.576,1.24c-0.502,0.184-1.057-0.076-1.24-0.577
	c-0.184-0.502,0.073-1.057,0.576-1.241C9.506,29.403,10.062,29.662,10.245,30.164"/>
<path opacity="0.3" fill="#FFFFFF" d="M11.621,33.931c0.183,0.502-0.075,1.058-0.576,1.241c-0.503,0.184-1.057-0.076-1.24-0.578
	c-0.183-0.501,0.074-1.056,0.577-1.239C10.882,33.171,11.438,33.43,11.621,33.931"/>
<path opacity="0.3" fill="#FFFFFF" d="M12.996,37.698c0.183,0.502-0.075,1.057-0.576,1.239c-0.503,0.184-1.057-0.074-1.24-0.576
	c-0.183-0.502,0.074-1.057,0.576-1.24C12.258,36.938,12.813,37.196,12.996,37.698"/>
<path opacity="0.3" fill="#FFFFFF" d="M14.372,41.466c0.183,0.501-0.075,1.057-0.577,1.239c-0.502,0.184-1.057-0.075-1.24-0.576
	c-0.184-0.503,0.074-1.058,0.576-1.24C13.634,40.705,14.188,40.963,14.372,41.466"/>
<path opacity="0.3" fill="#FFFFFF" d="M15.748,45.232c0.183,0.501-0.075,1.057-0.577,1.239c-0.503,0.184-1.057-0.074-1.24-0.576
	c-0.183-0.501,0.074-1.057,0.577-1.24C15.009,44.473,15.564,44.731,15.748,45.232"/>
<path opacity="0.3" fill="#FFFFFF" d="M17.123,48.999c0.184,0.502-0.075,1.057-0.576,1.24c-0.503,0.184-1.057-0.075-1.24-0.576
	s0.073-1.058,0.576-1.241C16.385,48.239,16.94,48.499,17.123,48.999"/>
<path opacity="0.3" fill="#FFFFFF" d="M18.499,52.767c0.183,0.501-0.075,1.057-0.577,1.24c-0.502,0.184-1.057-0.076-1.24-0.577
	c-0.184-0.502,0.074-1.057,0.576-1.24C17.761,52.006,18.315,52.265,18.499,52.767"/>
<path opacity="0.3" fill="#FFFFFF" d="M9.838,17.504c0.184,0.502-0.075,1.058-0.577,1.241c-0.502,0.183-1.057-0.075-1.24-0.577
	c-0.184-0.502,0.074-1.058,0.576-1.241C9.099,16.744,9.655,17.002,9.838,17.504"/>
<path opacity="0.3" fill="#FFFFFF" d="M11.214,21.271c0.183,0.501-0.076,1.058-0.577,1.241c-0.502,0.184-1.057-0.076-1.24-0.577
	c-0.183-0.502,0.075-1.057,0.576-1.24S11.03,20.769,11.214,21.271"/>
<path opacity="0.3" fill="#FFFFFF" d="M12.589,25.038c0.183,0.501-0.076,1.058-0.577,1.241c-0.502,0.183-1.057-0.076-1.24-0.578
	c-0.183-0.501,0.075-1.057,0.576-1.24C11.85,24.278,12.406,24.537,12.589,25.038"/>
<path opacity="0.3" fill="#FFFFFF" d="M13.965,28.805c0.183,0.501-0.075,1.058-0.577,1.241c-0.502,0.183-1.057-0.076-1.24-0.577
	c-0.184-0.502,0.074-1.058,0.576-1.241C13.226,28.045,13.782,28.304,13.965,28.805"/>
<path opacity="0.3" fill="#FFFFFF" d="M15.341,32.572c0.183,0.502-0.076,1.058-0.577,1.241c-0.502,0.183-1.057-0.076-1.24-0.578
	c-0.183-0.501,0.075-1.057,0.577-1.239C14.602,31.813,15.158,32.071,15.341,32.572"/>
<path opacity="0.3" fill="#FFFFFF" d="M16.716,36.34c0.183,0.502-0.076,1.057-0.577,1.24c-0.501,0.183-1.056-0.075-1.24-0.577
	c-0.183-0.502,0.075-1.058,0.576-1.24C15.977,35.579,16.533,35.838,16.716,36.34"/>
<path opacity="0.3" fill="#FFFFFF" d="M18.092,40.107c0.183,0.501-0.076,1.057-0.577,1.239c-0.502,0.184-1.057-0.075-1.24-0.576
	c-0.184-0.503,0.074-1.058,0.576-1.24C17.353,39.347,17.909,39.604,18.092,40.107"/>
<path opacity="0.3" fill="#FFFFFF" d="M19.468,43.874c0.183,0.501-0.076,1.057-0.577,1.239c-0.502,0.184-1.057-0.074-1.24-0.576
	c-0.183-0.501,0.075-1.057,0.577-1.24C18.729,43.114,19.285,43.373,19.468,43.874"/>
<path opacity="0.3" fill="#FFFFFF" d="M20.843,47.641c0.183,0.502-0.076,1.058-0.577,1.24c-0.502,0.184-1.057-0.074-1.24-0.576
	c-0.183-0.501,0.075-1.058,0.576-1.241C20.104,46.881,20.661,47.141,20.843,47.641"/>
<path opacity="0.3" fill="#FFFFFF" d="M22.219,51.408c0.183,0.501-0.076,1.057-0.577,1.24c-0.502,0.184-1.057-0.076-1.24-0.576
	c-0.184-0.503,0.074-1.058,0.576-1.241C21.48,50.648,22.036,50.905,22.219,51.408"/>
<path opacity="0.3" fill="#FFFFFF" d="M13.558,16.146c0.183,0.502-0.075,1.057-0.577,1.241c-0.502,0.183-1.056-0.076-1.239-0.577
	c-0.184-0.502,0.074-1.058,0.576-1.241S13.375,15.644,13.558,16.146"/>
<path opacity="0.3" fill="#FFFFFF" d="M14.934,19.913c0.183,0.501-0.075,1.058-0.577,1.241c-0.502,0.184-1.057-0.076-1.24-0.578
	c-0.184-0.501,0.074-1.057,0.576-1.24C14.195,19.152,14.75,19.411,14.934,19.913"/>
<path opacity="0.3" fill="#FFFFFF" d="M16.31,23.679c0.183,0.502-0.075,1.058-0.577,1.241c-0.502,0.183-1.057-0.076-1.24-0.578
	c-0.183-0.501,0.074-1.057,0.576-1.24C15.571,22.919,16.126,23.178,16.31,23.679"/>
<path opacity="0.3" fill="#FFFFFF" d="M17.685,27.447c0.183,0.501-0.075,1.057-0.577,1.241c-0.502,0.183-1.057-0.076-1.239-0.577
	c-0.184-0.502,0.074-1.057,0.576-1.241C16.946,26.687,17.502,26.945,17.685,27.447"/>
<path opacity="0.3" fill="#FFFFFF" d="M19.061,31.214c0.184,0.502-0.075,1.058-0.577,1.241c-0.502,0.183-1.057-0.076-1.24-0.578
	c-0.183-0.501,0.074-1.056,0.576-1.239C18.322,30.454,18.878,30.712,19.061,31.214"/>
<path opacity="0.3" fill="#FFFFFF" d="M20.437,34.981c0.183,0.502-0.075,1.057-0.578,1.24c-0.501,0.183-1.056-0.075-1.239-0.577
	c-0.183-0.502,0.074-1.058,0.576-1.24C19.698,34.221,20.253,34.479,20.437,34.981"/>
<path opacity="0.3" fill="#FFFFFF" d="M21.813,38.749c0.183,0.5-0.075,1.057-0.578,1.239c-0.502,0.184-1.057-0.075-1.239-0.576
	c-0.184-0.503,0.074-1.058,0.576-1.24C21.074,37.988,21.629,38.246,21.813,38.749"/>
<path opacity="0.3" fill="#FFFFFF" d="M23.188,42.515c0.184,0.502-0.075,1.058-0.577,1.24c-0.502,0.184-1.056-0.074-1.239-0.576
	c-0.183-0.501,0.074-1.057,0.576-1.24C22.449,41.756,23.005,42.015,23.188,42.515"/>
<path opacity="0.3" fill="#FFFFFF" d="M24.563,46.282c0.183,0.502-0.075,1.057-0.578,1.24c-0.501,0.184-1.056-0.075-1.239-0.576
	c-0.183-0.501,0.074-1.058,0.576-1.241C23.825,45.522,24.38,45.781,24.563,46.282"/>
<path opacity="0.3" fill="#FFFFFF" d="M25.939,50.05c0.183,0.501-0.075,1.057-0.578,1.24c-0.502,0.184-1.057-0.076-1.239-0.577
	c-0.184-0.502,0.074-1.057,0.576-1.24C25.201,49.289,25.756,49.547,25.939,50.05"/>
<path opacity="0.3" fill="#FFFFFF" d="M17.277,14.788c0.183,0.501-0.075,1.057-0.576,1.24c-0.501,0.183-1.057-0.075-1.24-0.577
	c-0.183-0.502,0.075-1.058,0.576-1.241C16.539,14.027,17.094,14.285,17.277,14.788"/>
<path opacity="0.3" fill="#FFFFFF" d="M18.653,18.554c0.183,0.501-0.074,1.058-0.576,1.241c-0.501,0.183-1.057-0.076-1.24-0.577
	c-0.184-0.502,0.075-1.057,0.576-1.24C17.915,17.794,18.47,18.053,18.653,18.554"/>
<path opacity="0.3" fill="#FFFFFF" d="M20.029,22.321c0.183,0.502-0.075,1.058-0.576,1.241s-1.057-0.076-1.24-0.578
	c-0.183-0.501,0.075-1.057,0.576-1.24C19.291,21.561,19.846,21.82,20.029,22.321"/>
<path opacity="0.3" fill="#FFFFFF" d="M21.404,26.089c0.183,0.501-0.075,1.057-0.576,1.24c-0.501,0.183-1.057-0.076-1.24-0.577
	c-0.183-0.502,0.075-1.058,0.576-1.241C20.666,25.328,21.221,25.587,21.404,26.089"/>
<path opacity="0.3" fill="#FFFFFF" d="M22.78,29.855c0.184,0.502-0.074,1.058-0.576,1.241c-0.501,0.183-1.057-0.076-1.24-0.578
	s0.075-1.057,0.576-1.24C22.042,29.096,22.597,29.354,22.78,29.855"/>
<path opacity="0.3" fill="#FFFFFF" d="M24.156,33.623c0.183,0.502-0.075,1.057-0.577,1.239c-0.501,0.184-1.056-0.074-1.24-0.576
	c-0.183-0.502,0.075-1.058,0.576-1.24C23.417,32.862,23.973,33.121,24.156,33.623"/>
<path opacity="0.3" fill="#FFFFFF" d="M25.532,37.391c0.183,0.501-0.075,1.057-0.577,1.239c-0.501,0.184-1.057-0.075-1.24-0.576
	c-0.184-0.503,0.075-1.058,0.576-1.241C24.793,36.63,25.348,36.888,25.532,37.391"/>
<path opacity="0.3" fill="#FFFFFF" d="M26.907,41.157c0.184,0.501-0.075,1.057-0.576,1.239c-0.501,0.184-1.057-0.074-1.24-0.576
	c-0.183-0.501,0.075-1.057,0.576-1.24C26.169,40.397,26.724,40.656,26.907,41.157"/>
<path opacity="0.3" fill="#FFFFFF" d="M28.283,44.924c0.183,0.502-0.075,1.057-0.577,1.24c-0.501,0.183-1.056-0.075-1.24-0.576
	c-0.183-0.501,0.075-1.058,0.576-1.241C27.544,44.164,28.1,44.424,28.283,44.924"/>
<path opacity="0.3" fill="#FFFFFF" d="M29.659,48.691c0.183,0.501-0.075,1.057-0.577,1.24c-0.501,0.183-1.057-0.076-1.24-0.577
	c-0.184-0.502,0.075-1.058,0.576-1.24C28.92,47.931,29.475,48.189,29.659,48.691"/>
<path opacity="0.3" fill="#FFFFFF" d="M20.998,13.429c0.183,0.502-0.075,1.057-0.577,1.241c-0.502,0.183-1.057-0.075-1.24-0.577
	c-0.183-0.502,0.075-1.058,0.576-1.241C20.259,12.668,20.814,12.927,20.998,13.429"/>
<path opacity="0.3" fill="#FFFFFF" d="M22.373,17.196c0.183,0.501-0.074,1.058-0.577,1.241c-0.501,0.184-1.057-0.076-1.24-0.577
	c-0.184-0.502,0.074-1.057,0.576-1.24C21.635,16.436,22.19,16.694,22.373,17.196"/>
<path opacity="0.3" fill="#FFFFFF" d="M23.749,20.963c0.183,0.501-0.075,1.057-0.577,1.241c-0.502,0.183-1.057-0.076-1.24-0.578
	c-0.183-0.501,0.075-1.057,0.576-1.24C23.011,20.203,23.566,20.461,23.749,20.963"/>
<path opacity="0.3" fill="#FFFFFF" d="M25.125,24.73c0.183,0.501-0.075,1.057-0.577,1.241c-0.502,0.183-1.057-0.076-1.24-0.577
	c-0.183-0.502,0.075-1.058,0.576-1.241C24.386,23.97,24.941,24.229,25.125,24.73"/>
<path opacity="0.3" fill="#FFFFFF" d="M26.5,28.497c0.184,0.502-0.074,1.058-0.577,1.241c-0.501,0.184-1.057-0.076-1.24-0.577
	s0.075-1.057,0.576-1.24C25.762,27.737,26.317,27.996,26.5,28.497"/>
<path opacity="0.3" fill="#FFFFFF" d="M27.876,32.265c0.183,0.502-0.075,1.057-0.577,1.24c-0.501,0.183-1.057-0.075-1.24-0.577
	s0.075-1.058,0.576-1.24C27.138,31.504,27.693,31.763,27.876,32.265"/>
<path opacity="0.3" fill="#FFFFFF" d="M29.251,36.032c0.183,0.501-0.075,1.057-0.577,1.239c-0.502,0.184-1.057-0.075-1.24-0.576
	c-0.184-0.503,0.074-1.058,0.576-1.24C28.513,35.271,29.068,35.529,29.251,36.032"/>
<path opacity="0.3" fill="#FFFFFF" d="M30.627,39.799c0.184,0.501-0.075,1.056-0.577,1.239s-1.057-0.074-1.24-0.576
	c-0.183-0.501,0.075-1.057,0.576-1.24C29.889,39.039,30.444,39.298,30.627,39.799"/>
<path opacity="0.3" fill="#FFFFFF" d="M32.003,43.565c0.184,0.502-0.075,1.057-0.577,1.24c-0.501,0.184-1.056-0.074-1.24-0.576
	c-0.183-0.501,0.075-1.058,0.576-1.241C31.265,42.805,31.82,43.064,32.003,43.565"/>
<path opacity="0.3" fill="#FFFFFF" d="M33.379,47.333c0.183,0.501-0.075,1.057-0.577,1.24s-1.057-0.076-1.24-0.576
	c-0.184-0.503,0.075-1.058,0.576-1.241C32.641,46.572,33.195,46.83,33.379,47.333"/>
<path opacity="0.3" fill="#FFFFFF" d="M24.718,12.07c0.183,0.501-0.076,1.057-0.577,1.24c-0.502,0.184-1.058-0.075-1.242-0.577
	c-0.183-0.502,0.076-1.058,0.578-1.241C23.979,11.31,24.535,11.568,24.718,12.07"/>
<path opacity="0.3" fill="#FFFFFF" d="M26.094,15.837c0.183,0.501-0.075,1.058-0.577,1.241c-0.502,0.183-1.058-0.076-1.241-0.577
	c-0.184-0.501,0.075-1.057,0.578-1.241C25.354,15.077,25.911,15.335,26.094,15.837"/>
<path opacity="0.3" fill="#FFFFFF" d="M27.469,19.604c0.184,0.502-0.075,1.058-0.577,1.241c-0.502,0.184-1.058-0.075-1.241-0.577
	s0.075-1.058,0.578-1.241C26.73,18.844,27.286,19.103,27.469,19.604"/>
<path opacity="0.3" fill="#FFFFFF" d="M28.845,23.372c0.183,0.501-0.076,1.057-0.577,1.24c-0.502,0.184-1.059-0.075-1.242-0.577
	s0.076-1.058,0.578-1.241C28.106,22.611,28.662,22.87,28.845,23.372"/>
<path opacity="0.3" fill="#FFFFFF" d="M30.221,27.138c0.183,0.502-0.075,1.058-0.577,1.241c-0.502,0.183-1.058-0.075-1.241-0.577
	c-0.183-0.501,0.076-1.057,0.578-1.24C29.482,26.379,30.038,26.637,30.221,27.138"/>
<path opacity="0.3" fill="#FFFFFF" d="M31.597,30.906c0.183,0.501-0.076,1.057-0.577,1.24c-0.502,0.184-1.058-0.074-1.241-0.576
	c-0.183-0.501,0.075-1.058,0.578-1.241C30.857,30.146,31.413,30.404,31.597,30.906"/>
<path opacity="0.3" fill="#FFFFFF" d="M32.973,34.673c0.183,0.501-0.076,1.058-0.577,1.24c-0.502,0.184-1.059-0.075-1.241-0.576
	c-0.184-0.503,0.075-1.058,0.577-1.241C32.233,33.913,32.789,34.171,32.973,34.673"/>
<path opacity="0.3" fill="#FFFFFF" d="M34.348,38.439c0.184,0.502-0.075,1.057-0.577,1.24s-1.058-0.074-1.241-0.576
	c-0.183-0.501,0.076-1.057,0.578-1.24C33.608,37.681,34.165,37.938,34.348,38.439"/>
<path opacity="0.3" fill="#FFFFFF" d="M35.724,42.207c0.184,0.502-0.076,1.057-0.577,1.24c-0.502,0.184-1.058-0.074-1.241-0.576
	c-0.183-0.501,0.075-1.058,0.578-1.241C34.984,41.446,35.541,41.706,35.724,42.207"/>
<path opacity="0.3" fill="#FFFFFF" d="M37.1,45.975c0.183,0.501-0.076,1.057-0.577,1.24c-0.502,0.183-1.059-0.075-1.241-0.576
	c-0.184-0.503,0.075-1.058,0.577-1.241S36.916,45.472,37.1,45.975"/>
<path opacity="0.3" fill="#FFFFFF" d="M28.438,10.712c0.183,0.502-0.076,1.058-0.576,1.24c-0.503,0.184-1.057-0.075-1.24-0.577
	c-0.183-0.502,0.074-1.057,0.576-1.241C27.698,9.952,28.254,10.21,28.438,10.712"/>
<path opacity="0.3" fill="#FFFFFF" d="M29.813,14.479c0.183,0.501-0.075,1.058-0.576,1.241c-0.502,0.184-1.057-0.076-1.24-0.578
	s0.074-1.057,0.577-1.24C29.074,13.719,29.63,13.977,29.813,14.479"/>
<path opacity="0.3" fill="#FFFFFF" d="M31.188,18.246c0.184,0.501-0.075,1.058-0.576,1.24c-0.502,0.184-1.057-0.075-1.24-0.577
	c-0.183-0.501,0.073-1.057,0.576-1.24C30.45,17.486,31.006,17.745,31.188,18.246"/>
<path opacity="0.3" fill="#FFFFFF" d="M32.564,22.013c0.183,0.501-0.075,1.058-0.576,1.24c-0.503,0.184-1.057-0.076-1.24-0.577
	c-0.183-0.502,0.074-1.057,0.576-1.241C31.825,21.253,32.381,21.512,32.564,22.013"/>
<path opacity="0.3" fill="#FFFFFF" d="M33.94,25.78c0.183,0.502-0.076,1.058-0.576,1.241c-0.503,0.184-1.058-0.076-1.24-0.578
	c-0.184-0.501,0.073-1.056,0.576-1.24C33.201,25.021,33.757,25.279,33.94,25.78"/>
<path opacity="0.3" fill="#FFFFFF" d="M35.315,29.548c0.184,0.501-0.075,1.057-0.576,1.24c-0.503,0.184-1.057-0.075-1.239-0.577
	c-0.184-0.502,0.073-1.057,0.576-1.241C34.576,28.787,35.133,29.046,35.315,29.548"/>
<path opacity="0.3" fill="#FFFFFF" d="M36.691,33.315c0.183,0.5-0.075,1.057-0.576,1.239c-0.503,0.184-1.057-0.075-1.24-0.576
	c-0.184-0.503,0.074-1.058,0.576-1.241C35.952,32.555,36.508,32.813,36.691,33.315"/>
<path opacity="0.3" fill="#FFFFFF" d="M38.067,37.081c0.183,0.502-0.076,1.058-0.577,1.24c-0.502,0.184-1.057-0.075-1.239-0.576
	c-0.184-0.501,0.073-1.057,0.576-1.24C37.328,36.322,37.884,36.581,38.067,37.081"/>
<path opacity="0.3" fill="#FFFFFF" d="M39.442,40.849c0.184,0.502-0.075,1.058-0.576,1.24c-0.503,0.184-1.057-0.075-1.239-0.577
	c-0.184-0.5,0.073-1.057,0.576-1.24C38.703,40.089,39.26,40.348,39.442,40.849"/>
<path opacity="0.3" fill="#FFFFFF" d="M40.818,44.616c0.183,0.501-0.075,1.057-0.576,1.24c-0.503,0.184-1.057-0.076-1.24-0.577
	c-0.184-0.502,0.074-1.057,0.576-1.24C40.079,43.856,40.635,44.113,40.818,44.616"/>
<path opacity="0.3" fill="#FFFFFF" d="M32.158,9.354c0.184,0.501-0.075,1.057-0.577,1.24c-0.502,0.184-1.057-0.075-1.24-0.577
	c-0.183-0.502,0.075-1.058,0.576-1.241C31.419,8.593,31.975,8.851,32.158,9.354"/>
<path opacity="0.3" fill="#FFFFFF" d="M33.533,13.12c0.184,0.501-0.075,1.058-0.576,1.241c-0.502,0.183-1.058-0.076-1.24-0.578
	c-0.184-0.501,0.074-1.057,0.576-1.24C32.795,12.36,33.351,12.619,33.533,13.12"/>
<path opacity="0.3" fill="#FFFFFF" d="M34.909,16.887c0.184,0.502-0.075,1.058-0.577,1.241c-0.502,0.183-1.057-0.076-1.24-0.578
	c-0.183-0.501,0.075-1.057,0.576-1.24C34.17,16.127,34.727,16.386,34.909,16.887"/>
<path opacity="0.3" fill="#FFFFFF" d="M36.285,20.655c0.183,0.501-0.075,1.057-0.577,1.24c-0.502,0.184-1.057-0.076-1.24-0.577
	c-0.184-0.502,0.074-1.058,0.576-1.241C35.546,19.894,36.102,20.153,36.285,20.655"/>
<path opacity="0.3" fill="#FFFFFF" d="M37.66,24.421c0.184,0.502-0.075,1.058-0.576,1.241c-0.502,0.183-1.058-0.076-1.24-0.578
	c-0.184-0.501,0.074-1.056,0.576-1.24C36.922,23.662,37.478,23.92,37.66,24.421"/>
<path opacity="0.3" fill="#FFFFFF" d="M39.036,28.189c0.184,0.502-0.075,1.057-0.577,1.24c-0.502,0.183-1.057-0.075-1.24-0.577
	c-0.183-0.502,0.075-1.058,0.576-1.241C38.297,27.429,38.854,27.687,39.036,28.189"/>
<path opacity="0.3" fill="#FFFFFF" d="M40.412,31.956c0.183,0.501-0.075,1.058-0.577,1.24c-0.502,0.184-1.057-0.075-1.24-0.576
	c-0.184-0.503,0.074-1.058,0.576-1.241C39.673,31.196,40.229,31.454,40.412,31.956"/>
<path opacity="0.3" fill="#FFFFFF" d="M41.788,35.723c0.183,0.502-0.076,1.057-0.578,1.24s-1.057-0.074-1.239-0.576
	c-0.184-0.501,0.074-1.057,0.576-1.24C41.049,34.964,41.604,35.222,41.788,35.723"/>
<path opacity="0.3" fill="#FFFFFF" d="M43.163,39.49c0.184,0.502-0.075,1.057-0.577,1.24s-1.057-0.075-1.24-0.576
	c-0.183-0.501,0.075-1.058,0.576-1.241C42.424,38.729,42.98,38.989,43.163,39.49"/>
<path opacity="0.3" fill="#FFFFFF" d="M44.539,43.258c0.183,0.501-0.075,1.057-0.577,1.24c-0.502,0.183-1.057-0.076-1.24-0.577
	c-0.184-0.502,0.074-1.057,0.576-1.24S44.355,42.755,44.539,43.258"/>
<path opacity="0.3" fill="#FFFFFF" d="M35.878,7.995c0.183,0.501-0.075,1.057-0.577,1.24C34.8,9.418,34.245,9.16,34.062,8.658
	c-0.184-0.502,0.074-1.058,0.575-1.24C35.139,7.235,35.694,7.493,35.878,7.995"/>
<path opacity="0.3" fill="#FFFFFF" d="M37.253,11.762c0.184,0.501-0.075,1.058-0.576,1.241s-1.057-0.077-1.239-0.578
	c-0.184-0.502,0.074-1.057,0.575-1.24C36.515,11.002,37.07,11.26,37.253,11.762"/>
<path opacity="0.3" fill="#FFFFFF" d="M38.629,15.529c0.184,0.502-0.075,1.058-0.577,1.241c-0.501,0.183-1.056-0.076-1.239-0.578
	c-0.183-0.501,0.075-1.057,0.575-1.24C37.89,14.769,38.446,15.027,38.629,15.529"/>
<path opacity="0.3" fill="#FFFFFF" d="M40.005,19.296c0.183,0.501-0.075,1.057-0.577,1.24c-0.501,0.183-1.057-0.076-1.239-0.577
	c-0.184-0.502,0.074-1.058,0.575-1.24C39.266,18.536,39.821,18.794,40.005,19.296"/>
<path opacity="0.3" fill="#FFFFFF" d="M41.38,23.063c0.184,0.502-0.075,1.058-0.576,1.241s-1.057-0.076-1.239-0.578
	c-0.184-0.501,0.074-1.057,0.575-1.24C40.642,22.304,41.197,22.562,41.38,23.063"/>
<path opacity="0.3" fill="#FFFFFF" d="M42.756,26.831c0.184,0.502-0.075,1.057-0.577,1.24c-0.501,0.183-1.056-0.075-1.239-0.577
	c-0.183-0.501,0.075-1.057,0.575-1.24C42.017,26.07,42.573,26.329,42.756,26.831"/>
<path opacity="0.3" fill="#FFFFFF" d="M44.132,30.598c0.183,0.5-0.075,1.057-0.577,1.24c-0.501,0.184-1.057-0.076-1.239-0.576
	c-0.184-0.503,0.074-1.058,0.575-1.241C43.393,29.838,43.948,30.095,44.132,30.598"/>
<path opacity="0.3" fill="#FFFFFF" d="M45.507,34.364c0.184,0.502-0.075,1.057-0.577,1.24c-0.501,0.183-1.056-0.075-1.238-0.577
	c-0.184-0.5,0.074-1.056,0.575-1.239C44.769,33.605,45.324,33.863,45.507,34.364"/>
<path opacity="0.3" fill="#FFFFFF" d="M46.883,38.132c0.184,0.502-0.075,1.057-0.577,1.24c-0.501,0.183-1.056-0.075-1.239-0.577
	c-0.183-0.501,0.075-1.058,0.575-1.24C46.144,37.371,46.7,37.631,46.883,38.132"/>
<path opacity="0.3" fill="#FFFFFF" d="M48.259,41.899c0.183,0.501-0.075,1.057-0.577,1.24c-0.501,0.183-1.057-0.076-1.239-0.577
	c-0.184-0.503,0.074-1.058,0.575-1.24C47.52,41.139,48.075,41.396,48.259,41.899"/>
<path opacity="0.3" fill="#FFFFFF" d="M39.598,6.637c0.183,0.501-0.075,1.057-0.577,1.24c-0.502,0.184-1.056-0.075-1.239-0.577
	s0.073-1.057,0.575-1.24C38.859,5.876,39.414,6.134,39.598,6.637"/>
<path opacity="0.3" fill="#FFFFFF" d="M40.973,10.403c0.184,0.501-0.074,1.058-0.577,1.241c-0.501,0.183-1.056-0.076-1.238-0.578
	c-0.184-0.502,0.073-1.057,0.575-1.24C40.235,9.644,40.79,9.902,40.973,10.403"/>
<path opacity="0.3" fill="#FFFFFF" d="M42.349,14.17c0.184,0.502-0.074,1.058-0.577,1.241c-0.502,0.183-1.056-0.076-1.239-0.578
	c-0.183-0.501,0.074-1.057,0.575-1.24C41.61,13.41,42.166,13.669,42.349,14.17"/>
<path opacity="0.3" fill="#FFFFFF" d="M43.725,17.938c0.183,0.501-0.075,1.057-0.577,1.241c-0.502,0.183-1.057-0.076-1.239-0.578
	c-0.184-0.501,0.073-1.057,0.575-1.24C42.986,17.177,43.541,17.436,43.725,17.938"/>
<path opacity="0.3" fill="#FFFFFF" d="M45.1,21.705c0.184,0.501-0.074,1.057-0.576,1.241c-0.502,0.183-1.057-0.076-1.239-0.578
	c-0.184-0.501,0.073-1.056,0.575-1.239C44.362,20.945,44.917,21.204,45.1,21.705"/>
<path opacity="0.3" fill="#FFFFFF" d="M46.476,25.472c0.184,0.502-0.074,1.057-0.577,1.24c-0.502,0.183-1.056-0.075-1.239-0.577
	c-0.183-0.502,0.074-1.057,0.575-1.241C45.737,24.711,46.293,24.971,46.476,25.472"/>
<path opacity="0.3" fill="#FFFFFF" d="M47.852,29.24c0.183,0.501-0.075,1.057-0.577,1.24c-0.502,0.183-1.057-0.076-1.239-0.577
	c-0.184-0.502,0.073-1.057,0.575-1.24C47.113,28.479,47.668,28.737,47.852,29.24"/>
<path opacity="0.3" fill="#FFFFFF" d="M49.227,33.006c0.184,0.502-0.074,1.057-0.577,1.24c-0.502,0.184-1.056-0.075-1.238-0.577
	c-0.184-0.5,0.073-1.056,0.575-1.239C48.489,32.246,49.044,32.505,49.227,33.006"/>
<path opacity="0.3" fill="#FFFFFF" d="M50.603,36.773c0.184,0.502-0.074,1.057-0.577,1.24c-0.502,0.184-1.056-0.075-1.239-0.577
	c-0.183-0.501,0.074-1.057,0.575-1.24C49.864,36.013,50.42,36.272,50.603,36.773"/>
<path opacity="0.3" fill="#FFFFFF" d="M51.979,40.541c0.183,0.501-0.074,1.057-0.577,1.24c-0.502,0.183-1.057-0.076-1.239-0.577
	c-0.184-0.503,0.073-1.057,0.575-1.24C51.24,39.78,51.795,40.038,51.979,40.541"/>
<path opacity="0.3" fill="#FFFFFF" d="M43.317,5.278c0.183,0.502-0.075,1.057-0.576,1.24c-0.502,0.183-1.057-0.075-1.24-0.577
	s0.074-1.057,0.576-1.241C42.578,4.518,43.134,4.776,43.317,5.278"/>
<path opacity="0.3" fill="#FFFFFF" d="M44.692,9.045c0.184,0.501-0.075,1.058-0.576,1.241s-1.057-0.076-1.239-0.578
	c-0.184-0.502,0.074-1.057,0.576-1.24C43.954,8.285,44.51,8.543,44.692,9.045"/>
<path opacity="0.3" fill="#FFFFFF" d="M46.068,12.812c0.184,0.502-0.075,1.058-0.576,1.241c-0.502,0.183-1.057-0.076-1.24-0.577
	c-0.183-0.501,0.075-1.057,0.576-1.24S45.886,12.311,46.068,12.812"/>
<path opacity="0.3" fill="#FFFFFF" d="M47.444,16.58c0.183,0.501-0.075,1.057-0.576,1.24c-0.502,0.183-1.058-0.076-1.24-0.577
	c-0.184-0.501,0.074-1.057,0.576-1.241C46.705,15.819,47.261,16.078,47.444,16.58"/>
<path opacity="0.3" fill="#FFFFFF" d="M48.819,20.347c0.184,0.501-0.075,1.058-0.576,1.241s-1.057-0.076-1.239-0.578
	c-0.184-0.501,0.074-1.057,0.576-1.24C48.081,19.587,48.637,19.845,48.819,20.347"/>
<path opacity="0.3" fill="#FFFFFF" d="M50.195,24.114c0.184,0.502-0.075,1.057-0.576,1.24c-0.502,0.184-1.057-0.075-1.24-0.576
	c-0.183-0.502,0.075-1.058,0.576-1.241S50.013,23.612,50.195,24.114"/>
<path opacity="0.3" fill="#FFFFFF" d="M51.571,27.881c0.183,0.501-0.075,1.057-0.576,1.24c-0.502,0.183-1.058-0.076-1.24-0.577
	c-0.184-0.502,0.074-1.057,0.576-1.241C50.832,27.121,51.388,27.378,51.571,27.881"/>
<path opacity="0.3" fill="#FFFFFF" d="M52.946,31.647c0.184,0.502-0.075,1.058-0.576,1.24c-0.502,0.183-1.057-0.075-1.239-0.576
	c-0.184-0.501,0.074-1.057,0.576-1.24C52.208,30.888,52.764,31.146,52.946,31.647"/>
<path opacity="0.3" fill="#FFFFFF" d="M54.322,35.415c0.184,0.502-0.075,1.057-0.576,1.24c-0.502,0.183-1.057-0.075-1.24-0.577
	c-0.183-0.501,0.075-1.057,0.576-1.24C53.583,34.655,54.14,34.914,54.322,35.415"/>
<path opacity="0.3" fill="#FFFFFF" d="M55.698,39.183c0.183,0.501-0.075,1.057-0.576,1.239c-0.502,0.184-1.058-0.075-1.24-0.576
	c-0.184-0.503,0.074-1.058,0.576-1.24C54.959,38.422,55.515,38.68,55.698,39.183"/>
</svg>
