<?xml version="1.0" encoding="utf-8"?>
<!-- Generator: Adobe Illustrator 24.1.1, SVG Export Plug-In . SVG Version: 6.00 Build 0)  -->
<svg version="1.1" id="Layer_1" xmlns="http://www.w3.org/2000/svg" xmlns:xlink="http://www.w3.org/1999/xlink" x="0px" y="0px"
	 viewBox="0 0 296 87" style="enable-background:new 0 0 296 87;" xml:space="preserve">
<style type="text/css">
	.st0{fill:#A2C413;}
	.st1{fill:#261E1F;}
</style>
<g>
	<path class="st0" d="M42,64.7"/>
	<circle class="st0" cx="47.05" cy="62.32" r="0.49"/>
	<path class="st0" d="M50.83,59.07c-0.48,0-0.86-0.39-0.86-0.86c0-0.48,0.39-0.86,0.86-0.86s0.86,0.39,0.86,0.86
		C51.69,58.68,51.3,59.07,50.83,59.07z"/>
	<circle class="st0" cx="52.78" cy="52.97" r="1.15"/>
	<circle class="st0" cx="52.65" cy="47.39" r="1.36"/>
	<circle class="st0" cx="50.44" cy="42.26" r="1.53"/>
	<circle class="st0" cx="46.47" cy="38.33" r="1.62"/>
	<circle class="st0" cx="41.31" cy="36.21" r="1.67"/>
	<circle class="st0" cx="35.72" cy="36.22" r="1.67"/>
	<circle class="st0" cx="30.57" cy="38.37" r="1.63"/>
	<circle class="st0" cx="26.61" cy="42.32" r="1.53"/>
	<circle class="st0" cx="24.43" cy="47.46" r="1.37"/>
	<circle class="st0" cx="24.33" cy="53.05" r="1.16"/>
	<circle class="st0" cx="26.31" cy="58.27" r="0.87"/>
	<path class="st0" d="M30.1,62.86c-0.27,0-0.49-0.22-0.49-0.49c0-0.27,0.22-0.49,0.49-0.49c0.27,0,0.49,0.22,0.49,0.49
		C30.6,62.64,30.38,62.86,30.1,62.86z"/>
	<path class="st0" d="M35.17,64.72"/>
	<path class="st0" d="M40.32,57.6"/>
	<circle class="st0" cx="43.61" cy="55.73" r="0.54"/>
	<circle class="st0" cx="45.51" cy="52.46" r="0.92"/>
	<circle class="st0" cx="45.53" cy="48.67" r="1.19"/>
	<circle class="st0" cx="43.66" cy="45.38" r="1.35"/>
	<circle class="st0" cx="40.39" cy="43.48" r="1.43"/>
	<circle class="st0" cx="36.61" cy="43.51" r="1.43"/>
	<circle class="st0" cx="33.36" cy="45.46" r="1.35"/>
	<circle class="st0" cx="31.54" cy="48.77" r="1.19"/>
	<circle class="st0" cx="31.61" cy="52.56" r="0.93"/>
	<path class="st0" d="M33.56,56.35c-0.3,0-0.55-0.24-0.55-0.55s0.24-0.55,0.55-0.55c0.3,0,0.55,0.24,0.55,0.55
		S33.86,56.35,33.56,56.35z"/>
	<path class="st0" d="M36.87,57.63"/>
	<path class="st0" d="M43.68,71.8"/>
	<path class="st0" d="M49.01,70.1c-0.22,0-0.4-0.18-0.4-0.4c0-0.22,0.18-0.4,0.4-0.4c0.22,0,0.4,0.18,0.4,0.4
		C49.41,69.92,49.23,70.1,49.01,70.1z"/>
	<path class="st0" d="M53.6,66.99c-0.4,0-0.72-0.32-0.72-0.72s0.32-0.72,0.72-0.72s0.72,0.32,0.72,0.72S54,66.99,53.6,66.99z"/>
	<path class="st0" d="M57.14,62.76c-0.55,0-1-0.45-1-1c0-0.55,0.45-1,1-1c0.55,0,1,0.45,1,1C58.14,62.31,57.69,62.76,57.14,62.76z"
		/>
	<circle class="st0" cx="59.39" cy="56.49" r="1.23"/>
	<circle class="st0" cx="60.2" cy="50.81" r="1.41"/>
	<circle class="st0" cx="59.53" cy="45.12" r="1.58"/>
	<circle class="st0" cx="57.42" cy="39.79" r="1.69"/>
	<circle class="st0" cx="53.99" cy="35.19" r="1.79"/>
	
		<ellipse transform="matrix(0.1602 -0.9871 0.9871 0.1602 10.3304 75.4272)" class="st0" cx="49.49" cy="31.64" rx="1.87" ry="1.87"/>
	<circle class="st0" cx="44.22" cy="29.4" r="1.91"/>
	<circle class="st0" cx="38.54" cy="28.65" r="1.92"/>
	<circle class="st0" cx="32.86" cy="29.41" r="1.91"/>
	<circle class="st0" cx="27.58" cy="31.66" r="1.87"/>
	<circle class="st0" cx="23.09" cy="35.21" r="1.8"/>
	<circle class="st0" cx="19.67" cy="39.81" r="1.71"/>
	<circle class="st0" cx="17.56" cy="45.14" r="1.58"/>
	<circle class="st0" cx="16.9" cy="50.83" r="1.42"/>
	<circle class="st0" cx="17.71" cy="56.51" r="1.23"/>
	<circle class="st0" cx="19.97" cy="61.78" r="1.01"/>
	<path class="st0" d="M23.51,67.01c-0.4,0-0.73-0.33-0.73-0.73s0.33-0.73,0.73-0.73s0.73,0.33,0.73,0.73S23.92,67.01,23.51,67.01z"
		/>
	<circle class="st0" cx="28.11" cy="69.71" r="0.4"/>
	<path class="st0" d="M33.47,71.81"/>
	<path class="st0" d="M45.36,78.9"/>
	<path class="st0" d="M50.83,77.31c-0.2,0-0.36-0.16-0.36-0.36c0-0.2,0.16-0.36,0.36-0.36c0.2,0,0.36,0.16,0.36,0.36
		C51.18,77.15,51.02,77.31,50.83,77.31z"/>
	<path class="st0" d="M55.79,74.6c-0.36,0-0.65-0.29-0.65-0.65c0-0.36,0.29-0.65,0.65-0.65c0.36,0,0.65,0.29,0.65,0.65
		C56.44,74.3,56.15,74.6,55.79,74.6z"/>
	<path class="st0" d="M60.06,70.91c-0.5,0-0.9-0.4-0.9-0.9s0.4-0.9,0.9-0.9c0.5,0,0.9,0.4,0.9,0.9S60.55,70.91,60.06,70.91z"/>
	<circle class="st0" cx="63.46" cy="65.29" r="1.14"/>
	<circle class="st0" cx="65.86" cy="60.01" r="1.33"/>
	<circle class="st0" cx="67.17" cy="54.35" r="1.51"/>
	<path class="st0" d="M67.35,50.2c-0.91,0-1.65-0.74-1.65-1.65s0.74-1.65,1.65-1.65c0.91,0,1.65,0.74,1.65,1.65
		S68.26,50.2,67.35,50.2z"/>
	<circle class="st0" cx="66.4" cy="42.82" r="1.79"/>
	<circle class="st0" cx="64.33" cy="37.39" r="1.89"/>
	<circle class="st0" cx="61.23" cy="32.48" r="1.97"/>
	<circle class="st0" cx="57.23" cy="28.28" r="2.05"/>
	<circle class="st0" cx="52.46" cy="24.95" r="2.11"/>
	<circle class="st0" cx="47.13" cy="22.66" r="2.14"/>
	<ellipse transform="matrix(0.1891 -0.982 0.982 0.1891 12.5037 58.1233)" class="st0" cx="41.44" cy="21.49" rx="2.16" ry="2.16"/>
	<circle class="st0" cx="35.64" cy="21.49" r="2.16"/>
	<circle class="st0" cx="29.95" cy="22.66" r="2.14"/>
	<circle class="st0" cx="24.62" cy="24.96" r="2.11"/>
	<circle class="st0" cx="19.86" cy="28.29" r="2.06"/>
	<circle class="st0" cx="15.85" cy="32.49" r="1.98"/>
	<circle class="st0" cx="12.76" cy="37.41" r="1.89"/>
	<circle class="st0" cx="10.69" cy="42.83" r="1.79"/>
	<circle class="st0" cx="9.74" cy="48.56" r="1.65"/>
	<circle class="st0" cx="9.92" cy="54.37" r="1.51"/>
	<circle class="st0" cx="11.24" cy="60.02" r="1.33"/>
	<circle class="st0" cx="13.65" cy="65.31" r="1.14"/>
	<circle class="st0" cx="17.05" cy="70.02" r="0.91"/>
	<path class="st0" d="M21.32,74.61c-0.36,0-0.66-0.29-0.66-0.66c0-0.36,0.29-0.66,0.66-0.66c0.36,0,0.66,0.29,0.66,0.66
		C21.97,74.32,21.68,74.61,21.32,74.61z"/>
	<path class="st0" d="M26.28,77.32c-0.2,0-0.36-0.16-0.36-0.36c0-0.2,0.16-0.36,0.36-0.36c0.2,0,0.36,0.16,0.36,0.36
		C26.64,77.16,26.48,77.32,26.28,77.32z"/>
	<path class="st0" d="M31.77,78.91"/>
</g>
<path class="st0" d="M87.82,18.13h7.77v25.12h16.83v5.84H87.82V18.13z"/>
<g>
	<g>
		<path class="st1" d="M96.1,56.36L103.38,73h-1.69l-2.46-5.48h-6.73L90.08,73h-1.74l7.38-16.65H96.1z M95.9,59.9l-2.68,6.03h5.34
			L95.9,59.9z"/>
		<path class="st1" d="M112.02,56.36h1.56v10.05c0,1.19,0.02,1.94,0.06,2.23c0.08,0.66,0.26,1.21,0.54,1.65
			c0.28,0.44,0.72,0.81,1.31,1.11c0.59,0.3,1.18,0.45,1.77,0.45c0.52,0,1.01-0.12,1.49-0.35c0.47-0.23,0.87-0.56,1.19-0.97
			s0.55-0.92,0.7-1.51c0.11-0.42,0.16-1.29,0.16-2.6V56.36h1.56v10.05c0,1.49-0.14,2.69-0.41,3.6s-0.82,1.71-1.64,2.39
			c-0.82,0.68-1.81,1.02-2.97,1.02c-1.26,0-2.34-0.32-3.24-0.96c-0.9-0.64-1.5-1.49-1.81-2.55c-0.19-0.65-0.29-1.82-0.29-3.51V56.36
			z"/>
		<path class="st1" d="M130.83,57.99v-1.63h8.56v1.63h-3.48V73h-1.59V57.99H130.83z"/>
		<path class="st1" d="M155.25,55.94c2.37,0,4.35,0.84,5.94,2.52c1.59,1.68,2.39,3.75,2.39,6.21c0,2.44-0.8,4.5-2.39,6.2
			c-1.59,1.7-3.53,2.55-5.82,2.55c-2.32,0-4.27-0.84-5.87-2.54c-1.59-1.69-2.39-3.73-2.39-6.13c0-1.6,0.36-3.08,1.09-4.45
			c0.73-1.37,1.72-2.43,2.97-3.21C152.43,56.33,153.79,55.94,155.25,55.94z M155.32,57.56c-1.16,0-2.25,0.32-3.29,0.96
			c-1.04,0.64-1.84,1.51-2.43,2.59c-0.58,1.09-0.87,2.3-0.87,3.64c0,1.98,0.64,3.65,1.93,5.01c1.29,1.36,2.84,2.04,4.65,2.04
			c1.21,0,2.33-0.31,3.37-0.94s1.84-1.48,2.41-2.57c0.58-1.09,0.87-2.3,0.87-3.63c0-1.32-0.29-2.52-0.87-3.58
			c-0.58-1.07-1.39-1.92-2.44-2.57S156.49,57.56,155.32,57.56z"/>
		<path class="st1" d="M172.17,73l2.24-16.65h0.25l6.35,13.66l6.29-13.66h0.25L189.79,73h-1.53l-1.54-11.91L181.2,73h-0.4l-5.59-12
			l-1.53,12H172.17z"/>
		<path class="st1" d="M205.41,56.36L212.7,73h-1.69l-2.46-5.48h-6.73L199.39,73h-1.74l7.38-16.65H205.41z M205.22,59.9l-2.68,6.03
			h5.34L205.22,59.9z"/>
		<path class="st1" d="M219.74,57.99v-1.63h8.56v1.63h-3.48V73h-1.59V57.99H219.74z"/>
		<path class="st1" d="M236.5,56.36h1.56V73h-1.56V56.36z"/>
		<path class="st1" d="M255.24,55.94c2.37,0,4.35,0.84,5.94,2.52c1.59,1.68,2.39,3.75,2.39,6.21c0,2.44-0.79,4.5-2.39,6.2
			c-1.59,1.7-3.53,2.55-5.82,2.55c-2.32,0-4.27-0.84-5.86-2.54c-1.59-1.69-2.39-3.73-2.39-6.13c0-1.6,0.36-3.08,1.09-4.45
			c0.73-1.37,1.72-2.43,2.97-3.21S253.78,55.94,255.24,55.94z M255.31,57.56c-1.16,0-2.25,0.32-3.29,0.96s-1.84,1.51-2.42,2.59
			c-0.58,1.09-0.87,2.3-0.87,3.64c0,1.98,0.64,3.65,1.93,5.01c1.29,1.36,2.84,2.04,4.65,2.04c1.21,0,2.33-0.31,3.37-0.94
			c1.03-0.63,1.84-1.48,2.42-2.57c0.58-1.09,0.87-2.3,0.87-3.63c0-1.32-0.29-2.52-0.87-3.58c-0.58-1.07-1.39-1.92-2.44-2.57
			C257.6,57.88,256.49,57.56,255.31,57.56z"/>
		<path class="st1" d="M272.88,73V56.36h0.34l10.4,12.76V56.36h1.54V73h-0.35L274.5,60.4V73H272.88z"/>
	</g>
</g>
<path class="st0" d="M116.78,18.13h7.77v30.96h-7.77V18.13z"/>
<path class="st0" d="M163.04,49.09l-0.05-18.57l-9.88,15.3h-3.5l-9.83-14.9v18.18h-7.29V18.13h6.42l12.56,19.24l12.37-19.24h6.38
	l0.1,30.96H163.04z"/>
<path class="st0" d="M208.82,49.09l-0.05-18.57l-9.88,15.3h-3.5l-9.83-14.9v18.18h-7.29V18.13h6.42l12.56,19.24l12.37-19.24h6.38
	l0.1,30.96H208.82z"/>
<rect x="222.84" y="18.13" class="st0" width="25.36" height="5.75"/>
<rect x="222.84" y="30.59" class="st0" width="16.56" height="5.75"/>
<rect x="222.84" y="43.34" class="st0" width="25.36" height="5.75"/>
<polygon class="st0" points="284.73,18.13 277.09,28.12 268.61,39.19 259.14,28.12 250.6,18.13 259.67,18.13 268.15,28.12 
	275.98,18.13 "/>
<path class="st0" d="M286,49.09h-8.97c-0.48-0.63-5.72-6.76-7-8.27l4.23-5.52L286,49.09z"/>
<polygon class="st0" points="267.27,40.88 260.97,49.09 252.06,49.09 262.63,35.45 "/>
</svg>
