<?xml version="1.0" encoding="utf-8"?>
<!-- Generator: Adobe Illustrator 24.1.1, SVG Export Plug-In . SVG Version: 6.00 Build 0)  -->
<svg version="1.1" id="Layer_1" xmlns="http://www.w3.org/2000/svg" xmlns:xlink="http://www.w3.org/1999/xlink" x="0px" y="0px"
	 viewBox="0 0 296 87" style="enable-background:new 0 0 296 87;" xml:space="preserve">
<style type="text/css">
	.st0{fill:#91A7C9;}
	.st1{fill:#91A7C9;stroke:#91A7C9;stroke-miterlimit:10;}
	.st2{opacity:0.2;fill:#91A7C9;}
</style>
<path class="st0" d="M241.3,43.4c-0.2,0.1-0.3,0-0.4-0.1c-0.1-0.1-0.1-0.3,0.1-0.4c2.5-2.3,3.6-5.5,3-8.9c-0.2,0.2-0.5,0.3-0.9,0.3
	l-0.1,0c-0.1,0-0.3,0-0.4-0.1c-0.1-0.1-0.1-0.3,0-0.4c1.6-2,1.5-4.6,1.2-7c-0.2,0.2-0.3,0.4-0.6,0.6c-0.1,0.1-0.2,0.1-0.3,0
	c-0.1,0-0.2-0.2-0.2-0.3c-0.5-2.4-0.5-4.6,0-6.5c0-0.2,0-0.4,0-0.6c-0.6,1.5-0.6,2.9-0.4,4.6c0,0.1-0.1,0.1-0.2,0
	c-0.6-1.3-0.4-3,0.2-4.3c0,0,0,0,0-0.1c0-0.1,0-0.1,0-0.2c0,0,0,0,0,0c0,0,0,0,0,0c0,0,0.1,0.1,0,0.2c-1.2,2.5-0.2,5.7-0.9,8.5
	c0,0.1-0.2,0.1-0.2,0c0.3-1.8,0.3-3.6,0.3-5.5c0-1.1,0-2.1,0.6-3.1c0,0,0,0,0,0c-2,0.3-4,0.6-6,1.3c-0.1,0-0.1-0.1-0.1-0.1
	c1.5-0.7,3.2-1.2,4.9-1.4c-0.1-0.1,0-0.3,0.2-0.3c0.4,0.1,0.8-0.2,1.1-0.1c0,0,0.1-0.1,0.1-0.1c-0.2,0-0.4,0-0.6,0
	c-1.5,0.1-3,0.3-4.5,0.6c-0.3,0.1-0.5,0.2-0.8,0.2c-0.1,0-0.2,0.1-0.2,0.1c-0.1,0-0.2,0-0.3,0.1c-0.2,0-0.4,0.1-0.5,0.1
	c-0.3,0.1-0.4,0-0.5-0.1c0-0.1,0-0.3,0.5-0.6c0.2-0.1,0.3-0.2,0.4-0.2c-0.1-0.1-0.5-0.2-1-0.1c-0.8,0.2-1.7,0.5-2,0.6
	c-1.4,0.6-2.6,1.5-3.5,2.2c-0.2,0.2-0.3,0.2-0.4,0.2c0,0-0.1,0.1-0.1,0.1c-0.1,0.1-0.2,0.1-0.2,0.1c-0.1,0.1-0.2,0.1-0.3,0
	c-0.1-0.1-0.1-0.4,0.1-0.8c0.1-0.2,0.1-0.2,0.1-0.2c-0.1-0.1-0.7-0.1-1.5,0.2c-0.7,0.2-1.4,0.5-2,0.9c-1.3,0.8-2.4,1.8-3.2,3.1
	c-0.1,0.1-0.3,0.2-0.4,0.2c-0.2,0-0.3-0.2-0.3-0.3l-0.1-0.5c-1.4,1.3-2.5,2.8-3.2,4.6c2.8,1.7,4.5,4.2,4.8,7
	c0.1-0.1,0.2-0.2,0.3-0.3c0-0.1,0-0.2,0-0.3c-0.1-2.3-0.1-4.4-0.5-6.7c-0.1-0.4,0.5-0.6,0.6-0.2c0.5,1.3,0.6,2.6,0.6,3.9
	c0,0.8-0.2,2.5,0,3.8c0.3,0.5,0.6,1,0.9,1.5c0.2-0.5,0.5-1.1,0.7-1.6l0,0c0-0.1,0.1-0.3,0.3-0.6c0.1-0.3,0.4-0.8,0.4-0.8l0-0.1
	c0.2-0.4,0.6-1.2,1.2-2.1c0.2-1.3,0.4-2.5,0.6-3.8c0.2-1.9,0.1-3.8,0.4-5.6c0-0.2,0.4-0.3,0.4-0.1c0.4,2.4,0.3,5.2-0.3,7.8
	c1.1-1.5,2.4-3.3,4.1-5c0.7-1.4,1.2-2.8,1.7-4.4c0.1-0.3,0.6-0.2,0.5,0.1c-0.1,1-0.4,2-0.8,3c1.9-1.6,4.1-3.1,6.6-3.9
	c0,0,0.1,0,0.1,0c0.1,0,0.2,0.1,0.2,0.2c0.1,0.1,0,0.3-0.1,0.3c-4.4,2.5-7.9,5.7-10.7,9.5c0.7-0.6,1.6-1.2,2.4-1.6
	c0.9-0.4,1.9-0.7,2.9-0.9c1.7-0.2,3.4,0.1,4.6-1.4c0.3-0.3,0.8,0.1,0.6,0.5c-1.4,2-3.7,1.4-5.9,1.9c-2.3,0.5-4.2,2-6,3.5
	c-0.6,1-1.2,2-1.7,3c-0.5,1-1.1,2.4-1.6,3.9c0.1,0.4,0.2,0.8,0.3,1.2c1.1-1.7,3.4-2.1,5.3-2.6c1.9-0.5,3.8-1.1,5.6-1.9
	c1.4-0.7,2.5-1.7,3.8-2.7c0.2-0.2,0.5,0.1,0.4,0.4c-1.3,2.1-3.9,3.2-6.1,4c-1.4,0.5-2.9,0.9-4.4,1.3c-1.6,0.4-3.5,0.8-4.4,2.3
	c0.2,1.1,0.3,2.3,0.2,3.4c0-0.2,0.2-0.3,0.3-0.3c0.2,0,0.4,0.1,0.4,0.3c0.1,0.5,0.2,1.1,0.2,1.8c1.4-0.5,3.2-0.2,4.7-0.4
	c2.8-0.3,4.9-1.3,7.1-2.9c0.3-0.2,0.5,0.2,0.3,0.4c-1.3,1.6-3.3,2.6-5.4,3c-1.1,0.2-2.3,0.3-3.4,0.4c-1.1,0.1-2.3-0.1-3.4,0.1
	c-0.1,1.1-0.5,2.3-1,3.3c0.1,0,0.3,0,0.4,0c0.8,0,1.6,0,2.4,0.3c0.3,0.1,0.2,0.4-0.1,0.4c-0.5,0.1-1.1,0-1.7-0.1c-0.4,0-1-0.2-1.4,0
	c-0.2,0.3-0.4,0.5-0.6,0.8c0,0,0.1,0.1,0.1,0.1c0.1,0.1,0.1,0.3,0,0.4l-0.2,0.4c-0.1,0.2-0.2,0.4-0.3,0.6c0.1,0,0.2-0.1,0.3-0.1
	c0.1,0,0.8,0.1,0.9,0.1c2.9,0.5,3.6,0.3,5.6-0.3c0.2-0.1,0.4-0.1,0.7-0.2l0,0c-0.1-0.1-0.1-0.1-0.3-0.2c-0.5-0.3-0.6-0.7-0.5-0.8
	c0.1-0.1,0.2-0.2,0.3-0.1c0.8,0.4,2.1,0.4,3.6,0c1.4-0.4,2.7-1.2,3.1-1.8c-0.1,0-0.2,0-0.4-0.1c-0.1,0-0.2-0.1-0.3-0.3
	c0-0.1,0-0.3,0.1-0.4c2.6-1.9,4.4-4.6,5.1-7.8C242.1,43,241.7,43.2,241.3,43.4z M220.5,27.4c-0.5,0.9-1.1,1.6-1.3,2.7
	c0,0.2-0.3,0.1-0.3-0.1c0.2-1,0.5-2.1,1.3-2.8C220.4,27.1,220.6,27.2,220.5,27.4z M226.4,23.3c-1.8,0.7-2.9,2.4-3.9,4
	c0,0.1-0.1,0-0.1-0.1c0.9-1.7,2-3.4,3.9-4.2C226.5,22.9,226.5,23.2,226.4,23.3z M233.3,20.8c-0.7,0.3-1.3,0.5-1.9,1
	c-0.6,0.5-1.1,1.1-1.5,1.8c0,0-0.1,0-0.1,0c0.5-1.4,2-2.7,3.4-3C233.3,20.5,233.4,20.7,233.3,20.8z M229.9,54.1
	c-0.4,0.6-1.3,0.5-1.9,0.5c-1-0.1-1.9-0.3-2.7-0.8c-0.1-0.1,0-0.2,0.1-0.2c1.3,0.5,3.1,1.2,4.4,0.4C229.8,53.9,229.9,54,229.9,54.1z
	 M239.4,34.2c-0.1,0-0.1-0.2,0-0.2c1.1,0,2.2-1.7,2.6-2.6c0.5-1,0.6-2,0.8-3.1c0-0.1,0.2-0.1,0.2,0c0.1,1.3-0.4,2.7-1.1,3.8
	C241.4,33.1,240.5,34.4,239.4,34.2z M236.9,44.2c-0.1,0-0.2-0.1-0.1-0.2c1.6-0.8,3.3-1.6,4.3-3.1c1-1.5,1.6-3.4,1.9-5.1
	c0-0.1,0.2-0.1,0.2,0c0.1,1.8-0.9,4.3-2.1,5.7C240.1,42.8,238.5,43.5,236.9,44.2z M236,51.8c-0.8,0.4-1.6,0.7-2.5,0.7
	c-0.9-0.1-1.6-0.6-2.4-1c-0.1-0.1,0-0.2,0.1-0.2c0.7,0.4,1.5,0.8,2.3,0.9c0.9,0.1,1.6-0.4,2.4-0.6C236.1,51.5,236.2,51.8,236,51.8z
	 M241,45c-1.2,2.6-3.6,5.6-6.7,5.3c-0.2,0-0.2-0.3,0-0.3c3.4,0,4.8-2.7,6.5-5.2C240.9,44.7,241.1,44.9,241,45z"/>
<g>
	<path class="st1" d="M81.3,47.3h6.9v10.1c-1,0.5-3,0.9-5.8,0.9c-7.9,0-13-5.1-13-13.6c0-8.5,5.4-13.6,13.6-13.6
		c3.4,0,5.7,0.7,7.5,1.5l1.1-3.6C90,28.3,87,27.4,83,27.4c-11.3,0-18.3,7.4-18.3,17.5c0,5.3,1.8,9.8,4.7,12.6
		c3.3,3.2,7.5,4.5,12.6,4.5c4.6,0,8.4-1.2,10.4-1.9V43.8H81.3V47.3z"/>
	<path class="st1" d="M113.6,45.5v-0.2c3.6-1.2,6.4-4.2,6.4-8.6c0-2.6-1-4.9-2.7-6.4c-2.1-1.9-5.1-2.8-9.8-2.8c-3,0-6.2,0.3-8.4,0.7
		v33.4h4.4V46.9h4.1c4,0.2,5.8,1.9,6.8,6.6c1,4.2,1.7,7.1,2.3,8.1h4.5c-0.7-1.3-1.5-4.6-2.6-9.3C117.8,48.8,116.2,46.4,113.6,45.5z
		 M108,43.6h-4.5V31.3c0.7-0.2,2.2-0.4,4.3-0.4c4.6,0.1,7.8,2,7.8,6.3C115.6,41.1,112.6,43.6,108,43.6z"/>
	<path class="st1" d="M140,27.2c-9,0-15.7,7-15.7,17.8c0,10.2,6.3,17.2,15.2,17.2c8.6,0,15.7-6.2,15.7-17.8
		C155.2,34.3,149.2,27.2,140,27.2z M139.7,58.6c-6.9,0-10.8-6.5-10.8-13.7c0-7.4,3.6-14.1,10.8-14.1c7.3,0,10.8,7,10.8,13.7
		C150.6,52.2,146.7,58.6,139.7,58.6z"/>
	<path class="st1" d="M176.7,30.9c2.8,0,5.2,0.6,6.8,1.4l1.1-3.6c-1.2-0.6-3.8-1.5-8-1.5c-10.5,0-17.7,7.2-17.7,17.8
		c0,11.1,7.2,17.1,16.7,17.1c4.1,0,7.3-0.8,8.9-1.6l-0.9-3.5c-1.8,0.9-4.5,1.4-7.1,1.4c-8.2,0-13-5.3-13-13.6
		C163.5,35.9,168.7,30.9,176.7,30.9z"/>
	<path class="st1" d="M202.6,27.2c-9,0-15.7,7-15.7,17.8c0,10.2,6.3,17.2,15.2,17.2c8.6,0,15.7-6.2,15.7-17.8
		C217.8,34.3,211.8,27.2,202.6,27.2z M202.3,58.6c-6.9,0-10.8-6.5-10.8-13.7c0-7.4,3.6-14.1,10.8-14.1c7.3,0,10.8,7,10.8,13.7
		C213.2,52.2,209.3,58.6,202.3,58.6z"/>
</g>
<circle class="st2" cx="31.6" cy="43.5" r="27.6"/>
<g>
	<g>
		<g>
			<g>
				<path class="st0" d="M23.6,39.1c0.2,0,1-0.1,1.2-0.3l4.7-9.9c0.2-0.3,0-0.7-0.3-0.8c-0.3-0.2-0.7,0-0.8,0.3L23,38.2
					c-0.2,0.3,0,0.7,0.3,0.8C23.4,39.1,23.5,39.1,23.6,39.1z"/>
			</g>
			<g>
				<path class="st0" d="M39.5,39.1c0.1,0,0.2,0,0.3-0.1c0.3-0.2,0.4-0.5,0.3-0.8l-5.3-9.9c-0.2-0.3-0.5-0.4-0.8-0.3
					c-0.3,0.2-0.4,0.5-0.3,0.8l4.7,9.9C38.5,39,39.3,39.1,39.5,39.1z"/>
			</g>
		</g>
	</g>
	<path class="st0" d="M48.3,37.9h-2.1H17h-2.1c-0.3,0-0.6,0.5-0.6,1.1c0,0.6,0.3,1.1,0.6,1.1h1l4.3,17.6c0,0.7,0.6,1.3,1.4,1.3h20.3
		c0.7,0,1.3-0.6,1.4-1.3l4.3-17.6h0.9c0.3,0,0.6-0.5,0.6-1.1C48.9,38.4,48.6,37.9,48.3,37.9z M20.3,40.4h1.9l0.7,7.3h-1.8L20.3,40.4
		z M22.1,55.6l-0.7-6h1.7l0.6,6H22.1z M25.5,40.4h1.9l0.3,7.3h-1.8L25.5,40.4z M26.4,55.6l-0.4-6h1.7l0.3,6H26.4z M32.4,55.6h-1.6
		l-0.1-6h1.7L32.4,55.6z M32.4,47.7h-1.8l-0.1-7.3h1.9L32.4,47.7z M36.7,55.6h-1.6l0.3-6h1.7L36.7,55.6z M37.2,47.7h-1.8l0.3-7.3
		h1.9L37.2,47.7z M41,55.6h-1.6l0.6-6h1.7L41,55.6z M42,47.7h-1.8l0.7-7.3h1.9L42,47.7z"/>
</g>
</svg>
