<?xml version="1.0" encoding="utf-8"?>
<!-- Generator: Adobe Illustrator 16.0.3, SVG Export Plug-In . SVG Version: 6.00 Build 0)  -->
<!DOCTYPE svg PUBLIC "-//W3C//DTD SVG 1.1//EN" "http://www.w3.org/Graphics/SVG/1.1/DTD/svg11.dtd">
<svg version="1.1" id="Layer_1" xmlns="http://www.w3.org/2000/svg" xmlns:xlink="http://www.w3.org/1999/xlink" x="0px" y="0px"
	 width="1848px" height="1504px" viewBox="0 0 1848 1504" enable-background="new 0 0 1848 1504" xml:space="preserve">
<g>
	<g>
		<path opacity="0.3" fill-rule="evenodd" clip-rule="evenodd" fill="#9871D0" d="M1550.369,1098.16l-154.455-89.881
			c-3.58-1.639-8.708-2.939-12.356-1.042c-3.323,1.729-174.935,98.813-177.356,100.192c-1.838,1.048-8.225,4.876-4.248,7.037
			c11.698,6.362,144.879,84.688,156.758,91.149c2.247,1.223,5.533,1.664,8.984,1.377c3.435-0.286,6.96-1.286,9.729-2.896
			c1.976-1.149,170.053-95.819,171.961-96.931c2.575-1.499,3.943-3.275,4.079-4.916
			C1553.596,1100.649,1552.566,1099.162,1550.369,1098.16z"/>
		<g>
			<g>
				<polygon fill-rule="evenodd" clip-rule="evenodd" fill="#F95DB0" points="1299.286,946.035 1542.946,1087.641 
					1534.796,1097.727 1292.648,949.881 				"/>
				<linearGradient id="SVGID_1_" gradientUnits="userSpaceOnUse" x1="1297.8877" y1="1079.6309" x2="1328.9792" y2="1032.4312">
					<stop  offset="0" style="stop-color:#FA5DB1"/>
					<stop  offset="1" style="stop-color:#FEBFBF"/>
				</linearGradient>
				<path fill-rule="evenodd" clip-rule="evenodd" fill="url(#SVGID_1_)" d="M1376.066,1143.584
					c-9.87,13.222-21.205,42.385-12.889,52.425l-243.643-141.605c-19.209-14.346,1.487-52.636,16.826-56.887l162.81-94.011
					l243.664,141.61l-13.153,10.355L1376.066,1143.584z"/>
				<g>
					<path fill-rule="evenodd" clip-rule="evenodd" fill="#F4F9FF" d="M1379.554,1146.823l156.911-90.164l-0.157,34.802
						l-152.717,93.123c-11.719,6.818-18.659,2.447-19.976-5.525C1361.952,1168.975,1368.685,1153.125,1379.554,1146.823z"/>
					<path fill-rule="evenodd" clip-rule="evenodd" fill="#FB85B6" d="M1363.084,1157.037c4.332-7.54,10.325-14.11,16.941-17.936
						l162.81-93.985l0.021,12.651l-6.638,3.825l-156.172,90.165c-3.575,2.072-6.803,5.601-9.15,9.675
						c-2.352,4.107-3.804,8.668-3.804,12.775c0.021,4.1,1.499,6.981,3.847,8.339c2.379,1.362,5.627,1.154,9.197-0.921
						l156.171-90.165l6.639-3.82l0.048,12.65l-162.809,93.99c-6.617,3.826-12.631,4.171-17.008,1.728
						c-4.334-2.511-7.057-7.861-7.078-15.443C1356.078,1172.957,1358.774,1164.5,1363.084,1157.037z"/>
				</g>
			</g>
			<path opacity="0.5" fill-rule="evenodd" clip-rule="evenodd" fill="#F95DB0" d="M1299.758,910.672l-167.982,89.894
				c-1.042,1.613-1.055,3.239,1.25,4.495c17.587,9.562,207.679,118.055,225.536,127.765c3.375,1.84,8.317,2.504,13.505,2.073
				c5.163-0.429,10.434-1.981,14.626-4.355l153.328-86.936l-17.149-10.057L1299.758,910.672z"/>
			<g>
				<polygon fill-rule="evenodd" clip-rule="evenodd" fill="#955CF1" points="1299.286,875.643 1542.946,1017.25 1534.796,1027.336 
					1292.648,879.49 				"/>
				<linearGradient id="SVGID_2_" gradientUnits="userSpaceOnUse" x1="1289.0166" y1="1033.373" x2="1324.0377" y2="971.3359">
					<stop  offset="0" style="stop-color:#965CF2"/>
					<stop  offset="1" style="stop-color:#FF8ADC"/>
				</linearGradient>
				<path fill-rule="evenodd" clip-rule="evenodd" fill="url(#SVGID_2_)" d="M1376.066,1073.193
					c-9.87,13.222-21.205,42.385-12.889,52.425l-243.643-141.605c-19.209-14.346,1.487-52.636,16.826-56.886l162.81-94.011
					l243.664,141.609l-13.153,10.355L1376.066,1073.193z"/>
				<path fill-rule="evenodd" clip-rule="evenodd" fill="#F4F9FF" d="M1379.554,1076.433l156.911-90.165l-0.157,34.803
					l-152.717,93.125c-11.719,6.816-18.659,2.445-19.976-5.527C1361.951,1098.584,1368.685,1082.734,1379.554,1076.433z"/>
				<path fill-rule="evenodd" clip-rule="evenodd" fill="#CC74E5" d="M1363.084,1086.646c4.332-7.54,10.324-14.11,16.941-17.936
					l162.81-93.985l0.021,12.651l-6.638,3.825l-156.172,90.165c-3.575,2.072-6.803,5.601-9.15,9.675
					c-2.352,4.107-3.804,8.668-3.804,12.773c0.021,4.102,1.499,6.983,3.846,8.341c2.38,1.362,5.628,1.154,9.198-0.921
					l156.171-90.165l6.639-3.82l0.048,12.65l-162.809,93.99c-6.617,3.826-12.631,4.171-17.008,1.728
					c-4.334-2.511-7.057-7.861-7.078-15.443C1356.078,1102.566,1358.774,1094.111,1363.084,1086.646z"/>
				<linearGradient id="SVGID_3_" gradientUnits="userSpaceOnUse" x1="1416.8643" y1="1124.7588" x2="1405.2229" y2="1096.9377">
					<stop  offset="0" style="stop-color:#A77EF7"/>
					<stop  offset="1" style="stop-color:#5E65D6"/>
				</linearGradient>
				<path fill-rule="evenodd" clip-rule="evenodd" fill="url(#SVGID_3_)" d="M1429.443,1101.009v34.803l-11.485-6.915
					l-14.767,21.823v-34.292c-0.073-0.226-0.124-0.475-0.147-0.748c-0.753-9.412-8.828-20.873-14.898-22.555l26.901-15.86
					c6.478,1.794,14.585,13.955,14.388,23.75L1429.443,1101.009z"/>
			</g>
			<path opacity="0.5" fill-rule="evenodd" clip-rule="evenodd" fill="#955CF1" d="M1299.039,839.896l-167.982,89.892
				c-1.044,1.615-1.056,3.241,1.251,4.496c17.585,9.56,207.677,118.056,225.533,127.769c3.377,1.834,8.318,2.499,13.505,2.07
				c5.165-0.429,10.434-1.981,14.627-4.355l153.327-86.936l-17.148-10.059L1299.039,839.896z"/>
			<g>
				<polygon fill-rule="evenodd" clip-rule="evenodd" fill="#4C4DFD" points="1299.286,802.702 1542.946,944.308 1534.796,954.395 
					1292.648,806.55 				"/>
				<linearGradient id="SVGID_4_" gradientUnits="userSpaceOnUse" x1="1289.8066" y1="961.9355" x2="1325.2506" y2="896.6234">
					<stop  offset="0" style="stop-color:#6D6AFE"/>
					<stop  offset="1" style="stop-color:#3FB0F7"/>
				</linearGradient>
				<path fill-rule="evenodd" clip-rule="evenodd" fill="url(#SVGID_4_)" d="M1376.066,1000.253
					c-9.871,13.22-21.205,42.385-12.889,52.423l-243.643-141.604c-19.209-14.348,1.487-52.636,16.826-56.887l162.81-94.011
					l243.664,141.609l-13.153,10.356L1376.066,1000.253z"/>
				<g>
					<path fill-rule="evenodd" clip-rule="evenodd" fill="#E8F3FF" d="M1379.554,1003.493l156.911-90.165l-0.157,34.8
						l-152.717,93.125c-11.72,6.816-18.66,2.448-19.976-5.527C1361.951,1025.642,1368.685,1009.792,1379.554,1003.493z"/>
					<path fill-rule="evenodd" clip-rule="evenodd" fill="#6D6AFD" d="M1363.081,1013.703c4.335-7.539,10.327-14.106,16.944-17.933
						l162.81-93.986l0.021,12.652l-6.64,3.824l-156.17,90.166c-3.575,2.072-6.803,5.599-9.15,9.676
						c-2.352,4.104-3.804,8.668-3.804,12.772c0.021,4.102,1.499,6.983,3.846,8.341c2.38,1.359,5.628,1.154,9.198-0.924
						l156.171-90.164l6.639-3.82l0.048,12.653l-162.809,93.99c-6.617,3.822-12.632,4.168-17.008,1.725
						c-4.334-2.509-7.058-7.861-7.078-15.441C1356.077,1029.627,1358.773,1021.169,1363.081,1013.703z"/>
				</g>
			</g>
		</g>
	</g>
	<g>
		<g>
			<g>
				<path fill-rule="evenodd" clip-rule="evenodd" fill="#F2F4FF" d="M1282.173,542.001c2.648-1.401,5.279-2.813,7.935-4.218
					c1.965-0.649,4.452-0.285,7.163,1.268c67.215,38.551,134.291,78.458,201.511,117.013c6.337,3.661,11.467,12.546,11.447,19.829
					l0.33,266.079c-0.011,3.31-1.084,5.724-2.846,7.026c-1.096,0.812-2.794,2.11-4.657,2.899c-2.237,1.431-5.144,2.725-7.594,1.309
					c-67.219-38.554-133.051-81.888-200.258-120.436c-6.343-3.663-11.466-12.545-11.446-19.826L1282.173,542.001z"/>
				<g>
					<path fill-rule="evenodd" clip-rule="evenodd" fill="#FFFFFF" d="M1278.756,549.404c0.021-7.284,5.18-10.231,11.521-6.566
						c67.215,38.551,134.291,78.458,201.513,117.013c6.334,3.661,11.466,12.546,11.444,19.828l0.33,266.08
						c-0.021,7.281-5.186,10.227-11.522,6.565c-67.218-38.554-134.304-78.467-201.511-117.014
						c-6.344-3.662-11.469-12.545-11.447-19.828L1278.756,549.404z"/>
					<linearGradient id="SVGID_5_" gradientUnits="userSpaceOnUse" x1="1420.9072" y1="651.1079" x2="1367.7885" y2="770.0233">
						<stop  offset="0" style="stop-color:#1C8EF4"/>
						<stop  offset="1" style="stop-color:#00CFDD"/>
					</linearGradient>
					<path fill-rule="evenodd" clip-rule="evenodd" fill="url(#SVGID_5_)" d="M1278.757,549.404c0.02-7.282,5.179-10.23,11.52-6.568
						c67.216,38.553,134.292,78.46,201.514,117.014c6.335,3.66,11.466,12.546,11.444,19.829l0.238,209.083l-224.478-128.752
						L1278.757,549.404z"/>
				</g>
			</g>
			<g>
				<g>
					<path opacity="0.25" fill-rule="evenodd" clip-rule="evenodd" fill="#03C8DE" d="M1295.429,788.124
						c0.009-3.145,2.237-4.38,4.978-2.752l61.904,34.979c2.737,1.627,4.953,5.502,4.944,8.646v6.223
						c-0.009,3.145-2.238,4.377-4.976,2.753l-61.906-34.981c-2.741-1.627-4.953-5.5-4.945-8.645L1295.429,788.124z"/>
					<path opacity="0.25" fill-rule="evenodd" clip-rule="evenodd" fill="#03C8DE" d="M1295.429,815.413
						c0.008-2.77,1.97-3.858,4.384-2.424c35.098,19.83,92.618,52.207,127.717,72.038c2.411,1.434,4.362,4.846,4.355,7.615
						l-0.001,5.485c-0.008,2.769-1.973,3.855-4.384,2.424c-35.099-19.832-92.619-52.208-127.717-72.04
						c-2.415-1.433-4.363-4.845-4.355-7.616L1295.429,815.413z"/>
				</g>
				<g>
					<g>
						<path opacity="0.5" fill-rule="evenodd" clip-rule="evenodd" fill="#FFFFFF" d="M1309.682,577.222
							c8.729,2.613,16.537,13.216,17.441,23.681c0.903,10.466-5.439,16.832-14.169,14.219c-8.728-2.613-16.537-13.215-17.44-23.681
							C1294.609,580.975,1300.954,574.609,1309.682,577.222z"/>
						<path fill-rule="evenodd" clip-rule="evenodd" fill="#FFFFFF" d="M1310.437,585.955c4.706,1.409,8.915,7.125,9.402,12.768
							c0.488,5.643-2.933,9.075-7.638,7.666c-4.706-1.409-8.917-7.125-9.404-12.767
							C1302.31,587.979,1305.729,584.546,1310.437,585.955z"/>
						<path opacity="0.5" fill-rule="evenodd" clip-rule="evenodd" fill="#FFFFFF" d="M1331.909,598.996
							c0.008-2.21,1.572-3.023,3.497-1.813l58.324,35.115c1.922,1.209,3.478,3.986,3.472,6.195v4.371
							c-0.007,2.209-1.574,3.022-3.496,1.812l-58.324-35.115c-1.924-1.21-3.478-3.984-3.473-6.194V598.996z"/>
						<path opacity="0.5" fill-rule="evenodd" clip-rule="evenodd" fill="#FFFFFF" d="M1331.909,615.073
							c0.004-1.305,0.929-1.785,2.063-1.07l34.443,20.734c1.134,0.714,2.054,2.354,2.05,3.659v2.58
							c-0.004,1.305-0.93,1.784-2.065,1.07l-34.44-20.735c-1.137-0.715-2.054-2.354-2.051-3.659V615.073z"/>
					</g>
					<g>
						<g>
							<path opacity="0.5" fill-rule="evenodd" clip-rule="evenodd" fill="#FFFFFF" d="M1295.705,628.599
								c0.028-2.898,2.07-4.04,4.562-2.547l179.046,102.04c2.488,1.493,4.487,5.057,4.461,7.956l-0.042,3.795
								c-0.027,2.897-2.072,4.04-4.563,2.547l-179.043-102.04c-2.494-1.494-4.49-5.059-4.461-7.956L1295.705,628.599z"/>
							<path opacity="0.5" fill-rule="evenodd" clip-rule="evenodd" fill="#FFFFFF" d="M1295.755,656.698
								c0.025-2.897,2.068-4.041,4.562-2.546l179.044,102.04c2.487,1.491,4.488,5.058,4.461,7.956l-0.04,3.795
								c-0.028,2.896-2.074,4.039-4.563,2.546L1300.174,668.45c-2.494-1.494-4.49-5.058-4.461-7.955L1295.755,656.698z"/>
							<path opacity="0.5" fill-rule="evenodd" clip-rule="evenodd" fill="#FFFFFF" d="M1295.47,683.454
								c0.026-2.898,2.068-4.04,4.56-2.546l179.046,102.038c2.488,1.494,4.489,5.059,4.461,7.956l-0.042,3.796
								c-0.026,2.897-2.071,4.039-4.561,2.547l-179.045-102.039c-2.492-1.494-4.489-5.059-4.461-7.956L1295.47,683.454z"/>
						</g>
						<g>
							<path opacity="0.5" fill-rule="evenodd" clip-rule="evenodd" fill="#FFFFFF" d="M1295.705,709.44
								c0.028-2.898,2.07-4.041,4.562-2.545l179.046,102.038c2.488,1.492,4.487,5.059,4.461,7.957l-0.042,3.795
								c-0.027,2.898-2.072,4.039-4.563,2.546l-179.043-102.039c-2.494-1.494-4.49-5.058-4.461-7.955L1295.705,709.44z"/>
							<path opacity="0.5" fill-rule="evenodd" clip-rule="evenodd" fill="#FFFFFF" d="M1295.755,737.54
								c0.025-2.897,2.068-4.04,4.562-2.546l179.044,102.039c2.487,1.493,4.488,5.058,4.461,7.956l-0.04,3.796
								c-0.028,2.896-2.074,4.04-4.563,2.547l-179.045-102.04c-2.494-1.494-4.49-5.059-4.461-7.956L1295.755,737.54z"/>
						</g>
					</g>
				</g>
			</g>
		</g>
		<linearGradient id="SVGID_6_" gradientUnits="userSpaceOnUse" x1="1356.5391" y1="576.1533" x2="1255.8447" y2="803.9055">
			<stop  offset="0" style="stop-color:#1C8EF4"/>
			<stop  offset="1" style="stop-color:#00CFDD"/>
		</linearGradient>
		<path opacity="0.5" fill-rule="evenodd" clip-rule="evenodd" fill="url(#SVGID_6_)" d="M1278.756,549.404
			c0.021-7.284,10.411-15.106,16.754-11.442c11.08,6.354,25.886,15.125,36.959,21.54l-8.964,2.633l0.362,292.4
			c-11.109-6.438-22.221-12.851-33.336-19.226c-6.344-3.662-11.469-12.545-11.447-19.828L1278.756,549.404z"/>
	</g>
	<g>
		<path fill-rule="evenodd" clip-rule="evenodd" fill="#FFFFFF" d="M1088.017,232.551c33.567,21.135,65.766,4.159,71.912-37.893
			c6.15-42.061-16.076-93.274-49.647-114.41c-33.563-21.125-65.766-4.169-71.917,37.891
			C1032.218,160.192,1054.443,211.416,1088.017,232.551z"/>
		<path fill-rule="evenodd" clip-rule="evenodd" fill="#6A69DA" d="M1093.091,216.866c-27.204-17.125-45.218-58.634-40.234-92.715
			c4.985-34.082,31.079-47.822,58.277-30.705c27.203,17.128,45.216,58.63,40.233,92.712
			C1146.384,220.237,1120.293,233.992,1093.091,216.866L1093.091,216.866z M1090.979,231.309c12.12,7.63,19.023,13.763,29.62,12.072
			c5.938-0.946,16.5-6.734,21.391-10.304c10.564-7.713,18.219-21.294,20.904-39.66c6.148-42.06-16.079-93.274-49.648-114.411
			c-16.337-10.283-32.352-11.541-45.195-5.277c-2.381,1.16-8.064,3.916-10.211,5.585c-10.052,7.824-13.906,19.793-16.511,37.582
			C1035.182,158.949,1057.409,210.172,1090.979,231.309z"/>
		<linearGradient id="SVGID_7_" gradientUnits="userSpaceOnUse" x1="1072.042" y1="195.8037" x2="1117.5343" y2="128.6244">
			<stop  offset="0" style="stop-color:#6D6AFE"/>
			<stop  offset="1" style="stop-color:#3FB0F7"/>
		</linearGradient>
		<path fill-rule="evenodd" clip-rule="evenodd" fill="url(#SVGID_7_)" d="M1141.052,182.08l-7.339-5.289l-0.631,4.308l7.521,4.068
			c0.083-0.488,0.159-0.979,0.235-1.48C1140.915,183.151,1140.987,182.615,1141.052,182.08L1141.052,182.08z M1126.682,139.167
			l1.986,4.569l5.908-3.907c-0.456-1.108-0.932-2.2-1.427-3.28L1126.682,139.167L1126.682,139.167z M1061.418,112.997l6.074,8.318
			l1.892-3.152l-6.604-7.424C1062.305,111.463,1061.852,112.213,1061.418,112.997L1061.418,112.997z M1063.641,132.689l-7.518-4.07
			c-0.092,0.523-0.177,1.051-0.254,1.586c-0.071,0.494-0.137,0.996-0.202,1.496l7.346,5.295L1063.641,132.689L1063.641,132.689z
			 M1055.87,150.871c0.156,1.144,0.326,2.291,0.522,3.434l7.515,1.439l-0.733-4.803L1055.87,150.871L1055.87,150.871z
			 M1073.87,194.583c0.681,0.891,1.38,1.753,2.096,2.601l4.547-6.337l-2.938-3.646L1073.87,194.583L1073.87,194.583z
			 M1104.15,205.708l2.093,10.511c0.818,0.119,1.633,0.207,2.441,0.249l-1.12-10.414L1104.15,205.708L1104.15,205.708z
			 M1117.161,204.28l4.718,9.716c0.696-0.331,1.382-0.69,2.056-1.088l-3.899-10.143L1117.161,204.28L1117.161,204.28z
			 M1099.978,157.519l18.613,44.338l-1.226,0.661l-18.065-39.385l-0.14,1.11l-3.434-2.163l0.843-4.887l-2.845-6.202l1.342-0.725
			l-16.301-38.889l0.416-0.225l16.708,38.664l0.692-0.374l0.938,2.23l5.27-30.559l1.477,0.928L1099.978,157.519L1099.978,157.519z
			 M1122.813,119.278c-0.682-0.893-1.388-1.763-2.102-2.612l-4.496,6.273l2.931,3.645L1122.813,119.278L1122.813,119.278z
			 M1107.368,104.522c-0.408-0.276-0.819-0.54-1.23-0.8c-0.415-0.261-0.823-0.512-1.237-0.751l-1.838,8.949l3.437,2.166
			L1107.368,104.522L1107.368,104.522z M1092.57,108.074l-2.063-10.396c-0.828-0.115-1.648-0.207-2.453-0.255l1.099,10.308
			L1092.57,108.074L1092.57,108.074z M1079.567,109.506l-4.683-9.633c-0.7,0.333-1.388,0.688-2.063,1.08l3.866,10.069
			L1079.567,109.506L1079.567,109.506z M1062.1,173.984c0.455,1.107,0.926,2.195,1.418,3.273l6.523-2.637l-1.982-4.572
			L1062.1,173.984L1062.1,173.984z M1089.347,209.372c0.405,0.275,0.817,0.537,1.223,0.796c0.411,0.261,0.819,0.511,1.234,0.751
			l1.858-9.053l-3.438-2.164L1089.347,209.372L1089.347,209.372z M1140.822,162.909c-0.147-1.143-0.325-2.291-0.525-3.436
			l-7.486-1.436l0.74,4.804L1140.822,162.909L1140.822,162.909z M1127.334,195.62l6.644,7.463c0.471-0.725,0.923-1.478,1.354-2.262
			l-6.1-8.354L1127.334,195.62z"/>
		<linearGradient id="SVGID_8_" gradientUnits="userSpaceOnUse" x1="1115.1094" y1="127.6011" x2="1062.4006" y2="208.8151">
			<stop  offset="0" style="stop-color:#A77EF7"/>
			<stop  offset="1" style="stop-color:#5E65D6"/>
		</linearGradient>
		<path fill-rule="evenodd" clip-rule="evenodd" fill="url(#SVGID_8_)" d="M1085.618,220.853
			c-27.205-17.127-45.217-58.636-40.235-92.713c4.984-34.083,31.081-47.823,58.279-30.705c27.203,17.127,45.214,58.629,40.23,92.712
			C1138.91,224.224,1112.821,237.979,1085.618,220.853L1085.618,220.853z M1083.506,235.295
			c33.569,21.134,65.767,4.158,71.914-37.893c6.15-42.061-16.075-93.273-49.647-114.41c-33.563-21.125-65.766-4.17-71.916,37.891
			C1027.708,162.937,1049.937,214.16,1083.506,235.295z"/>
	</g>
	<g>
		<g>
			<g>
				<path opacity="0.3" fill-rule="evenodd" clip-rule="evenodd" fill="#9871D0" d="M1303.98,1167.395L975.661,979.878
					c-12.186-5.568-30.089-10.82-42.041-3.539l-30.578,18.63c-6.153,3.75-26.383,16.186-12.851,23.544
					c39.805,21.645,294.137,170.244,334.558,192.232c7.644,4.158,18.827,5.662,30.565,4.686c11.688-0.969,23.823-4.132,33.107-9.857
					l12.214-7.534c8.635-5.325,13.417-11.142,13.877-16.723C1314.963,1175.864,1311.46,1170.809,1303.98,1167.395z"/>
				<g>
					<path fill-rule="evenodd" clip-rule="evenodd" fill="#303A7D" d="M1295.276,1146.047c-0.047,15.984-5.744,27.232-14.855,32.527
						l-14.456,8.693c-49.591-21.164-31.187-272.483-34.208-343.932l15.227-374.958c-12.803-22.373-62.06-41.896-50.563-87.586
						l-145.352-68.041c-6.452-4.389-176.071-102.618-145.624-121.039c5.092-3.081,10.132-6.183,15.161-9.106
						c11.24-6.651,25.568-2.539,36.091,3.529l0,0l0,0l289.223,165.893c28.388,16.356,50.654,55.933,50.566,87.581L1295.276,1146.047
						z"/>
					<path fill-rule="evenodd" clip-rule="evenodd" fill="#3E4992" d="M890.665,224.217c0.042-15.667,5.468-26.792,14.262-32.213
						c9.261-5.709,22.257-5.092,36.631,3.21l289.223,165.887c27.989,16.164,50.653,55.416,50.563,87.585l-1.205,706.438
						c-0.093,32.166-22.905,45.167-50.9,29.006l-289.218-165.891c-28.025-16.18-50.657-55.419-50.568-87.584L890.665,224.217z"/>
					<linearGradient id="SVGID_9_" gradientUnits="userSpaceOnUse" x1="1139.5225" y1="960.291" x2="985.7714" y2="191.5334">
						<stop  offset="0" style="stop-color:#965CF2"/>
						<stop  offset="1" style="stop-color:#FF8ADC"/>
					</linearGradient>
					<path fill-rule="evenodd" clip-rule="evenodd" fill="url(#SVGID_9_)" d="M906.165,254.59
						c0.083-29.609,21.051-41.589,46.843-26.695l266.199,152.683c25.762,14.878,46.621,51.005,46.539,80.615l-1.108,663.555
						c-0.085,29.607-21.084,41.573-46.85,26.697L951.592,998.759c-25.794-14.891-46.625-51.007-46.541-80.613L906.165,254.59z"/>
				</g>
			</g>
			<g>
				<path fill-rule="evenodd" clip-rule="evenodd" fill="#F1A4FD" d="M1084.816,475.692c-20.313-11.729-36.724-40.156-36.658-63.494
					c0.067-23.341,16.588-32.751,36.896-21.027c20.313,11.728,36.721,40.151,36.655,63.491
					C1121.646,478,1105.128,487.42,1084.816,475.692L1084.816,475.692z M1084.788,485.582c25.066,14.474,45.448,2.848,45.53-25.95
					c0.08-28.804-20.171-63.876-45.237-78.353c-25.06-14.467-45.447-2.855-45.53,25.95
					C1039.47,436.029,1059.724,471.108,1084.788,485.582z"/>
				<g>
					<path fill-rule="evenodd" clip-rule="evenodd" fill="#FFFFFF" d="M1054.184,500.141c0.006-2.694,1.914-3.751,4.26-2.357
						l53.012,29.952c2.342,1.393,4.24,4.711,4.232,7.405l-0.001,5.328c-0.008,2.692-1.918,3.748-4.262,2.357l-53.009-29.954
						c-2.348-1.394-4.243-4.709-4.235-7.402L1054.184,500.141z"/>
					<path opacity="0.5" fill-rule="evenodd" clip-rule="evenodd" fill="#FFFFFF" d="M1026.514,508.814
						c0.005-2.373,1.685-3.304,3.752-2.076c30.056,16.981,79.309,44.705,109.363,61.686c2.064,1.228,3.736,4.15,3.729,6.522
						l-0.001,4.694c-0.006,2.374-1.689,3.304-3.754,2.077c-30.054-16.982-79.309-44.705-109.363-61.687
						c-2.067-1.228-3.735-4.149-3.729-6.521L1026.514,508.814z"/>
				</g>
			</g>
		</g>
		<g>
			<g>
				<path opacity="0.5" fill-rule="evenodd" clip-rule="evenodd" fill="#FFFFFF" d="M923.311,938.449
					c0.309-3.305,2.746-4.678,5.448-3.057l320.539,183.382c2.697,1.618,4.64,5.616,4.334,8.925l-1.027,10.025
					c-0.306,3.305-2.748,4.678-5.447,3.057L926.62,957.4c-2.703-1.619-4.643-5.618-4.334-8.924L923.311,938.449z"/>
				<path opacity="0.5" fill-rule="evenodd" clip-rule="evenodd" fill="#FFFFFF" d="M924.779,939.792
					c0.279-3.001,2.492-4.247,4.943-2.775l224.497,128.741c2.448,1.469,4.212,5.1,3.931,8.098l-0.93,9.095
					c-0.278,3.001-2.493,4.246-4.941,2.777L927.78,956.984c-2.45-1.471-4.21-5.098-3.932-8.096L924.779,939.792z"/>
			</g>
			<g>
				<polygon opacity="0.5" fill-rule="evenodd" clip-rule="evenodd" fill="#FFFFFF" points="1060.907,655.871 1050.421,773.581 
					1150.437,777.901 				"/>
				<path opacity="0.5" fill-rule="evenodd" clip-rule="evenodd" fill="#FFFFFF" d="M1083.535,821.215
					c-40.281-24.58-70.951-83.072-68.509-130.647c2.448-47.584,37.088-66.223,77.359-41.657
					c40.282,24.581,70.95,83.061,68.504,130.645C1158.445,827.13,1123.814,845.793,1083.535,821.215L1083.535,821.215z
					 M1082.499,841.377c49.706,30.332,92.442,7.299,95.459-51.407c3.019-58.72-34.827-130.888-84.536-161.222
					c-49.696-30.316-92.443-7.314-95.463,51.407C994.943,738.865,1032.791,811.045,1082.499,841.377z"/>
			</g>
		</g>
	</g>
	<g>
		<path opacity="0.3" fill-rule="evenodd" clip-rule="evenodd" fill="#9871D0" d="M1240.751,1217.055l-132.712-76.14
			c-5.477-2.501-13.523-4.86-18.896-1.588l-13.741,8.372c-2.766,1.684-11.854,7.275-5.775,10.58
			c17.889,9.727,117.352,68.377,135.516,78.26c3.435,1.867,8.464,2.545,13.737,2.105c5.251-0.434,10.705-1.856,14.879-4.432
			l5.489-3.384c3.881-2.395,6.03-5.01,6.236-7.517C1245.685,1220.864,1244.112,1218.592,1240.751,1217.055z"/>
		<g>
			<path fill-rule="evenodd" clip-rule="evenodd" fill="#D03286" d="M1235.887,1107.892c0.018-3.806-1.223-2.917-3.17-4.546
				c-0.277-0.23-0.572-0.438-0.88-0.624l-29.168-16.221c-18.52-8.444-25.997,27.108-28.566,53.996l24.896,14.289l34.549-18.868
				L1235.887,1107.892z"/>
			<path fill-rule="evenodd" clip-rule="evenodd" fill="#E23B93" d="M1206.227,1215.177l0.131-61.661l-0.552-19.822l-121.383-71.781
				l-0.39,81.479c-0.01,2.088,0.256,3.947,0.758,5.55c0.336,1.071,0.774,2.029,1.311,2.867c0.266,0.418,0.558,0.809,0.868,1.167
				c0.626,0.72,1.337,1.313,2.125,1.78l121.381,71.783C1207.322,1224.675,1206.197,1220.75,1206.227,1215.177z"/>
			<polygon fill-rule="evenodd" clip-rule="evenodd" fill="#F1920E" points="1144.093,1156.304 1149.717,1153.095 
				1149.559,1173.681 1143.936,1176.892 1143.742,1165.126 			"/>
			<linearGradient id="SVGID_10_" gradientUnits="userSpaceOnUse" x1="1131.3896" y1="1116.6436" x2="1159.0101" y2="1077.6089">
				<stop  offset="0" style="stop-color:#FA5DB1"/>
				<stop  offset="1" style="stop-color:#FEBFBF"/>
			</linearGradient>
			<path fill-rule="evenodd" clip-rule="evenodd" fill="url(#SVGID_10_)" d="M1114.209,1028.487
				c-1.396-0.854-3.773-1.567-5.391-1.666c-5.778-0.355-12.028,3.48-16.053,6.859c-3.604,3.026-6.731,6.763-9.235,10.68
				c-3.858,6.045-6.7,13.282-7.306,20.33c-0.067,0.799-0.109,1.593-0.113,2.374l-0.16,24.29l54.926,61.07l10.786,6.377l55.691,4.272
				l0.634-0.535l0.381-11.264c0.03-6.613,2.898-26.375,6.299-32.534c4.712-8.539,20.73-24.089,30.922-18.47L1114.209,1028.487z"/>
			<polygon fill-rule="evenodd" clip-rule="evenodd" fill="#F1920E" points="1144.093,1156.304 1146.175,1155.116 
				1146.019,1175.702 1143.936,1176.892 1143.742,1165.126 			"/>
			<polygon fill-rule="evenodd" clip-rule="evenodd" fill="#FFD463" points="1128.62,1146.993 1137.906,1153.244 1144.093,1156.304 
				1146.174,1155.116 1130.701,1145.809 			"/>
			<polygon fill-rule="evenodd" clip-rule="evenodd" fill="#FFC426" points="1128.62,1146.993 1144.093,1156.304 1143.936,1176.89 
				1128.464,1167.579 			"/>
			<g>
				<path fill-rule="evenodd" clip-rule="evenodd" fill="#F964B1" d="M1144.83,1049.938c0.032-0.281,0.072-0.553,0.127-0.814
					c0.006-0.035,0.014-0.07,0.021-0.106c0.055-0.251,0.12-0.494,0.195-0.726c0.014-0.043,0.029-0.086,0.043-0.126
					c0.075-0.224,0.16-0.435,0.254-0.637c0.009-0.019,0.017-0.038,0.023-0.054c0.108-0.224,0.228-0.434,0.355-0.632
					c0.183-0.279,0.392-0.525,0.615-0.748c0.054-0.054,0.109-0.106,0.165-0.157c0.232-0.211,0.479-0.406,0.747-0.561l-8.364,4.774
					c-0.268,0.154-0.512,0.35-0.745,0.563c-0.056,0.051-0.113,0.102-0.167,0.157c-0.222,0.224-0.431,0.467-0.613,0.749
					c-0.003,0.005-0.009,0.007-0.012,0.013c-0.121,0.188-0.233,0.388-0.336,0.599c-0.004,0.005-0.005,0.013-0.009,0.018
					c-0.007,0.018-0.013,0.035-0.021,0.053c-0.064,0.14-0.128,0.276-0.185,0.427c-0.025,0.065-0.047,0.14-0.07,0.208
					c-0.016,0.045-0.029,0.086-0.046,0.132c-0.012,0.04-0.026,0.078-0.038,0.119c-0.046,0.145-0.085,0.294-0.12,0.446
					c-0.015,0.054-0.024,0.106-0.033,0.16c-0.009,0.033-0.017,0.068-0.022,0.104c-0.012,0.056-0.025,0.109-0.033,0.165
					c-0.025,0.137-0.049,0.276-0.066,0.416c-0.012,0.076-0.019,0.157-0.026,0.236c-0.003,0.027-0.007,0.053-0.011,0.081
					c-0.003,0.035-0.006,0.068-0.011,0.106c-0.013,0.132-0.023,0.269-0.028,0.408c-0.006,0.14-0.011,0.279-0.013,0.421
					c0,0.008,0,0.019-0.001,0.025l-0.047,4.457l8.365-4.773l0.044-4.457c0.004-0.335,0.024-0.652,0.055-0.962
					C1144.824,1049.994,1144.828,1049.967,1144.83,1049.938z"/>
				<path fill-rule="evenodd" clip-rule="evenodd" fill="#FB85B6" d="M1153.246,1040.289c-0.186-0.102-0.367-0.198-0.551-0.289
					c-0.12-0.063-0.239-0.117-0.357-0.176c-0.029-0.013-0.058-0.025-0.086-0.04c-0.035-0.016-0.067-0.033-0.101-0.049
					c-0.181-0.081-0.36-0.159-0.54-0.233c-0.182-0.073-0.363-0.145-0.545-0.207c-0.032-0.014-0.063-0.023-0.096-0.036
					c-0.029-0.008-0.059-0.018-0.088-0.025c-0.119-0.043-0.239-0.084-0.356-0.122c-0.187-0.058-0.374-0.111-0.558-0.157
					c-0.093-0.025-0.182-0.043-0.273-0.063c-0.039-0.01-0.078-0.018-0.117-0.027c-0.057-0.01-0.109-0.028-0.163-0.038
					c-0.2-0.041-0.396-0.073-0.595-0.102c-0.123-0.018-0.244-0.028-0.366-0.038c-0.041-0.008-0.08-0.013-0.122-0.016
					c-0.037-0.005-0.074-0.01-0.112-0.013c-0.216-0.015-0.429-0.024-0.641-0.027c-0.093,0-0.186,0.01-0.276,0.013
					c-0.071,0.002-0.146,0.005-0.214,0.01c-0.07,0-0.143,0-0.213,0.008c-0.267,0.022-0.528,0.059-0.784,0.106
					c-0.007,0.003-0.011,0.003-0.018,0.005c-0.064,0.013-0.125,0.036-0.19,0.051c-0.253,0.059-0.506,0.117-0.745,0.198
					c-0.021,0.008-0.04,0.021-0.06,0.028c-0.364,0.129-0.715,0.283-1.047,0.474l-8.362,4.774c3.37-0.743,6.894,0.233,9.822,1.961
					l0.365-0.254l16.524,9.709l0.055-0.031c7.007,4.13,11.421,12.345,12.66,20.485c0.002,0.01,0.704-0.416,0.705-0.406l0,0
					l0.003,0.025h0.001l0.004,0.025l0,0l0.002,0.025h0.002l0.004,0.022l0,0l0.002,0.025h0.001l0.003,0.025l0,0l0.005,0.025l0,0
					l0.003,0.025h0.001l0.003,0.025l0,0l0.004,0.025l0,0l0.002,0.025l0.004,0.022h0.001l0.004,0.025l0,0l0.003,0.025l0,0
					l0.004,0.025l0,0l0.002,0.025l0,0l0.003,0.025l0,0l0.004,0.023l0,0l0.002,0.025l0,0l0.004,0.027l0,0l0.004,0.023l0.003,0.025
					l0,0l0.004,0.025l0,0l0.002,0.025l0,0l0.004,0.022l0.002,0.025h0.002l0.001,0.025l0,0l0.003,0.025l0,0l0.003,0.025h0.001
					l0.003,0.025l0.004,0.022l0.001,0.025h0.001l0.001,0.025l0,0l0.004,0.025l0,0l0.003,0.025l0,0l0.004,0.025l0.002,0.025
					l0.003,0.022l0.003,0.025l0.002,0.025l0.001,0.025l0,0l0.004,0.025l0,0l0.003,0.025l0,0l0.003,0.023l0.001,0.025l0.002,0.025
					l0,0l0.008,0.073l0.002,0.025l0.002,0.025l0.004,0.025l0.003,0.022l0.001,0.025l0.003,0.025l0,0l0.002,0.025l0,0l0.001,0.025
					l0,0l0.003,0.023l0,0l0.001,0.025l0.003,0.025l0.003,0.025l0,0l0.001,0.022l0,0l0.001,0.025l0,0l0.003,0.025l0,0v0.002v0.003
					v0.003l0,0l0.002,0.002v0.003v0.002l0,0v0.013l0,0v0.008l0,0l0.002,0.003v0.005l0,0v0.003l0,0v0.005v0.002l0.001,0.006l0,0
					v0.007l0,0v0.003h0.001v0.005l0,0v0.005l0,0v0.003l0,0l0.001,0.005l0,0v0.003l0,0v0.005v0.005v0.003v0.005v0.003l0,0
					l0.002,0.005l0,0v0.002v0.006v0.002l0.002,0.025l0.002,0.025l0.002,0.022v0.028l0.003,0.022l0.001,0.025h0.002l0.001,0.025l0,0
					l0.001,0.023l0,0l0.001,0.025l0,0l0.002,0.025l0.001,0.022l0.001,0.025h0.002v0.025l0.001,0.025l0,0l0.001,0.022l0.003,0.025
					l0.001,0.025l0,0v0.025l0,0l0.001,0.023l0.002,0.025l0.001,0.022l0.001,0.025l0,0l0.002,0.025v0.025h0.001v0.025l0.001,0.022
					l0.002,0.025l0.001,0.023l0.001,0.025l0.001,0.025v0.022h0.002v0.025v0.025l0,0l0.001,0.022v0.025l0.001,0.023l0.002,0.025
					v0.025l0.001,0.022l0.001,0.025v0.025l0.001,0.022v0.025v0.023v0.025v0.025v0.022l0.002,0.025v0.022l0,0v0.025v0.025
					l0.001,0.023v0.025v0.025v0.022v0.022l0,0v0.025v0.023v0.025v0.022l-0.001,0.025V1079v0.023v0.025l-0.045,4.459l8.361-4.776
					l0.049-4.457v-0.011v-0.01v-0.01v-0.008v-0.011v-0.01v-0.01l0,0v-0.008v-0.011v-0.01v-0.008v-0.01v-0.011v-0.007v-0.011l0,0
					v-0.01v-0.011v-0.007v-0.011v-0.01v-0.008v-0.003v-0.007v-0.011v-0.01v-0.01l0,0v-0.011v-0.008v-0.01v-0.01l0,0l-0.002-0.011
					l0.002-0.008l-0.002-0.01l0,0v-0.01v-0.008v-0.011l0,0v-0.01v-0.008v-0.01l0,0v-0.011v-0.01v-0.008v-0.002v-0.008l-0.001-0.011
					l0,0v-0.01v-0.008l0,0v-0.01v-0.01v-0.011v-0.008v-0.01v-0.01l-0.001-0.011v-0.01v-0.011v-0.007l0,0v-0.011v-0.01l0,0v-0.008
					v-0.01v-0.011v-0.01v-0.011v-0.01v-0.008v-0.01v-0.011l-0.003-0.01v-0.01v-0.011v-0.01v-0.005v-0.005v-0.011v-0.01l-0.001-0.011
					v-0.01v-0.01v-0.008v-0.003l-0.002-0.01v-0.011v-0.01v-0.01l-0.001-0.011v-0.01l0,0v-0.011l-0.001-0.01l-0.001-0.041v-0.002
					l-0.003-0.079v-0.01v-0.03l-0.003-0.008v-0.005l-0.013-0.267l-0.002-0.043v-0.003l0,0v-0.01l-0.002-0.005v-0.005v-0.006v-0.002
					l-0.001-0.008v-0.003v-0.005l-0.001-0.005v-0.005v-0.005l-0.001-0.006l0,0c-0.011-0.151-0.021-0.304-0.033-0.456v-0.003v-0.002
					v-0.003v-0.003v-0.002l-0.001-0.005v-0.003v-0.003v-0.005l-0.002-0.002l-0.002-0.059c-0.021-0.221-0.043-0.441-0.07-0.665
					l-0.001,0.003c-0.084-0.697-0.199-1.391-0.341-2.075c-0.02-0.086-0.042-0.175-0.061-0.259c-0.01-0.051-0.021-0.102-0.034-0.152
					c-0.021-0.099-0.044-0.197-0.065-0.299c-0.399-1.629-0.925-3.189-1.586-4.731c-1.033-2.263-2.098-4.333-3.598-6.334
					c-0.036-0.028-0.523-0.703-0.6-0.802c-0.095-0.119-0.418-0.561-0.507-0.635c-0.676-1.377-4.825-4.718-6.274-5.578
					c-0.044-0.028-0.088-0.053-0.131-0.078l-17.39-10.216C1153.53,1040.448,1153.388,1040.367,1153.246,1040.289z"/>
				<linearGradient id="SVGID_11_" gradientUnits="userSpaceOnUse" x1="1151.6172" y1="1070.6084" x2="1154.1085" y2="1066.0117">
					<stop  offset="0" style="stop-color:#FA5DB1"/>
					<stop  offset="1" style="stop-color:#FEBFBF"/>
				</linearGradient>
				<path fill-rule="evenodd" clip-rule="evenodd" fill="url(#SVGID_11_)" d="M1162.7,1055.524l-17.391-10.215
					c-7.444-4.376-13.578-0.941-13.668,7.648l-0.046,4.462l4.762,2.795l0.047-4.457c0.059-5.558,4.032-7.782,8.849-4.954
					l17.39,10.218c4.815,2.829,8.686,9.663,8.626,15.221l-0.047,4.458l4.776,2.808l0.045-4.459
					C1176.134,1070.456,1170.145,1059.898,1162.7,1055.524z"/>
			</g>
			<linearGradient id="SVGID_12_" gradientUnits="userSpaceOnUse" x1="1220.335" y1="1163.8018" x2="1289.0458" y2="1120.0944">
				<stop  offset="0" style="stop-color:#FA5DB1"/>
				<stop  offset="1" style="stop-color:#FEBFBF"/>
			</linearGradient>
			<path fill-rule="evenodd" clip-rule="evenodd" fill="url(#SVGID_12_)" d="M1234.04,1117.679l-28.237,16.015l-0.388,81.479
				c-0.056,11.215,7.849,15.784,17.637,10.233l0.36-0.205c9.791-5.554,17.765-19.128,17.818-30.343l0.246-50.964l0.144-0.084
				l0.144-29.716c0.05-10.543-5.708-16.263-13.827-15.19c-8.409,1.109-16.582,6.19-21.631,12.961
				c-5.792,7.768-8.615,17.849-8.814,26.981l-0.161,24.236l7.698-4.374l0.158-24.226c0.019-4.028,1.354-8.461,3.536-12.491
				c2.957-5.467,13.553-16.981,21.335-12.428C1232.391,1110.931,1233.884,1113.729,1234.04,1117.679z"/>
		</g>
	</g>
	<g>
		<path opacity="0.5" fill-rule="evenodd" clip-rule="evenodd" fill="#6224C6" d="M1156.79,322.095
			c-0.438-2.289,0.581-7.691,5.169-9.345l8.051-4.308l139.192,81.467l-12.831,128.753l-15.152,9.317l-77.605-45.08
			c-1.38-0.782-2.12-2.921-2.316-4.194C1186.445,426.477,1171.624,374.26,1156.79,322.095z"/>
		<g>
			<g>
				<linearGradient id="SVGID_13_" gradientUnits="userSpaceOnUse" x1="1342.5166" y1="449.6436" x2="1253.1115" y2="342.825">
					<stop  offset="0" style="stop-color:#FA5DB1"/>
					<stop  offset="1" style="stop-color:#FEBFBF"/>
				</linearGradient>
				<path fill-rule="evenodd" clip-rule="evenodd" fill="url(#SVGID_13_)" d="M1375.977,554.709l-157.331-91.433l36.525-173.364
					l0.008-0.047l0.004-0.021l0.005-0.03l0.008-0.042l0.001-0.007l0.012-0.054l0.003-0.013l0.01-0.041l0.008-0.037l0.004-0.018
					l0.014-0.058v-0.006l0.014-0.052l0.007-0.031l0.009-0.03l0.013-0.055l0.004-0.005l0.015-0.063l0.006-0.02l0.013-0.044
					l0.014-0.048l0.005-0.016l0.021-0.066l0.002-0.011l0.019-0.056l0.011-0.039l0.011-0.029l0.021-0.068l0,0l0.023-0.069
					l0.011-0.028l0.015-0.041l0.019-0.058l0.006-0.013l0.025-0.07l0.008-0.019l0.021-0.054l0.018-0.047l0.01-0.025l0.029-0.072
					l0.001-0.007l0.028-0.067l0.016-0.037l0.016-0.038l0.029-0.065l0.003-0.008l0.033-0.073l0.01-0.025l0.022-0.049l0.027-0.056
					l0.008-0.017l0.036-0.076l0.005-0.012l0.031-0.062l0.022-0.042l0.016-0.032l0.039-0.073h0.001l0.039-0.075l0.017-0.028
					l0.023-0.043l0.035-0.06l0.007-0.014l0.043-0.071l0.01-0.018l0.031-0.054l0.032-0.048l0.014-0.023l0.047-0.071l0.003-0.006
					l0.044-0.063l0.023-0.034l0.023-0.034l0.045-0.064l0.004-0.006l0.051-0.067l0.015-0.021l0.037-0.043l0.051-0.066l0.052-0.066
					l0.011-0.008l0.044-0.054l0.03-0.037l0.024-0.025l0.056-0.061l0.057-0.06l0.024-0.025l0.034-0.032l0.05-0.047l0.009-0.01
					l0.061-0.055l0.016-0.016l0.046-0.039l0.043-0.036l0.019-0.016l0.063-0.051l0.005-0.004l0.061-0.042l0.032-0.025l0.033-0.022
					l0.061-0.042l0.007-0.003l0.065-0.043l0.023-0.014l0.047-0.026c0.637-0.369,1.415-0.475,2.345-0.11l157.32,91.43
					C1412.033,374.4,1391.106,503.589,1375.977,554.709z"/>
				<path fill-rule="evenodd" clip-rule="evenodd" fill="#E23B93" d="M1255.171,289.913c66.078,75.725,144.9,122.49,137.189,188.209
					l-16.384,76.587l-157.332-91.433L1255.171,289.913z"/>
			</g>
			<g>
				<polygon fill-rule="evenodd" clip-rule="evenodd" fill="#F2F4FF" points="1373.794,361.273 1370.24,537.101 1205.228,441.844 
					1205.718,267.539 				"/>
				<polygon fill-rule="evenodd" clip-rule="evenodd" fill="#C5DBF1" points="1370.73,362.805 1374.177,360.798 1373.685,535.111 
					1370.238,537.102 				"/>
				<polygon fill-rule="evenodd" clip-rule="evenodd" fill="#DCE8F8" points="1205.718,267.538 1209.181,265.532 1374.177,360.798 
					1370.73,362.805 				"/>
				<path fill-rule="evenodd" clip-rule="evenodd" fill="#C5DBF1" d="M1364.442,499.385l-0.034,10.994l-152.729-88.18l0.033-10.989
					L1364.442,499.385L1364.442,499.385z M1364.783,373.004l-0.016,10.991l-152.729-88.177l0.034-10.989L1364.783,373.004
					L1364.783,373.004z M1364.735,391.05l-152.711-88.174l-0.034,10.989l152.712,88.174L1364.735,391.05L1364.735,391.05z
					 M1364.686,409.11l-152.729-88.174l-0.017,10.991l152.713,88.17L1364.686,409.11L1364.686,409.11z M1364.638,427.169
					l-152.729-88.173l-0.034,10.987l152.729,88.177L1364.638,427.169L1364.638,427.169z M1364.588,445.219l-152.729-88.176
					l-0.033,10.992l152.729,88.174L1364.588,445.219L1364.588,445.219z M1364.54,463.279l-152.729-88.177l-0.034,10.991
					l152.729,88.174L1364.54,463.279L1364.54,463.279z M1364.49,481.338l-152.729-88.175l-0.033,10.989l152.728,88.174
					L1364.49,481.338z"/>
			</g>
			<linearGradient id="SVGID_14_" gradientUnits="userSpaceOnUse" x1="1355.0215" y1="510.0791" x2="1177.3175" y2="376.3688">
				<stop  offset="0" style="stop-color:#FA5DB1"/>
				<stop  offset="1" style="stop-color:#FEBFBF"/>
			</linearGradient>
			<path fill-rule="evenodd" clip-rule="evenodd" fill="url(#SVGID_14_)" d="M1333.409,428.712l37.508,131.893l0.007,0.005
				c0.502,1.362,1.563,3.397,2.31,4.197l-157.321-91.419c-1.38-0.782-2.121-2.921-2.317-4.194l-37.508-131.903l0.032,0.019
				l-7.031-24.727c-0.357-1.885,0.979-4.074,1.356-4.474c6.532,5.95,41.419,27.3,47.85,31.086
				c10.773,8.441,11.143,18.867,27.462,36.173c3.123,3.312,4.198,4.184,8.072,6.466L1333.409,428.712z"/>
			<path fill-rule="evenodd" clip-rule="evenodd" fill="#E23B93" d="M1335.352,423.632c0.258-0.234,0.525-0.424,0.771-0.567
				c1.228-0.704,2.331-0.403,2.701,0.813l37.152,130.832l36.521-173.366c0.324-1.618,1.45-3.205,2.667-3.907
				c0.256-0.144,0.515-0.257,0.758-0.324c1.507-0.4,2.39,0.884,1.966,2.825l-36.733,174.526c-0.633,3.025-1.403,5.301-2.229,6.83
				c-0.827,1.596-1.832,2.689-2.958,3.336c-1.116,0.648-2.088,0.637-2.916,0.069c-0.825-0.626-1.538-1.988-2.128-4.075
				l-37.513-131.911C1333.008,427.239,1333.88,424.95,1335.352,423.632z"/>
			<path fill-rule="evenodd" clip-rule="evenodd" fill="#FB84B6" d="M1258.742,376.759l79.355,46.116
				c-2.063-1.011-5.231,3.628-4.687,5.836l-80.15-46.573c-2.672-1.554-4.329-2.464-6.682-4.322
				c-11.394-8.997-16.77-21.325-24.211-31.297c-2.121-2.841-4.25-4.838-6.381-6.462c-1.978-1.078-3.026-1.65-2.676-1.479
				l-44.229-26.035c-0.334-1.876,0.986-4.036,1.362-4.435c0.838-0.891,2.146-1.988,3.337-1.363l44.309,26.08
				c-0.352-0.172,0.696,0.401,2.674,1.479c2.13,1.624,4.262,3.621,6.381,6.462c7.877,10.551,13.512,22.415,26.286,32.48
				C1255.253,374.679,1256.752,375.603,1258.742,376.759z"/>
		</g>
	</g>
	<g>
		<path opacity="0.5" fill-rule="evenodd" clip-rule="evenodd" fill="#6224C6" d="M899.045,203.564
			c37.244,21.758,15.967,10.22,53.252,31.607c7.452,4.305,13.488,14.756,13.463,23.322l0.389,312.98
			c-0.024,8.564-6.1,12.025-13.555,7.721c-40.423-23.187-22.105-13.456-62.487-37.05l0.104-23.292l-0.1-9.017L899.045,203.564z"/>
		<g>
			<path fill-rule="evenodd" clip-rule="evenodd" fill="#F2F4FF" d="M705.391,99.97l6.108-3.229
				c2.136-0.706,4.839-0.311,7.787,1.378c73.087,41.919,146.024,85.314,219.118,127.239c6.891,3.98,12.47,13.641,12.447,21.56
				l0.358,289.329c-0.01,3.598-1.178,6.222-3.094,7.641c-2.299,1.701-7.042,5.39-10.8,3.217
				c-73.091-41.922-144.674-89.042-217.754-130.958c-6.898-3.983-12.469-13.641-12.446-21.561L705.391,99.97z"/>
			<path fill-rule="evenodd" clip-rule="evenodd" fill="#FFFFFF" d="M701.675,108.021c0.024-7.921,5.633-11.126,12.529-7.141
				c73.088,41.92,146.025,85.313,219.119,127.237c6.89,3.98,12.468,13.641,12.446,21.561l0.359,289.329
				c-0.022,7.917-5.64,11.117-12.529,7.139c-73.091-41.923-146.04-85.322-219.118-127.239c-6.899-3.982-12.47-13.641-12.448-21.559
				L701.675,108.021z"/>
		</g>
		<g>
			<g>
				<path opacity="0.2" fill-rule="evenodd" clip-rule="evenodd" fill="#6D6AFD" d="M734.133,147.32
					c9.963,2.635,18.875,14.427,19.907,26.336c1.031,11.91-6.208,19.428-16.172,16.793c-9.962-2.635-18.875-14.425-19.907-26.335
					C716.93,152.205,724.169,144.685,734.133,147.32z"/>
				<linearGradient id="SVGID_15_" gradientUnits="userSpaceOnUse" x1="735.7988" y1="178.5615" x2="736.2589" y2="156.4698">
					<stop  offset="0" style="stop-color:#6D6AFE"/>
					<stop  offset="1" style="stop-color:#3FB0F7"/>
				</linearGradient>
				<path fill-rule="evenodd" clip-rule="evenodd" fill="url(#SVGID_15_)" d="M734.994,157.258
					c5.37,1.42,10.175,7.778,10.731,14.199c0.558,6.421-3.346,10.475-8.717,9.055c-5.372-1.422-10.178-7.779-10.733-14.2
					C725.718,159.892,729.621,155.838,734.994,157.258z"/>
				<path opacity="0.2" fill-rule="evenodd" clip-rule="evenodd" fill="#6D6AFD" d="M759.504,171.288
					c0.007-2.521,1.793-3.512,3.99-2.207l66.57,37.76c2.195,1.303,3.972,4.411,3.964,6.932v4.988
					c-0.007,2.521-1.796,3.511-3.991,2.207l-66.57-37.76c-2.197-1.304-3.971-4.41-3.963-6.931V171.288z"/>
				<path opacity="0.2" fill-rule="evenodd" clip-rule="evenodd" fill="#6D6AFD" d="M759.504,189.639
					c0.004-1.489,1.06-2.075,2.357-1.304l39.31,22.297c1.296,0.771,2.346,2.605,2.34,4.094v2.947
					c-0.003,1.489-1.06,2.073-2.356,1.303l-39.311-22.297c-1.298-0.771-2.345-2.605-2.34-4.093V189.639z"/>
			</g>
			<g>
				<g>
					<g>
						<linearGradient id="SVGID_16_" gradientUnits="userSpaceOnUse" x1="835.6885" y1="327.1387" x2="801.879" y2="380.5533">
							<stop  offset="0" style="stop-color:#FF66BC"/>
							<stop  offset="0.56" style="stop-color:#FF8ADC"/>
							<stop  offset="1" style="stop-color:#FFBBA8"/>
						</linearGradient>
						<polygon fill-rule="evenodd" clip-rule="evenodd" fill="url(#SVGID_16_)" points="740.301,358.156 782.661,288.183 
							804.054,365.879 825.792,339.42 852.872,422.723 						"/>
						<path fill-rule="evenodd" clip-rule="evenodd" fill="#FFDB59" d="M817.351,293.215c5.819,1.442,11.023,8.241,11.627,15.187
							c0.603,6.945-3.626,11.407-9.444,9.965c-5.819-1.442-11.024-8.241-11.627-15.187
							C807.304,296.235,811.532,291.773,817.351,293.215z"/>
					</g>
					<linearGradient id="SVGID_17_" gradientUnits="userSpaceOnUse" x1="840.4307" y1="335.4517" x2="748.6714" y2="352.6292">
						<stop  offset="0" style="stop-color:#FF66BC"/>
						<stop  offset="0.56" style="stop-color:#FF8ADC"/>
						<stop  offset="1" style="stop-color:#FFBBA8"/>
					</linearGradient>
					<path opacity="0.2" fill-rule="evenodd" clip-rule="evenodd" fill="url(#SVGID_17_)" d="M716.923,238.398
						c0.029-10.531,7.486-14.792,16.659-9.495l136.114,77.186c9.161,5.291,16.58,18.139,16.55,28.669l-0.395,112.373
						c-0.029,10.529-7.498,14.784-16.66,9.495l-136.113-77.188c-9.174-5.296-16.582-18.14-16.551-28.668L716.923,238.398z"/>
				</g>
				<linearGradient id="SVGID_18_" gradientUnits="userSpaceOnUse" x1="941.4121" y1="558.0415" x2="919.8499" y2="327.0668">
					<stop  offset="0" style="stop-color:#6D6AFE"/>
					<stop  offset="1" style="stop-color:#3FB0F7"/>
				</linearGradient>
				<path opacity="0.2" fill-rule="evenodd" clip-rule="evenodd" fill="url(#SVGID_18_)" d="M908.128,346.272
					c0.029-10.531,7.487-14.792,16.659-9.494l21.622,12.262l-0.226,150.691l-21.9-12.418c-9.173-5.297-16.58-18.141-16.55-28.669
					L908.128,346.272z"/>
			</g>
		</g>
	</g>
	<g>
		<path opacity="0.5" fill-rule="evenodd" clip-rule="evenodd" fill="#6224C6" d="M890.852,547.577l33.654,24.968
			c24.052,13.89,36.131,55.838,36.055,83.482l-1.036,138.751c-0.078,27.642-19.683,38.813-43.739,24.925l-25.667-15.036
			L890.852,547.577z"/>
		<g>
			<g>
				<path fill-rule="evenodd" clip-rule="evenodd" fill="#F2F4FF" d="M566.359,408.054c0.025-9.299-3.265-15.065,0.72-20.15
					c2.537-3.233,11.364-7.154,15.098-8.445c7.226-2.502,16.399-1.208,26.371,4.55l288.317,167.865
					c23.202,13.401,41.989,45.939,41.915,72.607l-1,133.854c-0.021,8.268-1.753,18.854-8.094,24.658
					c-4.515,4.133-12.437,8.275-18.323,8.756c-6.041,0.491-8.377-5.096-15.777-9.369L607.274,614.515
					c-23.233-13.416-41.994-45.941-41.92-72.607L566.359,408.054z"/>
				<linearGradient id="SVGID_19_" gradientUnits="userSpaceOnUse" x1="772.54" y1="556.1743" x2="721.1859" y2="614.6608">
					<stop  offset="0" style="stop-color:#1C8EF4"/>
					<stop  offset="1" style="stop-color:#00CFDD"/>
				</linearGradient>
				<path fill-rule="evenodd" clip-rule="evenodd" fill="url(#SVGID_19_)" d="M559.64,412.006
					c0.075-26.668,18.962-37.46,42.19-24.044l288.316,167.863c23.203,13.4,41.991,45.939,41.916,72.608l-0.999,133.853
					c-0.075,26.665-18.988,37.444-42.196,24.044l-288.31-167.865c-23.233-13.415-41.995-45.942-41.92-72.607L559.64,412.006z"/>
				<path opacity="0.2" fill-rule="evenodd" clip-rule="evenodd" fill="#FFFFFF" d="M621.561,467.091
					c28.118,7.437,53.271,40.713,56.183,74.324c2.913,33.612-17.52,54.832-45.637,47.396c-28.118-7.437-53.272-40.713-56.185-74.325
					C573.01,480.875,593.444,459.655,621.561,467.091z"/>
				<path fill-rule="evenodd" clip-rule="evenodd" fill="#FFFFFF" d="M623.991,495.139c15.16,4.008,28.721,21.95,30.293,40.071
					c1.569,18.121-9.448,29.562-24.608,25.554c-15.157-4.01-28.722-21.951-30.291-40.073
					C597.815,502.569,608.831,491.129,623.991,495.139L623.991,495.139z M625.324,510.522c-8.053-2.128-13.904,3.948-13.071,13.573
					c0.834,9.626,8.041,19.155,16.091,21.286c8.052,2.128,13.903-3.949,13.069-13.574
					C640.579,522.182,633.375,512.651,625.324,510.522z"/>
				<path opacity="0.2" fill-rule="evenodd" clip-rule="evenodd" fill="#FFFFFF" d="M693.165,534.733
					c0.019-7.116,5.06-9.912,11.259-6.229l187.875,106.563c6.193,3.68,11.207,12.448,11.188,19.564l-0.003,14.079
					c-0.021,7.117-5.068,9.909-11.261,6.229L704.348,568.376c-6.198-3.684-11.206-12.448-11.186-19.564L693.165,534.733z"/>
				<path opacity="0.2" fill-rule="evenodd" clip-rule="evenodd" fill="#FFFFFF" d="M693.164,586.52
					c0.013-4.202,2.988-5.853,6.649-3.678l110.941,62.926c3.656,2.173,6.617,7.35,6.605,11.552v8.315
					c-0.012,4.202-2.993,5.851-6.648,3.679l-110.943-62.928c-3.662-2.175-6.618-7.35-6.605-11.552L693.164,586.52z"/>
			</g>
			<g>
				<path fill-rule="evenodd" clip-rule="evenodd" fill="#FFFFFF" d="M537.246,496.66c33.592,8.884,63.645,48.641,67.125,88.797
					c3.478,40.157-20.933,65.508-54.524,56.623c-33.592-8.885-63.646-48.64-67.124-88.796
					C479.243,513.127,503.655,487.775,537.246,496.66z"/>
				<g>
					<linearGradient id="SVGID_20_" gradientUnits="userSpaceOnUse" x1="533.5713" y1="542.0098" x2="552.9626" y2="599.4383">
						<stop  offset="0" style="stop-color:#1C8EF4"/>
						<stop  offset="1" style="stop-color:#00CFDD"/>
					</linearGradient>
					<path fill-rule="evenodd" clip-rule="evenodd" fill="url(#SVGID_20_)" d="M521.975,554.12l0.16-12.91
						c-0.015-7.77,1.436-12.805,4.352-15.414c3.496-3.128,8.068-2.81,13.795,0.531l12.446,7c6.069,3.104,9.561,6.918,11.561,12.197
						c1.867,4.929,2.266,10.874,2.266,18.7l-0.01,9.333c2.253,4.904,3.738,10.168,4.197,15.45
						c1.556,17.956-9.359,29.289-24.377,25.317c-15.019-3.972-28.456-21.748-30.013-39.698
						C515.593,565.887,517.791,558.721,521.975,554.12L521.975,554.12z M558.778,561.431c-0.098-5.596-0.498-9.897-1.739-13.177
						c-1.291-3.407-3.687-5.929-7.95-8.085c-4.264-2.133-8.46-4.954-12.719-7.138c-2.536-1.479-4.13-2.006-4.725-1.472
						c-1.173,1.05-1.758,4.196-1.758,9.652l-0.109,8.01c3.256-0.945,6.958-0.97,10.951,0.087
						C547.348,551.057,553.656,555.487,558.778,561.431z"/>
					<path fill-rule="evenodd" clip-rule="evenodd" fill="#21389B" d="M547.429,583.763v9.122c0,2.144-1.74,3.883-3.882,3.883
						c-2.144,0-3.884-1.74-3.884-3.883v-12.106c-1.323-1.692-2.24-3.828-2.427-5.976c-0.362-4.167,2.172-6.797,5.656-5.875
						c3.484,0.921,6.604,5.048,6.964,9.214C550.092,580.847,549.105,582.905,547.429,583.763z"/>
				</g>
			</g>
		</g>
	</g>
	<g>
		<path opacity="0.3" fill-rule="evenodd" clip-rule="evenodd" fill="#9871D0" d="M881.815,904.15
			c2.792-8.803,1.754-18.949,6.077-28.508c4.636-10.259,13.105-23.424,27.308-26.433c21.349-21.14,53.501-8.827,68.403,8.482
			c8.764,10.181,1.496,24.483-9.749,29.587c-0.634,5.535-2.263,11.287-4.971,17.038c-2.873,6.104-9.032,6.345-12.522,10.875
			c-0.683,0.886-0.336,2.516-1.03,5.029c-0.769,2.784-10.452,14.605-19.394,21.715c5.281,4.431,10.345,8.773,14.867,12.751
			c15.271-23.356,54.894-42.455,71.19-65.053l18.365-56.332c3.062-8.95,3.44-14.329,10.39-20.255l3.405-8.795
			c0.479-0.256,1.019-0.453,1.607-0.602l0.048-0.242c0.896-4.643-3.434-11.336-1.927-19.789c1.077-6.035,2.294-11.854,3.182-17.844
			c0.461-3.105,1.291-7.41,1.666-10.537c0.503-4.199,0.476-8.144,0.798-12.045c0.286-3.461,1.601-7.83,2.004-11.562
			c1.082-6.791,4.556-6.656,6.818-5.824c3.02,1.108,3.039,2.532,2.763,7.126l-1.039,12.392l1.049,8.355
			c0.162,1.913,3.998,2.117,6.311,3.361c7.518,4.05,10.932,2.445,15.512,7.017c1.093,1.089,1.421,2.105,0.934,4.782
			c0.367,0.523,1.396,4.311,2.021,7.346c0.801,3.877-0.168,3.924-2.525,6.939c-2.646,15.53-1.961,16.434-13.699,25.93
			c-0.195,0.496-0.376,0.992-0.546,1.495c0.734,0.677,1.243,1.337,1.456,1.954l-1.243,7.253c3.113,10.597,0.524,17.469-1.64,27.708
			l-13.762,61.677c-12.894,21.814-61.163,100.424-85.492,106.068l-0.156,0.03c-0.166,0.216-0.336,0.432-0.511,0.645
			c-17.661,21.712-108.831,67.361-184.46,78.176c-15.613,36.048-43.24,75.396-60.553,99.657
			c-7.978,11.183-39.678,54.201-67.38,52.202c-11.025-0.794-87.771-55.337-94-62.612c-30.861,4.708-110.138-2.043-161.418,1.41
			c-7.737,0.522-63.549,27.39-75.12,25.319c-10.607-4.756-14.704-21.175-11.338-31.446c10.86-33.158,75.531-34.294,75.061-35.065
			c31.308-1.631,61.507-21.334,95.661-24.782c23.312-2.354,44.041,3.468,63.115-3.399c13.277-4.781,48.409-22.077,64.602-43.957
			c7.589-10.256,35.129-30.033,57.098-42.682c-1.389-1.065-2.723-2.156-3.993-3.27c-3.243-13.509-1.598-24.335,7.68-28.017
			c46.659,20.023,94.506-26.872,129.917-61.076C834.419,915.322,852.414,894.085,881.815,904.15L881.815,904.15z M630.584,1148.916
			c10.082,7.111,18.797,14.817,23.935,23.45c5.662-16.22,9.795-29.409,12.531-40.71
			C654.771,1137.734,642.313,1143.64,630.584,1148.916z"/>
		<g>
			<g>
				<path fill-rule="evenodd" clip-rule="evenodd" fill="#F0B186" d="M812.422,899.746c2.99-0.086,6.843,1.043,10.17,0.93
					c1.402-0.05,6.006,0.696,7.455,0.641c24.846,7.046,22.059-4.38,39.709-14.172c5.932-1.894,11.517-3.908,17.399-5.946
					c6.72-2.33,9.6-4.657,9.037-9.102c-0.485-3.841-0.592-5.583-1.079-9.423c-0.359-2.835-1.049-4.617-7.309-3.979
					c-8.485,0.865-19.29,2.483-24.01,4.389c-6.507,2.626-17.31,12.737-27.595,15.912c-2.512,0.775-4.881,1.578-6.969,1.341
					l-11.129-1.267L812.422,899.746z"/>
				<linearGradient id="SVGID_21_" gradientUnits="userSpaceOnUse" x1="765.5547" y1="855.0947" x2="728.192" y2="833.4998">
					<stop  offset="0" style="stop-color:#6D6AFE"/>
					<stop  offset="1" style="stop-color:#3FB0F7"/>
				</linearGradient>
				<path fill-rule="evenodd" clip-rule="evenodd" fill="url(#SVGID_21_)" d="M702.66,862.432
					c-13.384,15.295-3.269,30.722,8.832,32.271c41.719,7.771,58.869,9.571,89.764,9.741c5.461,0.03,11.792-1.849,15.924-3.46
					c2.976-0.062,8.551,0.961,11.785,0.862c-0.484-4.652-0.923-16.827,4.635-22.643c-3.878-0.333-9.467-0.092-12.365-0.955
					c-1.426-1.919-7.131-4.077-11.596-5.399c-13.053-3.867-25.916-7.319-40.344-11.065c15.665-8.765,36.098-21.778,41.812-31.078
					c10.498-17.092-9.688-33.422-26.256-28.664C758.457,809.619,722.34,844.208,702.66,862.432z"/>
				<linearGradient id="SVGID_22_" gradientUnits="userSpaceOnUse" x1="765.5547" y1="855.0947" x2="728.192" y2="833.4998">
					<stop  offset="0" style="stop-color:#6D6AFE"/>
					<stop  offset="1" style="stop-color:#3FB0F7"/>
				</linearGradient>
				<path fill-rule="evenodd" clip-rule="evenodd" fill="url(#SVGID_22_)" d="M702.66,862.432
					c-13.384,15.295-3.269,30.722,8.832,32.271c41.719,7.771,58.869,9.571,89.764,9.741c5.461,0.03,11.792-1.849,15.924-3.46
					c2.976-0.062,8.551,0.961,11.785,0.862c-0.484-4.652-0.923-16.827,4.635-22.643c-3.878-0.333-9.467-0.092-12.365-0.955
					c-1.426-1.919-7.131-4.077-11.596-5.399c-13.053-3.867-25.916-7.319-40.344-11.065c15.665-8.765,36.098-21.778,41.812-31.078
					c10.498-17.092-9.688-33.422-26.256-28.664C758.457,809.619,722.34,844.208,702.66,862.432z"/>
			</g>
			<linearGradient id="SVGID_23_" gradientUnits="userSpaceOnUse" x1="769.3374" y1="857.4229" x2="734.0909" y2="837.1706">
				<stop  offset="0" style="stop-color:#6D6AFE"/>
				<stop  offset="1" style="stop-color:#3FB0F7"/>
			</linearGradient>
			<path opacity="0.5" fill-rule="evenodd" clip-rule="evenodd" fill="url(#SVGID_23_)" d="M698.437,885.667
				c2.708,4.928,7.687,8.349,13.056,9.036c41.72,7.771,58.869,9.571,89.764,9.741c5.461,0.03,11.791-1.849,15.924-3.46
				c2.976-0.062,8.551,0.961,11.785,0.862c-0.484-4.652-0.923-16.826,4.635-22.645c-3.878-0.331-9.467-0.09-12.365-0.955
				c-1.426-1.917-7.131-4.075-11.596-5.397c-13.053-3.867-25.916-7.319-40.344-11.065c15.665-8.765,36.099-21.778,41.812-31.078
				c10.498-17.092-9.574-32.662-26.256-28.326c-10.294,2.674-20.647,10.169-32.532,21.768
				C733.658,842.355,713.203,868.54,698.437,885.667z"/>
			<g>
				<path fill-rule="evenodd" clip-rule="evenodd" fill="#6D6AFD" d="M400.512,1154.451c6.015-12.344,9.113-19,1.295-31.575
					c-2.549-2.896-6.589-4.454-11.187-5.565c-11.512-9.726-22.828-0.645-31.087,10.317c-7.662,10.17-6.603,13.351-11.486,17.682
					c-1.597,1.418-3.838,2.435-7.584,4.198c-9.622,4.527-15.33,17.057-17.512,24.292c-3.367,11.156,1.293,27.823,9.647,35.964
					c3.122,3.044,10.227-2.463,14.489-6.971c8.782-9.287,11.724-14.382,16.767-19.48c6.604-6.677,13.807-11.096,21.486-16.012
					C389.128,1164.878,398.519,1158.544,400.512,1154.451z"/>
				<path fill-rule="evenodd" clip-rule="evenodd" fill="#4755FC" d="M377.604,1113.647c-6.717,1.467-13.037,7.331-18.072,13.98
					c-7.689,10.152-6.603,13.351-11.486,17.682c-1.597,1.418-3.838,2.435-7.584,4.198c-9.622,4.527-15.33,17.057-17.512,24.292
					c-3.367,11.156,1.293,27.823,9.647,35.964c0.437,0.426,0.952,0.685,1.525,0.802c1.731-1.213,3.267-3.182,5.01-6.31
					c6.501-11.666,12.586-32.136,20.813-40.649c3.963-4.102,8.052-6.28,11.845-9.723c6.54-5.929,12.12-12.667,14.701-21.248
					C388.895,1124.652,386.005,1114.918,377.604,1113.647z"/>
			</g>
			<linearGradient id="SVGID_24_" gradientUnits="userSpaceOnUse" x1="641.9404" y1="971.5859" x2="387.5829" y2="1251.9271">
				<stop  offset="0" style="stop-color:#6D6AFE"/>
				<stop  offset="1" style="stop-color:#3FB0F7"/>
			</linearGradient>
			<path fill-rule="evenodd" clip-rule="evenodd" fill="url(#SVGID_24_)" d="M743.096,941.672
				c-6.806,4.048-20.868-7.831-29.313-5.63c-20.425,5.322-29.447,6.276-48.588,14.46c-15.565,6.656-31.952,24.059-43.243,42.274
				c-16.192,26.122-51.324,52.616-64.602,60.871c-19.074,11.862-39.802,11.469-63.115,19.927
				c-34.157,12.395-67.358,34.195-98.666,44.028c8.781,12.107,3.696,37.039-8.495,50.7c50.117-23.712,164.694-37.976,191.577-53.884
				c37.154-21.984,120.204-84.817,150.801-113.76l1.345-25.477L743.096,941.672z"/>
			<linearGradient id="SVGID_25_" gradientUnits="userSpaceOnUse" x1="649.9858" y1="978.8857" x2="395.6283" y2="1259.2269">
				<stop  offset="0" style="stop-color:#6D6AFE"/>
				<stop  offset="1" style="stop-color:#3FB0F7"/>
			</linearGradient>
			<path opacity="0.5" fill-rule="evenodd" clip-rule="evenodd" fill="url(#SVGID_25_)" d="M743.096,941.672
				c-6.804,4.048-20.868-7.83-29.313-5.631c-20.424,5.323-29.448,6.277-48.588,14.461c-9,3.849-18.273,11.29-26.679,20.403
				c5.411,17.563,11.666,33.15,8.689,43.938c-4.275,15.502-18.323,34.609-38.512,55.961c-5.708-9.771-16.695-23.833-28.618-33.741
				c-9.263,7.523-17.614,13.406-22.726,16.585c-8.877,5.521-18.114,8.387-27.803,10.729c2.867,12.833,5.505,25.418,7.926,38.43
				c-59.678,4.975-89.255,20.644-139.362,44.33c-2.125,7.849-5.964,15.484-11.036,21.167
				c50.115-23.712,164.694-37.976,191.577-53.882c37.155-21.986,120.204-84.819,150.801-113.765l1.345-25.474L743.096,941.672z"/>
			<g>
				<path fill-rule="evenodd" clip-rule="evenodd" fill="#6D6AFD" d="M556.412,1002.169c0.085-4.77,1.625-8.801,0.632-14.006
					c-0.986-5.16-4.47-11.511-11.209-13.774c-7.4-2.486-16.612-0.177-24.33,3.813c-6.328,3.268-7.979,6.048-13.391,10.88
					c-7.269,6.492-36.408-3.935-50.694,19.552c-3.939,6.476-4.987,16.131,5.466,20.783c7.598,3.382,17.587-1.91,30.776-2.874
					c5.948-0.437,13.519,1.056,20.127,2.796c10.378,2.731,19.007,3.014,20.472,2.055c15.356-10.046,24.592-8.182,22.902-20.551
					C556.809,1008.231,556.357,1005.145,556.412,1002.169z"/>
				<path fill-rule="evenodd" clip-rule="evenodd" fill="#4755FC" d="M545.835,974.389c-7.4-2.486-16.534-0.021-24.33,3.813
					c-11.226,5.515-15.661,10.446-31.663,11.39c-10.698,0.63-26.069,8.598-32.421,19.042c-2.325,3.822-3.643,8.749-2.183,13.104
					c8.545,5.84,27.344-3.744,35.765-7.393c23.615-10.233,11.617-10.974,41.25-15.278
					C549.997,996.488,566.422,981.306,545.835,974.389z"/>
			</g>
			<linearGradient id="SVGID_26_" gradientUnits="userSpaceOnUse" x1="651.6353" y1="1004.0732" x2="632.5197" y2="1245.6285">
				<stop  offset="0" style="stop-color:#6D6AFE"/>
				<stop  offset="1" style="stop-color:#3FB0F7"/>
			</linearGradient>
			<path fill-rule="evenodd" clip-rule="evenodd" fill="url(#SVGID_26_)" d="M780.729,981.899
				c-5.074,10.419-13.98,24.855-22.354,37.842c-16.982,47.42-49.294,84.911-80.749,115.243
				c-11.231,10.835-55.401,58.947-80.11,53.772c-14.066-2.945-19.475-15.132-24.177-27.172
				c-17.606-45.068-28.72-81.18-51.222-129.984c9.403-1.185,31.705-9.901,36.286-20.17c7.877,22.696,49.422,61.08,54.934,92.485
				c24.696-37.184,36.689-58.858,42.041-78.914c10.241-38.387,10.7-46.938,49.012-65.201c13.019-6.206,20.187,4.177,38.674-4.756
				L780.729,981.899z"/>
			<path fill-rule="evenodd" clip-rule="evenodd" fill="#F3F8FF" d="M833.031,944.764c-16.45,17.656-32.577,29.706-60.091,53.255
				c-20.458,17.171-81.324-1.656-99.125-52.038c17.186-10.318,27.215-19.761,40.494-36.706
				c20.972-26.762,39.738-113.985,83.76-106.945c13.705,2.191,66.756,29.187,81.79,39.689c18.044,11.688,23.479,26.37,12.28,43.696
				C877.466,908.419,842.292,934.823,833.031,944.764z"/>
			<linearGradient id="SVGID_27_" gradientUnits="userSpaceOnUse" x1="784.7935" y1="862.1152" x2="705.2082" y2="1012.0812">
				<stop  offset="0" style="stop-color:#6D6AFE"/>
				<stop  offset="1" style="stop-color:#3FB0F7"/>
			</linearGradient>
			<path fill-rule="evenodd" clip-rule="evenodd" fill="url(#SVGID_27_)" d="M757.805,825.94
				c-28.75,36.866-57.846,91.453-116.385,84.935c-9.28,6.631-10.926,17.983-7.682,30.459c11.589,6.489,28.542,9.362,43.954,6.504
				c-19.153,4.346-29.083,4.904-40.864,2.498c4.386,10.392,11.565,20.963,20.079,29.796c50.308,52.202,208-52.282,235.233-94.417
				c11.199-17.325,5.763-32.008-12.28-43.695c-13.328-9.313-56.541-31.587-75.721-38.048c-4.661-1.57-9.177-2.566-14.137-2.111
				C777.438,803.013,766.785,812.962,757.805,825.94z"/>
			<g>
				<linearGradient id="SVGID_28_" gradientUnits="userSpaceOnUse" x1="1058.9268" y1="769.1387" x2="1051.1079" y2="760.0586">
					<stop  offset="0" style="stop-color:#FF8A78"/>
					<stop  offset="0.9951" style="stop-color:#FFA799"/>
				</linearGradient>
				<path fill-rule="evenodd" clip-rule="evenodd" fill="url(#SVGID_28_)" d="M1020.032,783.47l15.365,13.67
					c2.362-3.096,4.913-6.033,8.069-8.479c13.563-2.731,13.42-3.63,22.434-13.952c3.217-1.354,4.009-1.045,5.098-4.139
					c0.853-2.421,1.723-5.53,1.663-6.039c1.578-1.769,1.77-2.622,1.385-3.798c-1.605-4.935-5.036-4.979-9.211-10.574
					c-1.283-1.721-4.244-3.226-3.521-4.669l2.883-6.429l6.341-8.616c2.267-3.233,2.886-4.271,0.977-6.144
					c-1.43-1.402-4.131-2.729-8.013,1.809c-1.98,2.565-4.971,5.266-6.738,7.674c-1.993,2.714-3.727,5.585-5.995,8.45
					c-1.69,2.135-4.267,4.962-6.016,7.052c-3.371,4.027-6.928,7.815-10.471,11.811c-4.959,5.595-4.498,11.978-7.275,15.028
					C1025.144,778.169,1022.759,780.683,1020.032,783.47z"/>
				<linearGradient id="SVGID_29_" gradientUnits="userSpaceOnUse" x1="880.0513" y1="862.0996" x2="1148.1682" y2="779.5413">
					<stop  offset="0" style="stop-color:#6D6AFE"/>
					<stop  offset="1" style="stop-color:#3FB0F7"/>
				</linearGradient>
				<path fill-rule="evenodd" clip-rule="evenodd" fill="url(#SVGID_29_)" d="M875.844,848.826
					c22.475-11.708,62.768-11.48,85.9-22.152l39.673-34.343c6.419-5.408,9.113-9.172,17.276-11.009l6.621-5.173
					c6.819-0.217,18.14,11.405,17.343,15.332l-4.217,4.82c-2.24,8.783-7.355,12.849-13.636,19.508l-38.393,39.847
					c-19.958,11.254-93.326,51.17-115.183,46.654C847.982,897.509,855.622,859.361,875.844,848.826z"/>
			</g>
			<g>
				<linearGradient id="SVGID_30_" gradientUnits="userSpaceOnUse" x1="848.8252" y1="790.333" x2="840.1423" y2="804.3355">
					<stop  offset="0" style="stop-color:#FF8A78"/>
					<stop  offset="0.9951" style="stop-color:#FFA799"/>
				</linearGradient>
				<path fill-rule="evenodd" clip-rule="evenodd" fill="url(#SVGID_30_)" d="M864.548,790.512
					c-2.432,7.312-4.647,22.331-4.417,32.539c-16.427-1.713-38.688-10.212-39.23-23.854c1.659-6.847,3.113-14.151,1.704-17.526
					C846.643,786.187,846.899,773.655,864.548,790.512z"/>
				<path fill-rule="evenodd" clip-rule="evenodd" fill="#4A9FF8" d="M820.769,798.726c-5.125,0.727-11.845,6.827-11.467,10.191
					c1.689,20.656,40.124,31.814,63.546,30.644c0.28-0.013-7.976-15.693-12.089-17.796
					C846.279,820.888,823.293,811.164,820.769,798.726z"/>
				<g>
					<path fill-rule="evenodd" clip-rule="evenodd" fill="#FFA698" d="M858.958,799.228c-5.122,0.668-9.982-4.024-15.353-13.105
						c-4.553-7.695-23.828,11.482-23.652,10.796c-4.934-6.696-14.352-9.616-19.936-19.415c-7.807-13.703-10.031-30.43,1.152-44.536
						c20.425-25.757,55.787-19.069,70.704,8.152c2.912,5.316-0.854,9.44,0.438,14.267c0.252,0.943,1.744,1.642,3.259,3.514
						c2.093,2.589,6.246,22.158,3.668,31.371C878.167,794.101,863.035,799.313,858.958,799.228z"/>
					<linearGradient id="SVGID_31_" gradientUnits="userSpaceOnUse" x1="872.7334" y1="758.2275" x2="859.5367" y2="774.5173">
						<stop  offset="0" style="stop-color:#FFB89E"/>
						<stop  offset="1" style="stop-color:#FFA799"/>
					</linearGradient>
					<path fill-rule="evenodd" clip-rule="evenodd" fill="url(#SVGID_31_)" d="M879.239,790.271
						c-0.411,1.633-7.75,2.729-10.688,2.533c5.56-17.347-10.776-23.493-4.707-40.3c3.647-10.1-6.294-16.043-0.542-22.811
						c3.281,3.252,6.188,7.077,8.571,11.426c2.912,5.316-0.854,9.44,0.438,14.266c0.252,0.944,1.744,1.643,3.259,3.515
						C877.664,761.488,881.579,780.993,879.239,790.271z"/>
					<g>
						<path fill-rule="evenodd" clip-rule="evenodd" fill="#FFB49C" d="M857.697,778.379c0.479-4.038-0.974-5.128-2.519-4.344
							c-1.698,0.863-3.65,4.044-4.08,8.213c-0.693,6.726,4.216,13.872,9.511,9.397c-5.101,1.506-6.069-4.839-5.418-9.047
							C855.636,779.743,856.833,777.513,857.697,778.379z"/>
						<path fill-rule="evenodd" clip-rule="evenodd" fill="#FF9D8E" d="M855.713,780.619c2.074,2.354,2.949,3.839,2.698,4.872
							c-0.173,0.719-1,1.685-2.999,0.484C854.93,784.12,855.185,782.238,855.713,780.619z"/>
					</g>
					<g>
						<path fill-rule="evenodd" clip-rule="evenodd" fill="#562E65" d="M817.109,799.25c-4.781-7.76-14.481-12.974-19.569-21.907
							c-5.02-8.808-9.846-21.744-3.075-32.643c-2.773-25.792,27.46-39.645,50.517-39.501c16.503,0.105,22.529,19.049,13.29,29.157
							c4.594,7.866,2.605,16.616,1.73,18.793c-2.674,6.656-2.674,7.563-1.517,13.195c0.915,4.442,3.257,15.207-3.348,7.348
							c-4.27-5.079-9.649,3.131-9.184,9.657c0.214,2.973,0.45,6.716-1.323,12.166C840.513,808.177,819.771,803.568,817.109,799.25z"
							/>
						<linearGradient id="SVGID_32_" gradientUnits="userSpaceOnUse" x1="864.3345" y1="713.9546" x2="820.6574" y2="728.3997">
							<stop  offset="0" style="stop-color:#8A4791"/>
							<stop  offset="1" style="stop-color:#562E65"/>
						</linearGradient>
						<path fill-rule="evenodd" clip-rule="evenodd" fill="url(#SVGID_32_)" d="M804.047,735.229
							c-0.479-24.528,32.783-30.13,44.908-27.953c12.267,2.203,17.746,24.239,1.893,28.061
							C840.038,737.942,822.322,724.939,804.047,735.229z"/>
					</g>
				</g>
			</g>
		</g>
	</g>
	<g>
		<path opacity="0.3" fill-rule="evenodd" clip-rule="evenodd" fill="#9871D0" d="M378.454,695.685l-189.861,102.26
			c-1.043,1.615-1.054,3.24,1.25,4.495c17.585,9.562,243.825,142.312,261.683,152.023c3.376,1.838,8.318,2.503,13.503,2.071
			c5.165-0.429,10.458-1.94,14.628-4.355L655.34,850.498l-17.149-10.057L378.454,695.685z"/>
		<g>
			<polygon fill-rule="evenodd" clip-rule="evenodd" fill="#955CF1" points="392.728,694.901 636.387,836.507 628.236,846.593 
				386.089,698.747 			"/>
			<linearGradient id="SVGID_33_" gradientUnits="userSpaceOnUse" x1="374.6865" y1="866.3975" x2="409.708" y2="804.3597">
				<stop  offset="0" style="stop-color:#965CF2"/>
				<stop  offset="1" style="stop-color:#FF8ADC"/>
			</linearGradient>
			<path fill-rule="evenodd" clip-rule="evenodd" fill="url(#SVGID_33_)" d="M469.508,892.451
				c-9.872,13.222-21.206,42.386-12.891,52.427L212.976,803.271c-19.209-14.347,1.487-52.636,16.825-56.887l162.81-94.011
				l243.664,141.61l-13.153,10.357L469.508,892.451z"/>
			<path fill-rule="evenodd" clip-rule="evenodd" fill="#F4F9FF" d="M472.995,895.692l156.91-90.166l-0.157,34.801l-152.716,93.125
				c-11.72,6.816-18.659,2.448-19.976-5.526C455.391,917.841,462.126,901.991,472.995,895.692z"/>
			<path fill-rule="evenodd" clip-rule="evenodd" fill="#CC74E5" d="M456.524,905.902c4.333-7.539,10.325-14.107,16.942-17.933
				l162.809-93.986l0.022,12.652l-6.638,3.826l-156.171,90.164c-3.575,2.073-6.803,5.601-9.15,9.676
				c-2.353,4.105-3.805,8.667-3.805,12.772c0.021,4.102,1.499,6.982,3.847,8.341c2.378,1.36,5.626,1.154,9.198-0.923l156.169-90.165
				l6.639-3.82l0.048,12.652l-162.81,93.988c-6.617,3.827-12.631,4.171-17.008,1.73c-4.333-2.514-7.056-7.862-7.076-15.446
				C449.52,921.823,452.216,913.368,456.524,905.902z"/>
			<linearGradient id="SVGID_34_" gradientUnits="userSpaceOnUse" x1="510.3042" y1="944.0186" x2="498.6627" y2="916.197">
				<stop  offset="0" style="stop-color:#A77EF7"/>
				<stop  offset="1" style="stop-color:#5E65D6"/>
			</linearGradient>
			<path fill-rule="evenodd" clip-rule="evenodd" fill="url(#SVGID_34_)" d="M522.885,920.268v34.802l-11.487-6.914l-14.767,21.824
				v-34.294c-0.072-0.225-0.124-0.473-0.147-0.748c-0.753-9.411-8.827-20.873-14.898-22.556l26.901-15.858
				c6.478,1.794,14.586,13.956,14.389,23.75L522.885,920.268z"/>
		</g>
	</g>
</g>
<g>
	<linearGradient id="SVGID_35_" gradientUnits="userSpaceOnUse" x1="345.8027" y1="334.3232" x2="380.9219" y2="298.1958">
		<stop  offset="0" style="stop-color:#FA5DB1"/>
		<stop  offset="1" style="stop-color:#FEBFBF"/>
	</linearGradient>
	<path fill-rule="evenodd" clip-rule="evenodd" fill="url(#SVGID_35_)" d="M369.271,311.802c0,1.565-1.27,2.834-2.835,2.834
		c-1.565,0-2.833-1.269-2.833-2.834c0-0.991-0.398-1.881-1.04-2.521c-0.646-0.646-1.546-1.044-2.545-1.044
		c-1.002,0-1.903,0.399-2.548,1.044c-0.642,0.64-1.039,1.53-1.039,2.521c0,2.757,1.116,5.248,2.918,7.045
		c1.809,1.802,4.315,2.917,7.087,2.917c2.774,0,5.279-1.115,7.088-2.917c1.805-1.797,2.92-4.288,2.92-7.045
		c0-4.524-1.835-8.615-4.801-11.571c-2.969-2.96-7.082-4.792-11.626-4.792c-4.547,0-8.658,1.832-11.629,4.792
		c-2.965,2.956-4.799,7.046-4.799,11.571c0,6.292,2.552,11.981,6.681,16.095c4.132,4.118,9.849,6.666,16.167,6.666
		c6.321,0,12.036-2.548,16.168-6.666c4.126-4.113,6.681-9.803,6.681-16.095c0-8.059-3.271-15.349-8.562-20.62
		c-5.293-5.276-12.616-8.541-20.707-8.541c-8.092,0-15.415,3.264-20.709,8.541c-5.29,5.271-8.562,12.561-8.562,20.62
		c0,9.824,3.992,18.714,10.441,25.143c6.458,6.436,15.384,10.416,25.249,10.416c9.866,0,18.792-3.98,25.248-10.416
		c6.452-6.428,10.444-15.318,10.444-25.143c0-1.566,1.269-2.835,2.833-2.835c1.565,0,2.835,1.269,2.835,2.835
		c0,11.377-4.635,21.685-12.127,29.151c-7.485,7.46-17.821,12.075-29.233,12.075c-11.41,0-21.746-4.615-29.234-12.075
		c-7.49-7.466-12.125-17.773-12.125-29.151c0-9.612,3.916-18.319,10.245-24.627c6.324-6.302,15.056-10.202,24.694-10.202
		c9.637,0,18.369,3.899,24.691,10.202c6.33,6.308,10.245,15.015,10.245,24.627c0,7.844-3.196,14.951-8.364,20.102
		c-5.161,5.145-12.288,8.327-20.154,8.327c-7.864,0-14.99-3.182-20.152-8.327c-5.169-5.151-8.364-12.258-8.364-20.102
		c0-6.078,2.477-11.586,6.482-15.578c4-3.987,9.521-6.453,15.614-6.453c6.091,0,11.612,2.466,15.611,6.453
		c4.005,3.991,6.484,9.5,6.484,15.578c0,4.31-1.759,8.219-4.603,11.052c-2.837,2.829-6.754,4.578-11.073,4.578
		c-4.319,0-8.234-1.75-11.073-4.578c-2.842-2.833-4.602-6.742-4.602-11.052c0-2.544,1.04-4.853,2.722-6.53
		c1.677-1.669,3.987-2.703,6.534-2.703c2.544,0,4.855,1.034,6.531,2.703C368.23,306.949,369.271,309.259,369.271,311.802z"/>
	<linearGradient id="SVGID_36_" gradientUnits="userSpaceOnUse" x1="1431.6807" y1="201.9536" x2="1389.9661" y2="167.0322">
		<stop  offset="0" style="stop-color:#1C8EF4"/>
		<stop  offset="1" style="stop-color:#00CFDD"/>
	</linearGradient>
	<path fill-rule="evenodd" clip-rule="evenodd" fill="url(#SVGID_36_)" d="M1411.892,127.039l9.196,26.343
		c0.032,0.085,0.092,0.16,0.168,0.215c0.084,0.061,0.174,0.097,0.259,0.099l27.868,0.601c1.658,0.036,3.075,0.606,4.18,1.5
		c1.063,0.858,1.829,2.006,2.234,3.256c0.408,1.252,0.465,2.627,0.114,3.937c-0.369,1.376-1.186,2.672-2.508,3.677l-22.196,16.865
		l0.004,0.006c-0.078,0.06-0.136,0.143-0.164,0.232c-0.028,0.086-0.029,0.187,0.001,0.285l8.032,26.689
		c0.475,1.574,0.369,3.096-0.141,4.429c-0.489,1.274-1.346,2.357-2.415,3.132c-1.054,0.768-2.345,1.243-3.712,1.316
		c-1.435,0.075-2.919-0.295-4.271-1.232l0.004-0.006l-22.888-15.882c-0.072-0.052-0.169-0.078-0.271-0.078
		c-0.103,0-0.199,0.026-0.272,0.078l-22.923,15.891c-1.352,0.938-2.833,1.305-4.258,1.23c-1.366-0.071-2.654-0.549-3.714-1.318
		c-1.067-0.778-1.925-1.861-2.412-3.132c-0.51-1.338-0.616-2.865-0.141-4.441l8.054-26.685c0.029-0.097,0.029-0.194,0.004-0.275
		c-0.031-0.097-0.086-0.18-0.154-0.233l-22.202-16.869c-1.323-1.006-2.136-2.302-2.505-3.678c-0.352-1.309-0.295-2.683,0.112-3.936
		c0.409-1.259,1.17-2.406,2.222-3.256l0.006,0.007c1.113-0.899,2.534-1.472,4.186-1.508l27.869-0.601
		c0.085-0.002,0.177-0.039,0.26-0.099c0.076-0.056,0.136-0.13,0.167-0.215l9.195-26.343c0.544-1.557,1.53-2.729,2.729-3.51
		c1.146-0.745,2.471-1.121,3.777-1.121s2.63,0.374,3.777,1.122C1410.364,124.312,1411.349,125.482,1411.892,127.039
		L1411.892,127.039z M1415.025,155.497l-9.198-26.344c-0.042-0.118-0.099-0.197-0.16-0.237c-0.067-0.043-0.166-0.066-0.28-0.066
		s-0.216,0.023-0.28,0.065c-0.062,0.041-0.12,0.12-0.162,0.238l-9.197,26.344c-0.475,1.363-1.345,2.504-2.456,3.309
		c-1.104,0.803-2.458,1.275-3.906,1.307l-27.869,0.603c-0.12,0.002-0.21,0.032-0.267,0.079v0.013
		c-0.073,0.059-0.129,0.143-0.158,0.236c-0.031,0.097-0.037,0.199-0.014,0.288c0.021,0.08,0.077,0.161,0.167,0.229l22.202,16.87
		c1.153,0.877,1.971,2.056,2.394,3.354c0.425,1.315,0.462,2.751,0.047,4.125l-8.055,26.684c-0.035,0.123-0.035,0.222-0.01,0.29
		c0.031,0.081,0.094,0.156,0.173,0.214c0.09,0.066,0.185,0.106,0.266,0.111c0.079,0.003,0.177-0.027,0.284-0.101l22.92-15.891
		c1.188-0.823,2.559-1.234,3.922-1.234c1.362,0,2.733,0.411,3.92,1.234l22.896,15.889h0.013c0.105,0.074,0.198,0.104,0.269,0.102
		h0.013c0.074-0.004,0.164-0.044,0.254-0.109c0.081-0.058,0.143-0.134,0.174-0.212c0.028-0.074,0.029-0.177-0.008-0.302
		l-8.035-26.689c-0.412-1.37-0.375-2.803,0.05-4.109c0.425-1.305,1.239-2.484,2.379-3.354h0.015l22.203-16.871
		c0.091-0.068,0.146-0.15,0.167-0.229c0.024-0.089,0.02-0.191-0.013-0.288c-0.034-0.1-0.083-0.185-0.146-0.236
		c-0.066-0.054-0.161-0.089-0.279-0.091l-27.869-0.603c-1.451-0.031-2.805-0.505-3.908-1.307
		C1416.371,158,1415.5,156.859,1415.025,155.497z"/>
	<linearGradient id="SVGID_37_" gradientUnits="userSpaceOnUse" x1="891.2642" y1="1224.9717" x2="915.9522" y2="1173.1611">
		<stop  offset="0" style="stop-color:#1C8EF4"/>
		<stop  offset="1" style="stop-color:#00CFDD"/>
	</linearGradient>
	<path fill-rule="evenodd" clip-rule="evenodd" fill="url(#SVGID_37_)" d="M905.39,1202.026c-0.778,1.357-2.513,1.826-3.87,1.048
		c-1.355-0.781-1.825-2.514-1.045-3.871c0.493-0.857,0.594-1.829,0.355-2.702c-0.24-0.883-0.821-1.677-1.688-2.176
		c-0.867-0.498-1.847-0.602-2.729-0.363c-0.876,0.233-1.665,0.81-2.157,1.667c-1.374,2.392-1.647,5.106-0.979,7.564
		c0.67,2.463,2.287,4.681,4.692,6.061c2.403,1.383,5.133,1.664,7.6,1.002c2.46-0.659,4.667-2.266,6.04-4.655
		c2.255-3.922,2.702-8.381,1.604-12.423c-1.101-4.046-3.753-7.684-7.694-9.949c-3.942-2.265-8.418-2.724-12.47-1.636
		c-4.045,1.083-7.672,3.716-9.926,7.641c-3.136,5.454-3.757,11.659-2.228,17.28c1.531,5.632,5.22,10.688,10.697,13.836
		c5.479,3.15,11.704,3.79,17.341,2.278c5.628-1.512,10.676-5.175,13.812-10.627c4.014-6.988,4.81-14.939,2.85-22.146
		c-1.962-7.213-6.685-13.691-13.701-17.72c-7.016-4.033-14.991-4.851-22.209-2.915c-7.213,1.936-13.683,6.626-17.697,13.612
		c-4.895,8.521-5.862,18.214-3.473,27.004c2.393,8.795,8.149,16.695,16.703,21.608c8.553,4.917,18.276,5.911,27.079,3.549
		c8.798-2.358,16.686-8.079,21.582-16.598c0.778-1.357,2.513-1.824,3.87-1.045c1.355,0.781,1.823,2.514,1.045,3.871
		c-5.67,9.865-14.822,16.491-25.037,19.233c-10.208,2.74-21.47,1.591-31.364-4.094c-9.894-5.686-16.556-14.838-19.331-25.036
		c-2.773-10.205-1.657-21.451,4.013-31.316c4.788-8.333,12.521-13.932,21.151-16.248c8.624-2.313,18.136-1.345,26.493,3.458
		c8.355,4.802,13.983,12.531,16.327,21.146c2.346,8.622,1.402,18.125-3.388,26.458c-3.907,6.802-10.221,11.37-17.267,13.263
		c-7.039,1.888-14.803,1.096-21.622-2.821c-6.82-3.919-11.413-10.228-13.324-17.26c-1.915-7.042-1.146-14.797,2.763-21.599
		c3.027-5.269,7.921-8.81,13.383-10.276c5.455-1.464,11.469-0.853,16.751,2.185c5.282,3.034,8.841,7.925,10.322,13.374
		c1.485,5.456,0.89,11.466-2.14,16.737c-2.147,3.736-5.62,6.248-9.498,7.288c-3.869,1.04-8.137,0.606-11.882-1.547
		c-3.744-2.151-6.266-5.619-7.318-9.485c-1.055-3.874-0.632-8.138,1.515-11.877c1.268-2.205,3.32-3.688,5.613-4.306
		c2.286-0.611,4.804-0.357,7.012,0.911s3.696,3.315,4.317,5.602C906.905,1197.301,906.656,1199.822,905.39,1202.026z"/>
	<linearGradient id="SVGID_38_" gradientUnits="userSpaceOnUse" x1="185.0566" y1="976.8965" x2="71.772" y2="1013.7233">
		<stop  offset="0" style="stop-color:#A77EF7"/>
		<stop  offset="1" style="stop-color:#5E65D6"/>
	</linearGradient>
	<path fill-rule="evenodd" clip-rule="evenodd" fill="url(#SVGID_38_)" d="M122.433,995.723c2.003,2.002,4.647,3.004,7.295,3.004
		c2.647,0,5.292-1.002,7.293-3.004c6.973-6.973,13.85-14.049,20.836-21.035c3.672-3.672,8.51-5.509,13.342-5.509
		s9.669,1.837,13.341,5.509c6.969,6.966,13.677,14.131,20.58,21.035c2.003,2.002,4.647,3.004,7.294,3.004
		c2.647,0,5.293-1.002,7.295-3.004l15.049-15.051c1.669-1.669,4.377-1.669,6.048,0c1.669,1.669,1.669,4.379,0,6.048l-15.05,15.051
		c-3.673,3.673-8.509,5.51-13.342,5.51c-4.833,0-9.669-1.837-13.342-5.51c-6.966-6.969-13.675-14.131-20.58-21.035
		c-2.001-2.002-4.646-3.004-7.293-3.004c-2.648,0-5.292,1.002-7.294,3.004c-6.98,6.979-13.775,13.974-20.836,21.035
		c-3.672,3.673-8.507,5.51-13.341,5.51c-4.834,0-9.669-1.837-13.341-5.51c-7.025-7.024-14.09-14.007-21.12-21.035
		c-2.001-2.002-4.646-3.004-7.293-3.004s-5.292,1.002-7.294,3.004L65.63,995.786c-1.67,1.669-4.377,1.669-6.048,0
		c-1.669-1.672-1.669-4.379,0-6.048l15.049-15.051c3.673-3.672,8.51-5.509,13.342-5.509s9.669,1.837,13.342,5.509
		C108.343,981.715,115.375,988.663,122.433,995.723z"/>
</g>
</svg>
