<?xml version="1.0" encoding="utf-8"?>
<!-- Generator: Adobe Illustrator 24.1.1, SVG Export Plug-In . SVG Version: 6.00 Build 0)  -->
<svg version="1.1" id="Layer_1" xmlns="http://www.w3.org/2000/svg" xmlns:xlink="http://www.w3.org/1999/xlink" x="0px" y="0px"
	 viewBox="0 0 81.2 87" style="enable-background:new 0 0 81.2 87;" xml:space="preserve">
<style type="text/css">
	.st0{fill:#FFFFFF;}
</style>
<g>
	<path class="st0" d="M43,58.7"/>
	<circle class="st0" cx="48" cy="56.3" r="0.5"/>
	<path class="st0" d="M51.8,53.1c-0.5,0-0.9-0.4-0.9-0.9c0-0.5,0.4-0.9,0.9-0.9s0.9,0.4,0.9,0.9C52.7,52.7,52.3,53.1,51.8,53.1z"/>
	<circle class="st0" cx="53.8" cy="47" r="1.2"/>
	<circle class="st0" cx="53.7" cy="41.4" r="1.4"/>
	<circle class="st0" cx="51.4" cy="36.3" r="1.5"/>
	<circle class="st0" cx="47.5" cy="32.3" r="1.6"/>
	<circle class="st0" cx="42.3" cy="30.2" r="1.7"/>
	<circle class="st0" cx="36.7" cy="30.2" r="1.7"/>
	<circle class="st0" cx="31.6" cy="32.4" r="1.6"/>
	<circle class="st0" cx="27.6" cy="36.3" r="1.5"/>
	<circle class="st0" cx="25.4" cy="41.5" r="1.4"/>
	<circle class="st0" cx="25.3" cy="47" r="1.2"/>
	<circle class="st0" cx="27.3" cy="52.3" r="0.9"/>
	<path class="st0" d="M31.1,56.9c-0.3,0-0.5-0.2-0.5-0.5s0.2-0.5,0.5-0.5s0.5,0.2,0.5,0.5C31.6,56.6,31.4,56.9,31.1,56.9z"/>
	<path class="st0" d="M36.2,58.7"/>
	<path class="st0" d="M41.3,51.6"/>
	<circle class="st0" cx="44.6" cy="49.7" r="0.5"/>
	<circle class="st0" cx="46.5" cy="46.5" r="0.9"/>
	<circle class="st0" cx="46.5" cy="42.7" r="1.2"/>
	<circle class="st0" cx="44.7" cy="39.4" r="1.3"/>
	<circle class="st0" cx="41.4" cy="37.5" r="1.4"/>
	<circle class="st0" cx="37.6" cy="37.5" r="1.4"/>
	<circle class="st0" cx="34.4" cy="39.5" r="1.3"/>
	<circle class="st0" cx="32.5" cy="42.8" r="1.2"/>
	<circle class="st0" cx="32.6" cy="46.6" r="0.9"/>
	<path class="st0" d="M34.6,50.3c-0.3,0-0.5-0.2-0.5-0.5s0.2-0.5,0.5-0.5c0.3,0,0.5,0.2,0.5,0.5S34.9,50.3,34.6,50.3z"/>
	<path class="st0" d="M37.9,51.6"/>
	<path class="st0" d="M44.7,65.8"/>
	<path class="st0" d="M50,64.1c-0.2,0-0.4-0.2-0.4-0.4s0.2-0.4,0.4-0.4s0.4,0.2,0.4,0.4S50.2,64.1,50,64.1z"/>
	<path class="st0" d="M54.6,61c-0.4,0-0.7-0.3-0.7-0.7s0.3-0.7,0.7-0.7s0.7,0.3,0.7,0.7S55,61,54.6,61z"/>
	<path class="st0" d="M58.1,56.8c-0.5,0-1-0.5-1-1s0.5-1,1-1s1,0.5,1,1C59.1,56.3,58.7,56.8,58.1,56.8z"/>
	<circle class="st0" cx="60.4" cy="50.5" r="1.2"/>
	<circle class="st0" cx="61.2" cy="44.8" r="1.4"/>
	<circle class="st0" cx="60.5" cy="39.1" r="1.6"/>
	<circle class="st0" cx="58.4" cy="33.8" r="1.7"/>
	<circle class="st0" cx="55" cy="29.2" r="1.8"/>
	<ellipse class="st0" cx="50.5" cy="25.6" rx="1.9" ry="1.9"/>
	<circle class="st0" cx="45.2" cy="23.4" r="1.9"/>
	<circle class="st0" cx="39.5" cy="22.6" r="1.9"/>
	<circle class="st0" cx="33.9" cy="23.4" r="1.9"/>
	<circle class="st0" cx="28.6" cy="25.7" r="1.9"/>
	<circle class="st0" cx="24.1" cy="29.2" r="1.8"/>
	<circle class="st0" cx="20.7" cy="33.8" r="1.7"/>
	<circle class="st0" cx="18.6" cy="39.1" r="1.6"/>
	<circle class="st0" cx="17.9" cy="44.8" r="1.4"/>
	<circle class="st0" cx="18.7" cy="50.5" r="1.2"/>
	<circle class="st0" cx="21" cy="55.8" r="1"/>
	<path class="st0" d="M24.5,61c-0.4,0-0.7-0.3-0.7-0.7s0.3-0.7,0.7-0.7s0.7,0.3,0.7,0.7S24.9,61,24.5,61z"/>
	<circle class="st0" cx="29.1" cy="63.7" r="0.4"/>
	<path class="st0" d="M34.5,65.8"/>
	<path class="st0" d="M46.4,72.9"/>
	<path class="st0" d="M51.8,71.3c-0.2,0-0.4-0.2-0.4-0.4s0.2-0.4,0.4-0.4s0.4,0.2,0.4,0.4C52.2,71.2,52,71.3,51.8,71.3z"/>
	<path class="st0" d="M56.8,68.6c-0.4,0-0.7-0.3-0.7-0.7s0.3-0.7,0.7-0.7s0.7,0.3,0.7,0.7C57.4,68.3,57.2,68.6,56.8,68.6z"/>
	<path class="st0" d="M61.1,64.9c-0.5,0-0.9-0.4-0.9-0.9s0.4-0.9,0.9-0.9S62,63.5,62,64S61.5,64.9,61.1,64.9z"/>
	<circle class="st0" cx="64.5" cy="59.3" r="1.1"/>
	<circle class="st0" cx="66.9" cy="54" r="1.3"/>
	<circle class="st0" cx="68.2" cy="48.3" r="1.5"/>
	<path class="st0" d="M68.3,44.2c-0.9,0-1.7-0.7-1.7-1.7s0.7-1.7,1.7-1.7s1.7,0.7,1.7,1.7S69.3,44.2,68.3,44.2z"/>
	<circle class="st0" cx="67.4" cy="36.8" r="1.8"/>
	<circle class="st0" cx="65.3" cy="31.4" r="1.9"/>
	<circle class="st0" cx="62.2" cy="26.5" r="2"/>
	<circle class="st0" cx="58.2" cy="22.3" r="2"/>
	<circle class="st0" cx="53.5" cy="19" r="2.1"/>
	<circle class="st0" cx="48.1" cy="16.7" r="2.1"/>
	<ellipse class="st0" cx="42.4" cy="15.5" rx="2.2" ry="2.2"/>
	<circle class="st0" cx="36.6" cy="15.5" r="2.2"/>
	<circle class="st0" cx="31" cy="16.7" r="2.1"/>
	<circle class="st0" cx="25.6" cy="19" r="2.1"/>
	<circle class="st0" cx="20.9" cy="22.3" r="2.1"/>
	<circle class="st0" cx="16.9" cy="26.5" r="2"/>
	<circle class="st0" cx="13.8" cy="31.4" r="1.9"/>
	<circle class="st0" cx="11.7" cy="36.8" r="1.8"/>
	<circle class="st0" cx="10.7" cy="42.6" r="1.7"/>
	<circle class="st0" cx="10.9" cy="48.4" r="1.5"/>
	<circle class="st0" cx="12.2" cy="54" r="1.3"/>
	<circle class="st0" cx="14.6" cy="59.3" r="1.1"/>
	<circle class="st0" cx="18" cy="64" r="0.9"/>
	<path class="st0" d="M22.3,68.6c-0.4,0-0.7-0.3-0.7-0.7c0-0.4,0.3-0.7,0.7-0.7c0.4,0,0.7,0.3,0.7,0.7C23,68.3,22.7,68.6,22.3,68.6z
		"/>
	<path class="st0" d="M27.3,71.3c-0.2,0-0.4-0.2-0.4-0.4s0.2-0.4,0.4-0.4s0.4,0.2,0.4,0.4C27.6,71.2,27.5,71.3,27.3,71.3z"/>
	<path class="st0" d="M32.8,72.9"/>
</g>
</svg>
