<?xml version="1.0" encoding="utf-8"?>
<!-- Generator: Adobe Illustrator 24.1.1, SVG Export Plug-In . SVG Version: 6.00 Build 0)  -->
<svg version="1.1" id="Layer_1" xmlns="http://www.w3.org/2000/svg" xmlns:xlink="http://www.w3.org/1999/xlink" x="0px" y="0px"
	 viewBox="0 0 296 87" style="enable-background:new 0 0 296 87;" xml:space="preserve">
<style type="text/css">
	.st0{fill:#91A7C9;}
</style>
<g>
	<path class="st0" d="M42,62.7"/>
	<circle class="st0" cx="47" cy="60.3" r="0.5"/>
	<path class="st0" d="M50.8,57.1c-0.5,0-0.9-0.4-0.9-0.9c0-0.5,0.4-0.9,0.9-0.9s0.9,0.4,0.9,0.9C51.7,56.7,51.3,57.1,50.8,57.1z"/>
	<circle class="st0" cx="52.8" cy="51" r="1.2"/>
	<circle class="st0" cx="52.7" cy="45.4" r="1.4"/>
	<circle class="st0" cx="50.4" cy="40.3" r="1.5"/>
	<circle class="st0" cx="46.5" cy="36.3" r="1.6"/>
	<circle class="st0" cx="41.3" cy="34.2" r="1.7"/>
	<circle class="st0" cx="35.7" cy="34.2" r="1.7"/>
	<circle class="st0" cx="30.6" cy="36.4" r="1.6"/>
	<circle class="st0" cx="26.6" cy="40.3" r="1.5"/>
	<circle class="st0" cx="24.4" cy="45.5" r="1.4"/>
	<circle class="st0" cx="24.3" cy="51" r="1.2"/>
	<circle class="st0" cx="26.3" cy="56.3" r="0.9"/>
	<path class="st0" d="M30.1,60.9c-0.3,0-0.5-0.2-0.5-0.5s0.2-0.5,0.5-0.5s0.5,0.2,0.5,0.5C30.6,60.6,30.4,60.9,30.1,60.9z"/>
	<path class="st0" d="M35.2,62.7"/>
	<path class="st0" d="M40.3,55.6"/>
	<circle class="st0" cx="43.6" cy="53.7" r="0.5"/>
	<circle class="st0" cx="45.5" cy="50.5" r="0.9"/>
	<circle class="st0" cx="45.5" cy="46.7" r="1.2"/>
	<circle class="st0" cx="43.7" cy="43.4" r="1.3"/>
	<circle class="st0" cx="40.4" cy="41.5" r="1.4"/>
	<circle class="st0" cx="36.6" cy="41.5" r="1.4"/>
	<circle class="st0" cx="33.4" cy="43.5" r="1.3"/>
	<circle class="st0" cx="31.5" cy="46.8" r="1.2"/>
	<circle class="st0" cx="31.6" cy="50.6" r="0.9"/>
	<path class="st0" d="M33.6,54.3c-0.3,0-0.5-0.2-0.5-0.5s0.2-0.5,0.5-0.5c0.3,0,0.5,0.2,0.5,0.5S33.9,54.3,33.6,54.3z"/>
	<path class="st0" d="M36.9,55.6"/>
	<path class="st0" d="M43.7,69.8"/>
	<path class="st0" d="M49,68.1c-0.2,0-0.4-0.2-0.4-0.4s0.2-0.4,0.4-0.4s0.4,0.2,0.4,0.4S49.2,68.1,49,68.1z"/>
	<path class="st0" d="M53.6,65c-0.4,0-0.7-0.3-0.7-0.7s0.3-0.7,0.7-0.7s0.7,0.3,0.7,0.7S54,65,53.6,65z"/>
	<path class="st0" d="M57.1,60.8c-0.5,0-1-0.5-1-1s0.5-1,1-1s1,0.5,1,1C58.1,60.3,57.7,60.8,57.1,60.8z"/>
	<circle class="st0" cx="59.4" cy="54.5" r="1.2"/>
	<circle class="st0" cx="60.2" cy="48.8" r="1.4"/>
	<circle class="st0" cx="59.5" cy="43.1" r="1.6"/>
	<circle class="st0" cx="57.4" cy="37.8" r="1.7"/>
	<circle class="st0" cx="54" cy="33.2" r="1.8"/>
	<ellipse class="st0" cx="49.5" cy="29.6" rx="1.9" ry="1.9"/>
	<circle class="st0" cx="44.2" cy="27.4" r="1.9"/>
	<circle class="st0" cx="38.5" cy="26.6" r="1.9"/>
	<circle class="st0" cx="32.9" cy="27.4" r="1.9"/>
	<circle class="st0" cx="27.6" cy="29.7" r="1.9"/>
	<circle class="st0" cx="23.1" cy="33.2" r="1.8"/>
	<circle class="st0" cx="19.7" cy="37.8" r="1.7"/>
	<circle class="st0" cx="17.6" cy="43.1" r="1.6"/>
	<circle class="st0" cx="16.9" cy="48.8" r="1.4"/>
	<circle class="st0" cx="17.7" cy="54.5" r="1.2"/>
	<circle class="st0" cx="20" cy="59.8" r="1"/>
	<path class="st0" d="M23.5,65c-0.4,0-0.7-0.3-0.7-0.7s0.3-0.7,0.7-0.7s0.7,0.3,0.7,0.7C24.2,64.7,23.9,65,23.5,65z"/>
	<circle class="st0" cx="28.1" cy="67.7" r="0.4"/>
	<path class="st0" d="M33.5,69.8"/>
	<path class="st0" d="M45.4,76.9"/>
	<path class="st0" d="M50.8,75.3c-0.2,0-0.4-0.2-0.4-0.4s0.2-0.4,0.4-0.4s0.4,0.2,0.4,0.4C51.2,75.2,51,75.3,50.8,75.3z"/>
	<path class="st0" d="M55.8,72.6c-0.4,0-0.7-0.3-0.7-0.7s0.3-0.7,0.7-0.7s0.7,0.3,0.7,0.7C56.4,72.3,56.2,72.6,55.8,72.6z"/>
	<path class="st0" d="M60.1,68.9c-0.5,0-0.9-0.4-0.9-0.9s0.4-0.9,0.9-0.9S61,67.5,61,68S60.5,68.9,60.1,68.9z"/>
	<circle class="st0" cx="63.5" cy="63.3" r="1.1"/>
	<circle class="st0" cx="65.9" cy="58" r="1.3"/>
	<circle class="st0" cx="67.2" cy="52.3" r="1.5"/>
	<path class="st0" d="M67.3,48.2c-0.9,0-1.7-0.7-1.7-1.7s0.7-1.7,1.7-1.7s1.7,0.7,1.7,1.7S68.3,48.2,67.3,48.2z"/>
	<circle class="st0" cx="66.4" cy="40.8" r="1.8"/>
	<circle class="st0" cx="64.3" cy="35.4" r="1.9"/>
	<circle class="st0" cx="61.2" cy="30.5" r="2"/>
	<circle class="st0" cx="57.2" cy="26.3" r="2"/>
	<circle class="st0" cx="52.5" cy="23" r="2.1"/>
	<circle class="st0" cx="47.1" cy="20.7" r="2.1"/>
	<ellipse class="st0" cx="41.4" cy="19.5" rx="2.2" ry="2.2"/>
	<circle class="st0" cx="35.6" cy="19.5" r="2.2"/>
	<circle class="st0" cx="30" cy="20.7" r="2.1"/>
	<circle class="st0" cx="24.6" cy="23" r="2.1"/>
	<circle class="st0" cx="19.9" cy="26.3" r="2.1"/>
	<circle class="st0" cx="15.9" cy="30.5" r="2"/>
	<circle class="st0" cx="12.8" cy="35.4" r="1.9"/>
	<circle class="st0" cx="10.7" cy="40.8" r="1.8"/>
	<circle class="st0" cx="9.7" cy="46.6" r="1.7"/>
	<circle class="st0" cx="9.9" cy="52.4" r="1.5"/>
	<circle class="st0" cx="11.2" cy="58" r="1.3"/>
	<circle class="st0" cx="13.6" cy="63.3" r="1.1"/>
	<circle class="st0" cx="17" cy="68" r="0.9"/>
	<path class="st0" d="M21.3,72.6c-0.4,0-0.7-0.3-0.7-0.7c0-0.4,0.3-0.7,0.7-0.7c0.4,0,0.7,0.3,0.7,0.7C22,72.3,21.7,72.6,21.3,72.6z
		"/>
	<path class="st0" d="M26.3,75.3c-0.2,0-0.4-0.2-0.4-0.4s0.2-0.4,0.4-0.4s0.4,0.2,0.4,0.4C26.6,75.2,26.5,75.3,26.3,75.3z"/>
	<path class="st0" d="M31.8,76.9"/>
</g>
<path class="st0" d="M87.8,16.1h7.8v25.1h16.8v5.8H87.8V16.1z"/>
<g>
	<g>
		<path class="st0" d="M96.1,54.4l7.3,16.6h-1.7l-2.5-5.5h-6.7L90.1,71h-1.7l7.4-16.7L96.1,54.4L96.1,54.4z M95.9,57.9l-2.7,6h5.3
			L95.9,57.9z"/>
		<path class="st0" d="M112,54.4h1.6v10.1c0,1.2,0,1.9,0.1,2.2c0.1,0.7,0.3,1.2,0.5,1.7s0.7,0.8,1.3,1.1s1.2,0.4,1.8,0.4
			c0.5,0,1-0.1,1.5-0.3c0.5-0.2,0.9-0.6,1.2-1s0.6-0.9,0.7-1.5c0.1-0.4,0.2-1.3,0.2-2.6V54.4h1.6v10.1c0,1.5-0.1,2.7-0.4,3.6
			s-0.8,1.7-1.6,2.4s-1.8,1-3,1c-1.3,0-2.3-0.3-3.2-1s-1.5-1.5-1.8-2.6c-0.2-0.7-0.3-1.8-0.3-3.5L112,54.4L112,54.4z"/>
		<path class="st0" d="M130.8,56v-1.6h8.6V56h-3.5v15h-1.6V56H130.8z"/>
		<path class="st0" d="M155.3,53.9c2.4,0,4.4,0.8,5.9,2.5s2.4,3.8,2.4,6.2c0,2.4-0.8,4.5-2.4,6.2s-3.5,2.6-5.8,2.6
			c-2.3,0-4.3-0.8-5.9-2.5c-1.6-1.7-2.4-3.7-2.4-6.1c0-1.6,0.4-3.1,1.1-4.5s1.7-2.4,3-3.2C152.4,54.3,153.8,53.9,155.3,53.9z
			 M155.3,55.6c-1.2,0-2.3,0.3-3.3,1s-1.8,1.5-2.4,2.6c-0.6,1.1-0.9,2.3-0.9,3.6c0,2,0.6,3.7,1.9,5s2.8,2,4.6,2
			c1.2,0,2.3-0.3,3.4-0.9s1.8-1.5,2.4-2.6c0.6-1.1,0.9-2.3,0.9-3.6c0-1.3-0.3-2.5-0.9-3.6c-0.6-1.1-1.4-1.9-2.4-2.6
			S156.5,55.6,155.3,55.6z"/>
		<path class="st0" d="M172.2,71l2.2-16.7h0.3L181,68l6.3-13.7h0.3l2.2,16.7h-1.5l-1.5-11.9L181.2,71h-0.4l-5.6-12l-1.5,12H172.2z"
			/>
		<path class="st0" d="M205.4,54.4l7.3,16.6H211l-2.5-5.5h-6.7l-2.4,5.5h-1.7l7.4-16.7L205.4,54.4L205.4,54.4z M205.2,57.9l-2.7,6
			h5.3L205.2,57.9z"/>
		<path class="st0" d="M219.7,56v-1.6h8.6V56h-3.5v15h-1.6V56H219.7z"/>
		<path class="st0" d="M236.5,54.4h1.6V71h-1.6V54.4z"/>
		<path class="st0" d="M255.2,53.9c2.4,0,4.3,0.8,5.9,2.5s2.4,3.8,2.4,6.2c0,2.4-0.8,4.5-2.4,6.2c-1.6,1.7-3.5,2.6-5.8,2.6
			c-2.3,0-4.3-0.8-5.9-2.5c-1.6-1.7-2.4-3.7-2.4-6.1c0-1.6,0.4-3.1,1.1-4.5s1.7-2.4,3-3.2S253.8,53.9,255.2,53.9z M255.3,55.6
			c-1.2,0-2.3,0.3-3.3,1s-1.8,1.5-2.4,2.6c-0.6,1.1-0.9,2.3-0.9,3.6c0,2,0.6,3.7,1.9,5s2.8,2,4.6,2c1.2,0,2.3-0.3,3.4-0.9
			c1-0.6,1.8-1.5,2.4-2.6c0.6-1.1,0.9-2.3,0.9-3.6c0-1.3-0.3-2.5-0.9-3.6c-0.6-1.1-1.4-1.9-2.4-2.6
			C257.6,55.9,256.5,55.6,255.3,55.6z"/>
		<path class="st0" d="M272.9,71V54.4h0.3l10.4,12.8V54.4h1.5V71h-0.4l-10.3-12.6V71H272.9z"/>
	</g>
</g>
<path class="st0" d="M116.8,16.1h7.8v31h-7.8V16.1z"/>
<path class="st0" d="M163,47.1L163,28.5l-9.9,15.3h-3.5l-9.8-14.9v18.2h-7.3v-31h6.4l12.6,19.2l12.4-19.2h6.4l0.1,31
	C170.3,47.1,163,47.1,163,47.1z"/>
<path class="st0" d="M208.8,47.1l-0.1-18.6l-9.9,15.3h-3.5l-9.8-14.9v18.2h-7.3v-31h6.4l12.6,19.2l12.4-19.2h6.4l0.1,31
	C216.1,47.1,208.8,47.1,208.8,47.1z"/>
<rect x="222.8" y="16.1" class="st0" width="25.4" height="5.8"/>
<rect x="222.8" y="28.6" class="st0" width="16.6" height="5.8"/>
<rect x="222.8" y="41.3" class="st0" width="25.4" height="5.8"/>
<polygon class="st0" points="284.7,16.1 277.1,26.1 268.6,37.2 259.1,26.1 250.6,16.1 259.7,16.1 268.1,26.1 276,16.1 "/>
<path class="st0" d="M286,47.1h-9c-0.5-0.6-5.7-6.8-7-8.3l4.2-5.5L286,47.1z"/>
<polygon class="st0" points="267.3,38.9 261,47.1 252.1,47.1 262.6,33.5 "/>
</svg>
