<?xml version="1.0" encoding="utf-8"?>
<!-- Generator: Adobe Illustrator 24.1.1, SVG Export Plug-In . SVG Version: 6.00 Build 0)  -->
<svg version="1.1" id="Layer_1" xmlns="http://www.w3.org/2000/svg" xmlns:xlink="http://www.w3.org/1999/xlink" x="0px" y="0px"
	 viewBox="0 0 176 181" style="enable-background:new 0 0 176 181;" xml:space="preserve">
<style type="text/css">
	.st0{fill:#E34D25;}
	.st1{fill:#EE6528;}
	.st2{fill:#EBEBEB;}
	.st3{fill:#FFFFFF;}
	.st4{fill:#1F62AE;}
	.st5{fill:#3C9BD5;}
	.st6{fill:url(#SVGID_1_);}
	.st7{fill:url(#SVGID_2_);}
	.st8{fill:url(#SVGID_3_);}
	.st9{opacity:5.000000e-02;}
	.st10{fill:#231F20;}
	.st11{fill:url(#SVGID_4_);}
	.st12{opacity:5.000000e-02;fill:#231F20;}
	.st13{fill-rule:evenodd;clip-rule:evenodd;fill:#00B4F0;}
	.st14{fill:none;stroke:#00B4F0;stroke-width:10;stroke-miterlimit:10;}
	.st15{fill:#00B49C;}
	.st16{fill:#416579;}
	.st17{fill:#D95857;}
	.st18{fill:#B75151;}
	.st19{fill:#5AA862;}
	.st20{clip-path:url(#SVGID_6_);}
	.st21{fill:#00749A;}
	.st22{fill:#464342;}
	.st23{fill:#001E36;}
	.st24{fill:#31A8FF;}
	.st25{fill:#330000;}
	.st26{fill:#FF9A00;}
	.st27{fill:#00005B;}
	.st28{fill:#9999FF;}
	.st29{clip-path:url(#SVGID_8_);}
	.st30{clip-path:url(#SVGID_10_);fill:#536B7F;}
	.st31{clip-path:url(#SVGID_10_);fill:#F87329;}
	.st32{clip-path:url(#SVGID_10_);fill-rule:evenodd;clip-rule:evenodd;fill:#F87329;}
	.st33{clip-path:url(#SVGID_10_);fill-rule:evenodd;clip-rule:evenodd;fill:#536B7F;}
	.st34{fill:#00C492;}
	.st35{fill:#008776;}
	.st36{fill:#2D4A5D;}
	.st37{fill:url(#SVGID_11_);}
	.st38{fill:#6181B6;}
	.st39{fill:#000004;}
	.st40{fill:#F7DF1E;}
	.st41{fill-rule:evenodd;clip-rule:evenodd;fill:#1A1918;}
	.st42{fill-rule:evenodd;clip-rule:evenodd;fill:#21609B;}
	.st43{fill:#47C5FB;}
	.st44{fill:#00569E;}
	.st45{fill:#00B5F8;}
	.st46{fill:url(#SVGID_12_);fill-opacity:0.8;}
	.st47{fill:#470137;}
	.st48{fill:#FF61F6;}
	.st49{fill:#0ACF83;}
	.st50{fill:#A259FF;}
	.st51{fill:#F24E1E;}
	.st52{fill:#FF7262;}
	.st53{fill:#1ABCFE;}
	.st54{fill:#FDB300;}
	.st55{fill:#EB6C00;}
	.st56{fill:#FDAD00;}
	.st57{fill:#FDD231;}
	.st58{fill:#FEEEB7;}
	.st59{fill:#563D7C;}
</style>
<g transform="matrix(1.000000125 0 0 1.000000125 159.9999625 83.00005)">
	<path class="st47" d="M-111.7-52.6h83.2c12.6,0,22.8,10.2,22.8,22.8v80c0,12.6-10.2,22.8-22.8,22.8h-83.2
		c-12.6,0-22.8-10.2-22.8-22.8v-80C-134.5-42.4-124.3-52.6-111.7-52.6z"/>
	<g>
		<path class="st48" d="M-66.7-19.6L-82.8,7l17.2,28.2c0.1,0.2,0.2,0.4,0.1,0.6c-0.1,0.2-0.3,0.1-0.6,0.1h-12.3
			c-0.9,0-1.4-0.1-1.8-0.6c-1.1-2.3-2.3-4.5-3.4-6.7c-1.1-2.2-2.4-4.5-3.7-6.8s-2.6-4.6-3.9-7h-0.1c-1.1,2.3-2.4,4.6-3.6,6.9
			c-1.2,2.3-2.5,4.6-3.7,6.9c-1.2,2.3-2.5,4.6-3.7,6.8c-0.2,0.5-0.6,0.6-1.2,0.6h-11.8c-0.2,0-0.4,0.1-0.4-0.2
			c-0.1-0.2,0-0.4,0.1-0.6l16.7-27.4l-16.3-27.5c-0.2-0.2-0.2-0.4-0.1-0.5c0.1-0.2,0.3-0.2,0.5-0.2h12.2c0.3,0,0.5,0.1,0.8,0.1
			c0.2,0.1,0.4,0.3,0.5,0.5c1,2.3,2.2,4.6,3.4,6.9c1.3,2.3,2.5,4.6,3.9,6.8c1.3,2.3,2.5,4.5,3.6,6.8h0.1c1.1-2.4,2.3-4.7,3.5-6.9
			c1.2-2.3,2.4-4.5,3.7-6.8c1.2-2.3,2.4-4.6,3.6-6.8c0.1-0.2,0.2-0.4,0.3-0.5c0.2-0.1,0.4-0.2,0.7-0.1h11.3c0.3-0.1,0.5,0.1,0.6,0.4
			C-66.5-19.9-66.6-19.7-66.7-19.6L-66.7-19.6z"/>
		<path class="st48" d="M-41.9,37.1c-4,0.1-7.9-0.8-11.5-2.4c-3.4-1.6-6.2-4.1-8.1-7.3c-2-3.3-3-7.4-3-12.2c-0.1-4,1-7.9,3-11.3
			c2-3.5,5-6.4,8.5-8.3c3.8-2.1,8.3-3.1,13.6-3.1c0.3,0,0.6,0,1.1,0.1c0.5,0.1,1,0.1,1.7,0.1v-17c0-0.4,0.2-0.6,0.5-0.6h10.9
			c0.3-0.1,0.5,0.2,0.5,0.4v51.2c0,1,0.1,2,0.1,3.2c0.1,1.1,0.2,2.2,0.2,3.1c0,0.4-0.2,0.7-0.5,0.9c-2.8,1.2-5.7,2-8.8,2.6
			C-36.4,36.8-39.1,37.1-41.9,37.1z M-36.7,26.3V2.7c-0.5-0.1-1-0.2-1.4-0.3c-0.6-0.1-1.2-0.1-1.8-0.1c-2.1,0-4.2,0.4-6.1,1.4
			c-1.8,0.9-3.4,2.3-4.6,4c-1.2,1.7-1.8,4-1.8,6.8c-0.1,1.9,0.3,3.8,0.9,5.5c0.5,1.4,1.3,2.7,2.4,3.8c1,1,2.3,1.7,3.7,2.1
			c1.4,0.5,3,0.7,4.5,0.7c0.8,0,1.6-0.1,2.3-0.1C-37.9,26.7-37.3,26.6-36.7,26.3L-36.7,26.3z"/>
	</g>
</g>
</svg>
