<?xml version="1.0" encoding="utf-8"?>
<!-- Generator: Adobe Illustrator 24.1.1, SVG Export Plug-In . SVG Version: 6.00 Build 0)  -->
<svg version="1.1" id="Layer_1" xmlns="http://www.w3.org/2000/svg" xmlns:xlink="http://www.w3.org/1999/xlink" x="0px" y="0px"
	 viewBox="0 0 176 181" style="enable-background:new 0 0 176 181;" xml:space="preserve">
<style type="text/css">
	.st0{fill:#E34D25;}
	.st1{fill:#EE6528;}
	.st2{fill:#EBEBEB;}
	.st3{fill:#FFFFFF;}
	.st4{fill:#1F62AE;}
	.st5{fill:#3C9BD5;}
	.st6{fill:url(#SVGID_1_);}
	.st7{fill:url(#SVGID_2_);}
	.st8{fill:url(#SVGID_3_);}
	.st9{opacity:5.000000e-02;}
	.st10{fill:#231F20;}
	.st11{fill:url(#SVGID_4_);}
	.st12{opacity:5.000000e-02;fill:#231F20;}
	.st13{fill-rule:evenodd;clip-rule:evenodd;fill:#00B4F0;}
	.st14{fill:none;stroke:#00B4F0;stroke-width:10;stroke-miterlimit:10;}
	.st15{fill:#00B49C;}
	.st16{fill:#416579;}
	.st17{fill:#D95857;}
	.st18{fill:#B75151;}
	.st19{fill:#5AA862;}
	.st20{clip-path:url(#SVGID_6_);}
	.st21{fill:#00749A;}
	.st22{fill:#464342;}
	.st23{fill:#001E36;}
	.st24{fill:#31A8FF;}
	.st25{fill:#330000;}
	.st26{fill:#FF9A00;}
	.st27{fill:#00005B;}
	.st28{fill:#9999FF;}
	.st29{clip-path:url(#SVGID_8_);}
	.st30{clip-path:url(#SVGID_10_);fill:#536B7F;}
	.st31{clip-path:url(#SVGID_10_);fill:#F87329;}
	.st32{clip-path:url(#SVGID_10_);fill-rule:evenodd;clip-rule:evenodd;fill:#F87329;}
	.st33{clip-path:url(#SVGID_10_);fill-rule:evenodd;clip-rule:evenodd;fill:#536B7F;}
	.st34{fill:#00C492;}
	.st35{fill:#008776;}
	.st36{fill:#2D4A5D;}
	.st37{fill:url(#SVGID_11_);}
	.st38{fill:#6181B6;}
	.st39{fill:#000004;}
	.st40{fill:#F7DF1E;}
	.st41{fill-rule:evenodd;clip-rule:evenodd;fill:#1A1918;}
	.st42{fill-rule:evenodd;clip-rule:evenodd;fill:#21609B;}
	.st43{fill:#47C5FB;}
	.st44{fill:#00569E;}
	.st45{fill:#00B5F8;}
	.st46{fill:url(#SVGID_12_);fill-opacity:0.8;}
	.st47{fill:#470137;}
	.st48{fill:#FF61F6;}
	.st49{fill:#0ACF83;}
	.st50{fill:#A259FF;}
	.st51{fill:#F24E1E;}
	.st52{fill:#FF7262;}
	.st53{fill:#1ABCFE;}
	.st54{fill:#FDB300;}
	.st55{fill:#EB6C00;}
	.st56{fill:#FDAD00;}
	.st57{fill:#FDD231;}
	.st58{fill:#FEEEB7;}
	.st59{fill:#563D7C;}
</style>
<g>
	<g>
		<g>
			<g>
				<defs>
					<rect id="SVGID_5_" x="-571.2" y="19.7" width="139.3" height="139.3"/>
				</defs>
				<clipPath id="SVGID_1_">
					<use xlink:href="#SVGID_5_"  style="overflow:visible;"/>
				</clipPath>
				<g style="clip-path:url(#SVGID_1_);">
					<path class="st22" d="M-15.1,121.3c-5.4,0-10.1-2.8-12.2-4.6c-0.7,0.7-1.9,2.7-2.2,4.6H-32v-18.6h2.7
						c1.1,8.9,7.3,14.2,15.3,14.2c4.3,0,7.8-2.4,7.8-6.5c0-3.5-3.1-6.2-8.6-8.8l-7.7-3.6c-5.4-2.6-9.5-7-9.5-13
						c0-6.5,6.1-12,14.5-12c4.5,0,8.2,1.6,10.5,3.5c0.7-0.5,1.4-2,1.8-3.6h2.6v15.9h-2.8c-0.9-6.3-4.5-11.6-11.6-11.6
						c-3.8,0-7.3,2.2-7.3,5.5c0,3.5,2.8,5.4,9.3,8.4l7.4,3.6c6.5,3.1,9,8.1,9,12.2C1.4,115.3-6,121.3-15.1,121.3L-15.1,121.3z"/>
					<path class="st22" d="M26.5,121.3c-5.4,0-10.1-2.8-12.2-4.6c-0.7,0.7-1.9,2.7-2.2,4.6H9.6v-18.6h2.7
						c1.1,8.9,7.3,14.2,15.3,14.2c4.3,0,7.8-2.4,7.8-6.5c0-3.5-3.1-6.2-8.6-8.8l-7.7-3.6c-5.4-2.6-9.5-7-9.5-13
						c0-6.5,6.1-12,14.5-12c4.5,0,8.2,1.6,10.5,3.5c0.7-0.5,1.4-2,1.8-3.6h2.6v15.9h-2.8c-0.9-6.3-4.5-11.6-11.6-11.6
						c-3.8,0-7.3,2.2-7.3,5.5c0,3.5,2.8,5.4,9.3,8.4l7.4,3.6c6.5,3.1,9,8.1,9,12.2C43,115.3,35.6,121.3,26.5,121.3L26.5,121.3z"/>
				</g>
			</g>
		</g>
	</g>
</g>
<g id="Layer_2_1_-8" transform="matrix(0.41666667,0,0,0.41666667,55,0)">
	<g id="Surfaces_2_">
		<g id="Video_Audio_Surface">
			<g id="Outline_no_shadow-3">
				<path id="path2194" class="st27" d="M-25.6,82.3h191.8c29.1,0,52.6,23.5,52.6,52.6v184.4c0,29.1-23.5,52.6-52.6,52.6H-25.6
					c-29.1,0-52.6-23.5-52.6-52.6V134.9C-78.2,105.8-54.7,82.3-25.6,82.3z"/>
			</g>
		</g>
	</g>
	<g id="Outlined_Mnemonics_Logos_2_">
		<g id="Ae">
			<path id="path2199" class="st28" d="M41.1,255.6H-5l-9.4,29.2c-0.2,1.1-1.2,1.9-2.3,1.7H-40c-1.4,0-1.7-0.7-1.4-2.2L-1.5,170
				c0.4-1.2,0.7-2.4,1.2-3.8c0.5-2.6,0.7-5.3,0.7-8c-0.1-0.6,0.4-1.2,1-1.4c0.1,0,0.2,0,0.4,0h31.7c0.9,0,1.5,0.4,1.6,1l45.2,126.8
				c0.4,1.4,0,2-1.2,2H53.2c-0.9,0.1-1.7-0.5-2-1.4L41.1,255.6z M2.2,230.9h31.4c-0.7-2.6-1.7-5.7-2.8-8.9
				c-1.1-3.3-2.2-6.9-3.3-10.6c-1.2-3.8-2.4-7.6-3.6-11.4c-1.2-3.8-2.3-7.4-3.3-11c-1-3.5-1.9-6.7-2.7-9.7h-0.2
				c-1.1,5.3-2.5,10.6-4.2,16c-1.9,5.9-3.7,12.1-5.7,18.3C6.1,219.9,4.1,225.7,2.2,230.9L2.2,230.9z"/>
			<path id="path2201" class="st28" d="M153.7,244.2h-39.2c0.5,3.8,1.7,7.7,3.8,11c2.2,3.3,5.3,5.9,9,7.4c4.9,2.1,10.4,3.2,15.8,3.1
				c4.3-0.1,8.7-0.5,12.9-1.4c3.8-0.5,7.5-1.5,11-2.8c0.6-0.5,1-0.2,1,1v18.9c0,0.5-0.1,1-0.2,1.5c-0.2,0.4-0.5,0.6-0.9,0.9
				c-4,1.7-8,3-12.4,3.7c-5.8,1.1-11.6,1.6-17.6,1.5c-9.4,0-17.3-1.5-23.8-4.3c-6.1-2.6-11.4-6.7-15.6-11.8
				c-4-4.8-6.8-10.3-8.5-16.2c-1.7-5.8-2.6-11.9-2.6-18.1c0-6.7,1-13.2,3.1-19.7c2-6.2,5.1-11.9,9.3-17c4.1-5,9.2-8.9,15-11.8
				c5.8-2.8,12.7-3.8,20.7-3.8c6.6-0.1,13.1,1.1,19.2,3.8c5.1,2.2,9.5,5.6,13,9.9c3.2,4.2,5.8,8.9,7.4,14.1c1.6,5,2.3,10,2.3,15.1
				c0,3-0.1,5.6-0.2,7.9c-0.2,2.4-0.4,4.1-0.5,5.2c-0.1,0.9-0.9,1.6-1.7,1.6c-0.7,0-2.1,0.1-4.1,0.2c-2,0.2-4.3,0.4-7.2,0.4
				C159.9,244.7,156.9,244.2,153.7,244.2L153.7,244.2z M114.5,226.1h26.1c3.2,0,5.6,0,7.1-0.1c1-0.1,2-0.4,2.8-1v-1.2
				c0-1.6-0.2-3.1-0.7-4.6c-2.2-6.9-8.8-11.6-16.1-11.4c-6.8-0.4-13.2,3.2-16.5,9.4C115.7,220,114.8,223,114.5,226.1z"/>
		</g>
	</g>
</g>
</svg>
