<?xml version="1.0" encoding="utf-8"?>
<!-- Generator: Adobe Illustrator 24.1.1, SVG Export Plug-In . SVG Version: 6.00 Build 0)  -->
<svg version="1.1" id="Layer_1" xmlns="http://www.w3.org/2000/svg" xmlns:xlink="http://www.w3.org/1999/xlink" x="0px" y="0px"
	 viewBox="0 0 176 181" style="enable-background:new 0 0 176 181;" xml:space="preserve">
<style type="text/css">
	.st0{fill:#E34D25;}
	.st1{fill:#EE6528;}
	.st2{fill:#EBEBEB;}
	.st3{fill:#FFFFFF;}
	.st4{fill:#1F62AE;}
	.st5{fill:#3C9BD5;}
	.st6{fill:url(#SVGID_1_);}
	.st7{fill:url(#SVGID_2_);}
	.st8{fill:url(#SVGID_3_);}
	.st9{opacity:5.000000e-02;}
	.st10{fill:#231F20;}
	.st11{fill:url(#SVGID_4_);}
	.st12{opacity:5.000000e-02;fill:#231F20;}
	.st13{fill-rule:evenodd;clip-rule:evenodd;fill:#00B4F0;}
	.st14{fill:none;stroke:#00B4F0;stroke-width:10;stroke-miterlimit:10;}
	.st15{fill:#00B49C;}
	.st16{fill:#416579;}
	.st17{fill:#D95857;}
	.st18{fill:#B75151;}
	.st19{fill:#5AA862;}
	.st20{clip-path:url(#SVGID_6_);}
	.st21{fill:#00749A;}
	.st22{fill:#464342;}
	.st23{fill:#001E36;}
	.st24{fill:#31A8FF;}
	.st25{fill:#330000;}
	.st26{fill:#FF9A00;}
	.st27{fill:#00005B;}
	.st28{fill:#9999FF;}
	.st29{clip-path:url(#SVGID_8_);}
	.st30{clip-path:url(#SVGID_10_);fill:#536B7F;}
	.st31{clip-path:url(#SVGID_10_);fill:#F87329;}
	.st32{clip-path:url(#SVGID_10_);fill-rule:evenodd;clip-rule:evenodd;fill:#F87329;}
	.st33{clip-path:url(#SVGID_10_);fill-rule:evenodd;clip-rule:evenodd;fill:#536B7F;}
	.st34{fill:#00C492;}
	.st35{fill:#008776;}
	.st36{fill:#2D4A5D;}
	.st37{fill:url(#SVGID_11_);}
	.st38{fill:#6181B6;}
	.st39{fill:#000004;}
	.st40{fill:#F7DF1E;}
	.st41{fill-rule:evenodd;clip-rule:evenodd;fill:#1A1918;}
	.st42{fill-rule:evenodd;clip-rule:evenodd;fill:#21609B;}
	.st43{fill:#47C5FB;}
	.st44{fill:#00569E;}
	.st45{fill:#00B5F8;}
	.st46{fill:url(#SVGID_12_);fill-opacity:0.8;}
	.st47{fill:#470137;}
	.st48{fill:#FF61F6;}
	.st49{fill:#0ACF83;}
	.st50{fill:#A259FF;}
	.st51{fill:#F24E1E;}
	.st52{fill:#FF7262;}
	.st53{fill:#1ABCFE;}
	.st54{fill:#FDB300;}
	.st55{fill:#EB6C00;}
	.st56{fill:#FDAD00;}
	.st57{fill:#FDD231;}
	.st58{fill:#FEEEB7;}
	.st59{fill:#563D7C;}
</style>
<g>
	<path class="st59" d="M25.4,135.4c0,8.3,6.7,15,15,15h86.4c8.3,0,15-6.7,15-15V49c0-8.3-6.7-15-15-15H40.4c-8.3,0-15,6.7-15,15
		V135.4z"/>
	<path class="st3" d="M73.7,85.5V69h14.5c1.4,0,2.7,0.1,4,0.3c1.3,0.2,2.4,0.6,3.4,1.2c1,0.6,1.8,1.4,2.4,2.5c0.6,1.1,0.9,2.4,0.9,4
		c0,3-0.9,5.1-2.7,6.4c-1.8,1.3-4,2-6.8,2H73.7L73.7,85.5z M58.1,56.9v70.5h34.2c3.2,0,6.2-0.4,9.2-1.2c3-0.8,5.7-2,8-3.7
		c2.3-1.6,4.2-3.8,5.6-6.4c1.4-2.6,2.1-5.7,2.1-9.2c0-4.4-1.1-8.2-3.2-11.3s-5.4-5.3-9.7-6.6c3.2-1.5,5.5-3.5,7.2-5.8
		c1.6-2.4,2.4-5.3,2.4-8.9c0-3.3-0.5-6.1-1.6-8.3c-1.1-2.2-2.6-4-4.6-5.4s-4.3-2.3-7.1-2.9c-2.8-0.6-5.8-0.9-9.2-0.9H58.1L58.1,56.9
		z M73.7,115.4V96h16.9c3.4,0,6.1,0.8,8.1,2.3s3.1,4.1,3.1,7.8c0,1.8-0.3,3.4-0.9,4.5c-0.6,1.2-1.5,2.1-2.5,2.8
		c-1.1,0.7-2.3,1.2-3.7,1.5c-1.4,0.3-2.8,0.4-4.3,0.4H73.7L73.7,115.4z"/>
</g>
</svg>
