<?xml version="1.0" encoding="utf-8"?>
<!-- Generator: Adobe Illustrator 24.1.1, SVG Export Plug-In . SVG Version: 6.00 Build 0)  -->
<svg version="1.1" id="Layer_1" xmlns="http://www.w3.org/2000/svg" xmlns:xlink="http://www.w3.org/1999/xlink" x="0px" y="0px"
	 viewBox="0 0 176 181" style="enable-background:new 0 0 176 181;" xml:space="preserve">
<style type="text/css">
	.st0{fill:#E34D25;}
	.st1{fill:#EE6528;}
	.st2{fill:#EBEBEB;}
	.st3{fill:#FFFFFF;}
	.st4{fill:#1F62AE;}
	.st5{fill:#3C9BD5;}
	.st6{fill:url(#SVGID_1_);}
	.st7{fill:url(#SVGID_2_);}
	.st8{fill:url(#SVGID_3_);}
	.st9{opacity:5.000000e-02;}
	.st10{fill:#231F20;}
	.st11{fill:url(#SVGID_4_);}
	.st12{opacity:5.000000e-02;fill:#231F20;}
	.st13{fill-rule:evenodd;clip-rule:evenodd;fill:#00B4F0;}
	.st14{fill:none;stroke:#00B4F0;stroke-width:10;stroke-miterlimit:10;}
	.st15{fill:#00B49C;}
	.st16{fill:#416579;}
	.st17{fill:#D95857;}
	.st18{fill:#B75151;}
	.st19{fill:#5AA862;}
	.st20{clip-path:url(#SVGID_6_);}
	.st21{fill:#00749A;}
	.st22{fill:#464342;}
	.st23{fill:#001E36;}
	.st24{fill:#31A8FF;}
	.st25{fill:#330000;}
	.st26{fill:#FF9A00;}
	.st27{fill:#00005B;}
	.st28{fill:#9999FF;}
	.st29{clip-path:url(#SVGID_8_);}
	.st30{clip-path:url(#SVGID_10_);fill:#536B7F;}
	.st31{clip-path:url(#SVGID_10_);fill:#F87329;}
	.st32{clip-path:url(#SVGID_10_);fill-rule:evenodd;clip-rule:evenodd;fill:#F87329;}
	.st33{clip-path:url(#SVGID_10_);fill-rule:evenodd;clip-rule:evenodd;fill:#536B7F;}
	.st34{fill:#00C492;}
	.st35{fill:#008776;}
	.st36{fill:#2D4A5D;}
	.st37{fill:url(#SVGID_11_);}
	.st38{fill:#6181B6;}
	.st39{fill:#000004;}
	.st40{fill:#F7DF1E;}
	.st41{fill-rule:evenodd;clip-rule:evenodd;fill:#1A1918;}
	.st42{fill-rule:evenodd;clip-rule:evenodd;fill:#21609B;}
	.st43{fill:#47C5FB;}
	.st44{fill:#00569E;}
	.st45{fill:#00B5F8;}
	.st46{fill:url(#SVGID_12_);fill-opacity:0.8;}
	.st47{fill:#470137;}
	.st48{fill:#FF61F6;}
	.st49{fill:#0ACF83;}
	.st50{fill:#A259FF;}
	.st51{fill:#F24E1E;}
	.st52{fill:#FF7262;}
	.st53{fill:#1ABCFE;}
	.st54{fill:#FDB300;}
	.st55{fill:#EB6C00;}
	.st56{fill:#FDAD00;}
	.st57{fill:#FDD231;}
	.st58{fill:#FEEEB7;}
	.st59{fill:#563D7C;}
</style>
<polygon class="st4" points="134.5,146.7 85,160 35.5,146.7 24.1,23 145.9,23 "/>
<polygon class="st5" points="85,33 85,149.4 85.1,149.4 125.1,138.6 134.4,33 "/>
<g>
	<polygon class="st3" points="85,63.9 49.5,78.7 50.7,93.3 85,78.7 121.4,63.1 122.9,48.1 	"/>
	<linearGradient id="SVGID_1_" gradientUnits="userSpaceOnUse" x1="67.2507" y1="93.2898" x2="67.2507" y2="63.9426">
		<stop  offset="0.3865" style="stop-color:#D0D2D3;stop-opacity:0"/>
		<stop  offset="1" style="stop-color:#D0D2D3"/>
	</linearGradient>
	<polygon class="st6" points="49.5,78.7 50.7,93.3 85,78.7 85,63.9 	"/>
	<linearGradient id="SVGID_2_" gradientUnits="userSpaceOnUse" x1="103.9182" y1="78.6525" x2="103.9182" y2="48.1476">
		<stop  offset="0.3865" style="stop-color:#D0D2D3;stop-opacity:0"/>
		<stop  offset="1" style="stop-color:#D0D2D3"/>
	</linearGradient>
	<polygon class="st7" points="122.9,48.1 85,63.9 85,78.7 121.4,63.1 	"/>
	<linearGradient id="SVGID_3_" gradientUnits="userSpaceOnUse" x1="49.6006" y1="106.3792" x2="120.0849" y2="106.3792">
		<stop  offset="0" style="stop-color:#E7E6E5"/>
		<stop  offset="1" style="stop-color:#FFFFFF"/>
	</linearGradient>
	<polygon class="st8" points="49.6,78.7 50.8,93.3 103.3,93.5 102.1,112.9 84.8,117.8 68.2,113.6 67.2,101.5 51.8,101.5 53.8,124.8 
		85,134.1 116.1,125 120.1,78.7 	"/>
	<g class="st9">
		<polygon class="st10" points="85,78.7 49.5,78.7 50.7,93.3 85,93.4 		"/>
		<polygon class="st10" points="85,117.7 84.8,117.8 68.2,113.6 67.2,101.5 51.7,101.5 53.7,124.8 85,134.1 		"/>
	</g>
	<linearGradient id="SVGID_4_" gradientUnits="userSpaceOnUse" x1="46.3577" y1="55.6153" x2="122.8813" y2="55.6153">
		<stop  offset="0" style="stop-color:#E7E6E5"/>
		<stop  offset="1" style="stop-color:#FFFFFF"/>
	</linearGradient>
	<polygon class="st11" points="46.4,48.1 122.9,48.1 121.4,63.1 48.2,63.1 	"/>
	<polygon class="st12" points="85,48.1 46.4,48.1 48.2,63.1 85,63.1 	"/>
</g>
</svg>
