<?xml version="1.0" encoding="utf-8"?>
<!-- Generator: Adobe Illustrator 24.1.1, SVG Export Plug-In . SVG Version: 6.00 Build 0)  -->
<svg version="1.1" id="Layer_1" xmlns="http://www.w3.org/2000/svg" xmlns:xlink="http://www.w3.org/1999/xlink" x="0px" y="0px"
	 viewBox="0 0 176 181" style="enable-background:new 0 0 176 181;" xml:space="preserve">
<style type="text/css">
	.st0{fill:#E34D25;}
	.st1{fill:#EE6528;}
	.st2{fill:#EBEBEB;}
	.st3{fill:#FFFFFF;}
	.st4{fill:#1F62AE;}
	.st5{fill:#3C9BD5;}
	.st6{fill:url(#SVGID_1_);}
	.st7{fill:url(#SVGID_2_);}
	.st8{fill:url(#SVGID_3_);}
	.st9{opacity:5.000000e-02;}
	.st10{fill:#231F20;}
	.st11{fill:url(#SVGID_4_);}
	.st12{opacity:5.000000e-02;fill:#231F20;}
	.st13{fill-rule:evenodd;clip-rule:evenodd;fill:#00B4F0;}
	.st14{fill:none;stroke:#00B4F0;stroke-width:10;stroke-miterlimit:10;}
	.st15{fill:#00B49C;}
	.st16{fill:#416579;}
	.st17{fill:#D95857;}
	.st18{fill:#B75151;}
	.st19{fill:#5AA862;}
	.st20{clip-path:url(#SVGID_6_);}
	.st21{fill:#00749A;}
	.st22{fill:#464342;}
	.st23{fill:#001E36;}
	.st24{fill:#31A8FF;}
	.st25{fill:#330000;}
	.st26{fill:#FF9A00;}
	.st27{fill:#00005B;}
	.st28{fill:#9999FF;}
	.st29{clip-path:url(#SVGID_8_);}
	.st30{clip-path:url(#SVGID_10_);fill:#536B7F;}
	.st31{clip-path:url(#SVGID_10_);fill:#F87329;}
	.st32{clip-path:url(#SVGID_10_);fill-rule:evenodd;clip-rule:evenodd;fill:#F87329;}
	.st33{clip-path:url(#SVGID_10_);fill-rule:evenodd;clip-rule:evenodd;fill:#536B7F;}
	.st34{fill:#00C492;}
	.st35{fill:#008776;}
	.st36{fill:#2D4A5D;}
	.st37{fill:url(#SVGID_11_);}
	.st38{fill:#6181B6;}
	.st39{fill:#000004;}
	.st40{fill:#F7DF1E;}
	.st41{fill-rule:evenodd;clip-rule:evenodd;fill:#1A1918;}
	.st42{fill-rule:evenodd;clip-rule:evenodd;fill:#21609B;}
	.st43{fill:#47C5FB;}
	.st44{fill:#00569E;}
	.st45{fill:#00B5F8;}
	.st46{fill:url(#SVGID_12_);fill-opacity:0.8;}
	.st47{fill:#470137;}
	.st48{fill:#FF61F6;}
	.st49{fill:#0ACF83;}
	.st50{fill:#A259FF;}
	.st51{fill:#F24E1E;}
	.st52{fill:#FF7262;}
	.st53{fill:#1ABCFE;}
	.st54{fill:#FDB300;}
	.st55{fill:#EB6C00;}
	.st56{fill:#FDAD00;}
	.st57{fill:#FDD231;}
	.st58{fill:#FEEEB7;}
	.st59{fill:#563D7C;}
</style>
<polygon class="st0" points="37.7,143.8 26,13.8 153.5,13.8 141.8,143.8 89.7,158.2 "/>
<polygon class="st1" points="89.7,147.2 131.9,135.5 141.8,24.4 89.7,24.4 "/>
<polygon class="st2" points="89.7,72.6 68.7,72.6 67.2,56.3 89.7,56.3 89.7,40.4 89.7,40.4 49.7,40.4 50.1,44.6 54.1,88.6 
	89.7,88.6 "/>
<polygon class="st2" points="89.7,114.1 89.7,114.1 71.9,109.3 70.8,96.6 62.1,96.6 54.8,96.6 57,121.6 89.7,130.6 89.7,130.6 "/>
<polygon class="st3" points="89.7,72.6 89.7,88.6 109.4,88.6 107.5,109.3 89.7,114.1 89.7,130.6 122.4,121.6 122.6,118.9 
	126.4,76.9 126.8,72.6 122.4,72.6 "/>
<polygon class="st3" points="89.7,40.4 89.7,50.3 89.7,56.3 89.7,56.3 128.1,56.3 128.1,56.3 128.2,56.3 128.5,52.7 129.3,44.6 
	129.7,40.4 "/>
</svg>
