<?xml version="1.0" encoding="utf-8"?>
<!-- Generator: Adobe Illustrator 24.1.1, SVG Export Plug-In . SVG Version: 6.00 Build 0)  -->
<svg version="1.1" id="Layer_1" xmlns="http://www.w3.org/2000/svg" xmlns:xlink="http://www.w3.org/1999/xlink" x="0px" y="0px"
	 viewBox="0 0 176 181" style="enable-background:new 0 0 176 181;" xml:space="preserve">
<style type="text/css">
	.st0{fill:#E34D25;}
	.st1{fill:#EE6528;}
	.st2{fill:#EBEBEB;}
	.st3{fill:#FFFFFF;}
	.st4{fill:#1F62AE;}
	.st5{fill:#3C9BD5;}
	.st6{fill:url(#SVGID_1_);}
	.st7{fill:url(#SVGID_2_);}
	.st8{fill:url(#SVGID_3_);}
	.st9{opacity:5.000000e-02;}
	.st10{fill:#231F20;}
	.st11{fill:url(#SVGID_4_);}
	.st12{opacity:5.000000e-02;fill:#231F20;}
	.st13{fill-rule:evenodd;clip-rule:evenodd;fill:#00B4F0;}
	.st14{fill:none;stroke:#00B4F0;stroke-width:10;stroke-miterlimit:10;}
	.st15{fill:#00B49C;}
	.st16{fill:#416579;}
	.st17{fill:#D95857;}
	.st18{fill:#B75151;}
	.st19{fill:#5AA862;}
	.st20{clip-path:url(#SVGID_6_);}
	.st21{fill:#00749A;}
	.st22{fill:#464342;}
	.st23{fill:#001E36;}
	.st24{fill:#31A8FF;}
	.st25{fill:#330000;}
	.st26{fill:#FF9A00;}
	.st27{fill:#00005B;}
	.st28{fill:#9999FF;}
	.st29{clip-path:url(#SVGID_8_);}
	.st30{clip-path:url(#SVGID_10_);fill:#536B7F;}
	.st31{clip-path:url(#SVGID_10_);fill:#F87329;}
	.st32{clip-path:url(#SVGID_10_);fill-rule:evenodd;clip-rule:evenodd;fill:#F87329;}
	.st33{clip-path:url(#SVGID_10_);fill-rule:evenodd;clip-rule:evenodd;fill:#536B7F;}
	.st34{fill:#00C492;}
	.st35{fill:#008776;}
	.st36{fill:#2D4A5D;}
	.st37{fill:url(#SVGID_11_);}
	.st38{fill:#6181B6;}
	.st39{fill:#000004;}
	.st40{fill:#F7DF1E;}
	.st41{fill-rule:evenodd;clip-rule:evenodd;fill:#1A1918;}
	.st42{fill-rule:evenodd;clip-rule:evenodd;fill:#21609B;}
	.st43{fill:#47C5FB;}
	.st44{fill:#00569E;}
	.st45{fill:#00B5F8;}
	.st46{fill:url(#SVGID_12_);fill-opacity:0.8;}
	.st47{fill:#470137;}
	.st48{fill:#FF61F6;}
	.st49{fill:#0ACF83;}
	.st50{fill:#A259FF;}
	.st51{fill:#F24E1E;}
	.st52{fill:#FF7262;}
	.st53{fill:#1ABCFE;}
	.st54{fill:#FDB300;}
	.st55{fill:#EB6C00;}
	.st56{fill:#FDAD00;}
	.st57{fill:#FDD231;}
	.st58{fill:#FEEEB7;}
	.st59{fill:#563D7C;}
</style>
<g>
	<g>
		<g>
			<g>
				<defs>
					<rect id="SVGID_5_" x="-375.2" y="19.7" width="139.3" height="139.3"/>
				</defs>
				<clipPath id="SVGID_1_">
					<use xlink:href="#SVGID_5_"  style="overflow:visible;"/>
				</clipPath>
				<g style="clip-path:url(#SVGID_1_);">
					<path class="st21" d="M-19,74.5h-24.2v2.6c7.6,0,8.8,1.6,8.8,11.2v17.3c0,9.6-1.2,11.3-8.8,11.3c-5.8-0.8-9.7-3.9-15.1-9.9
						l-6.2-6.8c8.4-1.5,12.8-6.8,12.8-12.7c0-7.4-6.3-13.1-18.2-13.1h-23.8v2.6c7.6,0,8.8,1.6,8.8,11.2v17.3
						c0,9.6-1.2,11.3-8.8,11.3v2.6h26.9v-2.6c-7.6,0-8.8-1.8-8.8-11.3v-4.9h2.3l15,18.8H-19c19.3,0,27.7-10.3,27.7-22.6
						C8.7,84.7,0.3,74.5-19,74.5L-19,74.5z M-75.6,96.5v-18h5.5c6.1,0,8.8,4.2,8.8,9c0,4.7-2.7,8.9-8.8,8.9L-75.6,96.5L-75.6,96.5z
						 M-18.6,115.3h-0.9c-4.9,0-5.5-1.2-5.5-7.4V78.6c0,0,5.9,0,6.5,0C-4.5,78.6-2,88.8-2,96.8C-2,105-4.5,115.3-18.6,115.3z"/>
					<path class="st22" d="M42.1,116.8v2.7H11.1v-2.7c9,0,10.7-2.3,10.7-15.8V79.4c0-13.5-1.6-15.7-10.7-15.7V61h28
						c13.9,0,21.6,7.2,21.6,16.7c0,9.3-7.7,16.6-21.6,16.6h-7.7v6.6C31.4,114.5,33,116.8,42.1,116.8z M39.1,65.9h-7.7v23.5h7.7
						c7.6,0,11.1-5.3,11.1-11.6C50.2,71.3,46.7,65.9,39.1,65.9z"/>
					<path class="st22" d="M153.5,106.8l-0.7,2.4c-1.2,4.5-2.7,6.1-12.3,6.1h-1.9c-7,0-8.2-1.6-8.2-11.2v-6.2
						c10.5,0,11.3,0.9,11.3,8h2.6V85.7h-2.6c0,7-0.8,8-11.3,8V78.6h7.4c9.6,0,11.1,1.6,12.3,6.1l0.7,2.6h2.2L152,74.5h-39.7v2.6
						c7.6,0,8.8,1.6,8.8,11.2v17.3c0,8.8-1,11-7,11.3c-5.7-0.9-9.6-4-14.9-9.8l-6.2-6.8c8.4-1.5,12.8-6.8,12.8-12.7
						c0-7.4-6.3-13.1-18.2-13.1H63.8v2.6c7.6,0,8.8,1.6,8.8,11.2v17.3c0,9.6-1.2,11.3-8.8,11.3v2.6h26.9v-2.6
						c-7.6,0-8.8-1.8-8.8-11.3v-4.9h2.3l15,18.8h55.5l0.8-12.7L153.5,106.8L153.5,106.8z M81.9,96.5v-18h5.5c6.1,0,8.8,4.2,8.8,9
						c0,4.7-2.7,8.9-8.8,8.9L81.9,96.5L81.9,96.5z"/>
					<path class="st22" d="M180.9,121.3c-5.4,0-10.1-2.8-12.2-4.6c-0.7,0.7-1.9,2.7-2.2,4.6H164v-18.6h2.7
						c1.1,8.9,7.3,14.2,15.3,14.2c4.3,0,7.8-2.4,7.8-6.5c0-3.5-3.1-6.2-8.6-8.8l-7.7-3.6c-5.4-2.6-9.5-7-9.5-13
						c0-6.5,6.1-12,14.5-12c4.5,0,8.2,1.6,10.5,3.5c0.7-0.5,1.4-2,1.8-3.6h2.6v15.9h-2.8c-0.9-6.3-4.5-11.6-11.6-11.6
						c-3.8,0-7.3,2.2-7.3,5.5c0,3.5,2.8,5.4,9.3,8.4l7.4,3.6c6.5,3.1,9,8.1,9,12.2C197.4,115.3,190,121.3,180.9,121.3L180.9,121.3z"
						/>
				</g>
			</g>
		</g>
	</g>
</g>
<g id="Layer_2_2_">
	<g id="Surfaces_1_">
		<g id="Drawing_Surface">
			<g id="Outline_no_shadow_1_">
				<path class="st25" d="M47.8,31.5h79.7c12.1,0,21.8,9.8,21.8,21.8v76.6c0,12.1-9.8,21.8-21.8,21.8H47.8
					c-12.1,0-21.8-9.8-21.8-21.8V53.3C25.9,41.2,35.7,31.5,47.8,31.5z"/>
			</g>
		</g>
	</g>
	<g id="Outlined_Mnemonics_Logos_1_">
		<g id="Ai">
			<path class="st26" d="M85.7,103.7H66.6l-3.9,12.1c-0.1,0.5-0.5,0.8-1,0.7H52c-0.6,0-0.7-0.3-0.6-0.9L68,67.9
				c0.2-0.5,0.3-1.1,0.5-1.7c0.2-1.1,0.3-2.2,0.3-3.3c-0.1-0.3,0.2-0.5,0.4-0.6c0.1,0,0.1,0,0.2,0h13.2c0.4,0,0.6,0.2,0.7,0.4
				l18.8,53c0.2,0.6,0,0.8-0.5,0.8H90.7c-0.4,0.1-0.7-0.2-0.8-0.6L85.7,103.7z M69.6,93.2h13.1c-0.3-1.1-0.7-2.4-1.2-3.7
				c-0.5-1.4-0.9-2.9-1.4-4.4c-0.5-1.6-1-3.1-1.5-4.7s-1-3.1-1.4-4.6c-0.4-1.4-0.8-2.8-1.1-4h-0.1c-0.5,2.2-1,4.4-1.7,6.6
				c-0.8,2.5-1.5,5-2.4,7.6C71.1,88.6,70.3,91.1,69.6,93.2L69.6,93.2z"/>
			<path class="st26" d="M113.2,71.1c-1.7,0.1-3.3-0.6-4.6-1.8c-1.2-1.3-1.8-3-1.7-4.7c-0.1-1.7,0.6-3.4,1.9-4.6
				c1.2-1.2,2.9-1.8,4.6-1.8c2,0,3.5,0.6,4.7,1.8c1.1,1.2,1.7,2.9,1.7,4.6c0.1,1.7-0.6,3.4-1.8,4.7C116.7,70.5,115,71.2,113.2,71.1z
				 M107.5,115.7V76.1c0-0.5,0.2-0.7,0.7-0.7h10.2c0.5,0,0.7,0.3,0.7,0.7v39.6c0,0.6-0.2,0.8-0.7,0.8h-10.1
				C107.7,116.5,107.5,116.2,107.5,115.7z"/>
		</g>
	</g>
</g>
</svg>
