<?xml version="1.0" encoding="utf-8"?>
<!-- Generator: Adobe Illustrator 24.1.1, SVG Export Plug-In . SVG Version: 6.00 Build 0)  -->
<svg version="1.1" id="Layer_1" xmlns="http://www.w3.org/2000/svg" xmlns:xlink="http://www.w3.org/1999/xlink" x="0px" y="0px"
	 viewBox="0 0 176 181" style="enable-background:new 0 0 176 181;" xml:space="preserve">
<style type="text/css">
	.st0{fill:#E34D25;}
	.st1{fill:#EE6528;}
	.st2{fill:#EBEBEB;}
	.st3{fill:#FFFFFF;}
	.st4{fill:#1F62AE;}
	.st5{fill:#3C9BD5;}
	.st6{fill:url(#SVGID_1_);}
	.st7{fill:url(#SVGID_2_);}
	.st8{fill:url(#SVGID_3_);}
	.st9{opacity:5.000000e-02;}
	.st10{fill:#231F20;}
	.st11{fill:url(#SVGID_4_);}
	.st12{opacity:5.000000e-02;fill:#231F20;}
	.st13{fill-rule:evenodd;clip-rule:evenodd;fill:#00B4F0;}
	.st14{fill:none;stroke:#00B4F0;stroke-width:10;stroke-miterlimit:10;}
	.st15{fill:#00B49C;}
	.st16{fill:#416579;}
	.st17{fill:#D95857;}
	.st18{fill:#B75151;}
	.st19{fill:#5AA862;}
	.st20{clip-path:url(#SVGID_6_);}
	.st21{fill:#00749A;}
	.st22{fill:#464342;}
	.st23{fill:#001E36;}
	.st24{fill:#31A8FF;}
	.st25{fill:#330000;}
	.st26{fill:#FF9A00;}
	.st27{fill:#00005B;}
	.st28{fill:#9999FF;}
	.st29{clip-path:url(#SVGID_8_);}
	.st30{clip-path:url(#SVGID_10_);fill:#536B7F;}
	.st31{clip-path:url(#SVGID_10_);fill:#F87329;}
	.st32{clip-path:url(#SVGID_10_);fill-rule:evenodd;clip-rule:evenodd;fill:#F87329;}
	.st33{clip-path:url(#SVGID_10_);fill-rule:evenodd;clip-rule:evenodd;fill:#536B7F;}
	.st34{fill:#00C492;}
	.st35{fill:#008776;}
	.st36{fill:#2D4A5D;}
	.st37{fill:url(#SVGID_11_);}
	.st38{fill:#6181B6;}
	.st39{fill:#000004;}
	.st40{fill:#F7DF1E;}
	.st41{fill-rule:evenodd;clip-rule:evenodd;fill:#1A1918;}
	.st42{fill-rule:evenodd;clip-rule:evenodd;fill:#21609B;}
	.st43{fill:#47C5FB;}
	.st44{fill:#00569E;}
	.st45{fill:#00B5F8;}
	.st46{fill:url(#SVGID_12_);fill-opacity:0.8;}
	.st47{fill:#470137;}
	.st48{fill:#FF61F6;}
	.st49{fill:#0ACF83;}
	.st50{fill:#A259FF;}
	.st51{fill:#F24E1E;}
	.st52{fill:#FF7262;}
	.st53{fill:#1ABCFE;}
	.st54{fill:#FDB300;}
	.st55{fill:#EB6C00;}
	.st56{fill:#FDAD00;}
	.st57{fill:#FDD231;}
	.st58{fill:#FEEEB7;}
	.st59{fill:#563D7C;}
</style>
<g>
	<path class="st40" d="M24.2,24.1h131.2v131.2H24.2V24.1z"/>
	<path d="M58.7,133.7l10-6.1c1.9,3.4,3.7,6.3,7.9,6.3c4.1,0,6.6-1.6,6.6-7.7V84.3h12.3v42.1c0,12.8-7.5,18.6-18.4,18.6
		C67.3,145,61.6,139.8,58.7,133.7"/>
	<path d="M102.3,132.4l10-5.8c2.6,4.3,6.1,7.5,12.2,7.5c5.1,0,8.4-2.6,8.4-6.1c0-4.2-3.3-5.7-9-8.2l-3.1-1.3
		c-8.9-3.8-14.8-8.5-14.8-18.6c0-9.2,7-16.3,18.1-16.3c7.8,0,13.5,2.7,17.5,9.9l-9.6,6.2c-2.1-3.8-4.4-5.3-7.9-5.3
		c-3.6,0-5.9,2.3-5.9,5.3c0,3.7,2.3,5.2,7.6,7.5l3.1,1.3c10.5,4.5,16.4,9.1,16.4,19.4c0,11.1-8.7,17.2-20.4,17.2
		C113.3,145,105.9,139.5,102.3,132.4"/>
</g>
</svg>
