<?xml version="1.0" encoding="utf-8"?>
<!-- Generator: Adobe Illustrator 24.1.1, SVG Export Plug-In . SVG Version: 6.00 Build 0)  -->
<svg version="1.1" id="Layer_1" xmlns="http://www.w3.org/2000/svg" xmlns:xlink="http://www.w3.org/1999/xlink" x="0px" y="0px"
	 viewBox="0 0 176 181" style="enable-background:new 0 0 176 181;" xml:space="preserve">
<style type="text/css">
	.st0{fill:#E34D25;}
	.st1{fill:#EE6528;}
	.st2{fill:#EBEBEB;}
	.st3{fill:#FFFFFF;}
	.st4{fill:#1F62AE;}
	.st5{fill:#3C9BD5;}
	.st6{fill:url(#SVGID_1_);}
	.st7{fill:url(#SVGID_2_);}
	.st8{fill:url(#SVGID_3_);}
	.st9{opacity:5.000000e-02;}
	.st10{fill:#231F20;}
	.st11{fill:url(#SVGID_4_);}
	.st12{opacity:5.000000e-02;fill:#231F20;}
	.st13{fill-rule:evenodd;clip-rule:evenodd;fill:#00B4F0;}
	.st14{fill:none;stroke:#00B4F0;stroke-width:10;stroke-miterlimit:10;}
	.st15{fill:#00B49C;}
	.st16{fill:#416579;}
	.st17{fill:#D95857;}
	.st18{fill:#B75151;}
	.st19{fill:#5AA862;}
	.st20{clip-path:url(#SVGID_6_);}
	.st21{fill:#00749A;}
	.st22{fill:#464342;}
	.st23{fill:#001E36;}
	.st24{fill:#31A8FF;}
	.st25{fill:#330000;}
	.st26{fill:#FF9A00;}
	.st27{fill:#00005B;}
	.st28{fill:#9999FF;}
	.st29{clip-path:url(#SVGID_8_);}
	.st30{clip-path:url(#SVGID_10_);fill:#536B7F;}
	.st31{clip-path:url(#SVGID_10_);fill:#F87329;}
	.st32{clip-path:url(#SVGID_10_);fill-rule:evenodd;clip-rule:evenodd;fill:#F87329;}
	.st33{clip-path:url(#SVGID_10_);fill-rule:evenodd;clip-rule:evenodd;fill:#536B7F;}
	.st34{fill:#00C492;}
	.st35{fill:#008776;}
	.st36{fill:#2D4A5D;}
	.st37{fill:url(#SVGID_11_);}
	.st38{fill:#6181B6;}
	.st39{fill:#000004;}
	.st40{fill:#F7DF1E;}
	.st41{fill-rule:evenodd;clip-rule:evenodd;fill:#1A1918;}
	.st42{fill-rule:evenodd;clip-rule:evenodd;fill:#21609B;}
	.st43{fill:#47C5FB;}
	.st44{fill:#00569E;}
	.st45{fill:#00B5F8;}
	.st46{fill:url(#SVGID_12_);fill-opacity:0.8;}
	.st47{fill:#470137;}
	.st48{fill:#FF61F6;}
	.st49{fill:#0ACF83;}
	.st50{fill:#A259FF;}
	.st51{fill:#F24E1E;}
	.st52{fill:#FF7262;}
	.st53{fill:#1ABCFE;}
	.st54{fill:#FDB300;}
	.st55{fill:#EB6C00;}
	.st56{fill:#FDAD00;}
	.st57{fill:#FDD231;}
	.st58{fill:#FEEEB7;}
	.st59{fill:#563D7C;}
</style>
<g>
	<g>
		<path class="st41" d="M155.6,79.9l6.2,0c0,0-11.5,15.6-12.5,16.9c-0.3,0.4-0.8,0.9-1,1.4c-0.6,1.4-1.2,4.4-1.2,4.4l-5.7,0
			c0,0,0.9-3.2,0.8-4.9c0-1.5-0.8-2.9-1.2-4.4c-0.4-1.5-1-4.4-1-4.4h5.8l0.8,3.2L155.6,79.9"/>
		<path class="st41" d="M143.9,83.2c1.1,0.7,1.8,4.5,1.8,4.5s-6,0.1-9.3,0.1h-2.8l-3.4,14.9H125c0,0,3.3-16.2,4-19.1
			c0.2-0.9,1.7-0.8,4.2-0.8h3.9C139.7,82.8,142.6,82.5,143.9,83.2"/>
		<path class="st41" d="M119.5,90.5c0,0,0.2-1-0.6-2.1c-0.6-0.9-1.2-1.2-2.8-1.2c-4.5-0.1-4.5,3.2-4.5,3.2L119.5,90.5L119.5,90.5z
			 M124.4,86.6c0.7,2.4-0.6,8-0.6,8s-6.6-0.1-10.3,0c-1.1,0-2.5-0.1-2.8,0.4c-0.5,0.7,0.2,1.9,0.7,2.3c0.6,0.6,1.9,0.6,2.3,0.7
			c2.9,0.4,9.1,0.1,9.1,0.1l-1.1,4.7c0,0-8.7,0.4-13.1-0.6c-0.9-0.2-1.7-0.6-2.2-1.2c-0.1-0.2-0.3-0.4-0.4-0.6
			c-0.1-0.2-0.4-0.6-0.6-1c-1-2.7,0.1-7.7,1.2-10.5c0.1-0.3,0.3-0.7,0.5-1.1c0.2-0.4,0.4-0.9,0.6-1.2c0.1-0.2,0.3-0.3,0.4-0.5
			c0.1-0.2,0.3-0.4,0.4-0.6c0.4-0.5,0.9-0.8,1.4-1.2c1.8-1.4,5.1-2.4,9.1-2c1.5,0.2,3.7,0.7,4.8,2.2C124.1,85.2,124.3,86,124.4,86.6
			L124.4,86.6L124.4,86.6z"/>
		<path class="st41" d="M100.4,82.8l5.1,0c0,0-2.8,13.4-4.3,20h-5.8c-4.1,0-7.7,0.5-9.3-2.4c-1.5-2.8-0.1-7.5,0.6-10.7
			c0.5-2.2,1.5-6.8,1.5-6.8l5.3,0c0,0-1.5,7.1-2.1,10.7c-0.2,1.3-0.7,2.5-0.2,3.4c0.5,0.9,1.1,1,3,1c0.6,0,2.6,0,2.6,0L100.4,82.8"
			/>
		<path class="st41" d="M76.7,92.4c0.5-1.9,1.3-3.9,1.2-5.6c-0.1-1.8-1.6-3.5-2.6-3.8c-3-1-5.7,0.4-6.8,1.6
			c-1.4,1.5-1.9,3.4-2.4,5.8c-0.4,1.8-0.7,3.8,0,5.2c1.2,2.5,5,2,9.1,2C75.7,96.1,76.2,94.2,76.7,92.4L76.7,92.4L76.7,92.4z
			 M83.7,85c0.6,4.2-1.6,8.9-3.2,12.9c1.6,0.1,2.9,0,3,0.1c0.1,0.2-1,4.8-1.4,4.8c-1.2,0-5.3,0.1-7.1,0.1c-5.6,0-10.8,0.4-13.5-2.4
			c-1.1-1.1-1.8-3.1-2-4.4c-0.3-2.3,0.1-4.8,0.6-6.8c0.5-1.9,1.1-3.6,2-5.2c2.3-4.1,6.4-7.1,13.3-6.4c1.3,0.1,3.2,0.7,4.4,1.4
			c0.1,0,0.4,0.3,0.4,0.3C82,80.3,83.4,82.7,83.7,85L83.7,85L83.7,85z"/>
		<path class="st41" d="M59,82.8c-0.3,1.5-0.7,3.3-1,4.8h-5.6c0.4-1.7,0.8-3.4,1.2-4.8C55.4,82.8,57,82.8,59,82.8"/>
		<path class="st41" d="M52.1,89h5.4c-0.7,3.9-2.1,10.3-3.2,14.7c-0.7,2.8-1.2,4.8-3,6.2c-0.2,0.1-0.3,0.1-0.4,0.2
			c-0.3,0.3-1.9,0.7-2.8,0.8c-1.4,0.2-3.1,0-4.8,0c0.5-1.7,1-3.7,1.4-5.2c4.3,0.5,4.4-3.5,5.2-7.4C50.4,96,51.9,89.9,52.1,89"/>
		<g transform="translate(0.000000, 8.827586)">
			<path class="st42" d="M39.5,90.5l-0.1,0.3c-2,3.9-5.5,6.2-10.5,6.3c-2.3,0-4.6-0.6-6-1.2c-3.1-1.4-5.8-4-7.2-6.8
				c-2.1-4-2.4-9.6,1.9-13.8c0.1,0-0.5,0.9-0.5,0.9l-0.1,0.4c-3.1,9.7,6.5,18.1,15.8,17.1C34.9,93.5,37.7,92.2,39.5,90.5"/>
			<path class="st42" d="M33.8,86.4c2.3,0,4.8-1.1,6.2-2.6c-1.3,3.2-4.9,5.3-9.9,4.6c-4.1-0.6-8-4.7-8.5-8.9c-0.3-3,0.8-4.8,2.5-7
				c-0.6,1.1-0.8,2-0.9,2.6C22.7,81.7,28.6,86.4,33.8,86.4"/>
			<path class="st42" d="M39.8,78.3c-0.4,0.8-2.5,2.4-3.4,2.6c-3.7,0.8-6-1-7.2-2.9c-0.2-0.3-0.5-1.1-0.6-1.3
				c-0.5-1.6-0.3-4.1,1.2-5.3c-0.4,1.2-0.5,2.6-0.3,3.5c0.1,0.6,0.6,1.5,1,2.1c0.8,1.1,1.2,1.4,2.2,2c0.4,0.3,0.9,0.5,1.1,0.5
				C34.7,79.7,36.7,80.4,39.8,78.3"/>
		</g>
	</g>
</g>
</svg>
