<?xml version="1.0" encoding="utf-8"?>
<!-- Generator: Adobe Illustrator 24.1.1, SVG Export Plug-In . SVG Version: 6.00 Build 0)  -->
<svg version="1.1" id="Layer_1" xmlns="http://www.w3.org/2000/svg" xmlns:xlink="http://www.w3.org/1999/xlink" x="0px" y="0px"
	 viewBox="0 0 176 181" style="enable-background:new 0 0 176 181;" xml:space="preserve">
<style type="text/css">
	.st0{fill:#E34D25;}
	.st1{fill:#EE6528;}
	.st2{fill:#EBEBEB;}
	.st3{fill:#FFFFFF;}
	.st4{fill:#1F62AE;}
	.st5{fill:#3C9BD5;}
	.st6{fill:url(#SVGID_1_);}
	.st7{fill:url(#SVGID_2_);}
	.st8{fill:url(#SVGID_3_);}
	.st9{opacity:5.000000e-02;}
	.st10{fill:#231F20;}
	.st11{fill:url(#SVGID_4_);}
	.st12{opacity:5.000000e-02;fill:#231F20;}
	.st13{fill-rule:evenodd;clip-rule:evenodd;fill:#00B4F0;}
	.st14{fill:none;stroke:#00B4F0;stroke-width:8;stroke-miterlimit:10;}
	.st15{fill:#00B49C;}
	.st16{fill:#416579;}
	.st17{fill:#D95857;}
	.st18{fill:#B75151;}
	.st19{fill:#5AA862;}
	.st20{clip-path:url(#SVGID_6_);}
	.st21{fill:#00749A;}
	.st22{fill:#464342;}
	.st23{fill:#001E36;}
	.st24{fill:#31A8FF;}
	.st25{fill:#330000;}
	.st26{fill:#FF9A00;}
	.st27{fill:#00005B;}
	.st28{fill:#9999FF;}
	.st29{clip-path:url(#SVGID_8_);}
	.st30{clip-path:url(#SVGID_10_);fill:#536B7F;}
	.st31{clip-path:url(#SVGID_10_);fill:#F87329;}
	.st32{clip-path:url(#SVGID_10_);fill-rule:evenodd;clip-rule:evenodd;fill:#F87329;}
	.st33{clip-path:url(#SVGID_10_);fill-rule:evenodd;clip-rule:evenodd;fill:#536B7F;}
	.st34{fill:#00C492;}
	.st35{fill:#008776;}
	.st36{fill:#2D4A5D;}
	.st37{fill:none;}
	.st38{fill:#6181B6;}
	.st39{fill:#000004;}
	.st40{fill:#F7DF1E;}
	.st41{fill-rule:evenodd;clip-rule:evenodd;fill:#1A1918;}
	.st42{fill-rule:evenodd;clip-rule:evenodd;fill:#21609B;}
	.st43{fill:#47C5FB;}
	.st44{fill:#00569E;}
	.st45{fill:#00B5F8;}
	.st46{fill:url(#SVGID_11_);fill-opacity:0.8;}
	.st47{fill:#470137;}
	.st48{fill:#FF61F6;}
	.st49{fill:#0ACF83;}
	.st50{fill:#A259FF;}
	.st51{fill:#F24E1E;}
	.st52{fill:#FF7262;}
	.st53{fill:#1ABCFE;}
	.st54{fill:#563D7C;}
	.st55{fill:#FF2D20;}
</style>
<g>
	<path class="st55" d="M159.6,54.4c0,0.2,0.1,0.4,0.1,0.5v28.3c0,0.7-0.4,1.4-1,1.8l-23.8,13.7v27.1c0,0.7-0.4,1.4-1,1.8l-49.6,28.5
		c-0.1,0.1-0.2,0.1-0.4,0.1c0,0-0.1,0-0.1,0.1c-0.3,0.1-0.7,0.1-1.1,0c-0.1,0-0.1,0-0.2-0.1c-0.1,0-0.2-0.1-0.3-0.1l-49.6-28.5
		c-0.6-0.4-1-1.1-1-1.8V40.9c0-0.2,0-0.4,0.1-0.5c0-0.1,0.1-0.1,0.1-0.2c0-0.1,0.1-0.2,0.1-0.3c0-0.1,0.1-0.1,0.1-0.2
		c0.1-0.1,0.1-0.2,0.2-0.2c0.1-0.1,0.1-0.1,0.2-0.2c0.1-0.1,0.1-0.1,0.2-0.2h0l24.8-14.3c0.6-0.4,1.4-0.4,2.1,0l24.8,14.3h0
		c0.1,0.1,0.2,0.1,0.2,0.2c0.1,0.1,0.1,0.1,0.2,0.2c0.1,0.1,0.1,0.2,0.2,0.2c0,0.1,0.1,0.1,0.1,0.2c0.1,0.1,0.1,0.2,0.1,0.3
		c0,0.1,0.1,0.1,0.1,0.2c0,0.2,0.1,0.4,0.1,0.5v53L105.9,82V54.9c0-0.2,0-0.4,0.1-0.5c0-0.1,0.1-0.1,0.1-0.2c0-0.1,0.1-0.2,0.1-0.3
		c0-0.1,0.1-0.1,0.1-0.2c0.1-0.1,0.1-0.2,0.2-0.2c0.1-0.1,0.1-0.1,0.2-0.2c0.1-0.1,0.1-0.1,0.2-0.2h0l24.8-14.3
		c0.6-0.4,1.4-0.4,2.1,0l24.8,14.3c0.1,0.1,0.2,0.1,0.2,0.2c0.1,0.1,0.1,0.1,0.2,0.2c0.1,0.1,0.1,0.2,0.2,0.2c0,0.1,0.1,0.1,0.1,0.2
		c0.1,0.1,0.1,0.2,0.1,0.3C159.5,54.3,159.5,54.3,159.6,54.4z M155.5,82V58.5l-8.7,5l-12,6.9v23.5L155.5,82L155.5,82z M130.7,124.6
		v-23.6l-11.8,6.7L85.3,127v23.8L130.7,124.6z M35.7,44.5v80.1l45.4,26.2V127l-23.7-13.4l0,0l0,0c-0.1,0-0.1-0.1-0.2-0.2
		c-0.1-0.1-0.1-0.1-0.2-0.1l0,0c-0.1-0.1-0.1-0.1-0.2-0.2c-0.1-0.1-0.1-0.1-0.2-0.2l0,0c0-0.1-0.1-0.2-0.1-0.3
		c0-0.1-0.1-0.1-0.1-0.2v0c0-0.1,0-0.2,0-0.3c0-0.1,0-0.2,0-0.2v0V56.4l-12-6.9L35.7,44.5L35.7,44.5z M58.4,29L37.8,40.9l20.6,11.9
		l20.7-11.9L58.4,29L58.4,29z M69.1,103.2l12-6.9V44.5l-8.7,5l-12,6.9v51.8L69.1,103.2z M132.8,43.1l-20.7,11.9l20.7,11.9l20.6-11.9
		L132.8,43.1z M130.7,70.4l-12-6.9l-8.7-5V82l12,6.9l8.7,5V70.4z M83.2,123.4l30.3-17.3l15.1-8.6L108,85.6L84.2,99.3l-21.7,12.5
		L83.2,123.4z"/>
</g>
</svg>
