<?xml version="1.0" encoding="utf-8"?>
<!-- Generator: Adobe Illustrator 24.1.1, SVG Export Plug-In . SVG Version: 6.00 Build 0)  -->
<svg version="1.1" id="Layer_1" xmlns="http://www.w3.org/2000/svg" xmlns:xlink="http://www.w3.org/1999/xlink" x="0px" y="0px"
	 viewBox="0 0 176 181" style="enable-background:new 0 0 176 181;" xml:space="preserve">
<style type="text/css">
	.st0{fill:#E34D25;}
	.st1{fill:#EE6528;}
	.st2{fill:#EBEBEB;}
	.st3{fill:#FFFFFF;}
	.st4{fill:#1F62AE;}
	.st5{fill:#3C9BD5;}
	.st6{fill:url(#SVGID_1_);}
	.st7{fill:url(#SVGID_2_);}
	.st8{fill:url(#SVGID_3_);}
	.st9{opacity:5.000000e-02;}
	.st10{fill:#231F20;}
	.st11{fill:url(#SVGID_4_);}
	.st12{opacity:5.000000e-02;fill:#231F20;}
	.st13{fill-rule:evenodd;clip-rule:evenodd;fill:#00B4F0;}
	.st14{fill:none;stroke:#00B4F0;stroke-width:10;stroke-miterlimit:10;}
	.st15{fill:#00B49C;}
	.st16{fill:#416579;}
	.st17{fill:#D95857;}
	.st18{fill:#B75151;}
	.st19{fill:#5AA862;}
	.st20{clip-path:url(#SVGID_6_);}
	.st21{fill:#00749A;}
	.st22{fill:#464342;}
	.st23{fill:#001E36;}
	.st24{fill:#31A8FF;}
	.st25{fill:#330000;}
	.st26{fill:#FF9A00;}
	.st27{fill:#00005B;}
	.st28{fill:#9999FF;}
	.st29{clip-path:url(#SVGID_8_);}
	.st30{clip-path:url(#SVGID_10_);fill:#536B7F;}
	.st31{clip-path:url(#SVGID_10_);fill:#F87329;}
	.st32{clip-path:url(#SVGID_10_);fill-rule:evenodd;clip-rule:evenodd;fill:#F87329;}
	.st33{clip-path:url(#SVGID_10_);fill-rule:evenodd;clip-rule:evenodd;fill:#536B7F;}
	.st34{fill:#00C492;}
	.st35{fill:#008776;}
	.st36{fill:#2D4A5D;}
	.st37{fill:url(#SVGID_11_);}
	.st38{fill:#6181B6;}
	.st39{fill:#000004;}
	.st40{fill:#F7DF1E;}
	.st41{fill-rule:evenodd;clip-rule:evenodd;fill:#1A1918;}
	.st42{fill-rule:evenodd;clip-rule:evenodd;fill:#21609B;}
	.st43{fill:#47C5FB;}
	.st44{fill:#00569E;}
	.st45{fill:#00B5F8;}
	.st46{fill:url(#SVGID_12_);fill-opacity:0.8;}
	.st47{fill:#470137;}
	.st48{fill:#FF61F6;}
	.st49{fill:#0ACF83;}
	.st50{fill:#A259FF;}
	.st51{fill:#F24E1E;}
	.st52{fill:#FF7262;}
	.st53{fill:#1ABCFE;}
	.st54{fill:#FDB300;}
	.st55{fill:#EB6C00;}
	.st56{fill:#FDAD00;}
	.st57{fill:#FDD231;}
	.st58{fill:#FEEEB7;}
	.st59{fill:#563D7C;}
</style>
<g>
	<g>
		<defs>
			<rect id="SVGID_7_" x="10" y="37.1" width="152.3" height="107.3"/>
		</defs>
		<clipPath id="SVGID_1_">
			<use xlink:href="#SVGID_7_"  style="overflow:visible;"/>
		</clipPath>
		<g style="clip-path:url(#SVGID_1_);">
			<defs>
				<rect id="SVGID_9_" x="10" y="37.1" width="152.3" height="107.3"/>
			</defs>
			<clipPath id="SVGID_2_">
				<use xlink:href="#SVGID_9_"  style="overflow:visible;"/>
			</clipPath>
			<path style="clip-path:url(#SVGID_2_);fill:#536B7F;" d="M50,125.7h-5c-0.2-8.4-0.7-16.3-1.5-23.7h0l-7.6,23.7h-3.8L24.6,102h0
				c-0.6,7.1-0.9,15-1.1,23.7h-4.5c0.3-10.6,1-20.5,2.2-29.8h6.2l7.2,21.9h0l7.2-21.9h5.9C49,106.8,49.7,116.7,50,125.7"/>
			<path style="clip-path:url(#SVGID_2_);fill:#536B7F;" d="M71.6,103.7c-2,11-4.7,19-8,24c-2.6,3.8-5.4,5.8-8.5,5.8
				c-0.8,0-1.8-0.2-3-0.7v-2.7c0.6,0.1,1.3,0.1,2.1,0.1c1.4,0,2.6-0.4,3.5-1.2c1.1-1,1.6-2.1,1.6-3.3c0-0.8-0.4-2.5-1.2-5.1l-5.5-17
				h4.9l3.9,12.7c0.9,2.9,1.3,4.9,1.1,6c2.1-5.7,3.6-12,4.5-18.8H71.6z"/>
			<polygon style="clip-path:url(#SVGID_2_);fill:#F87329;" points="138,125.7 123.8,125.7 123.8,95.9 128.6,95.9 128.6,122 
				138,122 			"/>
			<path style="clip-path:url(#SVGID_2_);fill-rule:evenodd;clip-rule:evenodd;fill:#F87329;" d="M120.1,126.4l-5.5-2.7
				c0.5-0.4,1-0.8,1.4-1.3c2.3-2.7,3.5-6.8,3.5-12.1c0-9.9-3.9-14.8-11.6-14.8c-3.8,0-6.8,1.2-8.9,3.8c-2.3,2.7-3.5,6.8-3.5,12.1
				c0,5.2,1,9.1,3.1,11.5c1.9,2.2,4.7,3.3,8.5,3.3c1.4,0,2.7-0.2,3.9-0.5l7.1,4.1L120.1,126.4z M102.4,119.8
				c-1.2-1.9-1.8-5.1-1.8-9.4c0-7.5,2.3-11.3,6.8-11.3c2.4,0,4.1,0.9,5.3,2.7c1.2,1.9,1.8,5,1.8,9.3c0,7.6-2.3,11.3-6.8,11.3
				C105.2,122.4,103.5,121.6,102.4,119.8"/>
			<path style="clip-path:url(#SVGID_2_);fill:#F87329;" d="M93.5,117.5c0,2.5-0.9,4.6-2.8,6.2c-1.9,1.6-4.3,2.4-7.5,2.4
				c-2.9,0-5.7-0.9-8.5-2.8l1.3-2.6c2.4,1.2,4.5,1.8,6.4,1.8c1.8,0,3.2-0.4,4.2-1.2c1-0.8,1.6-1.9,1.6-3.3c0-1.8-1.2-3.3-3.5-4.5
				c-2.1-1.1-6.3-3.5-6.3-3.5c-2.3-1.7-3.4-3.4-3.4-6.3c0-2.4,0.8-4.4,2.5-5.8c1.7-1.5,3.9-2.2,6.6-2.2c2.8,0,5.3,0.7,7.5,2.2
				l-1.2,2.6c-1.9-0.8-3.8-1.2-5.7-1.2c-1.5,0-2.7,0.4-3.5,1.1c-0.8,0.7-1.3,1.7-1.3,2.8c0,1.8,1.3,3.3,3.6,4.6
				c2.1,1.1,6.4,3.6,6.4,3.6C92.3,112.8,93.5,114.6,93.5,117.5"/>
			<path style="clip-path:url(#SVGID_2_);fill-rule:evenodd;clip-rule:evenodd;fill:#536B7F;" d="M144,85.9c-2.9-0.1-5.1,0.2-7,1
				c-0.5,0.2-1.4,0.2-1.5,0.9c0.3,0.3,0.3,0.8,0.6,1.2c0.4,0.7,1.2,1.7,1.9,2.2c0.8,0.6,1.5,1.1,2.3,1.7c1.4,0.9,3,1.4,4.4,2.2
				c0.8,0.5,1.6,1.2,2.4,1.7c0.4,0.3,0.6,0.8,1.1,0.9v-0.1c-0.3-0.3-0.3-0.8-0.6-1.2c-0.4-0.4-0.7-0.7-1.1-1c-1-1.4-2.3-2.6-3.7-3.6
				c-1.2-0.8-3.7-1.9-4.1-3.2c0,0,0,0-0.1-0.1c0.8-0.1,1.7-0.4,2.5-0.6c1.2-0.3,2.3-0.2,3.6-0.6c0.6-0.1,1.2-0.3,1.7-0.5v-0.3
				c-0.7-0.6-1.1-1.5-1.8-2.1c-1.8-1.6-3.9-3.1-5.9-4.4c-1.1-0.7-2.6-1.2-3.7-1.8c-0.4-0.2-1.1-0.3-1.4-0.7c-0.6-0.8-1-1.8-1.5-2.8
				c-1-2-2.1-4.2-3-6.3c-0.6-1.4-1-2.8-1.8-4.1c-3.7-6.1-7.7-9.8-13.9-13.5c-1.3-0.8-2.9-1.1-4.6-1.5c-0.9,0-1.8-0.1-2.7-0.1
				c-0.6-0.3-1.2-0.9-1.7-1.3c-2.1-1.3-7.3-4.1-8.9-0.4c-1,2.3,1.4,4.6,2.3,5.8c0.6,0.8,1.4,1.8,1.8,2.7c0.3,0.6,0.3,1.3,0.6,1.9
				c0.6,1.6,1.1,3.3,1.9,4.8c0.4,0.8,0.8,1.5,1.3,2.2c0.3,0.4,0.8,0.6,0.9,1.2c-0.5,0.7-0.5,1.8-0.8,2.7c-1.3,4.1-0.8,9.1,1,12.1
				c0.6,0.9,1.9,2.9,3.8,2.1c1.6-0.6,1.3-2.7,1.7-4.5c0.1-0.4,0-0.7,0.3-1v0.1c0.5,1,1,2,1.5,3c1.1,1.8,3.1,3.6,4.7,4.8
				c0.9,0.7,1.5,1.8,2.6,2.2v-0.1h-0.1c-0.2-0.3-0.5-0.5-0.8-0.7c-0.6-0.6-1.4-1.4-1.9-2.2c-1.5-2-2.8-4.2-4-6.6
				c-0.6-1.1-1.1-2.3-1.5-3.5c-0.2-0.4-0.2-1.1-0.6-1.3c-0.5,0.8-1.3,1.5-1.7,2.4c-0.7,1.5-0.8,3.5-1,5.4c-0.1,0-0.1,0-0.1,0.1
				c-1.2-0.3-1.5-1.5-2-2.5c-1.1-2.6-1.3-6.7-0.3-9.6c0.3-0.8,1.3-3.1,0.9-3.8c-0.2-0.7-0.9-1.1-1.3-1.6c-0.5-0.7-1-1.5-1.3-2.3
				c-0.9-2-1.3-4.2-2.2-6.3c-0.4-0.9-1.2-1.9-1.8-2.8c-0.7-1-1.4-1.7-2-2.8c-0.2-0.4-0.4-1-0.1-1.5c0.1-0.3,0.2-0.4,0.5-0.5
				c0.5-0.4,1.8,0.1,2.3,0.3c1.3,0.5,2.4,1,3.6,1.8c0.5,0.4,1,1,1.7,1.2h0.8c1.2,0.2,2.4,0.1,3.5,0.4c1.9,0.6,3.6,1.5,5.2,2.5
				c4.7,3,8.6,7.2,11.2,12.3c0.4,0.8,0.6,1.6,1,2.4c0.8,1.8,1.7,3.6,2.4,5.3c0.8,1.7,1.5,3.4,2.6,4.8c0.5,0.8,2.7,1.2,3.7,1.5
				c0.7,0.3,1.8,0.6,2.5,1c1.2,0.8,2.4,1.6,3.6,2.4C142.1,84.3,143.9,85.2,144,85.9"/>
			<path style="clip-path:url(#SVGID_2_);fill-rule:evenodd;clip-rule:evenodd;fill:#536B7F;" d="M107.3,54.7c-0.6,0-1,0.1-1.5,0.2
				v0.1h0.1c0.3,0.6,0.8,1,1.2,1.5c0.3,0.6,0.5,1.1,0.8,1.7c0,0,0.1-0.1,0.1-0.1c0.5-0.4,0.8-0.9,0.8-1.8c-0.2-0.3-0.3-0.5-0.4-0.8
				C108,55.1,107.5,54.9,107.3,54.7"/>
			<path style="clip-path:url(#SVGID_2_);fill:#F87329;" d="M147.4,125.7h0.7v-3.7H147l-0.9,2.5l-1-2.5H144v3.7h0.7v-2.8h0l1,2.8
				h0.5l1-2.8V125.7z M141.4,125.7h0.8v-3h1v-0.6h-2.9v0.6h1.1V125.7z"/>
		</g>
	</g>
</g>
</svg>
