<?xml version="1.0" encoding="utf-8"?>
<!-- Generator: Adobe Illustrator 24.1.1, SVG Export Plug-In . SVG Version: 6.00 Build 0)  -->
<svg version="1.1" id="Layer_1" xmlns="http://www.w3.org/2000/svg" xmlns:xlink="http://www.w3.org/1999/xlink" x="0px" y="0px"
	 viewBox="0 0 176 181" style="enable-background:new 0 0 176 181;" xml:space="preserve">
<style type="text/css">
	.st0{fill:#E34D25;}
	.st1{fill:#EE6528;}
	.st2{fill:#EBEBEB;}
	.st3{fill:#FFFFFF;}
	.st4{fill:#1F62AE;}
	.st5{fill:#3C9BD5;}
	.st6{fill:url(#SVGID_1_);}
	.st7{fill:url(#SVGID_2_);}
	.st8{fill:url(#SVGID_3_);}
	.st9{opacity:5.000000e-02;}
	.st10{fill:#231F20;}
	.st11{fill:url(#SVGID_4_);}
	.st12{opacity:5.000000e-02;fill:#231F20;}
	.st13{fill-rule:evenodd;clip-rule:evenodd;fill:#00B4F0;}
	.st14{fill:none;stroke:#00B4F0;stroke-width:10;stroke-miterlimit:10;}
	.st15{fill:#00B49C;}
	.st16{fill:#416579;}
	.st17{fill:#D95857;}
	.st18{fill:#B75151;}
	.st19{fill:#5AA862;}
	.st20{clip-path:url(#SVGID_6_);}
	.st21{fill:#00749A;}
	.st22{fill:#464342;}
	.st23{fill:#001E36;}
	.st24{fill:#31A8FF;}
	.st25{fill:#330000;}
	.st26{fill:#FF9A00;}
	.st27{fill:#00005B;}
	.st28{fill:#9999FF;}
	.st29{clip-path:url(#SVGID_8_);}
	.st30{clip-path:url(#SVGID_10_);fill:#536B7F;}
	.st31{clip-path:url(#SVGID_10_);fill:#F87329;}
	.st32{clip-path:url(#SVGID_10_);fill-rule:evenodd;clip-rule:evenodd;fill:#F87329;}
	.st33{clip-path:url(#SVGID_10_);fill-rule:evenodd;clip-rule:evenodd;fill:#536B7F;}
	.st34{fill:#00C492;}
	.st35{fill:#008776;}
	.st36{fill:#2D4A5D;}
	.st37{fill:url(#SVGID_11_);}
	.st38{fill:#6181B6;}
	.st39{fill:#000004;}
	.st40{fill:#F7DF1E;}
	.st41{fill-rule:evenodd;clip-rule:evenodd;fill:#1A1918;}
	.st42{fill-rule:evenodd;clip-rule:evenodd;fill:#21609B;}
	.st43{fill:#47C5FB;}
	.st44{fill:#00569E;}
	.st45{fill:#00B5F8;}
	.st46{fill:url(#SVGID_12_);fill-opacity:0.8;}
	.st47{fill:#470137;}
	.st48{fill:#FF61F6;}
	.st49{fill:#0ACF83;}
	.st50{fill:#A259FF;}
	.st51{fill:#F24E1E;}
	.st52{fill:#FF7262;}
	.st53{fill:#1ABCFE;}
	.st54{fill:#FDB300;}
	.st55{fill:#EB6C00;}
	.st56{fill:#FDAD00;}
	.st57{fill:#FDD231;}
	.st58{fill:#FEEEB7;}
	.st59{fill:#563D7C;}
</style>
<path d="M51.5,81.8h26.1v2.1H53.9v15.6h22.3v2.1H53.9v17.2h24v2.1H51.5V81.8z M80,81.8h2.8L95,99l12.6-17.2L124.7,60l-28.1,40.8
	l14.5,20.1h-2.9L95,102.6l-13.2,18.3H79l14.6-20.1L80,81.8L80,81.8z M112.1,83.9v-2.1h29.7v2.1h-13.7v37h-2.4v-37H112.1L112.1,83.9z
	 M18.9,81.8h3l41.2,61.8l-17-22.8L21.4,84.8l-0.1,36.1h-2.4C18.9,120.9,18.9,81.8,18.9,81.8z M141.6,118.2c-0.5,0-0.9-0.4-0.9-0.9
	c0-0.5,0.4-0.9,0.9-0.9c0.5,0,0.9,0.4,0.9,0.9C142.4,117.8,142.1,118.2,141.6,118.2L141.6,118.2z M143.9,115.9h1.3
	c0,0.7,0.5,1.2,1.3,1.2c0.8,0,1.3-0.5,1.3-1.4v-6h1.3v6c0,1.7-1,2.7-2.6,2.7C145,118.3,143.9,117.3,143.9,115.9L143.9,115.9z
	 M150.8,115.8h1.3c0.1,0.8,0.9,1.3,2,1.3c1,0,1.8-0.5,1.8-1.3c0-0.6-0.5-1-1.6-1.3l-1.1-0.3c-1.5-0.4-2.2-1.1-2.2-2.3
	c0-1.5,1.2-2.5,3.1-2.5c1.7,0,3,1,3,2.4h-1.3c-0.1-0.8-0.8-1.3-1.8-1.3c-1,0-1.7,0.5-1.7,1.3c0,0.6,0.4,0.9,1.5,1.2l0.9,0.2
	c1.7,0.4,2.4,1.1,2.4,2.4c0,1.6-1.2,2.6-3.2,2.6C152.1,118.3,150.9,117.3,150.8,115.8L150.8,115.8z"/>
</svg>
