<?xml version="1.0" encoding="utf-8"?>
<!-- Generator: Adobe Illustrator 24.1.1, SVG Export Plug-In . SVG Version: 6.00 Build 0)  -->
<svg version="1.1" id="Layer_1" xmlns="http://www.w3.org/2000/svg" xmlns:xlink="http://www.w3.org/1999/xlink" x="0px" y="0px"
	 viewBox="0 0 176 181" style="enable-background:new 0 0 176 181;" xml:space="preserve">
<style type="text/css">
	.st0{fill:#E34D25;}
	.st1{fill:#EE6528;}
	.st2{fill:#EBEBEB;}
	.st3{fill:#FFFFFF;}
	.st4{fill:#1F62AE;}
	.st5{fill:#3C9BD5;}
	.st6{fill:url(#SVGID_1_);}
	.st7{fill:url(#SVGID_2_);}
	.st8{fill:url(#SVGID_3_);}
	.st9{opacity:5.000000e-02;}
	.st10{fill:#231F20;}
	.st11{fill:url(#SVGID_4_);}
	.st12{opacity:5.000000e-02;fill:#231F20;}
	.st13{fill-rule:evenodd;clip-rule:evenodd;fill:#00B4F0;}
	.st14{fill:none;stroke:#00B4F0;stroke-width:10;stroke-miterlimit:10;}
	.st15{fill:#00B49C;}
	.st16{fill:#416579;}
	.st17{fill:#D95857;}
	.st18{fill:#B75151;}
	.st19{fill:#5AA862;}
	.st20{clip-path:url(#SVGID_6_);}
	.st21{fill:#00749A;}
	.st22{fill:#464342;}
	.st23{fill:#001E36;}
	.st24{fill:#31A8FF;}
	.st25{fill:#330000;}
	.st26{fill:#FF9A00;}
	.st27{fill:#00005B;}
	.st28{fill:#9999FF;}
	.st29{clip-path:url(#SVGID_8_);}
	.st30{clip-path:url(#SVGID_10_);fill:#536B7F;}
	.st31{clip-path:url(#SVGID_10_);fill:#F87329;}
	.st32{clip-path:url(#SVGID_10_);fill-rule:evenodd;clip-rule:evenodd;fill:#F87329;}
	.st33{clip-path:url(#SVGID_10_);fill-rule:evenodd;clip-rule:evenodd;fill:#536B7F;}
	.st34{fill:#00C492;}
	.st35{fill:#008776;}
	.st36{fill:#2D4A5D;}
	.st37{fill:url(#SVGID_11_);}
	.st38{fill:#6181B6;}
	.st39{fill:#000004;}
	.st40{fill:#F7DF1E;}
	.st41{fill-rule:evenodd;clip-rule:evenodd;fill:#1A1918;}
	.st42{fill-rule:evenodd;clip-rule:evenodd;fill:#21609B;}
	.st43{fill:#47C5FB;}
	.st44{fill:#00569E;}
	.st45{fill:#00B5F8;}
	.st46{fill:url(#SVGID_12_);fill-opacity:0.8;}
	.st47{fill:#470137;}
	.st48{fill:#FF61F6;}
	.st49{fill:#0ACF83;}
	.st50{fill:#A259FF;}
	.st51{fill:#F24E1E;}
	.st52{fill:#FF7262;}
	.st53{fill:#1ABCFE;}
	.st54{fill:#FDB300;}
	.st55{fill:#EB6C00;}
	.st56{fill:#FDAD00;}
	.st57{fill:#FDD231;}
	.st58{fill:#FEEEB7;}
	.st59{fill:#563D7C;}
</style>
<g>
	<path class="st19" d="M90.6,163c-2,0-3.9-0.5-5.7-1.5l-18-10.7c-2.7-1.5-1.4-2-0.5-2.3c3.6-1.2,4.3-1.5,8.1-3.6
		c0.4-0.3,0.9-0.1,1.4,0.1l13.8,8.2c0.5,0.3,1.2,0.3,1.6,0l53.9-31.2c0.5-0.3,0.8-0.8,0.8-1.5V58.3c0-0.7-0.3-1.2-0.8-1.5L91.3,25.7
		c-0.5-0.3-1.2-0.3-1.6,0L35.8,56.8c-0.5,0.3-0.8,0.9-0.8,1.5v62.3c0,0.5,0.3,1.2,0.8,1.5l14.7,8.5c8,4.1,13-0.7,13-5.4V63.7
		c0-0.8,0.7-1.6,1.6-1.6H72c0.8,0,1.6,0.7,1.6,1.6v61.5c0,10.7-5.8,16.9-15.9,16.9c-3.1,0-5.5,0-12.4-3.4l-14.2-8.1
		c-3.5-2-5.7-5.8-5.7-9.9V58.4c0-4.1,2.2-7.8,5.7-9.9L85,17.4c3.4-1.9,8-1.9,11.3,0l53.9,31.2c3.5,2,5.7,5.8,5.7,9.9v62.3
		c0,4.1-2.2,7.8-5.7,9.9l-53.9,31.2C94.6,162.6,92.5,163,90.6,163L90.6,163z M107.3,120.2c-23.6,0-28.5-10.8-28.5-20
		c0-0.8,0.7-1.6,1.6-1.6h7c0.8,0,1.5,0.5,1.5,1.4c1.1,7.2,4.2,10.7,18.5,10.7c11.3,0,16.2-2.6,16.2-8.6c0-3.5-1.4-6.1-19-7.8
		c-14.7-1.5-23.9-4.7-23.9-16.5c0-10.9,9.2-17.4,24.6-17.4c17.3,0,25.8,5.9,26.9,18.9c0,0.4-0.1,0.8-0.4,1.2
		c-0.3,0.3-0.7,0.5-1.1,0.5h-7c-0.7,0-1.4-0.5-1.5-1.2c-1.6-7.4-5.8-9.9-16.9-9.9c-12.4,0-13.9,4.3-13.9,7.6c0,3.9,1.8,5.1,18.5,7.3
		c16.6,2.2,24.5,5.3,24.5,16.9C134.1,113.4,124.4,120.2,107.3,120.2L107.3,120.2z"/>
</g>
</svg>
