<?xml version="1.0" encoding="utf-8"?>
<!-- Generator: Adobe Illustrator 24.1.1, SVG Export Plug-In . SVG Version: 6.00 Build 0)  -->
<svg version="1.1" id="Layer_1" xmlns="http://www.w3.org/2000/svg" xmlns:xlink="http://www.w3.org/1999/xlink" x="0px" y="0px"
	 viewBox="0 0 176 181" style="enable-background:new 0 0 176 181;" xml:space="preserve">
<style type="text/css">
	.st0{fill:#E34D25;}
	.st1{fill:#EE6528;}
	.st2{fill:#EBEBEB;}
	.st3{fill:#FFFFFF;}
	.st4{fill:#1F62AE;}
	.st5{fill:#3C9BD5;}
	.st6{fill:url(#SVGID_1_);}
	.st7{fill:url(#SVGID_2_);}
	.st8{fill:url(#SVGID_3_);}
	.st9{opacity:5.000000e-02;}
	.st10{fill:#231F20;}
	.st11{fill:url(#SVGID_4_);}
	.st12{opacity:5.000000e-02;fill:#231F20;}
	.st13{fill-rule:evenodd;clip-rule:evenodd;fill:#00B4F0;}
	.st14{fill:none;stroke:#00B4F0;stroke-width:10;stroke-miterlimit:10;}
	.st15{fill:#00B49C;}
	.st16{fill:#416579;}
	.st17{fill:#D95857;}
	.st18{fill:#B75151;}
	.st19{fill:#5AA862;}
	.st20{clip-path:url(#SVGID_6_);}
	.st21{fill:#00749A;}
	.st22{fill:#464342;}
	.st23{fill:#001E36;}
	.st24{fill:#31A8FF;}
	.st25{fill:#330000;}
	.st26{fill:#FF9A00;}
	.st27{fill:#00005B;}
	.st28{fill:#9999FF;}
	.st29{clip-path:url(#SVGID_8_);}
	.st30{clip-path:url(#SVGID_10_);fill:#536B7F;}
	.st31{clip-path:url(#SVGID_10_);fill:#F87329;}
	.st32{clip-path:url(#SVGID_10_);fill-rule:evenodd;clip-rule:evenodd;fill:#F87329;}
	.st33{clip-path:url(#SVGID_10_);fill-rule:evenodd;clip-rule:evenodd;fill:#536B7F;}
	.st34{fill:#00C492;}
	.st35{fill:#008776;}
	.st36{fill:#2D4A5D;}
	.st37{fill:url(#SVGID_11_);}
	.st38{fill:#6181B6;}
	.st39{fill:#000004;}
	.st40{fill:#F7DF1E;}
	.st41{fill-rule:evenodd;clip-rule:evenodd;fill:#1A1918;}
	.st42{fill-rule:evenodd;clip-rule:evenodd;fill:#21609B;}
	.st43{fill:#47C5FB;}
	.st44{fill:#00569E;}
	.st45{fill:#00B5F8;}
	.st46{fill:url(#SVGID_12_);fill-opacity:0.8;}
	.st47{fill:#470137;}
	.st48{fill:#FF61F6;}
	.st49{fill:#0ACF83;}
	.st50{fill:#A259FF;}
	.st51{fill:#F24E1E;}
	.st52{fill:#FF7262;}
	.st53{fill:#1ABCFE;}
	.st54{fill:#FDB300;}
	.st55{fill:#EB6C00;}
	.st56{fill:#FDAD00;}
	.st57{fill:#FDD231;}
	.st58{fill:#FEEEB7;}
	.st59{fill:#563D7C;}
</style>
<g>
	<path class="st34" d="M55,131.1c-0.1-0.2-0.2-0.4-0.3-0.6c-0.6-1.3-0.7-2.8-0.5-4.2h-34l50.5-88.9l16.6,29.1l4.8-8.5L77.7,32.6
		c-1.4-2.6-4.1-4.4-7.1-4.7c-3,0.1-5.7,2-6.8,4.7l-51.2,89.9c-1.6,2.6-1.7,5.8-0.4,8.5c1.6,2.5,4.5,3.9,7.5,3.6h42.8
		C59.6,135,56.7,133.6,55,131.1L55,131.1z"/>
	<path class="st35" d="M153.6,122.6l-42-74c-1.4-2.7-4.1-4.5-7.1-4.7c-3,0.1-5.6,2-6.8,4.7l-5.4,9.5l4.8,8.5l7.5-13.3l41.6,73h-15.8
		c0.2,1.2,0.1,2.4-0.3,3.6c-0.1,0.3-0.2,0.5-0.3,0.7l-0.1,0.3c-1.7,2.5-4.6,3.9-7.6,3.8h24.7c3,0.1,5.9-1.4,7.6-3.8
		C155.6,128.2,155.3,125,153.6,122.6L153.6,122.6z"/>
	<path class="st36" d="M129.5,130.9l0.1-0.3c0.1-0.2,0.2-0.5,0.3-0.7c0.4-1.1,0.5-2.4,0.3-3.6c-0.2-1.3-0.7-2.5-1.4-3.7L97,66.6
		l-4.9-8.5l-4.8,8.5l-31.8,56c-0.6,1.1-1,2.4-1.2,3.7c-0.3,1.4-0.1,2.9,0.5,4.2c0.1,0.2,0.2,0.4,0.3,0.6c1.6,2.5,4.5,3.9,7.5,3.6
		h59.3C124.8,134.8,127.7,133.4,129.5,130.9L129.5,130.9z M92.2,75.1l29.1,51.2H63.1L92.2,75.1z"/>
</g>
</svg>
