<?xml version="1.0" encoding="utf-8"?>
<!-- Generator: Adobe Illustrator 24.1.1, SVG Export Plug-In . SVG Version: 6.00 Build 0)  -->
<svg version="1.1" id="Layer_1" xmlns="http://www.w3.org/2000/svg" xmlns:xlink="http://www.w3.org/1999/xlink" x="0px" y="0px"
	 viewBox="0 0 176 181" style="enable-background:new 0 0 176 181;" xml:space="preserve">
<style type="text/css">
	.st0{fill:#E34D25;}
	.st1{fill:#EE6528;}
	.st2{fill:#EBEBEB;}
	.st3{fill:#FFFFFF;}
	.st4{fill:#1F62AE;}
	.st5{fill:#3C9BD5;}
	.st6{fill:url(#SVGID_1_);}
	.st7{fill:url(#SVGID_2_);}
	.st8{fill:url(#SVGID_3_);}
	.st9{opacity:5.000000e-02;}
	.st10{fill:#231F20;}
	.st11{fill:url(#SVGID_4_);}
	.st12{opacity:5.000000e-02;fill:#231F20;}
	.st13{fill-rule:evenodd;clip-rule:evenodd;fill:#00B4F0;}
	.st14{fill:none;stroke:#00B4F0;stroke-width:10;stroke-miterlimit:10;}
	.st15{fill:#00B49C;}
	.st16{fill:#416579;}
	.st17{fill:#D95857;}
	.st18{fill:#B75151;}
	.st19{fill:#5AA862;}
	.st20{clip-path:url(#SVGID_6_);}
	.st21{fill:#00749A;}
	.st22{fill:#464342;}
	.st23{fill:#001E36;}
	.st24{fill:#31A8FF;}
	.st25{fill:#330000;}
	.st26{fill:#FF9A00;}
	.st27{fill:#00005B;}
	.st28{fill:#9999FF;}
	.st29{clip-path:url(#SVGID_8_);}
	.st30{clip-path:url(#SVGID_10_);fill:#536B7F;}
	.st31{clip-path:url(#SVGID_10_);fill:#F87329;}
	.st32{clip-path:url(#SVGID_10_);fill-rule:evenodd;clip-rule:evenodd;fill:#F87329;}
	.st33{clip-path:url(#SVGID_10_);fill-rule:evenodd;clip-rule:evenodd;fill:#536B7F;}
	.st34{fill:#00C492;}
	.st35{fill:#008776;}
	.st36{fill:#2D4A5D;}
	.st37{fill:url(#SVGID_11_);}
	.st38{fill:#6181B6;}
	.st39{fill:#000004;}
	.st40{fill:#F7DF1E;}
	.st41{fill-rule:evenodd;clip-rule:evenodd;fill:#1A1918;}
	.st42{fill-rule:evenodd;clip-rule:evenodd;fill:#21609B;}
	.st43{fill:#47C5FB;}
	.st44{fill:#00569E;}
	.st45{fill:#00B5F8;}
	.st46{fill:url(#SVGID_12_);fill-opacity:0.8;}
	.st47{fill:#470137;}
	.st48{fill:#FF61F6;}
	.st49{fill:#0ACF83;}
	.st50{fill:#A259FF;}
	.st51{fill:#F24E1E;}
	.st52{fill:#FF7262;}
	.st53{fill:#1ABCFE;}
	.st54{fill:#FDB300;}
	.st55{fill:#EB6C00;}
	.st56{fill:#FDAD00;}
	.st57{fill:#FDD231;}
	.st58{fill:#FEEEB7;}
	.st59{fill:#563D7C;}
</style>
<g>
	<g>
		<g>
			<g>
				<defs>
					<rect id="SVGID_5_" x="-179.2" y="19.7" width="139.3" height="139.3"/>
				</defs>
				<clipPath id="SVGID_1_">
					<use xlink:href="#SVGID_5_"  style="overflow:visible;"/>
				</clipPath>
				<g style="clip-path:url(#SVGID_1_);">
					<path class="st21" d="M177,74.5h-24.2v2.6c7.6,0,8.8,1.6,8.8,11.2v17.3c0,9.6-1.2,11.3-8.8,11.3c-5.8-0.8-9.7-3.9-15.1-9.9
						l-6.2-6.8c8.4-1.5,12.8-6.8,12.8-12.7c0-7.4-6.3-13.1-18.2-13.1h-23.8v2.6c7.6,0,8.8,1.6,8.8,11.2v17.3
						c0,9.6-1.2,11.3-8.8,11.3v2.6h26.9v-2.6c-7.6,0-8.8-1.8-8.8-11.3v-4.9h2.3l15,18.8H177c19.3,0,27.7-10.3,27.7-22.6
						C204.7,84.7,196.3,74.5,177,74.5L177,74.5z M120.4,96.5v-18h5.5c6.1,0,8.8,4.2,8.8,9c0,4.7-2.7,8.9-8.8,8.9L120.4,96.5
						L120.4,96.5z M177.4,115.3h-0.9c-4.9,0-5.5-1.2-5.5-7.4V78.6c0,0,5.9,0,6.5,0c14,0,16.6,10.3,16.6,18.2
						C194,105,191.5,115.3,177.4,115.3z"/>
					<path class="st21" d="M27.1,101.5L36.4,74c2.7-8,1.5-10.3-7.2-10.3V61h25.4v2.7c-8.5,0-10.5,2-13.9,11.9l-15.4,46.2h-1.8
						L9.8,79.5l-14,42.3H-6l-15-46.2c-3.2-9.9-5.4-11.9-13.2-11.9V61h30v2.7c-8,0-10.1,1.9-7.3,10.3l9,27.6L11.2,61h2.6L27.1,101.5z
						"/>
					<path class="st21" d="M73,121.3c-14.9,0-27-10.9-27-24.3c0-13.2,12.2-24.2,27-24.2c14.9,0,27,10.9,27,24.2
						C100,110.3,87.9,121.3,73,121.3z M73,77c-12.4,0-16.7,11.2-16.7,20c0,8.9,4.3,20,16.7,20c12.6,0,16.9-11.1,16.9-20
						C89.9,88.2,85.6,77,73,77z"/>
				</g>
			</g>
		</g>
	</g>
</g>
<g id="Layer_2_1_">
	<g id="Surfaces">
		<g id="Photo_Surface">
			<g id="Outline_no_shadow">
				<path class="st23" d="M43.4,30.8h84c12.7,0,23,10.3,23,23v80.8c0,12.7-10.3,23-23,23h-84c-12.7,0-23-10.3-23-23V53.8
					C20.4,41.1,30.7,30.8,43.4,30.8z"/>
			</g>
		</g>
	</g>
	<g id="Outlined_Mnemonics_Logos">
		<g id="Ps">
			<path class="st24" d="M49.7,119.7V63.9c0-0.4,0.2-0.6,0.5-0.6c0.9,0,1.8,0,3-0.1c1.3-0.1,2.7-0.1,4.1-0.1c1.5-0.1,3-0.1,4.7-0.1
				S65.4,63,67,63c4.4,0,8.1,0.5,11.2,1.7c2.7,0.9,5.2,2.4,7.3,4.4c1.7,1.7,3.1,3.8,4,6.2c0.8,2.3,1.2,4.6,1.2,7
				c0,4.7-1.1,8.5-3.3,11.5c-2.2,3-5.2,5.3-8.7,6.6c-3.7,1.4-7.8,1.8-12.2,1.8c-1.3,0-2.2,0-2.7-0.1c-0.5-0.1-1.3-0.1-2.3-0.1v17.4
				c0.1,0.4-0.2,0.7-0.6,0.8c-0.1,0-0.1,0-0.2,0H50.3C49.9,120.4,49.7,120.2,49.7,119.7z M61.5,73.8V92c0.8,0.1,1.5,0.1,2.1,0.1h2.9
				c2.1,0,4.2-0.3,6.2-1c1.7-0.5,3.3-1.5,4.4-2.9c1.1-1.4,1.7-3.2,1.7-5.6c0.1-1.7-0.4-3.4-1.2-4.8c-0.9-1.4-2.2-2.5-3.8-3.1
				c-2-0.8-4.2-1.1-6.4-1.1c-1.4,0-2.7,0-3.7,0.1C62.6,73.7,61.9,73.8,61.5,73.8L61.5,73.8z"/>
			<path class="st24" d="M124.5,88.7c-1.6-0.9-3.4-1.5-5.2-1.8c-2-0.4-4-0.7-6.1-0.7c-1.1-0.1-2.2,0.1-3.3,0.4
				c-0.7,0.2-1.3,0.5-1.7,1.1c-0.3,0.4-0.4,1-0.4,1.5s0.2,1,0.5,1.4c0.5,0.6,1.1,1.1,1.8,1.5c1.2,0.7,2.5,1.2,3.8,1.8
				c2.9,1,5.7,2.3,8.4,4c1.8,1.1,3.3,2.7,4.3,4.5c0.9,1.7,1.3,3.6,1.2,5.6c0.1,2.5-0.7,5.1-2.1,7.2c-1.5,2.2-3.6,3.8-6.1,4.8
				c-2.7,1.1-5.9,1.7-9.8,1.7c-2.5,0-4.9-0.2-7.4-0.7c-1.9-0.3-3.8-0.9-5.5-1.7c-0.4-0.2-0.7-0.6-0.6-1v-9.4c0-0.2,0.1-0.4,0.2-0.5
				c0.2-0.1,0.3-0.1,0.5,0.1c2.1,1.2,4.3,2.1,6.7,2.7c2.1,0.5,4.2,0.8,6.4,0.8c2.1,0,3.5-0.3,4.5-0.8c0.9-0.4,1.5-1.3,1.5-2.3
				c0-0.8-0.4-1.5-1.3-2.2c-0.9-0.7-2.7-1.5-5.3-2.5c-2.8-1-5.3-2.3-7.7-3.9c-1.7-1.2-3.1-2.8-4.1-4.6c-0.9-1.7-1.3-3.6-1.2-5.5
				c0-2.3,0.7-4.6,1.8-6.6c1.4-2.2,3.4-3.9,5.7-5c2.5-1.3,5.7-1.9,9.6-1.9c2.2,0,4.5,0.2,6.7,0.5c1.6,0.2,3.2,0.7,4.7,1.2
				c0.2,0.1,0.4,0.3,0.5,0.5c0.1,0.2,0.1,0.4,0.1,0.7v8.8c0,0.2-0.1,0.4-0.3,0.5C125,88.8,124.7,88.8,124.5,88.7z"/>
		</g>
	</g>
</g>
</svg>
