<?xml version="1.0" encoding="utf-8"?>
<!-- Generator: Adobe Illustrator 24.1.1, SVG Export Plug-In . SVG Version: 6.00 Build 0)  -->
<svg version="1.1" id="Layer_1" xmlns="http://www.w3.org/2000/svg" xmlns:xlink="http://www.w3.org/1999/xlink" x="0px" y="0px"
	 viewBox="0 0 176 181" style="enable-background:new 0 0 176 181;" xml:space="preserve">
<style type="text/css">
	.st0{fill:#E34D25;}
	.st1{fill:#EE6528;}
	.st2{fill:#EBEBEB;}
	.st3{fill:#FFFFFF;}
	.st4{fill:#1F62AE;}
	.st5{fill:#3C9BD5;}
	.st6{fill:url(#SVGID_1_);}
	.st7{fill:url(#SVGID_2_);}
	.st8{fill:url(#SVGID_3_);}
	.st9{opacity:5.000000e-02;}
	.st10{fill:#231F20;}
	.st11{fill:url(#SVGID_4_);}
	.st12{opacity:5.000000e-02;fill:#231F20;}
	.st13{fill-rule:evenodd;clip-rule:evenodd;fill:#00B4F0;}
	.st14{fill:none;stroke:#00B4F0;stroke-width:8;stroke-miterlimit:10;}
	.st15{fill:#00B49C;}
	.st16{fill:#416579;}
	.st17{fill:#D95857;}
	.st18{fill:#B75151;}
	.st19{fill:#5AA862;}
	.st20{clip-path:url(#SVGID_6_);}
	.st21{fill:#00749A;}
	.st22{fill:#464342;}
	.st23{fill:#001E36;}
	.st24{fill:#31A8FF;}
	.st25{fill:#330000;}
	.st26{fill:#FF9A00;}
	.st27{fill:#00005B;}
	.st28{fill:#9999FF;}
	.st29{clip-path:url(#SVGID_8_);}
	.st30{clip-path:url(#SVGID_10_);fill:#536B7F;}
	.st31{clip-path:url(#SVGID_10_);fill:#F87329;}
	.st32{clip-path:url(#SVGID_10_);fill-rule:evenodd;clip-rule:evenodd;fill:#F87329;}
	.st33{clip-path:url(#SVGID_10_);fill-rule:evenodd;clip-rule:evenodd;fill:#536B7F;}
	.st34{fill:#00C492;}
	.st35{fill:#008776;}
	.st36{fill:#2D4A5D;}
	.st37{fill:none;}
	.st38{fill:#6181B6;}
	.st39{fill:#000004;}
	.st40{fill:#F7DF1E;}
	.st41{fill-rule:evenodd;clip-rule:evenodd;fill:#1A1918;}
	.st42{fill-rule:evenodd;clip-rule:evenodd;fill:#21609B;}
	.st43{fill:#47C5FB;}
	.st44{fill:#00569E;}
	.st45{fill:#00B5F8;}
	.st46{fill:url(#SVGID_11_);fill-opacity:0.8;}
	.st47{fill:#470137;}
	.st48{fill:#FF61F6;}
	.st49{fill:#0ACF83;}
	.st50{fill:#A259FF;}
	.st51{fill:#F24E1E;}
	.st52{fill:#FF7262;}
	.st53{fill:#1ABCFE;}
	.st54{fill:#563D7C;}
	.st55{fill:#FF2D20;}
</style>
<ellipse class="st37" cx="88" cy="95" rx="77.9" ry="40.9"/>
<ellipse class="st38" cx="88" cy="95" rx="74.8" ry="37.9"/>
<g>
	<path class="st37" d="M32.6,117.8c-0.1,0.4,0,0.7,0.2,1s0.5,0.4,0.9,0.4h8.9c0.6,0,1.1-0.4,1.2-1l1.9-9.9h6.6
		c3.5,0,6.4-0.4,8.7-1.1c2.4-0.8,4.5-2.1,6.4-3.8c1.5-1.4,2.8-3,3.8-4.7l-1.6,8.2c-0.1,0.4,0,0.7,0.2,1c0.2,0.3,0.5,0.4,0.9,0.4h8.9
		c0.6,0,1.1-0.4,1.2-1l4.4-22.5h6.1c2.6,0,3.3,0.5,3.6,0.7c0.2,0.2,0.5,0.9,0.1,3.2L91.7,107c-0.1,0.4,0,0.7,0.2,1s0.5,0.4,0.9,0.4
		h9.1c0.5-0.2,1-0.6,1.2-1.2l3.7-19.1c0.9-4.3,0.1-7.5-2.1-9.6c-2.1-1.9-5.8-2.9-11.1-2.9h-6.4l1.8-9.5c0.1-0.4,0-0.7-0.2-1
		s-0.5-0.4-0.9-0.4H79c-0.6,0-1.1,0.4-1.2,1l-4,20.3c-0.4-2.3-1.2-4.3-2.7-5.8c-2.6-3-6.7-4.5-12.2-4.5H41.8c-0.6,0-1.1,0.4-1.2,1
		 M62,91.5c-0.5,2.9-1.6,4.9-3.1,6.1c-1.5,1.2-4,1.8-7.3,1.8h-4l2.9-14.7h5.1c3.8,0,5.3,0.8,5.9,1.5C62.3,87,62.5,88.9,62,91.5z"/>
	<path class="st37" d="M141.1,80.2c-2.6-3-6.7-4.5-12.2-4.5h-17.2c-0.6,0-1.1,0.4-1.2,1l-8,41.1c-0.1,0.4,0,0.7,0.2,1
		c0.2,0.3,0.5,0.4,0.9,0.4h8.9c0.6,0,1.1-0.4,1.2-1l1.9-9.9h6.6c3.5,0,6.4-0.4,8.7-1.1c2.4-0.8,4.5-2.1,6.4-3.8
		c1.6-1.5,2.9-3.1,3.9-4.9c1-1.8,1.7-3.7,2.1-5.8C144.5,87.3,143.7,83.2,141.1,80.2z M131.8,91.5c-0.5,2.9-1.6,4.9-3.1,6.1
		c-1.5,1.2-4,1.8-7.3,1.8h-4l2.9-14.7h5.1c3.8,0,5.3,0.8,5.9,1.5C132.2,87,132.3,88.9,131.8,91.5z"/>
</g>
<path class="st39" d="M58.6,84.7c2.9,0,4.8,0.5,5.8,1.6c1,1.1,1.2,2.9,0.7,5.5c-0.5,2.7-1.5,4.6-3,5.8c-1.5,1.1-3.8,1.7-6.8,1.7
	h-4.6l2.8-14.5H58.6z M40.1,114h7.6l1.8-9.2H56c2.9,0,5.2-0.3,7.1-0.9c1.9-0.6,3.5-1.6,5.1-3c1.3-1.2,2.3-2.5,3.1-3.9
	c0.8-1.4,1.3-2.9,1.7-4.6c0.8-4.1,0.2-7.3-1.8-9.6s-5.2-3.5-9.6-3.5H46.9L40.1,114z"/>
<path class="st39" d="M80.5,69.9H88l-1.8,9.2h6.7c4.2,0,7.1,0.7,8.7,2.2c1.6,1.5,2.1,3.9,1.4,7.2l-3.1,16.2h-7.6l3-15.4
	c0.4-1.8,0.2-2.9-0.4-3.6c-0.6-0.6-1.9-1-3.8-1h-6l-3.9,20h-7.5L80.5,69.9z"/>
<path class="st39" d="M121.8,84.7c2.9,0,4.8,0.5,5.8,1.6c1,1.1,1.2,2.9,0.7,5.5c-0.5,2.7-1.5,4.6-3,5.8c-1.5,1.1-3.8,1.7-6.8,1.7
	h-4.6l2.8-14.5H121.8z M103.3,114h7.6l1.8-9.2h6.5c2.9,0,5.2-0.3,7.1-0.9c1.9-0.6,3.5-1.6,5.1-3c1.3-1.2,2.3-2.5,3.1-3.9
	c0.8-1.4,1.3-2.9,1.7-4.6c0.8-4.1,0.2-7.3-1.8-9.6s-5.2-3.5-9.6-3.5h-14.6L103.3,114z"/>
</svg>
