<?xml version="1.0" encoding="utf-8"?>
<!-- Generator: Adobe Illustrator 24.1.1, SVG Export Plug-In . SVG Version: 6.00 Build 0)  -->
<svg version="1.1" id="Layer_1" xmlns="http://www.w3.org/2000/svg" xmlns:xlink="http://www.w3.org/1999/xlink" x="0px" y="0px"
	 viewBox="0 0 176 181" style="enable-background:new 0 0 176 181;" xml:space="preserve">
<style type="text/css">
	.st0{fill:#E34D25;}
	.st1{fill:#EE6528;}
	.st2{fill:#EBEBEB;}
	.st3{fill:#FFFFFF;}
	.st4{fill:#1F62AE;}
	.st5{fill:#3C9BD5;}
	.st6{fill:url(#SVGID_1_);}
	.st7{fill:url(#SVGID_2_);}
	.st8{fill:url(#SVGID_3_);}
	.st9{opacity:5.000000e-02;}
	.st10{fill:#231F20;}
	.st11{fill:url(#SVGID_4_);}
	.st12{opacity:5.000000e-02;fill:#231F20;}
	.st13{fill-rule:evenodd;clip-rule:evenodd;fill:#00B4F0;}
	.st14{fill:none;stroke:#00B4F0;stroke-width:8;stroke-miterlimit:10;}
	.st15{fill:#00B49C;}
	.st16{fill:#416579;}
	.st17{fill:#D95857;}
	.st18{fill:#B75151;}
	.st19{fill:#5AA862;}
	.st20{clip-path:url(#SVGID_6_);}
	.st21{fill:#00749A;}
	.st22{fill:#464342;}
	.st23{fill:#001E36;}
	.st24{fill:#31A8FF;}
	.st25{fill:#330000;}
	.st26{fill:#FF9A00;}
	.st27{fill:#00005B;}
	.st28{fill:#9999FF;}
	.st29{clip-path:url(#SVGID_8_);}
	.st30{clip-path:url(#SVGID_10_);fill:#536B7F;}
	.st31{clip-path:url(#SVGID_10_);fill:#F87329;}
	.st32{clip-path:url(#SVGID_10_);fill-rule:evenodd;clip-rule:evenodd;fill:#F87329;}
	.st33{clip-path:url(#SVGID_10_);fill-rule:evenodd;clip-rule:evenodd;fill:#536B7F;}
	.st34{fill:#00C492;}
	.st35{fill:#008776;}
	.st36{fill:#2D4A5D;}
	.st37{fill:url(#SVGID_11_);}
	.st38{fill:#6181B6;}
	.st39{fill:#000004;}
	.st40{fill:#F7DF1E;}
	.st41{fill-rule:evenodd;clip-rule:evenodd;fill:#1A1918;}
	.st42{fill-rule:evenodd;clip-rule:evenodd;fill:#21609B;}
	.st43{fill:#47C5FB;}
	.st44{fill:#00569E;}
	.st45{fill:#00B5F8;}
	.st46{fill:url(#SVGID_12_);fill-opacity:0.8;}
	.st47{fill:#470137;}
	.st48{fill:#FF61F6;}
	.st49{fill:#0ACF83;}
	.st50{fill:#A259FF;}
	.st51{fill:#F24E1E;}
	.st52{fill:#FF7262;}
	.st53{fill:#1ABCFE;}
	.st54{fill:#FDB300;}
	.st55{fill:#EB6C00;}
	.st56{fill:#FDAD00;}
	.st57{fill:#FDD231;}
	.st58{fill:#FEEEB7;}
	.st59{fill:#563D7C;}
</style>
<circle class="st13" cx="92" cy="90.4" r="13.8"/>
<g>
	<path class="st14" d="M92,62.3c18.6,0,35.8,2.7,48.8,7.1c15.7,5.4,25.3,13.6,25.3,21c0,7.7-10.2,16.4-27,22
		c-12.7,4.2-29.5,6.4-47.1,6.4c-18.1,0-35.2-2.1-48-6.5C27.7,106.8,17.9,98,17.9,90.4c0-7.3,9.2-15.5,24.6-20.8
		C55.6,65.1,73.3,62.3,92,62.3L92,62.3z"/>
	<path class="st14" d="M67.5,76.5c9.3-16.1,20.2-29.7,30.6-38.7c12.5-10.9,24.4-15.1,30.8-11.4c6.7,3.9,9.1,17,5.5,34.4
		c-2.7,13.1-9.2,28.7-18,44c-9,15.7-19.4,29.4-29.6,38.4c-12.9,11.3-25.5,15.4-32,11.6c-6.4-3.7-8.8-15.7-5.7-31.8
		C51.7,109.4,58.2,92.7,67.5,76.5L67.5,76.5z"/>
	<path class="st14" d="M67.5,104.7c-9.3-16.1-15.6-32.3-18.3-45.8c-3.2-16.3-0.9-28.7,5.5-32.4c6.7-3.9,19.3,0.6,32.6,12.4
		c10,8.9,20.3,22.3,29.1,37.5c9.1,15.6,15.8,31.5,18.5,44.8c3.3,16.9,0.6,29.8-5.9,33.6c-6.4,3.7-18-0.2-30.4-10.9
		C88.2,134.9,76.9,121,67.5,104.7L67.5,104.7z"/>
</g>
</svg>
