<?xml version="1.0" encoding="utf-8"?>
<!-- Generator: Adobe Illustrator 24.1.1, SVG Export Plug-In . SVG Version: 6.00 Build 0)  -->
<svg version="1.1" id="Layer_1" xmlns="http://www.w3.org/2000/svg" xmlns:xlink="http://www.w3.org/1999/xlink" x="0px" y="0px"
	 viewBox="0 0 176 181" style="enable-background:new 0 0 176 181;" xml:space="preserve">
<style type="text/css">
	.st0{fill:#E34D25;}
	.st1{fill:#EE6528;}
	.st2{fill:#EBEBEB;}
	.st3{fill:#FFFFFF;}
	.st4{fill:#1F62AE;}
	.st5{fill:#3C9BD5;}
	.st6{fill:url(#SVGID_1_);}
	.st7{fill:url(#SVGID_2_);}
	.st8{fill:url(#SVGID_3_);}
	.st9{opacity:5.000000e-02;}
	.st10{fill:#231F20;}
	.st11{fill:url(#SVGID_4_);}
	.st12{opacity:5.000000e-02;fill:#231F20;}
	.st13{fill-rule:evenodd;clip-rule:evenodd;fill:#00B4F0;}
	.st14{fill:none;stroke:#00B4F0;stroke-width:10;stroke-miterlimit:10;}
	.st15{fill:#00B49C;}
	.st16{fill:#416579;}
	.st17{fill:#D95857;}
	.st18{fill:#B75151;}
	.st19{fill:#5AA862;}
	.st20{clip-path:url(#SVGID_6_);}
	.st21{fill:#00749A;}
	.st22{fill:#464342;}
	.st23{fill:#001E36;}
	.st24{fill:#31A8FF;}
	.st25{fill:#330000;}
	.st26{fill:#FF9A00;}
	.st27{fill:#00005B;}
	.st28{fill:#9999FF;}
	.st29{clip-path:url(#SVGID_8_);}
	.st30{clip-path:url(#SVGID_10_);fill:#536B7F;}
	.st31{clip-path:url(#SVGID_10_);fill:#F87329;}
	.st32{clip-path:url(#SVGID_10_);fill-rule:evenodd;clip-rule:evenodd;fill:#F87329;}
	.st33{clip-path:url(#SVGID_10_);fill-rule:evenodd;clip-rule:evenodd;fill:#536B7F;}
	.st34{fill:#00C492;}
	.st35{fill:#008776;}
	.st36{fill:#2D4A5D;}
	.st37{fill:url(#SVGID_11_);}
	.st38{fill:#6181B6;}
	.st39{fill:#000004;}
	.st40{fill:#F7DF1E;}
	.st41{fill-rule:evenodd;clip-rule:evenodd;fill:#1A1918;}
	.st42{fill-rule:evenodd;clip-rule:evenodd;fill:#21609B;}
	.st43{fill:#47C5FB;}
	.st44{fill:#00569E;}
	.st45{fill:#00B5F8;}
	.st46{fill:url(#SVGID_12_);fill-opacity:0.8;}
	.st47{fill:#470137;}
	.st48{fill:#FF61F6;}
	.st49{fill:#0ACF83;}
	.st50{fill:#A259FF;}
	.st51{fill:#F24E1E;}
	.st52{fill:#FF7262;}
	.st53{fill:#1ABCFE;}
	.st54{fill:#FDB300;}
	.st55{fill:#EB6C00;}
	.st56{fill:#FDAD00;}
	.st57{fill:#FDD231;}
	.st58{fill:#FEEEB7;}
	.st59{fill:#563D7C;}
</style>
<g>
	<g>
		<g>
			<g>
				<defs>
					<rect id="SVGID_5_" x="16.8" y="19.7" width="139.3" height="139.3"/>
				</defs>
				<clipPath id="SVGID_1_">
					<use xlink:href="#SVGID_5_"  style="overflow:visible;"/>
				</clipPath>
				<g style="clip-path:url(#SVGID_1_);">
					<path class="st21" d="M223.1,101.5l9.3-27.6c2.7-8,1.5-10.3-7.2-10.3V61h25.4v2.7c-8.5,0-10.5,2-13.9,11.9l-15.4,46.2h-1.8
						l-13.8-42.3l-14,42.3H190l-15-46.2c-3.2-9.9-5.4-11.9-13.2-11.9V61h30v2.7c-8,0-10.1,1.9-7.3,10.3l9,27.6L207.2,61h2.6
						L223.1,101.5z"/>
					<g>
						<path class="st21" d="M26.7,89.3c0,23.7,13.7,44.1,33.7,53.8L31.9,65C28.6,72.5,26.7,80.7,26.7,89.3z"/>
						<path class="st21" d="M126.9,86.3c0-7.4-2.7-12.5-4.9-16.5c-3-4.9-5.9-9.1-5.9-14c0-5.5,4.2-10.6,10-10.6c0.3,0,0.5,0,0.8,0
							c-10.6-9.7-24.8-15.7-40.4-15.7c-20.9,0-39.3,10.7-49.9,26.9c1.4,0,2.7,0.1,3.8,0.1c6.3,0,15.9-0.8,15.9-0.8
							c3.2-0.2,3.6,4.5,0.4,4.9c0,0-3.2,0.4-6.8,0.6l21.8,64.7l13.1-39.2l-9.3-25.5c-3.2-0.2-6.3-0.6-6.3-0.6
							c-3.2-0.2-2.8-5.1,0.4-4.9c0,0,9.9,0.8,15.7,0.8c6.3,0,15.9-0.8,15.9-0.8c3.2-0.2,3.6,4.5,0.4,4.9c0,0-3.2,0.4-6.8,0.6
							l21.6,64.3l6-19.9C124.9,97.4,126.9,91.4,126.9,86.3z"/>
						<path class="st21" d="M87.6,94.6l-17.9,52.1c5.4,1.6,11,2.4,16.9,2.4c7,0,13.6-1.2,19.8-3.4c-0.2-0.3-0.3-0.5-0.4-0.8
							L87.6,94.6z"/>
						<path class="st21" d="M139,60.7c0.3,1.9,0.4,3.9,0.4,6.1c0,6.1-1.1,12.9-4.5,21.4L116.6,141c17.8-10.4,29.7-29.6,29.7-51.7
							C146.3,79,143.6,69.2,139,60.7z"/>
						<path class="st21" d="M86.5,19.7c-38.4,0-69.7,31.3-69.7,69.7c0,38.4,31.3,69.7,69.7,69.7c38.4,0,69.7-31.3,69.7-69.7
							C156.2,50.9,124.9,19.7,86.5,19.7z M86.5,155.8C49.9,155.8,20,126,20,89.3c0-36.7,29.8-66.5,66.5-66.5
							c36.7,0,66.5,29.8,66.5,66.5C153,126,123.2,155.8,86.5,155.8z"/>
					</g>
				</g>
			</g>
		</g>
	</g>
</g>
</svg>
