<?xml version="1.0" encoding="utf-8"?>
<!-- Generator: Adobe Illustrator 16.0.3, SVG Export Plug-In . SVG Version: 6.00 Build 0)  -->
<!DOCTYPE svg PUBLIC "-//W3C//DTD SVG 1.1//EN" "http://www.w3.org/Graphics/SVG/1.1/DTD/svg11.dtd">
<svg version="1.1" xmlns="http://www.w3.org/2000/svg" xmlns:xlink="http://www.w3.org/1999/xlink" x="0px" y="0px" width="100px"
	 height="100px" viewBox="0 0 100 100" enable-background="new 0 0 100 100" xml:space="preserve">
<g id="Layer_1">
	<path fill="#FFFFFF" d="M81.126,30.46c-3.274-6.258-2.109-17.163-8.047-20.945c-5.754-3.666-14.955,1.979-22.25,1.687
		c-7.295-0.293-16.021-6.657-22.047-3.464c-6.216,3.295-5.917,14.26-9.677,20.234c-3.642,5.792-13.698,10.14-13.988,17.481
		C4.826,52.794,14.505,57.935,17.679,64c3.273,6.255,2.109,17.16,8.046,20.943c5.754,3.665,14.956-1.979,22.25-1.688
		c7.294,0.293,16.021,6.656,22.047,3.463c6.216-3.294,5.918-14.259,9.676-20.233c3.643-5.793,13.698-10.14,13.989-17.48
		C93.979,41.664,84.3,36.525,81.126,30.46z"/>
	<path fill="#D4E1F4" d="M88.846,49.569c-0.07,0-0.144-0.028-0.197-0.084l-0.842-0.84c-0.109-0.11-0.109-0.288,0-0.396
		c0.11-0.111,0.287-0.111,0.398,0l0.84,0.841c0.108,0.108,0.108,0.288,0,0.396C88.989,49.541,88.919,49.569,88.846,49.569z"/>
	<path fill="#D4E1F4" d="M90.81,51.531c-0.071,0-0.143-0.028-0.197-0.082l-0.842-0.841c-0.108-0.111-0.108-0.287,0-0.396
		c0.109-0.111,0.286-0.111,0.396,0l0.841,0.841c0.109,0.109,0.109,0.285,0,0.396C90.953,51.503,90.881,51.531,90.81,51.531z"/>
	<path fill="#D4E1F4" d="M88.004,51.531c-0.071,0-0.144-0.028-0.197-0.082c-0.109-0.111-0.109-0.287,0-0.396l0.842-0.841
		c0.109-0.111,0.286-0.111,0.396,0c0.108,0.109,0.108,0.285,0,0.396l-0.84,0.841C88.148,51.503,88.076,51.531,88.004,51.531z"/>
	<path fill="#D4E1F4" d="M89.969,49.569c-0.071,0-0.144-0.028-0.198-0.084c-0.108-0.107-0.108-0.287,0-0.396l0.842-0.841
		c0.109-0.111,0.287-0.111,0.396,0c0.109,0.108,0.109,0.286,0,0.396l-0.841,0.84C90.11,49.541,90.039,49.569,89.969,49.569z"/>
	<path fill="#D4E1F4" d="M86.899,67.682c-0.071,0-0.145-0.03-0.198-0.084l-0.843-0.843c-0.107-0.109-0.107-0.287,0-0.396
		c0.111-0.107,0.287-0.107,0.399,0l0.84,0.843c0.108,0.109,0.108,0.285,0,0.396C87.043,67.651,86.973,67.682,86.899,67.682z"/>
	<path fill="#D4E1F4" d="M88.862,69.644c-0.071,0-0.144-0.025-0.197-0.083l-0.843-0.843c-0.108-0.107-0.108-0.285,0-0.395
		c0.109-0.112,0.288-0.112,0.397,0l0.843,0.841c0.108,0.109,0.108,0.285,0,0.396C89.006,69.618,88.935,69.644,88.862,69.644z"/>
	<path fill="#D4E1F4" d="M86.059,69.644c-0.073,0-0.145-0.025-0.2-0.083c-0.107-0.111-0.107-0.287,0-0.396l0.843-0.841
		c0.109-0.112,0.286-0.112,0.396,0c0.108,0.109,0.108,0.287,0,0.395l-0.84,0.843C86.203,69.618,86.13,69.644,86.059,69.644z"/>
	<path fill="#D4E1F4" d="M88.022,67.682c-0.072,0-0.145-0.03-0.2-0.084c-0.108-0.111-0.108-0.287,0-0.396l0.843-0.843
		c0.109-0.107,0.287-0.107,0.397,0c0.108,0.109,0.108,0.287,0,0.396l-0.843,0.843C88.165,67.651,88.092,67.682,88.022,67.682z"/>
	<path fill="#D4E1F4" d="M9.736,45.043c-0.071,0-0.143-0.028-0.197-0.082L8.697,44.12c-0.109-0.11-0.109-0.288,0-0.397
		c0.11-0.107,0.288-0.107,0.396,0l0.841,0.842c0.111,0.108,0.111,0.285,0,0.396C9.879,45.015,9.808,45.043,9.736,45.043z"/>
	<path fill="#D4E1F4" d="M11.7,47.006c-0.073,0-0.144-0.028-0.2-0.082l-0.84-0.841c-0.109-0.11-0.109-0.287,0-0.397
		c0.108-0.11,0.286-0.11,0.396,0l0.841,0.84c0.11,0.111,0.11,0.289,0,0.398C11.843,46.978,11.771,47.006,11.7,47.006z"/>
	<path fill="#D4E1F4" d="M8.895,47.006c-0.071,0-0.144-0.028-0.198-0.082c-0.109-0.109-0.109-0.287,0-0.398l0.842-0.84
		c0.11-0.11,0.286-0.11,0.395,0c0.111,0.11,0.111,0.287,0,0.397l-0.841,0.841C9.04,46.978,8.969,47.006,8.895,47.006z"/>
	<path fill="#D4E1F4" d="M10.858,45.043c-0.071,0-0.143-0.028-0.197-0.082c-0.109-0.112-0.109-0.289,0-0.396l0.84-0.842
		c0.11-0.107,0.288-0.107,0.397,0c0.11,0.109,0.11,0.287,0,0.397l-0.841,0.842C11.002,45.015,10.93,45.043,10.858,45.043z"/>
	<path fill="#D4E1F4" d="M40.524,13.995c-0.073,0-0.144-0.027-0.198-0.082l-0.842-0.841c-0.108-0.11-0.108-0.286,0-0.397
		c0.109-0.108,0.288-0.108,0.398,0l0.84,0.841c0.112,0.111,0.112,0.288,0,0.398C40.667,13.968,40.595,13.995,40.524,13.995z"/>
	<path fill="#D4E1F4" d="M42.487,15.958c-0.072,0-0.146-0.027-0.198-0.083l-0.842-0.841c-0.11-0.109-0.11-0.287,0-0.397
		c0.11-0.109,0.286-0.109,0.396,0l0.842,0.842c0.109,0.11,0.109,0.288,0,0.396C42.63,15.931,42.559,15.958,42.487,15.958z"/>
	<path fill="#D4E1F4" d="M39.683,15.958c-0.072,0-0.143-0.027-0.199-0.083c-0.108-0.109-0.108-0.287,0-0.396l0.842-0.842
		c0.109-0.109,0.285-0.109,0.396,0c0.112,0.111,0.112,0.288,0,0.397l-0.84,0.841C39.828,15.931,39.756,15.958,39.683,15.958z"/>
	<path fill="#D4E1F4" d="M41.645,13.995c-0.072,0-0.143-0.027-0.197-0.082c-0.11-0.11-0.11-0.287,0-0.398l0.842-0.841
		c0.11-0.108,0.286-0.108,0.396,0c0.109,0.111,0.109,0.288,0,0.397l-0.842,0.841C41.791,13.968,41.718,13.995,41.645,13.995z"/>
	<path fill="#D4E1F4" d="M60.616,19.427c-0.072,0-0.142-0.028-0.197-0.083l-0.843-0.841c-0.108-0.11-0.108-0.287,0-0.396
		c0.11-0.11,0.287-0.11,0.397,0l0.841,0.84c0.11,0.111,0.11,0.288,0,0.397C60.76,19.399,60.687,19.427,60.616,19.427z"/>
	<path fill="#D4E1F4" d="M62.579,21.391c-0.072,0-0.144-0.028-0.198-0.083l-0.841-0.841c-0.109-0.11-0.109-0.287,0-0.396
		c0.108-0.109,0.285-0.109,0.395,0l0.844,0.84c0.109,0.109,0.109,0.288,0,0.397C62.725,21.363,62.65,21.391,62.579,21.391z"/>
	<path fill="#D4E1F4" d="M59.774,21.391c-0.07,0-0.144-0.028-0.198-0.083c-0.108-0.11-0.108-0.288,0-0.397l0.843-0.84
		c0.109-0.109,0.286-0.109,0.396,0c0.11,0.109,0.11,0.287,0,0.396l-0.841,0.841C59.919,21.363,59.847,21.391,59.774,21.391z"/>
	<path fill="#D4E1F4" d="M61.739,19.427c-0.071,0-0.145-0.028-0.199-0.083c-0.109-0.109-0.109-0.286,0-0.397l0.841-0.84
		c0.109-0.11,0.286-0.11,0.397,0c0.109,0.109,0.109,0.286,0,0.396l-0.844,0.841C61.883,19.399,61.809,19.427,61.739,19.427z"/>
	<path fill="#A09CAD" d="M93.694,89.436H5.11c-0.288,0-0.521-0.231-0.521-0.519c0-0.289,0.233-0.523,0.521-0.523h88.584
		c0.288,0,0.521,0.234,0.521,0.523C94.216,89.204,93.982,89.436,93.694,89.436z"/>
	<path fill="#F2F2F2" d="M83.272,74.325H15.532V30.033c0-1.439,1.167-2.604,2.606-2.604h62.53c1.438,0,2.604,1.166,2.604,2.604
		V74.325z"/>
	<path fill="#34234D" d="M15.532,40.976c-0.288,0-0.521-0.233-0.521-0.521V30.033c0-1.724,1.402-3.126,3.127-3.126h42.729
		c0.288,0,0.521,0.233,0.521,0.521c0,0.288-0.232,0.521-0.521,0.521H18.138c-1.15,0-2.084,0.935-2.084,2.083v10.422
		C16.053,40.743,15.82,40.976,15.532,40.976z"/>
	<path fill="#34234D" d="M83.272,54.525c-0.288,0-0.521-0.234-0.521-0.521V30.033c0-1.148-0.934-2.083-2.083-2.083H69.726
		c-0.289,0-0.521-0.233-0.521-0.521c0-0.289,0.232-0.521,0.521-0.521h10.942c1.724,0,3.125,1.402,3.125,3.126v23.971
		C83.793,54.291,83.561,54.525,83.272,54.525z"/>
	<path fill="#34234D" d="M83.272,74.847H15.532c-0.288,0-0.521-0.231-0.521-0.521V43.582c0-0.288,0.233-0.521,0.521-0.521
		s0.521,0.233,0.521,0.521v30.223h66.698V57.131c0-0.29,0.233-0.521,0.521-0.521s0.521,0.231,0.521,0.521v17.194
		C83.793,74.615,83.561,74.847,83.272,74.847z"/>
	<rect x="37.938" y="81.621" fill="#00B5F4" width="22.928" height="7.296"/>
	<path fill="#34234D" d="M60.866,89.436H37.938c-0.288,0-0.521-0.231-0.521-0.519v-7.296c0-0.289,0.233-0.521,0.521-0.521h22.928
		c0.288,0,0.521,0.231,0.521,0.521v7.296C61.387,89.204,61.154,89.436,60.866,89.436z M38.459,88.394h21.885v-6.251H38.459V88.394z"
		/>
	<path fill="#2FC8F2" d="M80.668,81.621h-62.53c-1.439,0-2.606-1.166-2.606-2.605v-4.69h67.741v4.69
		C83.272,80.455,82.106,81.621,80.668,81.621z"/>
	<path fill="#34234D" d="M80.668,82.143H33.77c-0.288,0-0.521-0.234-0.521-0.521c0-0.289,0.233-0.521,0.521-0.521h46.898
		c1.149,0,2.083-0.938,2.083-2.085v-4.169H16.053v4.169c0,1.147,0.934,2.085,2.084,2.085h12.505c0.288,0,0.521,0.231,0.521,0.521
		c0,0.287-0.233,0.521-0.521,0.521H18.138c-1.725,0-3.127-1.402-3.127-3.127v-4.69c0-0.287,0.233-0.521,0.521-0.521h67.741
		c0.288,0,0.521,0.233,0.521,0.521v4.69C83.793,80.74,82.392,82.143,80.668,82.143z"/>
	<path fill="#34234D" d="M72.331,89.436H26.475c-0.288,0-0.521-0.231-0.521-0.519c0-0.289,0.233-0.523,0.521-0.523h45.856
		c0.287,0,0.521,0.234,0.521,0.523C72.852,89.204,72.618,89.436,72.331,89.436z"/>
	<path fill="#FFFFFF" d="M53.05,79.016h-7.295c-0.575,0-1.042-0.468-1.042-1.042c0-0.577,0.467-1.043,1.042-1.043h7.295
		c0.575,0,1.043,0.466,1.043,1.043C54.093,78.548,53.625,79.016,53.05,79.016z"/>
	<g>
		<path fill="#2FC8F2" d="M30.982,54.847h6.244v13.111c0,0.688-0.559,1.251-1.249,1.251h-4.37c-0.345,0-0.625-0.281-0.625-0.627
			V54.847z"/>
		<path fill="#00B5F4" d="M32.855,54.847h4.371v13.111c0,0.688-0.559,1.251-1.249,1.251H33.48c-0.345,0-0.625-0.281-0.625-0.627
			V54.847z"/>
		<path fill="#E6E6E6" d="M59.081,63.588c-9.765-8.479-21.854-8.741-21.854-8.741V40.484c0,0,12.09-0.262,21.854-8.741V63.588z"/>
		<path fill="#FFFFFF" d="M59.081,58.904c-7.438-4.266-21.854-4.371-21.854-4.371V40.484c0,0,12.09-0.262,21.854-8.741V58.904z"/>
		<path fill="#FF6E86" d="M25.987,40.484h11.239v14.362H25.987c-1.725,0-3.122-1.398-3.122-3.122v-8.118
			C22.866,41.882,24.263,40.484,25.987,40.484z"/>
		<path fill="#FF5067" d="M25.987,42.358h11.239v12.489H25.987c-1.725,0-3.122-1.398-3.122-3.122V45.48
			C22.866,43.755,24.263,42.358,25.987,42.358z"/>
		<path fill="#00B5F4" d="M59.081,41.422v12.487C64.075,50.459,64.075,44.874,59.081,41.422z"/>
		<path fill="#34234D" d="M35.978,69.52h-4.37c-0.517,0-0.937-0.42-0.937-0.938V54.847c0-0.173,0.139-0.313,0.312-0.313h6.244
			c0.173,0,0.313,0.141,0.313,0.313c0,0.172-0.14,0.311-0.313,0.311h-5.932v13.425c0,0.172,0.141,0.313,0.313,0.313h4.37
			c0.517,0,0.937-0.42,0.937-0.938V56.719c0-0.172,0.14-0.313,0.312-0.313c0.173,0,0.313,0.142,0.313,0.313v11.239
			C37.539,68.818,36.838,69.52,35.978,69.52z"/>
		<rect x="55.022" y="34.556" fill="#E6E6E6" width="0.624" height="26.219"/>
		<path fill="#34234D" d="M59.081,63.901c-0.075,0-0.147-0.028-0.205-0.078c-9.568-8.31-21.536-8.663-21.656-8.666
			c-0.17-0.004-0.306-0.142-0.306-0.311V40.484c0-0.169,0.136-0.308,0.306-0.312c0.016-0.001,1.653-0.042,4.161-0.5
			c0.172-0.03,0.333,0.082,0.363,0.251c0.031,0.169-0.082,0.331-0.251,0.363c-1.951,0.358-3.364,0.466-3.954,0.499v13.765
			c1.915,0.111,12.452,1.057,21.229,8.363v-21.49c0-0.173,0.141-0.313,0.313-0.313c0.172,0,0.312,0.14,0.312,0.313v22.166
			c0,0.122-0.07,0.231-0.184,0.283C59.169,63.891,59.125,63.901,59.081,63.901z"/>
		<path fill="#34234D" d="M43.182,39.93c-0.142,0-0.271-0.097-0.304-0.242c-0.039-0.168,0.066-0.336,0.234-0.374
			c4.204-0.967,10.351-3.106,15.764-7.807c0.092-0.08,0.223-0.099,0.333-0.048c0.113,0.051,0.184,0.163,0.184,0.285v7.805
			c0,0.172-0.14,0.312-0.312,0.312c-0.173,0-0.313-0.14-0.313-0.312v-7.13c-5.38,4.48-11.376,6.552-15.515,7.504
			C43.229,39.928,43.205,39.93,43.182,39.93z"/>
		<path fill="#34234D" d="M37.227,55.157H25.987c-1.893,0-3.434-1.539-3.434-3.433v-8.118c0-1.894,1.542-3.435,3.434-3.435h11.239
			c0.173,0,0.313,0.14,0.313,0.312v14.362C37.539,55.019,37.399,55.157,37.227,55.157z M25.987,40.796
			c-1.549,0-2.81,1.261-2.81,2.811v8.118c0,1.549,1.26,2.809,2.81,2.809h10.927V40.796H25.987z"/>
		<path fill="#FFFFFF" d="M30.047,52.191c-0.432,0-0.781-0.349-0.781-0.78v-7.492c0-0.43,0.349-0.78,0.781-0.78
			c0.43,0,0.78,0.35,0.78,0.78v7.492C30.827,51.843,30.477,52.191,30.047,52.191z"/>
		<path fill="#FFFFFF" d="M33.792,52.191c-0.431,0-0.78-0.349-0.78-0.78v-7.492c0-0.43,0.35-0.78,0.78-0.78
			c0.431,0,0.781,0.35,0.781,0.78v7.492C34.573,51.843,34.223,52.191,33.792,52.191z"/>
		<path fill="#FFFFFF" d="M26.3,52.191c-0.431,0-0.781-0.349-0.781-0.78v-7.492c0-0.43,0.35-0.78,0.781-0.78
			c0.432,0,0.78,0.35,0.78,0.78v7.492C27.08,51.843,26.731,52.191,26.3,52.191z"/>
		<path fill="#34234D" d="M59.081,54.222c-0.051,0-0.099-0.012-0.146-0.035c-0.103-0.055-0.167-0.161-0.167-0.277V41.422
			c0-0.117,0.064-0.223,0.167-0.277c0.104-0.053,0.228-0.046,0.323,0.02c2.504,1.729,3.882,4.037,3.882,6.5
			c0,2.464-1.378,4.773-3.882,6.502C59.204,54.203,59.143,54.222,59.081,54.222z M59.393,42.037v11.259
			c2.02-1.561,3.123-3.543,3.123-5.631C62.516,45.577,61.412,43.596,59.393,42.037z"/>
		<path fill="#A09CAD" d="M62.827,56.405c-0.091,0-0.184-0.038-0.244-0.115c-0.107-0.136-0.086-0.333,0.049-0.439
			c2.743-2.192,4.254-5.1,4.254-8.186c0-3.084-1.511-5.992-4.254-8.185c-0.135-0.108-0.156-0.305-0.049-0.438
			c0.106-0.135,0.306-0.157,0.438-0.05c2.894,2.315,4.488,5.395,4.488,8.673c0,3.28-1.595,6.361-4.488,8.672
			C62.965,56.384,62.896,56.405,62.827,56.405z"/>
		<path fill="#A09CAD" d="M65.324,59.685c-0.093,0-0.186-0.041-0.246-0.12c-0.106-0.135-0.082-0.332,0.055-0.439
			c3.949-3.066,6.123-7.14,6.123-11.46s-2.174-8.391-6.123-11.46c-0.137-0.105-0.161-0.301-0.055-0.438
			c0.104-0.137,0.302-0.161,0.438-0.055c4.104,3.189,6.365,7.436,6.365,11.953c0,4.518-2.261,8.765-6.365,11.954
			C65.46,59.663,65.392,59.685,65.324,59.685z"/>
		<path fill="#A09CAD" d="M67.823,62.962c-0.095,0-0.188-0.041-0.249-0.12c-0.105-0.138-0.078-0.335,0.058-0.438
			c5.157-3.946,7.995-9.181,7.995-14.74c0-5.557-2.838-10.792-7.995-14.737c-0.136-0.104-0.163-0.301-0.058-0.437
			c0.104-0.137,0.301-0.164,0.438-0.059c5.313,4.067,8.24,9.477,8.24,15.233c0,5.757-2.927,11.167-8.24,15.235
			C67.956,62.942,67.889,62.962,67.823,62.962z"/>
	</g>
</g>
<g id="Layer_2">
</g>
</svg>
