<?xml version="1.0" encoding="utf-8"?>
<!-- Generator: Adobe Illustrator 16.0.3, SVG Export Plug-In . SVG Version: 6.00 Build 0)  -->
<!DOCTYPE svg PUBLIC "-//W3C//DTD SVG 1.1//EN" "http://www.w3.org/Graphics/SVG/1.1/DTD/svg11.dtd">
<svg version="1.1" xmlns="http://www.w3.org/2000/svg" xmlns:xlink="http://www.w3.org/1999/xlink" x="0px" y="0px" width="100px"
	 height="100px" viewBox="0 0 100 100" enable-background="new 0 0 100 100" xml:space="preserve">
<g id="Layer_1">
	<path fill="#FFFFFF" d="M74.964,35.718c-2.64-5.042-1.7-13.828-6.484-16.876c-4.636-2.954-12.05,1.595-17.928,1.359
		c-5.878-0.236-12.908-5.363-17.764-2.791c-5.009,2.655-4.768,11.49-7.797,16.303c-2.935,4.667-11.037,8.17-11.271,14.085
		c-0.234,5.914,7.565,10.056,10.122,14.942c2.637,5.04,1.699,13.827,6.483,16.875c4.636,2.953,12.05-1.595,17.927-1.359
		c5.878,0.236,12.909,5.363,17.765,2.79c5.008-2.653,4.768-11.489,7.796-16.303c2.935-4.668,11.037-8.17,11.271-14.084
		S77.521,40.604,74.964,35.718z"/>
	<path fill="#D4E1F4" d="M87.696,47.044c-0.081,0-0.165-0.032-0.227-0.096l-0.968-0.965c-0.126-0.126-0.126-0.331,0-0.456
		c0.127-0.128,0.33-0.128,0.458,0l0.965,0.966c0.125,0.125,0.125,0.331,0,0.455C87.861,47.012,87.78,47.044,87.696,47.044z"/>
	<path fill="#D4E1F4" d="M89.953,49.299c-0.082,0-0.164-0.032-0.227-0.094l-0.968-0.967c-0.124-0.128-0.124-0.33,0-0.455
		c0.126-0.128,0.329-0.128,0.456,0l0.967,0.966c0.125,0.126,0.125,0.328,0,0.456C90.118,49.267,90.035,49.299,89.953,49.299z"/>
	<path fill="#D4E1F4" d="M86.729,49.299c-0.082,0-0.165-0.032-0.227-0.094c-0.126-0.128-0.126-0.33,0-0.456l0.968-0.966
		c0.126-0.128,0.329-0.128,0.455,0c0.125,0.125,0.125,0.327,0,0.455l-0.965,0.967C86.895,49.267,86.812,49.299,86.729,49.299z"/>
	<path fill="#D4E1F4" d="M88.987,47.044c-0.082,0-0.165-0.032-0.229-0.096c-0.124-0.124-0.124-0.33,0-0.455l0.968-0.966
		c0.126-0.128,0.33-0.128,0.455,0c0.125,0.125,0.125,0.329,0,0.456l-0.967,0.965C89.149,47.012,89.067,47.044,88.987,47.044z"/>
	<path fill="#D4E1F4" d="M80.862,72.458c-0.082,0-0.166-0.035-0.228-0.097l-0.969-0.969c-0.124-0.126-0.124-0.33,0-0.456
		c0.128-0.123,0.33-0.123,0.459,0l0.965,0.969c0.125,0.126,0.125,0.328,0,0.456C81.027,72.423,80.946,72.458,80.862,72.458z"/>
	<path fill="#D4E1F4" d="M83.118,74.712c-0.082,0-0.165-0.028-0.227-0.095l-0.969-0.969c-0.124-0.124-0.124-0.328,0-0.453
		c0.126-0.13,0.331-0.13,0.457,0l0.969,0.966c0.124,0.126,0.124,0.328,0,0.456C83.283,74.684,83.201,74.712,83.118,74.712z"/>
	<path fill="#D4E1F4" d="M79.896,74.712c-0.085,0-0.167-0.028-0.23-0.095c-0.124-0.128-0.124-0.33,0-0.456l0.969-0.966
		c0.125-0.13,0.328-0.13,0.455,0c0.125,0.125,0.125,0.329,0,0.453l-0.965,0.969C80.063,74.684,79.978,74.712,79.896,74.712z"/>
	<path fill="#D4E1F4" d="M82.153,72.458c-0.083,0-0.166-0.035-0.23-0.097c-0.124-0.128-0.124-0.33,0-0.456l0.969-0.969
		c0.126-0.123,0.33-0.123,0.457,0c0.124,0.126,0.124,0.33,0,0.456l-0.969,0.969C82.317,72.423,82.232,72.458,82.153,72.458z"/>
	<path fill="#D4E1F4" d="M11.718,46.439c-0.082,0-0.165-0.032-0.227-0.094l-0.968-0.968c-0.125-0.126-0.125-0.33,0-0.456
		c0.126-0.124,0.331-0.124,0.455,0l0.967,0.968c0.128,0.124,0.128,0.327,0,0.456C11.882,46.408,11.8,46.439,11.718,46.439z"/>
	<path fill="#D4E1F4" d="M13.975,48.695c-0.083,0-0.165-0.032-0.229-0.095l-0.965-0.967c-0.125-0.126-0.125-0.329,0-0.456
		c0.125-0.126,0.329-0.126,0.455,0l0.966,0.965c0.126,0.129,0.126,0.333,0,0.458C14.14,48.663,14.057,48.695,13.975,48.695z"/>
	<path fill="#D4E1F4" d="M10.751,48.695c-0.082,0-0.165-0.032-0.228-0.095c-0.125-0.125-0.125-0.329,0-0.458l0.968-0.965
		c0.126-0.126,0.329-0.126,0.454,0c0.128,0.127,0.128,0.33,0,0.456l-0.967,0.967C10.918,48.663,10.836,48.695,10.751,48.695z"/>
	<path fill="#D4E1F4" d="M13.007,46.439c-0.082,0-0.165-0.032-0.227-0.094c-0.125-0.128-0.125-0.332,0-0.456l0.965-0.968
		c0.127-0.124,0.331-0.124,0.456,0c0.126,0.126,0.126,0.33,0,0.456l-0.966,0.968C13.173,46.408,13.09,46.439,13.007,46.439z"/>
	<path fill="#D4E1F4" d="M40.356,17.204c-0.083,0-0.166-0.031-0.228-0.094l-0.968-0.967c-0.125-0.126-0.125-0.329,0-0.457
		c0.125-0.125,0.331-0.125,0.457,0l0.966,0.966c0.128,0.128,0.128,0.331,0,0.458C40.52,17.173,40.437,17.204,40.356,17.204z"/>
	<path fill="#D4E1F4" d="M42.612,19.46c-0.083,0-0.167-0.031-0.228-0.095l-0.967-0.967c-0.126-0.125-0.126-0.329,0-0.457
		c0.127-0.125,0.329-0.125,0.455,0l0.967,0.967c0.126,0.126,0.126,0.331,0,0.456C42.775,19.429,42.694,19.46,42.612,19.46z"/>
	<path fill="#D4E1F4" d="M39.388,19.46c-0.083,0-0.164-0.031-0.228-0.095c-0.125-0.125-0.125-0.33,0-0.456l0.968-0.967
		c0.126-0.125,0.327-0.125,0.455,0c0.128,0.127,0.128,0.331,0,0.457l-0.966,0.967C39.555,19.429,39.473,19.46,39.388,19.46z"/>
	<path fill="#D4E1F4" d="M41.644,17.204c-0.083,0-0.164-0.031-0.227-0.094c-0.126-0.127-0.126-0.33,0-0.458l0.967-0.966
		c0.126-0.125,0.329-0.125,0.455,0c0.126,0.128,0.126,0.331,0,0.457l-0.967,0.967C41.812,17.173,41.728,17.204,41.644,17.204z"/>
	<path fill="#D4E1F4" d="M64.447,20.448c-0.083,0-0.163-0.032-0.227-0.095l-0.969-0.967c-0.125-0.126-0.125-0.33,0-0.455
		c0.127-0.127,0.33-0.127,0.456,0l0.967,0.966c0.127,0.128,0.127,0.331,0,0.456C64.612,20.416,64.527,20.448,64.447,20.448z"/>
	<path fill="#D4E1F4" d="M66.703,22.704c-0.083,0-0.165-0.032-0.229-0.095l-0.966-0.967c-0.126-0.126-0.126-0.33,0-0.456
		c0.124-0.125,0.327-0.125,0.453,0l0.97,0.966c0.126,0.126,0.126,0.331,0,0.457C66.87,22.672,66.785,22.704,66.703,22.704z"/>
	<path fill="#D4E1F4" d="M63.479,22.704c-0.081,0-0.165-0.032-0.228-0.095c-0.125-0.126-0.125-0.331,0-0.457l0.969-0.966
		c0.125-0.125,0.328-0.125,0.454,0c0.127,0.126,0.127,0.33,0,0.456l-0.967,0.967C63.646,22.672,63.563,22.704,63.479,22.704z"/>
	<path fill="#D4E1F4" d="M65.737,20.448c-0.082,0-0.166-0.032-0.229-0.095c-0.126-0.125-0.126-0.328,0-0.456l0.966-0.966
		c0.126-0.127,0.329-0.127,0.457,0c0.126,0.125,0.126,0.329,0,0.455l-0.97,0.967C65.902,20.416,65.817,20.448,65.737,20.448z"/>
	<path fill="#34234D" d="M41.372,70.97v3.975h-1.824c-0.634,0-1.149,0.515-1.149,1.149v6.643c0,3.773,3.071,6.844,6.845,6.844h8.773
		c3.776,0,6.847-3.07,6.847-6.844v-6.643c0-0.635-0.514-1.149-1.149-1.149h-1.502V70.97c0-1.049-0.534-1.976-1.344-2.522
		l3.155-6.965c0.321-0.706,0.321-1.517,0-2.224l-7.857-17.352c-0.428-0.946-1.328-1.533-2.357-1.57c-0.005,0-0.01-0.003-0.016-0.003
		c-0.002,0-0.002,0.001-0.003,0.001c-0.026-0.001-0.05-0.012-0.077-0.012h-0.001c-1.071,0-2.012,0.606-2.456,1.583l-7.867,17.352
		c-0.321,0.708-0.321,1.519-0.001,2.225l3.202,7.069C41.854,69.108,41.372,69.979,41.372,70.97 M55.173,70.227
		c0.409,0,0.741,0.334,0.741,0.743v4.565c0,0.101-0.012,0.152-0.036,0.222c-0.095,0.306-0.384,0.519-0.705,0.519H44.412
		c-0.318,0-0.601-0.206-0.687-0.503c-0.013-0.044-0.036-0.194-0.055-0.237V70.97c0-0.409,0.333-0.743,0.742-0.743h0.674h9.238
		H55.173z M58.564,82.736c0,2.507-2.04,4.545-4.548,4.545h-8.773c-2.507,0-4.546-2.038-4.546-4.545v-5.493h1.209
		c0.007,0.012,0.018,0.018,0.025,0.029c0.122,0.175,0.263,0.334,0.417,0.48c0.036,0.031,0.072,0.061,0.108,0.092
		c0.148,0.126,0.306,0.238,0.477,0.335c0.023,0.013,0.043,0.028,0.067,0.042c0.189,0.099,0.391,0.175,0.599,0.233
		c0.048,0.014,0.098,0.025,0.147,0.036c0.216,0.05,0.437,0.083,0.664,0.083h10.761c0.227,0,0.447-0.033,0.665-0.083
		c0.049-0.014,0.096-0.022,0.146-0.036c0.213-0.061,0.42-0.137,0.615-0.24c0.002-0.002,0.004-0.004,0.009-0.007
		c0.202-0.109,0.389-0.242,0.562-0.393c0.016-0.014,0.031-0.026,0.045-0.04c0.177-0.159,0.336-0.335,0.471-0.532h0.88V82.736z
		 M49.706,57.057c1.086,0,1.97,0.885,1.97,1.97c0,1.087-0.884,1.97-1.97,1.97s-1.97-0.883-1.97-1.97
		C47.735,57.941,48.619,57.057,49.706,57.057 M41.481,60.207l7.162-15.798v10.498c-1.839,0.477-3.207,2.134-3.207,4.119
		c0,2.354,1.915,4.269,4.269,4.269c2.355,0,4.269-1.915,4.269-4.269c0-1.92-1.283-3.529-3.032-4.063V44.776l6.987,15.431
		c0.047,0.104,0.047,0.223,0,0.328l-3.244,7.161c-0.064,0.142-0.206,0.232-0.361,0.232h-9.238c-0.156,0-0.297-0.091-0.362-0.233
		l-3.243-7.16C41.434,60.43,41.434,60.311,41.481,60.207"/>
	<path fill="#34234D" d="M19.21,39.116h3.943c1.656,0,3.002-1.343,3.002-2.991v-0.468h13.313c-5.979,3.314-10.058,9.4-10.696,16.452
		h-0.999c-1.576,0-2.857,1.282-2.857,2.857v4.231c0,1.575,1.281,2.856,2.857,2.856h4.23c1.576,0,2.857-1.281,2.857-2.856v-4.231
		c0-1.575-1.281-2.857-2.857-2.857h-0.929c0.783-7.685,6.154-14.053,13.58-16.115v0.13c0,1.648,1.347,2.991,3.003,2.991h3.942
		c1.657,0,3.004-1.343,3.004-2.991v-0.167c7.398,2,12.929,8.501,13.726,16.151h-0.749c-1.576,0-2.857,1.282-2.857,2.857v4.231
		c0,1.575,1.281,2.856,2.857,2.856h4.23c1.576,0,2.857-1.281,2.857-2.856v-4.231c0-1.575-1.281-2.857-2.857-2.857h-1.176
		c-0.646-6.975-4.797-13.122-10.75-16.452h13.545v0.468c0,1.648,1.347,2.991,3.003,2.991h3.941c1.657,0,3.004-1.343,3.004-2.991
		v-3.956c0-1.649-1.347-2.991-3.004-2.991h-3.941c-1.656,0-3.003,1.341-3.003,2.991v1.189H54.605v-1.189
		c0-1.649-1.347-2.991-3.004-2.991H47.66c-1.657,0-3.003,1.341-3.003,2.991v1.189h-18.5v-1.189c0-1.649-1.347-2.991-3.002-2.991
		H19.21c-1.656,0-3.003,1.341-3.003,2.991v3.956C16.207,37.773,17.554,39.116,19.21,39.116 M32.563,54.967v4.231
		c0,0.308-0.25,0.558-0.559,0.558h-4.23c-0.308,0-0.559-0.25-0.559-0.558v-4.231c0-0.308,0.25-0.559,0.559-0.559h4.23
		C32.313,54.408,32.563,54.659,32.563,54.967 M72.372,54.967v4.231c0,0.308-0.252,0.558-0.56,0.558h-4.23
		c-0.308,0-0.56-0.25-0.56-0.558v-4.231c0-0.308,0.252-0.559,0.56-0.559h4.23C72.12,54.408,72.372,54.659,72.372,54.967
		 M75.729,32.169c0-0.382,0.316-0.692,0.705-0.692h3.941c0.389,0,0.705,0.31,0.705,0.692v3.956c0,0.382-0.316,0.692-0.705,0.692
		h-3.941c-0.389,0-0.705-0.31-0.705-0.692V32.169z M46.955,32.169c0-0.382,0.316-0.692,0.705-0.692h3.942
		c0.389,0,0.705,0.31,0.705,0.692v3.956c0,0.382-0.316,0.692-0.705,0.692H47.66c-0.389,0-0.705-0.31-0.705-0.692V32.169z
		 M18.505,32.169c0-0.382,0.316-0.692,0.705-0.692h3.943c0.388,0,0.704,0.31,0.704,0.692v2.333c0,0.002-0.001,0.003-0.001,0.006
		c0,0.002,0.001,0.003,0.001,0.005v1.612c0,0.382-0.316,0.692-0.704,0.692H19.21c-0.389,0-0.705-0.31-0.705-0.692V32.169z"/>
	<path fill="#FF5067" d="M58.98,59.735l-7.861-17.354c-0.552-1.207-2.264-1.207-2.815,0l-7.873,17.354
		c-0.184,0.402-0.184,0.874,0,1.275l3.241,7.16c0.252,0.553,0.804,0.908,1.414,0.908h9.241c0.608,0,1.16-0.355,1.4-0.908l3.253-7.16
		C59.164,60.598,59.164,60.138,58.98,59.735 M49.706,62.148c-1.724,0-3.114-1.401-3.114-3.125c0-1.725,1.39-3.115,3.114-3.115
		c1.724,0,3.115,1.391,3.115,3.115C52.82,60.747,51.43,62.148,49.706,62.148"/>
	<path fill="#00B5F4" d="M57.063,70.97v4.565c0,0.199-0.025,0.386-0.088,0.559c-0.235,0.771-0.956,1.331-1.805,1.331H44.413
		c-0.846,0-1.568-0.561-1.792-1.331c-0.075-0.173-0.099-0.359-0.099-0.559V70.97c0-1.044,0.846-1.892,1.891-1.892h10.758
		C56.217,69.078,57.063,69.926,57.063,70.97"/>
	<path fill="#34234D" d="M48.644,41.483v14.424c0,0.636,0.515,1.149,1.149,1.149c0.634,0,1.149-0.514,1.149-1.149V41.483
		c0-0.634-0.515-1.149-1.149-1.149C49.158,40.334,48.644,40.849,48.644,41.483"/>
	<path fill="#00B5F4" d="M32.004,60.906h-4.23c-0.942,0-1.708-0.766-1.708-1.708v-4.23c0-0.943,0.766-1.708,1.708-1.708h4.23
		c0.943,0,1.708,0.765,1.708,1.708v4.23C33.712,60.141,32.948,60.906,32.004,60.906"/>
	<path fill="#00B5F4" d="M71.813,60.906h-4.23c-0.943,0-1.709-0.766-1.709-1.708v-4.23c0-0.943,0.766-1.708,1.709-1.708h4.23
		c0.943,0,1.709,0.765,1.709,1.708v4.23C73.521,60.141,72.756,60.906,71.813,60.906"/>
	<path fill="#FF6E86" d="M53.456,32.169v3.956c0,1.02-0.833,1.841-1.854,1.841h-3.943c-1.021,0-1.854-0.821-1.854-1.841v-3.956
		c0-1.021,0.833-1.841,1.854-1.841h3.943C52.623,30.328,53.456,31.148,53.456,32.169"/>
	<path fill="#00B5F4" d="M82.23,32.169v3.956c0,1.02-0.833,1.841-1.854,1.841h-3.943c-1.02,0-1.852-0.821-1.852-1.841v-3.956
		c0-1.021,0.832-1.841,1.852-1.841h3.943C81.397,30.328,82.23,31.148,82.23,32.169"/>
	<path fill="#00B5F4" d="M25.007,32.169v3.956c0,1.02-0.833,1.841-1.854,1.841H19.21c-1.021,0-1.854-0.821-1.854-1.841v-3.956
		c0-1.021,0.833-1.841,1.854-1.841h3.942C24.173,30.328,25.007,31.148,25.007,32.169"/>
	<path fill="#34234D" d="M53.242,35.637c8.409,1.592,14.852,8.851,15.188,17.662c0.025,0.636,0.56,1.129,1.192,1.104
		c0.636-0.024,1.129-0.559,1.104-1.191c-0.384-9.9-7.601-18.042-17.058-19.833c-0.622-0.118-1.226,0.292-1.342,0.917
		C52.209,34.918,52.619,35.519,53.242,35.637"/>
	<path fill="#34234D" d="M30.98,53.299c0.338-8.765,6.696-15.976,15.049-17.639c0.622-0.124,1.026-0.73,0.902-1.351
		c-0.124-0.624-0.729-1.026-1.351-0.903c-9.385,1.87-16.513,9.959-16.897,19.806c-0.025,0.633,0.469,1.167,1.103,1.191
		C30.422,54.428,30.956,53.935,30.98,53.299"/>
	<path fill="#34234D" d="M74.578,33.359H53.456c-0.635,0-1.149,0.515-1.149,1.149c0,0.634,0.515,1.149,1.149,1.149h21.122
		c0.636,0,1.149-0.515,1.149-1.149C75.728,33.874,75.214,33.359,74.578,33.359"/>
	<path fill="#34234D" d="M45.805,33.359h-20.8c-0.634,0-1.149,0.515-1.149,1.149c0,0.634,0.515,1.149,1.149,1.149h20.8
		c0.634,0,1.149-0.515,1.149-1.149C46.955,33.874,46.439,33.359,45.805,33.359"/>
	<path fill="#D0CFC7" d="M59.714,76.094v6.64c0,3.147-2.55,5.697-5.697,5.697h-8.772c-3.146,0-5.696-2.55-5.696-5.697v-6.64h3.072
		c0.224,0.772,0.946,1.331,1.792,1.331h10.761c0.847,0,1.567-0.559,1.805-1.331H59.714"/>
	<path fill="#FFFFFF" d="M57.063,65.236l-1.334,2.935c-0.047,0.108-0.107,0.208-0.177,0.3c0.071-0.092,0.132-0.191,0.18-0.301
		L57.063,65.236 M50.942,42.081v0.001c0.045,0.059,0.085,0.122,0.121,0.188C51.027,42.204,50.987,42.14,50.942,42.081
		 M48.644,41.895c-0.138,0.131-0.254,0.293-0.341,0.486l-0.193,0.424l0.001,0.003l0.194-0.427c0.086-0.19,0.202-0.352,0.339-0.482
		V41.895"/>
	<path fill="#FF6E86" d="M50.942,42.082v6.979l4.832,10.671c0.185,0.406,0.185,0.87,0,1.276l-3.243,7.16
		c-0.25,0.555-0.801,0.909-1.408,0.909h0.848h2.395h-0.041c0.489,0,0.94-0.229,1.229-0.606c0.069-0.092,0.13-0.191,0.177-0.302
		l1.334-2.934l1.914-4.228c0.182-0.406,0.182-0.87,0-1.276l-7.858-17.352c-0.018-0.037-0.035-0.075-0.056-0.109
		C51.027,42.204,50.987,42.141,50.942,42.082 M48.644,41.899c-0.137,0.131-0.253,0.291-0.339,0.481l-0.194,0.427l0.533,1.176V41.899
		"/>
	<path fill="#CCECF4" d="M55.173,69.078h-0.808h-2.395c1.046,0,1.892,0.847,1.892,1.892v4.565c0,0.197-0.024,0.384-0.088,0.559
		h2.738v0.774c0.211-0.215,0.373-0.478,0.465-0.774c0.061-0.175,0.086-0.361,0.086-0.559V70.97
		C57.063,69.925,56.219,69.078,55.173,69.078"/>
	<path fill="#34234D" d="M49.71,41.473c-0.385,0-0.771,0.14-1.066,0.421v0.004v2.086l2.299,5.075v-6.978v-0.001
		C50.639,41.675,50.175,41.473,49.71,41.473"/>
	<path fill="#FFFFFF" d="M59.714,76.094h-2.736c-0.092,0.297-0.254,0.56-0.467,0.774v5.865c0,3.147-2.548,5.697-5.695,5.697h3.201
		c3.147,0,5.697-2.55,5.697-5.697V76.094"/>
</g>
<g id="Layer_2">
</g>
</svg>
