<?xml version="1.0" encoding="utf-8"?>
<!-- Generator: Adobe Illustrator 16.0.3, SVG Export Plug-In . SVG Version: 6.00 Build 0)  -->
<!DOCTYPE svg PUBLIC "-//W3C//DTD SVG 1.1//EN" "http://www.w3.org/Graphics/SVG/1.1/DTD/svg11.dtd">
<svg version="1.1" xmlns="http://www.w3.org/2000/svg" xmlns:xlink="http://www.w3.org/1999/xlink" x="0px" y="0px" width="100px"
	 height="100px" viewBox="0 0 100 100" enable-background="new 0 0 100 100" xml:space="preserve">
<g id="Layer_1">
	<path fill="#2FC8F2" d="M66.47,25.253H26.815c-1.493,0-2.704,1.21-2.704,2.704v53.172c0,1.494,1.211,2.705,2.704,2.705H66.47
		c1.492,0,2.703-1.211,2.703-2.705V27.957C69.173,26.463,67.962,25.253,66.47,25.253z"/>
	<path fill="#00B5F4" d="M66.47,25.253H29.519c-1.493,0-2.703,1.21-2.703,2.704v53.172c0,1.494,1.21,2.705,2.703,2.705H66.47
		c1.492,0,2.703-1.211,2.703-2.705V27.957C69.173,26.463,67.962,25.253,66.47,25.253z"/>
	<path fill="#FFFFFF" d="M64.216,28.407H29.068c-0.249,0-0.451,0.202-0.451,0.451v49.568c0,0.248,0.202,0.451,0.451,0.451h35.147
		c0.249,0,0.451-0.203,0.451-0.451V28.858C64.667,28.609,64.465,28.407,64.216,28.407z"/>
	<path fill="#34234D" d="M66.47,84.283h-9.464c-0.249,0-0.45-0.201-0.45-0.449c0-0.25,0.201-0.451,0.45-0.451h9.464
		c1.242,0,2.253-1.012,2.253-2.254V46.915c0-0.249,0.201-0.451,0.45-0.451s0.451,0.202,0.451,0.451v34.214
		C69.624,82.869,68.208,84.283,66.47,84.283z"/>
	<path fill="#34234D" d="M54.303,84.283H26.815c-1.739,0-3.155-1.414-3.155-3.154V27.957c0-1.739,1.416-3.154,3.155-3.154h5.857
		c0.249,0,0.451,0.202,0.451,0.451c0,0.249-0.202,0.451-0.451,0.451h-5.857c-1.243,0-2.254,1.011-2.254,2.253v53.172
		c0,1.242,1.011,2.254,2.254,2.254h27.487c0.249,0,0.45,0.201,0.45,0.451C54.753,84.082,54.552,84.283,54.303,84.283z"/>
	<path fill="#34234D" d="M69.173,44.662c-0.249,0-0.45-0.202-0.45-0.451V27.957c0-1.242-1.011-2.253-2.253-2.253H35.377
		c-0.249,0-0.451-0.202-0.451-0.451c0-0.249,0.202-0.451,0.451-0.451H66.47c1.738,0,3.154,1.415,3.154,3.154v16.254
		C69.624,44.46,69.422,44.662,69.173,44.662z"/>
	<path fill="#34234D" d="M56.105,32.012H37.179c-1.242,0-2.253-1.011-2.253-2.253v-4.506c0-0.249,0.202-0.451,0.451-0.451h22.53
		c0.249,0,0.451,0.202,0.451,0.451v4.506C58.358,31.001,57.348,32.012,56.105,32.012z M35.827,25.704v4.055
		c0,0.746,0.606,1.352,1.352,1.352h18.927c0.745,0,1.352-0.606,1.352-1.352v-4.055H35.827z"/>
	<circle fill="#F4136B" cx="68.271" cy="59.5" r="12.617"/>
	<path fill="#E0013F" d="M70.524,49.136c2.91,0,5.588,0.987,7.722,2.642c-2.308-2.977-5.916-4.895-9.975-4.895
		c-6.968,0-12.617,5.649-12.617,12.618c0,4.059,1.918,7.666,4.896,9.975c-1.654-2.135-2.643-4.813-2.643-7.722
		C57.907,54.785,63.557,49.136,70.524,49.136z"/>
	<path fill="#34234D" d="M68.271,72.568c-7.205,0-13.067-5.863-13.067-13.068c0-7.206,5.862-13.068,13.067-13.068
		c7.206,0,13.068,5.862,13.068,13.068C81.34,66.705,75.478,72.568,68.271,72.568z M68.271,47.333
		c-6.708,0-12.166,5.458-12.166,12.167s5.458,12.166,12.166,12.166c6.709,0,12.167-5.457,12.167-12.166S74.98,47.333,68.271,47.333z
		"/>
	<path fill="#2FC8F2" d="M62.972,58.203l4.974,4.974c0.352,0.353,0.923,0.353,1.274,0l11.134-11.133
		c0.497-0.497,1.168-0.749,1.831-0.74c-0.062-0.079-0.118-0.161-0.191-0.234c-0.931-0.931-2.438-0.931-3.369,0L68.582,61.11
		L64.7,57.229c-0.931-0.93-2.438-0.93-3.369,0c-0.073,0.073-0.13,0.155-0.191,0.234C61.803,57.455,62.475,57.707,62.972,58.203z"/>
	<path fill="#00B5F4" d="M61.331,60.598l5.566,5.567c0.466,0.466,1.075,0.698,1.685,0.698s1.22-0.232,1.685-0.698l11.727-11.727
		c0.858-0.856,0.915-2.2,0.191-3.135c-0.663-0.009-1.334,0.243-1.831,0.74L69.22,63.177c-0.352,0.353-0.923,0.353-1.274,0
		l-4.974-4.974c-0.497-0.496-1.169-0.748-1.832-0.74C60.416,58.397,60.474,59.74,61.331,60.598z"/>
	<path fill="#34234D" d="M68.582,67.313c-0.756,0-1.467-0.295-2.003-0.83l-5.566-5.567c-0.535-0.534-0.83-1.246-0.83-2.002
		c0-0.758,0.295-1.469,0.83-2.004c1.105-1.104,2.902-1.104,4.006,0l3.563,3.563l9.724-9.722c1.105-1.104,2.903-1.104,4.007,0l0,0
		l0,0l0,0c0.535,0.535,0.83,1.246,0.83,2.003c0,0.757-0.295,1.469-0.83,2.004L70.586,66.483
		C70.051,67.019,69.339,67.313,68.582,67.313z M63.016,56.982c-0.494,0-0.989,0.188-1.366,0.564
		c-0.365,0.365-0.565,0.851-0.565,1.367c0,0.516,0.2,1,0.565,1.365l5.567,5.566c0.365,0.365,0.85,0.566,1.365,0.566
		c0.517,0,1.002-0.201,1.366-0.566l11.727-11.727c0.365-0.364,0.566-0.85,0.566-1.365s-0.201-1.002-0.566-1.365v-0.001
		c-0.753-0.753-1.979-0.753-2.731,0L68.901,61.429c-0.177,0.177-0.462,0.177-0.638,0l-3.882-3.882
		C64.005,57.171,63.511,56.982,63.016,56.982z"/>
	<path fill="#34234D" d="M61.513,37.87h-6.984c-0.249,0-0.451-0.202-0.451-0.451s0.202-0.451,0.451-0.451h6.984
		c0.249,0,0.45,0.202,0.45,0.451S61.762,37.87,61.513,37.87z"/>
	<path fill="#34234D" d="M51.824,37.87h-9.237c-0.249,0-0.451-0.202-0.451-0.451s0.202-0.451,0.451-0.451h9.237
		c0.249,0,0.45,0.202,0.45,0.451S52.073,37.87,51.824,37.87z"/>
	<path fill="#34234D" d="M57.457,40.574h-6.984c-0.249,0-0.451-0.202-0.451-0.451c0-0.249,0.202-0.451,0.451-0.451h6.984
		c0.249,0,0.45,0.202,0.45,0.451C57.907,40.372,57.706,40.574,57.457,40.574z"/>
	<path fill="#34234D" d="M47.769,40.574h-5.182c-0.249,0-0.451-0.202-0.451-0.451c0-0.249,0.202-0.451,0.451-0.451h5.182
		c0.249,0,0.451,0.202,0.451,0.451C48.22,40.372,48.018,40.574,47.769,40.574z"/>
	<circle fill="#E6E6E6" cx="35.377" cy="38.771" r="4.056"/>
	<circle fill="#E6E6E6" cx="35.377" cy="49.586" r="4.056"/>
	<circle fill="#E6E6E6" cx="35.377" cy="60.4" r="4.056"/>
	<circle fill="#E6E6E6" cx="35.377" cy="71.216" r="4.056"/>
	<path fill="#34234D" d="M35.377,43.277c-2.484,0-4.507-2.021-4.507-4.506s2.022-4.506,4.507-4.506s4.506,2.021,4.506,4.506
		S37.861,43.277,35.377,43.277z M35.377,35.167c-1.988,0-3.605,1.617-3.605,3.605s1.617,3.605,3.605,3.605
		c1.987,0,3.604-1.617,3.604-3.605S37.364,35.167,35.377,35.167z"/>
	<path fill="#34234D" d="M57.907,48.685h-6.083c-0.249,0-0.45-0.202-0.45-0.451s0.201-0.451,0.45-0.451h6.083
		c0.249,0,0.451,0.202,0.451,0.451S58.156,48.685,57.907,48.685z"/>
	<path fill="#34234D" d="M49.12,48.685h-6.533c-0.249,0-0.451-0.202-0.451-0.451s0.202-0.451,0.451-0.451h6.533
		c0.249,0,0.451,0.202,0.451,0.451S49.369,48.685,49.12,48.685z"/>
	<path fill="#34234D" d="M55.654,51.389h-6.083c-0.249,0-0.451-0.201-0.451-0.451c0-0.249,0.202-0.451,0.451-0.451h6.083
		c0.249,0,0.451,0.202,0.451,0.451C56.105,51.188,55.903,51.389,55.654,51.389z"/>
	<path fill="#34234D" d="M46.867,51.389h-4.28c-0.249,0-0.451-0.201-0.451-0.451c0-0.249,0.202-0.451,0.451-0.451h4.28
		c0.249,0,0.451,0.202,0.451,0.451C47.318,51.188,47.116,51.389,46.867,51.389z"/>
	<path fill="#34234D" d="M35.377,54.092c-2.484,0-4.507-2.021-4.507-4.506s2.022-4.506,4.507-4.506s4.506,2.021,4.506,4.506
		S37.861,54.092,35.377,54.092z M35.377,45.981c-1.988,0-3.605,1.617-3.605,3.604c0,1.988,1.617,3.605,3.605,3.605
		c1.987,0,3.604-1.617,3.604-3.605C38.981,47.599,37.364,45.981,35.377,45.981z"/>
	<path fill="#34234D" d="M53.176,59.5H42.587c-0.249,0-0.451-0.202-0.451-0.451c0-0.248,0.202-0.45,0.451-0.45h10.589
		c0.249,0,0.451,0.202,0.451,0.45C53.627,59.298,53.425,59.5,53.176,59.5z"/>
	<path fill="#34234D" d="M53.401,62.203h-3.83c-0.249,0-0.451-0.201-0.451-0.45s0.202-0.45,0.451-0.45h3.83
		c0.249,0,0.45,0.201,0.45,0.45S53.65,62.203,53.401,62.203z"/>
	<path fill="#34234D" d="M46.867,62.203h-4.28c-0.249,0-0.451-0.201-0.451-0.45s0.202-0.45,0.451-0.45h4.28
		c0.249,0,0.451,0.201,0.451,0.45S47.116,62.203,46.867,62.203z"/>
	<path fill="#34234D" d="M35.377,64.907c-2.484,0-4.507-2.021-4.507-4.507c0-2.484,2.022-4.506,4.507-4.506s4.506,2.021,4.506,4.506
		C39.883,62.886,37.861,64.907,35.377,64.907z M35.377,56.796c-1.988,0-3.605,1.617-3.605,3.604c0,1.988,1.617,3.605,3.605,3.605
		c1.987,0,3.604-1.617,3.604-3.605C38.981,58.413,37.364,56.796,35.377,56.796z"/>
	<path fill="#34234D" d="M57.457,70.314h-6.083c-0.249,0-0.451-0.201-0.451-0.451c0-0.248,0.202-0.45,0.451-0.45h6.083
		c0.249,0,0.45,0.202,0.45,0.45C57.907,70.113,57.706,70.314,57.457,70.314z"/>
	<path fill="#34234D" d="M48.67,70.314h-6.083c-0.249,0-0.451-0.201-0.451-0.451c0-0.248,0.202-0.45,0.451-0.45h6.083
		c0.249,0,0.45,0.202,0.45,0.45C49.12,70.113,48.919,70.314,48.67,70.314z"/>
	<path fill="#34234D" d="M60.16,73.018h-5.632c-0.249,0-0.451-0.201-0.451-0.449c0-0.25,0.202-0.451,0.451-0.451h5.632
		c0.25,0,0.451,0.201,0.451,0.451C60.611,72.816,60.41,73.018,60.16,73.018z"/>
	<path fill="#34234D" d="M51.824,73.018h-9.237c-0.249,0-0.451-0.201-0.451-0.449c0-0.25,0.202-0.451,0.451-0.451h9.237
		c0.249,0,0.45,0.201,0.45,0.451C52.274,72.816,52.073,73.018,51.824,73.018z"/>
	<path fill="#34234D" d="M35.377,75.723c-2.484,0-4.507-2.022-4.507-4.507s2.022-4.507,4.507-4.507s4.506,2.022,4.506,4.507
		S37.861,75.723,35.377,75.723z M35.377,67.611c-1.988,0-3.605,1.617-3.605,3.604s1.617,3.604,3.605,3.604
		c1.987,0,3.604-1.617,3.604-3.604S37.364,67.611,35.377,67.611z"/>
	<path fill="#F4136B" d="M35.887,41.024c-0.23,0-0.461-0.088-0.638-0.264l-1.956-1.956c-0.352-0.352-0.352-0.922,0-1.274
		c0.353-0.352,0.923-0.352,1.274,0l1.319,1.318l3.175-3.175c0.352-0.352,0.922-0.352,1.274,0c0.352,0.352,0.352,0.923,0,1.274
		l-3.813,3.812C36.348,40.937,36.117,41.024,35.887,41.024z"/>
	<path fill="#F4136B" d="M35.887,51.84c-0.23,0-0.461-0.088-0.638-0.265l-1.956-1.956c-0.352-0.352-0.352-0.922,0-1.274
		c0.353-0.352,0.923-0.352,1.274,0l1.319,1.318l3.175-3.175c0.352-0.352,0.922-0.352,1.274,0c0.352,0.352,0.352,0.923,0,1.274
		l-3.813,3.812C36.348,51.752,36.117,51.84,35.887,51.84z"/>
	<path fill="#F4136B" d="M35.887,73.469c-0.23,0-0.461-0.088-0.638-0.264l-1.956-1.956c-0.352-0.353-0.352-0.923,0-1.274
		c0.353-0.352,0.923-0.352,1.274,0l1.319,1.318l3.175-3.174c0.352-0.353,0.922-0.353,1.274,0c0.352,0.352,0.352,0.922,0,1.273
		l-3.813,3.813C36.348,73.381,36.117,73.469,35.887,73.469z"/>
	<path fill="#D4E1F4" d="M79.537,74.37c-0.115,0-0.23-0.044-0.318-0.132l-1.352-1.352c-0.177-0.176-0.177-0.461,0-0.638
		c0.176-0.176,0.461-0.176,0.637,0l1.352,1.353c0.177,0.176,0.177,0.461,0,0.637C79.768,74.326,79.652,74.37,79.537,74.37z"/>
	<path fill="#D4E1F4" d="M82.691,77.525c-0.115,0-0.23-0.045-0.318-0.133l-1.352-1.352c-0.177-0.176-0.177-0.461,0-0.638
		c0.176-0.176,0.461-0.176,0.637,0l1.352,1.353c0.177,0.176,0.177,0.461,0,0.637C82.922,77.48,82.807,77.525,82.691,77.525z"/>
	<path fill="#D4E1F4" d="M78.186,77.525c-0.115,0-0.23-0.045-0.318-0.133c-0.177-0.176-0.177-0.461,0-0.637l1.352-1.353
		c0.176-0.176,0.461-0.176,0.637,0c0.177,0.177,0.177,0.462,0,0.638l-1.352,1.352C78.416,77.48,78.301,77.525,78.186,77.525z"/>
	<path fill="#D4E1F4" d="M81.34,74.37c-0.115,0-0.23-0.044-0.318-0.132c-0.177-0.176-0.177-0.461,0-0.637l1.352-1.353
		c0.176-0.176,0.461-0.176,0.637,0c0.177,0.177,0.177,0.462,0,0.638l-1.352,1.352C81.57,74.326,81.455,74.37,81.34,74.37z"/>
	<path fill="#D4E1F4" d="M73.679,23.45c-0.115,0-0.23-0.044-0.318-0.132l-1.352-1.352c-0.176-0.176-0.176-0.461,0-0.637
		c0.176-0.176,0.461-0.176,0.637,0l1.353,1.352c0.176,0.176,0.176,0.461,0,0.637C73.91,23.406,73.795,23.45,73.679,23.45z"/>
	<path fill="#D4E1F4" d="M76.833,26.604c-0.115,0-0.23-0.044-0.318-0.132l-1.352-1.352c-0.176-0.176-0.176-0.461,0-0.637
		c0.176-0.176,0.461-0.176,0.637,0l1.353,1.352c0.176,0.176,0.176,0.461,0,0.637C77.064,26.561,76.949,26.604,76.833,26.604z"/>
	<path fill="#D4E1F4" d="M72.327,26.604c-0.115,0-0.23-0.044-0.318-0.132c-0.176-0.176-0.176-0.461,0-0.637l1.352-1.352
		c0.176-0.176,0.461-0.176,0.638,0c0.176,0.176,0.176,0.461,0,0.637l-1.353,1.352C72.558,26.561,72.442,26.604,72.327,26.604z"/>
	<path fill="#D4E1F4" d="M75.481,23.45c-0.115,0-0.23-0.044-0.318-0.132c-0.176-0.176-0.176-0.461,0-0.637l1.352-1.352
		c0.176-0.176,0.461-0.176,0.638,0c0.176,0.176,0.176,0.461,0,0.637L75.8,23.318C75.712,23.406,75.597,23.45,75.481,23.45z"/>
	<path fill="#D4E1F4" d="M88.55,37.87c-0.115,0-0.23-0.044-0.319-0.132l-1.352-1.352c-0.176-0.176-0.176-0.461,0-0.637
		c0.176-0.176,0.461-0.176,0.638,0l1.352,1.352c0.176,0.176,0.176,0.461,0,0.637C88.78,37.826,88.665,37.87,88.55,37.87z"/>
	<path fill="#D4E1F4" d="M91.704,41.024c-0.115,0-0.23-0.044-0.319-0.132l-1.352-1.352c-0.176-0.176-0.176-0.461,0-0.637
		c0.176-0.176,0.461-0.176,0.638,0l1.352,1.352c0.176,0.176,0.176,0.461,0,0.637C91.935,40.98,91.819,41.024,91.704,41.024z"/>
	<path fill="#D4E1F4" d="M87.197,41.024c-0.115,0-0.23-0.044-0.318-0.132c-0.176-0.176-0.176-0.461,0-0.637l1.352-1.352
		c0.177-0.176,0.462-0.176,0.638,0c0.176,0.176,0.176,0.461,0,0.637l-1.352,1.352C87.429,40.98,87.313,41.024,87.197,41.024z"/>
	<path fill="#D4E1F4" d="M90.352,37.87c-0.115,0-0.23-0.044-0.318-0.132c-0.176-0.176-0.176-0.461,0-0.637l1.352-1.352
		c0.177-0.176,0.462-0.176,0.638,0c0.176,0.176,0.176,0.461,0,0.637l-1.352,1.352C90.583,37.826,90.467,37.87,90.352,37.87z"/>
	<path fill="#D4E1F4" d="M44.84,13.537c-0.115,0-0.23-0.044-0.318-0.132l-1.353-1.352c-0.176-0.176-0.176-0.461,0-0.637
		c0.177-0.176,0.462-0.176,0.638,0l1.352,1.352c0.176,0.176,0.176,0.461,0,0.637C45.07,13.493,44.955,13.537,44.84,13.537z"/>
	<path fill="#D4E1F4" d="M47.994,16.691c-0.115,0-0.23-0.044-0.318-0.132l-1.353-1.352c-0.176-0.176-0.176-0.461,0-0.637
		c0.177-0.176,0.462-0.176,0.638,0l1.352,1.352c0.176,0.176,0.176,0.461,0,0.637C48.225,16.647,48.109,16.691,47.994,16.691z"/>
	<path fill="#D4E1F4" d="M43.488,16.691c-0.116,0-0.231-0.044-0.319-0.132c-0.176-0.176-0.176-0.461,0-0.637l1.353-1.352
		c0.176-0.176,0.461-0.176,0.637,0c0.176,0.176,0.176,0.461,0,0.637l-1.352,1.352C43.719,16.647,43.604,16.691,43.488,16.691z"/>
	<path fill="#D4E1F4" d="M46.643,13.537c-0.116,0-0.231-0.044-0.319-0.132c-0.176-0.176-0.176-0.461,0-0.637l1.353-1.352
		c0.176-0.176,0.461-0.176,0.637,0c0.176,0.176,0.176,0.461,0,0.637l-1.352,1.352C46.873,13.493,46.758,13.537,46.643,13.537z"/>
	<path fill="#D4E1F4" d="M18.253,32.012c-0.115,0-0.23-0.044-0.318-0.132l-1.352-1.352c-0.176-0.176-0.176-0.461,0-0.637
		c0.176-0.176,0.461-0.176,0.637,0l1.353,1.352c0.176,0.176,0.176,0.461,0,0.637C18.483,31.968,18.368,32.012,18.253,32.012z"/>
	<path fill="#D4E1F4" d="M21.407,35.167c-0.115,0-0.23-0.044-0.318-0.132l-1.352-1.352c-0.176-0.176-0.176-0.461,0-0.637
		c0.176-0.176,0.461-0.176,0.637,0l1.353,1.352c0.176,0.176,0.176,0.461,0,0.637C21.638,35.123,21.522,35.167,21.407,35.167z"/>
	<path fill="#D4E1F4" d="M16.901,35.167c-0.115,0-0.23-0.044-0.318-0.132c-0.176-0.176-0.176-0.461,0-0.637l1.352-1.352
		c0.176-0.176,0.461-0.176,0.638,0c0.176,0.176,0.176,0.461,0,0.637l-1.353,1.352C17.132,35.123,17.017,35.167,16.901,35.167z"/>
	<path fill="#D4E1F4" d="M20.056,32.012c-0.115,0-0.23-0.044-0.318-0.132c-0.176-0.176-0.176-0.461,0-0.637l1.352-1.352
		c0.176-0.176,0.461-0.176,0.638,0c0.176,0.176,0.176,0.461,0,0.637l-1.353,1.352C20.286,31.968,20.171,32.012,20.056,32.012z"/>
	<path fill="#D4E1F4" d="M16.451,63.555c-0.115,0-0.231-0.043-0.319-0.131l-1.352-1.353c-0.176-0.176-0.176-0.461,0-0.638
		c0.176-0.176,0.461-0.176,0.638,0l1.352,1.353c0.176,0.176,0.176,0.461,0,0.638C16.682,63.512,16.566,63.555,16.451,63.555z"/>
	<path fill="#D4E1F4" d="M19.605,66.709c-0.115,0-0.231-0.043-0.319-0.131l-1.352-1.353c-0.176-0.176-0.176-0.461,0-0.638
		c0.176-0.176,0.461-0.176,0.638,0l1.352,1.353c0.176,0.176,0.176,0.461,0,0.638C19.836,66.666,19.721,66.709,19.605,66.709z"/>
	<path fill="#D4E1F4" d="M15.099,66.709c-0.115,0-0.23-0.043-0.318-0.131c-0.176-0.177-0.176-0.462,0-0.638l1.352-1.353
		c0.177-0.176,0.462-0.176,0.638,0c0.176,0.177,0.176,0.462,0,0.638l-1.352,1.353C15.329,66.666,15.214,66.709,15.099,66.709z"/>
	<path fill="#D4E1F4" d="M18.253,63.555c-0.115,0-0.23-0.043-0.318-0.131c-0.176-0.177-0.176-0.462,0-0.638l1.352-1.353
		c0.177-0.176,0.462-0.176,0.638,0c0.176,0.177,0.176,0.462,0,0.638l-1.352,1.353C18.483,63.512,18.368,63.555,18.253,63.555z"/>
</g>
<g id="Layer_2">
</g>
<g id="Layer_3">
</g>
<g id="Layer_4">
</g>
<g id="Layer_5">
</g>
<g id="Layer_6">
</g>
</svg>
