<?xml version="1.0" encoding="utf-8"?>
<!-- Generator: Adobe Illustrator 16.0.3, SVG Export Plug-In . SVG Version: 6.00 Build 0)  -->
<!DOCTYPE svg PUBLIC "-//W3C//DTD SVG 1.1//EN" "http://www.w3.org/Graphics/SVG/1.1/DTD/svg11.dtd">
<svg version="1.1" xmlns="http://www.w3.org/2000/svg" xmlns:xlink="http://www.w3.org/1999/xlink" x="0px" y="0px" width="100px"
	 height="100px" viewBox="0 0 100 100" enable-background="new 0 0 100 100" xml:space="preserve">
<g id="Layer_1">
	<path fill="#FFFFFF" d="M32.751,47.515c0.285-8.85,7.459-16.192,16.302-16.665c9.961-0.532,18.205,7.388,18.205,17.233
		c0,5.053-2.18,9.586-5.642,12.739c-1.655,1.508-2.576,3.661-2.576,5.901v0.15c0,0.847-0.687,1.534-1.534,1.534H42.495
		c-0.848,0-1.535-0.688-1.535-1.534v-0.146c0-2.226-0.892-4.383-2.542-5.875C34.805,57.582,32.581,52.812,32.751,47.515z"/>
	<path fill="#EDEDED" d="M56.126,31.944c4.844,3.056,8.063,8.453,8.063,14.604c0,5.053-2.179,9.587-5.642,12.739
		c-1.657,1.509-2.576,3.662-2.576,5.902v3.219h1.534c0.848,0,1.534-0.688,1.534-1.534v-0.15c0-2.24,0.921-4.394,2.576-5.901
		c3.462-3.153,5.642-7.687,5.642-12.739C67.258,40.708,62.632,34.416,56.126,31.944z"/>
	<path fill="#34234D" d="M57.506,68.792H42.495c-1.058,0-1.917-0.861-1.917-1.918v-0.146c0-0.938-0.164-1.855-0.487-2.722
		c-0.074-0.2,0.027-0.422,0.226-0.495c0.199-0.074,0.419,0.028,0.493,0.227c0.354,0.955,0.534,1.959,0.534,2.99v0.146
		c0,0.635,0.517,1.15,1.151,1.15h15.011c0.636,0,1.15-0.516,1.15-1.15v-0.15c0-2.369,0.984-4.622,2.701-6.186
		c3.507-3.19,5.517-7.731,5.517-12.455c0-3.455-1.036-6.775-2.996-9.603c-0.12-0.174-0.077-0.413,0.096-0.534
		c0.175-0.122,0.414-0.078,0.534,0.096c2.051,2.957,3.134,6.428,3.134,10.04c0,4.939-2.102,9.687-5.768,13.022
		c-1.559,1.417-2.45,3.466-2.45,5.618v0.15C59.424,67.931,58.563,68.792,57.506,68.792z"/>
	<path fill="#34234D" d="M38.641,61.447c-0.097,0-0.194-0.037-0.269-0.111c-0.068-0.067-0.139-0.135-0.211-0.198
		c-3.848-3.484-5.958-8.454-5.792-13.636c0.292-9.069,7.612-16.551,16.665-17.035c4.965-0.268,9.842,1.583,13.371,5.07
		c0.149,0.149,0.151,0.392,0.001,0.542c-0.147,0.15-0.391,0.151-0.54,0.003c-3.375-3.336-8.035-5.106-12.791-4.849
		c-8.659,0.462-15.66,7.619-15.938,16.293c-0.16,4.956,1.86,9.709,5.54,13.042c0.08,0.072,0.157,0.146,0.234,0.221
		c0.151,0.148,0.153,0.392,0.005,0.542C38.839,61.408,38.74,61.447,38.641,61.447z"/>
	<path fill="#2FC8F2" d="M56.405,75.185l-13.039-1.304c-0.588-0.06-1.036-0.554-1.036-1.144v-0.756c0-0.681,0.587-1.214,1.265-1.146
		l13.038,1.304c0.59,0.059,1.037,0.554,1.037,1.145v0.756C57.67,74.722,57.081,75.252,56.405,75.185z"/>
	<path fill="#2FC8F2" d="M56.519,77.613H43.48c-0.635,0-1.15-0.516-1.15-1.15v-1.414c0-0.681,0.587-1.213,1.265-1.145l13.038,1.304
		c0.59,0.058,1.037,0.555,1.037,1.145v0.11C57.67,77.098,57.154,77.613,56.519,77.613z"/>
	<path fill="#2FC8F2" d="M56.405,72.117l-13.039-1.305c-0.588-0.058-1.036-0.554-1.036-1.145v-1.26h15.34v2.564
		C57.67,71.652,57.081,72.185,56.405,72.117z"/>
	<path fill="#00B5F4" d="M57.67,70.973v-2.564H42.33v0.767l13.642,1.534v6.904h0.547c0.636,0,1.151-0.516,1.151-1.15v-0.11
		c0-0.59-0.447-1.087-1.037-1.145l-0.034-0.024c0.591-0.039,1.071-0.529,1.071-1.144v-0.756c0-0.591-0.447-1.086-1.037-1.145
		l-0.034-0.025C57.189,72.075,57.67,71.586,57.67,70.973z"/>
	<path fill="#34234D" d="M56.519,75.573c-0.049,0-0.102-0.002-0.151-0.007l-13.04-1.304c-0.787-0.078-1.381-0.735-1.381-1.525
		v-0.756c0-0.434,0.184-0.848,0.505-1.138c0.32-0.29,0.75-0.434,1.182-0.39l13.039,1.304c0.788,0.079,1.383,0.734,1.383,1.526v0.756
		c0,0.432-0.186,0.847-0.506,1.138C57.266,75.434,56.897,75.573,56.519,75.573z M43.478,71.214c-0.189,0-0.369,0.067-0.512,0.198
		c-0.163,0.147-0.251,0.35-0.251,0.569v0.756c0,0.395,0.297,0.724,0.691,0.762l13.039,1.304l0,0c0.22,0.023,0.428-0.046,0.592-0.194
		c0.162-0.146,0.251-0.349,0.251-0.568v-0.756c0-0.395-0.296-0.724-0.69-0.763l-13.039-1.304
		C43.53,71.216,43.504,71.214,43.478,71.214z"/>
	<path fill="#34234D" d="M56.519,77.996H43.48c-0.846,0-1.534-0.689-1.534-1.533v-1.414c0-0.433,0.184-0.848,0.505-1.138
		c0.32-0.29,0.75-0.432,1.182-0.39l13.039,1.305c0.788,0.08,1.383,0.734,1.383,1.526v0.11
		C58.055,77.307,57.365,77.996,56.519,77.996z M43.478,74.281c-0.189,0-0.369,0.069-0.512,0.198
		c-0.163,0.147-0.251,0.35-0.251,0.569v1.414c0,0.423,0.344,0.766,0.767,0.766h13.038c0.424,0,0.768-0.343,0.768-0.766v-0.11
		c0-0.395-0.296-0.723-0.69-0.764l-13.039-1.304C43.53,74.283,43.504,74.281,43.478,74.281z"/>
	<path fill="#A09CAD" d="M52.877,80.681h-5.753c-0.604,0-1.172-0.284-1.534-0.768l-1.726-2.3h12.272l-1.725,2.3
		C54.049,80.396,53.479,80.681,52.877,80.681z"/>
	<path fill="#34234D" d="M52.877,81.064h-5.753c-0.72,0-1.409-0.344-1.841-0.922l-1.726-2.3c-0.088-0.116-0.102-0.272-0.036-0.401
		c0.065-0.131,0.197-0.213,0.343-0.213h12.272c0.146,0,0.278,0.082,0.343,0.213c0.066,0.129,0.052,0.285-0.035,0.401l-1.726,2.3
		C54.283,80.721,53.597,81.064,52.877,81.064z M44.631,77.996l1.266,1.688c0.288,0.383,0.747,0.612,1.227,0.612h5.753
		c0.479,0,0.938-0.229,1.227-0.612l1.265-1.688H44.631z"/>
	<circle fill="#F4136B" cx="50" cy="48.083" r="11.505"/>
	<path fill="#E0013F" d="M52.055,38.632c2.652,0,5.095,0.901,7.041,2.41c-2.104-2.715-5.395-4.464-9.096-4.464
		c-6.354,0-11.505,5.15-11.505,11.505c0,3.701,1.749,6.99,4.463,9.095c-1.508-1.945-2.409-4.387-2.409-7.041
		C40.549,43.783,45.7,38.632,52.055,38.632z"/>
	<path fill="#34234D" d="M56.519,72.505c-0.049,0-0.102-0.001-0.151-0.007l-13.04-1.304c-0.787-0.079-1.381-0.734-1.381-1.526v-1.26
		c0-0.213,0.171-0.384,0.383-0.384h15.34c0.212,0,0.385,0.171,0.385,0.384v2.564c0,0.432-0.186,0.846-0.506,1.137
		C57.266,72.365,56.897,72.505,56.519,72.505z M42.714,68.792v0.876c0,0.396,0.297,0.724,0.691,0.763l13.039,1.305l0,0
		c0.22,0.022,0.428-0.046,0.592-0.194c0.162-0.146,0.251-0.35,0.251-0.568v-2.181H42.714z"/>
	<path fill="#D4E1F4" d="M74.545,48.85h-4.986c-0.423,0-0.767-0.344-0.767-0.767c0-0.424,0.344-0.767,0.767-0.767h4.986
		c0.423,0,0.767,0.343,0.767,0.767C75.312,48.506,74.968,48.85,74.545,48.85z"/>
	<path fill="#D4E1F4" d="M30.441,48.85h-4.985c-0.424,0-0.767-0.344-0.767-0.767c0-0.424,0.343-0.767,0.767-0.767h4.985
		c0.423,0,0.767,0.343,0.767,0.767C31.208,48.506,30.865,48.85,30.441,48.85z"/>
	<path fill="#D4E1F4" d="M74.545,48.85h-4.986c-0.423,0-0.767-0.344-0.767-0.767c0-0.424,0.344-0.767,0.767-0.767h4.986
		c0.423,0,0.767,0.343,0.767,0.767C75.312,48.506,74.968,48.85,74.545,48.85z"/>
	<path fill="#D4E1F4" d="M30.441,48.85h-4.985c-0.424,0-0.767-0.344-0.767-0.767c0-0.424,0.343-0.767,0.767-0.767h4.985
		c0.423,0,0.767,0.343,0.767,0.767C31.208,48.506,30.865,48.85,30.441,48.85z"/>
	<path fill="#D4E1F4" d="M66.939,39.07c-0.265,0-0.523-0.138-0.665-0.384c-0.212-0.367-0.086-0.835,0.281-1.048l4.317-2.493
		c0.366-0.212,0.835-0.086,1.048,0.281c0.211,0.367,0.086,0.836-0.281,1.048l-4.317,2.493C67.201,39.038,67.07,39.07,66.939,39.07z"
		/>
	<path fill="#D4E1F4" d="M28.745,61.122c-0.265,0-0.523-0.138-0.665-0.384c-0.212-0.367-0.086-0.836,0.28-1.048l4.318-2.492
		c0.367-0.213,0.836-0.087,1.048,0.279c0.212,0.368,0.086,0.836-0.281,1.049l-4.318,2.493
		C29.007,61.089,28.875,61.122,28.745,61.122z"/>
	<path fill="#D4E1F4" d="M59.778,31.911c-0.13,0-0.262-0.033-0.382-0.103c-0.368-0.212-0.494-0.681-0.281-1.047l2.492-4.318
		c0.213-0.367,0.682-0.492,1.049-0.28c0.366,0.211,0.492,0.68,0.28,1.047l-2.492,4.318C60.301,31.773,60.044,31.911,59.778,31.911z"
		/>
	<path fill="#D4E1F4" d="M50,29.291c-0.424,0-0.767-0.344-0.767-0.767v-4.985c0-0.424,0.343-0.768,0.767-0.768
		s0.767,0.344,0.767,0.768v4.985C50.767,28.947,50.424,29.291,50,29.291z"/>
	<path fill="#D4E1F4" d="M40.222,31.911c-0.266,0-0.523-0.138-0.666-0.383l-2.492-4.318c-0.212-0.367-0.086-0.835,0.28-1.047
		c0.368-0.212,0.837-0.087,1.048,0.28l2.493,4.318c0.212,0.366,0.086,0.835-0.281,1.047C40.483,31.878,40.352,31.911,40.222,31.911z
		"/>
	<path fill="#D4E1F4" d="M33.061,39.07c-0.13,0-0.262-0.033-0.382-0.103l-4.318-2.493c-0.367-0.211-0.492-0.681-0.28-1.048
		c0.211-0.367,0.681-0.493,1.047-0.281l4.318,2.493c0.367,0.212,0.493,0.681,0.281,1.048C33.584,38.933,33.326,39.07,33.061,39.07z"
		/>
	<path fill="#D4E1F4" d="M71.255,61.122c-0.13,0-0.262-0.033-0.382-0.103l-4.317-2.493c-0.367-0.213-0.493-0.681-0.281-1.049
		c0.212-0.366,0.681-0.492,1.048-0.279l4.317,2.492c0.367,0.212,0.492,0.681,0.281,1.048C71.778,60.984,71.521,61.122,71.255,61.122
		z"/>
	<polygon fill="#2FC8F2" points="57.286,44.867 51.166,46.016 53.3,33.51 42.714,51.42 48.833,50.275 46.632,62.655 	"/>
	<polygon fill="#00B5F4" points="57.286,44.867 53.431,45.591 46.679,62.388 46.632,62.655 	"/>
	<path fill="#34234D" d="M46.631,63.039c-0.045,0-0.09-0.008-0.134-0.024c-0.173-0.065-0.275-0.245-0.243-0.427l2.104-11.834
		l-5.574,1.043c-0.148,0.028-0.298-0.033-0.385-0.157c-0.086-0.122-0.092-0.285-0.016-0.415l10.588-17.911
		c0.094-0.159,0.289-0.228,0.462-0.165c0.173,0.064,0.275,0.243,0.245,0.425l-2.041,11.963l5.578-1.047
		c0.15-0.029,0.3,0.034,0.387,0.158c0.086,0.124,0.092,0.287,0.015,0.416L46.961,62.853C46.89,62.971,46.763,63.039,46.631,63.039z
		 M48.833,49.891c0.1,0,0.198,0.04,0.271,0.112c0.089,0.089,0.129,0.215,0.107,0.339L47.374,60.67l9.145-15.269l-5.282,0.992
		c-0.124,0.022-0.25-0.016-0.34-0.104c-0.089-0.088-0.131-0.214-0.109-0.338l1.785-10.456l-9.099,15.393l5.289-0.99
		C48.786,49.894,48.81,49.891,48.833,49.891z"/>
</g>
<g id="Layer_2">
</g>
<g id="Layer_3">
</g>
<g id="Layer_4">
</g>
<g id="Layer_5">
</g>
<g id="Layer_6">
</g>
</svg>
