<?xml version="1.0" encoding="utf-8"?>
<!-- Generator: Adobe Illustrator 16.0.3, SVG Export Plug-In . SVG Version: 6.00 Build 0)  -->
<!DOCTYPE svg PUBLIC "-//W3C//DTD SVG 1.1//EN" "http://www.w3.org/Graphics/SVG/1.1/DTD/svg11.dtd">
<svg version="1.1" id="Layer_1" xmlns="http://www.w3.org/2000/svg" xmlns:xlink="http://www.w3.org/1999/xlink" x="0px" y="0px"
	 width="100px" height="100px" viewBox="0 0 100 100" enable-background="new 0 0 100 100" xml:space="preserve">
<path fill="#D4E1F4" d="M69.636,74.122c-0.124,0-0.249-0.049-0.344-0.144l-1.46-1.46c-0.191-0.189-0.191-0.498,0-0.688
	c0.19-0.189,0.498-0.189,0.688,0l1.46,1.46c0.19,0.189,0.19,0.498,0,0.688C69.885,74.073,69.761,74.122,69.636,74.122z"/>
<path fill="#D4E1F4" d="M73.043,77.529c-0.124,0-0.249-0.049-0.344-0.144l-1.46-1.46c-0.192-0.189-0.192-0.498,0-0.688
	c0.189-0.19,0.498-0.19,0.688,0l1.46,1.46c0.19,0.189,0.19,0.497,0,0.688C73.292,77.48,73.167,77.529,73.043,77.529z"/>
<path fill="#D4E1F4" d="M68.176,77.529c-0.124,0-0.249-0.049-0.344-0.144c-0.191-0.19-0.191-0.498,0-0.688l1.46-1.46
	c0.19-0.19,0.498-0.19,0.688,0c0.19,0.189,0.19,0.498,0,0.688l-1.46,1.46C68.425,77.48,68.301,77.529,68.176,77.529z"/>
<path fill="#D4E1F4" d="M71.583,74.122c-0.124,0-0.249-0.049-0.344-0.144c-0.192-0.189-0.192-0.498,0-0.688l1.46-1.46
	c0.189-0.189,0.498-0.189,0.688,0c0.19,0.189,0.19,0.498,0,0.688l-1.46,1.46C71.832,74.073,71.708,74.122,71.583,74.122z"/>
<path fill="#D4E1F4" d="M75.188,23.443c-0.124,0-0.249-0.048-0.344-0.143l-1.46-1.46c-0.189-0.19-0.189-0.498,0-0.688
	c0.189-0.19,0.498-0.19,0.688,0l1.462,1.46c0.19,0.19,0.19,0.498,0,0.688C75.439,23.395,75.315,23.443,75.188,23.443z"/>
<path fill="#D4E1F4" d="M78.596,26.85c-0.125,0-0.249-0.047-0.344-0.143l-1.46-1.459c-0.19-0.19-0.19-0.498,0-0.689
	c0.189-0.19,0.498-0.19,0.688,0l1.462,1.461c0.189,0.19,0.189,0.498,0,0.688C78.847,26.802,78.722,26.85,78.596,26.85z"/>
<path fill="#D4E1F4" d="M73.729,26.85c-0.124,0-0.249-0.047-0.344-0.143c-0.189-0.189-0.189-0.498,0-0.688l1.46-1.461
	c0.189-0.19,0.498-0.19,0.689,0c0.19,0.191,0.19,0.499,0,0.689l-1.462,1.459C73.978,26.802,73.854,26.85,73.729,26.85z"/>
<path fill="#D4E1F4" d="M77.136,23.443c-0.125,0-0.249-0.048-0.344-0.143c-0.19-0.19-0.19-0.498,0-0.688l1.46-1.46
	c0.189-0.19,0.497-0.19,0.689,0c0.189,0.191,0.189,0.499,0,0.688l-1.462,1.46C77.385,23.395,77.26,23.443,77.136,23.443z"/>
<path fill="#D4E1F4" d="M79.814,45.589c-0.124,0-0.249-0.047-0.346-0.143l-1.46-1.46c-0.189-0.189-0.189-0.498,0-0.688
	c0.19-0.19,0.498-0.19,0.69,0l1.459,1.461c0.19,0.19,0.19,0.498,0,0.688C80.063,45.542,79.939,45.589,79.814,45.589z"/>
<path fill="#D4E1F4" d="M83.222,48.997c-0.124,0-0.249-0.048-0.346-0.143l-1.46-1.46c-0.189-0.19-0.189-0.498,0-0.688
	c0.189-0.189,0.498-0.189,0.689,0l1.46,1.46c0.19,0.19,0.19,0.498,0,0.688C83.471,48.949,83.347,48.997,83.222,48.997z"/>
<path fill="#D4E1F4" d="M78.353,48.997c-0.124,0-0.249-0.048-0.344-0.143c-0.189-0.19-0.189-0.498,0-0.688l1.46-1.46
	c0.192-0.189,0.5-0.189,0.689,0c0.19,0.19,0.19,0.498,0,0.688l-1.459,1.46C78.604,48.949,78.478,48.997,78.353,48.997z"/>
<path fill="#D4E1F4" d="M81.76,45.589c-0.124,0-0.249-0.047-0.344-0.143c-0.189-0.19-0.189-0.498,0-0.688l1.46-1.461
	c0.191-0.19,0.5-0.19,0.689,0c0.19,0.191,0.19,0.499,0,0.688l-1.46,1.46C82.011,45.542,81.885,45.589,81.76,45.589z"/>
<path fill="#D4E1F4" d="M45.743,18.089c-0.125,0-0.249-0.048-0.344-0.143l-1.46-1.46c-0.19-0.19-0.19-0.498,0-0.688
	c0.19-0.189,0.498-0.189,0.688,0l1.46,1.46c0.19,0.19,0.19,0.498,0,0.688C45.992,18.041,45.867,18.089,45.743,18.089z"/>
<path fill="#D4E1F4" d="M49.149,21.497c-0.124,0-0.249-0.048-0.344-0.144l-1.46-1.46c-0.189-0.189-0.189-0.498,0-0.688
	c0.19-0.19,0.498-0.19,0.688,0l1.46,1.46c0.19,0.19,0.19,0.498,0,0.688C49.398,21.448,49.274,21.497,49.149,21.497z"/>
<path fill="#D4E1F4" d="M44.283,21.497c-0.125,0-0.249-0.048-0.344-0.144c-0.19-0.19-0.19-0.498,0-0.688l1.46-1.46
	c0.19-0.19,0.498-0.19,0.688,0s0.19,0.498,0,0.688l-1.46,1.46C44.532,21.448,44.407,21.497,44.283,21.497z"/>
<path fill="#D4E1F4" d="M47.69,18.089c-0.125,0-0.249-0.048-0.344-0.143c-0.189-0.19-0.189-0.498,0-0.688l1.46-1.46
	c0.19-0.189,0.498-0.189,0.688,0c0.19,0.19,0.19,0.498,0,0.688l-1.46,1.46C47.939,18.041,47.814,18.089,47.69,18.089z"/>
<path fill="#D4E1F4" d="M18.244,43.479c-0.125,0-0.249-0.046-0.344-0.142l-1.459-1.46c-0.19-0.191-0.19-0.499,0-0.689
	c0.189-0.19,0.498-0.19,0.688,0l1.461,1.46c0.19,0.191,0.19,0.499,0,0.689C18.492,43.432,18.368,43.479,18.244,43.479z"/>
<path fill="#D4E1F4" d="M21.65,46.886c-0.125,0-0.249-0.046-0.344-0.142l-1.46-1.461c-0.19-0.191-0.19-0.499,0-0.688
	s0.498-0.19,0.688,0l1.461,1.459c0.189,0.192,0.189,0.5,0,0.69C21.899,46.839,21.775,46.886,21.65,46.886z"/>
<path fill="#D4E1F4" d="M16.784,46.886c-0.125,0-0.249-0.046-0.344-0.142c-0.19-0.19-0.19-0.498,0-0.69l1.459-1.459
	c0.19-0.19,0.498-0.19,0.689,0c0.19,0.19,0.19,0.498,0,0.688l-1.461,1.461C17.033,46.839,16.908,46.886,16.784,46.886z"/>
<path fill="#D4E1F4" d="M20.19,43.479c-0.124,0-0.249-0.046-0.344-0.142c-0.19-0.19-0.19-0.498,0-0.689l1.46-1.46
	c0.19-0.19,0.498-0.19,0.689,0c0.189,0.19,0.189,0.498,0,0.689l-1.461,1.46C20.439,43.432,20.315,43.479,20.19,43.479z"/>
<path fill="#D4E1F4" d="M32.196,73.818c-0.125,0-0.25-0.047-0.345-0.142l-1.46-1.46c-0.19-0.189-0.19-0.497,0-0.689
	c0.19-0.189,0.498-0.189,0.689,0l1.459,1.462c0.19,0.189,0.19,0.498,0,0.688C32.445,73.771,32.321,73.818,32.196,73.818z"/>
<path fill="#D4E1F4" d="M35.604,77.226c-0.125,0-0.25-0.047-0.345-0.142l-1.459-1.46c-0.19-0.189-0.19-0.498,0-0.689
	c0.189-0.19,0.498-0.19,0.688,0l1.46,1.462c0.19,0.189,0.19,0.498,0,0.688C35.853,77.179,35.728,77.226,35.604,77.226z"/>
<path fill="#D4E1F4" d="M30.735,77.226c-0.125,0-0.249-0.047-0.344-0.142c-0.19-0.189-0.19-0.498,0-0.688l1.46-1.462
	c0.191-0.19,0.499-0.19,0.688,0c0.19,0.191,0.19,0.5,0,0.689l-1.459,1.46C30.984,77.179,30.86,77.226,30.735,77.226z"/>
<path fill="#D4E1F4" d="M34.143,73.818c-0.125,0-0.249-0.047-0.344-0.142c-0.19-0.189-0.19-0.498,0-0.688l1.459-1.462
	c0.191-0.189,0.499-0.189,0.689,0c0.19,0.192,0.19,0.5,0,0.689l-1.46,1.46C34.392,73.771,34.267,73.818,34.143,73.818z"/>
<path fill="#34234D" d="M21.502,64.821c-0.151,0-0.298-0.078-0.379-0.218c-0.345-0.597-0.402-1.34-0.17-2.207
	c1.275-4.761,11.433-13.427,24.701-21.074c14.008-8.074,29.98-13.859,32.46-9.569c0.12,0.209,0.049,0.477-0.16,0.597
	c-0.209,0.12-0.477,0.049-0.597-0.161c-1.705-2.945-14.675,0.325-31.267,9.889C33.214,49.501,22.998,58.14,21.796,62.623
	c-0.17,0.635-0.142,1.153,0.083,1.544c0.12,0.209,0.048,0.475-0.159,0.595C21.651,64.802,21.577,64.821,21.502,64.821z"/>
<path fill="#34234D" d="M32.733,32.683c-0.043,0-0.088-0.007-0.131-0.02c-5.831-1.823-9.84-1.999-10.723-0.473
	c-0.12,0.21-0.388,0.281-0.596,0.161c-0.208-0.121-0.28-0.388-0.16-0.597c1.456-2.515,7.188-1.346,11.74,0.076
	c0.23,0.071,0.359,0.316,0.287,0.546C33.091,32.563,32.919,32.683,32.733,32.683z"/>
<path fill="#34234D" d="M77.734,64.821c-0.073,0-0.149-0.02-0.217-0.06c-0.209-0.12-0.28-0.386-0.16-0.595
	c0.989-1.711-1.851-5.729-7.413-10.489c-0.182-0.156-0.203-0.433-0.047-0.616c0.156-0.181,0.431-0.202,0.614-0.046
	c3.573,3.057,9.313,8.628,7.603,11.588C78.032,64.743,77.887,64.821,77.734,64.821z"/>
<path fill="#FFFFFF" d="M29.989,45.35c0.325-10.071,8.49-18.427,18.553-18.964c11.335-0.605,20.717,8.408,20.717,19.611
	c0,5.749-2.479,10.909-6.42,14.498c-1.886,1.715-2.933,4.166-2.933,6.715v0.173c0,0.964-0.782,1.745-1.746,1.745H41.077
	c-0.964,0-1.746-0.781-1.746-1.745v-0.167c0-2.533-1.016-4.986-2.894-6.685C32.326,56.807,29.794,51.379,29.989,45.35z"/>
<path fill="#EDEDED" d="M56.59,27.631c5.513,3.477,9.177,9.62,9.177,16.619c0,5.751-2.479,10.911-6.419,14.497
	c-1.886,1.718-2.933,4.167-2.933,6.717v3.663h1.745c0.964,0,1.746-0.781,1.746-1.745v-0.173c0-2.549,1.047-5,2.933-6.715
	c3.94-3.589,6.42-8.749,6.42-14.498C69.259,37.604,63.995,30.443,56.59,27.631z"/>
<path fill="#34234D" d="M58.16,69.563H41.077c-1.204,0-2.182-0.979-2.182-2.182v-0.167c0-1.067-0.186-2.109-0.554-3.099
	c-0.083-0.226,0.032-0.477,0.258-0.562c0.226-0.084,0.478,0.032,0.561,0.258c0.404,1.087,0.608,2.229,0.608,3.402v0.167
	c0,0.722,0.588,1.311,1.309,1.311H58.16c0.721,0,1.31-0.589,1.31-1.311v-0.173c0-2.694,1.12-5.259,3.076-7.038
	c3.989-3.632,6.275-8.799,6.275-14.174c0-5.324-2.128-10.275-5.993-13.939c-3.862-3.661-8.924-5.521-14.265-5.236
	c-9.852,0.527-17.82,8.671-18.138,18.543c-0.181,5.639,2.117,11.049,6.306,14.84c0.09,0.082,0.179,0.167,0.267,0.253
	c0.17,0.169,0.174,0.445,0.004,0.616c-0.168,0.173-0.445,0.173-0.617,0.006c-0.078-0.077-0.158-0.153-0.239-0.228
	c-4.38-3.964-6.782-9.619-6.592-15.517C29.885,35.015,38.215,26.5,48.517,25.95c5.576-0.299,10.873,1.646,14.913,5.475
	c4.04,3.831,6.266,9.006,6.266,14.572c0,5.623-2.393,11.023-6.563,14.82c-1.771,1.614-2.789,3.943-2.789,6.393v0.173
	C60.343,68.584,59.364,69.563,58.16,69.563z"/>
<path fill="#2FC8F2" d="M56.906,76.839l-14.838-1.482c-0.669-0.067-1.178-0.631-1.178-1.304v-0.858c0-0.776,0.668-1.382,1.439-1.304
	l14.838,1.482c0.669,0.067,1.18,0.631,1.18,1.304v0.858C58.348,76.312,57.679,76.917,56.906,76.839z"/>
<path fill="#2FC8F2" d="M57.037,79.603H42.199c-0.723,0-1.309-0.586-1.309-1.31v-1.607c0-0.776,0.668-1.38,1.439-1.304l14.838,1.482
	c0.669,0.067,1.18,0.631,1.18,1.304v0.125C58.348,79.017,57.761,79.603,57.037,79.603z"/>
<path fill="#2FC8F2" d="M56.906,73.348l-14.838-1.482c-0.669-0.068-1.178-0.631-1.178-1.304v-1.435h17.458v2.917
	C58.348,72.82,57.679,73.426,56.906,73.348z"/>
<path fill="#00B5F4" d="M58.348,72.044v-2.917H40.89V70l15.525,1.747v7.855h0.622c0.724,0,1.311-0.586,1.311-1.31v-0.125
	c0-0.673-0.511-1.236-1.18-1.304l-0.04-0.027c0.673-0.044,1.22-0.601,1.22-1.302v-0.858c0-0.673-0.511-1.236-1.18-1.304l-0.04-0.027
	C57.801,73.302,58.348,72.744,58.348,72.044z"/>
<path fill="#34234D" d="M57.037,77.282c-0.057,0-0.115-0.002-0.173-0.009l-14.839-1.482c-0.896-0.091-1.572-0.838-1.572-1.738
	v-0.858c0-0.494,0.209-0.967,0.575-1.296c0.364-0.331,0.853-0.489,1.345-0.442l14.84,1.482c0.895,0.091,1.571,0.838,1.571,1.738
	v0.858c0,0.494-0.209,0.967-0.576,1.296C57.888,77.122,57.468,77.282,57.037,77.282z M42.196,72.32c-0.216,0-0.42,0.078-0.582,0.226
	c-0.186,0.167-0.288,0.396-0.288,0.648v0.858c0,0.451,0.338,0.824,0.787,0.869l14.839,1.482l0,0
	c0.249,0.025,0.487-0.053,0.673-0.221c0.186-0.167,0.287-0.397,0.287-0.648v-0.858c0-0.451-0.338-0.824-0.787-0.869l-14.838-1.482
	C42.256,72.32,42.226,72.32,42.196,72.32z"/>
<path fill="#34234D" d="M57.037,80.039H42.199c-0.962,0-1.746-0.784-1.746-1.746v-1.607c0-0.494,0.209-0.967,0.575-1.296
	c0.364-0.329,0.853-0.489,1.345-0.442l14.84,1.482c0.895,0.091,1.571,0.838,1.571,1.738v0.125
	C58.784,79.255,57.999,80.039,57.037,80.039z M42.196,75.812c-0.216,0-0.42,0.078-0.582,0.227c-0.186,0.166-0.288,0.396-0.288,0.647
	v1.607c0,0.48,0.391,0.873,0.874,0.873h14.838c0.483,0,0.874-0.393,0.874-0.873v-0.125c0-0.451-0.338-0.824-0.787-0.869
	l-14.838-1.482C42.256,75.814,42.226,75.812,42.196,75.812z"/>
<path fill="#A09CAD" d="M52.892,83.094h-6.545c-0.688,0-1.335-0.324-1.747-0.873l-1.963-2.618h13.965l-1.964,2.618
	C54.226,82.77,53.58,83.094,52.892,83.094z"/>
<path fill="#34234D" d="M52.892,83.531h-6.545c-0.821,0-1.604-0.393-2.095-1.049l-1.964-2.618c-0.099-0.133-0.116-0.31-0.041-0.458
	c0.074-0.147,0.225-0.24,0.39-0.24h13.965c0.167,0,0.316,0.093,0.391,0.24c0.076,0.148,0.059,0.325-0.04,0.458l-1.964,2.618
	C54.495,83.139,53.713,83.531,52.892,83.531z M43.508,80.039l1.441,1.92c0.327,0.437,0.851,0.698,1.397,0.698h6.545
	c0.547,0,1.068-0.262,1.397-0.698l1.44-1.92H43.508z"/>
<circle fill="#F4136B" cx="49.619" cy="45.997" r="12.22"/>
<path fill="#E0013F" d="M51.802,35.958c2.818,0,5.411,0.957,7.479,2.559c-2.236-2.882-5.73-4.74-9.662-4.74
	c-6.748,0-12.22,5.47-12.22,12.22c0,3.931,1.858,7.426,4.74,9.661c-1.602-2.067-2.559-4.66-2.559-7.479
	C39.58,41.43,45.051,35.958,51.802,35.958z"/>
<path fill="#00B5F4" d="M61.87,38.461c-0.85-0.849-2.226-0.849-3.075,0l-9.173,9.171l-3.546-3.545c-0.851-0.851-2.228-0.851-3.079,0
	c-0.85,0.849-0.85,2.229,0,3.077l5.084,5.086c0.426,0.424,0.983,0.637,1.54,0.637c0.557,0,1.114-0.213,1.538-0.637l10.71-10.711
	C62.721,40.689,62.721,39.31,61.87,38.461z"/>
<path fill="#34234D" d="M49.62,53.323c-0.696,0-1.353-0.271-1.846-0.766l-5.085-5.083c-0.494-0.494-0.766-1.15-0.766-1.848
	s0.272-1.354,0.766-1.848c1.018-1.018,2.676-1.018,3.694,0l3.236,3.238l8.864-8.865c0.494-0.494,1.15-0.765,1.849-0.765
	s1.354,0.271,1.848,0.765l0,0c0.493,0.494,0.764,1.15,0.764,1.848s-0.271,1.354-0.764,1.848l-10.713,10.71
	C50.975,53.052,50.318,53.323,49.62,53.323z M44.536,43.888c-0.445,0-0.891,0.169-1.229,0.509c-0.329,0.328-0.511,0.766-0.511,1.229
	c0,0.464,0.182,0.901,0.511,1.23l5.083,5.085c0.658,0.656,1.804,0.656,2.462,0l10.71-10.711c0.329-0.329,0.511-0.766,0.511-1.23
	c0-0.464-0.182-0.901-0.511-1.23l0,0c-0.656-0.658-1.802-0.658-2.46,0l-9.172,9.172c-0.171,0.169-0.447,0.169-0.618,0l-3.546-3.546
	C45.426,44.057,44.983,43.888,44.536,43.888z"/>
<path fill="#34234D" d="M57.037,73.791c-0.057,0-0.115-0.004-0.173-0.009L42.025,72.3c-0.896-0.091-1.572-0.838-1.572-1.738v-1.435
	c0-0.241,0.195-0.435,0.437-0.435h17.458c0.24,0,0.437,0.193,0.437,0.435v2.917c0,0.494-0.209,0.967-0.576,1.296
	C57.888,73.631,57.468,73.791,57.037,73.791z M41.326,69.563v0.998c0,0.451,0.338,0.824,0.787,0.869l14.839,1.482l0,0
	c0.249,0.025,0.487-0.053,0.673-0.222c0.186-0.166,0.287-0.396,0.287-0.647v-2.48H41.326z"/>
<path fill="#34234D" d="M24.886,66.06c-1.862,0-3.181-0.452-3.763-1.456c-0.12-0.209-0.048-0.477,0.16-0.597
	c0.208-0.12,0.476-0.049,0.596,0.16c1.704,2.947,14.674-0.325,31.268-9.888c12.875-7.421,23.092-16.062,24.294-20.545
	c0.169-0.635,0.142-1.154-0.084-1.544c-0.12-0.208-0.049-0.475,0.16-0.595c0.209-0.121,0.475-0.051,0.597,0.158
	c0.344,0.598,0.401,1.34,0.169,2.207c-1.274,4.762-11.432,13.428-24.701,21.074C42.855,61.218,30.975,66.06,24.886,66.06z"/>
<path fill="#34234D" d="M74.351,66.06c-6.088,0-17.967-4.842-28.697-11.025C32.386,47.388,22.229,38.722,20.953,33.96
	c-0.232-0.867-0.175-1.608,0.17-2.207c0.121-0.209,0.387-0.279,0.597-0.158c0.208,0.12,0.279,0.387,0.159,0.595
	c-0.226,0.391-0.253,0.909-0.083,1.544c1.202,4.483,11.418,13.124,24.295,20.545c16.592,9.563,29.563,12.833,31.267,9.888
	c0.12-0.209,0.388-0.28,0.597-0.16s0.28,0.388,0.16,0.597C77.532,65.607,76.212,66.06,74.351,66.06z"/>
</svg>
