<?xml version="1.0" encoding="utf-8"?>
<!-- Generator: Adobe Illustrator 16.0.3, SVG Export Plug-In . SVG Version: 6.00 Build 0)  -->
<!DOCTYPE svg PUBLIC "-//W3C//DTD SVG 1.1//EN" "http://www.w3.org/Graphics/SVG/1.1/DTD/svg11.dtd">
<svg version="1.1" xmlns="http://www.w3.org/2000/svg" xmlns:xlink="http://www.w3.org/1999/xlink" x="0px" y="0px" width="100px"
	 height="100px" viewBox="0 0 100 100" enable-background="new 0 0 100 100" xml:space="preserve">
<g id="Layer_1">
	<path fill="#FFFFFF" d="M-182.249,47.515c0.285-8.85,7.459-16.192,16.302-16.665c9.961-0.532,18.205,7.388,18.205,17.233
		c0,5.053-2.18,9.586-5.642,12.739c-1.655,1.508-2.576,3.661-2.576,5.901v0.15c0,0.847-0.687,1.534-1.534,1.534h-15.011
		c-0.848,0-1.535-0.688-1.535-1.534v-0.146c0-2.226-0.892-4.383-2.542-5.875C-180.195,57.582-182.419,52.812-182.249,47.515z"/>
	<path fill="#EDEDED" d="M-158.874,31.944c4.844,3.056,8.063,8.453,8.063,14.604c0,5.053-2.179,9.587-5.642,12.739
		c-1.657,1.509-2.576,3.662-2.576,5.902v3.219h1.534c0.848,0,1.534-0.688,1.534-1.534v-0.15c0-2.24,0.921-4.394,2.576-5.901
		c3.462-3.153,5.642-7.687,5.642-12.739C-147.742,40.708-152.368,34.416-158.874,31.944z"/>
	<path fill="#34234D" d="M-157.494,68.792h-15.011c-1.058,0-1.917-0.861-1.917-1.918v-0.146c0-0.938-0.164-1.855-0.487-2.722
		c-0.074-0.2,0.027-0.422,0.226-0.495c0.199-0.074,0.419,0.028,0.493,0.227c0.354,0.955,0.534,1.959,0.534,2.99v0.146
		c0,0.635,0.517,1.15,1.151,1.15h15.011c0.636,0,1.15-0.516,1.15-1.15v-0.15c0-2.369,0.984-4.622,2.701-6.186
		c3.507-3.19,5.517-7.731,5.517-12.455c0-3.455-1.036-6.775-2.996-9.603c-0.12-0.174-0.077-0.413,0.096-0.534
		c0.175-0.122,0.414-0.078,0.534,0.096c2.051,2.957,3.134,6.428,3.134,10.04c0,4.939-2.102,9.687-5.768,13.022
		c-1.559,1.417-2.45,3.466-2.45,5.618v0.15C-155.576,67.931-156.438,68.792-157.494,68.792z"/>
	<path fill="#34234D" d="M-176.359,61.447c-0.097,0-0.194-0.037-0.269-0.111c-0.068-0.067-0.139-0.135-0.211-0.198
		c-3.848-3.484-5.958-8.454-5.792-13.636c0.292-9.069,7.612-16.551,16.665-17.035c4.965-0.268,9.842,1.583,13.371,5.07
		c0.149,0.149,0.151,0.392,0.001,0.542c-0.147,0.15-0.391,0.151-0.54,0.003c-3.375-3.336-8.035-5.106-12.791-4.849
		c-8.659,0.462-15.66,7.619-15.938,16.293c-0.16,4.956,1.86,9.709,5.54,13.042c0.08,0.072,0.157,0.146,0.234,0.221
		c0.151,0.148,0.153,0.392,0.005,0.542C-176.161,61.408-176.26,61.447-176.359,61.447z"/>
	<path fill="#2FC8F2" d="M-158.595,75.185l-13.039-1.304c-0.588-0.06-1.036-0.554-1.036-1.144v-0.756
		c0-0.681,0.587-1.214,1.265-1.146l13.038,1.304c0.59,0.059,1.037,0.554,1.037,1.145v0.756
		C-157.33,74.722-157.919,75.252-158.595,75.185z"/>
	<path fill="#2FC8F2" d="M-158.481,77.613h-13.038c-0.635,0-1.15-0.516-1.15-1.15v-1.414c0-0.681,0.587-1.213,1.265-1.145
		l13.038,1.304c0.59,0.058,1.037,0.555,1.037,1.145v0.11C-157.33,77.098-157.846,77.613-158.481,77.613z"/>
	<path fill="#2FC8F2" d="M-158.595,72.117l-13.039-1.305c-0.588-0.058-1.036-0.554-1.036-1.145v-1.26h15.34v2.564
		C-157.33,71.652-157.919,72.185-158.595,72.117z"/>
	<path fill="#00B5F4" d="M-157.33,70.973v-2.564h-15.34v0.767l13.642,1.534v6.904h0.547c0.636,0,1.151-0.516,1.151-1.15v-0.11
		c0-0.59-0.447-1.087-1.037-1.145l-0.034-0.024c0.591-0.039,1.071-0.529,1.071-1.144v-0.756c0-0.591-0.447-1.086-1.037-1.145
		l-0.034-0.025C-157.811,72.075-157.33,71.586-157.33,70.973z"/>
	<path fill="#34234D" d="M-158.481,75.573c-0.049,0-0.102-0.002-0.151-0.007l-13.04-1.304c-0.787-0.078-1.381-0.735-1.381-1.525
		v-0.756c0-0.434,0.184-0.848,0.505-1.138c0.32-0.29,0.75-0.434,1.182-0.39l13.039,1.304c0.788,0.079,1.383,0.734,1.383,1.526v0.756
		c0,0.432-0.186,0.847-0.506,1.138C-157.734,75.434-158.103,75.573-158.481,75.573z M-171.522,71.214
		c-0.189,0-0.369,0.067-0.512,0.198c-0.163,0.147-0.251,0.35-0.251,0.569v0.756c0,0.395,0.297,0.724,0.691,0.762l13.039,1.304l0,0
		c0.22,0.023,0.428-0.046,0.592-0.194c0.162-0.146,0.251-0.349,0.251-0.568v-0.756c0-0.395-0.296-0.724-0.69-0.763l-13.039-1.304
		C-171.47,71.216-171.496,71.214-171.522,71.214z"/>
	<path fill="#34234D" d="M-158.481,77.996h-13.038c-0.846,0-1.534-0.689-1.534-1.533v-1.414c0-0.433,0.184-0.848,0.505-1.138
		c0.32-0.29,0.75-0.432,1.182-0.39l13.039,1.305c0.788,0.08,1.383,0.734,1.383,1.526v0.11
		C-156.945,77.307-157.635,77.996-158.481,77.996z M-171.522,74.281c-0.189,0-0.369,0.069-0.512,0.198
		c-0.163,0.147-0.251,0.35-0.251,0.569v1.414c0,0.423,0.344,0.766,0.767,0.766h13.038c0.424,0,0.768-0.343,0.768-0.766v-0.11
		c0-0.395-0.296-0.723-0.69-0.764l-13.039-1.304C-171.47,74.283-171.496,74.281-171.522,74.281z"/>
	<path fill="#A09CAD" d="M-162.123,80.681h-5.753c-0.604,0-1.172-0.284-1.534-0.768l-1.726-2.3h12.272l-1.725,2.3
		C-160.951,80.396-161.521,80.681-162.123,80.681z"/>
	<path fill="#34234D" d="M-162.123,81.064h-5.753c-0.72,0-1.409-0.344-1.841-0.922l-1.726-2.3c-0.088-0.116-0.102-0.272-0.036-0.401
		c0.065-0.131,0.197-0.213,0.343-0.213h12.272c0.146,0,0.278,0.082,0.343,0.213c0.066,0.129,0.052,0.285-0.035,0.401l-1.726,2.3
		C-160.717,80.721-161.403,81.064-162.123,81.064z M-170.369,77.996l1.266,1.688c0.288,0.383,0.747,0.612,1.227,0.612h5.753
		c0.479,0,0.938-0.229,1.227-0.612l1.265-1.688H-170.369z"/>
	<circle fill="#F4136B" cx="-165" cy="48.083" r="11.505"/>
	<path fill="#E0013F" d="M-162.945,38.632c2.652,0,5.095,0.901,7.041,2.41c-2.104-2.715-5.395-4.464-9.096-4.464
		c-6.354,0-11.505,5.15-11.505,11.505c0,3.701,1.749,6.99,4.463,9.095c-1.508-1.945-2.409-4.387-2.409-7.041
		C-174.451,43.783-169.3,38.632-162.945,38.632z"/>
	<path fill="#34234D" d="M-158.481,72.505c-0.049,0-0.102-0.001-0.151-0.007l-13.04-1.304c-0.787-0.079-1.381-0.734-1.381-1.526
		v-1.26c0-0.213,0.171-0.384,0.383-0.384h15.34c0.212,0,0.385,0.171,0.385,0.384v2.564c0,0.432-0.186,0.846-0.506,1.137
		C-157.734,72.365-158.103,72.505-158.481,72.505z M-172.286,68.792v0.876c0,0.396,0.297,0.724,0.691,0.763l13.039,1.305l0,0
		c0.22,0.022,0.428-0.046,0.592-0.194c0.162-0.146,0.251-0.35,0.251-0.568v-2.181H-172.286z"/>
	<path fill="#D4E1F4" d="M-140.455,48.85h-4.986c-0.423,0-0.767-0.344-0.767-0.767c0-0.424,0.344-0.767,0.767-0.767h4.986
		c0.423,0,0.767,0.343,0.767,0.767C-139.688,48.506-140.032,48.85-140.455,48.85z"/>
	<path fill="#D4E1F4" d="M-184.559,48.85h-4.985c-0.424,0-0.767-0.344-0.767-0.767c0-0.424,0.343-0.767,0.767-0.767h4.985
		c0.423,0,0.767,0.343,0.767,0.767C-183.792,48.506-184.135,48.85-184.559,48.85z"/>
	<path fill="#D4E1F4" d="M-140.455,48.85h-4.986c-0.423,0-0.767-0.344-0.767-0.767c0-0.424,0.344-0.767,0.767-0.767h4.986
		c0.423,0,0.767,0.343,0.767,0.767C-139.688,48.506-140.032,48.85-140.455,48.85z"/>
	<path fill="#D4E1F4" d="M-184.559,48.85h-4.985c-0.424,0-0.767-0.344-0.767-0.767c0-0.424,0.343-0.767,0.767-0.767h4.985
		c0.423,0,0.767,0.343,0.767,0.767C-183.792,48.506-184.135,48.85-184.559,48.85z"/>
	<path fill="#D4E1F4" d="M-148.061,39.07c-0.265,0-0.523-0.138-0.665-0.384c-0.212-0.367-0.086-0.835,0.281-1.048l4.317-2.493
		c0.366-0.212,0.835-0.086,1.048,0.281c0.211,0.367,0.086,0.836-0.281,1.048l-4.317,2.493
		C-147.799,39.038-147.93,39.07-148.061,39.07z"/>
	<path fill="#D4E1F4" d="M-186.255,61.122c-0.265,0-0.523-0.138-0.665-0.384c-0.212-0.367-0.086-0.836,0.28-1.048l4.318-2.492
		c0.367-0.213,0.836-0.087,1.048,0.279c0.212,0.368,0.086,0.836-0.281,1.049l-4.318,2.493
		C-185.993,61.089-186.125,61.122-186.255,61.122z"/>
	<path fill="#D4E1F4" d="M-155.222,31.911c-0.13,0-0.262-0.033-0.382-0.103c-0.368-0.212-0.494-0.681-0.281-1.047l2.492-4.318
		c0.213-0.367,0.682-0.492,1.049-0.28c0.366,0.211,0.492,0.68,0.28,1.047l-2.492,4.318
		C-154.699,31.773-154.956,31.911-155.222,31.911z"/>
	<path fill="#D4E1F4" d="M-165,29.291c-0.424,0-0.767-0.344-0.767-0.767v-4.985c0-0.424,0.343-0.768,0.767-0.768
		s0.767,0.344,0.767,0.768v4.985C-164.233,28.947-164.576,29.291-165,29.291z"/>
	<path fill="#D4E1F4" d="M-174.778,31.911c-0.266,0-0.523-0.138-0.666-0.383l-2.492-4.318c-0.212-0.367-0.086-0.835,0.28-1.047
		c0.368-0.212,0.837-0.087,1.048,0.28l2.493,4.318c0.212,0.366,0.086,0.835-0.281,1.047
		C-174.517,31.878-174.648,31.911-174.778,31.911z"/>
	<path fill="#D4E1F4" d="M-181.939,39.07c-0.13,0-0.262-0.033-0.382-0.103l-4.318-2.493c-0.367-0.211-0.492-0.681-0.28-1.048
		c0.211-0.367,0.681-0.493,1.047-0.281l4.318,2.493c0.367,0.212,0.493,0.681,0.281,1.048
		C-181.416,38.933-181.674,39.07-181.939,39.07z"/>
	<path fill="#D4E1F4" d="M-143.745,61.122c-0.13,0-0.262-0.033-0.382-0.103l-4.317-2.493c-0.367-0.213-0.493-0.681-0.281-1.049
		c0.212-0.366,0.681-0.492,1.048-0.279l4.317,2.492c0.367,0.212,0.492,0.681,0.281,1.048
		C-143.222,60.984-143.479,61.122-143.745,61.122z"/>
	<polygon fill="#2FC8F2" points="-157.714,44.867 -163.834,46.016 -161.7,33.51 -172.286,51.42 -166.167,50.275 -168.368,62.655 	
		"/>
	<polygon fill="#00B5F4" points="-157.714,44.867 -161.569,45.591 -168.321,62.388 -168.368,62.655 	"/>
	<path fill="#34234D" d="M-168.369,63.039c-0.045,0-0.09-0.008-0.134-0.024c-0.173-0.065-0.275-0.245-0.243-0.427l2.104-11.834
		l-5.574,1.043c-0.148,0.028-0.298-0.033-0.385-0.157c-0.086-0.122-0.092-0.285-0.016-0.415l10.588-17.911
		c0.094-0.159,0.289-0.228,0.462-0.165c0.173,0.064,0.275,0.243,0.245,0.425l-2.041,11.963l5.578-1.047
		c0.15-0.029,0.3,0.034,0.387,0.158c0.086,0.124,0.092,0.287,0.015,0.416l-10.655,17.789
		C-168.11,62.971-168.237,63.039-168.369,63.039z M-166.167,49.891c0.1,0,0.198,0.04,0.271,0.112
		c0.089,0.089,0.129,0.215,0.107,0.339l-1.837,10.328l9.145-15.269l-5.282,0.992c-0.124,0.022-0.25-0.016-0.34-0.104
		c-0.089-0.088-0.131-0.214-0.109-0.338l1.785-10.456l-9.099,15.393l5.289-0.99C-166.214,49.894-166.19,49.891-166.167,49.891z"/>
	<path fill="#2FC8F2" d="M-40.197,25.253h-39.654c-1.493,0-2.704,1.21-2.704,2.704v53.172c0,1.494,1.211,2.705,2.704,2.705h39.654
		c1.492,0,2.703-1.211,2.703-2.705V27.957C-37.494,26.463-38.705,25.253-40.197,25.253z"/>
	<path fill="#00B5F4" d="M-40.197,25.253h-36.951c-1.493,0-2.703,1.21-2.703,2.704v53.172c0,1.494,1.21,2.705,2.703,2.705h36.951
		c1.492,0,2.703-1.211,2.703-2.705V27.957C-37.494,26.463-38.705,25.253-40.197,25.253z"/>
	<path fill="#FFFFFF" d="M-42.451,28.407h-35.147c-0.249,0-0.451,0.202-0.451,0.451v49.568c0,0.248,0.202,0.451,0.451,0.451h35.147
		c0.249,0,0.451-0.203,0.451-0.451V28.858C-42,28.609-42.202,28.407-42.451,28.407z"/>
	<path fill="#34234D" d="M-40.197,84.283h-9.464c-0.249,0-0.45-0.201-0.45-0.449c0-0.25,0.201-0.451,0.45-0.451h9.464
		c1.242,0,2.253-1.012,2.253-2.254V46.915c0-0.249,0.201-0.451,0.45-0.451s0.451,0.202,0.451,0.451v34.214
		C-37.043,82.869-38.459,84.283-40.197,84.283z"/>
	<path fill="#34234D" d="M-52.364,84.283h-27.487c-1.739,0-3.155-1.414-3.155-3.154V27.957c0-1.739,1.416-3.154,3.155-3.154h5.857
		c0.249,0,0.451,0.202,0.451,0.451c0,0.249-0.202,0.451-0.451,0.451h-5.857c-1.243,0-2.254,1.011-2.254,2.253v53.172
		c0,1.242,1.011,2.254,2.254,2.254h27.487c0.249,0,0.45,0.201,0.45,0.451C-51.914,84.082-52.115,84.283-52.364,84.283z"/>
	<path fill="#34234D" d="M-37.494,44.662c-0.249,0-0.45-0.202-0.45-0.451V27.957c0-1.242-1.011-2.253-2.253-2.253H-71.29
		c-0.249,0-0.451-0.202-0.451-0.451c0-0.249,0.202-0.451,0.451-0.451h31.093c1.738,0,3.154,1.415,3.154,3.154v16.254
		C-37.043,44.46-37.245,44.662-37.494,44.662z"/>
	<path fill="#34234D" d="M-50.562,32.012h-18.927c-1.242,0-2.253-1.011-2.253-2.253v-4.506c0-0.249,0.202-0.451,0.451-0.451h22.53
		c0.249,0,0.451,0.202,0.451,0.451v4.506C-48.309,31.001-49.319,32.012-50.562,32.012z M-70.84,25.704v4.055
		c0,0.746,0.606,1.352,1.352,1.352h18.927c0.745,0,1.352-0.606,1.352-1.352v-4.055H-70.84z"/>
	<circle fill="#F4136B" cx="-38.396" cy="59.5" r="12.617"/>
	<path fill="#E0013F" d="M-36.143,49.136c2.91,0,5.588,0.987,7.722,2.642c-2.308-2.977-5.916-4.895-9.975-4.895
		c-6.968,0-12.617,5.649-12.617,12.618c0,4.059,1.918,7.666,4.896,9.975c-1.654-2.135-2.643-4.813-2.643-7.722
		C-48.76,54.785-43.11,49.136-36.143,49.136z"/>
	<path fill="#34234D" d="M-38.396,72.568c-7.205,0-13.067-5.863-13.067-13.068c0-7.206,5.862-13.068,13.067-13.068
		c7.206,0,13.068,5.862,13.068,13.068C-25.327,66.705-31.189,72.568-38.396,72.568z M-38.396,47.333
		c-6.708,0-12.166,5.458-12.166,12.167s5.458,12.166,12.166,12.166c6.709,0,12.167-5.457,12.167-12.166
		S-31.687,47.333-38.396,47.333z"/>
	<path fill="#2FC8F2" d="M-43.695,58.203l4.974,4.974c0.352,0.353,0.923,0.353,1.274,0l11.134-11.133
		c0.497-0.497,1.168-0.749,1.831-0.74c-0.062-0.079-0.118-0.161-0.191-0.234c-0.931-0.931-2.438-0.931-3.369,0L-38.085,61.11
		l-3.882-3.882c-0.931-0.93-2.438-0.93-3.369,0c-0.073,0.073-0.13,0.155-0.191,0.234C-44.864,57.455-44.192,57.707-43.695,58.203z"
		/>
	<path fill="#00B5F4" d="M-45.336,60.598l5.566,5.567c0.466,0.466,1.075,0.698,1.685,0.698s1.22-0.232,1.685-0.698l11.727-11.727
		c0.858-0.856,0.915-2.2,0.191-3.135c-0.663-0.009-1.334,0.243-1.831,0.74l-11.134,11.133c-0.352,0.353-0.923,0.353-1.274,0
		l-4.974-4.974c-0.497-0.496-1.169-0.748-1.832-0.74C-46.251,58.397-46.193,59.74-45.336,60.598z"/>
	<path fill="#34234D" d="M-38.085,67.313c-0.756,0-1.467-0.295-2.003-0.83l-5.566-5.567c-0.535-0.534-0.83-1.246-0.83-2.002
		c0-0.758,0.295-1.469,0.83-2.004c1.105-1.104,2.902-1.104,4.006,0l3.563,3.563l9.724-9.722c1.105-1.104,2.903-1.104,4.007,0l0,0
		l0,0l0,0c0.535,0.535,0.83,1.246,0.83,2.003c0,0.757-0.295,1.469-0.83,2.004l-11.727,11.726
		C-36.616,67.019-37.328,67.313-38.085,67.313z M-43.651,56.982c-0.494,0-0.989,0.188-1.366,0.564
		c-0.365,0.365-0.565,0.851-0.565,1.367c0,0.516,0.2,1,0.565,1.365l5.567,5.566c0.365,0.365,0.85,0.566,1.365,0.566
		c0.517,0,1.002-0.201,1.366-0.566l11.727-11.727c0.365-0.364,0.566-0.85,0.566-1.365s-0.201-1.002-0.566-1.365v-0.001
		c-0.753-0.753-1.979-0.753-2.731,0l-10.042,10.041c-0.177,0.177-0.462,0.177-0.638,0l-3.882-3.882
		C-42.662,57.171-43.156,56.982-43.651,56.982z"/>
	<path fill="#34234D" d="M-45.154,37.87h-6.984c-0.249,0-0.451-0.202-0.451-0.451s0.202-0.451,0.451-0.451h6.984
		c0.249,0,0.45,0.202,0.45,0.451S-44.905,37.87-45.154,37.87z"/>
	<path fill="#34234D" d="M-54.843,37.87h-9.237c-0.249,0-0.451-0.202-0.451-0.451s0.202-0.451,0.451-0.451h9.237
		c0.249,0,0.45,0.202,0.45,0.451S-54.594,37.87-54.843,37.87z"/>
	<path fill="#34234D" d="M-49.21,40.574h-6.984c-0.249,0-0.451-0.202-0.451-0.451c0-0.249,0.202-0.451,0.451-0.451h6.984
		c0.249,0,0.45,0.202,0.45,0.451C-48.76,40.372-48.961,40.574-49.21,40.574z"/>
	<path fill="#34234D" d="M-58.898,40.574h-5.182c-0.249,0-0.451-0.202-0.451-0.451c0-0.249,0.202-0.451,0.451-0.451h5.182
		c0.249,0,0.451,0.202,0.451,0.451C-58.447,40.372-58.649,40.574-58.898,40.574z"/>
	<circle fill="#E6E6E6" cx="-71.29" cy="38.771" r="4.056"/>
	<circle fill="#E6E6E6" cx="-71.29" cy="49.586" r="4.056"/>
	<circle fill="#E6E6E6" cx="-71.29" cy="60.4" r="4.056"/>
	<circle fill="#E6E6E6" cx="-71.29" cy="71.216" r="4.056"/>
	<path fill="#34234D" d="M-71.29,43.277c-2.484,0-4.507-2.021-4.507-4.506s2.022-4.506,4.507-4.506s4.506,2.021,4.506,4.506
		S-68.806,43.277-71.29,43.277z M-71.29,35.167c-1.988,0-3.605,1.617-3.605,3.605s1.617,3.605,3.605,3.605
		c1.987,0,3.604-1.617,3.604-3.605S-69.303,35.167-71.29,35.167z"/>
	<path fill="#34234D" d="M-48.76,48.685h-6.083c-0.249,0-0.45-0.202-0.45-0.451s0.201-0.451,0.45-0.451h6.083
		c0.249,0,0.451,0.202,0.451,0.451S-48.511,48.685-48.76,48.685z"/>
	<path fill="#34234D" d="M-57.547,48.685h-6.533c-0.249,0-0.451-0.202-0.451-0.451s0.202-0.451,0.451-0.451h6.533
		c0.249,0,0.451,0.202,0.451,0.451S-57.298,48.685-57.547,48.685z"/>
	<path fill="#34234D" d="M-51.013,51.389h-6.083c-0.249,0-0.451-0.201-0.451-0.451c0-0.249,0.202-0.451,0.451-0.451h6.083
		c0.249,0,0.451,0.202,0.451,0.451C-50.562,51.188-50.764,51.389-51.013,51.389z"/>
	<path fill="#34234D" d="M-59.8,51.389h-4.28c-0.249,0-0.451-0.201-0.451-0.451c0-0.249,0.202-0.451,0.451-0.451h4.28
		c0.249,0,0.451,0.202,0.451,0.451C-59.349,51.188-59.551,51.389-59.8,51.389z"/>
	<path fill="#34234D" d="M-71.29,54.092c-2.484,0-4.507-2.021-4.507-4.506s2.022-4.506,4.507-4.506s4.506,2.021,4.506,4.506
		S-68.806,54.092-71.29,54.092z M-71.29,45.981c-1.988,0-3.605,1.617-3.605,3.604c0,1.988,1.617,3.605,3.605,3.605
		c1.987,0,3.604-1.617,3.604-3.605C-67.686,47.599-69.303,45.981-71.29,45.981z"/>
	<path fill="#34234D" d="M-53.491,59.5H-64.08c-0.249,0-0.451-0.202-0.451-0.451c0-0.248,0.202-0.45,0.451-0.45h10.589
		c0.249,0,0.451,0.202,0.451,0.45C-53.04,59.298-53.242,59.5-53.491,59.5z"/>
	<path fill="#34234D" d="M-53.266,62.203h-3.83c-0.249,0-0.451-0.201-0.451-0.45s0.202-0.45,0.451-0.45h3.83
		c0.249,0,0.45,0.201,0.45,0.45S-53.017,62.203-53.266,62.203z"/>
	<path fill="#34234D" d="M-59.8,62.203h-4.28c-0.249,0-0.451-0.201-0.451-0.45s0.202-0.45,0.451-0.45h4.28
		c0.249,0,0.451,0.201,0.451,0.45S-59.551,62.203-59.8,62.203z"/>
	<path fill="#34234D" d="M-71.29,64.907c-2.484,0-4.507-2.021-4.507-4.507c0-2.484,2.022-4.506,4.507-4.506s4.506,2.021,4.506,4.506
		C-66.784,62.886-68.806,64.907-71.29,64.907z M-71.29,56.796c-1.988,0-3.605,1.617-3.605,3.604c0,1.988,1.617,3.605,3.605,3.605
		c1.987,0,3.604-1.617,3.604-3.605C-67.686,58.413-69.303,56.796-71.29,56.796z"/>
	<path fill="#34234D" d="M-49.21,70.314h-6.083c-0.249,0-0.451-0.201-0.451-0.451c0-0.248,0.202-0.45,0.451-0.45h6.083
		c0.249,0,0.45,0.202,0.45,0.45C-48.76,70.113-48.961,70.314-49.21,70.314z"/>
	<path fill="#34234D" d="M-57.997,70.314h-6.083c-0.249,0-0.451-0.201-0.451-0.451c0-0.248,0.202-0.45,0.451-0.45h6.083
		c0.249,0,0.45,0.202,0.45,0.45C-57.547,70.113-57.748,70.314-57.997,70.314z"/>
	<path fill="#34234D" d="M-46.507,73.018h-5.632c-0.249,0-0.451-0.201-0.451-0.449c0-0.25,0.202-0.451,0.451-0.451h5.632
		c0.25,0,0.451,0.201,0.451,0.451C-46.056,72.816-46.257,73.018-46.507,73.018z"/>
	<path fill="#34234D" d="M-54.843,73.018h-9.237c-0.249,0-0.451-0.201-0.451-0.449c0-0.25,0.202-0.451,0.451-0.451h9.237
		c0.249,0,0.45,0.201,0.45,0.451C-54.393,72.816-54.594,73.018-54.843,73.018z"/>
	<path fill="#34234D" d="M-71.29,75.723c-2.484,0-4.507-2.022-4.507-4.507s2.022-4.507,4.507-4.507s4.506,2.022,4.506,4.507
		S-68.806,75.723-71.29,75.723z M-71.29,67.611c-1.988,0-3.605,1.617-3.605,3.604s1.617,3.604,3.605,3.604
		c1.987,0,3.604-1.617,3.604-3.604S-69.303,67.611-71.29,67.611z"/>
	<path fill="#F4136B" d="M-70.78,41.024c-0.23,0-0.461-0.088-0.638-0.264l-1.956-1.956c-0.352-0.352-0.352-0.922,0-1.274
		c0.353-0.352,0.923-0.352,1.274,0l1.319,1.318l3.175-3.175c0.352-0.352,0.922-0.352,1.274,0c0.352,0.352,0.352,0.923,0,1.274
		l-3.813,3.812C-70.319,40.937-70.55,41.024-70.78,41.024z"/>
	<path fill="#F4136B" d="M-70.78,51.84c-0.23,0-0.461-0.088-0.638-0.265l-1.956-1.956c-0.352-0.352-0.352-0.922,0-1.274
		c0.353-0.352,0.923-0.352,1.274,0l1.319,1.318l3.175-3.175c0.352-0.352,0.922-0.352,1.274,0c0.352,0.352,0.352,0.923,0,1.274
		l-3.813,3.812C-70.319,51.752-70.55,51.84-70.78,51.84z"/>
	<path fill="#F4136B" d="M-70.78,73.469c-0.23,0-0.461-0.088-0.638-0.264l-1.956-1.956c-0.352-0.353-0.352-0.923,0-1.274
		c0.353-0.352,0.923-0.352,1.274,0l1.319,1.318l3.175-3.174c0.352-0.353,0.922-0.353,1.274,0c0.352,0.352,0.352,0.922,0,1.273
		l-3.813,3.813C-70.319,73.381-70.55,73.469-70.78,73.469z"/>
	<path fill="#D4E1F4" d="M-27.13,74.37c-0.115,0-0.23-0.044-0.318-0.132l-1.352-1.352c-0.177-0.176-0.177-0.461,0-0.638
		c0.176-0.176,0.461-0.176,0.637,0l1.352,1.353c0.177,0.176,0.177,0.461,0,0.637C-26.899,74.326-27.015,74.37-27.13,74.37z"/>
	<path fill="#D4E1F4" d="M-23.976,77.525c-0.115,0-0.23-0.045-0.318-0.133l-1.352-1.352c-0.177-0.176-0.177-0.461,0-0.638
		c0.176-0.176,0.461-0.176,0.637,0l1.352,1.353c0.177,0.176,0.177,0.461,0,0.637C-23.745,77.48-23.86,77.525-23.976,77.525z"/>
	<path fill="#D4E1F4" d="M-28.481,77.525c-0.115,0-0.23-0.045-0.318-0.133c-0.177-0.176-0.177-0.461,0-0.637l1.352-1.353
		c0.176-0.176,0.461-0.176,0.637,0c0.177,0.177,0.177,0.462,0,0.638l-1.352,1.352C-28.251,77.48-28.366,77.525-28.481,77.525z"/>
	<path fill="#D4E1F4" d="M-25.327,74.37c-0.115,0-0.23-0.044-0.318-0.132c-0.177-0.176-0.177-0.461,0-0.637l1.352-1.353
		c0.176-0.176,0.461-0.176,0.637,0c0.177,0.177,0.177,0.462,0,0.638l-1.352,1.352C-25.097,74.326-25.212,74.37-25.327,74.37z"/>
	<path fill="#D4E1F4" d="M-32.988,23.45c-0.115,0-0.23-0.044-0.318-0.132l-1.352-1.352c-0.176-0.176-0.176-0.461,0-0.637
		c0.176-0.176,0.461-0.176,0.637,0l1.353,1.352c0.176,0.176,0.176,0.461,0,0.637C-32.757,23.406-32.872,23.45-32.988,23.45z"/>
	<path fill="#D4E1F4" d="M-29.834,26.604c-0.115,0-0.23-0.044-0.318-0.132l-1.352-1.352c-0.176-0.176-0.176-0.461,0-0.637
		c0.176-0.176,0.461-0.176,0.637,0l1.353,1.352c0.176,0.176,0.176,0.461,0,0.637C-29.603,26.561-29.718,26.604-29.834,26.604z"/>
	<path fill="#D4E1F4" d="M-34.34,26.604c-0.115,0-0.23-0.044-0.318-0.132c-0.176-0.176-0.176-0.461,0-0.637l1.352-1.352
		c0.176-0.176,0.461-0.176,0.638,0c0.176,0.176,0.176,0.461,0,0.637l-1.353,1.352C-34.109,26.561-34.225,26.604-34.34,26.604z"/>
	<path fill="#D4E1F4" d="M-31.186,23.45c-0.115,0-0.23-0.044-0.318-0.132c-0.176-0.176-0.176-0.461,0-0.637l1.352-1.352
		c0.176-0.176,0.461-0.176,0.638,0c0.176,0.176,0.176,0.461,0,0.637l-1.353,1.352C-30.955,23.406-31.07,23.45-31.186,23.45z"/>
	<path fill="#D4E1F4" d="M-18.117,37.87c-0.115,0-0.23-0.044-0.319-0.132l-1.352-1.352c-0.176-0.176-0.176-0.461,0-0.637
		c0.176-0.176,0.461-0.176,0.638,0l1.352,1.352c0.176,0.176,0.176,0.461,0,0.637C-17.887,37.826-18.002,37.87-18.117,37.87z"/>
	<path fill="#D4E1F4" d="M-14.963,41.024c-0.115,0-0.23-0.044-0.319-0.132l-1.352-1.352c-0.176-0.176-0.176-0.461,0-0.637
		c0.176-0.176,0.461-0.176,0.638,0l1.352,1.352c0.176,0.176,0.176,0.461,0,0.637C-14.732,40.98-14.848,41.024-14.963,41.024z"/>
	<path fill="#D4E1F4" d="M-19.47,41.024c-0.115,0-0.23-0.044-0.318-0.132c-0.176-0.176-0.176-0.461,0-0.637l1.352-1.352
		c0.177-0.176,0.462-0.176,0.638,0c0.176,0.176,0.176,0.461,0,0.637l-1.352,1.352C-19.238,40.98-19.354,41.024-19.47,41.024z"/>
	<path fill="#D4E1F4" d="M-16.315,37.87c-0.115,0-0.23-0.044-0.318-0.132c-0.176-0.176-0.176-0.461,0-0.637l1.352-1.352
		c0.177-0.176,0.462-0.176,0.638,0c0.176,0.176,0.176,0.461,0,0.637l-1.352,1.352C-16.084,37.826-16.2,37.87-16.315,37.87z"/>
	<path fill="#D4E1F4" d="M-61.827,13.537c-0.115,0-0.23-0.044-0.318-0.132l-1.353-1.352c-0.176-0.176-0.176-0.461,0-0.637
		c0.177-0.176,0.462-0.176,0.638,0l1.352,1.352c0.176,0.176,0.176,0.461,0,0.637C-61.597,13.493-61.712,13.537-61.827,13.537z"/>
	<path fill="#D4E1F4" d="M-58.673,16.691c-0.115,0-0.23-0.044-0.318-0.132l-1.353-1.352c-0.176-0.176-0.176-0.461,0-0.637
		c0.177-0.176,0.462-0.176,0.638,0l1.352,1.352c0.176,0.176,0.176,0.461,0,0.637C-58.442,16.647-58.558,16.691-58.673,16.691z"/>
	<path fill="#D4E1F4" d="M-63.179,16.691c-0.116,0-0.231-0.044-0.319-0.132c-0.176-0.176-0.176-0.461,0-0.637l1.353-1.352
		c0.176-0.176,0.461-0.176,0.637,0c0.176,0.176,0.176,0.461,0,0.637l-1.352,1.352C-62.948,16.647-63.063,16.691-63.179,16.691z"/>
	<path fill="#D4E1F4" d="M-60.024,13.537c-0.116,0-0.231-0.044-0.319-0.132c-0.176-0.176-0.176-0.461,0-0.637l1.353-1.352
		c0.176-0.176,0.461-0.176,0.637,0c0.176,0.176,0.176,0.461,0,0.637l-1.352,1.352C-59.794,13.493-59.909,13.537-60.024,13.537z"/>
	<path fill="#D4E1F4" d="M-88.414,32.012c-0.115,0-0.23-0.044-0.318-0.132l-1.352-1.352c-0.176-0.176-0.176-0.461,0-0.637
		c0.176-0.176,0.461-0.176,0.637,0l1.353,1.352c0.176,0.176,0.176,0.461,0,0.637C-88.184,31.968-88.299,32.012-88.414,32.012z"/>
	<path fill="#D4E1F4" d="M-85.26,35.167c-0.115,0-0.23-0.044-0.318-0.132l-1.352-1.352c-0.176-0.176-0.176-0.461,0-0.637
		c0.176-0.176,0.461-0.176,0.637,0l1.353,1.352c0.176,0.176,0.176,0.461,0,0.637C-85.029,35.123-85.145,35.167-85.26,35.167z"/>
	<path fill="#D4E1F4" d="M-89.766,35.167c-0.115,0-0.23-0.044-0.318-0.132c-0.176-0.176-0.176-0.461,0-0.637l1.352-1.352
		c0.176-0.176,0.461-0.176,0.638,0c0.176,0.176,0.176,0.461,0,0.637l-1.353,1.352C-89.535,35.123-89.65,35.167-89.766,35.167z"/>
	<path fill="#D4E1F4" d="M-86.611,32.012c-0.115,0-0.23-0.044-0.318-0.132c-0.176-0.176-0.176-0.461,0-0.637l1.352-1.352
		c0.176-0.176,0.461-0.176,0.638,0c0.176,0.176,0.176,0.461,0,0.637l-1.353,1.352C-86.381,31.968-86.496,32.012-86.611,32.012z"/>
	<path fill="#D4E1F4" d="M-90.216,63.555c-0.115,0-0.231-0.043-0.319-0.131l-1.352-1.353c-0.176-0.176-0.176-0.461,0-0.638
		c0.176-0.176,0.461-0.176,0.638,0l1.352,1.353c0.176,0.176,0.176,0.461,0,0.638C-89.985,63.512-90.101,63.555-90.216,63.555z"/>
	<path fill="#D4E1F4" d="M-87.062,66.709c-0.115,0-0.231-0.043-0.319-0.131l-1.352-1.353c-0.176-0.176-0.176-0.461,0-0.638
		c0.176-0.176,0.461-0.176,0.638,0l1.352,1.353c0.176,0.176,0.176,0.461,0,0.638C-86.831,66.666-86.946,66.709-87.062,66.709z"/>
	<path fill="#D4E1F4" d="M-91.568,66.709c-0.115,0-0.23-0.043-0.318-0.131c-0.176-0.177-0.176-0.462,0-0.638l1.352-1.353
		c0.177-0.176,0.462-0.176,0.638,0c0.176,0.177,0.176,0.462,0,0.638l-1.352,1.353C-91.338,66.666-91.453,66.709-91.568,66.709z"/>
	<path fill="#D4E1F4" d="M-88.414,63.555c-0.115,0-0.23-0.043-0.318-0.131c-0.176-0.177-0.176-0.462,0-0.638l1.352-1.353
		c0.177-0.176,0.462-0.176,0.638,0c0.176,0.177,0.176,0.462,0,0.638l-1.352,1.353C-88.184,63.512-88.299,63.555-88.414,63.555z"/>
	<path fill="#D4E1F4" d="M66.136,73.99c-0.115,0-0.23-0.045-0.318-0.133l-1.352-1.352c-0.177-0.176-0.177-0.461,0-0.637
		c0.176-0.176,0.461-0.176,0.637,0l1.352,1.352c0.177,0.176,0.177,0.461,0,0.637C66.366,73.945,66.251,73.99,66.136,73.99z"/>
	<path fill="#D4E1F4" d="M69.29,77.145c-0.115,0-0.23-0.045-0.318-0.133L67.62,75.66c-0.177-0.176-0.177-0.461,0-0.637
		c0.176-0.176,0.461-0.176,0.637,0l1.352,1.352c0.177,0.176,0.177,0.461,0,0.637C69.521,77.1,69.405,77.145,69.29,77.145z"/>
	<path fill="#D4E1F4" d="M64.784,77.145c-0.115,0-0.23-0.045-0.318-0.133c-0.177-0.176-0.177-0.461,0-0.637l1.352-1.352
		c0.176-0.176,0.461-0.176,0.637,0c0.177,0.176,0.177,0.461,0,0.637l-1.352,1.352C65.015,77.1,64.899,77.145,64.784,77.145z"/>
	<path fill="#D4E1F4" d="M67.938,73.99c-0.115,0-0.23-0.045-0.318-0.133c-0.177-0.176-0.177-0.461,0-0.637l1.352-1.352
		c0.176-0.176,0.461-0.176,0.637,0c0.177,0.176,0.177,0.461,0,0.637l-1.352,1.352C68.169,73.945,68.054,73.99,67.938,73.99z"/>
	<path fill="#D4E1F4" d="M71.277,27.07c-0.115,0-0.23-0.044-0.318-0.132l-1.352-1.352c-0.176-0.176-0.176-0.461,0-0.638
		c0.176-0.176,0.461-0.176,0.637,0l1.353,1.353c0.176,0.176,0.176,0.461,0,0.637C71.509,27.026,71.394,27.07,71.277,27.07z"/>
	<path fill="#D4E1F4" d="M74.432,30.224c-0.115,0-0.23-0.044-0.318-0.132l-1.352-1.352c-0.176-0.176-0.176-0.461,0-0.638
		c0.176-0.176,0.461-0.176,0.637,0l1.353,1.353c0.176,0.176,0.176,0.461,0,0.637C74.663,30.18,74.548,30.224,74.432,30.224z"/>
	<path fill="#D4E1F4" d="M69.926,30.224c-0.115,0-0.23-0.044-0.318-0.132c-0.176-0.176-0.176-0.461,0-0.637l1.352-1.353
		c0.176-0.176,0.461-0.176,0.638,0c0.176,0.177,0.176,0.462,0,0.638l-1.353,1.352C70.156,30.18,70.041,30.224,69.926,30.224z"/>
	<path fill="#D4E1F4" d="M73.08,27.07c-0.115,0-0.23-0.044-0.318-0.132c-0.176-0.176-0.176-0.461,0-0.637l1.352-1.353
		c0.176-0.176,0.461-0.176,0.638,0c0.176,0.177,0.176,0.462,0,0.638l-1.353,1.352C73.311,27.026,73.195,27.07,73.08,27.07z"/>
	<path fill="#D4E1F4" d="M75.56,47.574c-0.115,0-0.23-0.044-0.319-0.132l-1.352-1.352c-0.176-0.176-0.176-0.461,0-0.638
		c0.176-0.176,0.461-0.176,0.638,0l1.352,1.353c0.176,0.176,0.176,0.461,0,0.637C75.79,47.53,75.675,47.574,75.56,47.574z"/>
	<path fill="#D4E1F4" d="M78.714,50.729c-0.115,0-0.23-0.045-0.319-0.133l-1.352-1.352c-0.176-0.176-0.176-0.461,0-0.637
		s0.461-0.176,0.638,0l1.352,1.352c0.176,0.176,0.176,0.461,0,0.637C78.944,50.684,78.829,50.729,78.714,50.729z"/>
	<path fill="#D4E1F4" d="M74.207,50.729c-0.115,0-0.23-0.045-0.318-0.133c-0.176-0.176-0.176-0.461,0-0.637l1.352-1.352
		c0.177-0.176,0.462-0.176,0.638,0s0.176,0.461,0,0.637l-1.352,1.352C74.438,50.684,74.322,50.729,74.207,50.729z"/>
	<path fill="#D4E1F4" d="M77.361,47.574c-0.115,0-0.23-0.044-0.318-0.132c-0.176-0.176-0.176-0.461,0-0.637l1.352-1.353
		c0.177-0.176,0.462-0.176,0.638,0c0.176,0.177,0.176,0.462,0,0.638l-1.352,1.352C77.593,47.53,77.477,47.574,77.361,47.574z"/>
	<path fill="#D4E1F4" d="M44.016,22.114c-0.115,0-0.23-0.045-0.318-0.133l-1.353-1.352c-0.176-0.176-0.176-0.461,0-0.637
		c0.177-0.176,0.462-0.176,0.638,0l1.352,1.352c0.176,0.176,0.176,0.461,0,0.637C44.246,22.069,44.131,22.114,44.016,22.114z"/>
	<path fill="#D4E1F4" d="M47.17,25.268c-0.115,0-0.23-0.045-0.318-0.133l-1.353-1.352c-0.176-0.176-0.176-0.461,0-0.637
		c0.177-0.176,0.462-0.176,0.638,0l1.352,1.352c0.176,0.176,0.176,0.461,0,0.637C47.4,25.223,47.285,25.268,47.17,25.268z"/>
	<path fill="#D4E1F4" d="M42.664,25.268c-0.116,0-0.231-0.045-0.319-0.133c-0.176-0.176-0.176-0.461,0-0.637l1.353-1.352
		c0.176-0.176,0.461-0.176,0.637,0s0.176,0.461,0,0.637l-1.352,1.352C42.895,25.223,42.779,25.268,42.664,25.268z"/>
	<path fill="#D4E1F4" d="M45.818,22.114c-0.116,0-0.231-0.045-0.319-0.133c-0.176-0.176-0.176-0.461,0-0.637l1.353-1.352
		c0.176-0.176,0.461-0.176,0.637,0s0.176,0.461,0,0.637l-1.352,1.352C46.049,22.069,45.934,22.114,45.818,22.114z"/>
	<path fill="#D4E1F4" d="M18.556,45.62c-0.115,0-0.23-0.043-0.318-0.132l-1.352-1.352c-0.176-0.177-0.176-0.462,0-0.638
		s0.461-0.176,0.637,0l1.353,1.352c0.176,0.177,0.176,0.462,0,0.638C18.786,45.577,18.671,45.62,18.556,45.62z"/>
	<path fill="#D4E1F4" d="M21.71,48.773c-0.115,0-0.23-0.043-0.318-0.131l-1.352-1.352c-0.176-0.177-0.176-0.462,0-0.638
		s0.461-0.176,0.637,0l1.353,1.351c0.176,0.178,0.176,0.463,0,0.639C21.94,48.73,21.825,48.773,21.71,48.773z"/>
	<path fill="#D4E1F4" d="M17.204,48.773c-0.115,0-0.23-0.043-0.318-0.131c-0.176-0.176-0.176-0.461,0-0.639l1.352-1.351
		c0.176-0.176,0.461-0.176,0.638,0c0.176,0.176,0.176,0.461,0,0.638l-1.353,1.352C17.435,48.73,17.319,48.773,17.204,48.773z"/>
	<path fill="#D4E1F4" d="M20.358,45.62c-0.115,0-0.23-0.043-0.318-0.132c-0.176-0.176-0.176-0.461,0-0.638l1.352-1.352
		c0.176-0.176,0.461-0.176,0.638,0c0.176,0.176,0.176,0.461,0,0.638l-1.353,1.352C20.589,45.577,20.474,45.62,20.358,45.62z"/>
	<path fill="#D4E1F4" d="M31.474,73.709c-0.115,0-0.231-0.043-0.319-0.131l-1.352-1.352c-0.176-0.176-0.176-0.461,0-0.639
		c0.176-0.176,0.461-0.176,0.638,0l1.352,1.354c0.176,0.176,0.176,0.461,0,0.637C31.704,73.666,31.589,73.709,31.474,73.709z"/>
	<path fill="#D4E1F4" d="M34.628,76.863c-0.115,0-0.231-0.043-0.319-0.131l-1.352-1.352c-0.176-0.176-0.176-0.461,0-0.639
		c0.176-0.176,0.461-0.176,0.638,0l1.352,1.354c0.176,0.176,0.176,0.461,0,0.637C34.858,76.82,34.743,76.863,34.628,76.863z"/>
	<path fill="#D4E1F4" d="M30.121,76.863c-0.115,0-0.23-0.043-0.318-0.131c-0.176-0.176-0.176-0.461,0-0.637l1.352-1.354
		c0.177-0.176,0.462-0.176,0.638,0c0.176,0.178,0.176,0.463,0,0.639l-1.352,1.352C30.352,76.82,30.236,76.863,30.121,76.863z"/>
	<path fill="#D4E1F4" d="M33.275,73.709c-0.115,0-0.23-0.043-0.318-0.131c-0.176-0.176-0.176-0.461,0-0.637l1.352-1.354
		c0.177-0.176,0.462-0.176,0.638,0c0.176,0.178,0.176,0.463,0,0.639l-1.352,1.352C33.506,73.666,33.391,73.709,33.275,73.709z"/>
	<path fill="#34234D" d="M21.572,65.38c-0.14,0-0.275-0.072-0.351-0.202c-0.319-0.553-0.372-1.24-0.157-2.043
		c1.181-4.407,10.585-12.431,22.869-19.511c12.968-7.475,27.755-12.832,30.052-8.859c0.111,0.193,0.045,0.44-0.148,0.552
		c-0.192,0.111-0.44,0.046-0.552-0.148c-1.578-2.728-13.586,0.3-28.948,9.155c-11.921,6.872-21.38,14.871-22.492,19.02
		c-0.157,0.588-0.132,1.069,0.077,1.43c0.111,0.193,0.045,0.439-0.147,0.552C21.711,65.362,21.642,65.38,21.572,65.38z"/>
	<path fill="#34234D" d="M31.971,35.625c-0.04,0-0.081-0.006-0.121-0.019c-5.398-1.688-9.11-1.851-9.928-0.437
		c-0.111,0.194-0.359,0.259-0.552,0.148c-0.193-0.112-0.26-0.359-0.148-0.552c1.348-2.329,6.654-1.247,10.869,0.07
		c0.213,0.066,0.332,0.293,0.266,0.506C32.302,35.514,32.143,35.625,31.971,35.625z"/>
	<path fill="#34234D" d="M73.635,65.38c-0.069,0-0.139-0.018-0.202-0.055c-0.192-0.112-0.259-0.358-0.147-0.552
		c0.916-1.584-1.714-5.305-6.863-9.711c-0.169-0.145-0.188-0.399-0.044-0.569c0.146-0.169,0.399-0.188,0.569-0.044
		c3.309,2.83,8.622,7.989,7.038,10.729C73.91,65.308,73.774,65.38,73.635,65.38z"/>
	<path fill="#FFFFFF" d="M29.43,47.352c0.301-9.324,7.86-17.06,17.177-17.558c10.494-0.561,19.181,7.784,19.181,18.156
		c0,5.324-2.296,10.101-5.944,13.422c-1.746,1.589-2.715,3.857-2.715,6.218v0.159c0,0.893-0.724,1.616-1.616,1.616H39.695
		c-0.893,0-1.616-0.724-1.616-1.616v-0.154c0-2.345-0.94-4.616-2.679-6.189C31.594,57.96,29.25,52.934,29.43,47.352z"/>
	<path fill="#EDEDED" d="M54.058,30.947c5.104,3.22,8.496,8.906,8.496,15.387c0,5.324-2.295,10.101-5.943,13.422
		c-1.746,1.589-2.715,3.857-2.715,6.218v3.392h1.616c0.893,0,1.616-0.724,1.616-1.616v-0.159c0-2.36,0.969-4.629,2.715-6.218
		c3.648-3.321,5.944-8.099,5.944-13.422C65.787,40.181,60.913,33.551,54.058,30.947z"/>
	<path fill="#34234D" d="M55.512,69.771H39.695c-1.114,0-2.021-0.906-2.021-2.021v-0.154c0-0.988-0.172-1.953-0.513-2.868
		c-0.077-0.209,0.029-0.441,0.238-0.52s0.442,0.028,0.52,0.238c0.374,1.005,0.563,2.064,0.563,3.149v0.154
		c0,0.669,0.544,1.213,1.212,1.213h15.816c0.668,0,1.212-0.544,1.212-1.213v-0.159c0-2.495,1.038-4.87,2.848-6.517
		c3.693-3.362,5.812-8.146,5.812-13.124c0-4.929-1.971-9.512-5.55-12.905c-3.576-3.39-8.262-5.111-13.206-4.848
		c-9.122,0.488-16.499,8.028-16.793,17.167c-0.168,5.222,1.96,10.23,5.838,13.741c0.083,0.075,0.166,0.153,0.247,0.233
		c0.158,0.156,0.161,0.412,0.004,0.57c-0.156,0.16-0.412,0.161-0.571,0.006c-0.072-0.072-0.146-0.143-0.222-0.211
		c-4.056-3.67-6.279-8.906-6.104-14.366c0.308-9.555,8.02-17.439,17.558-17.949c5.162-0.276,10.066,1.524,13.806,5.069
		c3.74,3.547,5.801,8.338,5.801,13.491c0,5.206-2.214,10.206-6.076,13.721c-1.641,1.494-2.582,3.651-2.582,5.919v0.159
		C57.532,68.864,56.626,69.771,55.512,69.771z"/>
	<path fill="#2FC8F2" d="M54.352,76.507l-13.738-1.374c-0.619-0.062-1.091-0.584-1.091-1.206v-0.796
		c0-0.718,0.619-1.278,1.333-1.206l13.738,1.373c0.619,0.063,1.091,0.584,1.091,1.206V75.3
		C55.685,76.018,55.065,76.578,54.352,76.507z"/>
	<path fill="#2FC8F2" d="M54.473,79.064H40.734c-0.669,0-1.212-0.543-1.212-1.213v-1.488c0-0.718,0.619-1.277,1.333-1.206
		l13.738,1.373c0.619,0.063,1.091,0.584,1.091,1.206v0.115C55.685,78.521,55.142,79.064,54.473,79.064z"/>
	<path fill="#2FC8F2" d="M54.352,73.273L40.613,71.9c-0.619-0.063-1.091-0.584-1.091-1.206v-1.328h16.162v2.701
		C55.685,72.785,55.065,73.346,54.352,73.273z"/>
	<path fill="#00B5F4" d="M55.685,72.067v-2.701H39.522v0.809l14.373,1.616v7.273h0.577c0.669,0,1.212-0.543,1.212-1.213v-0.115
		c0-0.622-0.472-1.144-1.091-1.206l-0.038-0.025c0.623-0.042,1.129-0.557,1.129-1.205v-0.796c0-0.622-0.472-1.144-1.091-1.206
		l-0.038-0.025C55.179,73.23,55.685,72.716,55.685,72.067z"/>
	<path fill="#34234D" d="M54.472,76.916c-0.053,0-0.106-0.002-0.16-0.008l-13.738-1.373c-0.829-0.083-1.455-0.774-1.455-1.608
		v-0.796c0-0.456,0.193-0.894,0.532-1.199c0.337-0.306,0.79-0.452,1.245-0.409l13.738,1.373c0.829,0.083,1.455,0.775,1.455,1.608
		V75.3c0,0.456-0.193,0.894-0.532,1.199C55.259,76.769,54.871,76.916,54.472,76.916z M40.731,72.322c-0.2,0-0.389,0.073-0.539,0.209
		c-0.172,0.155-0.267,0.368-0.267,0.6v0.796c0,0.417,0.313,0.763,0.729,0.804l13.738,1.374l0,0c0.23,0.022,0.451-0.05,0.622-0.205
		c0.172-0.155,0.267-0.368,0.267-0.6v-0.796c0-0.417-0.313-0.763-0.729-0.804l-13.738-1.374
		C40.787,72.323,40.759,72.322,40.731,72.322z"/>
	<path fill="#34234D" d="M54.473,79.469H40.734c-0.891,0-1.616-0.726-1.616-1.617v-1.488c0-0.456,0.193-0.894,0.532-1.199
		c0.337-0.305,0.79-0.453,1.245-0.409l13.738,1.373c0.829,0.083,1.455,0.775,1.455,1.608v0.115
		C56.089,78.743,55.363,79.469,54.473,79.469z M40.731,75.555c-0.2,0-0.389,0.073-0.539,0.209c-0.172,0.155-0.267,0.368-0.267,0.6
		v1.488c0,0.446,0.362,0.809,0.809,0.809h13.738c0.446,0,0.809-0.362,0.809-0.809v-0.115c0-0.417-0.313-0.763-0.729-0.804
		l-13.738-1.374C40.787,75.557,40.759,75.555,40.731,75.555z"/>
	<path fill="#A09CAD" d="M50.634,82.297h-6.061c-0.637,0-1.235-0.3-1.616-0.809l-1.818-2.424h12.93l-1.818,2.424
		C51.869,81.997,51.271,82.297,50.634,82.297z"/>
	<path fill="#34234D" d="M50.634,82.701h-6.061c-0.76,0-1.484-0.363-1.939-0.97l-1.818-2.425c-0.092-0.122-0.107-0.286-0.038-0.423
		c0.068-0.138,0.208-0.224,0.361-0.224h12.93c0.153,0,0.293,0.086,0.361,0.224c0.069,0.137,0.054,0.301-0.038,0.423l-1.818,2.424
		C52.118,82.338,51.394,82.701,50.634,82.701z M41.946,79.469l1.334,1.777c0.304,0.404,0.787,0.646,1.293,0.646h6.061
		c0.506,0,0.989-0.242,1.293-0.646l1.334-1.777H41.946z"/>
	<circle fill="#FF5067" cx="47.604" cy="47.951" r="11.313"/>
	<path fill="#FF6E86" d="M49.624,38.657c2.609,0,5.01,0.885,6.924,2.369c-2.069-2.669-5.305-4.39-8.944-4.39
		c-6.248,0-11.313,5.065-11.313,11.314c0,3.639,1.72,6.875,4.389,8.944c-1.483-1.913-2.369-4.314-2.369-6.924
		C38.31,43.723,43.375,38.657,49.624,38.657z"/>
	<path fill="#00B5F4" d="M58.947,40.974c-0.787-0.787-2.062-0.787-2.849,0l-8.492,8.492l-3.283-3.283
		c-0.787-0.787-2.063-0.787-2.85,0c-0.787,0.787-0.787,2.063,0,2.849l4.708,4.708c0.394,0.394,0.909,0.59,1.425,0.59
		s1.031-0.196,1.425-0.59l9.916-9.917C59.734,43.037,59.734,41.761,58.947,40.974z"/>
	<path fill="#34234D" d="M47.605,54.734c-0.646,0-1.253-0.251-1.71-0.708l-4.707-4.708c-0.457-0.457-0.709-1.064-0.709-1.71
		c0-0.646,0.252-1.254,0.709-1.71c0.942-0.943,2.477-0.943,3.42,0l2.997,2.997l8.207-8.206c0.457-0.457,1.064-0.708,1.71-0.708
		c0.646,0,1.254,0.251,1.711,0.708l0,0c0.457,0.457,0.708,1.064,0.708,1.71s-0.251,1.253-0.708,1.71l-9.917,9.916
		C48.859,54.483,48.252,54.734,47.605,54.734z M42.898,45.998c-0.412,0-0.825,0.157-1.139,0.471
		c-0.305,0.304-0.473,0.709-0.473,1.139s0.168,0.834,0.473,1.138l4.707,4.709c0.609,0.607,1.669,0.608,2.278,0l9.917-9.917
		c0.305-0.304,0.472-0.708,0.472-1.139s-0.167-0.834-0.472-1.139c0,0,0,0,0,0c-0.608-0.608-1.669-0.609-2.278,0l-8.492,8.492
		c-0.158,0.157-0.414,0.157-0.571,0l-3.283-3.283C43.723,46.155,43.312,45.998,42.898,45.998z"/>
	<path fill="#34234D" d="M54.472,73.684c-0.053,0-0.106-0.003-0.16-0.008l-13.738-1.373c-0.829-0.083-1.455-0.775-1.455-1.608
		v-1.328c0-0.223,0.181-0.403,0.404-0.403h16.162c0.224,0,0.404,0.181,0.404,0.403v2.701c0,0.456-0.193,0.894-0.532,1.199
		C55.259,73.536,54.871,73.684,54.472,73.684z M39.926,69.771v0.924c0,0.417,0.313,0.763,0.729,0.804l13.738,1.374l0,0
		c0.23,0.022,0.451-0.05,0.622-0.205c0.172-0.155,0.267-0.368,0.267-0.6v-2.297H39.926z"/>
	<path fill="#34234D" d="M24.705,66.526c-1.724,0-2.944-0.418-3.483-1.349c-0.111-0.193-0.045-0.44,0.148-0.552
		c0.192-0.112,0.44-0.046,0.552,0.147c1.577,2.729,13.586-0.3,28.948-9.154c11.921-6.871,21.38-14.871,22.492-19.021
		c0.157-0.588,0.132-1.069-0.077-1.43c-0.111-0.193-0.045-0.44,0.147-0.552c0.193-0.112,0.44-0.046,0.553,0.147
		c0.319,0.553,0.372,1.24,0.157,2.043c-1.181,4.408-10.585,12.431-22.869,19.511C41.342,62.043,30.343,66.525,24.705,66.526z"/>
	<path fill="#34234D" d="M70.502,66.526c-5.637,0-16.636-4.482-26.568-10.208c-12.284-7.08-21.688-15.103-22.869-19.511
		c-0.215-0.803-0.162-1.49,0.157-2.043c0.112-0.193,0.358-0.259,0.553-0.147c0.192,0.112,0.259,0.359,0.147,0.552
		c-0.209,0.361-0.234,0.842-0.077,1.43c1.112,4.15,10.571,12.149,22.492,19.021c15.362,8.854,27.371,11.881,28.948,9.154
		c0.111-0.193,0.359-0.26,0.552-0.147c0.193,0.111,0.26,0.358,0.148,0.552C73.447,66.107,72.225,66.526,70.502,66.526z"/>
</g>
<g id="Layer_2">
</g>
<g id="Layer_3">
</g>
<g id="Layer_4">
</g>
<g id="Layer_5">
</g>
<g id="Layer_6">
</g>
</svg>
