<?xml version="1.0" encoding="utf-8"?>
<!-- Generator: Adobe Illustrator 16.0.3, SVG Export Plug-In . SVG Version: 6.00 Build 0)  -->
<!DOCTYPE svg PUBLIC "-//W3C//DTD SVG 1.1//EN" "http://www.w3.org/Graphics/SVG/1.1/DTD/svg11.dtd">
<svg version="1.1" xmlns="http://www.w3.org/2000/svg" xmlns:xlink="http://www.w3.org/1999/xlink" x="0px" y="0px" width="100px"
	 height="100px" viewBox="0 0 100 100" enable-background="new 0 0 100 100" xml:space="preserve">
<g id="Layer_1">
	<path fill="#FFFFFF" d="M79.632,33.593c-3.057-5.607-2.182-15.491-7.604-18.816c-5.257-3.222-13.478,2.036-20.069,1.89
		c-6.594-0.146-14.579-5.76-19.97-2.772c-5.561,3.082-5.115,12.996-8.413,18.463c-3.197,5.298-12.209,9.396-12.352,16.042
		c-0.146,6.645,8.681,11.137,11.646,16.572c3.056,5.607,2.181,15.49,7.604,18.816c5.256,3.22,13.477-2.037,20.069-1.891
		c6.594,0.145,14.578,5.759,19.97,2.771c5.561-3.081,5.116-12.994,8.413-18.461c3.197-5.299,12.209-9.397,12.353-16.042
		C91.422,43.518,82.597,39.027,79.632,33.593z"/>
	<path fill="#D4E1F4" d="M86.828,48.811c-0.08,0-0.162-0.031-0.223-0.093l-0.949-0.947c-0.122-0.124-0.122-0.323,0-0.446
		c0.125-0.124,0.324-0.124,0.448,0l0.947,0.948c0.123,0.123,0.123,0.323,0,0.446C86.99,48.78,86.91,48.811,86.828,48.811z"/>
	<path fill="#D4E1F4" d="M89.039,51.022c-0.08,0-0.161-0.03-0.222-0.092l-0.949-0.948c-0.122-0.124-0.122-0.324,0-0.447
		c0.124-0.124,0.324-0.124,0.447,0l0.948,0.948c0.123,0.124,0.123,0.323,0,0.447C89.201,50.992,89.121,51.022,89.039,51.022z"/>
	<path fill="#D4E1F4" d="M85.88,51.022c-0.08,0-0.161-0.03-0.224-0.092c-0.122-0.124-0.122-0.323,0-0.447l0.949-0.948
		c0.123-0.124,0.322-0.124,0.446,0c0.123,0.124,0.123,0.324,0,0.447l-0.947,0.948C86.043,50.992,85.962,51.022,85.88,51.022z"/>
	<path fill="#D4E1F4" d="M88.093,48.811c-0.081,0-0.162-0.031-0.225-0.093c-0.122-0.123-0.122-0.323,0-0.446l0.949-0.948
		c0.123-0.124,0.322-0.124,0.446,0c0.123,0.123,0.123,0.323,0,0.446l-0.948,0.947C88.253,48.78,88.173,48.811,88.093,48.811z"/>
	<path fill="#D4E1F4" d="M81.699,69.217c-0.08,0-0.162-0.032-0.223-0.093l-0.949-0.949c-0.122-0.124-0.122-0.322,0-0.447
		c0.125-0.122,0.324-0.122,0.448,0l0.947,0.949c0.123,0.122,0.123,0.322,0,0.447C81.861,69.185,81.781,69.217,81.699,69.217z"/>
	<path fill="#D4E1F4" d="M83.911,71.428c-0.081,0-0.162-0.029-0.223-0.094l-0.949-0.948c-0.122-0.122-0.122-0.323,0-0.445
		c0.124-0.125,0.324-0.125,0.447,0l0.949,0.946c0.122,0.125,0.122,0.323,0,0.447C84.072,71.398,83.992,71.428,83.911,71.428z"/>
	<path fill="#D4E1F4" d="M80.751,71.428c-0.08,0-0.161-0.029-0.224-0.094c-0.122-0.124-0.122-0.322,0-0.447l0.949-0.946
		c0.123-0.125,0.322-0.125,0.446,0c0.123,0.122,0.123,0.323,0,0.445l-0.947,0.948C80.914,71.398,80.833,71.428,80.751,71.428z"/>
	<path fill="#D4E1F4" d="M82.965,69.217c-0.082,0-0.163-0.032-0.226-0.093c-0.122-0.125-0.122-0.325,0-0.447l0.949-0.949
		c0.123-0.122,0.322-0.122,0.447,0c0.122,0.125,0.122,0.323,0,0.447l-0.949,0.949C83.125,69.185,83.044,69.217,82.965,69.217z"/>
	<path fill="#D4E1F4" d="M16.983,49.945c-0.081,0-0.16-0.032-0.223-0.093l-0.949-0.947c-0.122-0.125-0.122-0.324,0-0.448
		c0.124-0.123,0.324-0.123,0.448,0l0.947,0.948c0.124,0.123,0.124,0.323,0,0.446C17.144,49.914,17.063,49.945,16.983,49.945z"/>
	<path fill="#D4E1F4" d="M19.196,52.156c-0.082,0-0.163-0.031-0.225-0.093l-0.946-0.947c-0.124-0.124-0.124-0.323,0-0.448
		c0.123-0.123,0.323-0.123,0.446,0l0.948,0.948c0.124,0.125,0.124,0.325,0,0.447C19.357,52.125,19.276,52.156,19.196,52.156z"/>
	<path fill="#D4E1F4" d="M16.035,52.156c-0.081,0-0.161-0.031-0.224-0.093c-0.122-0.122-0.122-0.322,0-0.447l0.949-0.948
		c0.124-0.123,0.323-0.123,0.446,0c0.124,0.125,0.124,0.324,0,0.448l-0.947,0.947C16.198,52.125,16.117,52.156,16.035,52.156z"/>
	<path fill="#D4E1F4" d="M18.247,49.945c-0.081,0-0.162-0.032-0.223-0.093c-0.124-0.123-0.124-0.323,0-0.446l0.946-0.948
		c0.124-0.123,0.324-0.123,0.448,0c0.124,0.124,0.124,0.323,0,0.448l-0.948,0.947C18.41,49.914,18.328,49.945,18.247,49.945z"/>
	<path fill="#D4E1F4" d="M52.171,19.052c-0.081,0-0.162-0.031-0.223-0.093L51,18.011c-0.123-0.124-0.123-0.323,0-0.447
		c0.124-0.123,0.324-0.123,0.448,0l0.947,0.947c0.125,0.124,0.125,0.323,0,0.447C52.332,19.021,52.251,19.052,52.171,19.052z"/>
	<path fill="#D4E1F4" d="M54.382,21.263c-0.079,0-0.161-0.031-0.222-0.093l-0.949-0.948c-0.123-0.124-0.123-0.323,0-0.447
		c0.125-0.124,0.324-0.124,0.447,0l0.948,0.948c0.123,0.123,0.123,0.323,0,0.446C54.544,21.232,54.463,21.263,54.382,21.263z"/>
	<path fill="#D4E1F4" d="M51.225,21.263c-0.082,0-0.163-0.031-0.225-0.093c-0.123-0.123-0.123-0.324,0-0.446l0.949-0.948
		c0.123-0.124,0.321-0.124,0.446,0s0.125,0.323,0,0.447l-0.947,0.948C51.386,21.232,51.305,21.263,51.225,21.263z"/>
	<path fill="#D4E1F4" d="M53.435,19.052c-0.08,0-0.161-0.031-0.224-0.093c-0.123-0.124-0.123-0.323,0-0.447l0.949-0.947
		c0.123-0.123,0.322-0.123,0.446,0c0.123,0.124,0.123,0.323,0,0.447l-0.948,0.947C53.598,19.021,53.517,19.052,53.435,19.052z"/>
	<path fill="#D4E1F4" d="M74.808,25.172c-0.081,0-0.16-0.031-0.223-0.093l-0.949-0.948c-0.123-0.123-0.123-0.323,0-0.446
		c0.124-0.124,0.323-0.124,0.447,0l0.948,0.948c0.123,0.124,0.123,0.324,0,0.447C74.969,25.141,74.888,25.172,74.808,25.172z"/>
	<path fill="#D4E1F4" d="M77.019,27.384c-0.08,0-0.161-0.031-0.224-0.093l-0.946-0.947c-0.123-0.124-0.123-0.324,0-0.447
		c0.122-0.124,0.321-0.124,0.446,0l0.947,0.947c0.124,0.124,0.124,0.323,0,0.447C77.182,27.353,77.1,27.384,77.019,27.384z"/>
	<path fill="#D4E1F4" d="M73.859,27.384c-0.08,0-0.161-0.031-0.224-0.093c-0.123-0.124-0.123-0.323,0-0.447l0.949-0.947
		c0.123-0.124,0.322-0.124,0.446,0c0.123,0.123,0.123,0.323,0,0.447l-0.948,0.947C74.021,27.353,73.94,27.384,73.859,27.384z"/>
	<path fill="#D4E1F4" d="M76.071,25.172c-0.081,0-0.161-0.031-0.223-0.093c-0.123-0.123-0.123-0.323,0-0.447l0.946-0.948
		c0.124-0.124,0.324-0.124,0.447,0c0.124,0.124,0.124,0.323,0,0.446l-0.947,0.948C76.232,25.141,76.152,25.172,76.071,25.172z"/>
	<path fill="#D4E1F4" d="M91.279,87.427H11.221c-0.26,0-0.471-0.211-0.471-0.47c0-0.26,0.21-0.472,0.471-0.472h80.059
		c0.261,0,0.471,0.212,0.471,0.472C91.75,87.216,91.54,87.427,91.279,87.427z"/>
	<path fill="#FF6E86" d="M68.675,86.957h-34.85c-1.56,0-2.825-1.267-2.825-2.827V28.561c0-1.561,1.266-2.826,2.825-2.826h34.85
		c1.56,0,2.825,1.265,2.825,2.826V84.13C71.5,85.69,70.234,86.957,68.675,86.957z"/>
	<path fill="#FF5067" d="M68.675,86.957H36.651c-1.56,0-2.826-1.267-2.826-2.827V28.561c0-1.561,1.266-2.826,2.826-2.826h32.024
		c1.56,0,2.825,1.265,2.825,2.826V84.13C71.5,85.69,70.234,86.957,68.675,86.957z"/>
	<path fill="#FFFFFF" d="M69.616,81.306H32.884c-1.04,0-1.884-0.844-1.884-1.885v-46.15c0-1.041,0.844-1.884,1.884-1.884h36.732
		c1.04,0,1.884,0.844,1.884,1.884v46.15C71.5,80.462,70.656,81.306,69.616,81.306z"/>
	<path fill="#34234D" d="M68.675,87.427h-34.85c-1.818,0-3.296-1.478-3.296-3.297V46.975c0-0.26,0.21-0.471,0.471-0.471
		s0.471,0.211,0.471,0.471V84.13c0,1.299,1.056,2.355,2.354,2.355h34.85c1.298,0,2.354-1.057,2.354-2.355V70.004
		c0-0.262,0.21-0.472,0.471-0.472s0.471,0.21,0.471,0.472V84.13C71.971,85.949,70.492,87.427,68.675,87.427z"/>
	<path fill="#34234D" d="M71.5,67.649c-0.261,0-0.471-0.213-0.471-0.472V28.561c0-1.298-1.057-2.355-2.354-2.355H44.374
		c-0.259,0-0.471-0.211-0.471-0.471c0-0.26,0.211-0.471,0.471-0.471h24.301c1.817,0,3.296,1.479,3.296,3.296v38.617
		C71.971,67.437,71.761,67.649,71.5,67.649z"/>
	<path fill="#34234D" d="M31,44.62c-0.26,0-0.471-0.21-0.471-0.471V28.561c0-1.817,1.478-3.296,3.296-3.296h7.725
		c0.259,0,0.471,0.21,0.471,0.471c0,0.26-0.211,0.471-0.471,0.471h-7.725c-1.298,0-2.354,1.057-2.354,2.355v15.588
		C31.471,44.41,31.26,44.62,31,44.62z"/>
	<path fill="#EDEDED" d="M57.697,31.386L41.03,81.306h13.805l16.251-48.679c0.204-0.61-0.25-1.24-0.893-1.24H57.697z"/>
	<path fill="#EDEDED" d="M47.345,31.386l-15.94,48.682c-0.199,0.611,0.254,1.237,0.895,1.237h2.473l16.666-49.919H47.345z"/>
	<path fill="#34234D" d="M69.616,81.775h-10.36c-0.26,0-0.471-0.21-0.471-0.47c0-0.262,0.211-0.472,0.471-0.472h10.36
		c0.779,0,1.413-0.633,1.413-1.413c0-0.26,0.21-0.47,0.471-0.47s0.471,0.21,0.471,0.47C71.971,80.719,70.914,81.775,69.616,81.775z"
		/>
	<path fill="#34234D" d="M71.5,33.741c-0.261,0-0.471-0.211-0.471-0.471c0-0.779-0.634-1.413-1.413-1.413H32.884
		c-0.78,0-1.413,0.633-1.413,1.413c0,0.26-0.21,0.471-0.471,0.471s-0.471-0.211-0.471-0.471c0-1.298,1.056-2.355,2.354-2.355h36.732
		c1.298,0,2.354,1.057,2.354,2.355C71.971,33.53,71.761,33.741,71.5,33.741z"/>
	<path fill="#34234D" d="M56.43,81.775H32.884c-1.298,0-2.354-1.057-2.354-2.354c0-0.26,0.21-0.47,0.471-0.47s0.471,0.21,0.471,0.47
		c0,0.78,0.633,1.413,1.413,1.413H56.43c0.261,0,0.471,0.21,0.471,0.472C56.9,81.565,56.69,81.775,56.43,81.775z"/>
	<circle fill="#A09CAD" cx="33.355" cy="33.741" r="0.707"/>
	<circle fill="#A09CAD" cx="35.709" cy="33.741" r="0.706"/>
	<circle fill="#A09CAD" cx="38.064" cy="33.741" r="0.707"/>
	<circle fill="#A09CAD" cx="40.418" cy="33.741" r="0.706"/>
	<circle fill="#A09CAD" cx="42.773" cy="33.741" r="0.706"/>
	<circle fill="#FFFFFF" cx="51.25" cy="84.13" r="1.177"/>
	<circle fill="#FFFFFF" cx="61.61" cy="84.13" r="1.178"/>
	<circle fill="#FFFFFF" cx="58.785" cy="28.561" r="1.177"/>
	<circle fill="#FFFFFF" cx="40.89" cy="84.13" r="1.177"/>
	<path fill="#FFFFFF" d="M55.253,29.268h-8.006c-0.39,0-0.707-0.316-0.707-0.707l0,0c0-0.39,0.317-0.707,0.707-0.707h8.006
		c0.39,0,0.706,0.316,0.706,0.707l0,0C55.959,28.951,55.643,29.268,55.253,29.268z"/>
	<path fill="#A09CAD" d="M69.616,33.271h-0.471v-0.235c0-0.13-0.105-0.236-0.235-0.236h-3.297c-0.13,0-0.234,0.105-0.234,0.236
		v1.413c0,0.129,0.104,0.235,0.234,0.235h3.297c0.13,0,0.235-0.106,0.235-0.235v-0.236h0.471c0.131,0,0.235-0.105,0.235-0.235
		v-0.471C69.852,33.375,69.747,33.271,69.616,33.271z"/>
	<path fill="#A09CAD" d="M52.192,54.463H37.122c-1.038,0-1.883-0.847-1.883-1.886V37.509c0-1.039,0.845-1.884,1.883-1.884h15.071
		c1.038,0,1.883,0.845,1.883,1.884v15.068C54.075,53.616,53.23,54.463,52.192,54.463z M37.122,36.566
		c-0.52,0-0.941,0.423-0.941,0.942v15.068c0,0.521,0.422,0.944,0.941,0.944h15.071c0.519,0,0.941-0.424,0.941-0.944V37.509
		c0-0.519-0.423-0.942-0.941-0.942H37.122z"/>
	<path fill="#A09CAD" d="M51.25,41.747c-0.26,0-0.471-0.21-0.471-0.471v-2.354h-2.354c-0.261,0-0.471-0.211-0.471-0.471
		s0.21-0.471,0.471-0.471h2.354c0.52,0,0.941,0.422,0.941,0.942v2.354C51.721,41.537,51.511,41.747,51.25,41.747z"/>
	<path fill="#A09CAD" d="M50.779,52.107h-2.354c-0.261,0-0.471-0.21-0.471-0.472c0-0.259,0.21-0.47,0.471-0.47h2.354v-2.355
		c0-0.26,0.21-0.471,0.471-0.471c0.261,0,0.471,0.211,0.471,0.471v2.355C51.721,51.685,51.299,52.107,50.779,52.107z"/>
	<path fill="#A09CAD" d="M40.89,52.107h-2.354c-0.52,0-0.941-0.423-0.941-0.941v-2.355c0-0.26,0.21-0.471,0.471-0.471
		c0.259,0,0.471,0.211,0.471,0.471v2.355h2.354c0.26,0,0.471,0.211,0.471,0.47C41.36,51.897,41.15,52.107,40.89,52.107z"/>
	<path fill="#A09CAD" d="M38.064,41.747c-0.261,0-0.471-0.21-0.471-0.471v-2.354c0-0.52,0.421-0.942,0.941-0.942h2.354
		c0.26,0,0.471,0.211,0.471,0.471s-0.21,0.471-0.471,0.471h-2.354v2.354C38.535,41.537,38.323,41.747,38.064,41.747z"/>
	<polygon fill="none" points="62.381,58.7 71.654,58.7 73.225,53.99 63.953,53.99 	"/>
	<path fill="#B8B5C6" d="M74.796,76.597H55.017c-0.779,0-1.412-0.634-1.412-1.413v-15.07c0-0.78,0.633-1.413,1.412-1.413h19.779
		c0.781,0,1.413,0.633,1.413,1.413v15.07C76.209,75.963,75.577,76.597,74.796,76.597z"/>
	<polygon fill="none" points="66.154,47.398 75.427,47.398 76.999,42.689 67.727,42.689 	"/>
	<path fill="#2FC8F2" d="M47.483,76.597H22.052c-0.779,0-1.412-0.634-1.412-1.413v-10.36c0-0.78,0.633-1.414,1.412-1.414h25.432
		c0.78,0,1.412,0.634,1.412,1.414v10.36C48.896,75.963,48.263,76.597,47.483,76.597z"/>
	<path fill="#FF6E86" d="M80.448,53.99H59.728c-0.781,0-1.413-0.633-1.413-1.413v-3.766c0-0.78,0.632-1.413,1.413-1.413h20.721
		c0.778,0,1.412,0.632,1.412,1.413v3.766C81.86,53.357,81.227,53.99,80.448,53.99z"/>
	<path fill="#2FC8F2" d="M80.448,42.689H59.728c-0.781,0-1.413-0.633-1.413-1.413v-3.767c0-0.78,0.632-1.413,1.413-1.413h20.721
		c0.778,0,1.412,0.633,1.412,1.413v3.767C81.86,42.056,81.227,42.689,80.448,42.689z"/>
	<path fill="#A09CAD" d="M55.017,58.7c-0.779,0-1.412,0.633-1.412,1.413v15.07c0,0.779,0.633,1.413,1.412,1.413h1.389L62.381,58.7
		H55.017z"/>
	<path fill="#A09CAD" d="M76.209,75.184v-15.07c0-0.78-0.632-1.413-1.413-1.413h-3.142l-5.976,17.896h9.117
		C75.577,76.597,76.209,75.963,76.209,75.184z"/>
	<path fill="#FF5067" d="M59.728,47.398c-0.781,0-1.413,0.632-1.413,1.413v3.766c0,0.78,0.632,1.413,1.413,1.413h4.226l2.201-6.592
		H59.728z"/>
	<path fill="#FF5067" d="M80.448,53.99c0.778,0,1.412-0.633,1.412-1.413v-3.766c0-0.78-0.634-1.413-1.412-1.413h-5.021l-2.202,6.592
		H80.448z"/>
	<path fill="#00B5F4" d="M58.314,37.509v3.767c0,0.78,0.632,1.413,1.413,1.413h7.999l2.201-6.593h-10.2
		C58.946,36.096,58.314,36.729,58.314,37.509z"/>
	<path fill="#00B5F4" d="M80.448,42.689c0.778,0,1.412-0.633,1.412-1.413v-3.767c0-0.78-0.634-1.413-1.412-1.413H79.2l-2.201,6.593
		H80.448z"/>
	<path fill="#FFFFFF" d="M40.89,58.7H25.82c-0.78,0-1.414-0.631-1.414-1.413V42.218c0-0.781,0.634-1.413,1.414-1.413h15.07
		c0.78,0,1.412,0.632,1.412,1.413v15.069C42.302,58.069,41.669,58.7,40.89,58.7z"/>
	<path fill="#EDEDED" d="M40.89,58.7c0.78,0,1.412-0.631,1.412-1.413V46.788l-3.9,11.912H40.89z"/>
	<path fill="#00B5F4" d="M48.896,75.184v-10.36c0-0.78-0.632-1.414-1.412-1.414h-0.479l-4.402,13.188h4.881
		C48.263,76.597,48.896,75.963,48.896,75.184z"/>
	<polygon fill="#00B5F4" points="36.86,63.409 32.542,76.597 36.345,76.597 40.748,63.409 	"/>
	<polygon fill="#00B5F4" points="26.97,63.409 22.652,76.597 25.984,76.597 30.388,63.409 	"/>
	<polygon fill="#EDEDED" points="37.934,40.805 34.372,40.805 28.512,58.7 31.958,58.7 	"/>
	<path fill="#34234D" d="M74.796,77.066H55.017c-1.038,0-1.883-0.844-1.883-1.883v-15.07c0-1.039,0.845-1.883,1.883-1.883h19.779
		c1.039,0,1.884,0.844,1.884,1.883v15.07C76.68,76.223,75.835,77.066,74.796,77.066z M55.017,59.172
		c-0.52,0-0.941,0.423-0.941,0.941v15.07c0,0.518,0.422,0.941,0.941,0.941h19.779c0.521,0,0.942-0.424,0.942-0.941v-15.07
		c0-0.519-0.421-0.941-0.942-0.941H55.017z"/>
	<path fill="#34234D" d="M47.483,77.066H22.052c-1.038,0-1.883-0.844-1.883-1.883v-10.36c0-1.04,0.845-1.883,1.883-1.883h25.432
		c1.038,0,1.883,0.843,1.883,1.883v10.36C49.366,76.223,48.521,77.066,47.483,77.066z M22.052,63.882
		c-0.52,0-0.941,0.423-0.941,0.941v10.36c0,0.518,0.422,0.941,0.941,0.941h25.432c0.52,0,0.941-0.424,0.941-0.941v-10.36
		c0-0.519-0.422-0.941-0.941-0.941H22.052z"/>
	<path fill="#34234D" d="M40.89,59.172H25.82c-1.039,0-1.884-0.846-1.884-1.885v-7.534c0-0.26,0.21-0.471,0.471-0.471
		c0.261,0,0.472,0.21,0.472,0.471v7.534c0,0.521,0.422,0.943,0.941,0.943h15.07c0.52,0,0.941-0.423,0.941-0.943V42.218
		c0-0.52-0.422-0.942-0.941-0.942H25.82c-0.52,0-0.941,0.422-0.941,0.942v4.709c0,0.26-0.211,0.471-0.472,0.471
		c-0.26,0-0.471-0.211-0.471-0.471v-4.709c0-1.039,0.845-1.884,1.884-1.884h15.07c1.038,0,1.883,0.845,1.883,1.884v15.069
		C42.772,58.326,41.928,59.172,40.89,59.172z"/>
	<path fill="#34234D" d="M80.448,54.463H68.675c-0.261,0-0.471-0.211-0.471-0.473c0-0.259,0.21-0.469,0.471-0.469h11.773
		c0.52,0,0.941-0.424,0.941-0.944v-3.766c0-0.52-0.422-0.942-0.941-0.942H59.728c-0.521,0-0.942,0.422-0.942,0.942v3.766
		c0,0.521,0.422,0.944,0.942,0.944h6.122c0.259,0,0.471,0.21,0.471,0.469c0,0.262-0.212,0.473-0.471,0.473h-6.122
		c-1.039,0-1.886-0.847-1.886-1.886v-3.766c0-1.038,0.847-1.883,1.886-1.883h20.721c1.038,0,1.883,0.845,1.883,1.883v3.766
		C82.331,53.616,81.486,54.463,80.448,54.463z"/>
	<path fill="#34234D" d="M80.448,43.16H59.728c-1.039,0-1.886-0.846-1.886-1.884v-3.767c0-1.039,0.847-1.884,1.886-1.884h20.721
		c1.038,0,1.883,0.845,1.883,1.884v3.767C82.331,42.314,81.486,43.16,80.448,43.16z M59.728,36.566
		c-0.521,0-0.942,0.423-0.942,0.942v3.767c0,0.52,0.422,0.942,0.942,0.942h20.721c0.52,0,0.941-0.423,0.941-0.942v-3.767
		c0-0.519-0.422-0.942-0.941-0.942H59.728z"/>
	<path fill="#FFFFFF" d="M45.599,70.474h-7.771c-0.26,0-0.471-0.21-0.471-0.47c0-0.262,0.21-0.472,0.471-0.472h7.771
		c0.26,0,0.471,0.21,0.471,0.472C46.07,70.264,45.859,70.474,45.599,70.474z"/>
	<path fill="#FFFFFF" d="M34.767,70.474H23.936c-0.26,0-0.471-0.21-0.471-0.47c0-0.262,0.21-0.472,0.471-0.472h10.831
		c0.261,0,0.472,0.21,0.472,0.472C35.239,70.264,35.027,70.474,34.767,70.474z"/>
	<path fill="#FFFFFF" d="M45.599,67.178H34.366c-0.259,0-0.471-0.211-0.471-0.472c0-0.26,0.211-0.47,0.471-0.47h11.233
		c0.26,0,0.471,0.21,0.471,0.47C46.07,66.967,45.859,67.178,45.599,67.178z"/>
	<path fill="#FFFFFF" d="M31.541,67.178h-7.605c-0.26,0-0.471-0.211-0.471-0.472c0-0.26,0.21-0.47,0.471-0.47h7.605
		c0.26,0,0.471,0.21,0.471,0.47C32.011,66.967,31.801,67.178,31.541,67.178z"/>
	<path fill="#FFFFFF" d="M39.146,73.77h-6.623c-0.26,0-0.471-0.21-0.471-0.469c0-0.262,0.21-0.473,0.471-0.473h6.623
		c0.259,0,0.471,0.211,0.471,0.473C39.617,73.56,39.405,73.77,39.146,73.77z"/>
	<path fill="#FFFFFF" d="M29.698,73.77h-5.762c-0.26,0-0.471-0.21-0.471-0.469c0-0.262,0.21-0.473,0.471-0.473h5.762
		c0.259,0,0.471,0.211,0.471,0.473C30.168,73.56,29.957,73.77,29.698,73.77z"/>
	<circle fill="#00B5F4" cx="33.355" cy="49.753" r="5.887"/>
	<path fill="#FF5067" d="M36.229,51.717l-2.875-0.358l-2.874,0.358c-0.805,0.103-1.407,0.784-1.407,1.594v0.475
		c1.073,1.14,2.592,1.854,4.281,1.854c1.688,0,3.207-0.714,4.282-1.854v-0.475C37.636,52.501,37.032,51.819,36.229,51.717z"/>
	<path fill="#34234D" d="M33.354,56.11c-3.505,0-6.357-2.851-6.357-6.357c0-3.506,2.853-6.357,6.357-6.357
		c3.505,0,6.358,2.852,6.358,6.357C39.712,53.26,36.86,56.11,33.354,56.11z M33.354,44.337c-2.987,0-5.416,2.429-5.416,5.416
		c0,2.985,2.429,5.416,5.416,5.416c2.987,0,5.417-2.431,5.417-5.416C38.771,46.767,36.342,44.337,33.354,44.337z"/>
	<path fill="#FFFFFF" d="M35.496,48.683c0,1.478-0.96,2.676-2.141,2.676c-1.182,0-2.141-1.198-2.141-2.676s0.958-2.141,2.141-2.141
		C34.536,46.542,35.496,47.205,35.496,48.683z"/>
	<path fill="#34234D" d="M33.354,51.829c-1.44,0-2.611-1.411-2.611-3.146c0-1.586,1.024-2.611,2.611-2.611
		c1.587,0,2.612,1.025,2.612,2.611C35.966,50.418,34.795,51.829,33.354,51.829z M33.354,47.013c-0.623,0-1.67,0.217-1.67,1.669
		c0,1.216,0.75,2.205,1.67,2.205c0.921,0,1.669-0.989,1.669-2.205C35.023,47.23,33.978,47.013,33.354,47.013z"/>
	<path fill="#34234D" d="M33.354,56.11c-1.765,0-3.407-0.711-4.624-2.003c-0.083-0.088-0.128-0.202-0.128-0.322v-0.475
		c0-1.044,0.782-1.931,1.819-2.06l2.874-0.36c0.039-0.005,0.079-0.005,0.118,0l2.874,0.36c1.037,0.129,1.819,1.016,1.819,2.06v0.475
		c0,0.12-0.046,0.234-0.128,0.322C36.761,55.399,35.119,56.11,33.354,56.11z M29.544,53.595c1.023,1.017,2.369,1.574,3.811,1.574
		c1.442,0,2.788-0.558,3.81-1.574v-0.284c0-0.572-0.427-1.056-0.994-1.125l0,0l-2.816-0.352l-2.816,0.352
		c-0.566,0.069-0.994,0.553-0.994,1.125V53.595z M37.636,53.785h0.004H37.636z"/>
	<path fill="#34234D" d="M56.43,74.242c-0.145,0-0.289-0.069-0.381-0.196c-0.153-0.21-0.105-0.506,0.105-0.657l16.953-12.243
		c0.212-0.154,0.507-0.105,0.658,0.104c0.152,0.211,0.105,0.507-0.106,0.658L56.706,74.151
		C56.622,74.212,56.526,74.242,56.43,74.242z"/>
	<path fill="#34234D" d="M73.384,74.242c-0.097,0-0.191-0.03-0.276-0.091L56.154,61.908c-0.211-0.151-0.259-0.447-0.105-0.658
		c0.151-0.21,0.446-0.259,0.657-0.104l16.953,12.243c0.212,0.151,0.259,0.447,0.106,0.657
		C73.674,74.173,73.529,74.242,73.384,74.242z"/>
	<path fill="#FFFFFF" d="M61.376,51.636c-0.251,0-0.49-0.098-0.665-0.276c-0.179-0.176-0.278-0.416-0.278-0.665
		c0-0.062,0.005-0.122,0.019-0.184c0.015-0.061,0.028-0.118,0.053-0.173c0.023-0.058,0.057-0.114,0.089-0.166
		c0.033-0.052,0.071-0.099,0.118-0.142c0.348-0.353,0.98-0.353,1.333,0c0.174,0.175,0.273,0.419,0.273,0.665
		c0,0.245-0.1,0.489-0.273,0.665C61.864,51.538,61.624,51.636,61.376,51.636z"/>
	<path fill="#FFFFFF" d="M74.372,50.695c0-0.518,0.42-0.942,0.942-0.942l0,0c0.522,0,0.941,0.424,0.941,0.942l0,0
		c0,0.518-0.419,0.941-0.941,0.941l0,0C74.792,51.636,74.372,51.213,74.372,50.695z M70.888,50.695c0-0.518,0.419-0.942,0.942-0.942
		l0,0c0.518,0,0.941,0.424,0.941,0.942l0,0c0,0.518-0.424,0.941-0.941,0.941l0,0C71.307,51.636,70.888,51.213,70.888,50.695z
		 M67.403,50.695c0-0.518,0.419-0.942,0.941-0.942l0,0c0.519,0,0.942,0.424,0.942,0.942l0,0c0,0.518-0.424,0.941-0.942,0.941l0,0
		C67.822,51.636,67.403,51.213,67.403,50.695z M63.919,50.695c0-0.518,0.423-0.942,0.941-0.942l0,0c0.519,0,0.941,0.424,0.941,0.942
		l0,0c0,0.518-0.423,0.941-0.941,0.941l0,0C64.342,51.636,63.919,51.213,63.919,50.695z"/>
	<path fill="#FFFFFF" d="M78.799,51.636c-0.249,0-0.489-0.098-0.667-0.276c-0.175-0.176-0.274-0.416-0.274-0.665
		c0-0.062,0.005-0.122,0.02-0.184c0.009-0.061,0.028-0.118,0.052-0.178c0.023-0.058,0.051-0.109,0.089-0.161
		c0.033-0.052,0.071-0.099,0.114-0.146c0.353-0.349,0.982-0.349,1.332,0c0.179,0.179,0.277,0.418,0.277,0.668
		c0,0.249-0.099,0.489-0.277,0.665C79.289,51.538,79.049,51.636,78.799,51.636z"/>
	<path fill="#FFFFFF" d="M79.035,39.863h-4.71c-0.26,0-0.471-0.211-0.471-0.471c0-0.26,0.211-0.471,0.471-0.471h4.71
		c0.26,0,0.472,0.211,0.472,0.471C79.507,39.652,79.295,39.863,79.035,39.863z"/>
	<path fill="#FFFFFF" d="M71.5,39.863H61.14c-0.261,0-0.471-0.211-0.471-0.471c0-0.26,0.21-0.471,0.471-0.471H71.5
		c0.261,0,0.471,0.211,0.471,0.471C71.971,39.652,71.761,39.863,71.5,39.863z"/>
</g>
<g id="Layer_2">
</g>
</svg>
