<?xml version="1.0" encoding="utf-8"?>
<!-- Generator: Adobe Illustrator 16.0.3, SVG Export Plug-In . SVG Version: 6.00 Build 0)  -->
<!DOCTYPE svg PUBLIC "-//W3C//DTD SVG 1.1//EN" "http://www.w3.org/Graphics/SVG/1.1/DTD/svg11.dtd">
<svg version="1.1" xmlns="http://www.w3.org/2000/svg" xmlns:xlink="http://www.w3.org/1999/xlink" x="0px" y="0px" width="100px"
	 height="100px" viewBox="0 0 100 100" enable-background="new 0 0 100 100" xml:space="preserve">
<g id="Layer_1">
	<path fill="#FFFFFF" d="M74.964,35.718c-2.64-5.042-1.7-13.828-6.484-16.876c-4.636-2.954-12.05,1.595-17.928,1.359
		c-5.878-0.236-12.908-5.363-17.764-2.791c-5.009,2.655-4.768,11.49-7.797,16.303c-2.935,4.667-11.037,8.17-11.271,14.085
		c-0.234,5.914,7.565,10.056,10.122,14.942c2.637,5.04,1.699,13.827,6.483,16.875c4.636,2.953,12.05-1.595,17.927-1.359
		c5.878,0.236,12.909,5.363,17.765,2.79c5.008-2.653,4.768-11.489,7.796-16.303c2.935-4.668,11.037-8.17,11.271-14.084
		S77.521,40.604,74.964,35.718z"/>
	<path fill="#D4E1F4" d="M84.632,37.604c-0.088,0-0.18-0.035-0.246-0.104l-1.049-1.046c-0.136-0.137-0.136-0.359,0-0.494
		c0.138-0.139,0.358-0.139,0.497,0l1.045,1.047c0.136,0.135,0.136,0.358,0,0.493C84.811,37.569,84.723,37.604,84.632,37.604z"/>
	<path fill="#D4E1F4" d="M87.076,40.047c-0.089,0-0.178-0.035-0.245-0.102l-1.049-1.048c-0.134-0.139-0.134-0.357,0-0.493
		c0.137-0.138,0.356-0.138,0.494,0l1.048,1.047c0.136,0.136,0.136,0.355,0,0.494C87.256,40.012,87.165,40.047,87.076,40.047z"/>
	<path fill="#D4E1F4" d="M83.583,40.047c-0.089,0-0.179-0.035-0.246-0.102c-0.136-0.139-0.136-0.358,0-0.494l1.049-1.047
		c0.137-0.138,0.356-0.138,0.493,0c0.136,0.136,0.136,0.354,0,0.493l-1.045,1.048C83.763,40.012,83.673,40.047,83.583,40.047z"/>
	<path fill="#D4E1F4" d="M86.03,37.604c-0.089,0-0.179-0.035-0.248-0.104c-0.134-0.134-0.134-0.358,0-0.493l1.049-1.047
		c0.137-0.139,0.357-0.139,0.493,0c0.136,0.135,0.136,0.356,0,0.494L86.276,37.5C86.206,37.569,86.117,37.604,86.03,37.604z"/>
	<path fill="#D4E1F4" d="M84.282,65.314c-0.089,0-0.18-0.038-0.246-0.105l-1.05-1.049c-0.135-0.137-0.135-0.358,0-0.494
		c0.139-0.134,0.357-0.134,0.497,0l1.046,1.049c0.135,0.137,0.135,0.355,0,0.494C84.461,65.276,84.373,65.314,84.282,65.314z"/>
	<path fill="#D4E1F4" d="M86.727,67.756c-0.089,0-0.179-0.03-0.245-0.103l-1.05-1.05c-0.135-0.134-0.135-0.355,0-0.49
		c0.137-0.141,0.358-0.141,0.495,0l1.05,1.046c0.134,0.137,0.134,0.355,0,0.494C86.905,67.726,86.816,67.756,86.727,67.756z"/>
	<path fill="#D4E1F4" d="M83.236,67.756c-0.093,0-0.182-0.03-0.25-0.103c-0.135-0.139-0.135-0.357,0-0.494l1.05-1.046
		c0.136-0.141,0.355-0.141,0.493,0c0.135,0.135,0.135,0.356,0,0.49l-1.046,1.05C83.416,67.726,83.324,67.756,83.236,67.756z"/>
	<path fill="#D4E1F4" d="M85.682,65.314c-0.09,0-0.181-0.038-0.25-0.105c-0.135-0.139-0.135-0.357,0-0.494l1.05-1.049
		c0.137-0.134,0.357-0.134,0.495,0c0.134,0.136,0.134,0.357,0,0.494l-1.05,1.049C85.859,65.276,85.767,65.314,85.682,65.314z"/>
	<path fill="#D4E1F4" d="M10.587,49.319c-0.089,0-0.178-0.035-0.246-0.102l-1.048-1.049c-0.135-0.137-0.135-0.357,0-0.494
		c0.137-0.134,0.358-0.134,0.493,0l1.047,1.049c0.139,0.134,0.139,0.354,0,0.494C10.765,49.285,10.676,49.319,10.587,49.319z"/>
	<path fill="#D4E1F4" d="M13.033,51.764c-0.09,0-0.179-0.035-0.249-0.104l-1.046-1.047c-0.136-0.137-0.136-0.356,0-0.494
		c0.135-0.137,0.356-0.137,0.493,0l1.047,1.045c0.137,0.141,0.137,0.361,0,0.496C13.211,51.729,13.122,51.764,13.033,51.764z"/>
	<path fill="#D4E1F4" d="M9.54,51.764c-0.088,0-0.178-0.035-0.247-0.104c-0.135-0.135-0.135-0.355,0-0.496l1.048-1.045
		c0.137-0.137,0.357-0.137,0.492,0c0.139,0.138,0.139,0.357,0,0.494L9.786,51.66C9.72,51.729,9.631,51.764,9.54,51.764z"/>
	<path fill="#D4E1F4" d="M11.984,49.319c-0.088,0-0.178-0.035-0.246-0.102c-0.136-0.139-0.136-0.359,0-0.494l1.046-1.049
		c0.138-0.134,0.359-0.134,0.494,0c0.137,0.137,0.137,0.357,0,0.494l-1.047,1.049C12.164,49.285,12.074,49.319,11.984,49.319z"/>
	<path fill="#D4E1F4" d="M36.31,19.026c-0.105,0-0.208-0.039-0.286-0.119l-1.216-1.215c-0.157-0.159-0.157-0.413,0-0.574
		c0.158-0.157,0.415-0.157,0.574,0l1.214,1.214c0.161,0.161,0.161,0.416,0,0.575C36.516,18.987,36.412,19.026,36.31,19.026z"/>
	<path fill="#D4E1F4" d="M39.145,21.861c-0.104,0-0.21-0.039-0.286-0.119l-1.216-1.215c-0.159-0.158-0.159-0.413,0-0.574
		c0.159-0.158,0.414-0.158,0.572,0l1.215,1.216c0.158,0.159,0.158,0.416,0,0.573C39.351,21.823,39.248,21.861,39.145,21.861z"/>
	<path fill="#D4E1F4" d="M35.094,21.861c-0.104,0-0.206-0.039-0.286-0.119c-0.157-0.157-0.157-0.414,0-0.573l1.216-1.216
		c0.158-0.158,0.411-0.158,0.572,0c0.161,0.161,0.161,0.416,0,0.574l-1.214,1.215C35.304,21.823,35.2,21.861,35.094,21.861z"/>
	<path fill="#D4E1F4" d="M37.928,19.026c-0.104,0-0.206-0.039-0.285-0.119c-0.159-0.159-0.159-0.414,0-0.575l1.216-1.214
		c0.159-0.157,0.413-0.157,0.572,0c0.158,0.161,0.158,0.415,0,0.574l-1.215,1.215C38.14,18.987,38.035,19.026,37.928,19.026z"/>
	<path fill="#D4E1F4" d="M66.587,23.103c-0.104,0-0.205-0.041-0.285-0.12l-1.218-1.214c-0.156-0.159-0.156-0.415,0-0.572
		c0.16-0.16,0.415-0.16,0.574,0l1.214,1.214c0.16,0.161,0.16,0.416,0,0.573C66.794,23.063,66.688,23.103,66.587,23.103z"/>
	<path fill="#D4E1F4" d="M69.421,25.938c-0.104,0-0.207-0.041-0.286-0.119l-1.214-1.215c-0.158-0.159-0.158-0.414,0-0.573
		c0.155-0.158,0.41-0.158,0.569,0l1.219,1.214c0.158,0.158,0.158,0.416,0,0.574C69.631,25.898,69.525,25.938,69.421,25.938z"/>
	<path fill="#D4E1F4" d="M65.37,25.938c-0.102,0-0.208-0.041-0.286-0.119c-0.156-0.159-0.156-0.416,0-0.574l1.218-1.214
		c0.157-0.158,0.412-0.158,0.57,0c0.16,0.159,0.16,0.414,0,0.573l-1.214,1.215C65.578,25.898,65.475,25.938,65.37,25.938z"/>
	<path fill="#D4E1F4" d="M68.208,23.103c-0.103,0-0.209-0.041-0.287-0.12c-0.158-0.157-0.158-0.412,0-0.573l1.214-1.214
		c0.157-0.16,0.413-0.16,0.574,0c0.158,0.157,0.158,0.414,0,0.572l-1.219,1.214C68.415,23.063,68.309,23.103,68.208,23.103z"/>
	<polygon fill="#FF5067" points="42.491,58.143 55.372,51.078 42.491,44.014 	"/>
	<path fill="#34234D" d="M57.699,50.381c-0.032-0.023-0.058-0.05-0.093-0.068l-15.568-8.537c-0.271-0.148-0.599-0.144-0.864,0.015
		c-0.265,0.156-0.428,0.442-0.428,0.75v16.813v0.262c0,0.309,0.163,0.594,0.428,0.75c0.137,0.082,0.291,0.121,0.445,0.121
		c0.144,0,0.289-0.035,0.419-0.107l1.872-1.025l13.697-7.51c0.035-0.02,0.061-0.047,0.093-0.068c0.222-0.166,0.36-0.418,0.36-0.697
		C58.06,50.798,57.921,50.543,57.699,50.381z M42.491,58.143V44.014l12.881,7.064L42.491,58.143z"/>
	<path fill="none" d="M66.041,68.918c0-1.795-1.48-3.258-3.299-3.258s-3.298,1.463-3.298,3.258c0,0.305,0.057,0.594,0.136,0.873
		h6.325C65.984,69.512,66.041,69.223,66.041,68.918z"/>
	<path fill="none" d="M62.742,63.916c2.48,0,4.542,1.787,4.961,4.131h10.489V33.508H20.614V68.16h37.151
		C58.134,65.762,60.222,63.916,62.742,63.916z"/>
	<path fill="#00B5F4" d="M62.742,73.922c-2.44,0-4.48-1.729-4.942-4.018H20.614v5.92h57.579v-6.033H67.703
		C67.284,72.135,65.223,73.922,62.742,73.922z"/>
	<path fill="#34234D" d="M79.064,31.763H19.741c-0.482,0-0.873,0.39-0.873,0.873v44.062c0,0.482,0.391,0.873,0.873,0.873h59.323
		c0.482,0,0.872-0.391,0.872-0.873V32.635C79.937,32.153,79.547,31.763,79.064,31.763z M20.614,33.508h57.579v34.539H67.703
		c-0.419-2.344-2.48-4.131-4.961-4.131c-2.521,0-4.608,1.846-4.978,4.244H20.614V33.508z M78.768,76.299h-58.56v-6.508H59.58
		c-0.079-0.279-0.136-0.568-0.136-0.873c0-1.795,1.479-3.258,3.298-3.258s3.299,1.463,3.299,3.258c0,0.305-0.057,0.594-0.136,0.873
		h1.798h10.489h0.575V76.299z"/>
	<path fill="#34234D" d="M78.192,75.824H20.614v-5.92H57.8c0.462,2.289,2.502,4.018,4.942,4.018c2.48,0,4.542-1.787,4.961-4.131
		h-1.798c-0.39,1.371-1.653,2.387-3.163,2.387s-2.773-1.016-3.162-2.387H20.208v6.508h58.56v-6.508h-0.575V75.824z"/>
</g>
<g id="Layer_2">
</g>
</svg>
