<?xml version="1.0" encoding="utf-8"?>
<!-- Generator: Adobe Illustrator 16.0.3, SVG Export Plug-In . SVG Version: 6.00 Build 0)  -->
<!DOCTYPE svg PUBLIC "-//W3C//DTD SVG 1.1//EN" "http://www.w3.org/Graphics/SVG/1.1/DTD/svg11.dtd">
<svg version="1.1" xmlns="http://www.w3.org/2000/svg" xmlns:xlink="http://www.w3.org/1999/xlink" x="0px" y="0px" width="100px"
	 height="100px" viewBox="0 0 100 100" enable-background="new 0 0 100 100" xml:space="preserve">
<g id="Layer_1">
	<path fill="#FFFFFF" d="M88.466,39.885c-1.504-6.159-10.824-8.108-14.922-12.38c-4.229-4.407-5.85-13.731-11.716-15.449
		c-5.687-1.665-12.039,5.217-18.21,6.719c-6.171,1.501-14.985-1.691-19.266,2.398c-4.416,4.219-1.557,13.243-3.278,19.098
		c-1.668,5.674-9.044,11.685-7.54,17.844c1.504,6.159,10.824,8.108,14.922,12.381c4.228,4.406,5.85,13.73,11.716,15.449
		c5.686,1.664,12.039-5.218,18.21-6.719c6.172-1.502,14.985,1.691,19.267-2.398c4.416-4.22,1.557-13.243,3.277-19.098
		C82.595,52.055,89.971,46.044,88.466,39.885z"/>
	<path fill="#D4E1F4" d="M90.527,86.667H11.473c-0.257,0-0.465-0.208-0.465-0.465s0.208-0.465,0.465-0.465h79.054
		c0.257,0,0.465,0.208,0.465,0.465S90.784,86.667,90.527,86.667z"/>
	<rect x="41.234" y="79.691" fill="#FF5067" width="19.531" height="6.511"/>
	<path fill="#34234D" d="M60.766,86.667H41.234c-0.257,0-0.465-0.208-0.465-0.465v-6.511c0-0.257,0.208-0.465,0.465-0.465h19.531
		c0.257,0,0.465,0.208,0.465,0.465v6.511C61.23,86.459,61.022,86.667,60.766,86.667z M41.7,85.737h18.601v-5.581H41.7V85.737z"/>
	<path fill="#FF5067" d="M78.901,79.691H23.099c-1.284,0-2.325-1.041-2.325-2.325v-4.185h60.453v4.185
		C81.227,78.65,80.186,79.691,78.901,79.691z"/>
	<polygon fill="#FF6E86" points="81.227,77.366 20.773,75.041 20.773,73.182 81.227,73.182 	"/>
	<path fill="#34234D" d="M78.901,80.156h-8.37c-0.257,0-0.465-0.208-0.465-0.465s0.208-0.465,0.465-0.465h8.37
		c1.025,0,1.86-0.835,1.86-1.86v-3.72H21.238v3.72c0,1.025,0.834,1.86,1.86,1.86h44.643c0.257,0,0.465,0.208,0.465,0.465
		s-0.208,0.465-0.465,0.465H23.099c-1.539,0-2.79-1.251-2.79-2.79v-4.185c0-0.258,0.208-0.466,0.465-0.466h60.453
		c0.257,0,0.465,0.208,0.465,0.466v4.185C81.691,78.905,80.44,80.156,78.901,80.156z"/>
	<path fill="#B8B5C6" d="M81.227,73.182H20.773V41.095c0-1.284,1.041-2.325,2.325-2.325h55.803c1.284,0,2.325,1.041,2.325,2.325
		V73.182z"/>
	<polygon fill="#A09CAD" points="77.041,73.182 63.556,73.182 63.556,38.77 72.856,38.77 	"/>
	<path fill="#34234D" d="M20.773,64.346c-0.257,0-0.465-0.208-0.465-0.465V41.095c0-1.539,1.251-2.791,2.79-2.791h55.803
		c1.539,0,2.79,1.252,2.79,2.791v7.44c0,0.257-0.208,0.465-0.465,0.465s-0.465-0.208-0.465-0.465v-7.44
		c0-1.026-0.835-1.86-1.86-1.86H23.099c-1.026,0-1.86,0.834-1.86,1.86v22.786C21.238,64.138,21.03,64.346,20.773,64.346z"/>
	<path fill="#34234D" d="M81.227,73.646H20.773c-0.257,0-0.465-0.208-0.465-0.465v-6.511c0-0.257,0.208-0.465,0.465-0.465
		s0.465,0.208,0.465,0.465v6.045h59.523V51.325c0-0.257,0.208-0.465,0.465-0.465s0.465,0.208,0.465,0.465v21.856
		C81.691,73.438,81.483,73.646,81.227,73.646z"/>
	<path fill="#34234D" d="M69.136,86.667H32.864c-0.257,0-0.465-0.208-0.465-0.465s0.208-0.465,0.465-0.465h36.271
		c0.257,0,0.465,0.208,0.465,0.465S69.393,86.667,69.136,86.667z"/>
	<path fill="#FFFFFF" d="M53.79,77.366h-5.58c-0.514,0-0.93-0.416-0.93-0.93s0.417-0.93,0.93-0.93h5.58
		c0.514,0,0.93,0.416,0.93,0.93S54.304,77.366,53.79,77.366z"/>
	<rect x="29.609" y="32.259" fill="#EDEDED" width="42.783" height="40.922"/>
	<polygon fill="#FFFFFF" points="68.206,69.926 29.609,71.321 29.609,32.259 70.531,32.259 	"/>
	<path fill="#34234D" d="M72.392,73.646H29.609c-0.257,0-0.465-0.208-0.465-0.465V32.259c0-0.257,0.208-0.465,0.465-0.465h42.783
		c0.257,0,0.465,0.208,0.465,0.465v40.922C72.856,73.438,72.648,73.646,72.392,73.646z M30.074,72.716h41.852V32.724H30.074V72.716z
		"/>
	<rect x="29.609" y="25.749" fill="#00B5F4" width="42.783" height="6.511"/>
	<polygon fill="#2FC8F2" points="72.392,30.864 29.609,27.609 29.609,25.749 72.392,25.749 	"/>
	<path fill="#34234D" d="M72.392,32.724H29.609c-0.257,0-0.465-0.208-0.465-0.465v-6.511c0-0.256,0.208-0.465,0.465-0.465h42.783
		c0.257,0,0.465,0.208,0.465,0.465v6.511C72.856,32.516,72.648,32.724,72.392,32.724z M30.074,31.794h41.852v-5.58H30.074V31.794z"
		/>
	<circle fill="#FFFFFF" cx="32.864" cy="29.004" r="0.698"/>
	<circle fill="#FFFFFF" cx="35.654" cy="29.004" r="0.698"/>
	<circle fill="#FFFFFF" cx="38.444" cy="29.004" r="0.698"/>
	<path fill="#D4E1F4" d="M34.259,14.588h-4.65c-0.257,0-0.465-0.208-0.465-0.465s0.208-0.465,0.465-0.465h4.65
		c0.257,0,0.465,0.208,0.465,0.465S34.516,14.588,34.259,14.588z"/>
	<path fill="#D4E1F4" d="M31.934,16.913c-0.257,0-0.465-0.208-0.465-0.465v-4.65c0-0.257,0.208-0.465,0.465-0.465
		s0.465,0.208,0.465,0.465v4.65C32.399,16.705,32.191,16.913,31.934,16.913z"/>
	<path fill="#D4E1F4" d="M76.111,18.773h-4.65c-0.257,0-0.465-0.208-0.465-0.465c0-0.257,0.208-0.465,0.465-0.465h4.65
		c0.257,0,0.465,0.208,0.465,0.465C76.576,18.565,76.368,18.773,76.111,18.773z"/>
	<path fill="#D4E1F4" d="M73.786,21.099c-0.257,0-0.465-0.208-0.465-0.465v-4.65c0-0.257,0.208-0.465,0.465-0.465
		s0.465,0.208,0.465,0.465v4.65C74.251,20.89,74.043,21.099,73.786,21.099z"/>
	<path fill="#D4E1F4" d="M18.448,69.461h-3.72c-0.257,0-0.465-0.208-0.465-0.465s0.208-0.465,0.465-0.465h3.72
		c0.257,0,0.465,0.208,0.465,0.465S18.705,69.461,18.448,69.461z"/>
	<path fill="#D4E1F4" d="M16.588,71.321c-0.257,0-0.465-0.208-0.465-0.465v-3.721c0-0.257,0.208-0.465,0.465-0.465
		s0.465,0.208,0.465,0.465v3.721C17.053,71.113,16.845,71.321,16.588,71.321z"/>
	<path fill="#D4E1F4" d="M52.86,21.099h-3.72c-0.257,0-0.465-0.208-0.465-0.465s0.208-0.465,0.465-0.465h3.72
		c0.257,0,0.465,0.208,0.465,0.465S53.117,21.099,52.86,21.099z"/>
	<path fill="#D4E1F4" d="M51,22.958c-0.257,0-0.465-0.208-0.465-0.465v-3.72c0-0.257,0.208-0.465,0.465-0.465
		s0.465,0.208,0.465,0.465v3.72C51.465,22.75,51.257,22.958,51,22.958z"/>
	<path fill="#D4E1F4" d="M16.123,36.909h-4.65c-0.257,0-0.465-0.208-0.465-0.465s0.208-0.465,0.465-0.465h4.65
		c0.257,0,0.465,0.208,0.465,0.465S16.38,36.909,16.123,36.909z"/>
	<path fill="#D4E1F4" d="M13.798,39.234c-0.257,0-0.465-0.208-0.465-0.465v-4.65c0-0.257,0.208-0.465,0.465-0.465
		s0.465,0.208,0.465,0.465v4.65C14.263,39.026,14.055,39.234,13.798,39.234z"/>
	<path fill="#D4E1F4" d="M90.527,51.79h-3.721c-0.257,0-0.465-0.208-0.465-0.465s0.208-0.465,0.465-0.465h3.721
		c0.257,0,0.465,0.208,0.465,0.465S90.784,51.79,90.527,51.79z"/>
	<path fill="#D4E1F4" d="M88.667,53.65c-0.257,0-0.465-0.208-0.465-0.465v-3.721c0-0.257,0.208-0.465,0.465-0.465
		s0.465,0.208,0.465,0.465v3.721C89.132,53.442,88.924,53.65,88.667,53.65z"/>
	<path fill="#D4E1F4" d="M87.271,75.041h-3.72c-0.257,0-0.465-0.208-0.465-0.465s0.208-0.465,0.465-0.465h3.72
		c0.258,0,0.466,0.208,0.466,0.465S87.529,75.041,87.271,75.041z"/>
	<path fill="#D4E1F4" d="M85.412,76.901c-0.258,0-0.465-0.208-0.465-0.465v-3.721c0-0.257,0.207-0.465,0.465-0.465
		c0.257,0,0.465,0.208,0.465,0.465v3.721C85.877,76.693,85.669,76.901,85.412,76.901z"/>
	<path fill="#FF5067" d="M52.86,37.142H38.909c-0.385,0-0.697-0.313-0.697-0.698s0.312-0.698,0.697-0.698H52.86
		c0.385,0,0.697,0.313,0.697,0.698S53.245,37.142,52.86,37.142z"/>
	<path fill="#FF5067" d="M53.79,52.022H43.56c-0.385,0-0.697-0.312-0.697-0.697c0-0.385,0.312-0.698,0.697-0.698h10.23
		c0.385,0,0.697,0.313,0.697,0.698C54.487,51.711,54.175,52.022,53.79,52.022z"/>
	<path fill="#FF5067" d="M43.56,48.302h-4.65c-0.385,0-0.697-0.312-0.697-0.697s0.312-0.698,0.697-0.698h4.65
		c0.385,0,0.698,0.313,0.698,0.698S43.945,48.302,43.56,48.302z"/>
	<path fill="#FF5067" d="M45.885,59.463h-6.976c-0.385,0-0.697-0.313-0.697-0.697s0.312-0.697,0.697-0.697h6.976
		c0.385,0,0.697,0.313,0.697,0.697S46.27,59.463,45.885,59.463z"/>
	<path fill="#FF5067" d="M43.56,63.184h-4.65c-0.385,0-0.697-0.313-0.697-0.698c0-0.385,0.312-0.697,0.697-0.697h4.65
		c0.385,0,0.698,0.313,0.698,0.697C44.257,62.871,43.945,63.184,43.56,63.184z"/>
	<path fill="#00B5F4" d="M59.37,40.862H43.56c-0.385,0-0.697-0.313-0.697-0.698s0.312-0.698,0.697-0.698H59.37
		c0.386,0,0.698,0.313,0.698,0.698S59.756,40.862,59.37,40.862z"/>
	<path fill="#00B5F4" d="M51,55.743h-7.44c-0.385,0-0.697-0.313-0.697-0.698c0-0.385,0.312-0.697,0.697-0.697H51
		c0.385,0,0.697,0.313,0.697,0.697C51.697,55.431,51.385,55.743,51,55.743z"/>
	<path fill="#00B5F4" d="M56.58,66.903H43.56c-0.385,0-0.697-0.313-0.697-0.697s0.312-0.697,0.697-0.697H56.58
		c0.386,0,0.697,0.313,0.697,0.697S56.966,66.903,56.58,66.903z"/>
	<path fill="#FF5067" d="M48.675,70.624H43.56c-0.385,0-0.697-0.313-0.697-0.698c0-0.385,0.312-0.697,0.697-0.697h5.115
		c0.385,0,0.698,0.313,0.698,0.697C49.373,70.312,49.06,70.624,48.675,70.624z"/>
	<path fill="#00B5F4" d="M58.905,59.463H49.14c-0.386,0-0.698-0.313-0.698-0.697s0.312-0.697,0.698-0.697h9.765
		c0.385,0,0.697,0.313,0.697,0.697S59.29,59.463,58.905,59.463z"/>
	<path fill="#00B5F4" d="M52.396,63.184h-5.581c-0.385,0-0.698-0.313-0.698-0.698c0-0.385,0.313-0.697,0.698-0.697h5.581
		c0.385,0,0.697,0.313,0.697,0.697C53.093,62.871,52.78,63.184,52.396,63.184z"/>
	<path fill="#00B5F4" d="M59.37,70.624h-7.44c-0.385,0-0.697-0.313-0.697-0.698c0-0.385,0.313-0.697,0.697-0.697h7.44
		c0.386,0,0.698,0.313,0.698,0.697C60.068,70.312,59.756,70.624,59.37,70.624z"/>
	<path fill="#00B5F4" d="M50.07,44.582H43.56c-0.385,0-0.697-0.312-0.697-0.697s0.312-0.698,0.697-0.698h6.511
		c0.385,0,0.697,0.313,0.697,0.698S50.455,44.582,50.07,44.582z"/>
	<path fill="#00B5F4" d="M62.16,52.022h-5.115c-0.385,0-0.697-0.312-0.697-0.697c0-0.385,0.313-0.698,0.697-0.698h5.115
		c0.386,0,0.698,0.313,0.698,0.698C62.858,51.711,62.546,52.022,62.16,52.022z"/>
	<path fill="#B8B5C6" d="M68.206,40.862h-5.58c-0.386,0-0.698-0.313-0.698-0.698s0.313-0.698,0.698-0.698h5.58
		c0.385,0,0.697,0.313,0.697,0.698S68.591,40.862,68.206,40.862z"/>
	<path fill="#B8B5C6" d="M57.976,44.582h-4.65c-0.385,0-0.697-0.312-0.697-0.697s0.313-0.698,0.697-0.698h4.65
		c0.385,0,0.697,0.313,0.697,0.698S58.36,44.582,57.976,44.582z"/>
	<path fill="#B8B5C6" d="M58.905,55.743h-4.65c-0.385,0-0.697-0.313-0.697-0.698c0-0.385,0.313-0.697,0.697-0.697h4.65
		c0.385,0,0.697,0.313,0.697,0.697C59.603,55.431,59.29,55.743,58.905,55.743z"/>
	<path fill="#B8B5C6" d="M64.485,66.903h-4.649c-0.386,0-0.698-0.313-0.698-0.697s0.313-0.697,0.698-0.697h4.649
		c0.386,0,0.698,0.313,0.698,0.697S64.871,66.903,64.485,66.903z"/>
	<path fill="#B8B5C6" d="M68.206,70.624h-5.58c-0.386,0-0.698-0.313-0.698-0.698c0-0.385,0.313-0.697,0.698-0.697h5.58
		c0.385,0,0.697,0.313,0.697,0.697C68.903,70.312,68.591,70.624,68.206,70.624z"/>
	<path fill="#B8B5C6" d="M66.346,63.184H55.65c-0.385,0-0.697-0.313-0.697-0.698c0-0.385,0.313-0.697,0.697-0.697h10.695
		c0.385,0,0.697,0.313,0.697,0.697C67.043,62.871,66.73,63.184,66.346,63.184z"/>
	<path fill="#00B5F4" d="M35.654,37.142h-1.86c-0.385,0-0.697-0.313-0.697-0.698s0.312-0.698,0.697-0.698h1.86
		c0.385,0,0.697,0.313,0.697,0.698S36.04,37.142,35.654,37.142z"/>
	<path fill="#00B5F4" d="M35.654,40.862h-1.86c-0.385,0-0.697-0.313-0.697-0.698s0.312-0.698,0.697-0.698h1.86
		c0.385,0,0.697,0.313,0.697,0.698S36.04,40.862,35.654,40.862z"/>
	<path fill="#00B5F4" d="M35.654,44.582h-1.86c-0.385,0-0.697-0.312-0.697-0.697s0.312-0.698,0.697-0.698h1.86
		c0.385,0,0.697,0.313,0.697,0.698S36.04,44.582,35.654,44.582z"/>
	<path fill="#00B5F4" d="M35.654,48.302h-1.86c-0.385,0-0.697-0.312-0.697-0.697s0.312-0.698,0.697-0.698h1.86
		c0.385,0,0.697,0.313,0.697,0.698S36.04,48.302,35.654,48.302z"/>
	<path fill="#00B5F4" d="M35.654,52.022h-1.86c-0.385,0-0.697-0.312-0.697-0.697c0-0.385,0.312-0.698,0.697-0.698h1.86
		c0.385,0,0.697,0.313,0.697,0.698C36.352,51.711,36.04,52.022,35.654,52.022z"/>
	<path fill="#00B5F4" d="M35.654,55.743h-1.86c-0.385,0-0.697-0.313-0.697-0.698c0-0.385,0.312-0.697,0.697-0.697h1.86
		c0.385,0,0.697,0.313,0.697,0.697C36.352,55.431,36.04,55.743,35.654,55.743z"/>
	<path fill="#00B5F4" d="M35.654,59.463h-1.86c-0.385,0-0.697-0.313-0.697-0.697s0.312-0.697,0.697-0.697h1.86
		c0.385,0,0.697,0.313,0.697,0.697S36.04,59.463,35.654,59.463z"/>
	<path fill="#00B5F4" d="M35.654,63.184h-1.86c-0.385,0-0.697-0.313-0.697-0.698c0-0.385,0.312-0.697,0.697-0.697h1.86
		c0.385,0,0.697,0.313,0.697,0.697C36.352,62.871,36.04,63.184,35.654,63.184z"/>
	<path fill="#00B5F4" d="M35.654,66.903h-1.86c-0.385,0-0.697-0.313-0.697-0.697s0.312-0.697,0.697-0.697h1.86
		c0.385,0,0.697,0.313,0.697,0.697S36.04,66.903,35.654,66.903z"/>
	<path fill="#00B5F4" d="M35.654,70.624h-1.86c-0.385,0-0.697-0.313-0.697-0.698c0-0.385,0.312-0.697,0.697-0.697h1.86
		c0.385,0,0.697,0.313,0.697,0.697C36.352,70.312,36.04,70.624,35.654,70.624z"/>
</g>
<g id="Layer_2">
</g>
</svg>
