<?xml version="1.0" encoding="utf-8"?>
<!-- Generator: Adobe Illustrator 16.0.3, SVG Export Plug-In . SVG Version: 6.00 Build 0)  -->
<!DOCTYPE svg PUBLIC "-//W3C//DTD SVG 1.1//EN" "http://www.w3.org/Graphics/SVG/1.1/DTD/svg11.dtd">
<svg version="1.1" xmlns="http://www.w3.org/2000/svg" xmlns:xlink="http://www.w3.org/1999/xlink" x="0px" y="0px" width="100px"
	 height="100px" viewBox="0 0 100 100" enable-background="new 0 0 100 100" xml:space="preserve">
<g id="Layer_1">
	<path fill="#FFFFFF" d="M74.964,35.718c-2.64-5.042-1.7-13.828-6.484-16.876c-4.636-2.954-12.05,1.595-17.928,1.359
		c-5.878-0.236-12.908-5.363-17.764-2.791c-5.009,2.655-4.768,11.49-7.797,16.303c-2.935,4.667-11.037,8.17-11.271,14.085
		c-0.234,5.914,7.565,10.056,10.122,14.942c2.637,5.04,1.699,13.827,6.483,16.875c4.636,2.953,12.05-1.595,17.927-1.359
		c5.878,0.236,12.909,5.363,17.765,2.79c5.008-2.653,4.768-11.489,7.796-16.303c2.935-4.668,11.037-8.17,11.271-14.084
		S77.521,40.604,74.964,35.718z"/>
	<path fill="#D4E1F4" d="M84.632,37.604c-0.088,0-0.18-0.035-0.246-0.104l-1.049-1.046c-0.136-0.137-0.136-0.359,0-0.494
		c0.138-0.139,0.358-0.139,0.497,0l1.045,1.047c0.136,0.135,0.136,0.358,0,0.493C84.811,37.569,84.723,37.604,84.632,37.604z"/>
	<path fill="#D4E1F4" d="M87.076,40.047c-0.089,0-0.178-0.035-0.245-0.102l-1.049-1.048c-0.134-0.139-0.134-0.357,0-0.493
		c0.137-0.138,0.356-0.138,0.494,0l1.048,1.047c0.136,0.136,0.136,0.355,0,0.494C87.256,40.012,87.165,40.047,87.076,40.047z"/>
	<path fill="#D4E1F4" d="M83.583,40.047c-0.089,0-0.179-0.035-0.246-0.102c-0.136-0.139-0.136-0.358,0-0.494l1.049-1.047
		c0.137-0.138,0.356-0.138,0.493,0c0.136,0.136,0.136,0.354,0,0.493l-1.045,1.048C83.763,40.012,83.673,40.047,83.583,40.047z"/>
	<path fill="#D4E1F4" d="M86.03,37.604c-0.089,0-0.179-0.035-0.248-0.104c-0.134-0.134-0.134-0.358,0-0.493l1.049-1.047
		c0.137-0.139,0.357-0.139,0.493,0c0.136,0.135,0.136,0.356,0,0.494L86.276,37.5C86.206,37.569,86.117,37.604,86.03,37.604z"/>
	<path fill="#D4E1F4" d="M84.282,65.314c-0.089,0-0.18-0.038-0.246-0.105l-1.05-1.049c-0.135-0.137-0.135-0.358,0-0.494
		c0.139-0.134,0.357-0.134,0.497,0l1.046,1.049c0.135,0.137,0.135,0.355,0,0.494C84.461,65.276,84.373,65.314,84.282,65.314z"/>
	<path fill="#D4E1F4" d="M86.727,67.756c-0.089,0-0.179-0.03-0.245-0.103l-1.05-1.05c-0.135-0.134-0.135-0.355,0-0.49
		c0.137-0.141,0.358-0.141,0.495,0l1.05,1.046c0.134,0.137,0.134,0.355,0,0.494C86.905,67.726,86.816,67.756,86.727,67.756z"/>
	<path fill="#D4E1F4" d="M83.236,67.756c-0.093,0-0.182-0.03-0.25-0.103c-0.135-0.139-0.135-0.357,0-0.494l1.05-1.046
		c0.136-0.141,0.355-0.141,0.493,0c0.135,0.135,0.135,0.356,0,0.49l-1.046,1.05C83.416,67.726,83.324,67.756,83.236,67.756z"/>
	<path fill="#D4E1F4" d="M85.682,65.314c-0.09,0-0.181-0.038-0.25-0.105c-0.135-0.139-0.135-0.357,0-0.494l1.05-1.049
		c0.137-0.134,0.357-0.134,0.495,0c0.134,0.136,0.134,0.357,0,0.494l-1.05,1.049C85.859,65.276,85.767,65.314,85.682,65.314z"/>
	<path fill="#D4E1F4" d="M10.587,49.319c-0.089,0-0.178-0.035-0.246-0.102l-1.048-1.049c-0.135-0.137-0.135-0.357,0-0.494
		c0.137-0.134,0.358-0.134,0.493,0l1.047,1.049c0.139,0.134,0.139,0.354,0,0.494C10.765,49.285,10.676,49.319,10.587,49.319z"/>
	<path fill="#D4E1F4" d="M13.033,51.764c-0.09,0-0.179-0.035-0.249-0.104l-1.046-1.047c-0.136-0.137-0.136-0.356,0-0.494
		c0.135-0.137,0.356-0.137,0.493,0l1.047,1.045c0.137,0.141,0.137,0.361,0,0.496C13.211,51.729,13.122,51.764,13.033,51.764z"/>
	<path fill="#D4E1F4" d="M9.54,51.764c-0.088,0-0.178-0.035-0.247-0.104c-0.135-0.135-0.135-0.355,0-0.496l1.048-1.045
		c0.137-0.137,0.357-0.137,0.492,0c0.139,0.138,0.139,0.357,0,0.494L9.786,51.66C9.72,51.729,9.631,51.764,9.54,51.764z"/>
	<path fill="#D4E1F4" d="M11.984,49.319c-0.088,0-0.178-0.035-0.246-0.102c-0.136-0.139-0.136-0.359,0-0.494l1.046-1.049
		c0.138-0.134,0.359-0.134,0.494,0c0.137,0.137,0.137,0.357,0,0.494l-1.047,1.049C12.164,49.285,12.074,49.319,11.984,49.319z"/>
	<path fill="#D4E1F4" d="M36.31,19.026c-0.105,0-0.208-0.039-0.286-0.119l-1.216-1.215c-0.157-0.159-0.157-0.413,0-0.574
		c0.158-0.157,0.415-0.157,0.574,0l1.214,1.214c0.161,0.161,0.161,0.416,0,0.575C36.516,18.987,36.412,19.026,36.31,19.026z"/>
	<path fill="#D4E1F4" d="M39.145,21.861c-0.104,0-0.21-0.039-0.286-0.119l-1.216-1.215c-0.159-0.158-0.159-0.413,0-0.574
		c0.159-0.158,0.414-0.158,0.572,0l1.215,1.216c0.158,0.159,0.158,0.416,0,0.573C39.351,21.823,39.248,21.861,39.145,21.861z"/>
	<path fill="#D4E1F4" d="M35.094,21.861c-0.104,0-0.206-0.039-0.286-0.119c-0.157-0.157-0.157-0.414,0-0.573l1.216-1.216
		c0.158-0.158,0.411-0.158,0.572,0c0.161,0.161,0.161,0.416,0,0.574l-1.214,1.215C35.304,21.823,35.2,21.861,35.094,21.861z"/>
	<path fill="#D4E1F4" d="M37.928,19.026c-0.104,0-0.206-0.039-0.285-0.119c-0.159-0.159-0.159-0.414,0-0.575l1.216-1.214
		c0.159-0.157,0.413-0.157,0.572,0c0.158,0.161,0.158,0.415,0,0.574l-1.215,1.215C38.14,18.987,38.035,19.026,37.928,19.026z"/>
	<path fill="#D4E1F4" d="M66.587,23.103c-0.104,0-0.205-0.041-0.285-0.12l-1.218-1.214c-0.156-0.159-0.156-0.415,0-0.572
		c0.16-0.16,0.415-0.16,0.574,0l1.214,1.214c0.16,0.161,0.16,0.416,0,0.573C66.794,23.063,66.688,23.103,66.587,23.103z"/>
	<path fill="#D4E1F4" d="M69.421,25.938c-0.104,0-0.207-0.041-0.286-0.119l-1.214-1.215c-0.158-0.159-0.158-0.414,0-0.573
		c0.155-0.158,0.41-0.158,0.569,0l1.219,1.214c0.158,0.158,0.158,0.416,0,0.574C69.631,25.898,69.525,25.938,69.421,25.938z"/>
	<path fill="#D4E1F4" d="M65.37,25.938c-0.102,0-0.208-0.041-0.286-0.119c-0.156-0.159-0.156-0.416,0-0.574l1.218-1.214
		c0.157-0.158,0.412-0.158,0.57,0c0.16,0.159,0.16,0.414,0,0.573l-1.214,1.215C65.578,25.898,65.475,25.938,65.37,25.938z"/>
	<path fill="#D4E1F4" d="M68.208,23.103c-0.103,0-0.209-0.041-0.287-0.12c-0.158-0.157-0.158-0.412,0-0.573l1.214-1.214
		c0.157-0.16,0.413-0.16,0.574,0c0.158,0.157,0.158,0.414,0,0.572l-1.219,1.214C68.415,23.063,68.309,23.103,68.208,23.103z"/>
	<path fill="none" d="M66.041,68.918c0-1.795-1.48-3.258-3.299-3.258s-3.298,1.463-3.298,3.258c0,0.305,0.057,0.594,0.136,0.873
		h6.325C65.984,69.512,66.041,69.223,66.041,68.918z"/>
	<path fill="#D4E1F4" d="M94.502,89.404H3.535C3.24,89.404,3,89.164,3,88.868s0.24-0.535,0.535-0.535h90.967
		c0.295,0,0.533,0.239,0.533,0.535S94.797,89.404,94.502,89.404z"/>
	<rect x="37.246" y="81.377" fill="#FF5067" width="23.545" height="7.491"/>
	<path fill="#34234D" d="M60.791,89.404H37.246c-0.296,0-0.535-0.24-0.535-0.536v-7.491c0-0.296,0.239-0.534,0.535-0.534h23.545
		c0.295,0,0.533,0.238,0.533,0.534v7.491C61.324,89.164,61.086,89.404,60.791,89.404z M37.781,88.333h22.475v-6.421H37.781V88.333z"
		/>
	<path fill="#FF6E86" d="M78.447,81.377H19.588c-1.479,0-2.676-1.197-2.676-2.675v-4.816h64.21v4.816
		C81.123,80.18,79.926,81.377,78.447,81.377z"/>
	<path fill="#34234D" d="M78.447,81.912h-6.955c-0.297,0-0.535-0.239-0.535-0.535s0.238-0.534,0.535-0.534h6.955
		c1.182,0,2.141-0.961,2.141-2.141v-4.281h-63.14v4.281c0,1.18,0.959,2.141,2.14,2.141h48.693c0.297,0,0.535,0.238,0.535,0.534
		s-0.238,0.535-0.535,0.535H19.588c-1.771,0-3.211-1.439-3.211-3.21v-4.816c0-0.296,0.24-0.535,0.536-0.535h64.21
		c0.297,0,0.535,0.239,0.535,0.535v4.816C81.658,80.473,80.219,81.912,78.447,81.912z"/>
	<path fill="#FFFFFF" d="M81.123,73.886h-64.21V36.964c0-1.478,1.197-2.675,2.676-2.675h58.859c1.479,0,2.676,1.198,2.676,2.675
		V73.886z"/>
	<polygon fill="#EDEDED" points="76.307,73.886 63.465,73.886 63.465,34.289 72.563,34.289 	"/>
	<path fill="#34234D" d="M81.123,74.421h-64.21c-0.296,0-0.536-0.239-0.536-0.535v-7.491c0-0.296,0.24-0.535,0.536-0.535
		s0.536,0.239,0.536,0.535v6.956h63.14V36.964c0-1.18-0.959-2.141-2.141-2.141H19.588c-1.181,0-2.14,0.96-2.14,2.141v26.219
		c0,0.296-0.24,0.536-0.536,0.536s-0.536-0.24-0.536-0.536V36.964c0-1.771,1.44-3.21,3.211-3.21h58.859
		c1.771,0,3.211,1.44,3.211,3.21v36.921C81.658,74.182,81.42,74.421,81.123,74.421z"/>
	<path fill="#34234D" d="M69.887,89.404H28.15c-0.296,0-0.536-0.24-0.536-0.536s0.24-0.535,0.536-0.535h41.737
		c0.295,0,0.535,0.239,0.535,0.535S70.182,89.404,69.887,89.404z"/>
	<path fill="#FFFFFF" d="M52.764,78.702h-7.491c-0.591,0-1.071-0.48-1.071-1.071c0-0.59,0.48-1.069,1.071-1.069h7.491
		c0.592,0,1.07,0.479,1.07,1.069C53.834,78.222,53.355,78.702,52.764,78.702z"/>
	<rect x="27.079" y="31.078" fill="#F2F2F2" width="43.878" height="42.808"/>
	<path fill="#34234D" d="M70.957,74.421H27.079c-0.295,0-0.535-0.239-0.535-0.535V31.078c0-0.295,0.24-0.535,0.535-0.535h43.878
		c0.295,0,0.535,0.24,0.535,0.535v5.351c0,0.295-0.24,0.535-0.535,0.535s-0.535-0.24-0.535-0.535v-4.816H27.614v41.737h42.808
		V52.482c0-0.296,0.24-0.535,0.535-0.535s0.535,0.239,0.535,0.535v21.403C71.492,74.182,71.252,74.421,70.957,74.421z"/>
	<rect x="27.079" y="24.657" fill="#FFFFFF" width="43.878" height="6.421"/>
	<path fill="#34234D" d="M70.957,31.613H27.079c-0.295,0-0.535-0.239-0.535-0.535v-6.421c0-0.296,0.24-0.535,0.535-0.535h43.878
		c0.295,0,0.535,0.239,0.535,0.535v6.421C71.492,31.374,71.252,31.613,70.957,31.613z M27.614,30.543h42.808v-5.351H27.614V30.543z"
		/>
	<path fill="#FFFFFF" d="M47.146,52.482H32.163c-0.591,0-1.07-0.48-1.07-1.07V36.429c0-0.591,0.479-1.07,1.07-1.07h14.982
		c0.59,0,1.07,0.479,1.07,1.07v14.983C48.216,52.002,47.736,52.482,47.146,52.482z"/>
	<path fill="#FFFFFF" d="M47.146,53.018H32.163c-0.886,0-1.606-0.721-1.606-1.605V36.429c0-0.885,0.72-1.605,1.606-1.605h14.982
		c0.885,0,1.605,0.72,1.605,1.605v14.983C48.75,52.297,48.03,53.018,47.146,53.018z M32.163,35.894c-0.295,0-0.536,0.24-0.536,0.535
		v14.983c0,0.295,0.24,0.535,0.536,0.535h14.982c0.295,0,0.535-0.24,0.535-0.535V36.429c0-0.295-0.24-0.535-0.535-0.535H32.163z"/>
	<path fill="#00B5F4" d="M66.943,35.894H51.426c-0.295,0-0.535-0.239-0.535-0.535c0-0.295,0.24-0.535,0.535-0.535h15.518
		c0.297,0,0.535,0.24,0.535,0.535C67.479,35.655,67.24,35.894,66.943,35.894z"/>
	<path fill="#00B5F4" d="M66.943,40.175h-6.955c-0.297,0-0.535-0.239-0.535-0.535c0-0.295,0.238-0.535,0.535-0.535h6.955
		c0.297,0,0.535,0.24,0.535,0.535C67.479,39.936,67.24,40.175,66.943,40.175z"/>
	<path fill="#FF6E86" d="M56.777,40.175h-5.352c-0.295,0-0.535-0.239-0.535-0.535c0-0.295,0.24-0.535,0.535-0.535h5.352
		c0.295,0,0.535,0.24,0.535,0.535C57.313,39.936,57.072,40.175,56.777,40.175z"/>
	<path fill="#FF6E86" d="M61.592,44.456H51.426c-0.295,0-0.535-0.239-0.535-0.535c0-0.295,0.24-0.535,0.535-0.535h10.166
		c0.297,0,0.537,0.24,0.537,0.535C62.129,44.216,61.889,44.456,61.592,44.456z"/>
	<path fill="#00B5F4" d="M66.943,48.736H51.426c-0.295,0-0.535-0.239-0.535-0.535c0-0.295,0.24-0.535,0.535-0.535h15.518
		c0.297,0,0.535,0.24,0.535,0.535C67.479,48.497,67.24,48.736,66.943,48.736z"/>
	<path fill="#FF6E86" d="M60.521,53.018h-9.096c-0.295,0-0.535-0.24-0.535-0.535c0-0.296,0.24-0.535,0.535-0.535h9.096
		c0.297,0,0.537,0.239,0.537,0.535C61.059,52.777,60.818,53.018,60.521,53.018z"/>
	<path fill="#00B5F4" d="M66.943,57.298h-2.99c-0.297,0-0.535-0.24-0.535-0.535s0.238-0.534,0.535-0.534h2.99
		c0.297,0,0.535,0.239,0.535,0.534S67.24,57.298,66.943,57.298z"/>
	<path fill="#00B5F4" d="M52.354,57.298H44.47c-0.295,0-0.535-0.24-0.535-0.535s0.239-0.534,0.535-0.534h7.884
		c0.297,0,0.537,0.239,0.537,0.534S52.65,57.298,52.354,57.298z"/>
	<path fill="#FF6E86" d="M41.259,57.298H31.093c-0.296,0-0.536-0.24-0.536-0.535s0.24-0.534,0.536-0.534h10.166
		c0.296,0,0.536,0.239,0.536,0.534S41.555,57.298,41.259,57.298z"/>
	<path fill="#FF6E86" d="M49.554,65.859h-7.759c-0.296,0-0.536-0.239-0.536-0.535s0.24-0.535,0.536-0.535h7.759
		c0.295,0,0.535,0.239,0.535,0.535S49.849,65.859,49.554,65.859z"/>
	<path fill="#00B5F4" d="M38.584,65.859h-7.491c-0.296,0-0.536-0.239-0.536-0.535s0.24-0.535,0.536-0.535h7.491
		c0.295,0,0.535,0.239,0.535,0.535S38.879,65.859,38.584,65.859z"/>
	<path fill="#FF6E86" d="M66.943,61.579h-7.271c-0.297,0-0.535-0.239-0.535-0.535c0-0.297,0.238-0.536,0.535-0.536h7.271
		c0.297,0,0.535,0.239,0.535,0.536C67.479,61.34,67.24,61.579,66.943,61.579z"/>
	<path fill="#00B5F4" d="M50.981,61.579H31.093c-0.296,0-0.536-0.239-0.536-0.535c0-0.297,0.24-0.536,0.536-0.536h19.888
		c0.294,0,0.535,0.239,0.535,0.536C51.516,61.34,51.275,61.579,50.981,61.579z"/>
	<path fill="#E5E5E5" d="M43.1,50.171c-0.178,0-0.357-0.043-0.522-0.13l-2.901-1.525l-2.946,1.525
		c-0.382,0.201-0.833,0.167-1.18-0.085c-0.347-0.252-0.517-0.671-0.444-1.095l0.554-3.23L33.299,43.3
		c-0.308-0.299-0.416-0.74-0.284-1.147c0.133-0.408,0.479-0.7,0.904-0.761l3.244-0.472l1.487-2.966
		c0.189-0.385,0.575-0.624,1.004-0.624c0.429,0,0.813,0.239,1.002,0.624l1.451,2.939l3.281,0.499
		c0.425,0.061,0.771,0.353,0.903,0.761C46.425,42.56,46.316,43,46.01,43.3l-2.348,2.288l0.54,3.274
		c0.072,0.422-0.098,0.842-0.445,1.094C43.561,50.099,43.331,50.171,43.1,50.171z M39.654,38.399l-1.495,2.967
		c-0.162,0.331-0.478,0.56-0.842,0.612l-3.244,0.472l-0.026,0.084l2.347,2.288c0.263,0.257,0.384,0.627,0.322,0.99l-0.554,3.231
		l0.32,0.525l-0.25-0.474l2.901-1.525c0.326-0.171,0.716-0.171,1.042,0l2.901,1.525c0,0,0.072-0.051,0.072-0.051l-0.554-3.231
		c-0.063-0.363,0.057-0.733,0.322-0.99l2.347-2.288l-0.027-0.084l-3.244-0.472c-0.366-0.053-0.681-0.282-0.843-0.613l-1.45-2.938
		l0,0C39.692,38.417,39.684,38.399,39.654,38.399z"/>
	<circle fill="#A09CAD" cx="30.29" cy="27.868" r="0.803"/>
	<circle fill="#A09CAD" cx="33.5" cy="27.868" r="0.803"/>
	<circle fill="#A09CAD" cx="36.711" cy="27.868" r="0.803"/>
	<path fill="#FF5067" d="M75.824,42.555l-3.502-3.501c-0.646-0.646-1.691-0.646-2.336,0l-1.752,1.75l5.838,5.838l1.752-1.751
		C76.469,44.246,76.469,43.2,75.824,42.555z"/>
	<path fill="#34234D" d="M74.072,47.178c-0.141,0-0.277-0.057-0.377-0.157l-5.84-5.838c-0.1-0.1-0.156-0.236-0.156-0.378
		c0-0.142,0.057-0.278,0.156-0.378l1.754-1.751c0.412-0.414,0.961-0.641,1.545-0.641s1.133,0.227,1.547,0.641l3.502,3.501
		c0.412,0.413,0.641,0.962,0.641,1.546s-0.229,1.133-0.641,1.546l-1.752,1.752C74.352,47.121,74.215,47.178,74.072,47.178z
		 M68.99,40.804l5.082,5.082l1.373-1.373c0.211-0.211,0.328-0.491,0.328-0.79c0-0.298-0.117-0.579-0.328-0.79l-3.502-3.502
		c-0.422-0.422-1.156-0.422-1.578,0L68.99,40.804z"/>
	<polygon fill="#A09CAD" points="52.473,56.567 49.554,65.324 58.311,62.405 	"/>
	<path fill="#34234D" d="M49.554,65.859c-0.14,0-0.277-0.055-0.378-0.157c-0.144-0.143-0.194-0.354-0.13-0.548l2.919-8.757
		c0.059-0.176,0.203-0.309,0.385-0.352c0.182-0.042,0.371,0.012,0.502,0.143l5.838,5.839c0.131,0.131,0.184,0.321,0.141,0.5
		c-0.041,0.182-0.176,0.326-0.352,0.386l-8.756,2.918C49.667,65.851,49.609,65.859,49.554,65.859z M52.705,57.558l-2.306,6.921
		l6.919-2.308L52.705,57.558z"/>
	
		<rect x="52.127" y="47.477" transform="matrix(0.7071 -0.7071 0.7071 0.7071 -17.9573 59.8587)" fill="#FFFFFF" width="22.291" height="8.255"/>
	
		<rect x="61.667" y="39.389" transform="matrix(0.7067 0.7076 -0.7076 0.7067 54.0031 -29.1878)" fill="#A09CAD" width="1.07" height="22.291"/>
	
		<rect x="63.807" y="41.529" transform="matrix(0.7076 0.7067 -0.7067 0.7076 56.0389 -30.0638)" fill="#A09CAD" width="1.071" height="22.293"/>
	<path fill="#34234D" d="M58.311,62.94c-0.137,0-0.273-0.053-0.379-0.157l-5.838-5.838c-0.1-0.101-0.156-0.236-0.156-0.378
		c0-0.144,0.057-0.278,0.156-0.379l15.762-15.762c0.209-0.209,0.549-0.209,0.758,0l5.838,5.838c0.1,0.1,0.156,0.236,0.156,0.378
		s-0.057,0.278-0.156,0.378L58.689,62.783C58.584,62.888,58.447,62.94,58.311,62.94z M53.229,56.567l5.082,5.081l15.006-15.006
		l-5.082-5.082L53.229,56.567z"/>
</g>
<g id="Layer_2">
</g>
</svg>
