<?xml version="1.0" encoding="utf-8"?>
<!-- Generator: Adobe Illustrator 16.0.3, SVG Export Plug-In . SVG Version: 6.00 Build 0)  -->
<!DOCTYPE svg PUBLIC "-//W3C//DTD SVG 1.1//EN" "http://www.w3.org/Graphics/SVG/1.1/DTD/svg11.dtd">
<svg version="1.1" xmlns="http://www.w3.org/2000/svg" xmlns:xlink="http://www.w3.org/1999/xlink" x="0px" y="0px" width="100px"
	 height="100px" viewBox="0 0 100 100" enable-background="new 0 0 100 100" xml:space="preserve">
<g id="Layer_1">
	<path fill="#FFFFFF" d="M74.964,35.718c-2.64-5.042-1.7-13.828-6.484-16.876c-4.636-2.954-12.05,1.595-17.928,1.359
		c-5.878-0.236-12.908-5.363-17.764-2.791c-5.009,2.655-4.768,11.49-7.797,16.303c-2.935,4.667-11.037,8.17-11.271,14.085
		c-0.234,5.914,7.565,10.056,10.122,14.942c2.637,5.04,1.699,13.827,6.483,16.875c4.636,2.953,12.05-1.595,17.927-1.359
		c5.878,0.236,12.909,5.363,17.765,2.79c5.008-2.653,4.768-11.489,7.796-16.303c2.935-4.668,11.037-8.17,11.271-14.084
		S77.521,40.604,74.964,35.718z"/>
	<path fill="#D4E1F4" d="M84.632,37.604c-0.088,0-0.18-0.035-0.246-0.104l-1.049-1.046c-0.136-0.137-0.136-0.359,0-0.494
		c0.138-0.139,0.358-0.139,0.497,0l1.045,1.047c0.136,0.135,0.136,0.358,0,0.493C84.811,37.569,84.723,37.604,84.632,37.604z"/>
	<path fill="#D4E1F4" d="M87.076,40.047c-0.089,0-0.178-0.035-0.245-0.102l-1.049-1.048c-0.134-0.139-0.134-0.357,0-0.493
		c0.137-0.138,0.356-0.138,0.494,0l1.048,1.047c0.136,0.136,0.136,0.355,0,0.494C87.256,40.012,87.165,40.047,87.076,40.047z"/>
	<path fill="#D4E1F4" d="M83.583,40.047c-0.089,0-0.179-0.035-0.246-0.102c-0.136-0.139-0.136-0.358,0-0.494l1.049-1.047
		c0.137-0.138,0.356-0.138,0.493,0c0.136,0.136,0.136,0.354,0,0.493l-1.045,1.048C83.763,40.012,83.673,40.047,83.583,40.047z"/>
	<path fill="#D4E1F4" d="M86.03,37.604c-0.089,0-0.179-0.035-0.248-0.104c-0.134-0.134-0.134-0.358,0-0.493l1.049-1.047
		c0.137-0.139,0.357-0.139,0.493,0c0.136,0.135,0.136,0.356,0,0.494L86.276,37.5C86.206,37.569,86.117,37.604,86.03,37.604z"/>
	<path fill="#D4E1F4" d="M84.282,65.314c-0.089,0-0.18-0.038-0.246-0.105l-1.05-1.049c-0.135-0.137-0.135-0.358,0-0.494
		c0.139-0.134,0.357-0.134,0.497,0l1.046,1.049c0.135,0.137,0.135,0.355,0,0.494C84.461,65.276,84.373,65.314,84.282,65.314z"/>
	<path fill="#D4E1F4" d="M86.727,67.756c-0.089,0-0.179-0.03-0.245-0.103l-1.05-1.05c-0.135-0.134-0.135-0.355,0-0.49
		c0.137-0.141,0.358-0.141,0.495,0l1.05,1.046c0.134,0.137,0.134,0.355,0,0.494C86.905,67.726,86.816,67.756,86.727,67.756z"/>
	<path fill="#D4E1F4" d="M83.236,67.756c-0.093,0-0.182-0.03-0.25-0.103c-0.135-0.139-0.135-0.357,0-0.494l1.05-1.046
		c0.136-0.141,0.355-0.141,0.493,0c0.135,0.135,0.135,0.356,0,0.49l-1.046,1.05C83.416,67.726,83.324,67.756,83.236,67.756z"/>
	<path fill="#D4E1F4" d="M85.682,65.314c-0.09,0-0.181-0.038-0.25-0.105c-0.135-0.139-0.135-0.357,0-0.494l1.05-1.049
		c0.137-0.134,0.357-0.134,0.495,0c0.134,0.136,0.134,0.357,0,0.494l-1.05,1.049C85.859,65.276,85.767,65.314,85.682,65.314z"/>
	<path fill="#D4E1F4" d="M10.587,49.319c-0.089,0-0.178-0.035-0.246-0.102l-1.048-1.049c-0.135-0.137-0.135-0.357,0-0.494
		c0.137-0.134,0.358-0.134,0.493,0l1.047,1.049c0.139,0.134,0.139,0.354,0,0.494C10.765,49.285,10.676,49.319,10.587,49.319z"/>
	<path fill="#D4E1F4" d="M13.033,51.764c-0.09,0-0.179-0.035-0.249-0.104l-1.046-1.047c-0.136-0.137-0.136-0.356,0-0.494
		c0.135-0.137,0.356-0.137,0.493,0l1.047,1.045c0.137,0.141,0.137,0.361,0,0.496C13.211,51.729,13.122,51.764,13.033,51.764z"/>
	<path fill="#D4E1F4" d="M9.54,51.764c-0.088,0-0.178-0.035-0.247-0.104c-0.135-0.135-0.135-0.355,0-0.496l1.048-1.045
		c0.137-0.137,0.357-0.137,0.492,0c0.139,0.138,0.139,0.357,0,0.494L9.786,51.66C9.72,51.729,9.631,51.764,9.54,51.764z"/>
	<path fill="#D4E1F4" d="M11.984,49.319c-0.088,0-0.178-0.035-0.246-0.102c-0.136-0.139-0.136-0.359,0-0.494l1.046-1.049
		c0.138-0.134,0.359-0.134,0.494,0c0.137,0.137,0.137,0.357,0,0.494l-1.047,1.049C12.164,49.285,12.074,49.319,11.984,49.319z"/>
	<path fill="#D4E1F4" d="M36.31,19.026c-0.105,0-0.208-0.039-0.286-0.119l-1.216-1.215c-0.157-0.159-0.157-0.413,0-0.574
		c0.158-0.157,0.415-0.157,0.574,0l1.214,1.214c0.161,0.161,0.161,0.416,0,0.575C36.516,18.987,36.412,19.026,36.31,19.026z"/>
	<path fill="#D4E1F4" d="M39.145,21.861c-0.104,0-0.21-0.039-0.286-0.119l-1.216-1.215c-0.159-0.158-0.159-0.413,0-0.574
		c0.159-0.158,0.414-0.158,0.572,0l1.215,1.216c0.158,0.159,0.158,0.416,0,0.573C39.351,21.823,39.248,21.861,39.145,21.861z"/>
	<path fill="#D4E1F4" d="M35.094,21.861c-0.104,0-0.206-0.039-0.286-0.119c-0.157-0.157-0.157-0.414,0-0.573l1.216-1.216
		c0.158-0.158,0.411-0.158,0.572,0c0.161,0.161,0.161,0.416,0,0.574l-1.214,1.215C35.304,21.823,35.2,21.861,35.094,21.861z"/>
	<path fill="#D4E1F4" d="M37.928,19.026c-0.104,0-0.206-0.039-0.285-0.119c-0.159-0.159-0.159-0.414,0-0.575l1.216-1.214
		c0.159-0.157,0.413-0.157,0.572,0c0.158,0.161,0.158,0.415,0,0.574l-1.215,1.215C38.14,18.987,38.035,19.026,37.928,19.026z"/>
	<path fill="#D4E1F4" d="M66.587,23.103c-0.104,0-0.205-0.041-0.285-0.12l-1.218-1.214c-0.156-0.159-0.156-0.415,0-0.572
		c0.16-0.16,0.415-0.16,0.574,0l1.214,1.214c0.16,0.161,0.16,0.416,0,0.573C66.794,23.063,66.688,23.103,66.587,23.103z"/>
	<path fill="#D4E1F4" d="M69.421,25.938c-0.104,0-0.207-0.041-0.286-0.119l-1.214-1.215c-0.158-0.159-0.158-0.414,0-0.573
		c0.155-0.158,0.41-0.158,0.569,0l1.219,1.214c0.158,0.158,0.158,0.416,0,0.574C69.631,25.898,69.525,25.938,69.421,25.938z"/>
	<path fill="#D4E1F4" d="M65.37,25.938c-0.102,0-0.208-0.041-0.286-0.119c-0.156-0.159-0.156-0.416,0-0.574l1.218-1.214
		c0.157-0.158,0.412-0.158,0.57,0c0.16,0.159,0.16,0.414,0,0.573l-1.214,1.215C65.578,25.898,65.475,25.938,65.37,25.938z"/>
	<path fill="#D4E1F4" d="M68.208,23.103c-0.103,0-0.209-0.041-0.287-0.12c-0.158-0.157-0.158-0.412,0-0.573l1.214-1.214
		c0.157-0.16,0.413-0.16,0.574,0c0.158,0.157,0.158,0.414,0,0.572l-1.219,1.214C68.415,23.063,68.309,23.103,68.208,23.103z"/>
	<path fill="none" d="M66.041,68.918c0-1.795-1.48-3.258-3.299-3.258s-3.298,1.463-3.298,3.258c0,0.305,0.057,0.594,0.136,0.873
		h6.325C65.984,69.512,66.041,69.223,66.041,68.918z"/>
	<path fill="none" d="M62.742,63.916c2.48,0,4.542,1.787,4.961,4.131h10.489V33.508H20.614V68.16h37.151
		C58.134,65.762,60.222,63.916,62.742,63.916z"/>
	<g>
		<path fill="#FFFFFF" d="M75.755,42.526H17.049v38.747c0,1.131,0.917,2.048,2.048,2.048h54.61c1.13,0,2.047-0.917,2.047-2.048
			V42.526z"/>
		<path fill="#FF5067" d="M51.975,55.734H40.829c-0.565,0-1.024-0.459-1.024-1.024v-5.868c0-0.565,0.459-1.023,1.024-1.023h11.146
			c0.565,0,1.024,0.458,1.024,1.023v5.868C52.999,55.275,52.54,55.734,51.975,55.734"/>
		<path fill="#34234D" d="M51.975,55.99H40.829c-0.706,0-1.279-0.574-1.279-1.28v-5.868c0-0.705,0.574-1.28,1.279-1.28h11.146
			c0.707,0,1.28,0.575,1.28,1.28v5.868C53.255,55.416,52.682,55.99,51.975,55.99z M40.829,48.075c-0.423,0-0.768,0.344-0.768,0.768
			v5.868c0,0.424,0.345,0.768,0.768,0.768h11.146c0.424,0,0.769-0.344,0.769-0.768v-5.868c0-0.423-0.345-0.768-0.769-0.768H40.829z"
			/>
		<path fill="#FF5067" d="M34.574,76.32h-9.138c-0.565,0-1.024-0.459-1.024-1.024v-5.867c0-0.565,0.458-1.024,1.024-1.024h9.138
			c0.565,0,1.024,0.459,1.024,1.024v5.867C35.598,75.861,35.139,76.32,34.574,76.32"/>
		<path fill="#34234D" d="M34.574,76.576h-9.138c-0.706,0-1.279-0.574-1.279-1.28v-5.867c0-0.706,0.573-1.279,1.279-1.279h9.138
			c0.706,0,1.28,0.573,1.28,1.279v5.867C35.854,76.002,35.28,76.576,34.574,76.576z M25.436,68.661
			c-0.423,0-0.768,0.345-0.768,0.768v5.867c0,0.424,0.345,0.769,0.768,0.769h9.138c0.424,0,0.768-0.345,0.768-0.769v-5.867
			c0-0.423-0.344-0.768-0.768-0.768H25.436z"/>
		<path fill="#FF5067" d="M50.971,76.32h-9.138c-0.565,0-1.024-0.459-1.024-1.024v-5.867c0-0.565,0.458-1.024,1.024-1.024h9.138
			c0.566,0,1.024,0.459,1.024,1.024v5.867C51.995,75.861,51.537,76.32,50.971,76.32"/>
		<path fill="#34234D" d="M50.971,76.576h-9.138c-0.705,0-1.279-0.574-1.279-1.28v-5.867c0-0.706,0.574-1.279,1.279-1.279h9.138
			c0.707,0,1.28,0.573,1.28,1.279v5.867C52.251,76.002,51.678,76.576,50.971,76.576z M41.833,68.661
			c-0.423,0-0.768,0.345-0.768,0.768v5.867c0,0.424,0.345,0.769,0.768,0.769h9.138c0.425,0,0.769-0.345,0.769-0.769v-5.867
			c0-0.423-0.344-0.768-0.769-0.768H41.833z"/>
		<path fill="#FF5067" d="M67.368,76.32H58.23c-0.565,0-1.023-0.459-1.023-1.024v-5.867c0-0.565,0.458-1.024,1.023-1.024h9.138
			c0.565,0,1.024,0.459,1.024,1.024v5.867C68.393,75.861,67.934,76.32,67.368,76.32"/>
		<path fill="#34234D" d="M67.368,76.576H58.23c-0.706,0-1.279-0.574-1.279-1.28v-5.867c0-0.706,0.573-1.279,1.279-1.279h9.138
			c0.707,0,1.279,0.573,1.279,1.279v5.867C68.647,76.002,68.075,76.576,67.368,76.576z M58.23,68.661
			c-0.424,0-0.768,0.345-0.768,0.768v5.867c0,0.424,0.344,0.769,0.768,0.769h9.138c0.424,0,0.769-0.345,0.769-0.769v-5.867
			c0-0.423-0.345-0.768-0.769-0.768H58.23z"/>
		<path fill="#34234D" d="M63.055,68.404h-0.511v-4.831c0-0.54-0.439-0.979-0.979-0.979H31.239c-0.54,0-0.978,0.438-0.978,0.979
			v4.831h-0.513v-4.831c0-0.821,0.669-1.489,1.49-1.489h30.327c0.821,0,1.489,0.668,1.489,1.489V68.404z"/>
		<rect x="46.146" y="55.734" fill="#34234D" width="0.513" height="12.67"/>
		<path fill="#FFFFFF" d="M73.708,81.785h-54.61c-1.131,0-2.048-0.917-2.048-2.049v1.536c0,1.132,0.917,2.048,2.048,2.048h54.61
			c1.13,0,2.047-0.916,2.047-2.048v-1.536C75.755,80.868,74.838,81.785,73.708,81.785"/>
		<path fill="#34234D" d="M73.707,83.833H19.098c-1.412,0-2.561-1.149-2.561-2.56V56.777h1.024v24.496
			c0,0.847,0.689,1.535,1.537,1.535h54.609c0.847,0,1.536-0.688,1.536-1.535V42.527h1.023v38.747
			C76.267,82.684,75.118,83.833,73.707,83.833z"/>
		<path fill="#00B5F4" d="M41.337,33.551l-1.32-1.907c-0.61-0.882-1.616-1.409-2.689-1.409H19.098c-1.131,0-2.048,0.917-2.048,2.048
			v10.245h58.706v-5.52c0-1.131-0.917-2.047-2.047-2.047H44.026C42.954,34.96,41.948,34.433,41.337,33.551"/>
		<path fill="#34234D" d="M76.268,43.039h-59.73V32.282c0-1.412,1.149-2.56,2.561-2.56h18.229c1.241,0,2.404,0.609,3.111,1.63
			l1.32,1.907c0.516,0.744,1.364,1.188,2.269,1.188h29.682c1.411,0,2.56,1.148,2.56,2.56V43.039z M17.561,42.015h57.682v-5.008
			c0-0.846-0.689-1.535-1.535-1.535H44.026c-1.241,0-2.403-0.609-3.111-1.63l-1.32-1.907c-0.515-0.745-1.363-1.188-2.269-1.188
			H19.098c-0.847,0-1.537,0.688-1.537,1.536V42.015z"/>
		<path fill="#FFFFFF" d="M32.194,34.657c0,0.771,0.625,1.396,1.396,1.396c0.771,0,1.396-0.625,1.396-1.396
			s-0.625-1.396-1.396-1.396C32.819,33.261,32.194,33.886,32.194,34.657"/>
		<path fill="#D4FBFF" d="M27.122,34.657c0,0.771,0.625,1.396,1.396,1.396c0.771,0,1.396-0.625,1.396-1.396
			s-0.626-1.396-1.396-1.396C27.747,33.261,27.122,33.886,27.122,34.657"/>
		<path fill="#F2F2F2" d="M22.05,34.657c0,0.771,0.625,1.396,1.396,1.396c0.771,0,1.396-0.625,1.396-1.396s-0.625-1.396-1.396-1.396
			C22.675,33.261,22.05,33.886,22.05,34.657"/>
		<path fill="#6DC9F7" d="M70.755,40.032H22.761c-0.424,0-0.768-0.344-0.768-0.768c0-0.424,0.344-0.769,0.768-0.769h47.994
			c0.424,0,0.768,0.344,0.768,0.769C71.522,39.688,71.179,40.032,70.755,40.032z"/>
	</g>
</g>
<g id="Layer_2">
</g>
</svg>
