<?xml version="1.0" encoding="utf-8"?>
<!-- Generator: Adobe Illustrator 16.0.3, SVG Export Plug-In . SVG Version: 6.00 Build 0)  -->
<!DOCTYPE svg PUBLIC "-//W3C//DTD SVG 1.1//EN" "http://www.w3.org/Graphics/SVG/1.1/DTD/svg11.dtd">
<svg version="1.1" xmlns="http://www.w3.org/2000/svg" xmlns:xlink="http://www.w3.org/1999/xlink" x="0px" y="0px" width="100px"
	 height="100px" viewBox="0 0 100 100" enable-background="new 0 0 100 100" xml:space="preserve">
<g id="Layer_1">
	<path fill="#FFFFFF" d="M81.985,37.087c-2.266-6.197,0.239-16.114-4.851-20.369c-4.933-4.125-14.346-0.621-21.164-1.831
		c-6.819-1.21-14.162-7.686-20.24-5.514c-6.27,2.241-7.408,12.4-11.714,17.431C19.844,31.683,9.83,34.401,8.608,41.14
		c-1.224,6.739,7.208,12.729,9.407,18.737c2.266,6.196-0.24,16.114,4.851,20.369c4.933,4.125,14.313,0.099,21.131,1.308
		c6.817,1.21,14.195,8.209,20.271,6.035c6.271-2.239,7.41-12.399,11.714-17.431c4.175-4.877,14.188-7.595,15.411-14.335
		C92.615,49.085,84.184,43.094,81.985,37.087z"/>
	<rect x="17.877" y="30.677" fill="#FFFFFF" width="50.409" height="57.328"/>
	<path fill="#D4E1F4" d="M92.007,88.5H7.993c-0.273,0-0.494-0.221-0.494-0.495c0-0.273,0.221-0.494,0.494-0.494h84.014
		c0.273,0,0.494,0.221,0.494,0.494C92.501,88.279,92.28,88.5,92.007,88.5z"/>
	<path fill="#34234D" d="M68.286,88.5c-0.274,0-0.494-0.221-0.494-0.495V40.067c0-0.273,0.22-0.495,0.494-0.495
		c0.272,0,0.494,0.222,0.494,0.495v47.938C68.78,88.279,68.559,88.5,68.286,88.5z"/>
	<path fill="#34234D" d="M17.877,63.788c-0.274,0-0.495-0.221-0.495-0.492V30.677c0-0.273,0.221-0.494,0.495-0.494h50.409
		c0.272,0,0.494,0.221,0.494,0.494v5.93c0,0.273-0.222,0.495-0.494,0.495c-0.274,0-0.494-0.222-0.494-0.495v-5.437H18.37v32.125
		C18.37,63.567,18.149,63.788,17.877,63.788z"/>
	<path fill="#34234D" d="M50.494,88.5H17.877c-0.274,0-0.495-0.221-0.495-0.495V66.261c0-0.274,0.221-0.495,0.495-0.495
		c0.271,0,0.493,0.221,0.493,0.495v21.25h32.124c0.273,0,0.495,0.221,0.495,0.494C50.989,88.279,50.767,88.5,50.494,88.5z"/>
	<path fill="#34234D" d="M68.286,88.5h-12.85c-0.273,0-0.494-0.221-0.494-0.495c0-0.273,0.221-0.494,0.494-0.494h12.85
		c0.272,0,0.494,0.221,0.494,0.494C68.78,88.279,68.559,88.5,68.286,88.5z"/>
	<rect x="17.877" y="23.758" fill="#00B5F4" width="50.409" height="6.919"/>
	<polygon fill="#2FC8F2" points="66.803,23.758 50.632,23.758 48.53,30.677 64.7,30.677 	"/>
	<polygon fill="#2FC8F2" points="38.507,23.758 36.444,30.677 41.199,30.677 43.301,23.758 	"/>
	<path fill="#34234D" d="M68.286,31.171H17.877c-0.274,0-0.495-0.221-0.495-0.494v-6.919c0-0.273,0.221-0.494,0.495-0.494h50.409
		c0.272,0,0.494,0.221,0.494,0.494v6.919C68.78,30.95,68.559,31.171,68.286,31.171z M18.37,30.183h49.422v-5.93H18.37V30.183z"/>
	<circle fill="#FFFFFF" cx="21.336" cy="27.218" r="0.989"/>
	<circle fill="#FFFFFF" cx="25.29" cy="27.218" r="0.988"/>
	<circle fill="#FFFFFF" cx="29.243" cy="27.218" r="0.989"/>
	<path fill="#F2F2F2" d="M62.85,44.515H23.313c-0.544,0-0.988-0.443-0.988-0.989v-7.413c0-0.546,0.443-0.988,0.988-0.988H62.85
		c0.546,0,0.988,0.442,0.988,0.988v7.413C63.838,44.072,63.396,44.515,62.85,44.515z"/>
	<path fill="#F2F2F2" d="M62.85,83.557H23.313c-0.544,0-0.988-0.442-0.988-0.988v-2.47c0-0.547,0.443-0.989,0.988-0.989H62.85
		c0.546,0,0.988,0.442,0.988,0.989v2.47C63.838,83.114,63.396,83.557,62.85,83.557z"/>
	<path fill="#F2F2F2" d="M31.22,74.661h-7.907c-0.544,0-0.988-0.442-0.988-0.988V49.952c0-0.546,0.443-0.988,0.988-0.988h7.907
		c0.546,0,0.988,0.442,0.988,0.988v23.721C32.208,74.219,31.766,74.661,31.22,74.661z"/>
	<path fill="#F2F2F2" d="M62.85,74.661H37.646c-0.547,0-0.989-0.442-0.989-0.988V49.952c0-0.546,0.442-0.988,0.989-0.988H62.85
		c0.546,0,0.988,0.442,0.988,0.988v23.721C63.838,74.219,63.396,74.661,62.85,74.661z"/>
	<path fill="#E5E5E5" d="M62.85,45.009H23.313c-0.817,0-1.482-0.665-1.482-1.482v-7.413c0-0.817,0.665-1.482,1.482-1.482H62.85
		c0.817,0,1.482,0.665,1.482,1.482v7.413C64.332,44.344,63.667,45.009,62.85,45.009z M23.313,35.62
		c-0.273,0-0.494,0.222-0.494,0.494v7.413c0,0.273,0.221,0.495,0.494,0.495H62.85c0.271,0,0.494-0.222,0.494-0.495v-7.413
		c0-0.272-0.223-0.494-0.494-0.494H23.313z"/>
	<path fill="#E5E5E5" d="M62.85,84.052H23.313c-0.817,0-1.482-0.664-1.482-1.483v-2.47c0-0.817,0.665-1.483,1.482-1.483H62.85
		c0.817,0,1.482,0.666,1.482,1.483v2.47C64.332,83.388,63.667,84.052,62.85,84.052z M23.313,79.604
		c-0.273,0-0.494,0.222-0.494,0.495v2.47c0,0.273,0.221,0.495,0.494,0.495H62.85c0.271,0,0.494-0.222,0.494-0.495v-2.47
		c0-0.273-0.223-0.495-0.494-0.495H23.313z"/>
	<path fill="#E5E5E5" d="M31.22,75.156h-7.907c-0.817,0-1.482-0.666-1.482-1.483V49.952c0-0.817,0.665-1.483,1.482-1.483h7.907
		c0.818,0,1.483,0.666,1.483,1.483v23.721C32.703,74.49,32.038,75.156,31.22,75.156z M23.313,49.457
		c-0.273,0-0.494,0.222-0.494,0.495v23.721c0,0.273,0.221,0.494,0.494,0.494h7.907c0.273,0,0.494-0.221,0.494-0.494V49.952
		c0-0.273-0.221-0.495-0.494-0.495H23.313z"/>
	<path fill="#E5E5E5" d="M62.85,75.156H37.646c-0.817,0-1.483-0.666-1.483-1.483V49.952c0-0.817,0.666-1.483,1.483-1.483H62.85
		c0.817,0,1.482,0.666,1.482,1.483v23.721C64.332,74.49,63.667,75.156,62.85,75.156z M37.646,49.457
		c-0.273,0-0.495,0.222-0.495,0.495v23.721c0,0.273,0.222,0.494,0.495,0.494H62.85c0.271,0,0.494-0.221,0.494-0.494V49.952
		c0-0.273-0.223-0.495-0.494-0.495H37.646z"/>
	<path fill="#FF5067" d="M78.17,88.005H55.437c-2.184,0-3.953-1.77-3.953-3.953V43.526c0-2.184,1.77-3.954,3.953-3.954H78.17
		c2.184,0,3.952,1.77,3.952,3.954v40.525C82.122,86.235,80.354,88.005,78.17,88.005z"/>
	<path fill="#FF6E86" d="M82.122,43.526c0-2.184-1.769-3.954-3.952-3.954h-5.875L57.577,88.005h13.661l10.884-35.82V43.526z"/>
	<path fill="#FF6E86" d="M62.086,39.573L51.483,75.146v8.906c0,0.707,0.188,1.368,0.513,1.942l14.105-46.421H62.086z"/>
	<path fill="#FFFFFF" d="M78.17,82.074H55.437c-2.184,0-3.953-1.77-3.953-3.953V49.457c0-2.184,1.77-3.954,3.953-3.954H78.17
		c2.184,0,3.952,1.77,3.952,3.954v28.664C82.122,80.305,80.354,82.074,78.17,82.074z"/>
	<path fill="#EDEDED" d="M82.122,49.457c0-2.184-1.769-3.954-3.952-3.954h-7.678L59.38,82.074h13.661l9.081-29.89V49.457z"/>
	<path fill="#EDEDED" d="M60.317,45.503l-8.834,29.642v2.976c0,1.424,0.754,2.667,1.883,3.363L64.3,45.503H60.317z"/>
	<path fill="#34234D" d="M78.17,82.568H55.437c-2.453,0-4.447-1.994-4.447-4.447V49.457c0-2.452,1.994-4.448,4.447-4.448H78.17
		c2.452,0,4.448,1.996,4.448,4.448v28.664C82.618,80.574,80.622,82.568,78.17,82.568z M55.437,45.998
		c-1.908,0-3.461,1.552-3.461,3.459v28.664c0,1.907,1.553,3.459,3.461,3.459H78.17c1.907,0,3.46-1.552,3.46-3.459V49.457
		c0-1.908-1.553-3.459-3.46-3.459H55.437z"/>
	<path fill="#34234D" d="M78.17,88.5H55.437c-2.453,0-4.447-1.996-4.447-4.448V43.526c0-2.452,1.994-4.448,4.447-4.448H78.17
		c2.452,0,4.448,1.996,4.448,4.448v40.525C82.618,86.504,80.622,88.5,78.17,88.5z M55.437,40.067c-1.908,0-3.461,1.552-3.461,3.459
		v40.525c0,1.908,1.553,3.459,3.461,3.459H78.17c1.907,0,3.46-1.551,3.46-3.459V43.526c0-1.907-1.553-3.459-3.46-3.459H55.437z"/>
	<circle fill="#FFFFFF" cx="66.804" cy="85.04" r="0.988"/>
	<circle fill="#FFFFFF" cx="74.71" cy="85.04" r="0.988"/>
	<circle fill="#FFFFFF" cx="73.722" cy="42.539" r="0.988"/>
	<circle fill="#FFFFFF" cx="58.896" cy="85.04" r="0.989"/>
	<path fill="#FFFFFF" d="M70.262,43.279h-6.918c-0.409,0-0.741-0.332-0.741-0.741c0-0.41,0.332-0.742,0.741-0.742h6.918
		c0.41,0,0.742,0.332,0.742,0.742C71.004,42.948,70.672,43.279,70.262,43.279z"/>
	<path fill="#F2F2F2" d="M78.17,54.895H55.437c-0.273,0-0.494-0.222-0.494-0.496v-4.941c0-0.273,0.221-0.493,0.494-0.493H78.17
		c0.272,0,0.493,0.22,0.493,0.493v4.941C78.663,54.673,78.442,54.895,78.17,54.895z"/>
	<path fill="#D4E1F4" d="M78.17,78.615H55.437c-0.273,0-0.494-0.221-0.494-0.494V75.65c0-0.274,0.221-0.494,0.494-0.494H78.17
		c0.272,0,0.493,0.22,0.493,0.494v2.471C78.663,78.395,78.442,78.615,78.17,78.615z"/>
	<path fill="#F2F2F2" d="M60.873,71.695h-5.437c-0.273,0-0.494-0.219-0.494-0.493V58.848c0-0.274,0.221-0.494,0.494-0.494h5.437
		c0.272,0,0.493,0.22,0.493,0.494v12.354C61.366,71.477,61.146,71.695,60.873,71.695z"/>
	<path fill="#F2F2F2" d="M78.17,71.695H65.815c-0.273,0-0.496-0.219-0.496-0.493V58.848c0-0.274,0.223-0.494,0.496-0.494H78.17
		c0.272,0,0.493,0.22,0.493,0.494v12.354C78.663,71.477,78.442,71.695,78.17,71.695z"/>
	<path fill="#E5E5E5" d="M78.17,55.387H55.437c-0.545,0-0.988-0.442-0.988-0.988v-4.941c0-0.545,0.443-0.988,0.988-0.988H78.17
		c0.546,0,0.987,0.443,0.987,0.988v4.941C79.157,54.944,78.716,55.387,78.17,55.387z M55.437,49.457v4.941H78.17v-4.941H55.437z"/>
	<path fill="#F2F2F2" d="M78.17,79.109H55.437c-0.545,0-0.988-0.443-0.988-0.988V75.65c0-0.546,0.443-0.989,0.988-0.989H78.17
		c0.546,0,0.987,0.443,0.987,0.989v2.471C79.157,78.666,78.716,79.109,78.17,79.109z M55.437,75.65v2.471H78.17V75.65H55.437z"/>
	<path fill="#E5E5E5" d="M60.873,72.191h-5.437c-0.545,0-0.988-0.443-0.988-0.989V58.848c0-0.546,0.443-0.989,0.988-0.989h5.437
		c0.544,0,0.987,0.443,0.987,0.989v12.354C61.86,71.748,61.417,72.191,60.873,72.191z M55.437,58.848v12.354h5.437V58.848H55.437z"
		/>
	<path fill="#E5E5E5" d="M78.17,72.191H65.815c-0.546,0-0.988-0.443-0.988-0.989V58.848c0-0.546,0.442-0.989,0.988-0.989H78.17
		c0.546,0,0.987,0.443,0.987,0.989v12.354C79.157,71.748,78.716,72.191,78.17,72.191z M65.815,58.848v12.354H78.17V58.848H65.815z"
		/>
	<path fill="#D4E1F4" d="M88.548,38.593c-0.126,0-0.253-0.049-0.349-0.146l-1.483-1.482c-0.192-0.193-0.192-0.506,0-0.698
		c0.193-0.194,0.506-0.194,0.699,0l1.481,1.482c0.193,0.192,0.193,0.505,0,0.698C88.801,38.544,88.675,38.593,88.548,38.593z"/>
	<path fill="#D4E1F4" d="M92.007,42.052c-0.126,0-0.253-0.048-0.349-0.145l-1.483-1.482c-0.192-0.193-0.192-0.506,0-0.699
		c0.193-0.193,0.506-0.193,0.699,0l1.483,1.482c0.191,0.193,0.191,0.506,0,0.699C92.26,42.004,92.134,42.052,92.007,42.052z"/>
	<path fill="#D4E1F4" d="M87.064,42.052c-0.126,0-0.253-0.048-0.349-0.145c-0.192-0.193-0.192-0.506,0-0.699l1.483-1.482
		c0.193-0.193,0.505-0.193,0.697,0c0.193,0.193,0.193,0.506,0,0.699l-1.481,1.482C87.318,42.004,87.192,42.052,87.064,42.052z"/>
	<path fill="#D4E1F4" d="M90.525,38.593c-0.127,0-0.253-0.049-0.351-0.146c-0.192-0.193-0.192-0.506,0-0.698l1.483-1.482
		c0.193-0.194,0.506-0.194,0.699,0c0.191,0.192,0.191,0.505,0,0.698l-1.483,1.482C90.777,38.544,90.651,38.593,90.525,38.593z"/>
	<path fill="#D4E1F4" d="M88.548,72.191c-0.126,0-0.253-0.05-0.349-0.146l-1.483-1.483c-0.192-0.192-0.192-0.506,0-0.697
		c0.193-0.193,0.506-0.193,0.699,0l1.481,1.481c0.193,0.193,0.193,0.506,0,0.699C88.801,72.142,88.675,72.191,88.548,72.191z"/>
	<path fill="#D4E1F4" d="M92.007,75.65c-0.126,0-0.253-0.048-0.349-0.146l-1.483-1.483c-0.192-0.191-0.192-0.504,0-0.697
		c0.193-0.193,0.506-0.193,0.699,0l1.483,1.481c0.191,0.193,0.191,0.506,0,0.699C92.26,75.603,92.134,75.65,92.007,75.65z"/>
	<path fill="#D4E1F4" d="M87.064,75.65c-0.126,0-0.253-0.048-0.349-0.146c-0.192-0.193-0.192-0.506,0-0.699l1.483-1.481
		c0.193-0.193,0.505-0.193,0.697,0c0.193,0.193,0.193,0.506,0,0.697l-1.481,1.483C87.318,75.603,87.192,75.65,87.064,75.65z"/>
	<path fill="#D4E1F4" d="M90.525,72.191c-0.127,0-0.253-0.05-0.351-0.146c-0.192-0.193-0.192-0.506,0-0.699l1.483-1.481
		c0.193-0.193,0.506-0.193,0.699,0c0.191,0.191,0.191,0.505,0,0.697l-1.483,1.483C90.777,72.142,90.651,72.191,90.525,72.191z"/>
	<path fill="#D4E1F4" d="M37.892,10.909c-0.126,0-0.253-0.049-0.349-0.145L36.06,9.281c-0.193-0.193-0.193-0.505,0-0.699
		c0.193-0.192,0.506-0.192,0.699,0l1.482,1.482c0.194,0.194,0.194,0.506,0,0.699C38.145,10.86,38.018,10.909,37.892,10.909z"/>
	<path fill="#D4E1F4" d="M41.352,14.368c-0.126,0-0.254-0.048-0.35-0.145l-1.483-1.482c-0.193-0.193-0.193-0.506,0-0.699
		c0.194-0.193,0.507-0.193,0.699,0l1.483,1.483c0.193,0.193,0.193,0.506,0,0.699C41.604,14.32,41.478,14.368,41.352,14.368z"/>
	<path fill="#D4E1F4" d="M36.41,14.368c-0.127,0-0.254-0.048-0.35-0.145c-0.193-0.193-0.193-0.506,0-0.699l1.483-1.483
		c0.193-0.193,0.504-0.193,0.698,0c0.194,0.193,0.194,0.506,0,0.699l-1.482,1.482C36.663,14.32,36.537,14.368,36.41,14.368z"/>
	<path fill="#D4E1F4" d="M39.869,10.909c-0.126,0-0.253-0.049-0.35-0.145c-0.193-0.193-0.193-0.505,0-0.699l1.483-1.482
		c0.193-0.192,0.506-0.192,0.699,0c0.193,0.194,0.193,0.506,0,0.699l-1.483,1.483C40.122,10.86,39.996,10.909,39.869,10.909z"/>
	<path fill="#D4E1F4" d="M9.475,57.134c-0.126,0-0.251-0.05-0.349-0.146l-1.483-1.481c-0.192-0.194-0.192-0.506,0-0.7
		c0.193-0.192,0.506-0.192,0.699,0l1.483,1.483c0.193,0.192,0.193,0.506,0,0.698C9.728,57.084,9.601,57.134,9.475,57.134z"/>
	<path fill="#D4E1F4" d="M12.935,60.593c-0.128,0-0.253-0.049-0.35-0.146l-1.482-1.481c-0.193-0.193-0.193-0.506,0-0.7
		c0.193-0.192,0.504-0.192,0.698,0l1.483,1.483c0.193,0.192,0.193,0.506,0,0.698C13.188,60.544,13.062,60.593,12.935,60.593z"/>
	<path fill="#D4E1F4" d="M7.993,60.593c-0.126,0-0.253-0.049-0.35-0.146c-0.192-0.192-0.192-0.506,0-0.698l1.483-1.483
		c0.193-0.192,0.506-0.192,0.699,0c0.193,0.194,0.193,0.507,0,0.7l-1.483,1.481C8.246,60.544,8.119,60.593,7.993,60.593z"/>
	<path fill="#D4E1F4" d="M11.452,57.134c-0.126,0-0.253-0.05-0.349-0.146c-0.193-0.192-0.193-0.506,0-0.698l1.482-1.483
		c0.193-0.192,0.506-0.192,0.699,0c0.193,0.194,0.193,0.506,0,0.7l-1.483,1.481C11.705,57.084,11.578,57.134,11.452,57.134z"/>
	<path fill="#D4E1F4" d="M73.299,20.482c-0.125,0-0.251-0.048-0.349-0.146l-1.483-1.482c-0.193-0.192-0.193-0.505,0-0.698
		s0.506-0.193,0.7,0l1.482,1.482c0.192,0.193,0.192,0.506,0,0.698C73.552,20.434,73.426,20.482,73.299,20.482z"/>
	<path fill="#D4E1F4" d="M76.758,23.942c-0.125,0-0.251-0.048-0.349-0.145l-1.481-1.482c-0.193-0.193-0.193-0.506,0-0.699
		c0.191-0.193,0.504-0.193,0.698,0l1.482,1.482c0.193,0.193,0.193,0.506,0,0.699C77.013,23.894,76.886,23.942,76.758,23.942z"/>
	<path fill="#D4E1F4" d="M71.817,23.942c-0.127,0-0.253-0.048-0.351-0.145c-0.193-0.193-0.193-0.506,0-0.699l1.483-1.482
		c0.193-0.193,0.506-0.193,0.699,0c0.192,0.193,0.192,0.506,0,0.699l-1.482,1.482C72.07,23.894,71.943,23.942,71.817,23.942z"/>
	<path fill="#D4E1F4" d="M75.276,20.482c-0.127,0-0.253-0.048-0.349-0.146c-0.193-0.192-0.193-0.505,0-0.698l1.481-1.482
		c0.193-0.193,0.506-0.193,0.699,0s0.193,0.506,0,0.698l-1.482,1.482C75.529,20.434,75.402,20.482,75.276,20.482z"/>
</g>
<g id="Layer_2">
</g>
</svg>
