<?xml version="1.0" encoding="utf-8"?>
<!-- Generator: Adobe Illustrator 24.1.1, SVG Export Plug-In . SVG Version: 6.00 Build 0)  -->
<svg version="1.1" xmlns="http://www.w3.org/2000/svg" xmlns:xlink="http://www.w3.org/1999/xlink" x="0px" y="0px"
	 viewBox="0 0 159.2 80" style="enable-background:new 0 0 159.2 80;" xml:space="preserve">
<style type="text/css">
	.st0{fill:#E50000;}
	.st1{fill:#FFFFFF;}
	.st2{fill:#C09300;}
	.st3{fill:#0A0707;}
</style>
<g id="Layer_1">
	<rect y="0.3" class="st0" width="159.2" height="26.7"/>
	<rect y="27" class="st1" width="159.2" height="26.7"/>
	<g>
		<g>
			<path class="st1" d="M81.3,40.7l8.9,8.3l-0.6-15c-0.1-2.3-2.1-1.8-3.5-0.9c-1.5,0.9-3.1,0.9-4.9,0.3c-1.8,0.6-3.4,0.6-4.9-0.3
				c-1.4-0.8-3.4-1.3-3.5,0.9l-0.6,15L81.3,40.7L81.3,40.7z"/>
			<path class="st2" d="M90.2,49C90.2,49,90.2,49,90.2,49l-8.9-8.2l-9,8.2c0,0-0.1,0-0.1,0c0,0,0,0,0-0.1l0.6-15
				c0.1-1.4,0.8-1.7,1.5-1.7c0.8,0,1.7,0.4,2.2,0.7c0.8,0.5,1.6,0.7,2.5,0.7c0.7,0,1.5-0.1,2.3-0.4c0,0,0,0,0.1,0
				c0.8,0.3,1.6,0.4,2.3,0.4c0.9,0,1.8-0.2,2.5-0.7c0.5-0.3,1.4-0.7,2.2-0.7c0.6,0,1.4,0.3,1.5,1.7L90.2,49
				C90.3,48.9,90.3,49,90.2,49C90.3,49,90.2,49,90.2,49z M74.3,32.4c-0.8,0-1.3,0.5-1.3,1.6l-0.6,14.8l9-8.1c0,0,0.1,0,0.1,0
				l8.7,8.1l-0.6-14.8c0-1-0.5-1.6-1.3-1.6c-0.6,0-1.3,0.2-2.1,0.7c-0.8,0.5-1.7,0.8-2.6,0.8c-0.7,0-1.5-0.1-2.3-0.4
				c-0.8,0.3-1.6,0.4-2.3,0.4c-1,0-1.8-0.3-2.6-0.8C75.6,32.6,74.8,32.4,74.3,32.4z"/>
		</g>
		<g id="w_3_">
			<g>
				<path class="st2" d="M73.9,33.4L73.3,48l-1,0.9l0.6-15C73.2,33.7,73.7,33.4,73.9,33.4L73.9,33.4z"/>
			</g>
			<g>
				<path class="st2" d="M75.1,34.4l-0.5,12.2l-1,1.1l0.6-14.1C74.4,33.8,75,34.3,75.1,34.4L75.1,34.4z"/>
			</g>
			<g>
				<path class="st2" d="M76.3,35.4l-0.4,10.2L75,46.4l0.5-11.6C75.8,35,76.2,35.3,76.3,35.4L76.3,35.4z"/>
			</g>
			<g>
				<path class="st2" d="M77.5,35.9l-0.4,8.7l-0.8,0.7l0.4-9.7C76.9,35.7,77.3,35.9,77.5,35.9L77.5,35.9z"/>
			</g>
			<g>
				<path class="st2" d="M78.6,35.9l-0.3,7.2l-0.8,0.8l0.3-8C78,36,78.5,36,78.6,35.9L78.6,35.9z"/>
			</g>
		</g>
		<g transform="matrix(-1,0,0,1,900,0)">
			<g id="w_2_">
				<g>
					<path class="st2" d="M88.6,33.4L89.2,48l1,0.9l-0.6-15C89.3,33.7,88.8,33.4,88.6,33.4L88.6,33.4z"/>
				</g>
				<g>
					<path class="st2" d="M87.3,34.4l0.5,12.2l1,1.1l-0.6-14.1C88,33.8,87.4,34.3,87.3,34.4L87.3,34.4z"/>
				</g>
				<g>
					<path class="st2" d="M86.2,35.4l0.4,10.2l0.8,0.8l-0.5-11.6C86.7,35,86.3,35.3,86.2,35.4L86.2,35.4z"/>
				</g>
				<g>
					<path class="st2" d="M85,35.9l0.4,8.7l0.8,0.7l-0.4-9.7C85.6,35.7,85.2,35.9,85,35.9L85,35.9z"/>
				</g>
				<g>
					<path class="st2" d="M83.8,35.9l0.3,7.2l0.8,0.8l-0.3-8C84.4,36,83.9,36,83.8,35.9L83.8,35.9z"/>
				</g>
			</g>
		</g>
		<g>
			<path class="st2" d="M81.6,42.3l1.2,5.7l-0.4,0.4l-0.4-0.3L81.3,43l0.3,5.1l-0.4,0.5l-0.4-0.5l0.3-5.1l-0.7,5.1L80,48.4L79.6,48
				l1.2-5.7H81.6L81.6,42.3z"/>
			<path class="st2" d="M81.2,48.7l-0.5-0.6l0.2-3.4l-0.5,3.4L80,48.5L79.5,48l1.3-5.8h0.9L83,48l-0.5,0.5L82,48.1l-0.5-3.4l0.2,3.4
				L81.2,48.7z M80.9,48.1l0.3,0.4l0.3-0.4l-0.3-5l0.1,0l0.7,5l0.4,0.3l0.3-0.3l-1.2-5.6h-0.7L79.6,48l0.3,0.3l0.4-0.3l0.7-5l0.1,0
				L80.9,48.1z"/>
		</g>
		<g id="b_3_">
			<g>
				<path class="st1" d="M78.4,39.8L76,48.6l3.4,0.5l1.5-6.6L78.4,39.8L78.4,39.8z"/>
				<path class="st2" d="M79.4,49.2C79.4,49.2,79.4,49.2,79.4,49.2l-3.4-0.5c0,0,0,0-0.1,0c0,0,0,0,0-0.1l2.5-8.8c0,0,0,0,0.1-0.1
					c0,0,0.1,0,0.1,0l2.4,2.7c0,0,0,0,0,0.1L79.4,49.2C79.4,49.2,79.4,49.2,79.4,49.2z M76.1,48.5l3.3,0.5l1.4-6.5L78.5,40
					L76.1,48.5z"/>
			</g>
			<g>
				<path class="st2" d="M77.9,43.6C77.9,43.6,77.9,43.6,77.9,43.6C77.9,43.6,77.8,43.6,77.9,43.6l-0.4-0.8l0.2-0.1l0.3,0.6l1.5-1.5
					l0.1,0.1L77.9,43.6C78,43.6,77.9,43.6,77.9,43.6z"/>
			</g>
			<g>
				<path class="st2" d="M79.1,44.2C79.1,44.2,79.1,44.2,79.1,44.2C79,44.2,79,44.2,79.1,44.2L78.7,41l0.2,0l0.3,3l0.9-1.2l0.1,0.1
					L79.1,44.2C79.1,44.2,79.1,44.2,79.1,44.2z"/>
			</g>
			<g>
				<rect x="79.9" y="43.3" transform="matrix(0.9605 -0.2783 0.2783 0.9605 -9.168 24.0036)" class="st2" width="0.2" height="2"/>
			</g>
			<g>
				<path class="st2" d="M79.6,48l-0.3-1.5l-0.7,1c0,0,0,0-0.1,0c0,0-0.1,0-0.1-0.1l-0.4-1.1l-0.7,1.1c0,0,0,0-0.1,0
					c0,0-0.1,0-0.1-0.1l-0.5-2c0,0,0-0.1,0-0.1l1.1-1.1c0,0,0.1,0,0.1,0c0,0,0.1,0,0.1,0.1l0.3,1l0.7-0.9c0,0,0.1,0,0.1,0
					c0,0,0.1,0,0.1,0.1l0.3,1.5l1-1.6l0.1,0.1l-1.1,1.7l0.4,1.7L79.6,48z M78.1,46.1C78.1,46.1,78.1,46.1,78.1,46.1
					C78.2,46.1,78.2,46.2,78.1,46.1l0.4,1.1l0.7-1L79,44.7l-0.6,0.9c0,0-0.1,0-0.1,0c0,0-0.1,0-0.1-0.1l-0.3-1l-0.9,1l0.5,1.7
					L78.1,46.1C78.1,46.1,78.1,46.1,78.1,46.1z"/>
			</g>
			<g>
				<path class="st2" d="M78.8,49.1l-0.4-1.1L77.9,49c0,0,0,0-0.1,0c0,0-0.1,0-0.1-0.1l-0.4-1.3l-0.6,0.8l-0.1-0.1l0.7-1
					c0,0,0,0,0.1,0c0,0,0.1,0,0.1,0.1l0.4,1.3l0.5-0.9c0,0,0,0,0.1,0c0,0,0.1,0,0.1,0.1l0.4,1.2L78.8,49.1z"/>
			</g>
		</g>
		<g transform="matrix(-1,0,0,1,900,0)">
			<g id="b_2_">
				<g>
					<path class="st1" d="M84,39.8l2.5,8.8l-3.4,0.5l-1.5-6.6L84,39.8L84,39.8z"/>
					<path class="st2" d="M83.1,49.2C83.1,49.2,83,49.2,83.1,49.2l-1.5-6.7c0,0,0,0,0-0.1l2.4-2.7c0,0,0,0,0.1,0c0,0,0,0,0.1,0.1
						l2.5,8.8c0,0,0,0,0,0.1c0,0,0,0-0.1,0L83.1,49.2C83.1,49.2,83.1,49.2,83.1,49.2z M81.7,42.5l1.4,6.5l3.3-0.5L84,40L81.7,42.5z"
						/>
				</g>
				<g>
					<path class="st2" d="M84.5,43.6C84.5,43.6,84.5,43.6,84.5,43.6l-1.7-1.6l0.1-0.1l1.5,1.5l0.3-0.6l0.2,0.1L84.5,43.6
						C84.6,43.6,84.6,43.6,84.5,43.6C84.6,43.6,84.6,43.6,84.5,43.6z"/>
				</g>
				<g>
					<path class="st2" d="M83.4,44.2C83.4,44.2,83.3,44.2,83.4,44.2l-1.1-1.4l0.1-0.1l0.9,1.2l0.3-3l0.2,0L83.4,44.2
						C83.5,44.2,83.4,44.2,83.4,44.2C83.4,44.2,83.4,44.2,83.4,44.2z"/>
				</g>
				<g>
					
						<rect x="81.5" y="44.2" transform="matrix(0.2784 -0.9605 0.9605 0.2784 16.9866 111.1981)" class="st2" width="2" height="0.2"/>
				</g>
				<g>
					<path class="st2" d="M82.9,48l-0.2,0l0.4-1.7l-1.1-1.7l0.1-0.1l1,1.6l0.3-1.5c0,0,0-0.1,0.1-0.1c0,0,0.1,0,0.1,0l0.7,0.9l0.3-1
						c0,0,0-0.1,0.1-0.1c0,0,0.1,0,0.1,0l1.1,1.1c0,0,0,0.1,0,0.1l-0.5,2c0,0,0,0.1-0.1,0.1c0,0-0.1,0-0.1,0l-0.7-1.1L84,47.5
						c0,0,0,0.1-0.1,0.1c0,0-0.1,0-0.1,0l-0.7-1L82.9,48z M83.2,46.2l0.7,1l0.4-1.1c0,0,0-0.1,0.1-0.1c0,0,0.1,0,0.1,0l0.6,1.1
						l0.5-1.7l-0.9-1l-0.3,1c0,0,0,0.1-0.1,0.1c0,0-0.1,0-0.1,0l-0.6-0.9L83.2,46.2z"/>
				</g>
				<g>
					<path class="st2" d="M83.7,49.1l-0.2-0.1l0.4-1.2c0,0,0-0.1,0.1-0.1c0,0,0.1,0,0.1,0l0.5,0.9l0.4-1.3c0,0,0-0.1,0.1-0.1
						c0,0,0.1,0,0.1,0l0.7,1l-0.1,0.1l-0.6-0.8l-0.4,1.3c0,0,0,0.1-0.1,0.1c0,0-0.1,0-0.1,0L84,48.1L83.7,49.1z"/>
				</g>
			</g>
		</g>
		<g>
			<g>
				<path class="st1" d="M81.2,52.5c2.6,0,5.1-0.2,6.5-0.6c0.6-0.1,0.6-0.4,0.6-0.8c0.6-0.2,0.3-0.9,0.7-0.9c-0.4,0.1-0.5-0.7-1-0.6
					c0-0.7-0.7-0.8-1.3-0.6c-1.2,0.4-3.4,0.5-5.5,0.5c-2.1-0.1-4.2-0.1-5.5-0.5c-0.6-0.2-1.3-0.1-1.3,0.6c-0.5-0.1-0.6,0.7-1,0.6
					c0.4,0,0.1,0.7,0.7,0.9c0,0.4,0,0.7,0.6,0.8C76.2,52.3,78.6,52.5,81.2,52.5L81.2,52.5z"/>
				<path class="st2" d="M81.2,52.7c-2.8,0-5.2-0.2-6.5-0.6c-0.7-0.1-0.7-0.5-0.8-0.9c-0.3-0.2-0.4-0.5-0.4-0.7c0-0.1,0-0.2-0.1-0.2
					c0,0-0.1,0-0.1,0c-0.1,0-0.1-0.1-0.1-0.2c0-0.1,0.1-0.1,0.2-0.1c0,0,0.1,0,0.1,0c0.1,0,0.2-0.1,0.3-0.2c0.1-0.2,0.3-0.4,0.6-0.4
					c0.1-0.4,0.4-0.7,0.9-0.7c0.2,0,0.4,0,0.6,0.1c1,0.3,2.6,0.4,4.3,0.5c0.4,0,0.7,0,1.1,0c2.6,0,4.4-0.2,5.4-0.5
					c0.2-0.1,0.4-0.1,0.6-0.1c0.5,0,0.9,0.3,0.9,0.7c0.3,0,0.4,0.2,0.6,0.4c0.1,0.1,0.2,0.2,0.3,0.2c0,0,0.1,0,0.1,0
					c0.1,0,0.1,0.1,0.2,0.1c0,0.1,0,0.1-0.1,0.2c0,0-0.1,0-0.1,0c0,0-0.1,0.1-0.1,0.2c0,0.2-0.1,0.5-0.4,0.7c0,0.4-0.1,0.8-0.7,0.9
					C86.4,52.5,84,52.7,81.2,52.7z M73.7,50.2c0,0.1,0.1,0.2,0.1,0.2c0.1,0.2,0.1,0.4,0.3,0.5c0.1,0,0.1,0.1,0.1,0.1
					c0,0.4,0,0.6,0.5,0.7c0,0,0,0,0,0c1.3,0.4,3.7,0.6,6.5,0.6c2.7,0,5.1-0.2,6.5-0.6c0,0,0,0,0,0c0.5-0.1,0.5-0.3,0.5-0.7
					c0-0.1,0-0.1,0.1-0.1c0.2-0.1,0.3-0.3,0.3-0.5c0-0.1,0-0.2,0.1-0.2c-0.1-0.1-0.2-0.2-0.2-0.3c-0.2-0.2-0.3-0.3-0.4-0.3
					c0,0-0.1,0-0.1,0c0,0-0.1-0.1-0.1-0.1c0-0.5-0.3-0.6-0.6-0.6c-0.2,0-0.3,0-0.5,0.1c-1,0.3-2.8,0.5-5.5,0.5c-0.4,0-0.7,0-1.1,0
					c-1.7-0.1-3.4-0.1-4.4-0.5C75.5,49,75.4,49,75.2,49c-0.3,0-0.6,0.1-0.6,0.6c0,0,0,0.1-0.1,0.1c0,0-0.1,0-0.1,0
					c-0.2,0-0.3,0.1-0.4,0.3C73.9,50,73.8,50.1,73.7,50.2z"/>
			</g>
			<g>
				<path class="st1" d="M77.7,48.6c0.8,0.1,1.8,0.2,2.5,0.1c0.4,0,0.7,0.7-0.1,0.8c-0.7,0.1-1.9,0-2.5-0.1
					c-0.5-0.1-1.7-0.3-2.4-0.5c-0.7-0.3-0.2-0.9,0.2-0.8C76.1,48.3,76.9,48.5,77.7,48.6L77.7,48.6z"/>
				<path class="st2" d="M79.4,49.7c-0.7,0-1.4-0.1-1.8-0.2c-0.4-0.1-1.6-0.3-2.4-0.5c-0.4-0.2-0.4-0.5-0.4-0.6
					c0-0.2,0.3-0.4,0.6-0.4c0,0,0.1,0,0.1,0c0.4,0.1,1.3,0.4,2.3,0.5c0,0,0,0,0,0c0.5,0.1,1.2,0.1,1.8,0.1c0.2,0,0.5,0,0.7,0
					c0,0,0,0,0,0c0.3,0,0.5,0.2,0.5,0.5c0,0.1,0,0.4-0.6,0.5C79.9,49.6,79.7,49.7,79.4,49.7z M75.4,48.2c-0.2,0-0.4,0.1-0.4,0.3
					c0,0.2,0.1,0.3,0.3,0.4c0.7,0.2,1.9,0.4,2.4,0.5c0.4,0.1,1.1,0.1,1.8,0.1c0.3,0,0.5,0,0.7,0c0.3,0,0.5-0.2,0.4-0.3
					c0-0.2-0.2-0.3-0.3-0.3c-0.2,0-0.4,0-0.7,0c-0.6,0-1.3-0.1-1.8-0.2C76.7,48.5,75.8,48.3,75.4,48.2
					C75.4,48.2,75.4,48.2,75.4,48.2z"/>
			</g>
			<g>
				<path class="st1" d="M84.8,48.6c-0.8,0.1-1.8,0.2-2.5,0.1c-0.4,0-0.7,0.7,0.1,0.8c0.7,0.1,1.9,0,2.5-0.1
					c0.5-0.1,1.7-0.3,2.4-0.5c0.7-0.3,0.2-0.9-0.2-0.8C86.4,48.3,85.6,48.5,84.8,48.6L84.8,48.6z"/>
				<path class="st2" d="M83.1,49.7c-0.3,0-0.5,0-0.7,0c-0.6-0.1-0.6-0.4-0.6-0.5c0-0.3,0.2-0.5,0.5-0.5c0.2,0,0.4,0,0.7,0
					c0.6,0,1.3-0.1,1.8-0.1c1-0.1,1.8-0.4,2.3-0.5c0,0,0.1,0,0.1,0c0.3,0,0.5,0.2,0.6,0.4c0,0.1,0,0.4-0.4,0.6
					c-0.8,0.2-2,0.4-2.4,0.5C84.4,49.6,83.7,49.7,83.1,49.7z M82.3,48.8c-0.2,0-0.3,0.2-0.3,0.3c0,0.2,0.2,0.3,0.4,0.3
					c0.2,0,0.4,0,0.7,0c0.7,0,1.4-0.1,1.8-0.1c0.4-0.1,1.6-0.3,2.4-0.5c0.2-0.1,0.3-0.2,0.3-0.4c0-0.2-0.3-0.3-0.5-0.3
					c-0.4,0.1-1.3,0.4-2.3,0.5c-0.5,0.1-1.2,0.2-1.8,0.2C82.7,48.8,82.5,48.8,82.3,48.8z"/>
			</g>
			<g>
				<path class="st1" d="M75.1,48.2c-0.6-0.1-0.9,0.6-0.7,1c0.1-0.2,0.5-0.2,0.6-0.4C75.1,48.5,74.9,48.5,75.1,48.2L75.1,48.2z"/>
				<path class="st2" d="M74.4,49.3C74.4,49.3,74.4,49.3,74.4,49.3c-0.2-0.3-0.2-0.6,0-0.8c0.2-0.3,0.4-0.4,0.8-0.3c0,0,0.1,0,0.1,0
					c0,0,0,0.1,0,0.1c-0.1,0.1-0.1,0.2-0.1,0.3c0,0.1,0,0.2,0,0.3C75,49,74.9,49,74.8,49.1C74.6,49.1,74.5,49.2,74.4,49.3
					C74.5,49.3,74.4,49.3,74.4,49.3C74.4,49.3,74.4,49.3,74.4,49.3z M75,48.3c-0.3,0-0.4,0.2-0.5,0.3c-0.1,0.2-0.1,0.4-0.1,0.5
					c0.1-0.1,0.2-0.1,0.2-0.1c0.1,0,0.2-0.1,0.3-0.2c0-0.1,0-0.2,0-0.2C75,48.4,75,48.4,75,48.3z"/>
			</g>
			<g>
				<path class="st1" d="M77.6,50.1c0-0.4,0.4-0.4,0.4-0.8c0-0.2-0.1-0.5-0.3-0.5c-0.2,0-0.4,0.2-0.4,0.4
					C77.2,49.6,77.6,49.7,77.6,50.1z"/>
				<path class="st2" d="M77.6,50.2C77.6,50.2,77.5,50.1,77.6,50.2c-0.1-0.2-0.2-0.3-0.2-0.4c-0.1-0.1-0.2-0.3-0.2-0.5
					c0-0.2,0.2-0.5,0.5-0.5c0.3,0,0.4,0.4,0.4,0.6c0,0.2-0.1,0.4-0.2,0.4C77.8,49.9,77.7,49.9,77.6,50.2
					C77.7,50.1,77.7,50.2,77.6,50.2z M77.7,48.9c-0.2,0-0.3,0.2-0.3,0.3c0,0,0,0,0,0c0,0.2,0,0.3,0.1,0.4c0,0.1,0.1,0.1,0.1,0.2
					c0-0.1,0.1-0.1,0.1-0.1c0.1-0.1,0.2-0.2,0.2-0.3C77.9,49.1,77.8,48.9,77.7,48.9z"/>
			</g>
			<g>
				<path class="st1" d="M80.6,48.9c0.6,0,0.6,0.8,0.3,1.2c0-0.3-0.5-0.4-0.5-0.6C80.3,49.2,80.8,49.2,80.6,48.9L80.6,48.9z"/>
				<path class="st2" d="M80.8,50.2C80.8,50.2,80.8,50.2,80.8,50.2C80.8,50.2,80.7,50.2,80.8,50.2c-0.1-0.2-0.2-0.3-0.3-0.4
					c-0.1-0.1-0.3-0.2-0.3-0.3c0-0.2,0.1-0.3,0.2-0.4c0.1-0.1,0.1-0.1,0.1-0.2c0,0,0-0.1,0-0.1c0,0,0,0,0.1,0c0.3,0,0.4,0.2,0.5,0.3
					C81.2,49.4,81.1,49.9,80.8,50.2C80.9,50.2,80.8,50.2,80.8,50.2z M80.7,49c0,0.1-0.1,0.2-0.2,0.3c-0.1,0.1-0.2,0.1-0.2,0.2
					c0,0,0.1,0.1,0.2,0.2c0.1,0.1,0.2,0.1,0.3,0.2c0.1-0.2,0.2-0.6,0.1-0.8C80.9,49.1,80.8,49,80.7,49z"/>
			</g>
			<g>
				<path class="st1" d="M87.3,48.2c0.6-0.1,0.9,0.6,0.7,1C88,49,87.5,49,87.4,48.8C87.3,48.5,87.5,48.5,87.3,48.2L87.3,48.2z"/>
				<path class="st2" d="M88,49.3C88,49.3,88,49.3,88,49.3C88,49.3,88,49.3,88,49.3c-0.1-0.1-0.2-0.2-0.3-0.2
					c-0.1-0.1-0.3-0.1-0.4-0.2c-0.1-0.2,0-0.3,0-0.3c0-0.1,0-0.1-0.1-0.3c0,0,0-0.1,0-0.1c0,0,0,0,0.1,0c0.3-0.1,0.6,0.1,0.8,0.3
					C88.2,48.7,88.2,49,88,49.3C88.1,49.3,88.1,49.3,88,49.3z M87.5,48.3c0.1,0.1,0,0.2,0,0.3c0,0.1,0,0.1,0,0.2
					c0,0.1,0.1,0.1,0.3,0.2c0.1,0,0.2,0.1,0.2,0.1c0-0.2,0-0.4-0.1-0.5C87.9,48.4,87.7,48.3,87.5,48.3z"/>
			</g>
			<g>
				<path class="st1" d="M84.8,50.1c0-0.4-0.4-0.4-0.4-0.8c0-0.2,0.1-0.5,0.3-0.5c0.2,0,0.4,0.2,0.4,0.4
					C85.3,49.6,84.8,49.7,84.8,50.1L84.8,50.1z"/>
				<path class="st2" d="M84.8,50.2C84.8,50.2,84.8,50.1,84.8,50.2c-0.1-0.2-0.2-0.3-0.3-0.4c-0.1-0.1-0.2-0.2-0.2-0.4
					c0-0.3,0.1-0.6,0.4-0.6c0.2,0,0.5,0.2,0.5,0.5c0.1,0.3-0.1,0.4-0.2,0.5C85,49.8,84.9,49.9,84.8,50.2
					C84.9,50.1,84.9,50.2,84.8,50.2z M84.8,48.9c-0.1,0-0.2,0.3-0.2,0.4c0,0.2,0.1,0.2,0.2,0.3c0,0,0.1,0.1,0.1,0.1
					c0-0.1,0.1-0.1,0.1-0.2c0.1-0.1,0.2-0.2,0.1-0.4c0,0,0,0,0,0C85.1,49.1,84.9,48.9,84.8,48.9z"/>
			</g>
			<g>
				<path class="st1" d="M81.9,48.9c-0.6,0-0.6,0.8-0.3,1.2c0-0.3,0.5-0.4,0.5-0.6C82.2,49.2,81.7,49.2,81.9,48.9z"/>
				<path class="st2" d="M81.6,50.2C81.6,50.2,81.6,50.2,81.6,50.2c-0.3-0.3-0.4-0.8-0.2-1.1c0.1-0.1,0.2-0.3,0.5-0.3
					c0,0,0.1,0,0.1,0c0,0,0,0.1,0,0.1c-0.1,0.1,0,0.1,0.1,0.2c0.1,0.1,0.2,0.2,0.2,0.4c0,0.1-0.1,0.2-0.3,0.3
					C81.9,49.9,81.7,50,81.6,50.2C81.7,50.2,81.7,50.2,81.6,50.2C81.7,50.2,81.6,50.2,81.6,50.2z M81.8,49c-0.1,0-0.2,0.1-0.2,0.2
					c-0.1,0.2-0.1,0.5,0.1,0.8c0.1-0.1,0.2-0.2,0.3-0.2c0.1-0.1,0.2-0.1,0.2-0.2c0-0.1-0.1-0.2-0.2-0.2C81.8,49.2,81.7,49.2,81.8,49
					z"/>
			</g>
			<g>
				<g>
					<path class="st1" d="M75.3,48.4c0.2,0,0.5,0.1,0.6,0.2L75.3,48.4L75.3,48.4z"/>
					<path class="st2" d="M76,48.7C76,48.7,75.9,48.7,76,48.7l-0.6-0.2c0,0,0,0,0,0c0,0,0,0,0-0.1c0,0,0,0,0.1,0
						c0.2,0,0.5,0.1,0.6,0.2C76,48.6,76,48.6,76,48.7C76,48.6,76,48.7,76,48.7C76,48.7,76,48.7,76,48.7z"/>
				</g>
				<g>
					<path class="st1" d="M76.4,48.7c0.1,0,0.5,0.1,0.7,0.2L76.4,48.7L76.4,48.7z"/>
					<path class="st2" d="M77.1,49C77.1,49,77.1,49,77.1,49l-0.7-0.2c0,0,0,0,0,0c0,0,0,0,0-0.1c0,0,0,0,0.1,0
						c0.1,0,0.5,0.1,0.7,0.2C77.1,48.9,77.2,48.9,77.1,49C77.2,48.9,77.1,49,77.1,49C77.1,49,77.1,49,77.1,49z"/>
				</g>
				<g>
					<path class="st1" d="M80.1,49.1c-0.2,0-0.6,0-0.7,0.1L80.1,49.1L80.1,49.1z"/>
					<path class="st2" d="M79.4,49.3C79.3,49.3,79.3,49.3,79.4,49.3c-0.1-0.1-0.1-0.1,0-0.1c0.1-0.1,0.5-0.1,0.8-0.1l0,0
						c0,0,0,0,0.1,0c0,0,0,0,0,0.1c0,0,0,0-0.1,0L79.4,49.3C79.4,49.3,79.4,49.3,79.4,49.3z"/>
				</g>
				<g>
					<path class="st1" d="M79,49.1c-0.1-0.1-0.5-0.1-0.7,0H79L79,49.1z"/>
					<path class="st2" d="M79,49.2h-0.7c0,0,0,0-0.1,0c0,0,0-0.1,0-0.1c0.1-0.1,0.3-0.1,0.4-0.1C78.7,49,78.9,49,79,49.2
						C79,49.1,79,49.1,79,49.2C79,49.2,79,49.2,79,49.2z"/>
				</g>
				<g>
					<path class="st1" d="M87.1,48.4c-0.2,0-0.5,0.1-0.6,0.2L87.1,48.4z"/>
					<path class="st2" d="M86.5,48.7C86.5,48.7,86.5,48.6,86.5,48.7C86.4,48.6,86.4,48.6,86.5,48.7c0.1-0.2,0.4-0.3,0.6-0.3
						c0,0,0.1,0,0.1,0c0,0,0,0.1,0,0.1L86.5,48.7C86.5,48.7,86.5,48.7,86.5,48.7z"/>
				</g>
				<g>
					<path class="st1" d="M86.1,48.7c-0.1,0-0.5,0.1-0.7,0.2L86.1,48.7L86.1,48.7z"/>
					<path class="st2" d="M85.4,49C85.3,49,85.3,49,85.4,49c-0.1-0.1-0.1-0.1,0-0.1c0.2-0.1,0.6-0.2,0.7-0.2c0,0,0,0,0.1,0
						c0,0,0,0.1,0,0.1c0,0,0,0,0,0L85.4,49C85.4,49,85.4,49,85.4,49z"/>
				</g>
				<g>
					<path class="st1" d="M82.4,49.1c0.2,0,0.6,0,0.7,0.1L82.4,49.1L82.4,49.1z"/>
					<path class="st2" d="M83.1,49.3C83.1,49.3,83.1,49.3,83.1,49.3l-0.7-0.1c0,0,0,0,0,0c0,0,0,0,0-0.1c0,0,0,0,0.1,0c0,0,0,0,0,0
						c0.3,0,0.6,0,0.7,0.1C83.1,49.2,83.2,49.2,83.1,49.3C83.2,49.2,83.1,49.3,83.1,49.3C83.1,49.3,83.1,49.3,83.1,49.3z"/>
				</g>
				<g>
					<path class="st1" d="M83.5,49.1c0.1-0.1,0.5-0.1,0.7,0H83.5L83.5,49.1z"/>
					<path class="st2" d="M84.2,49.2h-0.7c0,0-0.1,0-0.1-0.1c0,0,0,0,0,0c0.1-0.1,0.3-0.1,0.4-0.1c0.2,0,0.3,0,0.4,0.1
						C84.3,49.1,84.3,49.1,84.2,49.2C84.3,49.2,84.3,49.2,84.2,49.2z"/>
				</g>
			</g>
			<g>
				<g>
					<path class="st2" d="M75.2,50c-0.1,0-0.1-0.1-0.1-0.1c0-0.1,0.1-0.1,0.1-0.1c0,0,0.1,0.1,0.1,0.1c0,0,0,0.1-0.1,0.1
						C75.3,50,75.3,50,75.2,50C75.2,50,75.2,50,75.2,50L75.2,50z"/>
				</g>
				<g>
					<path class="st2" d="M82.3,50.5C82.3,50.5,82.2,50.5,82.3,50.5c-0.1-0.1,0-0.2,0.1-0.2c0,0,0.1,0,0.1,0.1c0,0,0,0.1,0,0.2
						C82.4,50.5,82.3,50.6,82.3,50.5L82.3,50.5z"/>
				</g>
				<g>
					<path class="st2" d="M82.4,50.9c-0.1,0-0.1,0-0.1-0.1c0-0.1,0-0.1,0.1-0.1l0,0l0,0c0.1,0,0.1,0.1,0.1,0.1
						C82.5,50.8,82.5,50.8,82.4,50.9C82.4,50.9,82.4,50.9,82.4,50.9L82.4,50.9z"/>
				</g>
				<g>
					<path class="st2" d="M75.7,49.4c0,0-0.1,0-0.1,0.1c-0.1,0-0.2,0.1-0.3,0c-0.1,0-0.2,0-0.2,0.1c0,0.1,0.1,0.1,0.2,0.1
						c0.1-0.1,0.2-0.1,0.2,0c-0.1,0.1-0.1,0.2-0.1,0.3c0,0.1,0,0.1-0.1,0.2c-0.1,0-0.1,0-0.2,0c-0.1,0-0.2,0-0.2,0.1
						c-0.1,0.1-0.1,0.2-0.1,0.2c0,0.1,0.1,0.1,0.2,0.1c0.1,0,0.2,0.1,0.3,0.1c0.1,0,0.3,0.1,0.4,0.1C76,51,76.2,51,76.4,51
						c0,0,0,0,0.1,0c0.1,0,0.1-0.1,0.1-0.1c0-0.2,0.1-0.3,0.1-0.5c0-0.1,0.1-0.2-0.1-0.2c-0.1,0-0.1,0.1-0.2,0.1c-0.1,0,0,0.1,0,0.2
						c0,0.1,0,0.2-0.1,0.2c-0.1,0-0.2,0-0.2,0c-0.1,0-0.2,0-0.2-0.1c0-0.1,0-0.2,0.1-0.2c0-0.1,0-0.2,0.1-0.3c0-0.1-0.1,0-0.2,0
						c0,0-0.2,0-0.1,0.1c0.1,0.1,0,0.2,0,0.2c0,0.1-0.1,0.1-0.2,0.1c-0.1,0-0.2-0.1-0.1-0.2c0-0.1,0-0.1,0.1-0.2
						c0-0.1,0.1-0.2,0.1-0.3c0-0.1,0-0.2,0.1-0.2C75.7,49.7,75.8,49.6,75.7,49.4C75.8,49.5,75.8,49.4,75.7,49.4L75.7,49.4z
						 M75.3,50.4C75.3,50.4,75.3,50.4,75.3,50.4C75.3,50.4,75.3,50.4,75.3,50.4C75.3,50.5,75.3,50.5,75.3,50.4
						C75.2,50.5,75.2,50.5,75.3,50.4C75.2,50.4,75.2,50.4,75.3,50.4C75.3,50.4,75.3,50.4,75.3,50.4L75.3,50.4z"/>
				</g>
				<g>
					<path class="st2" d="M75.1,51c-0.1-0.1-0.1-0.1,0-0.2c0,0,0.1,0,0.1,0c0.1,0.1,0.1,0.1,0,0.2C75.3,51.1,75.3,51.1,75.1,51
						C75.2,51.1,75.2,51.1,75.1,51L75.1,51z"/>
				</g>
				<g>
					<path class="st2" d="M75.5,51.2c-0.1,0-0.1-0.1-0.1-0.1c0-0.1,0-0.1,0.1-0.1c0.1,0,0.1,0,0.1,0.1c0,0,0,0.1,0,0.1
						C75.6,51.2,75.6,51.2,75.5,51.2L75.5,51.2z"/>
				</g>
				<g>
					<path class="st2" d="M87.1,51.2C87.1,51.1,87.1,51.1,87.1,51.2c0-0.1,0-0.2,0.1-0.2c0.1,0,0.1,0,0.2,0c0,0.1,0,0.1,0,0.2
						c0,0,0,0-0.1,0C87.1,51.2,87.1,51.2,87.1,51.2L87.1,51.2z"/>
				</g>
				<g>
					<path class="st2" d="M76.1,51.3c0,0-0.1,0-0.1-0.1c0,0,0-0.1,0-0.1c0,0,0.1,0,0.1,0c0,0,0,0,0.1,0c0.1,0.1,0.1,0.1,0,0.1
						C76.2,51.3,76.1,51.3,76.1,51.3L76.1,51.3z"/>
				</g>
				<g>
					<path class="st2" d="M78.9,51.4C78.9,51.4,78.9,51.4,78.9,51.4c0-0.1,0-0.2,0-0.3c0-0.1,0-0.1,0-0.2c0-0.1,0-0.2,0.1-0.4
						c0-0.1,0-0.1,0-0.2c0-0.1,0-0.2,0-0.3c0,0,0-0.1,0.1-0.1c0.1,0.1,0.1,0.1,0.2,0.2c0.1,0,0,0.1,0,0.1c-0.1,0-0.1,0.1-0.1,0.1
						c0,0.1,0,0.1,0,0.2c0,0.1,0,0.2,0,0.2c0,0.1,0,0.2,0,0.2c0,0.1,0,0.1,0,0.2c0,0.1,0,0.1-0.1,0.2C79,51.5,78.9,51.5,78.9,51.4
						L78.9,51.4z"/>
				</g>
				<g>
					<path class="st2" d="M82.8,50.2c-0.1,0-0.1,0.1-0.2,0.2c-0.1,0.1,0.1,0.1,0.1,0.1c0,0.1,0,0.2,0,0.2c0,0.1,0,0.1,0,0.2
						c0,0.1-0.1,0.1-0.2,0.1c-0.1,0-0.1,0.1-0.1,0.1c0,0.1,0,0.1,0,0.2c0,0.1,0,0.1,0,0.2c0,0,0,0,0,0c0,0,0,0,0.1,0
						c0.1,0,0.1,0,0.2,0c0.2,0,0.3,0,0.5,0c0.1,0,0.2,0,0.3,0c0.1,0,0.1-0.1,0.1-0.1c0-0.1,0-0.2,0-0.3c0-0.1,0-0.2,0-0.3
						c0-0.1-0.1-0.1-0.1,0c0,0-0.1,0.1-0.2,0.1c0,0.1,0.1,0.1,0.1,0.1c0,0.1,0,0.1,0,0.2c0,0.1-0.1,0.1-0.1,0.1c-0.1,0-0.2,0-0.2,0
						c0-0.1,0-0.1,0-0.2c0-0.1,0-0.2,0-0.3c0-0.1,0-0.3,0-0.4C82.9,50.3,82.9,50.2,82.8,50.2L82.8,50.2z M82.7,51.2L82.7,51.2
						L82.7,51.2l0,0.1l-0.1,0c0,0-0.1,0-0.1,0c0,0,0,0,0,0C82.6,51.3,82.6,51.3,82.7,51.2C82.6,51.2,82.7,51.2,82.7,51.2L82.7,51.2z
						"/>
				</g>
				<g>
					<path class="st2" d="M78.8,50c0,0-0.1,0.1-0.2,0.1c-0.1,0-0.1,0.1,0,0.2c0,0,0,0.1,0,0.1c0,0.1,0,0.2,0,0.3c0,0.1,0,0.2,0,0.3
						c0,0.1,0,0.2-0.1,0.4c0,0.1-0.1,0.1-0.2,0c0,0,0-0.1,0-0.1c0-0.1-0.1-0.1-0.1-0.2c-0.1,0-0.1-0.1-0.1-0.1c0,0,0.1,0,0.2,0
						c0.1,0,0.1-0.1,0.1-0.2c0-0.1-0.2-0.1-0.2-0.2c0-0.1-0.1-0.2-0.2-0.3c-0.1,0-0.2,0.1-0.3,0.2c-0.1,0-0.1,0-0.2,0.1
						c-0.1,0-0.2,0.2-0.1,0.2c0.1,0,0.3,0.1,0.2,0.2c-0.1,0.1-0.2,0.1-0.2,0.1c-0.1,0-0.2,0-0.2-0.2c0-0.1,0-0.2-0.1-0.3
						c0-0.1-0.1-0.1-0.2,0c-0.1,0.1-0.1,0.2,0,0.3c0,0.1,0,0.2,0,0.3c0,0.1-0.2,0.1-0.2,0.2c0,0-0.2,0-0.2,0.1c0.1,0,0.2,0.1,0.3,0
						c0.1,0,0.2-0.1,0.3-0.2c0.1-0.1,0.2,0,0.3,0c0.1,0,0.2,0.1,0.3,0c0-0.1,0.2-0.2,0.2-0.1c0,0.1,0.1,0.2,0.2,0.2
						c0.1,0,0.1,0.1,0.1,0.1c0,0.1,0.1,0.2,0.2,0.2c0,0,0.1,0,0.1,0c0.1,0,0.2-0.1,0.2-0.2c0-0.1,0-0.2,0.1-0.3
						c0-0.1,0.1-0.3,0.1-0.4c0-0.1,0-0.3,0.1-0.4C78.8,50.3,78.9,50.2,78.8,50C78.8,50,78.8,50,78.8,50L78.8,50z M77.9,50.6
						C77.9,50.6,77.9,50.6,77.9,50.6c0,0.1,0.1,0.2,0.1,0.2c0,0,0,0,0,0c0,0,0,0-0.1,0c-0.1,0-0.1,0-0.2-0.1l0,0l0,0
						C77.8,50.7,77.8,50.7,77.9,50.6C77.9,50.6,77.9,50.6,77.9,50.6L77.9,50.6z"/>
				</g>
				<g>
					<path class="st2" d="M86.5,49.6c-0.1,0-0.1,0-0.2,0c-0.1,0-0.2,0.1-0.1,0.2c0.1,0.2,0.2,0,0.3,0c0.2,0,0.2,0.2,0.2,0.4
						c0,0.2,0.1,0.3,0.1,0.4c0.1,0.1-0.1,0.2-0.2,0.1c-0.1-0.1-0.2-0.2-0.3-0.1c-0.1,0-0.1,0.2-0.2,0.3c-0.2,0-0.2-0.1-0.3-0.2
						c-0.1-0.1-0.2-0.1-0.3-0.2c-0.1-0.1,0-0.3-0.1-0.4c-0.1,0-0.3,0.2-0.1,0.3c0.1,0.1-0.1,0.2-0.1,0.3C85,50.8,85,51,85,51.1
						c-0.2,0.1-0.2-0.1-0.2-0.2c0-0.1-0.1-0.1-0.2,0c-0.1,0.1-0.2,0.2-0.3,0.3c0,0.1,0,0.2,0,0.3c0,0.1,0.2,0.1,0.2,0
						c0.1-0.1,0.2,0.1,0.1,0.2c-0.1,0.1-0.3,0-0.3,0.2c0.1,0,0.1,0,0.2,0c0.1,0,0.3-0.1,0.3-0.3c0-0.1,0.2-0.1,0.3-0.1
						c0.1,0,0.3,0,0.3,0.1c0.1,0.1,0.3,0.2,0.4,0.1c0.1-0.1,0.2-0.2,0.1-0.3c0-0.1,0.2-0.1,0.2,0c0.1,0.1,0.3,0.1,0.4,0
						c0.1-0.1,0.1-0.2,0.3-0.2c0.2-0.1,0.5-0.1,0.7-0.2c0.2,0,0-0.2-0.1-0.2c-0.1-0.1-0.3,0.2-0.4,0.1C87,50.5,87,50.3,87,50.2
						c0-0.2,0-0.4-0.2-0.5C86.7,49.6,86.6,49.6,86.5,49.6L86.5,49.6z M85.6,50.8C85.6,50.8,85.6,50.8,85.6,50.8
						c0.1,0.1,0.2,0.1,0.2,0.2c0,0,0,0,0,0c0,0-0.1,0-0.1,0c0,0-0.1,0-0.1-0.1C85.6,50.9,85.6,50.9,85.6,50.8
						C85.5,50.8,85.5,50.8,85.6,50.8C85.6,50.8,85.6,50.8,85.6,50.8z M86.5,50.8C86.5,50.8,86.5,50.8,86.5,50.8
						c0.1,0.1,0.1,0.1,0,0.2c0,0-0.1,0-0.1,0c0,0,0,0,0,0c0,0,0,0,0-0.1C86.4,50.9,86.4,50.8,86.5,50.8z M85.3,50.8
						C85.3,50.8,85.3,50.9,85.3,50.8C85.4,50.9,85.4,50.9,85.3,50.8c0.1,0.1,0.1,0.2,0.1,0.2c0,0,0,0-0.1,0c-0.1,0-0.1,0-0.1-0.1
						C85.2,50.9,85.2,50.9,85.3,50.8C85.3,50.9,85.3,50.8,85.3,50.8z M84.6,51C84.6,51,84.6,51.1,84.6,51c0.1,0.1,0.1,0.1,0,0.1
						c0,0-0.1,0-0.1,0c0,0,0,0,0,0c0,0,0,0,0,0C84.5,51.1,84.5,51.1,84.6,51C84.5,51.1,84.5,51.1,84.6,51C84.5,51,84.6,51,84.6,51
						L84.6,51z M85.8,51.2C85.8,51.2,85.8,51.2,85.8,51.2C85.9,51.2,85.9,51.3,85.8,51.2C85.8,51.3,85.7,51.3,85.8,51.2
						c-0.1,0.1-0.1,0.1-0.1,0.1C85.7,51.2,85.7,51.2,85.8,51.2C85.7,51.2,85.8,51.2,85.8,51.2L85.8,51.2z"/>
				</g>
				<g>
					<path class="st2" d="M83.5,51.8C83.5,51.8,83.5,51.8,83.5,51.8C83.6,51.7,83.6,51.7,83.5,51.8c0.2-0.1,0.2-0.2,0.3-0.2
						c0,0,0.1-0.1,0.1-0.1c0-0.1,0-0.1,0-0.2c0-0.1-0.1-0.1-0.1-0.1c0,0-0.1,0-0.1-0.1c0,0,0-0.1,0-0.1c0-0.1,0.1-0.1,0.1-0.2
						c0,0,0.1,0,0.1,0c0,0,0,0.1,0.1,0.1c0,0,0.1,0.1,0.1,0.2c0,0,0,0.1,0,0.1c0,0.1,0,0.1,0,0.2c0,0.1,0,0.1,0,0.2
						c0,0-0.1,0.1-0.1,0.1c0,0-0.1,0.1-0.1,0.1c0,0-0.1,0.1-0.1,0C83.7,51.8,83.6,51.8,83.5,51.8C83.6,51.8,83.5,51.8,83.5,51.8
						L83.5,51.8z"/>
				</g>
				<g>
					<path class="st2" d="M82.7,51.9C82.6,51.8,82.6,51.8,82.7,51.9c0-0.1,0-0.1,0-0.2c0.1-0.1,0.1-0.1,0.2,0c0.1,0,0.1,0.1,0.1,0
						c0,0,0.1-0.1,0.1-0.1c0,0,0.1,0,0.1,0c0,0,0,0,0,0.1c0,0.1,0,0.1,0,0.1c0,0,0,0-0.1,0c-0.1,0-0.1,0-0.1-0.1c0,0,0,0,0,0
						c0,0,0,0,0,0c0,0-0.1,0-0.1,0.1C82.8,51.9,82.8,51.9,82.7,51.9C82.7,51.9,82.7,51.9,82.7,51.9L82.7,51.9z"/>
				</g>
				<g>
					<path class="st2" d="M80.1,50.7c-0.1,0-0.2,0.1-0.2,0.2c0,0.1,0.1,0.2,0,0.3c0,0.1-0.1,0.2-0.2,0.1c-0.1-0.1-0.1-0.3-0.2-0.4
						c-0.1,0-0.1,0.1-0.2,0.2c0,0.1,0.1,0.2,0.2,0.3c0,0.1,0,0.3-0.2,0.3c-0.1,0.1-0.2,0.1-0.3,0.1c-0.1,0.1,0.1,0.1,0.2,0.1
						c0.1,0,0.3,0,0.4-0.1c0.1,0,0.1-0.2,0.2-0.2c0.2,0,0.4,0,0.6,0c0.1,0,0.3,0,0.4,0.1c0,0.1,0.1,0.2,0.2,0.3
						c0.1,0,0.1-0.1,0.2-0.1c0.1,0,0.1-0.2,0.2-0.3c0.2,0,0.4,0,0.6,0c0,0,0.1-0.1,0.1-0.1c0-0.1,0-0.2,0-0.2c0-0.1,0-0.2-0.1-0.3
						c-0.1,0-0.2,0.1-0.3,0.1c-0.1,0.1-0.2,0.2-0.2,0.3c-0.1,0.1-0.2,0-0.1-0.1c0,0,0-0.1,0-0.1C81.3,51,81.1,51,81,51
						c-0.1,0-0.3,0-0.4,0c-0.1,0-0.2,0-0.3,0C80.2,51,80.2,50.8,80.1,50.7C80.1,50.7,80.1,50.7,80.1,50.7L80.1,50.7z M80.3,51.2
						c0,0,0.1,0,0.1,0c0.1,0,0.1,0,0.2,0c0.1,0,0.3,0,0.4,0c0,0,0.1,0,0.1,0c0,0.1,0,0.2,0,0.3c0,0,0,0.1,0,0.1c0,0,0,0,0,0
						c0,0-0.1,0-0.1-0.1c0,0,0-0.1,0-0.1c0,0,0,0,0,0c0,0-0.1,0-0.1,0c-0.1,0-0.2,0-0.3,0c-0.1,0-0.2,0-0.3,0c0,0-0.1,0-0.1,0
						c0,0,0-0.1,0-0.1C80.3,51.2,80.3,51.2,80.3,51.2L80.3,51.2z M81.8,51.2C81.8,51.2,81.8,51.2,81.8,51.2c0,0.1,0,0.1,0.1,0.1
						c0,0,0,0,0,0c-0.1,0-0.1,0-0.2,0c0,0,0-0.1,0-0.1C81.7,51.2,81.8,51.2,81.8,51.2L81.8,51.2z"/>
				</g>
			</g>
		</g>
		<g>
			<path class="st1" d="M81.2,43.9c4.2-3.3,3.9-8,3.9-8c-0.1,0-0.2,0-0.3,0c-0.9,0-3-0.5-3.5-1.2c-0.5,0.6-2.7,1.2-3.6,1.2
				c-0.1,0-0.2,0-0.3,0C77.4,35.8,77,40.6,81.2,43.9L81.2,43.9z"/>
			<path class="st2" d="M81.2,44L81.2,44c-4.3-3.3-3.9-8.1-3.9-8.1l0-0.1l0.1,0c0.1,0,0.2,0,0.3,0c0.9,0,3-0.6,3.5-1.1l0.1-0.1
				l0.1,0.1c0.5,0.6,2.6,1.1,3.4,1.1c0.1,0,0.2,0,0.3,0l0.1,0l0,0.1C85.2,35.9,85.5,40.7,81.2,44L81.2,44z M77.4,35.9
				c0,0.6,0,4.9,3.8,7.9c3.8-3,3.8-7.2,3.8-7.9c-0.1,0-0.2,0-0.3,0c-0.9,0-2.9-0.5-3.5-1.1c-0.7,0.6-2.8,1.1-3.6,1.1
				C77.6,36,77.5,36,77.4,35.9z"/>
		</g>
		<g>
			<path class="st1" d="M84.8,36.2c0,0-0.1,0-0.1,0c-0.8,0-2.7-0.4-3.4-1c-0.8,0.6-2.7,1-3.5,1c0,0-0.1,0-0.1,0c0,0.2,0,0.4,0,0.5
				c0,0.6,0.2,1.3,0.3,1.9c0.5,1.9,1.6,3.6,3.2,4.8c1.6-1.2,2.7-2.9,3.2-4.8c0.2-0.6,0.3-1.3,0.3-1.9C84.8,36.6,84.8,36.4,84.8,36.2
				L84.8,36.2z"/>
			<path class="st2" d="M81.2,43.5L81.2,43.5c-1.6-1.3-2.7-3-3.2-4.9c-0.2-0.6-0.3-1.3-0.3-1.9c0-0.1,0-0.3,0-0.5l0-0.1l0.1,0
				c0,0,0.1,0,0.1,0c0.8,0,2.7-0.5,3.4-1l0,0l0,0c0.7,0.6,2.6,1,3.4,1c0,0,0.1,0,0.1,0l0.1,0l0,0.1c0,0.2,0,0.4,0,0.5
				c0,0.6-0.2,1.3-0.3,1.9C83.9,40.6,82.8,42.2,81.2,43.5L81.2,43.5z M77.8,36.3c0,0.2,0,0.3,0,0.5c0,0.6,0.1,1.3,0.3,1.9
				c0.5,1.9,1.6,3.5,3.1,4.8c1.6-1.2,2.6-2.9,3.1-4.8c0.2-0.6,0.3-1.3,0.3-1.9c0-0.1,0-0.3,0-0.5c0,0,0,0-0.1,0
				c-0.8,0-2.6-0.4-3.4-1C80.5,35.8,78.6,36.3,77.8,36.3C77.8,36.3,77.8,36.3,77.8,36.3z"/>
		</g>
		<g>
			<path class="st2" d="M79.9,35.8c-0.8,0.2-1.6,0.4-2,0.4c0,0-0.1,0-0.1,0c0,0.2,0,0.4,0,0.5c0,0.6,0.2,1.3,0.3,1.9
				c0.4,1.3,1,2.5,1.8,3.5L79.9,35.8L79.9,35.8z"/>
		</g>
		<g>
			<path class="st2" d="M82.5,35.8v6.4c0.9-1,1.5-2.2,1.9-3.6c0.2-0.6,0.3-1.3,0.3-1.9c0-0.2,0-0.4,0-0.5c0,0-0.1,0-0.1,0
				C84.2,36.2,83.3,36.1,82.5,35.8L82.5,35.8z"/>
		</g>
		<path class="st1" d="M82.8,34.3c0.1,0-0.1-0.5-0.1-0.5c0.2,0.2,1.1,0.3,1.1,0.3c-0.5-0.2-1-2-1-3.3c0.1-1.4-0.2-1.9-0.4-2.1
			c-0.3-0.3-1.1-0.5-1.6-0.5c-0.3,0-0.3,0.2-0.3,0.2c-0.6-0.1-1.2-0.2-1.4,0c-0.2,0.2-0.3,1-0.1,0.8c0.4-0.3,0.8,0,1.1,0.3
			c0.2,0.3,0.2,1.3-0.1,2.4c-0.3,1.2-1.3,2.3-1.3,2.3c0.5,0,1.2-0.5,1.2-0.5l-0.2,0.7c0.5-0.3,1-0.7,1-0.7l0.5,0.5
			c0.2-0.2,0.5-0.5,0.5-0.5S82.2,34.2,82.8,34.3L82.8,34.3z"/>
		<path class="st2" d="M79.6,34.5l0.2-0.7c-0.2,0.1-0.7,0.4-1.1,0.4h-0.2l0.1-0.1c0,0,0.9-1.2,1.3-2.3c0.3-1.1,0.3-2,0.1-2.3
			c-0.1-0.2-0.4-0.5-0.6-0.5c-0.1,0-0.2,0-0.3,0.1c0,0-0.1,0-0.1,0c0,0-0.1,0-0.1-0.1c-0.1-0.2,0-0.7,0.2-0.9c0.2-0.2,0.7-0.2,1.4,0
			c0,0,0-0.1,0.1-0.1c0.1-0.1,0.2-0.1,0.3-0.1c0.6,0,1.4,0.3,1.7,0.5c0.2,0.2,0.5,0.8,0.4,2.2c-0.1,1.4,0.5,3.1,0.9,3.3l0,0.2
			c-0.1,0-0.6,0-0.9-0.2c0.1,0.2,0.1,0.3,0,0.3c0,0,0,0-0.1,0l0,0c-0.6-0.1-1-0.4-1.1-0.5c-0.1,0.1-0.3,0.3-0.5,0.5l-0.1,0.1
			l-0.5-0.6c-0.1,0.1-0.5,0.4-0.9,0.6L79.6,34.5z M80,33.5l-0.2,0.7c0.5-0.2,0.8-0.6,0.8-0.6l0.1-0.1l0.5,0.5
			c0.2-0.2,0.5-0.5,0.5-0.5l0.1-0.1l0.1,0.1c0,0,0.4,0.4,1,0.5c0-0.1-0.1-0.2-0.1-0.3l0.1-0.1c0.1,0.1,0.5,0.2,0.8,0.2
			c-0.5-0.5-0.9-2-0.8-3.2c0.1-1.4-0.2-1.9-0.4-2.1c-0.2-0.2-1.1-0.5-1.6-0.5l0,0c0,0-0.1,0-0.1,0c0,0,0,0.1,0,0.1l0,0.1l-0.1,0
			c-0.6-0.2-1.1-0.2-1.3,0c-0.1,0-0.1,0.2-0.2,0.4c0,0.1,0,0.3,0,0.3c0.4-0.3,0.8-0.1,1.2,0.4c0.3,0.4,0.2,1.4-0.1,2.4
			c-0.3,0.9-0.9,1.8-1.2,2.2c0.5-0.1,1-0.4,1-0.4L80,33.5z"/>
		<g>
			<path class="st2" d="M80,33.7l-0.1-0.1c0.5-0.6,0.8-2.7,0.8-2.7l0.2,0C80.8,31,80.5,33.1,80,33.7z"/>
		</g>
		<g>
			<path class="st2" d="M80.8,33.8l-0.1-0.1c0.4-0.7,0.5-2.8,0.5-2.8l0.2,0C81.3,31,81.1,33.1,80.8,33.8z"/>
		</g>
		<g>
			<path class="st2" d="M81.7,33.8c-0.1-0.4-0.1-2.7-0.1-2.8h0.2c0,0.7,0,2.4,0.1,2.7L81.7,33.8z"/>
		</g>
		<g>
			<path class="st2" d="M82.6,33.8c-0.5-0.7-0.6-2.7-0.6-2.7l0.2,0c0,0,0.1,2,0.6,2.7L82.6,33.8z"/>
		</g>
		<g>
			<path class="st2" d="M80.2,29.9c0-0.2-0.1-0.3-0.1-0.4c-0.3-0.4-0.6-0.7-1.1-0.3c0,0,0.1-0.5,0.5-0.5c0.2,0,0.8,0.2,1.3,1
				c0,0-0.4-0.1-0.4,0C80.1,29.8,80.2,29.9,80.2,29.9L80.2,29.9z"/>
			<path class="st2" d="M80.2,29.9C80.2,29.9,80.2,29.9,80.2,29.9c0-0.2-0.1-0.4-0.1-0.4c-0.3-0.5-0.7-0.6-1-0.3l-0.1,0l0-0.1
				c0,0,0.2-0.5,0.5-0.5c0,0,0,0,0,0c0.3,0,0.8,0.3,1.3,1l0,0l-0.1,0c0,0-0.2,0-0.3,0c-0.1,0-0.1,0-0.1,0
				C80.3,29.7,80.2,29.8,80.2,29.9C80.2,29.9,80.2,29.9,80.2,29.9L80.2,29.9z M79.4,29c0.2,0,0.5,0.2,0.7,0.5c0,0.1,0.1,0.2,0.1,0.3
				c0,0,0-0.1,0.1-0.1c0,0,0.1,0,0.2,0c0.1,0,0.2,0,0.3,0c-0.6-0.9-1.1-1-1.2-1c0,0,0,0,0,0c-0.2,0-0.4,0.3-0.4,0.4
				C79.2,29,79.3,29,79.4,29z"/>
		</g>
		<g>
			<path class="st2" d="M79,28.6c0-0.1,0.1-0.2,0.2-0.3c0.3-0.2,0.8-0.1,1.4,0c0,0-0.1-0.2,0.3-0.2c0.5,0,1.4,0.3,1.6,0.5
				c0.1,0.1,0.1,0.2,0.2,0.3h0c-0.1-0.2-0.5-0.2-0.6-0.2c-0.1,0-0.2,0-0.4,0.1c-0.1,0-0.2,0-0.3,0.1c-0.1,0-0.1,0.2-0.2,0.2
				c-0.1,0-0.1,0-0.2-0.1c0-0.1-0.1-0.1-0.1-0.1c-0.1,0-0.4-0.1-0.7-0.3c-0.3-0.2-0.4-0.3-0.8-0.3C79.1,28.4,78.9,28.6,79,28.6
				L79,28.6L79,28.6z"/>
			<path class="st2" d="M81.1,29.2c-0.1,0-0.1,0-0.2-0.1c0,0,0,0,0,0c0,0,0,0,0-0.1c0,0,0-0.1-0.1-0.1c-0.1,0-0.4-0.1-0.7-0.3
				c-0.2-0.2-0.4-0.3-0.6-0.3c0,0-0.1,0-0.1,0c-0.4,0-0.5,0.2-0.5,0.2l0,0l0,0c0-0.1,0.1-0.2,0.2-0.3c0.1-0.1,0.3-0.1,0.5-0.1
				c0.2,0,0.6,0,0.9,0.1c0,0,0-0.1,0-0.1c0-0.1,0.1-0.1,0.2-0.1c0.6,0,1.4,0.3,1.7,0.5c0.1,0.1,0.1,0.2,0.2,0.3l0,0h-0.1l0,0
				c-0.1-0.1-0.4-0.2-0.5-0.2c-0.1,0-0.1,0-0.1,0c0,0-0.1,0-0.1,0c-0.1,0-0.2,0-0.3,0l0,0c-0.1,0-0.2,0-0.3,0.1c0,0,0,0-0.1,0.1
				C81.3,29.1,81.2,29.2,81.1,29.2z M80.9,28.9C80.9,28.9,80.9,28.9,80.9,28.9C81,29,81,29,81,29c0,0,0,0,0,0c0,0,0,0,0.1,0
				c0,0,0.1-0.1,0.1-0.1c0,0,0-0.1,0.1-0.1c0.1-0.1,0.2-0.1,0.3-0.1l0,0c0.1,0,0.2,0,0.3,0c0,0,0.1,0,0.1,0c0,0,0.1,0,0.1,0
				c0.1,0,0.3,0,0.4,0.1c0-0.1-0.1-0.1-0.1-0.2c-0.3-0.3-1.1-0.5-1.6-0.5c-0.1,0-0.2,0-0.2,0.1c0,0.1,0,0.1,0,0.1l0,0l0,0
				c-0.3-0.1-0.7-0.1-0.9-0.1c-0.2,0-0.4,0-0.5,0.1c0,0-0.1,0.1-0.1,0.2c0.1-0.1,0.2-0.1,0.4-0.2c0.1,0,0.1,0,0.1,0
				c0.3,0,0.4,0.1,0.6,0.3C80.5,28.8,80.7,28.9,80.9,28.9L80.9,28.9z"/>
		</g>
		<g>
			<path class="st1" d="M81.1,28.6c0.1,0,0.2,0.1,0.2,0.2s-0.1,0.2-0.2,0.2c-0.1,0-0.2-0.1-0.2-0.2S81,28.6,81.1,28.6z"/>
		</g>
	</g>
	<rect y="53.7" class="st3" width="159.2" height="26.7"/>
</g>
<g id="Layer_2">
</g>
<g id="Layer_3">
</g>
</svg>
